<svg width="362" height="418" viewBox="0 0 362 418" fill="none" xmlns="http://www.w3.org/2000/svg">
<g clip-path="url(#clip0_434_22653)">
<mask id="path-1-outside-1_434_22653" maskUnits="userSpaceOnUse" x="0" y="0" width="362" height="418" fill="black">
<rect fill="white" width="362" height="418"/>
<path d="M1 17C1 8.16346 8.16344 1 17 1H345C353.837 1 361 8.16344 361 17V401C361 409.837 353.837 417 345 417H17C8.16344 417 1 409.837 1 401V17Z"/>
</mask>
<path d="M1 17C1 8.16346 8.16344 1 17 1H345C353.837 1 361 8.16344 361 17V401C361 409.837 353.837 417 345 417H17C8.16344 417 1 409.837 1 401V17Z" fill="white"/>
<mask id="path-3-inside-2_434_22653" fill="white">
<path d="M17 25C17 20.5817 20.5817 17 25 17H165C169.418 17 173 20.5817 173 25V73C173 77.4183 169.418 81 165 81H25C20.5817 81 17 77.4183 17 73V25Z"/>
</mask>
<path d="M17 25C17 20.5817 20.5817 17 25 17H165C169.418 17 173 20.5817 173 25V73C173 77.4183 169.418 81 165 81H25C20.5817 81 17 77.4183 17 73V25Z" fill="#E9E7E4"/>
<path d="M25 17V18H165V17V16H25V17ZM173 25H172V73H173H174V25H173ZM165 81V80H25V81V82H165V81ZM17 73H18V25H17H16V73H17ZM25 81V80C21.134 80 18 76.866 18 73H17H16C16 77.9706 20.0294 82 25 82V81ZM173 73H172C172 76.866 168.866 80 165 80V81V82C169.971 82 174 77.9706 174 73H173ZM165 17V18C168.866 18 172 21.134 172 25H173H174C174 20.0294 169.971 16 165 16V17ZM25 17V16C20.0294 16 16 20.0294 16 25H17H18C18 21.134 21.134 18 25 18V17Z" fill="#BEB8B0" mask="url(#path-3-inside-2_434_22653)"/>
<path d="M60.214 52.992V54H53.732V44.62H54.838V52.992H60.214ZM64.5811 46.93C66.3031 46.93 67.4371 47.854 67.4371 49.52V54H66.4011V52.95C65.8691 53.664 65.0011 54.182 63.8111 54.182C62.2991 54.182 61.3051 53.314 61.3051 52.068C61.3051 50.808 62.2711 49.912 64.0771 49.912H66.4011V49.59C66.4011 48.512 65.7011 47.868 64.6371 47.868C63.5871 47.868 62.8591 48.386 62.7051 49.254L61.6831 49.03C61.9071 47.784 63.0691 46.93 64.5811 46.93ZM63.9651 53.3C65.3091 53.3 66.4011 52.362 66.4011 51.116V50.752H64.0631C62.9291 50.752 62.3271 51.298 62.3271 52.054C62.3271 52.782 62.9711 53.3 63.9651 53.3ZM68.976 52.138L70.04 51.9C70.138 52.81 70.978 53.3 72.07 53.3C73.064 53.3 73.722 52.838 73.722 52.124C73.722 51.55 73.288 51.284 72.588 51.13L71.006 50.78C69.858 50.542 69.214 49.968 69.214 49.016C69.214 47.77 70.25 46.93 71.832 46.93C73.386 46.93 74.394 47.728 74.646 48.848L73.624 49.072C73.484 48.316 72.826 47.798 71.804 47.798C70.824 47.798 70.278 48.274 70.278 48.932C70.278 49.478 70.656 49.73 71.328 49.884L72.994 50.248C74.002 50.472 74.772 51.004 74.772 52.054C74.772 53.412 73.638 54.182 71.986 54.182C70.404 54.182 69.144 53.482 68.976 52.138ZM80.4401 52.754L80.7901 53.636C80.2301 54.028 79.7541 54.182 79.1941 54.182C77.8221 54.182 76.9121 53.37 76.9121 51.844V47.994H75.4141V47.098H76.9121V44.62H77.9901V47.098H80.4541V47.994H77.9901V51.774C77.9901 52.67 78.4941 53.174 79.2641 53.174C79.6561 53.174 80.0901 53.006 80.4401 52.754ZM90.2472 49.198C91.2412 49.478 91.8432 50.234 91.8432 51.312C91.8432 53.034 90.5552 54.182 88.6512 54.182C86.6632 54.182 85.3472 52.95 85.2352 51.13L86.2712 50.92C86.3692 52.306 87.2372 53.202 88.6512 53.202C89.9392 53.202 90.8352 52.46 90.8352 51.326C90.8352 50.29 90.0512 49.688 88.7492 49.688H87.4472V48.722H88.6792C89.8832 48.722 90.6392 48.134 90.6392 47.168C90.6392 46.118 89.8272 45.418 88.5952 45.418C87.3212 45.418 86.4672 46.202 86.3832 47.588L85.3612 47.392C85.4872 45.642 86.7192 44.438 88.6092 44.438C90.4432 44.438 91.6612 45.544 91.6612 47.168C91.6612 48.176 91.1152 48.904 90.2472 49.198ZM97.3163 44.438C99.6403 44.438 101.194 46.412 101.194 49.31C101.194 52.222 99.6403 54.182 97.3163 54.182C94.9923 54.182 93.4243 52.222 93.4243 49.31C93.4243 46.412 94.9923 44.438 97.3163 44.438ZM97.3163 53.146C98.9823 53.146 100.074 51.592 100.074 49.31C100.074 47.014 98.9823 45.46 97.3163 45.46C95.6363 45.46 94.5443 47.014 94.5443 49.31C94.5443 51.592 95.6363 53.146 97.3163 53.146ZM113.346 43.22V54H112.282V52.852C111.68 53.692 110.714 54.182 109.538 54.182C107.704 54.182 106.094 52.74 106.094 50.556C106.094 48.372 107.704 46.93 109.538 46.93C110.714 46.93 111.68 47.42 112.282 48.26V43.22H113.346ZM109.706 53.23C111.008 53.23 112.282 52.194 112.282 50.556C112.282 48.904 111.008 47.868 109.706 47.868C108.278 47.868 107.13 48.904 107.13 50.556C107.13 52.194 108.278 53.23 109.706 53.23ZM118.462 46.93C120.184 46.93 121.318 47.854 121.318 49.52V54H120.282V52.95C119.75 53.664 118.882 54.182 117.692 54.182C116.18 54.182 115.186 53.314 115.186 52.068C115.186 50.808 116.152 49.912 117.958 49.912H120.282V49.59C120.282 48.512 119.582 47.868 118.518 47.868C117.468 47.868 116.74 48.386 116.586 49.254L115.564 49.03C115.788 47.784 116.95 46.93 118.462 46.93ZM117.846 53.3C119.19 53.3 120.282 52.362 120.282 51.116V50.752H117.944C116.81 50.752 116.208 51.298 116.208 52.054C116.208 52.782 116.852 53.3 117.846 53.3ZM129.638 47.098L124.962 57.36H123.772L125.354 53.902L122.26 47.098H123.464L125.928 52.614L128.448 47.098H129.638ZM130.363 52.138L131.427 51.9C131.525 52.81 132.365 53.3 133.457 53.3C134.451 53.3 135.109 52.838 135.109 52.124C135.109 51.55 134.675 51.284 133.975 51.13L132.393 50.78C131.245 50.542 130.601 49.968 130.601 49.016C130.601 47.77 131.637 46.93 133.219 46.93C134.773 46.93 135.781 47.728 136.033 48.848L135.011 49.072C134.871 48.316 134.213 47.798 133.191 47.798C132.211 47.798 131.665 48.274 131.665 48.932C131.665 49.478 132.043 49.73 132.715 49.884L134.381 50.248C135.389 50.472 136.159 51.004 136.159 52.054C136.159 53.412 135.025 54.182 133.373 54.182C131.791 54.182 130.531 53.482 130.363 52.138Z" fill="#696159"/>
<mask id="path-6-inside-3_434_22653" fill="white">
<path d="M189 25C189 20.5817 192.582 17 197 17H337C341.418 17 345 20.5817 345 25V73C345 77.4183 341.418 81 337 81H197C192.582 81 189 77.4183 189 73V25Z"/>
</mask>
<path d="M189 25C189 20.5817 192.582 17 197 17H337C341.418 17 345 20.5817 345 25V73C345 77.4183 341.418 81 337 81H197C192.582 81 189 77.4183 189 73V25Z" fill="#E9E7E4"/>
<path d="M197 17V18H337V17V16H197V17ZM345 25H344V73H345H346V25H345ZM337 81V80H197V81V82H337V81ZM189 73H190V25H189H188V73H189ZM197 81V80C193.134 80 190 76.866 190 73H189H188C188 77.9706 192.029 82 197 82V81ZM345 73H344C344 76.866 340.866 80 337 80V81V82C341.971 82 346 77.9706 346 73H345ZM337 17V18C340.866 18 344 21.134 344 25H345H346C346 20.0294 341.971 16 337 16V17ZM197 17V16C192.029 16 188 20.0294 188 25H189H190C190 21.134 193.134 18 197 18V17Z" fill="#BEB8B0" mask="url(#path-6-inside-3_434_22653)"/>
<path d="M232.214 52.992V54H225.732V44.62H226.838V52.992H232.214ZM236.581 46.93C238.303 46.93 239.437 47.854 239.437 49.52V54H238.401V52.95C237.869 53.664 237.001 54.182 235.811 54.182C234.299 54.182 233.305 53.314 233.305 52.068C233.305 50.808 234.271 49.912 236.077 49.912H238.401V49.59C238.401 48.512 237.701 47.868 236.637 47.868C235.587 47.868 234.859 48.386 234.705 49.254L233.683 49.03C233.907 47.784 235.069 46.93 236.581 46.93ZM235.965 53.3C237.309 53.3 238.401 52.362 238.401 51.116V50.752H236.063C234.929 50.752 234.327 51.298 234.327 52.054C234.327 52.782 234.971 53.3 235.965 53.3ZM240.976 52.138L242.04 51.9C242.138 52.81 242.978 53.3 244.07 53.3C245.064 53.3 245.722 52.838 245.722 52.124C245.722 51.55 245.288 51.284 244.588 51.13L243.006 50.78C241.858 50.542 241.214 49.968 241.214 49.016C241.214 47.77 242.25 46.93 243.832 46.93C245.386 46.93 246.394 47.728 246.646 48.848L245.624 49.072C245.484 48.316 244.826 47.798 243.804 47.798C242.824 47.798 242.278 48.274 242.278 48.932C242.278 49.478 242.656 49.73 243.328 49.884L244.994 50.248C246.002 50.472 246.772 51.004 246.772 52.054C246.772 53.412 245.638 54.182 243.986 54.182C242.404 54.182 241.144 53.482 240.976 52.138ZM252.44 52.754L252.79 53.636C252.23 54.028 251.754 54.182 251.194 54.182C249.822 54.182 248.912 53.37 248.912 51.844V47.994H247.414V47.098H248.912V44.62H249.99V47.098H252.454V47.994H249.99V51.774C249.99 52.67 250.494 53.174 251.264 53.174C251.656 53.174 252.09 53.006 252.44 52.754ZM261.001 47.938C262.989 47.938 264.207 49.254 264.207 51.018C264.207 52.824 262.905 54.182 260.917 54.182C258.593 54.182 257.221 52.474 257.221 49.562C257.221 47.84 257.571 46.412 258.495 45.46C259.111 44.83 259.965 44.438 260.973 44.438C262.429 44.438 263.577 45.166 263.955 46.496L262.891 46.706C262.625 45.824 261.911 45.418 260.931 45.418C260.203 45.418 259.615 45.712 259.209 46.16C258.411 47.028 258.229 48.316 258.271 49.436C258.747 48.526 259.839 47.938 261.001 47.938ZM260.903 53.174C262.191 53.174 263.115 52.222 263.115 51.004C263.115 49.786 262.191 48.862 260.903 48.862C259.545 48.862 258.649 49.856 258.649 51.046C258.649 52.306 259.657 53.174 260.903 53.174ZM269.644 44.438C271.968 44.438 273.522 46.412 273.522 49.31C273.522 52.222 271.968 54.182 269.644 54.182C267.32 54.182 265.752 52.222 265.752 49.31C265.752 46.412 267.32 44.438 269.644 44.438ZM269.644 53.146C271.31 53.146 272.402 51.592 272.402 49.31C272.402 47.014 271.31 45.46 269.644 45.46C267.964 45.46 266.872 47.014 266.872 49.31C266.872 51.592 267.964 53.146 269.644 53.146ZM285.674 43.22V54H284.61V52.852C284.008 53.692 283.042 54.182 281.866 54.182C280.032 54.182 278.422 52.74 278.422 50.556C278.422 48.372 280.032 46.93 281.866 46.93C283.042 46.93 284.008 47.42 284.61 48.26V43.22H285.674ZM282.034 53.23C283.336 53.23 284.61 52.194 284.61 50.556C284.61 48.904 283.336 47.868 282.034 47.868C280.606 47.868 279.458 48.904 279.458 50.556C279.458 52.194 280.606 53.23 282.034 53.23ZM290.79 46.93C292.512 46.93 293.646 47.854 293.646 49.52V54H292.61V52.95C292.078 53.664 291.21 54.182 290.02 54.182C288.508 54.182 287.514 53.314 287.514 52.068C287.514 50.808 288.48 49.912 290.286 49.912H292.61V49.59C292.61 48.512 291.91 47.868 290.846 47.868C289.796 47.868 289.068 48.386 288.914 49.254L287.892 49.03C288.116 47.784 289.278 46.93 290.79 46.93ZM290.174 53.3C291.518 53.3 292.61 52.362 292.61 51.116V50.752H290.272C289.138 50.752 288.536 51.298 288.536 52.054C288.536 52.782 289.18 53.3 290.174 53.3ZM301.966 47.098L297.29 57.36H296.1L297.682 53.902L294.588 47.098H295.792L298.256 52.614L300.776 47.098H301.966ZM302.691 52.138L303.755 51.9C303.853 52.81 304.693 53.3 305.785 53.3C306.779 53.3 307.437 52.838 307.437 52.124C307.437 51.55 307.003 51.284 306.303 51.13L304.721 50.78C303.573 50.542 302.929 49.968 302.929 49.016C302.929 47.77 303.965 46.93 305.547 46.93C307.101 46.93 308.109 47.728 308.361 48.848L307.339 49.072C307.199 48.316 306.541 47.798 305.519 47.798C304.539 47.798 303.993 48.274 303.993 48.932C303.993 49.478 304.371 49.73 305.043 49.884L306.709 50.248C307.717 50.472 308.487 51.004 308.487 52.054C308.487 53.412 307.353 54.182 305.701 54.182C304.119 54.182 302.859 53.482 302.691 52.138Z" fill="#696159"/>
<mask id="path-9-inside-4_434_22653" fill="white">
<path d="M17 105C17 100.582 20.5817 97 25 97H165C169.418 97 173 100.582 173 105V153C173 157.418 169.418 161 165 161H25C20.5817 161 17 157.418 17 153V105Z"/>
</mask>
<path d="M17 105C17 100.582 20.5817 97 25 97H165C169.418 97 173 100.582 173 105V153C173 157.418 169.418 161 165 161H25C20.5817 161 17 157.418 17 153V105Z" fill="white"/>
<path d="M25 97V98H165V97V96H25V97ZM173 105H172V153H173H174V105H173ZM165 161V160H25V161V162H165V161ZM17 153H18V105H17H16V153H17ZM25 161V160C21.134 160 18 156.866 18 153H17H16C16 157.971 20.0294 162 25 162V161ZM173 153H172C172 156.866 168.866 160 165 160V161V162C169.971 162 174 157.971 174 153H173ZM165 97V98C168.866 98 172 101.134 172 105H173H174C174 100.029 169.971 96 165 96V97ZM25 97V96C20.0294 96 16 100.029 16 105H17H18C18 101.134 21.134 98 25 98V97Z" fill="#D3CFCA" mask="url(#path-9-inside-4_434_22653)"/>
<path d="M60.214 132.992V134H53.732V124.62H54.838V132.992H60.214ZM64.5811 126.93C66.3031 126.93 67.4371 127.854 67.4371 129.52V134H66.4011V132.95C65.8691 133.664 65.0011 134.182 63.8111 134.182C62.2991 134.182 61.3051 133.314 61.3051 132.068C61.3051 130.808 62.2711 129.912 64.0771 129.912H66.4011V129.59C66.4011 128.512 65.7011 127.868 64.6371 127.868C63.5871 127.868 62.8591 128.386 62.7051 129.254L61.6831 129.03C61.9071 127.784 63.0691 126.93 64.5811 126.93ZM63.9651 133.3C65.3091 133.3 66.4011 132.362 66.4011 131.116V130.752H64.0631C62.9291 130.752 62.3271 131.298 62.3271 132.054C62.3271 132.782 62.9711 133.3 63.9651 133.3ZM68.976 132.138L70.04 131.9C70.138 132.81 70.978 133.3 72.07 133.3C73.064 133.3 73.722 132.838 73.722 132.124C73.722 131.55 73.288 131.284 72.588 131.13L71.006 130.78C69.858 130.542 69.214 129.968 69.214 129.016C69.214 127.77 70.25 126.93 71.832 126.93C73.386 126.93 74.394 127.728 74.646 128.848L73.624 129.072C73.484 128.316 72.826 127.798 71.804 127.798C70.824 127.798 70.278 128.274 70.278 128.932C70.278 129.478 70.656 129.73 71.328 129.884L72.994 130.248C74.002 130.472 74.772 131.004 74.772 132.054C74.772 133.412 73.638 134.182 71.986 134.182C70.404 134.182 69.144 133.482 68.976 132.138ZM80.4401 132.754L80.7901 133.636C80.2301 134.028 79.7541 134.182 79.1941 134.182C77.8221 134.182 76.9121 133.37 76.9121 131.844V127.994H75.4141V127.098H76.9121V124.62H77.9901V127.098H80.4541V127.994H77.9901V131.774C77.9901 132.67 78.4941 133.174 79.2641 133.174C79.6561 133.174 80.0901 133.006 80.4401 132.754ZM88.5112 124.438C90.8492 124.438 92.2072 126.146 92.2072 129.058C92.2072 130.78 91.8712 132.194 90.9332 133.16C90.3172 133.79 89.4632 134.182 88.4552 134.182C86.9992 134.182 85.8512 133.44 85.4872 132.11L86.5512 131.914C86.8032 132.796 87.5312 133.202 88.4972 133.202C89.2252 133.202 89.8132 132.894 90.2192 132.46C91.0172 131.578 91.1992 130.318 91.1572 129.184C90.6672 130.094 89.5892 130.682 88.4272 130.682C86.4532 130.682 85.2212 129.366 85.2212 127.588C85.2212 125.782 86.5372 124.438 88.5112 124.438ZM88.5392 129.758C89.8832 129.758 90.7932 128.75 90.7932 127.574C90.7932 126.314 89.7712 125.432 88.5392 125.432C87.2372 125.432 86.3272 126.384 86.3272 127.602C86.3272 128.834 87.2512 129.758 88.5392 129.758ZM97.6444 124.438C99.9684 124.438 101.522 126.412 101.522 129.31C101.522 132.222 99.9684 134.182 97.6444 134.182C95.3204 134.182 93.7524 132.222 93.7524 129.31C93.7524 126.412 95.3204 124.438 97.6444 124.438ZM97.6444 133.146C99.3104 133.146 100.402 131.592 100.402 129.31C100.402 127.014 99.3104 125.46 97.6444 125.46C95.9644 125.46 94.8724 127.014 94.8724 129.31C94.8724 131.592 95.9644 133.146 97.6444 133.146ZM113.674 123.22V134H112.61V132.852C112.008 133.692 111.042 134.182 109.866 134.182C108.032 134.182 106.422 132.74 106.422 130.556C106.422 128.372 108.032 126.93 109.866 126.93C111.042 126.93 112.008 127.42 112.61 128.26V123.22H113.674ZM110.034 133.23C111.336 133.23 112.61 132.194 112.61 130.556C112.61 128.904 111.336 127.868 110.034 127.868C108.606 127.868 107.458 128.904 107.458 130.556C107.458 132.194 108.606 133.23 110.034 133.23ZM118.79 126.93C120.512 126.93 121.646 127.854 121.646 129.52V134H120.61V132.95C120.078 133.664 119.21 134.182 118.02 134.182C116.508 134.182 115.514 133.314 115.514 132.068C115.514 130.808 116.48 129.912 118.286 129.912H120.61V129.59C120.61 128.512 119.91 127.868 118.846 127.868C117.796 127.868 117.068 128.386 116.914 129.254L115.892 129.03C116.116 127.784 117.278 126.93 118.79 126.93ZM118.174 133.3C119.518 133.3 120.61 132.362 120.61 131.116V130.752H118.272C117.138 130.752 116.536 131.298 116.536 132.054C116.536 132.782 117.18 133.3 118.174 133.3ZM129.966 127.098L125.29 137.36H124.1L125.682 133.902L122.588 127.098H123.792L126.256 132.614L128.776 127.098H129.966ZM130.691 132.138L131.755 131.9C131.853 132.81 132.693 133.3 133.785 133.3C134.779 133.3 135.437 132.838 135.437 132.124C135.437 131.55 135.003 131.284 134.303 131.13L132.721 130.78C131.573 130.542 130.929 129.968 130.929 129.016C130.929 127.77 131.965 126.93 133.547 126.93C135.101 126.93 136.109 127.728 136.361 128.848L135.339 129.072C135.199 128.316 134.541 127.798 133.519 127.798C132.539 127.798 131.993 128.274 131.993 128.932C131.993 129.478 132.371 129.73 133.043 129.884L134.709 130.248C135.717 130.472 136.487 131.004 136.487 132.054C136.487 133.412 135.353 134.182 133.701 134.182C132.119 134.182 130.859 133.482 130.691 132.138Z" fill="#1A1816"/>
<mask id="path-12-inside-5_434_22653" fill="white">
<path d="M189 105C189 100.582 192.582 97 197 97H337C341.418 97 345 100.582 345 105V153C345 157.418 341.418 161 337 161H197C192.582 161 189 157.418 189 153V105Z"/>
</mask>
<path d="M189 105C189 100.582 192.582 97 197 97H337C341.418 97 345 100.582 345 105V153C345 157.418 341.418 161 337 161H197C192.582 161 189 157.418 189 153V105Z" fill="white"/>
<path d="M197 97V98H337V97V96H197V97ZM345 105H344V153H345H346V105H345ZM337 161V160H197V161V162H337V161ZM189 153H190V105H189H188V153H189ZM197 161V160C193.134 160 190 156.866 190 153H189H188C188 157.971 192.029 162 197 162V161ZM345 153H344C344 156.866 340.866 160 337 160V161V162C341.971 162 346 157.971 346 153H345ZM337 97V98C340.866 98 344 101.134 344 105H345H346C346 100.029 341.971 96 337 96V97ZM197 97V96C192.029 96 188 100.029 188 105H189H190C190 101.134 193.134 98 197 98V97Z" fill="#D3CFCA" mask="url(#path-12-inside-5_434_22653)"/>
<path d="M226.714 132.992V134H220.232V124.62H221.338V132.992H226.714ZM231.081 126.93C232.803 126.93 233.937 127.854 233.937 129.52V134H232.901V132.95C232.369 133.664 231.501 134.182 230.311 134.182C228.799 134.182 227.805 133.314 227.805 132.068C227.805 130.808 228.771 129.912 230.577 129.912H232.901V129.59C232.901 128.512 232.201 127.868 231.137 127.868C230.087 127.868 229.359 128.386 229.205 129.254L228.183 129.03C228.407 127.784 229.569 126.93 231.081 126.93ZM230.465 133.3C231.809 133.3 232.901 132.362 232.901 131.116V130.752H230.563C229.429 130.752 228.827 131.298 228.827 132.054C228.827 132.782 229.471 133.3 230.465 133.3ZM235.476 132.138L236.54 131.9C236.638 132.81 237.478 133.3 238.57 133.3C239.564 133.3 240.222 132.838 240.222 132.124C240.222 131.55 239.788 131.284 239.088 131.13L237.506 130.78C236.358 130.542 235.714 129.968 235.714 129.016C235.714 127.77 236.75 126.93 238.332 126.93C239.886 126.93 240.894 127.728 241.146 128.848L240.124 129.072C239.984 128.316 239.326 127.798 238.304 127.798C237.324 127.798 236.778 128.274 236.778 128.932C236.778 129.478 237.156 129.73 237.828 129.884L239.494 130.248C240.502 130.472 241.272 131.004 241.272 132.054C241.272 133.412 240.138 134.182 238.486 134.182C236.904 134.182 235.644 133.482 235.476 132.138ZM246.94 132.754L247.29 133.636C246.73 134.028 246.254 134.182 245.694 134.182C244.322 134.182 243.412 133.37 243.412 131.844V127.994H241.914V127.098H243.412V124.62H244.49V127.098H246.954V127.994H244.49V131.774C244.49 132.67 244.994 133.174 245.764 133.174C246.156 133.174 246.59 133.006 246.94 132.754ZM255.501 127.938C257.489 127.938 258.707 129.254 258.707 131.018C258.707 132.824 257.405 134.182 255.417 134.182C253.093 134.182 251.721 132.474 251.721 129.562C251.721 127.84 252.071 126.412 252.995 125.46C253.611 124.83 254.465 124.438 255.473 124.438C256.929 124.438 258.077 125.166 258.455 126.496L257.391 126.706C257.125 125.824 256.411 125.418 255.431 125.418C254.703 125.418 254.115 125.712 253.709 126.16C252.911 127.028 252.729 128.316 252.771 129.436C253.247 128.526 254.339 127.938 255.501 127.938ZM255.403 133.174C256.691 133.174 257.615 132.222 257.615 131.004C257.615 129.786 256.691 128.862 255.403 128.862C254.045 128.862 253.149 129.856 253.149 131.046C253.149 132.306 254.157 133.174 255.403 133.174ZM272.614 126.93C274.07 126.93 275.19 127.966 275.19 129.534V134H274.126V129.716C274.126 128.624 273.384 127.91 272.348 127.91C271.074 127.91 270.234 128.848 270.234 130.472V134H269.17V129.716C269.17 128.624 268.428 127.91 267.406 127.91C266.132 127.91 265.306 128.848 265.306 130.472V134H264.242V127.098H265.306V128.148C265.796 127.392 266.58 126.93 267.658 126.93C268.722 126.93 269.604 127.448 270.01 128.33C270.542 127.476 271.438 126.93 272.614 126.93ZM280.528 126.944C282.558 126.944 284.182 128.428 284.182 130.542C284.182 132.656 282.558 134.168 280.528 134.168C278.47 134.168 276.86 132.656 276.86 130.542C276.86 128.428 278.47 126.944 280.528 126.944ZM280.528 133.23C281.942 133.23 283.132 132.138 283.132 130.542C283.132 128.96 281.942 127.882 280.528 127.882C279.1 127.882 277.896 128.96 277.896 130.542C277.896 132.138 279.1 133.23 280.528 133.23ZM289.675 126.93C291.341 126.93 292.447 128.12 292.447 129.87V134H291.383V130.066C291.383 128.778 290.613 127.91 289.465 127.91C288.023 127.91 287.071 128.89 287.071 130.682V134H286.007V127.098H287.071V128.246C287.631 127.406 288.513 126.93 289.675 126.93ZM298.538 132.754L298.888 133.636C298.328 134.028 297.852 134.182 297.292 134.182C295.92 134.182 295.01 133.37 295.01 131.844V127.994H293.512V127.098H295.01V124.62H296.088V127.098H298.552V127.994H296.088V131.774C296.088 132.67 296.592 133.174 297.362 133.174C297.754 133.174 298.188 133.006 298.538 132.754ZM303.921 126.93C305.587 126.93 306.693 128.12 306.693 129.87V134H305.629V130.066C305.629 128.778 304.859 127.91 303.711 127.91C302.269 127.91 301.317 128.89 301.317 130.682V134H300.253V123.22H301.317V128.246C301.877 127.406 302.759 126.93 303.921 126.93ZM308.415 132.138L309.479 131.9C309.577 132.81 310.417 133.3 311.509 133.3C312.503 133.3 313.161 132.838 313.161 132.124C313.161 131.55 312.727 131.284 312.027 131.13L310.445 130.78C309.297 130.542 308.653 129.968 308.653 129.016C308.653 127.77 309.689 126.93 311.271 126.93C312.825 126.93 313.833 127.728 314.085 128.848L313.063 129.072C312.923 128.316 312.265 127.798 311.243 127.798C310.263 127.798 309.717 128.274 309.717 128.932C309.717 129.478 310.095 129.73 310.767 129.884L312.433 130.248C313.441 130.472 314.211 131.004 314.211 132.054C314.211 133.412 313.077 134.182 311.425 134.182C309.843 134.182 308.583 133.482 308.415 132.138Z" fill="#1A1816"/>
<mask id="path-15-inside-6_434_22653" fill="white">
<path d="M17 185C17 180.582 20.5817 177 25 177H165C169.418 177 173 180.582 173 185V233C173 237.418 169.418 241 165 241H25C20.5817 241 17 237.418 17 233V185Z"/>
</mask>
<path d="M17 185C17 180.582 20.5817 177 25 177H165C169.418 177 173 180.582 173 185V233C173 237.418 169.418 241 165 241H25C20.5817 241 17 237.418 17 233V185Z" fill="white"/>
<path d="M25 177V178H165V177V176H25V177ZM173 185H172V233H173H174V185H173ZM165 241V240H25V241V242H165V241ZM17 233H18V185H17H16V233H17ZM25 241V240C21.134 240 18 236.866 18 233H17H16C16 237.971 20.0294 242 25 242V241ZM173 233H172C172 236.866 168.866 240 165 240V241V242C169.971 242 174 237.971 174 233H173ZM165 177V178C168.866 178 172 181.134 172 185H173H174C174 180.029 169.971 176 165 176V177ZM25 177V176C20.0294 176 16 180.029 16 185H17H18C18 181.134 21.134 178 25 178V177Z" fill="#D3CFCA" mask="url(#path-15-inside-6_434_22653)"/>
<path d="M52.714 212.992V214H46.232V204.62H47.338V212.992H52.714ZM57.0811 206.93C58.8031 206.93 59.9371 207.854 59.9371 209.52V214H58.9011V212.95C58.3691 213.664 57.5011 214.182 56.3111 214.182C54.7991 214.182 53.8051 213.314 53.8051 212.068C53.8051 210.808 54.7711 209.912 56.5771 209.912H58.9011V209.59C58.9011 208.512 58.2011 207.868 57.1371 207.868C56.0871 207.868 55.3591 208.386 55.2051 209.254L54.1831 209.03C54.4071 207.784 55.5691 206.93 57.0811 206.93ZM56.4651 213.3C57.8091 213.3 58.9011 212.362 58.9011 211.116V210.752H56.5631C55.4291 210.752 54.8271 211.298 54.8271 212.054C54.8271 212.782 55.4711 213.3 56.4651 213.3ZM61.476 212.138L62.54 211.9C62.638 212.81 63.478 213.3 64.57 213.3C65.564 213.3 66.222 212.838 66.222 212.124C66.222 211.55 65.788 211.284 65.088 211.13L63.506 210.78C62.358 210.542 61.714 209.968 61.714 209.016C61.714 207.77 62.75 206.93 64.332 206.93C65.886 206.93 66.894 207.728 67.146 208.848L66.124 209.072C65.984 208.316 65.326 207.798 64.304 207.798C63.324 207.798 62.778 208.274 62.778 208.932C62.778 209.478 63.156 209.73 63.828 209.884L65.494 210.248C66.502 210.472 67.272 211.004 67.272 212.054C67.272 213.412 66.138 214.182 64.486 214.182C62.904 214.182 61.644 213.482 61.476 212.138ZM72.9401 212.754L73.2901 213.636C72.7301 214.028 72.2541 214.182 71.6941 214.182C70.3221 214.182 69.4121 213.37 69.4121 211.844V207.994H67.9141V207.098H69.4121V204.62H70.4901V207.098H72.9541V207.994H70.4901V211.774C70.4901 212.67 70.9941 213.174 71.7641 213.174C72.1561 213.174 72.5901 213.006 72.9401 212.754ZM80.7032 204.62V214H79.6252V205.95L77.1192 207.35V206.328L80.0172 204.62H80.7032ZM88.6757 212.992V214H82.3617V213.286L85.7077 210.164C86.7857 209.184 87.5137 208.512 87.5137 207.322C87.5137 206.174 86.6877 205.404 85.4697 205.404C84.1957 205.404 83.3837 206.216 83.3277 207.644L82.3057 207.434C82.3757 205.614 83.6357 204.438 85.4837 204.438C87.3317 204.438 88.5777 205.6 88.5777 207.308C88.5777 208.694 87.8217 209.534 86.3797 210.892L84.1257 212.992H88.6757ZM102.264 206.93C103.72 206.93 104.84 207.966 104.84 209.534V214H103.776V209.716C103.776 208.624 103.034 207.91 101.998 207.91C100.724 207.91 99.8842 208.848 99.8842 210.472V214H98.8202V209.716C98.8202 208.624 98.0782 207.91 97.0562 207.91C95.7822 207.91 94.9562 208.848 94.9562 210.472V214H93.8922V207.098H94.9562V208.148C95.4462 207.392 96.2302 206.93 97.3082 206.93C98.3722 206.93 99.2542 207.448 99.6602 208.33C100.192 207.476 101.088 206.93 102.264 206.93ZM110.178 206.944C112.208 206.944 113.832 208.428 113.832 210.542C113.832 212.656 112.208 214.168 110.178 214.168C108.12 214.168 106.51 212.656 106.51 210.542C106.51 208.428 108.12 206.944 110.178 206.944ZM110.178 213.23C111.592 213.23 112.782 212.138 112.782 210.542C112.782 208.96 111.592 207.882 110.178 207.882C108.75 207.882 107.546 208.96 107.546 210.542C107.546 212.138 108.75 213.23 110.178 213.23ZM119.326 206.93C120.992 206.93 122.098 208.12 122.098 209.87V214H121.034V210.066C121.034 208.778 120.264 207.91 119.116 207.91C117.674 207.91 116.722 208.89 116.722 210.682V214H115.658V207.098H116.722V208.246C117.282 207.406 118.164 206.93 119.326 206.93ZM128.188 212.754L128.538 213.636C127.978 214.028 127.502 214.182 126.942 214.182C125.57 214.182 124.66 213.37 124.66 211.844V207.994H123.162V207.098H124.66V204.62H125.738V207.098H128.202V207.994H125.738V211.774C125.738 212.67 126.242 213.174 127.012 213.174C127.404 213.174 127.838 213.006 128.188 212.754ZM133.572 206.93C135.238 206.93 136.344 208.12 136.344 209.87V214H135.28V210.066C135.28 208.778 134.51 207.91 133.362 207.91C131.92 207.91 130.968 208.89 130.968 210.682V214H129.904V203.22H130.968V208.246C131.528 207.406 132.41 206.93 133.572 206.93ZM138.066 212.138L139.13 211.9C139.228 212.81 140.068 213.3 141.16 213.3C142.154 213.3 142.812 212.838 142.812 212.124C142.812 211.55 142.378 211.284 141.678 211.13L140.096 210.78C138.948 210.542 138.304 209.968 138.304 209.016C138.304 207.77 139.34 206.93 140.922 206.93C142.476 206.93 143.484 207.728 143.736 208.848L142.714 209.072C142.574 208.316 141.916 207.798 140.894 207.798C139.914 207.798 139.368 208.274 139.368 208.932C139.368 209.478 139.746 209.73 140.418 209.884L142.084 210.248C143.092 210.472 143.862 211.004 143.862 212.054C143.862 213.412 142.728 214.182 141.076 214.182C139.494 214.182 138.234 213.482 138.066 212.138Z" fill="#1A1816"/>
<mask id="path-18-inside-7_434_22653" fill="white">
<path d="M189 185C189 180.582 192.582 177 197 177H337C341.418 177 345 180.582 345 185V233C345 237.418 341.418 241 337 241H197C192.582 241 189 237.418 189 233V185Z"/>
</mask>
<path d="M189 185C189 180.582 192.582 177 197 177H337C341.418 177 345 180.582 345 185V233C345 237.418 341.418 241 337 241H197C192.582 241 189 237.418 189 233V185Z" fill="white"/>
<path d="M197 177V178H337V177V176H197V177ZM345 185H344V233H345H346V185H345ZM337 241V240H197V241V242H337V241ZM189 233H190V185H189H188V233H189ZM197 241V240C193.134 240 190 236.866 190 233H189H188C188 237.971 192.029 242 197 242V241ZM345 233H344C344 236.866 340.866 240 337 240V241V242C341.971 242 346 237.971 346 233H345ZM337 177V178C340.866 178 344 181.134 344 185H345H346C346 180.029 341.971 176 337 176V177ZM197 177V176C192.029 176 188 180.029 188 185H189H190C190 181.134 193.134 178 197 178V177Z" fill="#D3CFCA" mask="url(#path-18-inside-7_434_22653)"/>
<path d="M249.314 204H248.124L247.074 201.62H242.132L241.082 204H239.892L244.092 194.62H245.114L249.314 204ZM246.64 200.626L244.61 195.992L242.566 200.626H246.64ZM251.755 204H250.691V193.22H251.755V204ZM255.282 204H254.218V193.22H255.282V204ZM265.067 202.754L265.417 203.636C264.857 204.028 264.381 204.182 263.821 204.182C262.449 204.182 261.539 203.37 261.539 201.844V197.994H260.041V197.098H261.539V194.62H262.617V197.098H265.081V197.994H262.617V201.774C262.617 202.67 263.121 203.174 263.891 203.174C264.283 203.174 264.717 203.006 265.067 202.754ZM267.427 194.298C267.847 194.298 268.169 194.634 268.169 195.012C268.169 195.418 267.847 195.726 267.427 195.726C267.007 195.726 266.699 195.418 266.699 195.012C266.699 194.634 267.007 194.298 267.427 194.298ZM267.973 204H266.895V197.098H267.973V204ZM278.915 196.93C280.371 196.93 281.491 197.966 281.491 199.534V204H280.427V199.716C280.427 198.624 279.685 197.91 278.649 197.91C277.375 197.91 276.535 198.848 276.535 200.472V204H275.471V199.716C275.471 198.624 274.729 197.91 273.707 197.91C272.433 197.91 271.607 198.848 271.607 200.472V204H270.543V197.098H271.607V198.148C272.097 197.392 272.881 196.93 273.959 196.93C275.023 196.93 275.905 197.448 276.311 198.33C276.843 197.476 277.739 196.93 278.915 196.93ZM290.119 200.374V200.766H284.197C284.295 202.32 285.471 203.244 286.661 203.244C287.641 203.244 288.523 202.866 289.013 201.76L289.965 201.984C289.419 203.426 288.215 204.182 286.661 204.182C284.827 204.182 283.161 202.768 283.161 200.57C283.161 198.358 284.827 196.93 286.731 196.93C288.593 196.93 290.049 198.316 290.119 200.374ZM286.731 197.868C285.611 197.868 284.449 198.61 284.239 199.968H289.041C288.845 198.61 287.879 197.868 286.731 197.868ZM208.399 219.31C208.399 221.186 208.945 222.796 210.653 224.49L209.897 225.148C207.993 223.398 207.251 221.438 207.251 219.31C207.251 217.182 207.993 215.222 209.897 213.472L210.653 214.144C208.945 215.824 208.399 217.434 208.399 219.31ZM218.935 217.098V223.986H217.857V222.866C217.297 223.692 216.401 224.168 215.253 224.168C213.587 224.168 212.481 222.978 212.481 221.228V217.098H213.559V221.032C213.559 222.32 214.315 223.174 215.463 223.174C216.905 223.174 217.857 222.208 217.857 220.416V217.098H218.935ZM225.193 216.93C227.027 216.93 228.637 218.372 228.637 220.556C228.637 222.74 227.027 224.182 225.193 224.182C224.017 224.182 223.051 223.692 222.449 222.852V227.36H221.385V217.098H222.449V218.26C223.051 217.42 224.017 216.93 225.193 216.93ZM225.025 223.23C226.453 223.23 227.601 222.194 227.601 220.556C227.601 218.904 226.453 217.868 225.025 217.868C223.723 217.868 222.449 218.904 222.449 220.556C222.449 222.194 223.723 223.23 225.025 223.23ZM237.798 222.754L238.148 223.636C237.588 224.028 237.112 224.182 236.552 224.182C235.18 224.182 234.27 223.37 234.27 221.844V217.994H232.772V217.098H234.27V214.62H235.348V217.098H237.812V217.994H235.348V221.774C235.348 222.67 235.852 223.174 236.622 223.174C237.014 223.174 237.448 223.006 237.798 222.754ZM242.347 216.944C244.377 216.944 246.001 218.428 246.001 220.542C246.001 222.656 244.377 224.168 242.347 224.168C240.289 224.168 238.679 222.656 238.679 220.542C238.679 218.428 240.289 216.944 242.347 216.944ZM242.347 223.23C243.761 223.23 244.951 222.138 244.951 220.542C244.951 218.96 243.761 217.882 242.347 217.882C240.919 217.882 239.715 218.96 239.715 220.542C239.715 222.138 240.919 223.23 242.347 223.23ZM255.918 219.198C256.912 219.478 257.514 220.234 257.514 221.312C257.514 223.034 256.226 224.182 254.322 224.182C252.334 224.182 251.018 222.95 250.906 221.13L251.942 220.92C252.04 222.306 252.908 223.202 254.322 223.202C255.61 223.202 256.506 222.46 256.506 221.326C256.506 220.29 255.722 219.688 254.42 219.688H253.118V218.722H254.35C255.554 218.722 256.31 218.134 256.31 217.168C256.31 216.118 255.498 215.418 254.266 215.418C252.992 215.418 252.138 216.202 252.054 217.588L251.032 217.392C251.158 215.642 252.39 214.438 254.28 214.438C256.114 214.438 257.332 215.544 257.332 217.168C257.332 218.176 256.786 218.904 255.918 219.198ZM262.987 214.438C265.311 214.438 266.865 216.412 266.865 219.31C266.865 222.222 265.311 224.182 262.987 224.182C260.663 224.182 259.095 222.222 259.095 219.31C259.095 216.412 260.663 214.438 262.987 214.438ZM262.987 223.146C264.653 223.146 265.745 221.592 265.745 219.31C265.745 217.014 264.653 215.46 262.987 215.46C261.307 215.46 260.215 217.014 260.215 219.31C260.215 221.592 261.307 223.146 262.987 223.146ZM280.767 216.93C282.223 216.93 283.343 217.966 283.343 219.534V224H282.279V219.716C282.279 218.624 281.537 217.91 280.501 217.91C279.227 217.91 278.387 218.848 278.387 220.472V224H277.323V219.716C277.323 218.624 276.581 217.91 275.559 217.91C274.285 217.91 273.459 218.848 273.459 220.472V224H272.395V217.098H273.459V218.148C273.949 217.392 274.733 216.93 275.811 216.93C276.875 216.93 277.757 217.448 278.163 218.33C278.695 217.476 279.591 216.93 280.767 216.93ZM288.681 216.944C290.711 216.944 292.335 218.428 292.335 220.542C292.335 222.656 290.711 224.168 288.681 224.168C286.623 224.168 285.013 222.656 285.013 220.542C285.013 218.428 286.623 216.944 288.681 216.944ZM288.681 223.23C290.095 223.23 291.285 222.138 291.285 220.542C291.285 218.96 290.095 217.882 288.681 217.882C287.253 217.882 286.049 218.96 286.049 220.542C286.049 222.138 287.253 223.23 288.681 223.23ZM297.829 216.93C299.495 216.93 300.601 218.12 300.601 219.87V224H299.537V220.066C299.537 218.778 298.767 217.91 297.619 217.91C296.177 217.91 295.225 218.89 295.225 220.682V224H294.161V217.098H295.225V218.246C295.785 217.406 296.667 216.93 297.829 216.93ZM306.691 222.754L307.041 223.636C306.481 224.028 306.005 224.182 305.445 224.182C304.073 224.182 303.163 223.37 303.163 221.844V217.994H301.665V217.098H303.163V214.62H304.241V217.098H306.705V217.994H304.241V221.774C304.241 222.67 304.745 223.174 305.515 223.174C305.907 223.174 306.341 223.006 306.691 222.754ZM312.075 216.93C313.741 216.93 314.847 218.12 314.847 219.87V224H313.783V220.066C313.783 218.778 313.013 217.91 311.865 217.91C310.423 217.91 309.471 218.89 309.471 220.682V224H308.407V213.22H309.471V218.246C310.031 217.406 310.913 216.93 312.075 216.93ZM316.569 222.138L317.633 221.9C317.731 222.81 318.571 223.3 319.663 223.3C320.657 223.3 321.315 222.838 321.315 222.124C321.315 221.55 320.881 221.284 320.181 221.13L318.599 220.78C317.451 220.542 316.807 219.968 316.807 219.016C316.807 217.77 317.843 216.93 319.425 216.93C320.979 216.93 321.987 217.728 322.239 218.848L321.217 219.072C321.077 218.316 320.419 217.798 319.397 217.798C318.417 217.798 317.871 218.274 317.871 218.932C317.871 219.478 318.249 219.73 318.921 219.884L320.587 220.248C321.595 220.472 322.365 221.004 322.365 222.054C322.365 223.412 321.231 224.182 319.579 224.182C317.997 224.182 316.737 223.482 316.569 222.138ZM323.353 214.144L324.109 213.472C326.013 215.222 326.755 217.182 326.755 219.31C326.755 221.438 326.013 223.398 324.109 225.148L323.353 224.49C325.061 222.796 325.607 221.186 325.607 219.31C325.607 217.434 325.061 215.824 323.353 214.144Z" fill="#1A1816"/>
<rect width="328" height="64" transform="translate(17 257)" fill="white"/>
<mask id="path-21-inside-8_434_22653" fill="white">
<path d="M17 265C17 260.582 20.5817 257 25 257H337C341.418 257 345 260.582 345 265V313C345 317.418 341.418 321 337 321H25C20.5817 321 17 317.418 17 313V265Z"/>
</mask>
<path d="M17 265C17 260.582 20.5817 257 25 257H337C341.418 257 345 260.582 345 265V313C345 317.418 341.418 321 337 321H25C20.5817 321 17 317.418 17 313V265Z" fill="white"/>
<path d="M25 257V258H337V257V256H25V257ZM345 265H344V313H345H346V265H345ZM337 321V320H25V321V322H337V321ZM17 313H18V265H17H16V313H17ZM25 321V320C21.134 320 18 316.866 18 313H17H16C16 317.971 20.0294 322 25 322V321ZM345 313H344C344 316.866 340.866 320 337 320V321V322C341.971 322 346 317.971 346 313H345ZM337 257V258C340.866 258 344 261.134 344 265H345H346C346 260.029 341.971 256 337 256V257ZM25 257V256C20.0294 256 16 260.029 16 265H17H18C18 261.134 21.134 258 25 258V257Z" fill="#D3CFCA" mask="url(#path-21-inside-8_434_22653)"/>
<path d="M159.642 293.146C161.266 293.146 162.554 292.292 163.044 290.752L164.108 291.004C163.534 292.964 161.798 294.182 159.642 294.182C156.912 294.182 154.77 292.04 154.77 289.31C154.77 286.58 156.912 284.438 159.642 284.438C161.798 284.438 163.534 285.656 164.108 287.546L163.044 287.854C162.568 286.342 161.266 285.474 159.642 285.474C157.542 285.474 155.89 287.14 155.89 289.31C155.89 291.466 157.542 293.146 159.642 293.146ZM172.401 287.098V293.986H171.323V292.866C170.763 293.692 169.867 294.168 168.719 294.168C167.053 294.168 165.947 292.978 165.947 291.228V287.098H167.025V291.032C167.025 292.32 167.781 293.174 168.929 293.174C170.371 293.174 171.323 292.208 171.323 290.416V287.098H172.401ZM174.154 292.138L175.218 291.9C175.316 292.81 176.156 293.3 177.248 293.3C178.242 293.3 178.9 292.838 178.9 292.124C178.9 291.55 178.466 291.284 177.766 291.13L176.184 290.78C175.036 290.542 174.392 289.968 174.392 289.016C174.392 287.77 175.428 286.93 177.01 286.93C178.564 286.93 179.572 287.728 179.824 288.848L178.802 289.072C178.662 288.316 178.004 287.798 176.982 287.798C176.002 287.798 175.456 288.274 175.456 288.932C175.456 289.478 175.834 289.73 176.506 289.884L178.172 290.248C179.18 290.472 179.95 291.004 179.95 292.054C179.95 293.412 178.816 294.182 177.164 294.182C175.582 294.182 174.322 293.482 174.154 292.138ZM185.618 292.754L185.968 293.636C185.408 294.028 184.932 294.182 184.372 294.182C183 294.182 182.09 293.37 182.09 291.844V287.994H180.592V287.098H182.09V284.62H183.168V287.098H185.632V287.994H183.168V291.774C183.168 292.67 183.672 293.174 184.442 293.174C184.834 293.174 185.268 293.006 185.618 292.754ZM190.166 286.944C192.196 286.944 193.82 288.428 193.82 290.542C193.82 292.656 192.196 294.168 190.166 294.168C188.108 294.168 186.498 292.656 186.498 290.542C186.498 288.428 188.108 286.944 190.166 286.944ZM190.166 293.23C191.58 293.23 192.77 292.138 192.77 290.542C192.77 288.96 191.58 287.882 190.166 287.882C188.738 287.882 187.534 288.96 187.534 290.542C187.534 292.138 188.738 293.23 190.166 293.23ZM204.018 286.93C205.474 286.93 206.594 287.966 206.594 289.534V294H205.53V289.716C205.53 288.624 204.788 287.91 203.752 287.91C202.478 287.91 201.638 288.848 201.638 290.472V294H200.574V289.716C200.574 288.624 199.832 287.91 198.81 287.91C197.536 287.91 196.71 288.848 196.71 290.472V294H195.646V287.098H196.71V288.148C197.2 287.392 197.984 286.93 199.062 286.93C200.126 286.93 201.008 287.448 201.414 288.33C201.946 287.476 202.842 286.93 204.018 286.93Z" fill="#1A1816"/>
<path d="M136.48 382H134.352L130.528 377.728H128.976V382H127.264V371.28H132.304C134.512 371.28 135.984 372.576 135.984 374.512C135.984 376.352 134.64 377.6 132.608 377.712L136.48 382ZM128.976 376.176H132.304C133.488 376.176 134.272 375.504 134.272 374.512C134.272 373.504 133.488 372.832 132.304 372.832H128.976V376.176ZM145.156 377.856V378.432H138.724C138.884 379.904 139.956 380.784 141.124 380.784C142.004 380.784 142.9 380.528 143.46 379.408L144.948 379.728C144.292 381.392 142.884 382.224 141.124 382.224C138.964 382.224 137.076 380.56 137.076 378.048C137.076 375.52 138.948 373.84 141.188 373.84C143.316 373.84 145.076 375.472 145.156 377.856ZM141.188 375.312C140.148 375.312 139.028 375.968 138.772 377.248H143.444C143.188 375.952 142.276 375.312 141.188 375.312ZM146.326 379.872L147.99 379.52C148.102 380.464 148.934 380.864 149.974 380.864C150.934 380.864 151.542 380.432 151.542 379.808C151.542 379.328 151.206 379.024 150.47 378.864L148.742 378.512C147.366 378.208 146.582 377.472 146.582 376.352C146.582 374.88 147.814 373.84 149.718 373.84C151.542 373.84 152.774 374.8 153.062 376.128L151.478 376.464C151.35 375.696 150.694 375.168 149.67 375.168C148.694 375.168 148.262 375.648 148.262 376.208C148.262 376.656 148.518 376.944 149.222 377.104L151.11 377.52C152.39 377.792 153.174 378.544 153.174 379.664C153.174 381.328 151.814 382.224 149.83 382.224C148.054 382.224 146.534 381.472 146.326 379.872ZM162.453 377.856V378.432H156.021C156.181 379.904 157.253 380.784 158.421 380.784C159.301 380.784 160.197 380.528 160.757 379.408L162.245 379.728C161.589 381.392 160.181 382.224 158.421 382.224C156.261 382.224 154.373 380.56 154.373 378.048C154.373 375.52 156.245 373.84 158.485 373.84C160.613 373.84 162.373 375.472 162.453 377.856ZM158.485 375.312C157.445 375.312 156.325 375.968 156.069 377.248H160.741C160.485 375.952 159.573 375.312 158.485 375.312ZM169.063 380.224L169.575 381.616C168.823 382.064 168.279 382.224 167.607 382.224C165.895 382.224 164.743 381.264 164.743 379.296V375.44H163.031V374.064H164.743V371.28H166.407V374.064H169.127V375.44H166.407V379.184C166.407 380.176 166.935 380.656 167.719 380.656C168.135 380.656 168.647 380.496 169.063 380.224Z" fill="#1A1816"/>
<path d="M126 383.6H169.655V384.4H126V383.6Z" fill="#1A1816"/>
<mask id="path-25-inside-9_434_22653" fill="white">
<path d="M202 377C202 363.745 212.745 353 226 353H321C334.255 353 345 363.745 345 377V377C345 390.255 334.255 401 321 401H226C212.745 401 202 390.255 202 377V377Z"/>
</mask>
<path d="M202 377C202 363.745 212.745 353 226 353H321C334.255 353 345 363.745 345 377V377C345 390.255 334.255 401 321 401H226C212.745 401 202 390.255 202 377V377Z" fill="#3F3B36"/>
<path d="M202 377M345 377M345 377M202 377M226 353V354H321V353V352H226V353ZM345 377M321 401V400H226V401V402H321V401ZM202 377M226 401V400C213.297 400 203 389.703 203 377H202H201C201 390.807 212.193 402 226 402V401ZM345 377H344C344 389.703 333.703 400 321 400V401V402C334.807 402 346 390.807 346 377H345ZM321 353V354C333.703 354 344 364.297 344 377H345H346C346 363.193 334.807 352 321 352V353ZM226 353V352C212.193 352 201 363.193 201 377H202H203C203 364.297 213.297 354 226 354V353Z" fill="#444444" mask="url(#path-25-inside-9_434_22653)"/>
<path d="M237.184 371.28L232.528 382H230.88L226.224 371.28H228.112L231.696 379.68L235.28 371.28H237.184ZM239.615 370.64C240.223 370.64 240.671 371.12 240.671 371.68C240.671 372.272 240.223 372.704 239.615 372.704C238.991 372.704 238.543 372.272 238.543 371.68C238.543 371.12 238.991 370.64 239.615 370.64ZM240.447 382H238.783V374.064H240.447V382ZM250.484 377.856V378.432H244.052C244.212 379.904 245.284 380.784 246.452 380.784C247.332 380.784 248.228 380.528 248.788 379.408L250.276 379.728C249.62 381.392 248.212 382.224 246.452 382.224C244.292 382.224 242.404 380.56 242.404 378.048C242.404 375.52 244.276 373.84 246.516 373.84C248.644 373.84 250.404 375.472 250.484 377.856ZM246.516 375.312C245.476 375.312 244.356 375.968 244.1 377.248H248.772C248.516 375.952 247.604 375.312 246.516 375.312ZM263.224 374.064L260.568 382.032H259.048L257.224 376.688L255.4 382.032H253.88L251.224 374.064H252.888L254.696 379.584L256.568 374.064H257.88L259.752 379.584L261.56 374.064H263.224ZM273.358 373.968C273.55 373.968 273.71 373.968 273.918 374.032L273.806 375.632C273.678 375.616 273.486 375.616 273.342 375.616C271.326 375.616 270.334 377.024 270.334 379.2V382H268.67V374.064H270.334V375.76C270.974 374.704 271.982 373.968 273.358 373.968ZM282.64 377.856V378.432H276.208C276.368 379.904 277.44 380.784 278.608 380.784C279.488 380.784 280.384 380.528 280.944 379.408L282.432 379.728C281.776 381.392 280.368 382.224 278.608 382.224C276.448 382.224 274.56 380.56 274.56 378.048C274.56 375.52 276.432 373.84 278.672 373.84C280.8 373.84 282.56 375.472 282.64 377.856ZM278.672 375.312C277.632 375.312 276.512 375.968 276.256 377.248H280.928C280.672 375.952 279.76 375.312 278.672 375.312ZM283.811 379.872L285.475 379.52C285.587 380.464 286.419 380.864 287.459 380.864C288.419 380.864 289.027 380.432 289.027 379.808C289.027 379.328 288.691 379.024 287.955 378.864L286.227 378.512C284.851 378.208 284.067 377.472 284.067 376.352C284.067 374.88 285.299 373.84 287.203 373.84C289.027 373.84 290.259 374.8 290.547 376.128L288.963 376.464C288.835 375.696 288.179 375.168 287.155 375.168C286.179 375.168 285.747 375.648 285.747 376.208C285.747 376.656 286.003 376.944 286.707 377.104L288.595 377.52C289.875 377.792 290.659 378.544 290.659 379.664C290.659 381.328 289.299 382.224 287.315 382.224C285.539 382.224 284.019 381.472 283.811 379.872ZM299.89 374.064V382H298.226V381.024C297.586 381.792 296.658 382.224 295.49 382.224C293.57 382.224 292.306 380.848 292.306 378.848V374.064H293.97V378.512C293.97 379.808 294.722 380.688 295.874 380.688C297.298 380.688 298.226 379.728 298.226 377.728V374.064H299.89ZM304.084 382H302.42V369.68H304.084V382ZM311.376 380.224L311.888 381.616C311.136 382.064 310.592 382.224 309.92 382.224C308.208 382.224 307.056 381.264 307.056 379.296V375.44H305.344V374.064H307.056V371.28H308.72V374.064H311.44V375.44H308.72V379.184C308.72 380.176 309.248 380.656 310.032 380.656C310.448 380.656 310.96 380.496 311.376 380.224ZM312.561 379.872L314.225 379.52C314.337 380.464 315.169 380.864 316.209 380.864C317.169 380.864 317.777 380.432 317.777 379.808C317.777 379.328 317.441 379.024 316.705 378.864L314.977 378.512C313.601 378.208 312.817 377.472 312.817 376.352C312.817 374.88 314.049 373.84 315.953 373.84C317.777 373.84 319.009 374.8 319.297 376.128L317.713 376.464C317.585 375.696 316.929 375.168 315.905 375.168C314.929 375.168 314.497 375.648 314.497 376.208C314.497 376.656 314.753 376.944 315.457 377.104L317.345 377.52C318.625 377.792 319.409 378.544 319.409 379.664C319.409 381.328 318.049 382.224 316.065 382.224C314.289 382.224 312.769 381.472 312.561 379.872Z" fill="white"/>
</g>
<path d="M17 1V2H345V1V0H17V1ZM361 17H360V401H361H362V17H361ZM345 417V416H17V417V418H345V417ZM1 401H2V17H1H0V401H1ZM17 417V416C8.71573 416 2 409.284 2 401H1H0C0 410.389 7.61116 418 17 418V417ZM361 401H360C360 409.284 353.284 416 345 416V417V418C354.389 418 362 410.389 362 401H361ZM345 1V2C353.284 2 360 8.71573 360 17H361H362C362 7.61116 354.389 0 345 0V1ZM17 1V0C7.61116 0 0 7.61117 0 17H1H2C2 8.71574 8.71573 2 17 2V1Z" fill="#D3CFCA" mask="url(#path-1-outside-1_434_22653)"/>
<g filter="url(#filter0_d_434_22653)">
<path d="M287 71.5C281.753 71.5 277.5 75.7533 277.5 81C277.5 86.2467 281.753 90.5 287 90.5C292.247 90.5 296.5 86.2467 296.5 81C296.494 75.7556 292.244 71.5055 287 71.5ZM283.61 75.5C284.624 74.8561 285.799 74.5096 287 74.5C290.588 74.5055 293.494 77.4124 293.5 81C293.49 82.2013 293.144 83.3758 292.5 84.39L283.61 75.5ZM287 87.5C283.412 87.4945 280.506 84.5876 280.5 81C280.504 79.7885 280.851 78.6028 281.5 77.58L290.44 86.52C289.417 87.1694 288.232 87.516 287.02 87.52L287 87.5Z" fill="white"/>
<path fill-rule="evenodd" clip-rule="evenodd" d="M278 81C278 85.97 282.03 90 287 90C291.97 90 296 85.97 296 81C296 76.029 291.97 72 287 72C282.03 72 278 76.029 278 81ZM282.826 75.39C283.993 74.521 285.434 74 287 74C290.866 74 294 77.134 294 81C294 82.567 293.48 84.008 292.61 85.174L282.826 75.39ZM280 81C280 79.422 280.529 77.971 281.409 76.801L291.199 86.591C290.028 87.472 288.577 88 287 88C283.134 88 280 84.866 280 81Z" fill="url(#paint0_linear_434_22653)"/>
<path fill-rule="evenodd" clip-rule="evenodd" d="M277 74.5V58.5L288.6 70.1081H281.554L281.402 70.232L277 74.5Z" fill="white"/>
<path fill-rule="evenodd" clip-rule="evenodd" d="M278 60.7998V71.9998L280.969 69.1307L281.129 68.9916L286.165 68.9998L278 60.7998Z" fill="black"/>
</g>
<path d="M268 84L257 96H189C184.582 96 181 99.5817 181 104V128C181 132.418 184.582 136 189 136H346C350.418 136 354 132.418 354 128V104C354 99.5817 350.418 96 346 96H279L268 84Z" fill="#3F3B36"/>
<path d="M198.572 110.28H203.244C205.532 110.28 206.972 111.64 206.972 113.608C206.972 115.576 205.532 116.936 203.244 116.936H199.836V121H198.572V110.28ZM199.836 115.8H203.244C204.78 115.8 205.724 114.888 205.724 113.608C205.724 112.328 204.78 111.416 203.244 111.416H199.836V115.8ZM213.394 113.032C213.586 113.032 213.73 113.032 213.954 113.096L213.858 114.264C213.714 114.248 213.538 114.248 213.394 114.248C211.298 114.248 210.226 115.832 210.226 117.96V121H208.994V113.112H210.226V115.048C210.866 113.88 211.938 113.032 213.394 113.032ZM218.857 112.936C221.177 112.936 223.033 114.632 223.033 117.048C223.033 119.464 221.177 121.192 218.857 121.192C216.505 121.192 214.665 119.464 214.665 117.048C214.665 114.632 216.505 112.936 218.857 112.936ZM218.857 120.12C220.473 120.12 221.833 118.872 221.833 117.048C221.833 115.24 220.473 114.008 218.857 114.008C217.225 114.008 215.849 115.24 215.849 117.048C215.849 118.872 217.225 120.12 218.857 120.12ZM232.687 108.68V121H231.471V119.688C230.783 120.648 229.679 121.208 228.335 121.208C226.239 121.208 224.399 119.56 224.399 117.064C224.399 114.568 226.239 112.92 228.335 112.92C229.679 112.92 230.783 113.48 231.471 114.44V108.68H232.687ZM228.527 120.12C230.015 120.12 231.471 118.936 231.471 117.064C231.471 115.176 230.015 113.992 228.527 113.992C226.895 113.992 225.583 115.176 225.583 117.064C225.583 118.936 226.895 120.12 228.527 120.12ZM242.694 113.112V120.984H241.462V119.704C240.822 120.648 239.798 121.192 238.486 121.192C236.582 121.192 235.318 119.832 235.318 117.832V113.112H236.55V117.608C236.55 119.08 237.414 120.056 238.726 120.056C240.374 120.056 241.462 118.952 241.462 116.904V113.112H242.694ZM248.886 120.072C250.054 120.072 251.078 119.448 251.494 118.296L252.614 118.6C252.15 120.168 250.63 121.208 248.886 121.208C246.662 121.208 244.774 119.576 244.774 117.064C244.774 114.584 246.662 112.92 248.886 112.92C250.614 112.92 252.118 113.928 252.63 115.544L251.462 115.896C251.078 114.68 250.054 114.04 248.886 114.04C247.27 114.04 245.958 115.256 245.958 117.064C245.958 118.904 247.27 120.072 248.886 120.072ZM259.049 119.576L259.449 120.584C258.809 121.032 258.265 121.208 257.625 121.208C256.057 121.208 255.017 120.28 255.017 118.536V114.136H253.305V113.112H255.017V110.28H256.249V113.112H259.065V114.136H256.249V118.456C256.249 119.48 256.825 120.056 257.705 120.056C258.153 120.056 258.649 119.864 259.049 119.576ZM268.433 120.072C269.601 120.072 270.625 119.448 271.041 118.296L272.161 118.6C271.697 120.168 270.177 121.208 268.433 121.208C266.209 121.208 264.321 119.576 264.321 117.064C264.321 114.584 266.209 112.92 268.433 112.92C270.161 112.92 271.665 113.928 272.177 115.544L271.009 115.896C270.625 114.68 269.601 114.04 268.433 114.04C266.817 114.04 265.505 115.256 265.505 117.064C265.505 118.904 266.817 120.072 268.433 120.072ZM277.237 112.92C279.205 112.92 280.501 113.976 280.501 115.88V121H279.317V119.8C278.709 120.616 277.717 121.208 276.357 121.208C274.629 121.208 273.493 120.216 273.493 118.792C273.493 117.352 274.597 116.328 276.661 116.328H279.317V115.96C279.317 114.728 278.517 113.992 277.301 113.992C276.101 113.992 275.269 114.584 275.093 115.576L273.925 115.32C274.181 113.896 275.509 112.92 277.237 112.92ZM276.533 120.2C278.069 120.2 279.317 119.128 279.317 117.704V117.288H276.645C275.349 117.288 274.661 117.912 274.661 118.776C274.661 119.608 275.397 120.2 276.533 120.2ZM287.123 112.92C289.027 112.92 290.291 114.28 290.291 116.28V121H289.075V116.504C289.075 115.032 288.195 114.04 286.883 114.04C285.235 114.04 284.147 115.16 284.147 117.208V121H282.931V113.112H284.147V114.424C284.787 113.464 285.795 112.92 287.123 112.92ZM296.308 120.072C297.476 120.072 298.5 119.448 298.916 118.296L300.036 118.6C299.572 120.168 298.052 121.208 296.308 121.208C294.084 121.208 292.196 119.576 292.196 117.064C292.196 114.584 294.084 112.92 296.308 112.92C298.036 112.92 299.54 113.928 300.052 115.544L298.884 115.896C298.5 114.68 297.476 114.04 296.308 114.04C294.692 114.04 293.38 115.256 293.38 117.064C293.38 118.904 294.692 120.072 296.308 120.072ZM309.367 116.856V117.304H302.599C302.711 119.08 304.055 120.136 305.415 120.136C306.535 120.136 307.543 119.704 308.103 118.44L309.191 118.696C308.567 120.344 307.191 121.208 305.415 121.208C303.319 121.208 301.415 119.592 301.415 117.08C301.415 114.552 303.319 112.92 305.495 112.92C307.623 112.92 309.287 114.504 309.367 116.856ZM305.495 113.992C304.215 113.992 302.887 114.84 302.647 116.392H308.135C307.911 114.84 306.807 113.992 305.495 113.992ZM312.679 121H311.463V108.68H312.679V121ZM316.71 121H315.494V108.68H316.71V121ZM326.757 116.856V117.304H319.989C320.101 119.08 321.445 120.136 322.805 120.136C323.925 120.136 324.933 119.704 325.493 118.44L326.581 118.696C325.957 120.344 324.581 121.208 322.805 121.208C320.709 121.208 318.805 119.592 318.805 117.08C318.805 114.552 320.709 112.92 322.885 112.92C325.013 112.92 326.677 114.504 326.757 116.856ZM322.885 113.992C321.605 113.992 320.277 114.84 320.037 116.392H325.525C325.301 114.84 324.197 113.992 322.885 113.992ZM336.421 108.68V121H335.205V119.688C334.517 120.648 333.413 121.208 332.069 121.208C329.973 121.208 328.133 119.56 328.133 117.064C328.133 114.568 329.973 112.92 332.069 112.92C333.413 112.92 334.517 113.48 335.205 114.44V108.68H336.421ZM332.261 120.12C333.749 120.12 335.205 118.936 335.205 117.064C335.205 115.176 333.749 113.992 332.261 113.992C330.629 113.992 329.317 115.176 329.317 117.064C329.317 118.936 330.629 120.12 332.261 120.12Z" fill="white"/>
<defs>
<filter id="filter0_d_434_22653" x="275.2" y="57.7" width="23.1" height="35.6" filterUnits="userSpaceOnUse" color-interpolation-filters="sRGB">
<feFlood flood-opacity="0" result="BackgroundImageFix"/>
<feColorMatrix in="SourceAlpha" type="matrix" values="0 0 0 0 0 0 0 0 0 0 0 0 0 0 0 0 0 0 127 0" result="hardAlpha"/>
<feOffset dy="1"/>
<feGaussianBlur stdDeviation="0.9"/>
<feColorMatrix type="matrix" values="0 0 0 0 0 0 0 0 0 0 0 0 0 0 0 0 0 0 0.65 0"/>
<feBlend mode="normal" in2="BackgroundImageFix" result="effect1_dropShadow_434_22653"/>
<feBlend mode="normal" in="SourceGraphic" in2="effect1_dropShadow_434_22653" result="shape"/>
</filter>
<linearGradient id="paint0_linear_434_22653" x1="287" y1="72" x2="287" y2="90" gradientUnits="userSpaceOnUse">
<stop stop-color="#F1F1F1"/>
<stop offset="1" stop-color="#D6D6D6"/>
</linearGradient>
<clipPath id="clip0_434_22653">
<path d="M1 17C1 8.16346 8.16344 1 17 1H345C353.837 1 361 8.16344 361 17V401C361 409.837 353.837 417 345 417H17C8.16344 417 1 409.837 1 401V17Z" fill="white"/>
</clipPath>
</defs>
</svg>
