<svg width="328" height="176" viewBox="0 0 328 176" fill="none" xmlns="http://www.w3.org/2000/svg">
<path d="M16 0.5H312C320.56 0.500002 327.5 7.43959 327.5 16V160C327.5 168.56 320.56 175.5 312 175.5H16C7.43959 175.5 0.5 168.56 0.5 160V16C0.5 7.43959 7.43959 0.5 16 0.5Z" fill="white"/>
<path d="M16 0.5H312C320.56 0.500002 327.5 7.43959 327.5 16V160C327.5 168.56 320.56 175.5 312 175.5H16C7.43959 175.5 0.5 168.56 0.5 160V16C0.5 7.43959 7.43959 0.5 16 0.5Z" stroke="#D3CFCA"/>
<path d="M28.382 29.424C30.286 29.424 31.658 30.46 31.994 32.07L30.496 32.378C30.328 31.384 29.474 30.726 28.354 30.726C27.248 30.726 26.52 31.328 26.52 32.154C26.52 32.812 26.898 33.162 27.71 33.33L29.74 33.764C31.14 34.072 32.148 34.856 32.148 36.326C32.148 38.09 30.706 39.196 28.55 39.196C26.562 39.196 24.91 38.23 24.672 36.41L26.268 36.074C26.492 37.278 27.43 37.866 28.69 37.866C29.95 37.866 30.664 37.264 30.664 36.41C30.664 35.696 30.286 35.36 29.348 35.164L27.304 34.744C26.142 34.478 24.938 33.862 24.938 32.196C24.938 30.544 26.296 29.424 28.382 29.424ZM40.447 35.374V35.878H34.819C34.959 37.166 35.897 37.936 36.919 37.936C37.689 37.936 38.473 37.712 38.963 36.732L40.265 37.012C39.691 38.468 38.459 39.196 36.919 39.196C35.029 39.196 33.377 37.74 33.377 35.542C33.377 33.33 35.015 31.86 36.975 31.86C38.837 31.86 40.377 33.288 40.447 35.374ZM36.975 33.148C36.065 33.148 35.085 33.722 34.861 34.842H38.949C38.725 33.708 37.927 33.148 36.975 33.148ZM43.5151 39H42.0591V28.22H43.5151V39ZM52.1912 35.374V35.878H46.5632C46.7032 37.166 47.6412 37.936 48.6632 37.936C49.4332 37.936 50.2172 37.712 50.7072 36.732L52.0092 37.012C51.4352 38.468 50.2032 39.196 48.6632 39.196C46.7732 39.196 45.1212 37.74 45.1212 35.542C45.1212 33.33 46.7592 31.86 48.7192 31.86C50.5812 31.86 52.1212 33.288 52.1912 35.374ZM48.7192 33.148C47.8092 33.148 46.8292 33.722 46.6052 34.842H50.6932C50.4692 33.708 49.6712 33.148 48.7192 33.148ZM56.8693 37.852C57.7933 37.852 58.5633 37.376 58.9133 36.396L60.2573 36.746C59.8653 38.23 58.4793 39.196 56.8693 39.196C54.8813 39.196 53.2013 37.726 53.2013 35.528C53.2013 33.358 54.8813 31.86 56.8693 31.86C58.4373 31.86 59.8093 32.812 60.2573 34.296L58.8573 34.702C58.5773 33.68 57.7933 33.204 56.8693 33.204C55.5813 33.204 54.6293 34.156 54.6293 35.528C54.6293 36.942 55.5813 37.852 56.8693 37.852ZM66.0553 37.446L66.5033 38.664C65.8453 39.056 65.3693 39.196 64.7813 39.196C63.2833 39.196 62.2753 38.356 62.2753 36.634V33.26H60.7773V32.056H62.2753V29.62H63.7313V32.056H66.1113V33.26H63.7313V36.536C63.7313 37.404 64.1933 37.824 64.8793 37.824C65.2433 37.824 65.6913 37.684 66.0553 37.446ZM77.8732 32.042L73.2812 42.36H71.6572L73.2252 38.832L70.2292 32.042H71.8532L74.0092 37.068L76.2492 32.042H77.8732ZM82.0955 31.902C84.1395 31.902 85.8055 33.372 85.8055 35.528C85.8055 37.684 84.1395 39.168 82.0955 39.168C80.0375 39.168 78.3575 37.684 78.3575 35.528C78.3575 33.372 80.0375 31.902 82.0955 31.902ZM82.0955 37.908C83.2855 37.908 84.3915 36.97 84.3915 35.528C84.3915 34.086 83.2855 33.148 82.0955 33.148C80.8775 33.148 79.7855 34.086 79.7855 35.528C79.7855 36.97 80.8775 37.908 82.0955 37.908ZM93.9041 32.056V39H92.4481V38.146C91.8881 38.818 91.0761 39.196 90.0541 39.196C88.3741 39.196 87.2681 37.992 87.2681 36.242V32.056H88.7241V35.948C88.7241 37.082 89.3821 37.852 90.3901 37.852C91.6361 37.852 92.4481 37.012 92.4481 35.262V32.056H93.9041ZM100.22 31.972C100.388 31.972 100.528 31.972 100.71 32.028L100.612 33.428C100.5 33.414 100.332 33.414 100.206 33.414C98.4417 33.414 97.5737 34.646 97.5737 36.55V39H96.1177V32.056H97.5737V33.54C98.1337 32.616 99.0157 31.972 100.22 31.972ZM111.924 35.374V35.878H106.296C106.436 37.166 107.374 37.936 108.396 37.936C109.166 37.936 109.95 37.712 110.44 36.732L111.742 37.012C111.168 38.468 109.936 39.196 108.396 39.196C106.506 39.196 104.854 37.74 104.854 35.542C104.854 33.33 106.492 31.86 108.452 31.86C110.314 31.86 111.854 33.288 111.924 35.374ZM108.452 33.148C107.542 33.148 106.562 33.722 106.338 34.842H110.426C110.202 33.708 109.404 33.148 108.452 33.148ZM112.948 37.138L114.404 36.83C114.502 37.656 115.23 38.006 116.14 38.006C116.98 38.006 117.512 37.628 117.512 37.082C117.512 36.662 117.218 36.396 116.574 36.256L115.062 35.948C113.858 35.682 113.172 35.038 113.172 34.058C113.172 32.77 114.25 31.86 115.916 31.86C117.512 31.86 118.59 32.7 118.842 33.862L117.456 34.156C117.344 33.484 116.77 33.022 115.874 33.022C115.02 33.022 114.642 33.442 114.642 33.932C114.642 34.324 114.866 34.576 115.482 34.716L117.134 35.08C118.254 35.318 118.94 35.976 118.94 36.956C118.94 38.412 117.75 39.196 116.014 39.196C114.46 39.196 113.13 38.538 112.948 37.138ZM124.762 37.446L125.21 38.664C124.552 39.056 124.076 39.196 123.488 39.196C121.99 39.196 120.982 38.356 120.982 36.634V33.26H119.484V32.056H120.982V29.62H122.438V32.056H124.818V33.26H122.438V36.536C122.438 37.404 122.9 37.824 123.586 37.824C123.95 37.824 124.398 37.684 124.762 37.446ZM127.227 29.06C127.759 29.06 128.151 29.48 128.151 29.97C128.151 30.488 127.759 30.866 127.227 30.866C126.681 30.866 126.289 30.488 126.289 29.97C126.289 29.48 126.681 29.06 127.227 29.06ZM127.955 39H126.499V32.056H127.955V39ZM138.852 31.86C140.294 31.86 141.484 32.938 141.484 34.576V39H140.042V34.87C140.042 33.848 139.37 33.204 138.474 33.204C137.34 33.204 136.598 34.002 136.598 35.556V39H135.142V34.87C135.142 33.848 134.47 33.204 133.574 33.204C132.454 33.204 131.726 34.002 131.726 35.556V39H130.27V32.056H131.726V32.84C132.23 32.224 132.958 31.86 133.952 31.86C134.946 31.86 135.814 32.322 136.262 33.134C136.822 32.35 137.704 31.86 138.852 31.86ZM146.331 31.86C148.109 31.86 149.285 32.798 149.285 34.478V39H147.899V38.202C147.381 38.776 146.611 39.196 145.533 39.196C143.979 39.196 142.943 38.3 142.943 36.998C142.943 35.696 143.937 34.8 145.729 34.8H147.899V34.59C147.899 33.694 147.297 33.134 146.415 33.134C145.477 33.134 144.875 33.554 144.721 34.338L143.335 34.044C143.573 32.742 144.777 31.86 146.331 31.86ZM145.757 38.02C146.919 38.02 147.899 37.208 147.899 36.144V35.92H145.701C144.847 35.92 144.343 36.354 144.343 36.97C144.343 37.6 144.903 38.02 145.757 38.02ZM155.36 37.446L155.808 38.664C155.15 39.056 154.674 39.196 154.086 39.196C152.588 39.196 151.58 38.356 151.58 36.634V33.26H150.082V32.056H151.58V29.62H153.036V32.056H155.416V33.26H153.036V36.536C153.036 37.404 153.498 37.824 154.184 37.824C154.548 37.824 154.996 37.684 155.36 37.446ZM163.275 35.374V35.878H157.647C157.787 37.166 158.725 37.936 159.747 37.936C160.517 37.936 161.301 37.712 161.791 36.732L163.093 37.012C162.519 38.468 161.287 39.196 159.747 39.196C157.857 39.196 156.205 37.74 156.205 35.542C156.205 33.33 157.843 31.86 159.803 31.86C161.665 31.86 163.205 33.288 163.275 35.374ZM159.803 33.148C158.893 33.148 157.913 33.722 157.689 34.842H161.777C161.553 33.708 160.755 33.148 159.803 33.148ZM171.719 28.22V39H170.249V38.146C169.661 38.818 168.807 39.196 167.729 39.196C165.923 39.196 164.285 37.726 164.285 35.528C164.285 33.344 165.923 31.86 167.729 31.86C168.807 31.86 169.661 32.252 170.249 32.91V28.22H171.719ZM167.967 37.908C169.129 37.908 170.249 36.998 170.249 35.528C170.249 34.072 169.129 33.148 167.967 33.148C166.707 33.148 165.713 34.072 165.713 35.528C165.713 36.998 166.707 37.908 167.967 37.908ZM181.234 31.86C182.9 31.86 184.02 33.064 184.02 34.8V39H182.55V35.094C182.55 33.96 181.892 33.204 180.898 33.204C179.652 33.204 178.826 34.044 178.826 35.794V39H177.37V28.22H178.826V32.91C179.386 32.238 180.198 31.86 181.234 31.86ZM189.201 31.902C191.245 31.902 192.911 33.372 192.911 35.528C192.911 37.684 191.245 39.168 189.201 39.168C187.143 39.168 185.463 37.684 185.463 35.528C185.463 33.372 187.143 31.902 189.201 31.902ZM189.201 37.908C190.391 37.908 191.497 36.97 191.497 35.528C191.497 34.086 190.391 33.148 189.201 33.148C187.983 33.148 186.891 34.086 186.891 35.528C186.891 36.97 187.983 37.908 189.201 37.908ZM203.124 31.86C204.566 31.86 205.756 32.938 205.756 34.576V39H204.314V34.87C204.314 33.848 203.642 33.204 202.746 33.204C201.612 33.204 200.87 34.002 200.87 35.556V39H199.414V34.87C199.414 33.848 198.742 33.204 197.846 33.204C196.726 33.204 195.998 34.002 195.998 35.556V39H194.542V32.056H195.998V32.84C196.502 32.224 197.23 31.86 198.224 31.86C199.218 31.86 200.086 32.322 200.534 33.134C201.094 32.35 201.976 31.86 203.124 31.86ZM214.285 35.374V35.878H208.657C208.797 37.166 209.735 37.936 210.757 37.936C211.527 37.936 212.311 37.712 212.801 36.732L214.103 37.012C213.529 38.468 212.297 39.196 210.757 39.196C208.867 39.196 207.215 37.74 207.215 35.542C207.215 33.33 208.853 31.86 210.813 31.86C212.675 31.86 214.215 33.288 214.285 35.374ZM210.813 33.148C209.903 33.148 208.923 33.722 208.699 34.842H212.787C212.563 33.708 211.765 33.148 210.813 33.148ZM225.978 32.042L222.982 39H221.428L218.446 32.042H220.028L222.212 37.264L224.396 32.042H225.978ZM229.798 31.86C231.576 31.86 232.752 32.798 232.752 34.478V39H231.366V38.202C230.848 38.776 230.078 39.196 229 39.196C227.446 39.196 226.41 38.3 226.41 36.998C226.41 35.696 227.404 34.8 229.196 34.8H231.366V34.59C231.366 33.694 230.764 33.134 229.882 33.134C228.944 33.134 228.342 33.554 228.188 34.338L226.802 34.044C227.04 32.742 228.244 31.86 229.798 31.86ZM229.224 38.02C230.386 38.02 231.366 37.208 231.366 36.144V35.92H229.168C228.314 35.92 227.81 36.354 227.81 36.97C227.81 37.6 228.37 38.02 229.224 38.02ZM236.111 39H234.655V28.22H236.111V39ZM244.787 32.056V39H243.331V38.146C242.771 38.818 241.959 39.196 240.937 39.196C239.257 39.196 238.151 37.992 238.151 36.242V32.056H239.607V35.948C239.607 37.082 240.265 37.852 241.273 37.852C242.519 37.852 243.331 37.012 243.331 35.262V32.056H244.787ZM253.469 35.374V35.878H247.841C247.981 37.166 248.919 37.936 249.941 37.936C250.711 37.936 251.495 37.712 251.985 36.732L253.287 37.012C252.713 38.468 251.481 39.196 249.941 39.196C248.051 39.196 246.399 37.74 246.399 35.542C246.399 33.33 248.037 31.86 249.997 31.86C251.859 31.86 253.399 33.288 253.469 35.374ZM249.997 33.148C249.087 33.148 248.107 33.722 247.883 34.842H251.971C251.747 33.708 250.949 33.148 249.997 33.148Z" fill="#1A1816"/>
<circle cx="32" cy="68" r="7.5" stroke="#958A7F"/>
<path d="M58.32 73H56.736L52.64 68.408H50.672V73H49.408V62.28H54.368C56.464 62.28 57.872 63.496 57.872 65.336C57.872 67.176 56.464 68.408 54.368 68.408H54.176L58.32 73ZM50.672 67.256H54.368C55.712 67.256 56.608 66.488 56.608 65.336C56.608 64.184 55.712 63.416 54.368 63.416H50.672V67.256ZM67.1556 68.856V69.304H60.3876C60.4996 71.08 61.8436 72.136 63.2036 72.136C64.3236 72.136 65.3316 71.704 65.8916 70.44L66.9796 70.696C66.3556 72.344 64.9796 73.208 63.2036 73.208C61.1076 73.208 59.2036 71.592 59.2036 69.08C59.2036 66.552 61.1076 64.92 63.2836 64.92C65.4116 64.92 67.0756 66.504 67.1556 68.856ZM63.2836 65.992C62.0036 65.992 60.6756 66.84 60.4356 68.392H65.9236C65.6996 66.84 64.5956 65.992 63.2836 65.992ZM72.2758 64.92C74.2438 64.92 75.5398 65.976 75.5398 67.88V73H74.3558V71.8C73.7478 72.616 72.7558 73.208 71.3958 73.208C69.6678 73.208 68.5318 72.216 68.5318 70.792C68.5318 69.352 69.6358 68.328 71.6998 68.328H74.3558V67.96C74.3558 66.728 73.5558 65.992 72.3398 65.992C71.1398 65.992 70.3078 66.584 70.1318 67.576L68.9638 67.32C69.2198 65.896 70.5478 64.92 72.2758 64.92ZM71.5718 72.2C73.1078 72.2 74.3558 71.128 74.3558 69.704V69.288H71.6838C70.3878 69.288 69.6998 69.912 69.6998 70.776C69.6998 71.608 70.4358 72.2 71.5718 72.2ZM79.1865 73H77.9705V60.68H79.1865V73ZM89.8258 71.848V73H82.0018V62.28H89.8098V63.416H83.2658V67.048H89.3458V68.184H83.2658V71.848H89.8258ZM91.5173 70.872L92.7333 70.6C92.8453 71.64 93.8053 72.2 95.0533 72.2C96.1893 72.2 96.9413 71.672 96.9413 70.856C96.9413 70.2 96.4453 69.896 95.6453 69.72L93.8373 69.32C92.5253 69.048 91.7893 68.392 91.7893 67.304C91.7893 65.88 92.9733 64.92 94.7812 64.92C96.5573 64.92 97.7093 65.832 97.9973 67.112L96.8293 67.368C96.6693 66.504 95.9173 65.912 94.7493 65.912C93.6293 65.912 93.0053 66.456 93.0053 67.208C93.0053 67.832 93.4373 68.12 94.2053 68.296L96.1093 68.712C97.2613 68.968 98.1413 69.576 98.1413 70.776C98.1413 72.328 96.8453 73.208 94.9573 73.208C93.1493 73.208 91.7093 72.408 91.5173 70.872ZM104.619 71.576L105.019 72.584C104.379 73.032 103.835 73.208 103.195 73.208C101.627 73.208 100.587 72.28 100.587 70.536V66.136H98.875V65.112H100.587V62.28H101.819V65.112H104.635V66.136H101.819V70.456C101.819 71.48 102.395 72.056 103.275 72.056C103.723 72.056 104.219 71.864 104.619 71.576ZM107.316 61.912C107.796 61.912 108.164 62.296 108.164 62.728C108.164 63.192 107.796 63.544 107.316 63.544C106.836 63.544 106.484 63.192 106.484 62.728C106.484 62.296 106.836 61.912 107.316 61.912ZM107.94 73H106.708V65.112H107.94V73ZM120.445 64.92C122.109 64.92 123.389 66.104 123.389 67.896V73H122.173V68.104C122.173 66.856 121.325 66.04 120.141 66.04C118.685 66.04 117.725 67.112 117.725 68.968V73H116.509V68.104C116.509 66.856 115.661 66.04 114.493 66.04C113.037 66.04 112.093 67.112 112.093 68.968V73H110.877V65.112H112.093V66.312C112.653 65.448 113.549 64.92 114.781 64.92C115.997 64.92 117.005 65.512 117.469 66.52C118.077 65.544 119.101 64.92 120.445 64.92ZM129.041 64.92C131.009 64.92 132.305 65.976 132.305 67.88V73H131.121V71.8C130.513 72.616 129.521 73.208 128.161 73.208C126.433 73.208 125.297 72.216 125.297 70.792C125.297 69.352 126.401 68.328 128.465 68.328H131.121V67.96C131.121 66.728 130.321 65.992 129.105 65.992C127.905 65.992 127.073 66.584 126.897 67.576L125.729 67.32C125.985 65.896 127.313 64.92 129.041 64.92ZM128.337 72.2C129.873 72.2 131.121 71.128 131.121 69.704V69.288H128.449C127.153 69.288 126.465 69.912 126.465 70.776C126.465 71.608 127.201 72.2 128.337 72.2ZM139.072 71.576L139.472 72.584C138.832 73.032 138.288 73.208 137.648 73.208C136.08 73.208 135.04 72.28 135.04 70.536V66.136H133.328V65.112H135.04V62.28H136.272V65.112H139.088V66.136H136.272V70.456C136.272 71.48 136.848 72.056 137.728 72.056C138.176 72.056 138.672 71.864 139.072 71.576ZM148.031 68.856V69.304H141.263C141.375 71.08 142.719 72.136 144.079 72.136C145.199 72.136 146.207 71.704 146.767 70.44L147.855 70.696C147.231 72.344 145.855 73.208 144.079 73.208C141.983 73.208 140.079 71.592 140.079 69.08C140.079 66.552 141.983 64.92 144.159 64.92C146.287 64.92 147.951 66.504 148.031 68.856ZM144.159 65.992C142.879 65.992 141.551 66.84 141.311 68.392H146.799C146.575 66.84 145.471 65.992 144.159 65.992ZM154.511 67.208V61.576H156.015L157.519 65.912L159.071 61.576H160.527V67.208H159.503V63.944C159.503 63.8587 159.508 63.6933 159.519 63.448C159.529 63.192 159.54 63 159.551 62.872H159.487L157.871 67.208H157.023L155.487 62.872H155.423C155.433 63.0427 155.444 63.2347 155.455 63.448C155.465 63.6613 155.471 63.8 155.471 63.864V67.208H154.511ZM151.263 67.32C150.964 67.32 150.671 67.2987 150.383 67.256C150.105 67.2027 149.876 67.1333 149.695 67.048V66.2C149.897 66.2747 150.143 66.3493 150.431 66.424C150.729 66.4987 151.033 66.536 151.343 66.536C151.759 66.536 152.073 66.4667 152.287 66.328C152.5 66.1787 152.607 65.9813 152.607 65.736C152.607 65.4693 152.5 65.2667 152.287 65.128C152.073 64.9893 151.753 64.8453 151.327 64.696C151.071 64.6 150.809 64.4933 150.543 64.376C150.287 64.248 150.068 64.072 149.887 63.848C149.705 63.624 149.615 63.3307 149.615 62.968C149.615 62.456 149.801 62.072 150.175 61.816C150.559 61.56 151.065 61.432 151.695 61.432C152.015 61.432 152.308 61.464 152.575 61.528C152.852 61.5813 153.103 61.656 153.327 61.752L153.087 62.536C152.884 62.44 152.66 62.36 152.415 62.296C152.18 62.2213 151.929 62.184 151.663 62.184C151.311 62.184 151.039 62.2533 150.847 62.392C150.655 62.5307 150.559 62.728 150.559 62.984C150.559 63.1653 150.607 63.3147 150.703 63.432C150.799 63.5387 150.943 63.6347 151.135 63.72C151.327 63.7947 151.567 63.8853 151.855 63.992C152.228 64.12 152.537 64.2533 152.783 64.392C153.039 64.5307 153.231 64.7013 153.359 64.904C153.497 65.096 153.567 65.352 153.567 65.672C153.567 66.0347 153.471 66.3387 153.279 66.584C153.097 66.8293 152.836 67.016 152.495 67.144C152.153 67.2613 151.743 67.32 151.263 67.32Z" fill="#1A1816"/>
<path d="M177.225 71.6126C177.624 71.6126 177.947 71.2891 177.947 70.8901V68.0002C177.947 67.6012 177.624 67.2777 177.225 67.2777C176.826 67.2777 176.502 67.6012 176.502 68.0002V70.8901C176.502 71.2891 176.826 71.6126 177.225 71.6126Z" fill="#1A1816"/>
<path d="M177.225 65.8327C177.624 65.8327 177.947 65.5093 177.947 65.1103C177.947 64.7113 177.624 64.3878 177.225 64.3878C176.826 64.3878 176.502 64.7113 176.502 65.1103C176.502 65.5093 176.826 65.8327 177.225 65.8327Z" fill="#1A1816"/>
<path fill-rule="evenodd" clip-rule="evenodd" d="M184.45 68.0002C184.45 71.9903 181.215 75.225 177.225 75.225C173.235 75.225 170 71.9903 170 68.0002C170 64.01 173.235 60.7754 177.225 60.7754C181.215 60.7754 184.45 64.01 184.45 68.0002ZM183.005 68.0002C183.005 71.1923 180.417 73.78 177.225 73.78C174.033 73.78 171.445 71.1923 171.445 68.0002C171.445 64.8081 174.033 62.2203 177.225 62.2203C180.417 62.2203 183.005 64.8081 183.005 68.0002Z" fill="#1A1816"/>
<circle cx="32" cy="104" r="5" fill="white" stroke="#3F3B36" stroke-width="6"/>
<path d="M49.408 98.28H54.08C56.368 98.28 57.808 99.64 57.808 101.608C57.808 103.576 56.368 104.936 54.08 104.936H50.672V109H49.408V98.28ZM50.672 103.8H54.08C55.616 103.8 56.56 102.888 56.56 101.608C56.56 100.328 55.616 99.416 54.08 99.416H50.672V103.8ZM67.0619 104.856V105.304H60.2939C60.4059 107.08 61.7499 108.136 63.1099 108.136C64.2299 108.136 65.2379 107.704 65.7979 106.44L66.8859 106.696C66.2619 108.344 64.8859 109.208 63.1099 109.208C61.0139 109.208 59.1099 107.592 59.1099 105.08C59.1099 102.552 61.0139 100.92 63.1899 100.92C65.3179 100.92 66.9819 102.504 67.0619 104.856ZM63.1899 101.992C61.9099 101.992 60.5819 102.84 60.3419 104.392H65.8299C65.6059 102.84 64.5019 101.992 63.1899 101.992ZM73.558 101.032C73.75 101.032 73.894 101.032 74.118 101.096L74.022 102.264C73.878 102.248 73.702 102.248 73.558 102.248C71.462 102.248 70.39 103.832 70.39 105.96V109H69.158V101.112H70.39V103.048C71.03 101.88 72.102 101.032 73.558 101.032ZM74.9548 106.872L76.1708 106.6C76.2828 107.64 77.2428 108.2 78.4908 108.2C79.6268 108.2 80.3788 107.672 80.3788 106.856C80.3788 106.2 79.8828 105.896 79.0828 105.72L77.2748 105.32C75.9628 105.048 75.2268 104.392 75.2268 103.304C75.2268 101.88 76.4108 100.92 78.2188 100.92C79.9948 100.92 81.1468 101.832 81.4348 103.112L80.2668 103.368C80.1068 102.504 79.3548 101.912 78.1868 101.912C77.0668 101.912 76.4428 102.456 76.4428 103.208C76.4428 103.832 76.8748 104.12 77.6428 104.296L79.5468 104.712C80.6988 104.968 81.5788 105.576 81.5788 106.776C81.5788 108.328 80.2828 109.208 78.3948 109.208C76.5868 109.208 75.1468 108.408 74.9548 106.872ZM87.1925 100.936C89.5125 100.936 91.3685 102.632 91.3685 105.048C91.3685 107.464 89.5125 109.192 87.1925 109.192C84.8405 109.192 83.0005 107.464 83.0005 105.048C83.0005 102.632 84.8405 100.936 87.1925 100.936ZM87.1925 108.12C88.8085 108.12 90.1685 106.872 90.1685 105.048C90.1685 103.24 88.8085 102.008 87.1925 102.008C85.5605 102.008 84.1845 103.24 84.1845 105.048C84.1845 106.872 85.5605 108.12 87.1925 108.12ZM97.6469 100.92C99.5509 100.92 100.815 102.28 100.815 104.28V109H99.5989V104.504C99.5989 103.032 98.7189 102.04 97.4069 102.04C95.7589 102.04 94.6709 103.16 94.6709 105.208V109H93.4549V101.112H94.6709V102.424C95.3109 101.464 96.3189 100.92 97.6469 100.92ZM106.463 100.92C108.431 100.92 109.727 101.976 109.727 103.88V109H108.543V107.8C107.935 108.616 106.943 109.208 105.583 109.208C103.855 109.208 102.719 108.216 102.719 106.792C102.719 105.352 103.823 104.328 105.887 104.328H108.543V103.96C108.543 102.728 107.743 101.992 106.527 101.992C105.327 101.992 104.495 102.584 104.319 103.576L103.151 103.32C103.407 101.896 104.735 100.92 106.463 100.92ZM105.759 108.2C107.295 108.2 108.543 107.128 108.543 105.704V105.288H105.871C104.575 105.288 103.887 105.912 103.887 106.776C103.887 107.608 104.623 108.2 105.759 108.2ZM113.374 109H112.158V96.68H113.374V109ZM116.925 97.912C117.405 97.912 117.773 98.296 117.773 98.728C117.773 99.192 117.405 99.544 116.925 99.544C116.445 99.544 116.093 99.192 116.093 98.728C116.093 98.296 116.445 97.912 116.925 97.912ZM117.549 109H116.317V101.112H117.549V109ZM126.534 107.976V109H119.718V108.168L124.854 102.136H119.862V101.112H126.374V101.96L121.238 107.976H126.534ZM135.609 104.856V105.304H128.841C128.953 107.08 130.297 108.136 131.657 108.136C132.777 108.136 133.785 107.704 134.345 106.44L135.433 106.696C134.809 108.344 133.433 109.208 131.657 109.208C129.561 109.208 127.657 107.592 127.657 105.08C127.657 102.552 129.561 100.92 131.737 100.92C133.865 100.92 135.529 102.504 135.609 104.856ZM131.737 101.992C130.457 101.992 129.129 102.84 128.889 104.392H134.377C134.153 102.84 133.049 101.992 131.737 101.992ZM145.273 96.68V109H144.057V107.688C143.369 108.648 142.265 109.208 140.921 109.208C138.825 109.208 136.985 107.56 136.985 105.064C136.985 102.568 138.825 100.92 140.921 100.92C142.265 100.92 143.369 101.48 144.057 102.44V96.68H145.273ZM141.113 108.12C142.601 108.12 144.057 106.936 144.057 105.064C144.057 103.176 142.601 101.992 141.113 101.992C139.481 101.992 138.169 103.176 138.169 105.064C138.169 106.936 139.481 108.12 141.113 108.12ZM159.359 104.856V105.304H152.591C152.703 107.08 154.047 108.136 155.407 108.136C156.527 108.136 157.535 107.704 158.095 106.44L159.183 106.696C158.559 108.344 157.183 109.208 155.407 109.208C153.311 109.208 151.407 107.592 151.407 105.08C151.407 102.552 153.311 100.92 155.487 100.92C157.615 100.92 159.279 102.504 159.359 104.856ZM155.487 101.992C154.207 101.992 152.879 102.84 152.639 104.392H158.127C157.903 102.84 156.799 101.992 155.487 101.992ZM160.783 106.872L161.999 106.6C162.111 107.64 163.071 108.2 164.319 108.2C165.455 108.2 166.207 107.672 166.207 106.856C166.207 106.2 165.711 105.896 164.911 105.72L163.103 105.32C161.791 105.048 161.055 104.392 161.055 103.304C161.055 101.88 162.239 100.92 164.047 100.92C165.823 100.92 166.975 101.832 167.263 103.112L166.095 103.368C165.935 102.504 165.183 101.912 164.015 101.912C162.895 101.912 162.271 102.456 162.271 103.208C162.271 103.832 162.703 104.12 163.471 104.296L165.375 104.712C166.527 104.968 167.407 105.576 167.407 106.776C167.407 108.328 166.111 109.208 164.223 109.208C162.415 109.208 160.975 108.408 160.783 106.872ZM173.885 107.576L174.285 108.584C173.645 109.032 173.101 109.208 172.461 109.208C170.893 109.208 169.853 108.28 169.853 106.536V102.136H168.141V101.112H169.853V98.28H171.085V101.112H173.901V102.136H171.085V106.456C171.085 107.48 171.661 108.056 172.541 108.056C172.989 108.056 173.485 107.864 173.885 107.576ZM176.582 97.912C177.062 97.912 177.43 98.296 177.43 98.728C177.43 99.192 177.062 99.544 176.582 99.544C176.102 99.544 175.75 99.192 175.75 98.728C175.75 98.296 176.102 97.912 176.582 97.912ZM177.206 109H175.974V101.112H177.206V109ZM189.71 100.92C191.374 100.92 192.654 102.104 192.654 103.896V109H191.438V104.104C191.438 102.856 190.59 102.04 189.406 102.04C187.95 102.04 186.99 103.112 186.99 104.968V109H185.774V104.104C185.774 102.856 184.926 102.04 183.758 102.04C182.302 102.04 181.358 103.112 181.358 104.968V109H180.142V101.112H181.358V102.312C181.918 101.448 182.814 100.92 184.046 100.92C185.262 100.92 186.27 101.512 186.734 102.52C187.342 101.544 188.366 100.92 189.71 100.92ZM198.307 100.92C200.275 100.92 201.571 101.976 201.571 103.88V109H200.387V107.8C199.779 108.616 198.787 109.208 197.427 109.208C195.699 109.208 194.563 108.216 194.563 106.792C194.563 105.352 195.667 104.328 197.731 104.328H200.387V103.96C200.387 102.728 199.587 101.992 198.371 101.992C197.171 101.992 196.339 102.584 196.163 103.576L194.995 103.32C195.251 101.896 196.579 100.92 198.307 100.92ZM197.603 108.2C199.139 108.2 200.387 107.128 200.387 105.704V105.288H197.715C196.419 105.288 195.731 105.912 195.731 106.776C195.731 107.608 196.467 108.2 197.603 108.2ZM208.338 107.576L208.738 108.584C208.098 109.032 207.554 109.208 206.914 109.208C205.346 109.208 204.306 108.28 204.306 106.536V102.136H202.594V101.112H204.306V98.28H205.538V101.112H208.354V102.136H205.538V106.456C205.538 107.48 206.114 108.056 206.994 108.056C207.442 108.056 207.938 107.864 208.338 107.576ZM217.296 104.856V105.304H210.528C210.64 107.08 211.984 108.136 213.344 108.136C214.464 108.136 215.472 107.704 216.032 106.44L217.12 106.696C216.496 108.344 215.12 109.208 213.344 109.208C211.248 109.208 209.344 107.592 209.344 105.08C209.344 102.552 211.248 100.92 213.424 100.92C215.552 100.92 217.216 102.504 217.296 104.856ZM213.424 101.992C212.144 101.992 210.816 102.84 210.576 104.392H216.064C215.84 102.84 214.736 101.992 213.424 101.992Z" fill="#1A1816"/>
<path d="M233.225 107.613C233.624 107.613 233.947 107.289 233.947 106.89V104C233.947 103.601 233.624 103.278 233.225 103.278C232.826 103.278 232.502 103.601 232.502 104V106.89C232.502 107.289 232.826 107.613 233.225 107.613Z" fill="#1A1816"/>
<path d="M233.225 101.833C233.624 101.833 233.947 101.509 233.947 101.11C233.947 100.711 233.624 100.388 233.225 100.388C232.826 100.388 232.502 100.711 232.502 101.11C232.502 101.509 232.826 101.833 233.225 101.833Z" fill="#1A1816"/>
<path fill-rule="evenodd" clip-rule="evenodd" d="M240.45 104C240.45 107.99 237.215 111.225 233.225 111.225C229.235 111.225 226 107.99 226 104C226 100.01 229.235 96.7754 233.225 96.7754C237.215 96.7754 240.45 100.01 240.45 104ZM239.005 104C239.005 107.192 236.417 109.78 233.225 109.78C230.033 109.78 227.445 107.192 227.445 104C227.445 100.808 230.033 98.2203 233.225 98.2203C236.417 98.2203 239.005 100.808 239.005 104Z" fill="#1A1816"/>
<circle cx="32" cy="140" r="7.5" stroke="#958A7F"/>
<path d="M54.432 134.072C57.536 134.072 59.968 136.536 59.968 139.64C59.968 142.76 57.536 145.208 54.432 145.208C51.312 145.208 48.88 142.76 48.88 139.64C48.88 136.536 51.312 134.072 54.432 134.072ZM54.432 144.008C56.816 144.008 58.688 142.12 58.688 139.64C58.688 137.176 56.816 135.256 54.432 135.256C52.032 135.256 50.16 137.176 50.16 139.64C50.16 142.12 52.032 144.008 54.432 144.008ZM72.8598 137.112L70.2038 145.032H69.0677L67.0038 139.048L64.9238 145.032H63.7878L61.1318 137.112H62.3638L64.3958 143.224L66.5078 137.112H67.4838L69.5958 143.224L71.6278 137.112H72.8598ZM78.7406 136.92C80.6446 136.92 81.9086 138.28 81.9086 140.28V145H80.6926V140.504C80.6926 139.032 79.8126 138.04 78.5006 138.04C76.8526 138.04 75.7646 139.16 75.7646 141.208V145H74.5486V137.112H75.7646V138.424C76.4046 137.464 77.4126 136.92 78.7406 136.92ZM91.765 140.856V141.304H84.997C85.109 143.08 86.453 144.136 87.813 144.136C88.933 144.136 89.941 143.704 90.501 142.44L91.589 142.696C90.965 144.344 89.589 145.208 87.813 145.208C85.717 145.208 83.813 143.592 83.813 141.08C83.813 138.552 85.717 136.92 87.893 136.92C90.021 136.92 91.685 138.504 91.765 140.856ZM87.893 137.992C86.613 137.992 85.285 138.84 85.045 140.392H90.533C90.309 138.84 89.205 137.992 87.893 137.992ZM98.2611 137.032C98.4531 137.032 98.5971 137.032 98.8211 137.096L98.7251 138.264C98.5811 138.248 98.4051 138.248 98.2611 138.248C96.1651 138.248 95.0931 139.832 95.0931 141.96V145H93.8611V137.112H95.0931V139.048C95.7331 137.88 96.8051 137.032 98.2611 137.032ZM111.718 140.856V141.304H104.95C105.062 143.08 106.406 144.136 107.766 144.136C108.886 144.136 109.894 143.704 110.454 142.44L111.542 142.696C110.918 144.344 109.542 145.208 107.766 145.208C105.67 145.208 103.766 143.592 103.766 141.08C103.766 138.552 105.67 136.92 107.846 136.92C109.974 136.92 111.638 138.504 111.718 140.856ZM107.846 137.992C106.566 137.992 105.238 138.84 104.998 140.392H110.486C110.262 138.84 109.158 137.992 107.846 137.992ZM113.142 142.872L114.358 142.6C114.47 143.64 115.43 144.2 116.678 144.2C117.814 144.2 118.566 143.672 118.566 142.856C118.566 142.2 118.07 141.896 117.27 141.72L115.462 141.32C114.15 141.048 113.414 140.392 113.414 139.304C113.414 137.88 114.598 136.92 116.406 136.92C118.182 136.92 119.334 137.832 119.622 139.112L118.454 139.368C118.294 138.504 117.542 137.912 116.374 137.912C115.254 137.912 114.63 138.456 114.63 139.208C114.63 139.832 115.062 140.12 115.83 140.296L117.734 140.712C118.886 140.968 119.766 141.576 119.766 142.776C119.766 144.328 118.47 145.208 116.582 145.208C114.774 145.208 113.334 144.408 113.142 142.872ZM126.244 143.576L126.644 144.584C126.004 145.032 125.46 145.208 124.82 145.208C123.252 145.208 122.212 144.28 122.212 142.536V138.136H120.5V137.112H122.212V134.28H123.444V137.112H126.26V138.136H123.444V142.456C123.444 143.48 124.02 144.056 124.9 144.056C125.348 144.056 125.844 143.864 126.244 143.576ZM128.941 133.912C129.421 133.912 129.789 134.296 129.789 134.728C129.789 135.192 129.421 135.544 128.941 135.544C128.461 135.544 128.109 135.192 128.109 134.728C128.109 134.296 128.461 133.912 128.941 133.912ZM129.565 145H128.333V137.112H129.565V145ZM142.07 136.92C143.734 136.92 145.014 138.104 145.014 139.896V145H143.798V140.104C143.798 138.856 142.95 138.04 141.766 138.04C140.31 138.04 139.35 139.112 139.35 140.968V145H138.134V140.104C138.134 138.856 137.286 138.04 136.118 138.04C134.662 138.04 133.718 139.112 133.718 140.968V145H132.502V137.112H133.718V138.312C134.278 137.448 135.174 136.92 136.406 136.92C137.622 136.92 138.63 137.512 139.094 138.52C139.702 137.544 140.726 136.92 142.07 136.92ZM150.666 136.92C152.634 136.92 153.93 137.976 153.93 139.88V145H152.746V143.8C152.138 144.616 151.146 145.208 149.786 145.208C148.058 145.208 146.922 144.216 146.922 142.792C146.922 141.352 148.026 140.328 150.09 140.328H152.746V139.96C152.746 138.728 151.946 137.992 150.73 137.992C149.53 137.992 148.698 138.584 148.522 139.576L147.354 139.32C147.61 137.896 148.938 136.92 150.666 136.92ZM149.962 144.2C151.498 144.2 152.746 143.128 152.746 141.704V141.288H150.074C148.778 141.288 148.09 141.912 148.09 142.776C148.09 143.608 148.826 144.2 149.962 144.2ZM160.697 143.576L161.097 144.584C160.457 145.032 159.913 145.208 159.273 145.208C157.705 145.208 156.665 144.28 156.665 142.536V138.136H154.953V137.112H156.665V134.28H157.897V137.112H160.713V138.136H157.897V142.456C157.897 143.48 158.473 144.056 159.353 144.056C159.801 144.056 160.297 143.864 160.697 143.576ZM169.656 140.856V141.304H162.888C163 143.08 164.344 144.136 165.704 144.136C166.824 144.136 167.832 143.704 168.392 142.44L169.48 142.696C168.856 144.344 167.48 145.208 165.704 145.208C163.608 145.208 161.704 143.592 161.704 141.08C161.704 138.552 163.608 136.92 165.784 136.92C167.912 136.92 169.576 138.504 169.656 140.856ZM165.784 137.992C164.504 137.992 163.176 138.84 162.936 140.392H168.424C168.2 138.84 167.096 137.992 165.784 137.992Z" fill="#1A1816"/>
</svg>
