<svg width="311" height="171" viewBox="0 0 311 171" fill="none" xmlns="http://www.w3.org/2000/svg">
<rect opacity="0.37" x="19.9961" y="73.9956" width="76.3467" height="76.3467" rx="38.1734" fill="#BEB8B0"/>
<rect x="30.9023" y="84.9026" width="54.5334" height="54.5334" rx="27.2667" fill="#BEB8B0"/>
<rect opacity="0.63" x="39.9912" y="93.9915" width="36.3556" height="36.3556" rx="18.1778" fill="#1A1816"/>
<path d="M58.1689 54C90.2948 54 116.338 80.0431 116.338 112.169C116.338 144.295 90.2948 170.338 58.1689 170.338C26.0431 170.338 0 144.295 0 112.169C0 80.0431 26.0431 54 58.1689 54ZM58.1689 65.0146C32.1261 65.0146 11.0146 86.1261 11.0146 112.169C11.0147 138.212 32.1261 159.323 58.1689 159.323C84.2117 159.323 105.323 138.212 105.323 112.169C105.323 86.1261 84.2117 65.0147 58.1689 65.0146Z" fill="#D92228"/>
<path opacity="0.39" d="M58.1689 65.0144C84.2117 65.0144 105.323 86.126 105.323 112.169C105.323 138.212 84.2117 159.324 58.1689 159.324C32.1261 159.324 11.0146 138.212 11.0146 112.169C11.0148 86.126 32.1262 65.0144 58.1689 65.0144ZM58.1689 73.9431C37.0574 73.9431 19.9435 91.0572 19.9434 112.169C19.9434 133.28 37.0573 150.395 58.1689 150.395C79.2806 150.395 96.3945 133.28 96.3945 112.169C96.3944 91.0572 79.2805 73.9431 58.1689 73.9431Z" fill="#D92228"/>
<path d="M124.112 137.045C123.308 136.844 122.494 137.333 122.293 138.136C122.092 138.94 122.581 139.754 123.384 139.955L123.748 138.5L124.112 137.045ZM193.053 108.26C192.644 107.539 191.728 107.287 191.008 107.695L179.267 114.359C178.546 114.768 178.294 115.684 178.703 116.404C179.112 117.125 180.027 117.377 180.748 116.968L191.184 111.045L197.107 121.481C197.516 122.202 198.432 122.454 199.152 122.045C199.873 121.636 200.125 120.721 199.716 120L193.053 108.26ZM123.748 138.5L123.384 139.955C132.89 142.332 147.759 143.691 161.536 139.999C175.386 136.288 188.22 127.43 193.194 109.399L191.748 109L190.302 108.601C185.676 125.37 173.843 133.595 160.76 137.101C147.604 140.626 133.273 139.335 124.112 137.045L123.748 138.5Z" fill="black"/>
<path d="M158.085 5.56312C158.085 2.49069 160.576 0 163.648 0H304.522C307.594 0 310.085 2.4907 310.085 5.56312V92.8497C310.085 95.9221 307.594 98.4128 304.522 98.4128H163.648C160.576 98.4128 158.085 95.9221 158.085 92.8497V5.56312Z" fill="#D9D9D9"/>
<rect x="167.82" y="11.8215" width="133" height="10" rx="5" fill="#1A1816"/>
<rect x="167.82" y="28.0801" width="132.529" height="9.73547" rx="4.86773" fill="#1A1816"/>
<rect x="167.82" y="44.0742" width="133" height="10" rx="5" fill="#1A1816"/>
<rect x="167.82" y="60.3325" width="133" height="10" rx="5" fill="#1A1816"/>
<rect x="167.82" y="76.5911" width="133" height="10" rx="5" fill="#1A1816"/>
</svg>
