<svg width="160" height="236" viewBox="0 0 160 236" fill="none" xmlns="http://www.w3.org/2000/svg">
<g clip-path="url(#clip0_122_12732)">
<rect width="160" height="236" fill="#F8F7F7"/>
<path d="M-0.463379 0H132.515V192H-0.463379V0Z" fill="#F8F7F7"/>
<line x1="134.452" y1="-6.59229" x2="134.452" y2="190.178" stroke="black" stroke-opacity="0.39" stroke-width="0.103004"/>
<line x1="106.394" y1="-5.6814" x2="106.394" y2="191.089" stroke="black" stroke-opacity="0.39" stroke-width="0.103004"/>
<line x1="81.2512" y1="-4.77026" x2="81.2512" y2="192" stroke="black" stroke-opacity="0.39" stroke-width="0.103004"/>
<path d="M262.848 95.2547L66.0776 95.2547" stroke="black" stroke-opacity="0.39" stroke-width="0.103004"/>
<line x1="262.848" y1="38.8257" x2="66.0776" y2="38.8257" stroke="black" stroke-opacity="0.39" stroke-width="0.103004"/>
<line x1="262.848" y1="66.5193" x2="66.0776" y2="66.5193" stroke="black" stroke-opacity="0.39" stroke-width="0.103004"/>
<rect x="70.6152" y="57" width="54.0661" height="54.0661" rx="27.0331" fill="#0F0F0F"/>
<rect x="6" y="57" width="54.0661" height="54.0661" rx="27.0331" fill="#BEB8B0"/>
<path d="M6 144.034C6 128.74 18.3983 116.341 33.6924 116.341V116.341C48.9865 116.341 61.3848 128.74 61.3848 144.034V173.045H6V144.034Z" fill="#D92229"/>
<path d="M70.6152 144.034C70.6152 128.74 83.0136 116.341 98.3076 116.341V116.341C113.602 116.341 126 128.74 126 144.034V173.045H70.6152V144.034Z" fill="#D92229"/>
</g>
<defs>
<clipPath id="clip0_122_12732">
<rect width="160" height="236" fill="white"/>
</clipPath>
</defs>
</svg>
