<svg width="321" height="168" viewBox="0 0 321 168" fill="none" xmlns="http://www.w3.org/2000/svg">
<path d="M33.6934 167.776C33.753 137.612 58.3296 113.177 88.6384 113.177C118.947 113.177 143.524 137.612 143.583 167.776L33.6934 167.776Z" fill="#D92228"/>
<path d="M40.6055 53.8501C45.6445 24.1095 73.918 4.06746 103.811 9.07134C133.704 14.0753 153.909 42.2326 148.988 71.993L40.6055 53.8501Z" fill="#D92228"/>
<path d="M20.0186 135.496C9.01487 107.41 22.9215 75.6658 51.1198 64.5535C79.3182 53.4414 111.142 67.1644 122.257 95.2066L20.0186 135.496Z" fill="#1A1816"/>
<path d="M158.442 157.045C157.638 156.844 156.824 157.332 156.623 158.136C156.422 158.94 156.911 159.754 157.714 159.955L158.078 158.5L158.442 157.045ZM227.383 128.259C226.974 127.539 226.058 127.286 225.338 127.695L213.597 134.359C212.876 134.768 212.624 135.683 213.033 136.404C213.442 137.124 214.357 137.377 215.078 136.968L225.514 131.045L231.437 141.481C231.846 142.201 232.762 142.454 233.482 142.045C234.203 141.636 234.455 140.721 234.046 140L227.383 128.259ZM158.078 158.5L157.714 159.955C167.22 162.331 182.089 163.69 195.866 159.999C209.716 156.288 222.55 147.43 227.524 129.399L226.078 129L224.632 128.601C220.006 145.37 208.173 153.595 195.09 157.101C181.934 160.626 167.603 159.335 158.442 157.045L158.078 158.5Z" fill="black"/>
<path d="M157.508 8C157.508 3.58172 161.09 0 165.508 0H312.508C316.926 0 320.508 3.58172 320.508 8V86C320.508 90.4183 316.926 94 312.508 94H165.508C161.09 94 157.508 90.4183 157.508 86V8Z" fill="#D9D9D9"/>
<rect x="171.754" y="43" width="111" height="14" rx="7" fill="#1A1816"/>
<rect x="182.754" y="69" width="130" height="14" rx="7" fill="#D92228"/>
<rect x="231.754" y="17" width="81" height="14" rx="7" fill="#D92228"/>
</svg>
