<svg width="380" height="247" viewBox="0 0 380 247" fill="none" xmlns="http://www.w3.org/2000/svg">
<path d="M254.703 167.776C254.763 137.612 279.339 113.177 309.648 113.177C339.957 113.177 364.534 137.612 364.593 167.776L254.703 167.776Z" fill="#D92228"/>
<path d="M261.615 53.8501C266.654 24.1095 294.928 4.06746 324.821 9.07134C354.714 14.0753 374.919 42.2326 369.997 71.993L261.615 53.8501Z" fill="#D92228"/>
<path d="M241.027 135.496C230.024 107.41 243.93 75.6658 272.129 64.5535C300.327 53.4414 332.151 67.1644 343.265 95.2066L241.027 135.496Z" fill="#1A1816"/>
<path d="M233.376 205.765C232.572 205.564 231.757 206.052 231.557 206.856C231.356 207.66 231.844 208.474 232.648 208.675L233.012 207.22L233.376 205.765ZM302.316 176.979C301.907 176.259 300.992 176.006 300.271 176.415L288.531 183.079C287.81 183.488 287.558 184.403 287.966 185.124C288.375 185.844 289.291 186.097 290.011 185.688L300.448 179.765L306.371 190.201C306.78 190.921 307.695 191.174 308.416 190.765C309.136 190.356 309.389 189.441 308.98 188.72L302.316 176.979ZM233.012 207.22L232.648 208.675C242.154 211.051 257.022 212.41 270.8 208.719C284.65 205.008 297.484 196.15 302.458 178.119L301.012 177.72L299.566 177.321C294.94 194.09 283.107 202.315 270.023 205.821C256.868 209.346 242.536 208.055 233.376 205.765L233.012 207.22Z" fill="black"/>
<path d="M0 160.502C0 156.084 3.58172 152.502 8 152.502H217C221.418 152.502 225 156.084 225 160.502V238.502C225 242.92 221.418 246.502 217 246.502H8C3.58172 246.502 0 242.92 0 238.502V160.502Z" fill="#D9D9D9"/>
<rect x="14.2461" y="195.502" width="111" height="14" rx="7" fill="#1A1816"/>
<rect x="14.2461" y="221.502" width="141" height="14" rx="7" fill="#D92228"/>
<rect x="14.2461" y="169.502" width="81" height="14" rx="7" fill="#D92228"/>
</svg>
