<svg width="340" height="152" viewBox="0 0 340 152" fill="none" xmlns="http://www.w3.org/2000/svg">
<path d="M340 15.0001L9.53672e-06 15.0001" stroke="black" stroke-opacity="0.2" stroke-width="0.375"/>
<line x1="340" y1="73.8545" x2="-4.23756e-08" y2="73.8545" stroke="black" stroke-opacity="0.2" stroke-width="0.375"/>
<line x1="340" y1="132.521" x2="-4.23756e-08" y2="132.521" stroke="black" stroke-opacity="0.2" stroke-width="0.375"/>
<path d="M169 0L169 151.5" stroke="black" stroke-opacity="0.2" stroke-width="0.375"/>
<path d="M215.356 114.532H193.938L188.219 99.6859H153.903L148.183 114.532H126.644L160.717 33H181.283L215.356 114.532ZM181.526 82.406L171.061 55.6343L160.717 82.406H181.526Z" fill="#1A1816"/>
<rect x="178" y="29" width="7.34426" height="7.34426" fill="#D92228"/>
<rect x="157" y="29" width="7.34426" height="7.34426" fill="#D92228"/>
<path d="M282.712 114.532H261.294L255.575 99.6859H221.258L215.539 114.532H194L228.073 33H248.639L282.712 114.532ZM248.882 82.406L238.417 55.6343L228.073 82.406H248.882Z" fill="#1A1816"/>
<rect x="192" y="111" width="7.34426" height="7.34426" fill="#D92228"/>
<rect x="211" y="111" width="7.34426" height="7.34426" fill="#D92228"/>
<rect x="279" y="111" width="7.34426" height="7.34426" fill="#D92228"/>
<rect x="245.356" y="29" width="7.34426" height="7.34426" fill="#D92228"/>
<rect x="224.356" y="29" width="7.34426" height="7.34426" fill="#D92228"/>
<path d="M146.712 114.532H125.294L119.575 99.6859H85.2585L79.5391 114.532H58L92.0731 33H112.639L146.712 114.532ZM112.882 82.406L102.417 55.6343L92.0731 82.406H112.882Z" fill="#1A1816"/>
<rect x="54" y="111" width="7.34426" height="7.34426" fill="#D92228"/>
<rect x="144" y="111" width="7.34426" height="7.34426" fill="#D92228"/>
<rect x="123" y="111" width="7.34426" height="7.34426" fill="#D92228"/>
<rect x="108" y="29" width="7.34426" height="7.34426" fill="#D92228"/>
<rect x="88" y="29" width="7.34426" height="7.34426" fill="#D92228"/>
</svg>
