<svg width="340" height="152" viewBox="0 0 340 152" fill="none" xmlns="http://www.w3.org/2000/svg">
<path d="M340 15.0001L9.53672e-06 15.0001" stroke="black" stroke-opacity="0.2" stroke-width="0.375"/>
<line x1="340" y1="73.8545" x2="-4.23756e-08" y2="73.8545" stroke="black" stroke-opacity="0.2" stroke-width="0.375"/>
<line x1="340" y1="132.521" x2="-4.23756e-08" y2="132.521" stroke="black" stroke-opacity="0.2" stroke-width="0.375"/>
<path d="M169 0L169 151.5" stroke="black" stroke-opacity="0.2" stroke-width="0.375"/>
<path d="M248.356 114.532H226.938L221.219 99.6859H186.903L181.183 114.532H159.644L193.717 33H214.283L248.356 114.532ZM214.526 82.406L204.061 55.6343L193.717 82.406H214.526Z" fill="#1A1816"/>
<rect x="211" y="78" width="7.34426" height="7.34426" fill="#D92228"/>
<rect x="190" y="78" width="7.34426" height="7.34426" fill="#D92228"/>
<path d="M179.712 114.532H158.294L152.575 99.6859H118.258L112.539 114.532H91L125.073 33H145.639L179.712 114.532ZM145.882 82.406L135.417 55.6343L125.073 82.406H145.882Z" fill="#1A1816"/>
<rect x="142.356" y="78" width="7.34426" height="7.34426" fill="#D92228"/>
<rect x="156" y="111" width="7.34426" height="7.34426" fill="#D92228"/>
<rect x="180" y="111" width="7.34426" height="7.34426" fill="#D92228"/>
<rect x="121.356" y="78" width="7.34426" height="7.34426" fill="#D92228"/>
</svg>
