<svg width="80" height="80" viewBox="0 0 80 80" fill="none" xmlns="http://www.w3.org/2000/svg">
<g clip-path="url(#clip0_71_12582)">
<path d="M0 10C0 4.47715 4.47715 0 10 0H70C75.5229 0 80 4.47715 80 10V70C80 75.5229 75.5229 80 70 80H10C4.47715 80 0 75.5229 0 70V10Z" fill="white"/>
<path d="M-4.40625 -23.821H84.475V104.509H-4.40625V-23.821Z" fill="white"/>
<line x1="27.2446" y1="-27.6077" x2="27.2446" y2="103.911" stroke="black" stroke-opacity="0.2" stroke-width="0.375"/>
<line x1="52.9246" y1="-27.6184" x2="52.9246" y2="103.9" stroke="black" stroke-opacity="0.2" stroke-width="0.375"/>
<path d="M115.409 40.3443L-16.1097 40.3443" stroke="black" stroke-opacity="0.2" stroke-width="0.375"/>
<line x1="115.409" y1="65.936" x2="-16.1097" y2="65.936" stroke="black" stroke-opacity="0.2" stroke-width="0.375"/>
<line x1="115.409" y1="14.7832" x2="-16.1097" y2="14.7832" stroke="black" stroke-opacity="0.2" stroke-width="0.375"/>
<path d="M11.6665 11H28.8748V24.7804L11.6665 35.977V11Z" fill="black"/>
<path d="M67.6663 11H50.4579V24.7804L67.6663 35.977V11Z" fill="black"/>
<path d="M64.7033 39.4443L50.5023 30.3103L43.2223 25.6267C41.0579 24.2345 38.2614 24.2345 36.0969 25.6267L28.7276 30.3677L14.616 39.4443C12.6663 40.6997 11.7438 42.5785 11.6665 44.4692V69.5683H28.7293V52.3461H50.5023V69.5683H67.6545V44.4692C67.5772 42.5802 66.6547 40.6997 64.7016 39.4443H64.7033Z" fill="#D92229"/>
</g>
<path d="M10 0.625H70C75.1777 0.625 79.375 4.82233 79.375 10V70C79.375 75.1777 75.1777 79.375 70 79.375H10C4.82233 79.375 0.625 75.1777 0.625 70V10C0.625 4.82233 4.82233 0.625 10 0.625Z" stroke="#D3CFCA" stroke-width="1.25"/>
<defs>
<clipPath id="clip0_71_12582">
<path d="M0 10C0 4.47715 4.47715 0 10 0H70C75.5229 0 80 4.47715 80 10V70C80 75.5229 75.5229 80 70 80H10C4.47715 80 0 75.5229 0 70V10Z" fill="white"/>
</clipPath>
</defs>
</svg>
