<svg width="314" height="188" viewBox="0 0 314 188" fill="none" xmlns="http://www.w3.org/2000/svg">
<path fill-rule="evenodd" clip-rule="evenodd" d="M28.2 47C12.6256 47 0 59.6256 0 75.2V159.8C0 175.374 12.6256 188 28.2 188H112.8C128.374 188 141 175.374 141 159.8V75.2C141 59.6256 128.374 47 112.8 47H28.2ZM56.4 96.35C56.4 104.137 50.0872 110.45 42.3 110.45C34.5128 110.45 28.2 104.137 28.2 96.35C28.2 88.5628 34.5128 82.25 42.3 82.25C50.0872 82.25 56.4 88.5628 56.4 96.35ZM113.655 118.356L126.9 131.6V159.8C126.9 167.587 120.587 173.9 112.8 173.9H28.2L83.7447 118.356C92.0043 110.096 105.396 110.096 113.655 118.356Z" fill="#D92228"/>
<path d="M151 8C151 3.58172 154.582 0 159 0H306C310.418 0 314 3.58172 314 8V86C314 90.4183 310.418 94 306 94H159C154.582 94 151 90.4183 151 86V8Z" fill="#1A1816"/>
<rect x="165" y="17" width="42" height="14" rx="7" fill="#D9D9D9"/>
<rect x="165" y="40" width="135" height="14" rx="7" fill="#D9D9D9"/>
<rect x="165" y="63" width="141" height="14" rx="7" fill="#D9D9D9"/>
<path d="M152.864 136.045C152.06 135.844 151.246 136.333 151.045 137.136C150.844 137.94 151.333 138.754 152.136 138.955L152.5 137.5L152.864 136.045ZM221.805 107.26C221.396 106.539 220.48 106.287 219.76 106.695L208.019 113.359C207.298 113.768 207.046 114.684 207.455 115.404C207.864 116.125 208.779 116.377 209.5 115.968L219.936 110.045L225.859 120.481C226.268 121.202 227.184 121.454 227.904 121.045C228.625 120.636 228.877 119.721 228.468 119L221.805 107.26ZM152.5 137.5L152.136 138.955C161.642 141.332 176.511 142.691 190.288 138.999C204.138 135.288 216.972 126.43 221.946 108.399L220.5 108L219.054 107.601C214.428 124.37 202.595 132.595 189.512 136.101C176.356 139.626 162.025 138.335 152.864 136.045L152.5 137.5Z" fill="black"/>
</svg>
