<svg width="321" height="186" viewBox="0 0 321 186" fill="none" xmlns="http://www.w3.org/2000/svg">
<rect width="190" height="122" rx="20" transform="matrix(1 0 0 -1 0 186)" fill="#D92228"/>
<circle cx="95.0386" cy="124.07" r="30.0698" fill="#F8F7F7"/>
<path d="M103.635 121.115C105.197 122.113 105.197 124.394 103.635 125.391L90.5877 133.727C88.8988 134.806 86.6846 133.593 86.6846 131.589L86.6846 114.917C86.6846 112.913 88.8988 111.7 90.5877 112.779L103.635 121.115Z" fill="#1A1816"/>
<path d="M157.938 8C157.938 3.58172 161.519 0 165.938 0H312.938C317.356 0 320.938 3.58172 320.938 8V86C320.938 90.4183 317.356 94 312.938 94H165.938C161.519 94 157.938 90.4183 157.938 86V8Z" fill="#1A1816"/>
<rect x="171.938" y="17" width="42" height="14" rx="7" fill="#D9D9D9"/>
<rect x="171.938" y="40" width="135" height="14" rx="7" fill="#D9D9D9"/>
<rect x="171.938" y="63" width="141" height="14" rx="7" fill="#D9D9D9"/>
<path d="M197.333 136.045C196.529 135.844 195.714 136.333 195.514 137.136C195.313 137.94 195.801 138.754 196.605 138.955L196.969 137.5L197.333 136.045ZM266.273 107.26C265.864 106.539 264.949 106.287 264.228 106.695L252.488 113.359C251.767 113.768 251.515 114.684 251.923 115.404C252.332 116.125 253.248 116.377 253.968 115.968L264.405 110.045L270.328 120.481C270.737 121.202 271.652 121.454 272.373 121.045C273.093 120.636 273.346 119.721 272.937 119L266.273 107.26ZM196.969 137.5L196.605 138.955C206.111 141.332 220.979 142.691 234.757 138.999C248.607 135.288 261.441 126.43 266.415 108.399L264.969 108L263.523 107.601C258.897 124.37 247.064 132.595 233.981 136.101C220.825 139.626 206.493 138.335 197.333 136.045L196.969 137.5Z" fill="black"/>
</svg>
