<svg width="305" height="234" viewBox="0 0 305 234" fill="none" xmlns="http://www.w3.org/2000/svg">
<path d="M0 125.903C0 120.361 4.49206 115.869 10.0333 115.869H194.395C199.936 115.869 204.428 120.361 204.428 125.903V223.727C204.428 229.268 199.936 233.76 194.395 233.76H10.0333C4.49205 233.76 0 229.268 0 223.727V125.903Z" fill="#D9D9D9"/>
<rect x="17.8672" y="169.798" width="139.212" height="17.5583" rx="8.77913" fill="#1A1816"/>
<rect x="31.6631" y="202.407" width="163.041" height="17.5583" rx="8.77913" fill="#D92228"/>
<rect x="93.1162" y="137.19" width="101.587" height="17.5583" rx="8.77913" fill="#D92228"/>
<path fill-rule="evenodd" clip-rule="evenodd" d="M249.703 100.833C275.016 100.833 295.537 80.3131 295.537 55.0001C295.537 29.687 275.016 9.16675 249.703 9.16675C224.39 9.16675 203.87 29.687 203.87 55.0001C203.87 80.3131 224.39 100.833 249.703 100.833ZM254.287 32.0834C254.287 29.5521 252.235 27.5001 249.703 27.5001C247.172 27.5001 245.12 29.5521 245.12 32.0834V55.0001C245.12 57.5314 247.172 59.5834 249.703 59.5834H268.037C270.568 59.5834 272.62 57.5314 272.62 55.0001C272.62 52.4688 270.568 50.4167 268.037 50.4167H254.287V32.0834Z" fill="#1A1816"/>
<path d="M175.572 108.894C175.993 109.608 175.756 110.528 175.042 110.948C174.328 111.369 173.409 111.131 172.988 110.418L174.28 109.656L175.572 108.894ZM198.807 61.144C199.546 61.5199 199.839 62.4231 199.463 63.1613L193.338 75.1916C192.962 75.9298 192.059 76.2235 191.32 75.8476C190.582 75.4717 190.289 74.5685 190.664 73.8303L196.109 63.1368L185.416 57.6918C184.678 57.3159 184.384 56.4127 184.76 55.6744C185.136 54.9362 186.039 54.6425 186.777 55.0184L198.807 61.144ZM174.28 109.656L172.988 110.418C169.598 104.667 166.741 95.2741 169.316 85.77C171.92 76.1552 179.976 66.8063 197.663 61.0542L198.127 62.4807L198.591 63.9071C181.603 69.4318 174.486 78.1574 172.211 86.5544C169.907 95.0622 172.463 103.619 175.572 108.894L174.28 109.656Z" fill="black"/>
</svg>
