<svg width="693" height="446" viewBox="0 0 693 446" fill="none" xmlns="http://www.w3.org/2000/svg">
<path d="M54.7915 26.416C57.7675 26.416 60.3275 24.784 61.1275 21.04L65.3515 21.904C64.2955 27.408 59.9435 30.48 54.7915 30.48C48.4875 30.48 43.5275 25.584 43.5275 19.28C43.5275 13.008 48.4875 8.08 54.7915 8.08C59.9435 8.08 64.2635 11.184 65.3515 16.336L61.1275 17.52C60.3275 13.808 57.7675 12.176 54.7915 12.176C50.9515 12.176 47.9115 15.216 47.9115 19.28C47.9115 23.344 50.9515 26.416 54.7915 26.416ZM76.0465 13.648C80.7185 13.648 84.6545 17.008 84.6545 22.032C84.6545 27.056 80.7185 30.416 76.0465 30.416C71.2785 30.416 67.3425 27.056 67.3425 22.032C67.3425 17.008 71.2785 13.648 76.0465 13.648ZM76.0465 26.8C78.2545 26.8 80.5585 25.008 80.5585 22.032C80.5585 19.056 78.2545 17.264 76.0465 17.264C73.7425 17.264 71.4385 19.056 71.4385 22.032C71.4385 25.008 73.7425 26.8 76.0465 26.8ZM96.8493 13.552C100.689 13.552 103.249 16.304 103.249 20.272V30H99.0253V21.168C99.0253 18.928 97.7453 17.424 95.7933 17.424C93.3933 17.424 91.8253 19.024 91.8253 22.928V30H87.6013V14.032H91.8253V15.472C93.0733 14.224 94.7373 13.552 96.8493 13.552ZM117.48 25.776L118.696 29.296C117.032 30.192 115.88 30.48 114.536 30.48C110.76 30.48 108.264 28.496 108.264 24.112V17.488H104.84V14.032H108.264V8.56H112.488V14.032H117.704V17.488H112.488V23.792C112.488 25.712 113.416 26.544 114.824 26.544C115.56 26.544 116.648 26.224 117.48 25.776ZM130.667 13.808C131.083 13.808 131.403 13.808 131.787 13.936L131.563 18H130.635C126.731 18 124.939 20.4 124.939 24.848V30H120.715V14.032H124.939V16.944C126.219 15.088 128.075 13.808 130.667 13.808ZM140.413 13.552C144.637 13.552 147.421 15.696 147.421 19.568V30H143.389V28.688C142.301 29.744 140.701 30.48 138.525 30.48C134.877 30.48 132.445 28.4 132.445 25.264C132.445 22.192 134.749 20.144 138.781 20.144H143.389V19.888C143.389 18.288 142.301 17.2 140.669 17.2C138.749 17.2 137.661 17.936 137.341 19.536L133.309 18.736C133.917 15.632 136.765 13.552 140.413 13.552ZM139.197 27.12C141.437 27.12 143.389 25.584 143.389 23.536V23.344H138.717C137.373 23.344 136.477 24.08 136.477 25.168C136.477 26.352 137.565 27.12 139.197 27.12ZM149.61 25.776L153.866 24.912C154.09 26.544 155.498 27.088 157.162 27.088C158.73 27.088 159.658 26.384 159.658 25.488C159.658 24.912 159.274 24.336 157.898 24.048L154.634 23.376C151.754 22.768 150.122 21.136 150.122 18.832C150.122 15.76 152.618 13.552 156.65 13.552C160.426 13.552 163.05 15.504 163.594 18.288L159.562 19.088C159.402 17.808 158.282 16.88 156.522 16.88C154.826 16.88 154.346 17.712 154.346 18.448C154.346 18.96 154.538 19.504 155.786 19.792L159.594 20.624C162.41 21.232 163.786 22.992 163.786 25.136C163.786 28.656 160.938 30.48 156.778 30.48C153.258 30.48 150.026 29.104 149.61 25.776ZM177.208 25.776L178.424 29.296C176.76 30.192 175.608 30.48 174.264 30.48C170.488 30.48 167.992 28.496 167.992 24.112V17.488H164.568V14.032H167.992V8.56H172.216V14.032H177.432V17.488H172.216V23.792C172.216 25.712 173.144 26.544 174.552 26.544C175.288 26.544 176.376 26.224 177.208 25.776ZM197.936 13.808C198.352 13.808 198.672 13.808 199.056 13.936L198.832 18H197.904C194 18 192.208 20.4 192.208 24.848V30H187.984V14.032H192.208V16.944C193.488 15.088 195.344 13.808 197.936 13.808ZM207.682 13.552C211.906 13.552 214.69 15.696 214.69 19.568V30H210.658V28.688C209.57 29.744 207.97 30.48 205.794 30.48C202.146 30.48 199.714 28.4 199.714 25.264C199.714 22.192 202.018 20.144 206.05 20.144H210.658V19.888C210.658 18.288 209.57 17.2 207.938 17.2C206.018 17.2 204.93 17.936 204.61 19.536L200.578 18.736C201.186 15.632 204.034 13.552 207.682 13.552ZM206.466 27.12C208.706 27.12 210.658 25.584 210.658 23.536V23.344H205.986C204.642 23.344 203.746 24.08 203.746 25.168C203.746 26.352 204.834 27.12 206.466 27.12ZM228.622 25.776L229.838 29.296C228.174 30.192 227.022 30.48 225.678 30.48C221.902 30.48 219.406 28.496 219.406 24.112V17.488H215.982V14.032H219.406V8.56H223.63V14.032H228.846V17.488H223.63V23.792C223.63 25.712 224.558 26.544 225.966 26.544C226.702 26.544 227.79 26.224 228.622 25.776ZM234.193 6.736C235.665 6.736 236.753 7.92 236.753 9.264C236.753 10.672 235.665 11.728 234.193 11.728C232.689 11.728 231.633 10.672 231.633 9.264C231.633 7.92 232.689 6.736 234.193 6.736ZM236.305 30H232.081V14.032H236.305V30ZM248.198 13.648C252.87 13.648 256.806 17.008 256.806 22.032C256.806 27.056 252.87 30.416 248.198 30.416C243.43 30.416 239.494 27.056 239.494 22.032C239.494 17.008 243.43 13.648 248.198 13.648ZM248.198 26.8C250.406 26.8 252.71 25.008 252.71 22.032C252.71 19.056 250.406 17.264 248.198 17.264C245.894 17.264 243.59 19.056 243.59 22.032C243.59 25.008 245.894 26.8 248.198 26.8Z" fill="#1A1816"/>
<path d="M446.2 30H441.496L439.64 25.424H430.168L428.28 30H423.576L432.856 8.56H436.92L446.2 30ZM438.008 21.488L434.904 13.84L431.768 21.488H438.008ZM458.133 25.776L459.349 29.296C457.685 30.192 456.533 30.48 455.189 30.48C451.413 30.48 448.917 28.496 448.917 24.112V17.488H445.493V14.032H448.917V8.56H453.141V14.032H458.357V17.488H453.141V23.792C453.141 25.712 454.069 26.544 455.477 26.544C456.213 26.544 457.301 26.224 458.133 25.776ZM479.309 25.776L480.525 29.296C478.861 30.192 477.709 30.48 476.365 30.48C472.589 30.48 470.093 28.496 470.093 24.112V17.488H466.669V14.032H470.093V8.56H474.317V14.032H479.533V17.488H474.317V23.792C474.317 25.712 475.245 26.544 476.653 26.544C477.389 26.544 478.477 26.224 479.309 25.776ZM491.792 13.552C495.632 13.552 498.192 16.304 498.192 20.272V30H493.968V21.168C493.968 18.928 492.688 17.424 490.736 17.424C488.336 17.424 486.768 19.024 486.768 22.928V30H482.544V5.36H486.768V15.472C488.016 14.224 489.68 13.552 491.792 13.552ZM504.39 6.736C505.862 6.736 506.95 7.92 506.95 9.264C506.95 10.672 505.862 11.728 504.39 11.728C502.886 11.728 501.83 10.672 501.83 9.264C501.83 7.92 502.886 6.736 504.39 6.736ZM506.502 30H502.278V14.032H506.502V30ZM509.626 25.776L513.882 24.912C514.106 26.544 515.514 27.088 517.178 27.088C518.746 27.088 519.674 26.384 519.674 25.488C519.674 24.912 519.29 24.336 517.914 24.048L514.65 23.376C511.77 22.768 510.138 21.136 510.138 18.832C510.138 15.76 512.634 13.552 516.666 13.552C520.442 13.552 523.066 15.504 523.61 18.288L519.578 19.088C519.418 17.808 518.298 16.88 516.538 16.88C514.842 16.88 514.362 17.712 514.362 18.448C514.362 18.96 514.554 19.504 515.802 19.792L519.61 20.624C522.426 21.232 523.802 22.992 523.802 25.136C523.802 28.656 520.954 30.48 516.794 30.48C513.274 30.48 510.042 29.104 509.626 25.776ZM539.421 14.032H544.253V17.488H539.421V30H535.197V17.488H532.765V14.032H535.197V11.088C535.197 7.344 537.757 5.04 541.501 5.04C542.525 5.04 543.453 5.232 544.349 5.648L543.389 9.072C542.813 8.88 542.237 8.784 541.789 8.784C540.413 8.784 539.421 9.584 539.421 11.088V14.032ZM553.361 13.648C558.033 13.648 561.969 17.008 561.969 22.032C561.969 27.056 558.033 30.416 553.361 30.416C548.593 30.416 544.657 27.056 544.657 22.032C544.657 17.008 548.593 13.648 553.361 13.648ZM553.361 26.8C555.569 26.8 557.873 25.008 557.873 22.032C557.873 19.056 555.569 17.264 553.361 17.264C551.057 17.264 548.753 19.056 548.753 22.032C548.753 25.008 551.057 26.8 553.361 26.8ZM574.164 13.552C578.004 13.552 580.564 16.304 580.564 20.272V30H576.34V21.168C576.34 18.928 575.06 17.424 573.108 17.424C570.708 17.424 569.14 19.024 569.14 22.928V30H564.916V14.032H569.14V15.472C570.388 14.224 572.052 13.552 574.164 13.552ZM594.795 25.776L596.011 29.296C594.347 30.192 593.195 30.48 591.851 30.48C588.075 30.48 585.579 28.496 585.579 24.112V17.488H582.155V14.032H585.579V8.56H589.803V14.032H595.019V17.488H589.803V23.792C589.803 25.712 590.731 26.544 592.139 26.544C592.875 26.544 593.963 26.224 594.795 25.776ZM604.227 25.776L608.483 24.912C608.707 26.544 610.115 27.088 611.779 27.088C613.347 27.088 614.275 26.384 614.275 25.488C614.275 24.912 613.891 24.336 612.515 24.048L609.251 23.376C606.371 22.768 604.739 21.136 604.739 18.832C604.739 15.76 607.235 13.552 611.267 13.552C615.043 13.552 617.667 15.504 618.211 18.288L614.179 19.088C614.019 17.808 612.899 16.88 611.139 16.88C609.443 16.88 608.963 17.712 608.963 18.448C608.963 18.96 609.155 19.504 610.403 19.792L614.211 20.624C617.027 21.232 618.403 22.992 618.403 25.136C618.403 28.656 615.555 30.48 611.395 30.48C607.875 30.48 604.643 29.104 604.227 25.776ZM623.761 6.736C625.233 6.736 626.321 7.92 626.321 9.264C626.321 10.672 625.233 11.728 623.761 11.728C622.257 11.728 621.201 10.672 621.201 9.264C621.201 7.92 622.257 6.736 623.761 6.736ZM625.873 30H621.649V14.032H625.873V30ZM643.557 26.544V30H629.381V27.248L637.957 17.488H629.605V14.032H643.173V16.848L634.597 26.544H643.557ZM661.455 21.712V23.152H649.295C649.711 25.456 651.343 26.864 653.295 26.864C654.543 26.864 656.111 26.704 657.263 24.752L661.039 25.552C659.631 28.88 656.783 30.48 653.295 30.48C648.783 30.48 645.103 27.056 645.103 22.032C645.103 17.008 648.783 13.552 653.359 13.552C657.615 13.552 661.295 16.848 661.455 21.712ZM653.359 17.232C651.759 17.232 649.935 18.192 649.423 20.176H657.135C656.591 18.128 655.055 17.232 653.359 17.232Z" fill="#1A1816"/>
<mask id="path-3-inside-1_436_22013" fill="white">
<path d="M0 71.9967C0 63.7143 6.71426 57 14.9967 57H285.003C293.286 57 300 63.7143 300 71.9967V222.003C300 230.286 293.286 237 285.003 237H14.9967C6.71424 237 0 230.286 0 222.003V71.9967Z"/>
</mask>
<path d="M0 71.9967C0 63.7143 6.71426 57 14.9967 57H285.003C293.286 57 300 63.7143 300 71.9967V222.003C300 230.286 293.286 237 285.003 237H14.9967C6.71424 237 0 230.286 0 222.003V71.9967Z" fill="white"/>
<path d="M14.9967 57V58.8746H285.003V57V55.1254H14.9967V57ZM300 71.9967H298.125V222.003H300H301.875V71.9967H300ZM285.003 237V235.125H14.9967V237V238.875H285.003V237ZM0 222.003H1.87459V71.9967H0H-1.87459V222.003H0ZM14.9967 237V235.125C7.74955 235.125 1.87459 229.25 1.87459 222.003H0H-1.87459C-1.87459 231.321 5.67893 238.875 14.9967 238.875V237ZM300 222.003H298.125C298.125 229.25 292.25 235.125 285.003 235.125V237V238.875C294.321 238.875 301.875 231.321 301.875 222.003H300ZM285.003 57V58.8746C292.25 58.8746 298.125 64.7496 298.125 71.9967H300H301.875C301.875 62.679 294.321 55.1254 285.003 55.1254V57ZM14.9967 57V55.1254C5.67895 55.1254 -1.87459 62.679 -1.87459 71.9967H0H1.87459C1.87459 64.7496 7.74957 58.8746 14.9967 58.8746V57Z" fill="#D3CFCA" mask="url(#path-3-inside-1_436_22013)"/>
<path d="M104.936 166.828H96.2233V181H82.3664V166.828H45.0995V153.706L77.3275 110.665H96.2233V155.281H104.936V166.828ZM82.3664 155.281V124.522L60.7411 155.281H82.3664ZM120.18 165.358C125.009 165.358 128.473 169.138 128.473 173.442C128.473 177.956 125.009 181.42 120.18 181.42C115.351 181.42 111.887 177.956 111.887 173.442C111.887 169.138 115.351 165.358 120.18 165.358ZM153.697 135.545H164.405C178.787 135.545 188.445 144.363 188.445 158.22C188.445 172.392 178.262 182.575 162.516 182.575C148.449 182.575 136.376 174.281 136.376 158.22L150.128 155.491C150.128 165.463 155.902 169.767 162.83 169.767C169.969 169.767 174.798 165.253 174.798 158.43C174.798 152.341 170.179 148.247 163.355 148.247H139.84L140.995 110.665H185.191V123.578H154.222L153.697 135.545ZM205.167 130.086C209.995 130.086 213.46 133.865 213.46 138.169C213.46 142.683 209.995 146.148 205.167 146.148C200.338 146.148 196.873 142.683 196.873 138.169C196.873 133.865 200.338 130.086 205.167 130.086ZM205.167 165.358C209.995 165.358 213.46 169.138 213.46 173.442C213.46 177.956 209.995 181.42 205.167 181.42C200.338 181.42 196.873 177.956 196.873 173.442C196.873 169.138 200.338 165.358 205.167 165.358ZM248.657 110.665V181H234.8V127.357L217.478 136.28V123.578L239.838 110.665H248.657Z" fill="#1A1816"/>
<mask id="path-6-inside-2_436_22013" fill="white">
<path d="M393 71.9967C393 63.7143 399.714 57 407.997 57H678.003C686.286 57 693 63.7143 693 71.9967V222.003C693 230.286 686.286 237 678.003 237H407.997C399.714 237 393 230.286 393 222.003V71.9967Z"/>
</mask>
<path d="M393 71.9967C393 63.7143 399.714 57 407.997 57H678.003C686.286 57 693 63.7143 693 71.9967V222.003C693 230.286 686.286 237 678.003 237H407.997C399.714 237 393 230.286 393 222.003V71.9967Z" fill="white"/>
<path d="M407.997 57V58.8746H678.003V57V55.1254H407.997V57ZM693 71.9967H691.125V222.003H693H694.875V71.9967H693ZM678.003 237V235.125H407.997V237V238.875H678.003V237ZM393 222.003H394.875V71.9967H393H391.125V222.003H393ZM407.997 237V235.125C400.75 235.125 394.875 229.25 394.875 222.003H393H391.125C391.125 231.321 398.679 238.875 407.997 238.875V237ZM693 222.003H691.125C691.125 229.25 685.25 235.125 678.003 235.125V237V238.875C687.321 238.875 694.875 231.321 694.875 222.003H693ZM678.003 57V58.8746C685.25 58.8746 691.125 64.7496 691.125 71.9967H693H694.875C694.875 62.679 687.321 55.1254 678.003 55.1254V57ZM407.997 57V55.1254C398.679 55.1254 391.125 62.679 391.125 71.9967H393H394.875C394.875 64.7496 400.75 58.8746 407.997 58.8746V57Z" fill="#D3CFCA" mask="url(#path-6-inside-2_436_22013)"/>
<path d="M435.806 122.21L426.912 118.444V115.783L438.825 120.976V123.443L426.912 128.605V126.008L435.806 122.21ZM456.662 110.751V132.5H454.162V113.835L448.352 117.081V114.711L455.071 110.751H456.662ZM472.161 121.366C475.44 122.21 476.868 124.515 476.868 126.754C476.868 130.422 473.687 132.922 468.915 132.922C464.111 132.922 460.897 130.422 460.897 126.754C460.897 124.45 462.39 122.21 465.604 121.366C462.78 120.489 461.514 118.412 461.514 116.075C461.514 112.634 464.435 110.329 468.915 110.329C473.362 110.329 476.284 112.634 476.284 116.075C476.284 118.379 475.018 120.489 472.161 121.366ZM464.013 116.269C464.013 118.574 465.961 120.1 468.883 120.1C471.837 120.1 473.784 118.509 473.784 116.237C473.784 113.9 471.674 112.439 468.883 112.439C466.091 112.439 464.013 113.9 464.013 116.269ZM468.883 130.715C471.837 130.715 474.076 129.157 474.076 126.625C474.076 124.222 472.031 122.534 468.883 122.534C465.799 122.534 463.721 124.19 463.721 126.657C463.721 129.189 465.864 130.715 468.883 130.715ZM489.954 116.107C494.206 116.107 497.939 119.451 497.939 124.515C497.939 129.578 494.206 132.922 489.954 132.922C487.227 132.922 484.987 131.786 483.592 129.838V140.291H481.124V116.497H483.592V119.191C484.987 117.243 487.227 116.107 489.954 116.107ZM489.564 130.715C492.875 130.715 495.537 128.313 495.537 124.515C495.537 120.684 492.875 118.282 489.564 118.282C486.546 118.282 483.592 120.684 483.592 124.515C483.592 128.313 486.546 130.715 489.564 130.715ZM509.914 124.612L516.016 132.5H513.03L508.096 126.105L503.162 132.5H500.175L506.278 124.612L500.175 116.497H503.162L508.096 123.086L513.03 116.497H516.016L509.914 124.612ZM530.107 121.626C530.107 125.975 531.373 129.708 535.333 133.636L533.58 135.162C529.166 131.104 527.445 126.56 527.445 121.626C527.445 116.691 529.166 112.147 533.58 108.089L535.333 109.647C531.373 113.543 530.107 117.276 530.107 121.626ZM548.887 116.334C549.277 116.334 549.569 116.334 550.023 116.464L549.829 118.834C549.536 118.801 549.179 118.801 548.887 118.801C544.635 118.801 542.46 122.015 542.46 126.332V132.5H539.96V116.497H542.46V120.424C543.758 118.055 545.933 116.334 548.887 116.334ZM567.598 124.093V125.001H553.867C554.094 128.605 556.821 130.747 559.58 130.747C561.853 130.747 563.898 129.871 565.034 127.306L567.241 127.826C565.975 131.169 563.183 132.922 559.58 132.922C555.328 132.922 551.465 129.643 551.465 124.547C551.465 119.418 555.328 116.107 559.743 116.107C564.06 116.107 567.436 119.321 567.598 124.093ZM559.743 118.282C557.146 118.282 554.451 120.002 553.965 123.151H565.099C564.644 120.002 562.404 118.282 559.743 118.282ZM587.205 116.497V133.182C587.205 137.694 583.472 140.615 578.798 140.615C574.805 140.615 572.175 139.057 570.942 136.46L573.052 134.87C574.156 137.012 575.779 138.213 578.798 138.213C582.044 138.213 584.705 136.136 584.738 132.857V129.838C583.342 131.786 581.102 132.922 578.376 132.922C574.123 132.922 570.39 129.578 570.39 124.515C570.39 119.451 574.123 116.107 578.376 116.107C581.102 116.107 583.342 117.243 584.738 119.191V116.497H587.205ZM578.765 130.715C581.784 130.715 584.738 128.313 584.738 124.515C584.738 120.684 581.784 118.282 578.765 118.282C575.454 118.282 572.792 120.684 572.792 124.515C572.792 128.313 575.454 130.715 578.765 130.715ZM607.507 116.497V132.468H605.007V129.871C603.709 131.786 601.631 132.89 598.969 132.89C595.106 132.89 592.542 130.13 592.542 126.073V116.497H595.042V125.618C595.042 128.605 596.794 130.585 599.456 130.585C602.8 130.585 605.007 128.345 605.007 124.19V116.497H607.507ZM615.655 132.5H613.188V107.505H615.655V132.5ZM627.502 116.107C631.495 116.107 634.124 118.25 634.124 122.112V132.5H631.722V130.065C630.488 131.721 628.476 132.922 625.717 132.922C622.211 132.922 619.906 130.909 619.906 128.02C619.906 125.099 622.146 123.021 626.333 123.021H631.722V122.275C631.722 119.775 630.099 118.282 627.632 118.282C625.197 118.282 623.509 119.483 623.152 121.496L620.782 120.976C621.302 118.087 623.996 116.107 627.502 116.107ZM626.074 130.877C629.19 130.877 631.722 128.702 631.722 125.813V124.969H626.301C623.672 124.969 622.276 126.235 622.276 127.988C622.276 129.676 623.769 130.877 626.074 130.877ZM647.982 116.334C648.372 116.334 648.664 116.334 649.119 116.464L648.924 118.834C648.632 118.801 648.275 118.801 647.982 118.801C643.73 118.801 641.555 122.015 641.555 126.332V132.5H639.056V116.497H641.555V120.424C642.854 118.055 645.028 116.334 647.982 116.334ZM650.728 109.647L652.481 108.089C656.896 112.147 658.616 116.691 658.616 121.626C658.616 126.56 656.896 131.104 652.481 135.162L650.728 133.636C654.688 129.708 655.954 125.975 655.954 121.626C655.954 117.276 654.688 113.543 650.728 109.647ZM460.089 172.21L451.195 168.444V165.783L463.108 170.976V173.443L451.195 178.605V176.008L460.089 172.21ZM472.766 160.751V182.5H470.266V163.835L464.456 167.081V164.711L471.175 160.751H472.766ZM494.725 177.274H491.349V182.5H488.849V177.274H476.741V174.807L488.103 160.751H491.349V175.164H494.725V177.274ZM488.849 175.164V163.445L479.533 175.164H488.849ZM507.421 166.107C511.673 166.107 515.406 169.451 515.406 174.515C515.406 179.578 511.673 182.922 507.421 182.922C504.694 182.922 502.454 181.786 501.058 179.838V190.291H498.591V166.497H501.058V169.191C502.454 167.243 504.694 166.107 507.421 166.107ZM507.031 180.715C510.342 180.715 513.004 178.313 513.004 174.515C513.004 170.684 510.342 168.282 507.031 168.282C504.012 168.282 501.058 170.684 501.058 174.515C501.058 178.313 504.012 180.715 507.031 180.715ZM527.381 174.612L533.483 182.5H530.497L525.563 176.105L520.629 182.5H517.642L523.745 174.612L517.642 166.497H520.629L525.563 173.086L530.497 166.497H533.483L527.381 174.612ZM547.574 171.626C547.574 175.975 548.84 179.708 552.8 183.636L551.047 185.162C546.633 181.104 544.912 176.56 544.912 171.626C544.912 166.691 546.633 162.147 551.047 158.089L552.8 159.647C548.84 163.543 547.574 167.276 547.574 171.626ZM566.257 166.107C570.509 166.107 574.242 169.451 574.242 174.515C574.242 179.578 570.509 182.922 566.257 182.922C563.53 182.922 561.29 181.786 559.894 179.838V182.5H557.427V157.505H559.894V169.191C561.29 167.243 563.53 166.107 566.257 166.107ZM565.867 180.715C569.178 180.715 571.84 178.313 571.84 174.515C571.84 170.684 569.178 168.282 565.867 168.282C562.848 168.282 559.894 170.684 559.894 174.515C559.894 178.313 562.848 180.715 565.867 180.715ZM585.552 166.14C590.259 166.14 594.024 169.58 594.024 174.482C594.024 179.384 590.259 182.89 585.552 182.89C580.78 182.89 577.047 179.384 577.047 174.482C577.047 169.58 580.78 166.14 585.552 166.14ZM585.552 180.715C588.831 180.715 591.59 178.183 591.59 174.482C591.59 170.814 588.831 168.314 585.552 168.314C582.241 168.314 579.449 170.814 579.449 174.482C579.449 178.183 582.241 180.715 585.552 180.715ZM600.724 182.5H598.257V157.505H600.724V182.5ZM621.79 157.505V182.5H619.323V179.838C617.927 181.786 615.687 182.922 612.961 182.922C608.708 182.922 604.975 179.578 604.975 174.515C604.975 169.451 608.708 166.107 612.961 166.107C615.687 166.107 617.927 167.243 619.323 169.191V157.505H621.79ZM613.35 180.715C616.369 180.715 619.323 178.313 619.323 174.515C619.323 170.684 616.369 168.282 613.35 168.282C610.039 168.282 607.377 170.684 607.377 174.515C607.377 178.313 610.039 180.715 613.35 180.715ZM626.445 159.647L628.198 158.089C632.613 162.147 634.333 166.691 634.333 171.626C634.333 176.56 632.613 181.104 628.198 185.162L626.445 183.636C630.406 179.708 631.672 175.975 631.672 171.626C631.672 167.276 630.406 163.543 626.445 159.647Z" fill="#1A1816"/>
<mask id="path-9-inside-3_436_22013" fill="white">
<path d="M0 280.997C0 272.714 6.71426 266 14.9967 266H285.003C293.286 266 300 272.714 300 280.997V431.003C300 439.286 293.286 446 285.003 446H14.9967C6.71424 446 0 439.286 0 431.003V280.997Z"/>
</mask>
<path d="M0 280.997C0 272.714 6.71426 266 14.9967 266H285.003C293.286 266 300 272.714 300 280.997V431.003C300 439.286 293.286 446 285.003 446H14.9967C6.71424 446 0 439.286 0 431.003V280.997Z" fill="white"/>
<path d="M14.9967 266V267.875H285.003V266V264.125H14.9967V266ZM300 280.997H298.125V431.003H300H301.875V280.997H300ZM285.003 446V444.125H14.9967V446V447.875H285.003V446ZM0 431.003H1.87459V280.997H0H-1.87459V431.003H0ZM14.9967 446V444.125C7.74955 444.125 1.87459 438.25 1.87459 431.003H0H-1.87459C-1.87459 440.321 5.67893 447.875 14.9967 447.875V446ZM300 431.003H298.125C298.125 438.25 292.25 444.125 285.003 444.125V446V447.875C294.321 447.875 301.875 440.321 301.875 431.003H300ZM285.003 266V267.875C292.25 267.875 298.125 273.75 298.125 280.997H300H301.875C301.875 271.679 294.321 264.125 285.003 264.125V266ZM14.9967 266V264.125C5.67895 264.125 -1.87459 271.679 -1.87459 280.997H0H1.87459C1.87459 273.75 7.74957 267.875 14.9967 267.875V266Z" fill="#D3CFCA" mask="url(#path-9-inside-3_436_22013)"/>
<path d="M134.295 354.623C139.859 357.037 143.218 362.286 143.218 369.11C143.218 382.652 133.14 391.575 118.338 391.575C103.642 391.575 93.4588 382.652 92.3041 369.32L105.636 366.695C106.686 374.463 110.78 379.187 118.338 379.187C125.162 379.187 130.201 375.198 130.201 369.215C130.201 363.966 126.527 360.711 119.598 360.711H109.415V348.324H118.758C125.372 348.324 129.046 345.175 129.046 340.031C129.046 334.362 124.847 330.583 118.338 330.583C111.83 330.583 106.896 334.467 106.266 343.285L93.2489 340.661C94.4036 327.329 104.061 318.091 118.338 318.091C132.615 318.091 142.168 327.014 142.168 340.031C142.168 346.854 139.229 351.998 134.295 354.623ZM160.464 339.086C165.293 339.086 168.758 342.865 168.758 347.169C168.758 351.683 165.293 355.148 160.464 355.148C155.636 355.148 152.171 351.683 152.171 347.169C152.171 342.865 155.636 339.086 160.464 339.086ZM160.464 374.358C165.293 374.358 168.758 378.138 168.758 382.442C168.758 386.956 165.293 390.42 160.464 390.42C155.636 390.42 152.171 386.956 152.171 382.442C152.171 378.138 155.636 374.358 160.464 374.358ZM203.954 319.665V390H190.098V336.357L172.776 345.28V332.578L195.136 319.665H203.954Z" fill="#1A1816"/>
<mask id="path-12-inside-4_436_22013" fill="white">
<path d="M393 280.997C393 272.714 399.714 266 407.997 266H678.003C686.286 266 693 272.714 693 280.997V431.003C693 439.286 686.286 446 678.003 446H407.997C399.714 446 393 439.286 393 431.003V280.997Z"/>
</mask>
<path d="M393 280.997C393 272.714 399.714 266 407.997 266H678.003C686.286 266 693 272.714 693 280.997V431.003C693 439.286 686.286 446 678.003 446H407.997C399.714 446 393 439.286 393 431.003V280.997Z" fill="white"/>
<path d="M407.997 266V267.875H678.003V266V264.125H407.997V266ZM693 280.997H691.125V431.003H693H694.875V280.997H693ZM678.003 446V444.125H407.997V446V447.875H678.003V446ZM393 431.003H394.875V280.997H393H391.125V431.003H393ZM407.997 446V444.125C400.75 444.125 394.875 438.25 394.875 431.003H393H391.125C391.125 440.321 398.679 447.875 407.997 447.875V446ZM693 431.003H691.125C691.125 438.25 685.25 444.125 678.003 444.125V446V447.875C687.321 447.875 694.875 440.321 694.875 431.003H693ZM678.003 266V267.875C685.25 267.875 691.125 273.75 691.125 280.997H693H694.875C694.875 271.679 687.321 264.125 678.003 264.125V266ZM407.997 266V264.125C398.679 264.125 391.125 271.679 391.125 280.997H393H394.875C394.875 273.75 400.75 267.875 407.997 267.875V266Z" fill="#D3CFCA" mask="url(#path-12-inside-4_436_22013)"/>
<path d="M435.474 337.605L423.593 332.443V329.976L435.474 324.783V327.444L426.58 331.21L435.474 335.008V337.605ZM460.55 339.163V341.5H445.91V339.844L453.668 332.606C456.167 330.333 457.855 328.775 457.855 326.016C457.855 323.354 455.94 321.569 453.116 321.569C450.162 321.569 448.279 323.452 448.149 326.763L445.78 326.276C445.942 322.056 448.864 319.329 453.148 319.329C457.433 319.329 460.322 322.023 460.322 325.984C460.322 329.197 458.569 331.145 455.226 334.294L450 339.163H460.55ZM480.317 336.274H476.941V341.5H474.441V336.274H462.333V333.807L473.695 319.751H476.941V334.164H480.317V336.274ZM474.441 334.164V322.445L465.125 334.164H474.441ZM493.013 325.107C497.265 325.107 500.998 328.451 500.998 333.515C500.998 338.578 497.265 341.922 493.013 341.922C490.286 341.922 488.046 340.786 486.651 338.838V349.291H484.184V325.497H486.651V328.191C488.046 326.243 490.286 325.107 493.013 325.107ZM492.623 339.715C495.935 339.715 498.596 337.313 498.596 333.515C498.596 329.684 495.935 327.282 492.623 327.282C489.605 327.282 486.651 329.684 486.651 333.515C486.651 337.313 489.605 339.715 492.623 339.715ZM512.973 333.612L519.076 341.5H516.089L511.155 335.105L506.221 341.5H503.234L509.337 333.612L503.234 325.497H506.221L511.155 332.086L516.089 325.497H519.076L512.973 333.612ZM533.166 330.626C533.166 334.975 534.432 338.708 538.392 342.636L536.64 344.162C532.225 340.104 530.504 335.56 530.504 330.626C530.504 325.691 532.225 321.147 536.64 317.089L538.392 318.647C534.432 322.543 533.166 326.276 533.166 330.626ZM551.946 325.334C552.336 325.334 552.628 325.334 553.082 325.464L552.888 327.834C552.595 327.801 552.238 327.801 551.946 327.801C547.694 327.801 545.519 331.015 545.519 335.332V341.5H543.019V325.497H545.519V329.424C546.817 327.055 548.992 325.334 551.946 325.334ZM570.657 333.093V334.001H556.926C557.153 337.605 559.88 339.747 562.639 339.747C564.912 339.747 566.957 338.871 568.093 336.306L570.3 336.826C569.034 340.169 566.243 341.922 562.639 341.922C558.387 341.922 554.524 338.643 554.524 333.547C554.524 328.418 558.387 325.107 562.802 325.107C567.119 325.107 570.495 328.321 570.657 333.093ZM562.802 327.282C560.205 327.282 557.511 329.002 557.024 332.151H568.158C567.703 329.002 565.464 327.282 562.802 327.282ZM590.264 325.497V342.182C590.264 346.694 586.531 349.615 581.857 349.615C577.864 349.615 575.235 348.057 574.001 345.46L576.111 343.87C577.215 346.012 578.838 347.213 581.857 347.213C585.103 347.213 587.765 345.136 587.797 341.857V338.838C586.401 340.786 584.161 341.922 581.435 341.922C577.182 341.922 573.449 338.578 573.449 333.515C573.449 328.451 577.182 325.107 581.435 325.107C584.161 325.107 586.401 326.243 587.797 328.191V325.497H590.264ZM581.824 339.715C584.843 339.715 587.797 337.313 587.797 333.515C587.797 329.684 584.843 327.282 581.824 327.282C578.513 327.282 575.851 329.684 575.851 333.515C575.851 337.313 578.513 339.715 581.824 339.715ZM610.566 325.497V341.468H608.066V338.871C606.768 340.786 604.69 341.89 602.028 341.89C598.166 341.89 595.601 339.13 595.601 335.073V325.497H598.101V334.618C598.101 337.605 599.854 339.585 602.515 339.585C605.859 339.585 608.066 337.345 608.066 333.19V325.497H610.566ZM618.714 341.5H616.247V316.505H618.714V341.5ZM630.561 325.107C634.554 325.107 637.183 327.25 637.183 331.112V341.5H634.781V339.065C633.547 340.721 631.535 341.922 628.776 341.922C625.27 341.922 622.965 339.909 622.965 337.02C622.965 334.099 625.205 332.021 629.392 332.021H634.781V331.275C634.781 328.775 633.158 327.282 630.691 327.282C628.256 327.282 626.568 328.483 626.211 330.496L623.842 329.976C624.361 327.087 627.055 325.107 630.561 325.107ZM629.133 339.877C632.249 339.877 634.781 337.702 634.781 334.813V333.969H629.36C626.731 333.969 625.335 335.235 625.335 336.988C625.335 338.676 626.828 339.877 629.133 339.877ZM651.041 325.334C651.431 325.334 651.723 325.334 652.178 325.464L651.983 327.834C651.691 327.801 651.334 327.801 651.041 327.801C646.789 327.801 644.614 331.015 644.614 335.332V341.5H642.115V325.497H644.614V329.424C645.913 327.055 648.088 325.334 651.041 325.334ZM653.787 318.647L655.54 317.089C659.955 321.147 661.675 325.691 661.675 330.626C661.675 335.56 659.955 340.104 655.54 344.162L653.787 342.636C657.747 338.708 659.013 334.975 659.013 330.626C659.013 326.276 657.747 322.543 653.787 318.647ZM459.408 387.605L447.527 382.443V379.976L459.408 374.783V377.444L450.514 381.21L459.408 385.008V387.605ZM477.537 369.751V391.5H475.037V372.835L469.227 376.081V373.711L475.946 369.751H477.537ZM493.036 380.366C496.314 381.21 497.743 383.515 497.743 385.754C497.743 389.422 494.562 391.922 489.79 391.922C484.985 391.922 481.772 389.422 481.772 385.754C481.772 383.45 483.265 381.21 486.479 380.366C483.655 379.489 482.389 377.412 482.389 375.075C482.389 371.634 485.31 369.329 489.79 369.329C494.237 369.329 497.158 371.634 497.158 375.075C497.158 377.379 495.892 379.489 493.036 380.366ZM484.888 375.269C484.888 377.574 486.836 379.1 489.757 379.1C492.711 379.1 494.659 377.509 494.659 375.237C494.659 372.9 492.549 371.439 489.757 371.439C486.966 371.439 484.888 372.9 484.888 375.269ZM489.757 389.715C492.711 389.715 494.951 388.157 494.951 385.625C494.951 383.222 492.906 381.534 489.757 381.534C486.673 381.534 484.596 383.19 484.596 385.657C484.596 388.189 486.738 389.715 489.757 389.715ZM510.829 375.107C515.081 375.107 518.814 378.451 518.814 383.515C518.814 388.578 515.081 391.922 510.829 391.922C508.102 391.922 505.862 390.786 504.466 388.838V399.291H501.999V375.497H504.466V378.191C505.862 376.243 508.102 375.107 510.829 375.107ZM510.439 389.715C513.75 389.715 516.412 387.313 516.412 383.515C516.412 379.684 513.75 377.282 510.439 377.282C507.42 377.282 504.466 379.684 504.466 383.515C504.466 387.313 507.42 389.715 510.439 389.715ZM530.788 383.612L536.891 391.5H533.905L528.971 385.105L524.036 391.5H521.05L527.153 383.612L521.05 375.497H524.036L528.971 382.086L533.905 375.497H536.891L530.788 383.612ZM550.982 380.626C550.982 384.975 552.248 388.708 556.208 392.636L554.455 394.162C550.04 390.104 548.32 385.56 548.32 380.626C548.32 375.691 550.04 371.147 554.455 367.089L556.208 368.647C552.248 372.543 550.982 376.276 550.982 380.626ZM569.664 375.107C573.917 375.107 577.65 378.451 577.65 383.515C577.65 388.578 573.917 391.922 569.664 391.922C566.938 391.922 564.698 390.786 563.302 388.838V391.5H560.835V366.505H563.302V378.191C564.698 376.243 566.938 375.107 569.664 375.107ZM569.275 389.715C572.586 389.715 575.248 387.313 575.248 383.515C575.248 379.684 572.586 377.282 569.275 377.282C566.256 377.282 563.302 379.684 563.302 383.515C563.302 387.313 566.256 389.715 569.275 389.715ZM588.96 375.14C593.667 375.14 597.432 378.58 597.432 383.482C597.432 388.384 593.667 391.89 588.96 391.89C584.188 391.89 580.455 388.384 580.455 383.482C580.455 378.58 584.188 375.14 588.96 375.14ZM588.96 389.715C592.238 389.715 594.998 387.183 594.998 383.482C594.998 379.814 592.238 377.314 588.96 377.314C585.649 377.314 582.857 379.814 582.857 383.482C582.857 387.183 585.649 389.715 588.96 389.715ZM604.132 391.5H601.665V366.505H604.132V391.5ZM625.198 366.505V391.5H622.731V388.838C621.335 390.786 619.095 391.922 616.368 391.922C612.116 391.922 608.383 388.578 608.383 383.515C608.383 378.451 612.116 375.107 616.368 375.107C619.095 375.107 621.335 376.243 622.731 378.191V366.505H625.198ZM616.758 389.715C619.777 389.715 622.731 387.313 622.731 383.515C622.731 379.684 619.777 377.282 616.758 377.282C613.447 377.282 610.785 379.684 610.785 383.515C610.785 387.313 613.447 389.715 616.758 389.715ZM629.853 368.647L631.606 367.089C636.021 371.147 637.741 375.691 637.741 380.626C637.741 385.56 636.021 390.104 631.606 394.162L629.853 392.636C633.813 388.708 635.079 384.975 635.079 380.626C635.079 376.276 633.813 372.543 629.853 368.647Z" fill="#1A1816"/>
</svg>
