<svg width="646" height="359" viewBox="0 0 646 359" fill="none" xmlns="http://www.w3.org/2000/svg">
<path d="M16 0.381836H630C638.626 0.381841 645.618 7.37424 645.618 16V342.32C645.618 350.946 638.626 357.938 630 357.938H16C7.37438 357.938 0.382067 350.946 0.381836 342.32V16C0.381836 7.37423 7.37423 0.381836 16 0.381836Z" fill="white"/>
<path d="M16 0.381836H630C638.626 0.381841 645.618 7.37424 645.618 16V342.32C645.618 350.946 638.626 357.938 630 357.938H16C7.37438 357.938 0.382067 350.946 0.381836 342.32V16C0.381836 7.37423 7.37423 0.381836 16 0.381836Z" stroke="#D3CFCA" stroke-width="0.763329"/>
<g clip-path="url(#clip0_292_15649)">
<path fill-rule="evenodd" clip-rule="evenodd" d="M33.3386 42.4111C33.664 42.7365 33.664 43.2641 33.3386 43.5896L29.7612 47.167H39.416C39.8763 47.167 40.2493 47.5401 40.2493 48.0003C40.2493 48.4606 39.8763 48.8337 39.416 48.8337H29.7612L33.3386 52.4111C33.664 52.7365 33.664 53.2641 33.3386 53.5896C33.0132 53.915 32.4855 53.915 32.1601 53.5896L27.1601 48.5896C26.8347 48.2641 26.8347 47.7365 27.1601 47.4111L32.1601 42.4111C32.4855 42.0856 33.0132 42.0856 33.3386 42.4111Z" fill="#1A1816"/>
<path d="M59.856 47.48V47.544C60.896 47.656 61.872 48.552 61.872 50.056C61.872 51.784 60.752 53 58.48 53H53.264V42.28H58.368C60.336 42.28 61.552 43.448 61.552 45.176C61.552 46.536 60.64 47.352 59.856 47.48ZM54.976 43.752V46.92H58.176C59.2 46.92 59.888 46.264 59.888 45.272C59.888 44.36 59.184 43.752 58.192 43.752H54.976ZM54.976 51.528H58.304C59.456 51.528 60.112 50.872 60.112 49.896C60.112 48.92 59.392 48.296 58.352 48.296H54.976V51.528ZM67.073 44.84C69.105 44.84 70.449 45.912 70.449 47.832V53H68.865V52.088C68.273 52.744 67.393 53.224 66.161 53.224C64.385 53.224 63.201 52.2 63.201 50.712C63.201 49.224 64.337 48.2 66.385 48.2H68.865V47.96C68.865 46.936 68.177 46.296 67.169 46.296C66.097 46.296 65.409 46.776 65.233 47.672L63.649 47.336C63.921 45.848 65.297 44.84 67.073 44.84ZM66.417 51.88C67.745 51.88 68.865 50.952 68.865 49.736V49.48H66.353C65.377 49.48 64.801 49.976 64.801 50.68C64.801 51.4 65.441 51.88 66.417 51.88ZM76.1274 51.688C77.1834 51.688 78.0634 51.144 78.4634 50.024L79.9994 50.424C79.5514 52.12 77.9674 53.224 76.1274 53.224C73.8554 53.224 71.9354 51.544 71.9354 49.032C71.9354 46.552 73.8554 44.84 76.1274 44.84C77.9194 44.84 79.4874 45.928 79.9994 47.624L78.3994 48.088C78.0794 46.92 77.1834 46.376 76.1274 46.376C74.6554 46.376 73.5674 47.464 73.5674 49.032C73.5674 50.648 74.6554 51.688 76.1274 51.688ZM90.2418 53H88.1458L85.1378 49.624L83.5218 51.368V53H81.8578V40.68H83.5218V49.128L87.4098 45.064H89.3618L86.2418 48.44L90.2418 53Z" fill="#1A1816"/>
<path d="M52 54.6H90.3218V55.4H52V54.6Z" fill="#1A1816"/>
</g>
<path d="M34.272 88.08C38.944 88.08 42.336 90.384 43.136 94.288L37.952 95.344C37.568 93.328 35.904 92.336 34.208 92.336C32.448 92.336 31.328 93.296 31.328 94.512C31.328 95.376 31.712 96.016 33.056 96.304L37.504 97.296C41.216 98.128 43.392 100.144 43.392 103.536C43.392 108.112 39.328 110.48 34.56 110.48C29.728 110.48 25.76 108.176 25.184 103.984L30.624 102.928C31.168 105.136 32.704 106.096 34.848 106.096C36.832 106.096 38.016 105.2 38.016 103.888C38.016 102.928 37.568 102.32 36.032 102L31.552 101.04C28.48 100.336 25.792 98.736 25.792 94.832C25.792 90.672 29.248 88.08 34.272 88.08ZM62.2875 101.968V103.28H50.5115C50.9275 105.2 52.2395 106.384 53.9675 106.384C55.1515 106.384 56.5275 106.096 57.3915 104.528L61.9355 105.456C60.5595 108.848 57.6475 110.48 53.9675 110.48C49.3275 110.48 45.4875 107.056 45.4875 101.968C45.4875 96.912 49.3275 93.456 53.9995 93.456C58.5435 93.456 62.1915 96.72 62.2875 101.968ZM53.9995 97.616C52.5595 97.616 51.0875 98.512 50.6075 100.144H57.2315C56.7515 98.416 55.4715 97.616 53.9995 97.616ZM75.6698 105.264L76.8538 109.296C75.6058 109.968 74.2938 110.48 72.4698 110.48C68.4698 110.48 66.0698 108.304 66.0698 104.08V98H63.1578V93.936H66.0698V88.56H71.1898V93.936H75.9258V98H71.1898V103.568C71.1898 105.232 71.9898 105.904 73.3338 105.904C74.0378 105.904 74.9978 105.648 75.6698 105.264ZM89.5135 105.264L90.6975 109.296C89.4495 109.968 88.1375 110.48 86.3135 110.48C82.3135 110.48 79.9135 108.304 79.9135 104.08V98H77.0015V93.936H79.9135V88.56H85.0335V93.936H89.7695V98H85.0335V103.568C85.0335 105.232 85.8335 105.904 87.1775 105.904C87.8815 105.904 88.8415 105.648 89.5135 105.264ZM95.4533 86.288C97.1813 86.288 98.4293 87.632 98.4293 89.2C98.4293 90.832 97.1813 92.048 95.4533 92.048C93.7253 92.048 92.5093 90.832 92.5093 89.2C92.5093 87.632 93.7253 86.288 95.4533 86.288ZM98.0133 110H92.8932V93.936H98.0133V110ZM112.029 93.456C115.773 93.456 118.269 96.112 118.269 100.144V110H113.181V101.232C113.181 99.344 112.061 98.064 110.429 98.064C108.413 98.064 107.101 99.44 107.101 102.544V110H101.981V93.936H107.101V95.472C108.317 94.192 110.013 93.456 112.029 93.456ZM138.658 93.936V110.32C138.658 115.28 134.434 118 129.218 118C125.538 118 122.754 116.72 121.186 114.128L125.442 111.504C126.626 112.944 127.554 113.488 129.218 113.488C131.522 113.488 133.538 112.336 133.538 109.808V108.624C132.322 109.808 130.658 110.48 128.546 110.48C124.29 110.48 120.706 107.056 120.706 101.968C120.706 96.912 124.29 93.456 128.546 93.456C130.658 93.456 132.322 94.128 133.538 95.312V93.936H138.658ZM129.602 106.128C131.682 106.128 133.538 104.464 133.538 101.968C133.538 99.504 131.682 97.808 129.602 97.808C127.362 97.808 125.73 99.504 125.73 101.968C125.73 104.464 127.362 106.128 129.602 106.128ZM141.268 105.808L146.26 104.784C146.484 106.16 147.732 106.672 149.108 106.672C150.452 106.672 151.188 106.096 151.188 105.392C151.188 104.848 150.772 104.432 149.588 104.208L146.324 103.568C143.348 103.024 141.652 101.424 141.652 98.896C141.652 95.6 144.5 93.456 148.564 93.456C152.564 93.456 155.22 95.28 155.86 98.064L151.188 98.992C151.028 98 150.068 97.104 148.5 97.104C147.124 97.104 146.676 97.776 146.676 98.352C146.676 98.8 146.868 99.248 147.892 99.472L151.668 100.24C154.708 100.88 156.116 102.704 156.116 105.072C156.116 108.624 153.044 110.48 148.82 110.48C145.044 110.48 141.812 109.104 141.268 105.808Z" fill="#1A1816"/>
<rect x="24.5" y="138.82" width="597" height="195" rx="11.5" fill="white"/>
<rect x="24.5" y="138.82" width="597" height="195" rx="11.5" stroke="#D3CFCA"/>
<path d="M68.906 188.32H65.306L62.138 183.712L60.014 186.25V188.32H57.044V176.26H60.014V182.218L65.036 176.26H68.402L64.064 181.426L68.906 188.32ZM78.152 183.802V184.54H71.528C71.762 185.62 72.5 186.286 73.472 186.286C74.138 186.286 74.912 186.124 75.398 185.242L77.954 185.764C77.18 187.672 75.542 188.59 73.472 188.59C70.862 188.59 68.702 186.664 68.702 183.802C68.702 180.958 70.862 179.014 73.49 179.014C76.046 179.014 78.098 180.85 78.152 183.802ZM73.49 181.354C72.68 181.354 71.852 181.858 71.582 182.776H75.308C75.038 181.804 74.318 181.354 73.49 181.354ZM89.0351 179.266L83.2751 192.64H80.1611L82.1591 188.014L78.4151 179.266H81.5111L83.6531 184.558L85.9391 179.266H89.0351ZM95.8843 179.014C98.2783 179.014 100.294 180.958 100.294 183.802C100.294 186.664 98.2783 188.59 95.8843 188.59C94.6963 188.59 93.7603 188.212 93.0763 187.546V188.32H90.1963V174.46H93.0763V180.058C93.7603 179.392 94.6963 179.014 95.8843 179.014ZM95.2903 186.142C96.5503 186.142 97.4683 185.206 97.4683 183.802C97.4683 182.416 96.5503 181.462 95.2903 181.462C94.1203 181.462 93.0763 182.416 93.0763 183.802C93.0763 185.206 94.1203 186.142 95.2903 186.142ZM106.19 179.05C108.872 179.05 111.14 180.958 111.14 183.802C111.14 186.664 108.872 188.572 106.19 188.572C103.454 188.572 101.186 186.664 101.186 183.802C101.186 180.958 103.454 179.05 106.19 179.05ZM106.19 186.142C107.306 186.142 108.368 185.224 108.368 183.802C108.368 182.398 107.306 181.462 106.19 181.462C105.02 181.462 103.958 182.398 103.958 183.802C103.958 185.224 105.02 186.142 106.19 186.142ZM116.694 179.014C119.232 179.014 120.834 180.292 120.834 182.596V188.32H118.062V187.654C117.432 188.194 116.568 188.59 115.362 188.59C113.346 188.59 111.996 187.42 111.996 185.638C111.996 183.874 113.346 182.722 115.758 182.722H118.062V182.542C118.062 181.786 117.54 181.282 116.784 181.282C115.92 181.282 115.416 181.624 115.272 182.416L112.554 181.858C112.95 180.112 114.534 179.014 116.694 179.014ZM116.172 186.43C117.162 186.43 118.062 185.764 118.062 184.756V184.558H116.082C115.362 184.558 114.912 184.936 114.912 185.494C114.912 186.07 115.416 186.43 116.172 186.43ZM128.622 179.158C128.874 179.158 129.054 179.176 129.27 179.23L129.144 182.11H128.622C126.606 182.11 125.508 183.154 125.508 185.494V188.32H122.628V179.284H125.508V181.012C126.156 179.932 127.146 179.158 128.622 179.158ZM139.866 174.46V188.32H136.986V187.546C136.302 188.212 135.366 188.59 134.178 188.59C131.784 188.59 129.768 186.664 129.768 183.802C129.768 180.958 131.784 179.014 134.178 179.014C135.366 179.014 136.302 179.392 136.986 180.058V174.46H139.866ZM134.772 186.142C135.942 186.142 136.986 185.206 136.986 183.802C136.986 182.416 135.942 181.462 134.772 181.462C133.512 181.462 132.594 182.416 132.594 183.802C132.594 185.206 133.512 186.142 134.772 186.142ZM150.864 175.99C153.492 175.99 155.4 177.286 155.85 179.482L152.934 180.076C152.718 178.942 151.782 178.384 150.828 178.384C149.838 178.384 149.208 178.924 149.208 179.608C149.208 180.094 149.424 180.454 150.18 180.616L152.682 181.174C154.77 181.642 155.994 182.776 155.994 184.684C155.994 187.258 153.708 188.59 151.026 188.59C148.308 188.59 146.076 187.294 145.752 184.936L148.812 184.342C149.118 185.584 149.982 186.124 151.188 186.124C152.304 186.124 152.97 185.62 152.97 184.882C152.97 184.342 152.718 184 151.854 183.82L149.334 183.28C147.606 182.884 146.094 181.984 146.094 179.788C146.094 177.448 148.038 175.99 150.864 175.99ZM163.437 179.014C165.525 179.014 166.929 180.508 166.929 182.776V188.32H164.067V183.388C164.067 182.326 163.437 181.606 162.501 181.606C161.385 181.606 160.647 182.38 160.647 184.126V188.32H157.767V174.46H160.647V180.148C161.349 179.428 162.285 179.014 163.437 179.014ZM173.321 179.05C176.003 179.05 178.271 180.958 178.271 183.802C178.271 186.664 176.003 188.572 173.321 188.572C170.585 188.572 168.317 186.664 168.317 183.802C168.317 180.958 170.585 179.05 173.321 179.05ZM173.321 186.142C174.437 186.142 175.499 185.224 175.499 183.802C175.499 182.398 174.437 181.462 173.321 181.462C172.151 181.462 171.089 182.398 171.089 183.802C171.089 185.224 172.151 186.142 173.321 186.142ZM185.751 179.158C186.003 179.158 186.183 179.176 186.399 179.23L186.273 182.11H185.751C183.735 182.11 182.637 183.154 182.637 185.494V188.32H179.757V179.284H182.637V181.012C183.285 179.932 184.275 179.158 185.751 179.158ZM191.9 186.07C192.818 186.07 193.556 185.584 193.862 184.486L196.508 185.062C196.058 187.204 194.15 188.59 191.9 188.59C189.2 188.59 186.968 186.664 186.968 183.802C186.968 180.958 189.2 179.014 191.9 179.014C194.096 179.014 196.004 180.364 196.508 182.488L193.808 183.136C193.556 182.038 192.818 181.534 191.9 181.534C190.604 181.534 189.74 182.488 189.74 183.802C189.74 185.134 190.604 186.07 191.9 186.07ZM207.039 179.284V188.32H204.159V187.456C203.475 188.176 202.521 188.59 201.387 188.59C199.281 188.59 197.877 187.096 197.877 184.828V179.284H200.739V184.216C200.739 185.278 201.369 185.998 202.287 185.998C203.421 185.998 204.159 185.224 204.159 183.478V179.284H207.039ZM215.16 185.656L215.826 187.924C215.124 188.302 214.386 188.59 213.36 188.59C211.11 188.59 209.76 187.366 209.76 184.99V181.57H208.122V179.284H209.76V176.26H212.64V179.284H215.304V181.57H212.64V184.702C212.64 185.638 213.09 186.016 213.846 186.016C214.242 186.016 214.782 185.872 215.16 185.656ZM216.305 185.962L219.113 185.386C219.239 186.16 219.941 186.448 220.715 186.448C221.471 186.448 221.885 186.124 221.885 185.728C221.885 185.422 221.651 185.188 220.985 185.062L219.149 184.702C217.475 184.396 216.521 183.496 216.521 182.074C216.521 180.22 218.123 179.014 220.409 179.014C222.659 179.014 224.153 180.04 224.513 181.606L221.885 182.128C221.795 181.57 221.255 181.066 220.373 181.066C219.599 181.066 219.347 181.444 219.347 181.768C219.347 182.02 219.455 182.272 220.031 182.398L222.155 182.83C223.865 183.19 224.657 184.216 224.657 185.548C224.657 187.546 222.929 188.59 220.553 188.59C218.429 188.59 216.611 187.816 216.305 185.962Z" fill="#181C24"/>
<rect width="534" height="84" transform="translate(56 218.32)" fill="white"/>
<path d="M67.024 241.32H65.424L61.296 236.104L58.672 238.936V241.32H57.408V230.6H58.672V237.384L64.912 230.6H66.384L62.144 235.192L67.024 241.32ZM75.4213 237.176V237.624H68.6533C68.7653 239.4 70.1093 240.456 71.4693 240.456C72.5893 240.456 73.5973 240.024 74.1573 238.76L75.2453 239.016C74.6213 240.664 73.2453 241.528 71.4693 241.528C69.3733 241.528 67.4693 239.912 67.4693 237.4C67.4693 234.872 69.3733 233.24 71.5493 233.24C73.6773 233.24 75.3413 234.824 75.4213 237.176ZM71.5493 234.312C70.2693 234.312 68.9413 235.16 68.7013 236.712H74.1893C73.9653 235.16 72.8613 234.312 71.5493 234.312ZM84.5794 233.432L79.2354 245.16H77.8754L79.6834 241.208L76.1474 233.432H77.5234L80.3394 239.736L83.2194 233.432H84.5794ZM90.635 233.24C92.731 233.24 94.571 234.888 94.571 237.384C94.571 239.88 92.731 241.528 90.635 241.528C89.291 241.528 88.187 240.968 87.499 240.008V241.32H86.283V229H87.499V234.76C88.187 233.8 89.291 233.24 90.635 233.24ZM90.443 240.44C92.075 240.44 93.387 239.256 93.387 237.384C93.387 235.496 92.075 234.312 90.443 234.312C88.955 234.312 87.499 235.496 87.499 237.384C87.499 239.256 88.955 240.44 90.443 240.44ZM100.146 233.256C102.466 233.256 104.322 234.952 104.322 237.368C104.322 239.784 102.466 241.512 100.146 241.512C97.7936 241.512 95.9536 239.784 95.9536 237.368C95.9536 234.952 97.7936 233.256 100.146 233.256ZM100.146 240.44C101.762 240.44 103.122 239.192 103.122 237.368C103.122 235.56 101.762 234.328 100.146 234.328C98.5136 234.328 97.1376 235.56 97.1376 237.368C97.1376 239.192 98.5136 240.44 100.146 240.44ZM109.432 233.24C111.4 233.24 112.696 234.296 112.696 236.2V241.32H111.512V240.12C110.904 240.936 109.912 241.528 108.552 241.528C106.824 241.528 105.688 240.536 105.688 239.112C105.688 237.672 106.792 236.648 108.856 236.648H111.512V236.28C111.512 235.048 110.712 234.312 109.496 234.312C108.296 234.312 107.464 234.904 107.288 235.896L106.12 235.64C106.376 234.216 107.704 233.24 109.432 233.24ZM108.728 240.52C110.264 240.52 111.512 239.448 111.512 238.024V237.608H108.84C107.544 237.608 106.856 238.232 106.856 239.096C106.856 239.928 107.592 240.52 108.728 240.52ZM119.527 233.352C119.719 233.352 119.863 233.352 120.087 233.416L119.991 234.584C119.847 234.568 119.671 234.568 119.527 234.568C117.431 234.568 116.359 236.152 116.359 238.28V241.32H115.127V233.432H116.359V235.368C116.999 234.2 118.071 233.352 119.527 233.352ZM128.992 229V241.32H127.776V240.008C127.088 240.968 125.984 241.528 124.64 241.528C122.544 241.528 120.704 239.88 120.704 237.384C120.704 234.888 122.544 233.24 124.64 233.24C125.984 233.24 127.088 233.8 127.776 234.76V229H128.992ZM124.832 240.44C126.32 240.44 127.776 239.256 127.776 237.384C127.776 235.496 126.32 234.312 124.832 234.312C123.2 234.312 121.888 235.496 121.888 237.384C121.888 239.256 123.2 240.44 124.832 240.44ZM140.038 233.24C141.942 233.24 143.206 234.6 143.206 236.6V241.32H141.99V236.824C141.99 235.352 141.11 234.36 139.798 234.36C138.15 234.36 137.062 235.48 137.062 237.528V241.32H135.846V233.432H137.062V234.744C137.702 233.784 138.71 233.24 140.038 233.24ZM148.854 233.24C150.822 233.24 152.118 234.296 152.118 236.2V241.32H150.934V240.12C150.326 240.936 149.334 241.528 147.974 241.528C146.246 241.528 145.11 240.536 145.11 239.112C145.11 237.672 146.214 236.648 148.278 236.648H150.934V236.28C150.934 235.048 150.134 234.312 148.918 234.312C147.718 234.312 146.886 234.904 146.71 235.896L145.542 235.64C145.798 234.216 147.126 233.24 148.854 233.24ZM148.15 240.52C149.686 240.52 150.934 239.448 150.934 238.024V237.608H148.262C146.966 237.608 146.278 238.232 146.278 239.096C146.278 239.928 147.014 240.52 148.15 240.52ZM161.498 233.432L158.01 241.32H156.682L153.194 233.432H154.522L157.354 239.88L160.17 233.432H161.498ZM163.925 230.232C164.405 230.232 164.773 230.616 164.773 231.048C164.773 231.512 164.405 231.864 163.925 231.864C163.445 231.864 163.093 231.512 163.093 231.048C163.093 230.616 163.445 230.232 163.925 230.232ZM164.549 241.32H163.317V233.432H164.549V241.32ZM175.054 233.432V241.656C175.054 243.88 173.214 245.32 170.91 245.32C168.942 245.32 167.646 244.552 167.038 243.272L168.078 242.488C168.622 243.544 169.422 244.136 170.91 244.136C172.51 244.136 173.822 243.112 173.838 241.496V240.008C173.15 240.968 172.046 241.528 170.702 241.528C168.606 241.528 166.766 239.88 166.766 237.384C166.766 234.888 168.606 233.24 170.702 233.24C172.046 233.24 173.15 233.8 173.838 234.76V233.432H175.054ZM170.894 240.44C172.382 240.44 173.838 239.256 173.838 237.384C173.838 235.496 172.382 234.312 170.894 234.312C169.262 234.312 167.95 235.496 167.95 237.384C167.95 239.256 169.262 240.44 170.894 240.44ZM180.901 233.24C182.869 233.24 184.165 234.296 184.165 236.2V241.32H182.981V240.12C182.373 240.936 181.381 241.528 180.021 241.528C178.293 241.528 177.157 240.536 177.157 239.112C177.157 237.672 178.261 236.648 180.325 236.648H182.981V236.28C182.981 235.048 182.181 234.312 180.965 234.312C179.765 234.312 178.933 234.904 178.757 235.896L177.589 235.64C177.845 234.216 179.173 233.24 180.901 233.24ZM180.197 240.52C181.733 240.52 182.981 239.448 182.981 238.024V237.608H180.309C179.013 237.608 178.325 238.232 178.325 239.096C178.325 239.928 179.061 240.52 180.197 240.52ZM190.932 239.896L191.332 240.904C190.692 241.352 190.148 241.528 189.508 241.528C187.94 241.528 186.9 240.6 186.9 238.856V234.456H185.188V233.432H186.9V230.6H188.132V233.432H190.948V234.456H188.132V238.776C188.132 239.8 188.708 240.376 189.588 240.376C190.036 240.376 190.532 240.184 190.932 239.896ZM193.628 230.232C194.108 230.232 194.476 230.616 194.476 231.048C194.476 231.512 194.108 231.864 193.628 231.864C193.148 231.864 192.796 231.512 192.796 231.048C192.796 230.616 193.148 230.232 193.628 230.232ZM194.252 241.32H193.02V233.432H194.252V241.32ZM200.661 233.256C202.981 233.256 204.837 234.952 204.837 237.368C204.837 239.784 202.981 241.512 200.661 241.512C198.309 241.512 196.469 239.784 196.469 237.368C196.469 234.952 198.309 233.256 200.661 233.256ZM200.661 240.44C202.277 240.44 203.637 239.192 203.637 237.368C203.637 235.56 202.277 234.328 200.661 234.328C199.029 234.328 197.653 235.56 197.653 237.368C197.653 239.192 199.029 240.44 200.661 240.44ZM211.116 233.24C213.02 233.24 214.284 234.6 214.284 236.6V241.32H213.068V236.824C213.068 235.352 212.188 234.36 210.876 234.36C209.228 234.36 208.14 235.48 208.14 237.528V241.32H206.924V233.432H208.14V234.744C208.78 233.784 209.788 233.24 211.116 233.24ZM228.507 233.432V241.656C228.507 243.88 226.667 245.32 224.363 245.32C222.395 245.32 221.099 244.552 220.491 243.272L221.531 242.488C222.075 243.544 222.875 244.136 224.363 244.136C225.963 244.136 227.275 243.112 227.291 241.496V240.008C226.603 240.968 225.499 241.528 224.155 241.528C222.059 241.528 220.219 239.88 220.219 237.384C220.219 234.888 222.059 233.24 224.155 233.24C225.499 233.24 226.603 233.8 227.291 234.76V233.432H228.507ZM224.347 240.44C225.835 240.44 227.291 239.256 227.291 237.384C227.291 235.496 225.835 234.312 224.347 234.312C222.715 234.312 221.403 235.496 221.403 237.384C221.403 239.256 222.715 240.44 224.347 240.44ZM238.514 233.432V241.304H237.282V240.024C236.642 240.968 235.618 241.512 234.306 241.512C232.402 241.512 231.138 240.152 231.138 238.152V233.432H232.37V237.928C232.37 239.4 233.234 240.376 234.546 240.376C236.194 240.376 237.282 239.272 237.282 237.224V233.432H238.514ZM242.05 230.232C242.53 230.232 242.898 230.616 242.898 231.048C242.898 231.512 242.53 231.864 242.05 231.864C241.57 231.864 241.218 231.512 241.218 231.048C241.218 230.616 241.57 230.232 242.05 230.232ZM242.674 241.32H241.442V233.432H242.674V241.32ZM253.179 229V241.32H251.963V240.008C251.275 240.968 250.171 241.528 248.827 241.528C246.731 241.528 244.891 239.88 244.891 237.384C244.891 234.888 246.731 233.24 248.827 233.24C250.171 233.24 251.275 233.8 251.963 234.76V229H253.179ZM249.019 240.44C250.507 240.44 251.963 239.256 251.963 237.384C251.963 235.496 250.507 234.312 249.019 234.312C247.387 234.312 246.075 235.496 246.075 237.384C246.075 239.256 247.387 240.44 249.019 240.44ZM263.234 237.176V237.624H256.466C256.578 239.4 257.922 240.456 259.282 240.456C260.402 240.456 261.41 240.024 261.97 238.76L263.058 239.016C262.434 240.664 261.058 241.528 259.282 241.528C257.186 241.528 255.282 239.912 255.282 237.4C255.282 234.872 257.186 233.24 259.362 233.24C261.49 233.24 263.154 234.824 263.234 237.176ZM259.362 234.312C258.082 234.312 256.754 235.16 256.514 236.712H262.002C261.778 235.16 260.674 234.312 259.362 234.312Z" fill="#1A1816"/>
<path d="M514 236.32C514 226.379 522.059 218.32 532 218.32H572C581.941 218.32 590 226.379 590 236.32V236.32C590 246.261 581.941 254.32 572 254.32H532C522.059 254.32 514 246.261 514 236.32V236.32Z" fill="#1A1816"/>
<path fill-rule="evenodd" clip-rule="evenodd" d="M532 250.32C539.732 250.32 546 244.052 546 236.32C546 228.588 539.732 222.32 532 222.32C524.268 222.32 518 228.588 518 236.32C518 244.052 524.268 250.32 532 250.32Z" fill="white"/>
<path d="M560.352 230.376C563.488 230.376 565.952 232.856 565.952 235.976C565.952 239.08 563.488 241.544 560.352 241.544C557.216 241.544 554.768 239.08 554.768 235.976C554.768 232.856 557.216 230.376 560.352 230.376ZM560.352 239.928C562.528 239.928 564.224 238.232 564.224 235.976C564.224 233.704 562.528 231.992 560.352 231.992C558.192 231.992 556.496 233.704 556.496 235.976C556.496 238.232 558.192 239.928 560.352 239.928ZM572.623 234.76H569.983V241.32H568.319V234.76H567.023V233.384H568.319V231.72C568.319 229.944 569.487 228.84 571.247 228.84C571.743 228.84 572.175 228.936 572.607 229.128L572.207 230.488C571.919 230.376 571.615 230.328 571.359 230.328C570.527 230.328 569.983 230.84 569.983 231.72V233.384H572.623V234.76ZM578.092 234.76H575.452V241.32H573.788V234.76H572.492V233.384H573.788V231.72C573.788 229.944 574.956 228.84 576.716 228.84C577.212 228.84 577.644 228.936 578.076 229.128L577.676 230.488C577.388 230.376 577.084 230.328 576.828 230.328C575.996 230.328 575.452 230.84 575.452 231.72V233.384H578.092V234.76Z" fill="white"/>
<path d="M67.024 289.32H65.424L61.296 284.104L58.672 286.936V289.32H57.408V278.6H58.672V285.384L64.912 278.6H66.384L62.144 283.192L67.024 289.32ZM75.4213 285.176V285.624H68.6533C68.7653 287.4 70.1093 288.456 71.4693 288.456C72.5893 288.456 73.5973 288.024 74.1573 286.76L75.2453 287.016C74.6213 288.664 73.2453 289.528 71.4693 289.528C69.3733 289.528 67.4693 287.912 67.4693 285.4C67.4693 282.872 69.3733 281.24 71.5493 281.24C73.6773 281.24 75.3413 282.824 75.4213 285.176ZM71.5493 282.312C70.2693 282.312 68.9413 283.16 68.7013 284.712H74.1893C73.9653 283.16 72.8613 282.312 71.5493 282.312ZM84.5794 281.432L79.2354 293.16H77.8754L79.6834 289.208L76.1474 281.432H77.5234L80.3394 287.736L83.2194 281.432H84.5794ZM90.635 281.24C92.731 281.24 94.571 282.888 94.571 285.384C94.571 287.88 92.731 289.528 90.635 289.528C89.291 289.528 88.187 288.968 87.499 288.008V289.32H86.283V277H87.499V282.76C88.187 281.8 89.291 281.24 90.635 281.24ZM90.443 288.44C92.075 288.44 93.387 287.256 93.387 285.384C93.387 283.496 92.075 282.312 90.443 282.312C88.955 282.312 87.499 283.496 87.499 285.384C87.499 287.256 88.955 288.44 90.443 288.44ZM100.146 281.256C102.466 281.256 104.322 282.952 104.322 285.368C104.322 287.784 102.466 289.512 100.146 289.512C97.7936 289.512 95.9536 287.784 95.9536 285.368C95.9536 282.952 97.7936 281.256 100.146 281.256ZM100.146 288.44C101.762 288.44 103.122 287.192 103.122 285.368C103.122 283.56 101.762 282.328 100.146 282.328C98.5136 282.328 97.1376 283.56 97.1376 285.368C97.1376 287.192 98.5136 288.44 100.146 288.44ZM109.432 281.24C111.4 281.24 112.696 282.296 112.696 284.2V289.32H111.512V288.12C110.904 288.936 109.912 289.528 108.552 289.528C106.824 289.528 105.688 288.536 105.688 287.112C105.688 285.672 106.792 284.648 108.856 284.648H111.512V284.28C111.512 283.048 110.712 282.312 109.496 282.312C108.296 282.312 107.464 282.904 107.288 283.896L106.12 283.64C106.376 282.216 107.704 281.24 109.432 281.24ZM108.728 288.52C110.264 288.52 111.512 287.448 111.512 286.024V285.608H108.84C107.544 285.608 106.856 286.232 106.856 287.096C106.856 287.928 107.592 288.52 108.728 288.52ZM119.527 281.352C119.719 281.352 119.863 281.352 120.087 281.416L119.991 282.584C119.847 282.568 119.671 282.568 119.527 282.568C117.431 282.568 116.359 284.152 116.359 286.28V289.32H115.127V281.432H116.359V283.368C116.999 282.2 118.071 281.352 119.527 281.352ZM128.992 277V289.32H127.776V288.008C127.088 288.968 125.984 289.528 124.64 289.528C122.544 289.528 120.704 287.88 120.704 285.384C120.704 282.888 122.544 281.24 124.64 281.24C125.984 281.24 127.088 281.8 127.776 282.76V277H128.992ZM124.832 288.44C126.32 288.44 127.776 287.256 127.776 285.384C127.776 283.496 126.32 282.312 124.832 282.312C123.2 282.312 121.888 283.496 121.888 285.384C121.888 287.256 123.2 288.44 124.832 288.44ZM135.174 287.192L136.39 286.92C136.502 287.96 137.462 288.52 138.71 288.52C139.846 288.52 140.598 287.992 140.598 287.176C140.598 286.52 140.102 286.216 139.302 286.04L137.494 285.64C136.182 285.368 135.446 284.712 135.446 283.624C135.446 282.2 136.63 281.24 138.438 281.24C140.214 281.24 141.366 282.152 141.654 283.432L140.486 283.688C140.326 282.824 139.574 282.232 138.406 282.232C137.286 282.232 136.662 282.776 136.662 283.528C136.662 284.152 137.094 284.44 137.862 284.616L139.766 285.032C140.918 285.288 141.798 285.896 141.798 287.096C141.798 288.648 140.502 289.528 138.614 289.528C136.806 289.528 135.366 288.728 135.174 287.192ZM148.131 281.24C150.035 281.24 151.299 282.6 151.299 284.6V289.32H150.083V284.824C150.083 283.352 149.203 282.36 147.891 282.36C146.243 282.36 145.155 283.48 145.155 285.528V289.32H143.939V277H145.155V282.744C145.795 281.784 146.803 281.24 148.131 281.24ZM157.411 281.256C159.731 281.256 161.587 282.952 161.587 285.368C161.587 287.784 159.731 289.512 157.411 289.512C155.059 289.512 153.219 287.784 153.219 285.368C153.219 282.952 155.059 281.256 157.411 281.256ZM157.411 288.44C159.027 288.44 160.387 287.192 160.387 285.368C160.387 283.56 159.027 282.328 157.411 282.328C155.779 282.328 154.403 283.56 154.403 285.368C154.403 287.192 155.779 288.44 157.411 288.44ZM168.074 281.352C168.266 281.352 168.41 281.352 168.634 281.416L168.538 282.584C168.394 282.568 168.218 282.568 168.074 282.568C165.978 282.568 164.906 284.152 164.906 286.28V289.32H163.674V281.432H164.906V283.368C165.546 282.2 166.618 281.352 168.074 281.352ZM174.76 287.896L175.16 288.904C174.52 289.352 173.976 289.528 173.336 289.528C171.768 289.528 170.728 288.6 170.728 286.856V282.456H169.016V281.432H170.728V278.6H171.96V281.432H174.776V282.456H171.96V286.776C171.96 287.8 172.536 288.376 173.416 288.376C173.864 288.376 174.36 288.184 174.76 287.896ZM179.878 288.392C181.046 288.392 182.07 287.768 182.486 286.616L183.606 286.92C183.142 288.488 181.622 289.528 179.878 289.528C177.654 289.528 175.766 287.896 175.766 285.384C175.766 282.904 177.654 281.24 179.878 281.24C181.606 281.24 183.11 282.248 183.622 283.864L182.454 284.216C182.07 283 181.046 282.36 179.878 282.36C178.262 282.36 176.95 283.576 176.95 285.384C176.95 287.224 178.262 288.392 179.878 288.392ZM192.889 281.432V289.304H191.657V288.024C191.017 288.968 189.993 289.512 188.681 289.512C186.777 289.512 185.513 288.152 185.513 286.152V281.432H186.745V285.928C186.745 287.4 187.609 288.376 188.921 288.376C190.569 288.376 191.657 287.272 191.657 285.224V281.432H192.889ZM200.025 287.896L200.425 288.904C199.785 289.352 199.241 289.528 198.601 289.528C197.033 289.528 195.993 288.6 195.993 286.856V282.456H194.281V281.432H195.993V278.6H197.225V281.432H200.041V282.456H197.225V286.776C197.225 287.8 197.801 288.376 198.681 288.376C199.129 288.376 199.625 288.184 200.025 287.896ZM201.314 287.192L202.53 286.92C202.642 287.96 203.602 288.52 204.85 288.52C205.986 288.52 206.738 287.992 206.738 287.176C206.738 286.52 206.242 286.216 205.442 286.04L203.634 285.64C202.322 285.368 201.586 284.712 201.586 283.624C201.586 282.2 202.77 281.24 204.578 281.24C206.354 281.24 207.506 282.152 207.794 283.432L206.626 283.688C206.466 282.824 205.714 282.232 204.546 282.232C203.426 282.232 202.802 282.776 202.802 283.528C202.802 284.152 203.234 284.44 204.002 284.616L205.906 285.032C207.058 285.288 207.938 285.896 207.938 287.096C207.938 288.648 206.642 289.528 204.754 289.528C202.946 289.528 201.506 288.728 201.314 287.192Z" fill="#1A1816"/>
<path d="M514 284.32C514 274.379 522.059 266.32 532 266.32H572C581.941 266.32 590 274.379 590 284.32V284.32C590 294.261 581.941 302.32 572 302.32H532C522.059 302.32 514 294.261 514 284.32V284.32Z" fill="#2A7E3B"/>
<path d="M532.852 278.376C535.988 278.376 538.452 280.856 538.452 283.976C538.452 287.08 535.988 289.544 532.852 289.544C529.716 289.544 527.268 287.08 527.268 283.976C527.268 280.856 529.716 278.376 532.852 278.376ZM532.852 287.928C535.028 287.928 536.724 286.232 536.724 283.976C536.724 281.704 535.028 279.992 532.852 279.992C530.692 279.992 528.996 281.704 528.996 283.976C528.996 286.232 530.692 287.928 532.852 287.928ZM544.883 281.16C546.787 281.16 548.067 282.536 548.067 284.52V289.32H546.387V284.856C546.387 283.56 545.635 282.696 544.499 282.696C543.075 282.696 542.131 283.656 542.131 285.656V289.32H540.467V281.384H542.131V282.36C542.771 281.592 543.699 281.16 544.883 281.16Z" fill="white"/>
<path fill-rule="evenodd" clip-rule="evenodd" d="M571.5 298.32C579.232 298.32 585.5 292.052 585.5 284.32C585.5 276.588 579.232 270.32 571.5 270.32C563.768 270.32 557.5 276.588 557.5 284.32C557.5 292.052 563.768 298.32 571.5 298.32Z" fill="white"/>
<defs>
<clipPath id="clip0_292_15649">
<rect width="67" height="48" fill="white" transform="translate(24 24)"/>
</clipPath>
</defs>
</svg>
