<svg width="267" height="198" viewBox="0 0 267 198" fill="none" xmlns="http://www.w3.org/2000/svg">
<path d="M62.0898 89.2122C62.0898 83.671 66.5819 79.179 72.1231 79.179H256.485C262.026 79.179 266.518 83.671 266.518 89.2122V187.037C266.518 192.578 262.026 197.07 256.485 197.07H72.1231C66.5819 197.07 62.0898 192.578 62.0898 187.037V89.2122Z" fill="#D9D9D9"/>
<rect x="79.957" y="133.108" width="139.212" height="17.5583" rx="8.77913" fill="#1A1816"/>
<rect x="93.7529" y="165.716" width="163.041" height="17.5583" rx="8.77913" fill="#D92228"/>
<rect x="155.206" y="100.5" width="101.587" height="17.5583" rx="8.77913" fill="#D92228"/>
<path fill-rule="evenodd" clip-rule="evenodd" d="M55.0003 100.833C80.3134 100.833 100.834 80.3131 100.834 55.0001C100.834 29.687 80.3134 9.16675 55.0003 9.16675C29.6873 9.16675 9.16699 29.687 9.16699 55.0001C9.16699 80.3131 29.6873 100.833 55.0003 100.833ZM59.5837 32.0834C59.5837 29.5521 57.5316 27.5001 55.0003 27.5001C52.469 27.5001 50.417 29.5521 50.417 32.0834V55.0001C50.417 57.5314 52.469 59.5834 55.0003 59.5834H73.3337C75.865 59.5834 77.917 57.5314 77.917 55.0001C77.917 52.4688 75.865 50.4167 73.3337 50.4167H59.5837V32.0834Z" fill="#1A1816"/>
<path d="M149.253 73.9807C149.444 74.7867 150.252 75.2852 151.058 75.0939C151.864 74.9027 152.363 74.0943 152.172 73.2882L150.712 73.6344L149.253 73.9807ZM103.934 43.9008C103.545 44.6324 103.823 45.5405 104.555 45.9292L116.477 52.2633C117.208 52.652 118.116 52.374 118.505 51.6425C118.894 50.9109 118.616 50.0027 117.884 49.614L107.287 43.9837L112.917 33.3866C113.306 32.655 113.028 31.7468 112.297 31.3581C111.565 30.9694 110.657 31.2474 110.268 31.979L103.934 43.9008ZM150.712 73.6344L152.172 73.2882C150.54 66.4111 146.249 56.6504 138.593 49.7027C130.85 42.6762 119.734 38.6054 104.82 43.1702L105.259 44.6046L105.698 46.0389C119.549 41.7995 129.576 45.5712 136.577 51.9243C143.665 58.3564 147.718 67.5127 149.253 73.9807L150.712 73.6344Z" fill="black"/>
</svg>
