<svg width="316" height="153" viewBox="0 0 316 153" fill="none" xmlns="http://www.w3.org/2000/svg">
<rect y="128.653" width="153.5" height="18.5" fill="#D9D9D9"/>
<rect x="0.5" y="80.1528" width="153" height="71.5" rx="9.5" stroke="black"/>
<path fill-rule="evenodd" clip-rule="evenodd" d="M10.375 91.2778C9.13236 91.2778 8.125 92.2852 8.125 93.5278V100.278C8.125 101.52 9.13236 102.528 10.375 102.528H17.125C18.3676 102.528 19.375 101.52 19.375 100.278V93.5278C19.375 92.2852 18.3676 91.2778 17.125 91.2778H10.375ZM12.625 95.2153C12.625 95.8367 12.1213 96.3403 11.5 96.3403C10.8787 96.3403 10.375 95.8367 10.375 95.2153C10.375 94.594 10.8787 94.0903 11.5 94.0903C12.1213 94.0903 12.625 94.594 12.625 95.2153ZM17.1932 96.9711L18.25 98.0279V100.278C18.25 100.899 17.7463 101.403 17.125 101.403H10.375L14.8068 96.9711C15.4658 96.3121 16.5342 96.3121 17.1932 96.9711Z" fill="#D9D9D9"/>
<path fill-rule="evenodd" clip-rule="evenodd" d="M10.375 110.278C9.13236 110.278 8.125 111.285 8.125 112.528V119.278C8.125 120.52 9.13236 121.528 10.375 121.528H17.125C18.3676 121.528 19.375 120.52 19.375 119.278V112.528C19.375 111.285 18.3676 110.278 17.125 110.278H10.375ZM12.625 114.215C12.625 114.837 12.1213 115.34 11.5 115.34C10.8787 115.34 10.375 114.837 10.375 114.215C10.375 113.594 10.8787 113.09 11.5 113.09C12.1213 113.09 12.625 113.594 12.625 114.215ZM17.1932 115.971L18.25 117.028V119.278C18.25 119.899 17.7463 120.403 17.125 120.403H10.375L14.8068 115.971C15.4658 115.312 16.5342 115.312 17.1932 115.971Z" fill="#D9D9D9"/>
<path fill-rule="evenodd" clip-rule="evenodd" d="M10.375 132.278C9.13236 132.278 8.125 133.285 8.125 134.528V141.278C8.125 142.52 9.13236 143.528 10.375 143.528H17.125C18.3676 143.528 19.375 142.52 19.375 141.278V134.528C19.375 133.285 18.3676 132.278 17.125 132.278H10.375ZM12.625 136.215C12.625 136.837 12.1213 137.34 11.5 137.34C10.8787 137.34 10.375 136.837 10.375 136.215C10.375 135.594 10.8787 135.09 11.5 135.09C12.1213 135.09 12.625 135.594 12.625 136.215ZM17.1932 137.971L18.25 139.028V141.278C18.25 141.899 17.7463 142.403 17.125 142.403H10.375L14.8068 137.971C15.4658 137.312 16.5342 137.312 17.1932 137.971Z" fill="#D92228"/>
<rect x="27" y="112.153" width="56" height="7.5" rx="3.75" fill="#D9D9D9"/>
<rect x="27" y="93.1528" width="113" height="7.5" rx="3.75" fill="#D9D9D9"/>
<rect x="27" y="134.153" width="81" height="7.5" rx="3.75" fill="#F2F0EE"/>
<path d="M305.602 0H162.398C156.934 0 152.5 3.7732 152.5 8.42218V66.1479C152.5 73.3881 159.393 79.2534 167.902 79.2534H300.098C308.607 79.2534 315.5 73.3879 315.5 66.1479V8.42218C315.5 3.7732 311.066 0 305.602 0ZM257.286 13.2085H272.81V26.4167H257.286V13.2085ZM257.286 33.0212H272.81V46.2322H257.286V33.0212ZM233.998 13.2085H249.525V26.4167H233.998V13.2085ZM233.998 33.0212H249.525V46.2322H233.998V33.0212ZM210.714 13.2085H226.237V26.4167H210.714V13.2085ZM210.714 33.0212H226.237V46.2322H210.714V33.0212ZM187.429 13.2085H202.952V26.4167H187.429V13.2085ZM187.429 33.0212H202.952V46.2322H187.429V33.0212ZM179.667 66.0452H164.144V52.837H179.667V66.0452ZM179.667 46.2324H164.144V33.0215H179.667V46.2324ZM179.667 26.417H164.144V13.2088H179.667V26.417ZM280.571 66.0452H187.429V52.837H280.571V66.0452ZM303.856 66.0452H288.332V52.837H303.856V66.0452ZM303.856 46.2324H280.571V13.2085H303.856V46.2324Z" fill="black"/>
<path d="M154.364 114.234C153.56 114.033 152.746 114.521 152.545 115.325C152.344 116.129 152.833 116.943 153.636 117.144L154 115.689L154.364 114.234ZM223.305 85.4486C222.896 84.7281 221.98 84.4755 221.26 84.8844L209.519 91.5481C208.798 91.957 208.546 92.8726 208.955 93.593C209.364 94.3135 210.279 94.5661 211 94.1572L221.436 88.2339L227.359 98.6701C227.768 99.3906 228.684 99.6432 229.404 99.2343C230.125 98.8253 230.377 97.9098 229.968 97.1893L223.305 85.4486ZM154 115.689L153.636 117.144C163.142 119.521 178.011 120.879 191.788 117.188C205.638 113.477 218.472 104.619 223.446 86.5879L222 86.189L220.554 85.7901C215.928 102.559 204.095 110.784 191.012 114.29C177.856 117.815 163.525 116.524 154.364 114.234L154 115.689Z" fill="black"/>
</svg>
