<svg width="480" height="118" viewBox="0 0 480 118" fill="none" xmlns="http://www.w3.org/2000/svg">
<rect x="0.5" y="69.5" width="161" height="47" rx="23.5" fill="#2B2B2B"/>
<rect x="0.5" y="69.5" width="161" height="47" rx="23.5" stroke="#2B2B2B"/>
<path d="M35.12 98H33.264L32.208 95.504H26.992L25.936 98H24.08L28.8 87.28H30.4L35.12 98ZM31.536 93.936L29.6 89.376L27.664 93.936H31.536ZM35.7951 95.872L37.4591 95.52C37.5711 96.464 38.4031 96.864 39.4431 96.864C40.4031 96.864 41.0111 96.432 41.0111 95.808C41.0111 95.328 40.6751 95.024 39.9391 94.864L38.2111 94.512C36.8351 94.208 36.0511 93.472 36.0511 92.352C36.0511 90.88 37.2831 89.84 39.1871 89.84C41.0111 89.84 42.2431 90.8 42.5311 92.128L40.9471 92.464C40.8191 91.696 40.1631 91.168 39.1391 91.168C38.1631 91.168 37.7311 91.648 37.7311 92.208C37.7311 92.656 37.9871 92.944 38.6911 93.104L40.5791 93.52C41.8591 93.792 42.6431 94.544 42.6431 95.664C42.6431 97.328 41.2831 98.224 39.2991 98.224C37.5231 98.224 36.0031 97.472 35.7951 95.872ZM52.9136 98H50.8176L47.8096 94.624L46.1936 96.368V98H44.5296V85.68H46.1936V94.128L50.0816 90.064H52.0336L48.9136 93.44L52.9136 98ZM61.4011 89.84C63.4331 89.84 64.7771 90.912 64.7771 92.832V98H63.1931V97.088C62.6011 97.744 61.7211 98.224 60.4891 98.224C58.7131 98.224 57.5291 97.2 57.5291 95.712C57.5291 94.224 58.6651 93.2 60.7131 93.2H63.1931V92.96C63.1931 91.936 62.5051 91.296 61.4971 91.296C60.4251 91.296 59.7371 91.776 59.5611 92.672L57.9771 92.336C58.2491 90.848 59.6251 89.84 61.4011 89.84ZM60.7451 96.88C62.0731 96.88 63.1931 95.952 63.1931 94.736V94.48H60.6811C59.7051 94.48 59.1291 94.976 59.1291 95.68C59.1291 96.4 59.7691 96.88 60.7451 96.88ZM78.7126 90.064V101.84H77.0326V97.024C76.3606 97.792 75.3846 98.224 74.1526 98.224C72.0886 98.224 70.2166 96.544 70.2166 94.032C70.2166 91.536 72.0886 89.84 74.1526 89.84C75.3846 89.84 76.3606 90.288 77.0326 91.04V90.064H78.7126ZM74.4246 96.752C75.7526 96.752 77.0326 95.712 77.0326 94.032C77.0326 92.368 75.7526 91.312 74.4246 91.312C72.9846 91.312 71.8486 92.368 71.8486 94.032C71.8486 95.712 72.9846 96.752 74.4246 96.752ZM88.4998 90.064V98H86.8358V97.024C86.1958 97.792 85.2678 98.224 84.0998 98.224C82.1798 98.224 80.9158 96.848 80.9158 94.848V90.064H82.5798V94.512C82.5798 95.808 83.3318 96.688 84.4838 96.688C85.9078 96.688 86.8358 95.728 86.8358 93.728V90.064H88.4998ZM98.4216 93.856V94.432H91.9896C92.1496 95.904 93.2216 96.784 94.3896 96.784C95.2696 96.784 96.1656 96.528 96.7256 95.408L98.2136 95.728C97.5576 97.392 96.1496 98.224 94.3896 98.224C92.2296 98.224 90.3416 96.56 90.3416 94.048C90.3416 91.52 92.2136 89.84 94.4536 89.84C96.5816 89.84 98.3416 91.472 98.4216 93.856ZM94.4536 91.312C93.4136 91.312 92.2936 91.968 92.0376 93.248H96.7096C96.4536 91.952 95.5416 91.312 94.4536 91.312ZM99.592 95.872L101.256 95.52C101.368 96.464 102.2 96.864 103.24 96.864C104.2 96.864 104.808 96.432 104.808 95.808C104.808 95.328 104.472 95.024 103.736 94.864L102.008 94.512C100.632 94.208 99.848 93.472 99.848 92.352C99.848 90.88 101.08 89.84 102.984 89.84C104.808 89.84 106.04 90.8 106.328 92.128L104.744 92.464C104.616 91.696 103.96 91.168 102.936 91.168C101.96 91.168 101.528 91.648 101.528 92.208C101.528 92.656 101.784 92.944 102.488 93.104L104.376 93.52C105.656 93.792 106.44 94.544 106.44 95.664C106.44 97.328 105.08 98.224 103.096 98.224C101.32 98.224 99.8 97.472 99.592 95.872ZM113.095 96.224L113.607 97.616C112.855 98.064 112.311 98.224 111.639 98.224C109.927 98.224 108.775 97.264 108.775 95.296V91.44H107.062V90.064H108.775V87.28H110.439V90.064H113.159V91.44H110.439V95.184C110.439 96.176 110.967 96.656 111.751 96.656C112.167 96.656 112.679 96.496 113.095 96.224ZM115.912 86.64C116.52 86.64 116.968 87.12 116.968 87.68C116.968 88.272 116.52 88.704 115.912 88.704C115.288 88.704 114.84 88.272 114.84 87.68C114.84 87.12 115.288 86.64 115.912 86.64ZM116.744 98H115.08V90.064H116.744V98ZM122.973 89.888C125.309 89.888 127.213 91.568 127.213 94.032C127.213 96.496 125.309 98.192 122.973 98.192C120.621 98.192 118.701 96.496 118.701 94.032C118.701 91.568 120.621 89.888 122.973 89.888ZM122.973 96.752C124.333 96.752 125.597 95.68 125.597 94.032C125.597 92.384 124.333 91.312 122.973 91.312C121.581 91.312 120.333 92.384 120.333 94.032C120.333 95.68 121.581 96.752 122.973 96.752ZM133.493 89.84C135.397 89.84 136.677 91.216 136.677 93.2V98H134.997V93.536C134.997 92.24 134.245 91.376 133.109 91.376C131.685 91.376 130.741 92.336 130.741 94.336V98H129.077V90.064H130.741V91.04C131.381 90.272 132.309 89.84 133.493 89.84Z" fill="white"/>
<rect x="170.5" y="69.5" width="173" height="47" rx="23.5" fill="white"/>
<rect x="170.5" y="69.5" width="173" height="47" rx="23.5" stroke="#2B2B2B"/>
<path d="M199.008 87.056C201.184 87.056 202.752 88.24 203.136 90.08L201.424 90.432C201.232 89.296 200.256 88.544 198.976 88.544C197.712 88.544 196.88 89.232 196.88 90.176C196.88 90.928 197.312 91.328 198.24 91.52L200.56 92.016C202.16 92.368 203.312 93.264 203.312 94.944C203.312 96.96 201.664 98.224 199.2 98.224C196.928 98.224 195.04 97.12 194.768 95.04L196.592 94.656C196.848 96.032 197.92 96.704 199.36 96.704C200.8 96.704 201.616 96.016 201.616 95.04C201.616 94.224 201.184 93.84 200.112 93.616L197.776 93.136C196.448 92.832 195.072 92.128 195.072 90.224C195.072 88.336 196.624 87.056 199.008 87.056ZM209.821 89.84C211.725 89.84 213.005 91.216 213.005 93.2V98H211.325V93.536C211.325 92.24 210.573 91.376 209.437 91.376C208.013 91.376 207.069 92.336 207.069 94.336V98H205.405V85.68H207.069V91.04C207.709 90.272 208.637 89.84 209.821 89.84ZM218.526 89.84C220.558 89.84 221.902 90.912 221.902 92.832V98H220.318V97.088C219.726 97.744 218.846 98.224 217.614 98.224C215.838 98.224 214.654 97.2 214.654 95.712C214.654 94.224 215.79 93.2 217.838 93.2H220.318V92.96C220.318 91.936 219.63 91.296 218.622 91.296C217.55 91.296 216.862 91.776 216.686 92.672L215.102 92.336C215.374 90.848 216.75 89.84 218.526 89.84ZM217.87 96.88C219.198 96.88 220.318 95.952 220.318 94.736V94.48H217.806C216.83 94.48 216.254 94.976 216.254 95.68C216.254 96.4 216.894 96.88 217.87 96.88ZM228.765 89.968C228.957 89.968 229.117 89.968 229.325 90.032L229.213 91.632C229.085 91.616 228.893 91.616 228.749 91.616C226.733 91.616 225.741 93.024 225.741 95.2V98H224.077V90.064H225.741V91.76C226.381 90.704 227.389 89.968 228.765 89.968ZM238.047 93.856V94.432H231.615C231.775 95.904 232.847 96.784 234.015 96.784C234.895 96.784 235.791 96.528 236.351 95.408L237.839 95.728C237.183 97.392 235.775 98.224 234.015 98.224C231.855 98.224 229.967 96.56 229.967 94.048C229.967 91.52 231.839 89.84 234.079 89.84C236.207 89.84 237.967 91.472 238.047 93.856ZM234.079 91.312C233.039 91.312 231.919 91.968 231.663 93.248H236.335C236.079 91.952 235.167 91.312 234.079 91.312ZM248.61 96.224L249.122 97.616C248.37 98.064 247.826 98.224 247.154 98.224C245.442 98.224 244.29 97.264 244.29 95.296V91.44H242.578V90.064H244.29V87.28H245.954V90.064H248.674V91.44H245.954V95.184C245.954 96.176 246.482 96.656 247.266 96.656C247.682 96.656 248.194 96.496 248.61 96.224ZM254.883 89.84C256.787 89.84 258.067 91.216 258.067 93.2V98H256.387V93.536C256.387 92.24 255.635 91.376 254.499 91.376C253.075 91.376 252.131 92.336 252.131 94.336V98H250.467V85.68H252.131V91.04C252.771 90.272 253.699 89.84 254.883 89.84ZM261.365 86.64C261.973 86.64 262.421 87.12 262.421 87.68C262.421 88.272 261.973 88.704 261.365 88.704C260.741 88.704 260.293 88.272 260.293 87.68C260.293 87.12 260.741 86.64 261.365 86.64ZM262.197 98H260.533V90.064H262.197V98ZM264.17 95.872L265.834 95.52C265.946 96.464 266.778 96.864 267.818 96.864C268.778 96.864 269.386 96.432 269.386 95.808C269.386 95.328 269.05 95.024 268.314 94.864L266.586 94.512C265.21 94.208 264.426 93.472 264.426 92.352C264.426 90.88 265.658 89.84 267.562 89.84C269.386 89.84 270.618 90.8 270.906 92.128L269.322 92.464C269.194 91.696 268.538 91.168 267.514 91.168C266.538 91.168 266.106 91.648 266.106 92.208C266.106 92.656 266.362 92.944 267.066 93.104L268.954 93.52C270.234 93.792 271.018 94.544 271.018 95.664C271.018 97.328 269.658 98.224 267.674 98.224C265.898 98.224 264.378 97.472 264.17 95.872ZM281.274 89.84C283.178 89.84 284.458 91.216 284.458 93.2V98H282.778V93.536C282.778 92.24 282.026 91.376 280.89 91.376C279.466 91.376 278.522 92.336 278.522 94.336V98H276.858V85.68H278.522V91.04C279.162 90.272 280.09 89.84 281.274 89.84ZM290.379 89.888C292.715 89.888 294.619 91.568 294.619 94.032C294.619 96.496 292.715 98.192 290.379 98.192C288.027 98.192 286.107 96.496 286.107 94.032C286.107 91.568 288.027 89.888 290.379 89.888ZM290.379 96.752C291.739 96.752 293.003 95.68 293.003 94.032C293.003 92.384 291.739 91.312 290.379 91.312C288.987 91.312 287.739 92.384 287.739 94.032C287.739 95.68 288.987 96.752 290.379 96.752ZM306.291 89.84C307.939 89.84 309.299 91.072 309.299 92.944V98H307.651V93.28C307.651 92.112 306.883 91.376 305.859 91.376C304.563 91.376 303.715 92.288 303.715 94.064V98H302.051V93.28C302.051 92.112 301.283 91.376 300.259 91.376C298.979 91.376 298.147 92.288 298.147 94.064V98H296.483V90.064H298.147V90.96C298.723 90.256 299.555 89.84 300.691 89.84C301.827 89.84 302.819 90.368 303.331 91.296C303.971 90.4 304.979 89.84 306.291 89.84ZM319.047 93.856V94.432H312.615C312.775 95.904 313.847 96.784 315.015 96.784C315.895 96.784 316.791 96.528 317.351 95.408L318.839 95.728C318.183 97.392 316.775 98.224 315.015 98.224C312.855 98.224 310.967 96.56 310.967 94.048C310.967 91.52 312.839 89.84 315.079 89.84C317.207 89.84 318.967 91.472 319.047 93.856ZM315.079 91.312C314.039 91.312 312.919 91.968 312.663 93.248H317.335C317.079 91.952 316.167 91.312 315.079 91.312Z" fill="#2B2B2B"/>
<path d="M162.913 21.0303L162.913 20.5303L161.913 20.5303L161.913 21.0303L162.413 21.0303L162.913 21.0303ZM170.391 21.1872L170.391 20.6872L169.391 20.6872L169.391 21.1872L169.891 21.1872L170.391 21.1872ZM161.913 23.6967L161.913 24.1967L162.913 24.1967L162.913 23.6967L162.413 23.6967L161.913 23.6967ZM162.913 29.0296L162.913 28.5296L161.913 28.5296L161.913 29.0296L162.413 29.0296L162.913 29.0296ZM161.913 34.3625L161.913 34.8625L162.913 34.8625L162.913 34.3625L162.413 34.3625L161.913 34.3625ZM162.913 39.6953L162.913 39.1953L161.913 39.1953L161.913 39.6953L162.413 39.6953L162.913 39.6953ZM161.913 45.0282L161.913 45.5282L162.913 45.5282L162.913 45.0282L162.413 45.0282L161.913 45.0282ZM162.913 50.3611L162.913 49.8611L161.913 49.8611L161.913 50.3611L162.413 50.3611L162.913 50.3611ZM161.913 55.6939L161.913 56.1939L162.913 56.1939L162.913 55.6939L162.413 55.6939L161.913 55.6939ZM162.913 61.0268L162.913 60.5268L161.913 60.5268L161.913 61.0268L162.413 61.0268L162.913 61.0268ZM161.913 66.3597L161.913 66.8597L162.913 66.8597L162.913 66.3597L162.413 66.3597L161.913 66.3597ZM162.913 71.6926L162.913 71.1926L161.913 71.1926L161.913 71.6926L162.413 71.6926L162.913 71.6926ZM161.913 77.0254L161.913 77.5254L162.913 77.5254L162.913 77.0254L162.413 77.0254L161.913 77.0254ZM162.913 82.3583L162.913 81.8583L161.913 81.8583L161.913 82.3583L162.413 82.3583L162.913 82.3583ZM161.913 87.6912L161.913 88.1912L162.913 88.1912L162.913 87.6912L162.413 87.6912L161.913 87.6912ZM162.913 93.0241L162.913 92.5241L161.913 92.5241L161.913 93.0241L162.413 93.0241L162.913 93.0241ZM161.913 98.3569L161.913 98.8569L162.913 98.8569L162.913 98.3569L162.413 98.3569L161.913 98.3569ZM162.913 103.69L162.913 103.19L161.913 103.19L161.913 103.69L162.413 103.69L162.913 103.69ZM161.913 109.023L161.913 109.523L162.913 109.523L162.913 109.023L162.413 109.023L161.913 109.023ZM162.913 114.356L162.913 113.856L161.913 113.856L161.913 114.356L162.413 114.356L162.913 114.356ZM169.391 23.8536L169.391 24.3536L170.391 24.3536L170.391 23.8536L169.891 23.8536L169.391 23.8536ZM170.391 29.1865L170.391 28.6865L169.391 28.6865L169.391 29.1865L169.891 29.1865L170.391 29.1865ZM169.391 34.5194L169.391 35.0194L170.391 35.0194L170.391 34.5194L169.891 34.5194L169.391 34.5194ZM170.391 39.8523L170.391 39.3523L169.391 39.3523L169.391 39.8523L169.891 39.8523L170.391 39.8523ZM169.391 45.1851L169.391 45.6851L170.391 45.6851L170.391 45.1851L169.891 45.1851L169.391 45.1851ZM170.391 50.518L170.391 50.018L169.391 50.018L169.391 50.518L169.891 50.518L170.391 50.518ZM169.391 55.8509L169.391 56.3509L170.391 56.3509L170.391 55.8509L169.891 55.8509L169.391 55.8509ZM170.391 61.1838L170.391 60.6838L169.391 60.6838L169.391 61.1838L169.891 61.1838L170.391 61.1838ZM169.391 66.5166L169.391 67.0166L170.391 67.0166L170.391 66.5166L169.891 66.5166L169.391 66.5166ZM170.391 71.8495L170.391 71.3495L169.391 71.3495L169.391 71.8495L169.891 71.8495L170.391 71.8495ZM169.391 77.1824L169.391 77.6824L170.391 77.6824L170.391 77.1824L169.891 77.1824L169.391 77.1824ZM170.391 82.5153L170.391 82.0153L169.391 82.0153L169.391 82.5153L169.891 82.5153L170.391 82.5153ZM169.391 87.8481L169.391 88.3481L170.391 88.3481L170.391 87.8481L169.891 87.8481L169.391 87.8481ZM170.391 93.181L170.391 92.681L169.391 92.681L169.391 93.181L169.891 93.181L170.391 93.181ZM169.391 98.5139L169.391 99.0139L170.391 99.0139L170.391 98.5139L169.891 98.5139L169.391 98.5139ZM170.391 103.847L170.391 103.347L169.391 103.347L169.391 103.847L169.891 103.847L170.391 103.847ZM169.391 109.18L169.391 109.68L170.391 109.68L170.391 109.18L169.891 109.18L169.391 109.18ZM170.391 114.512L170.391 114.012L169.391 114.012L169.391 114.512L169.891 114.512L170.391 114.512ZM162.413 21.0303L161.913 21.0303L161.913 23.6967L162.413 23.6967L162.913 23.6967L162.913 21.0303L162.413 21.0303ZM162.413 29.0296L161.913 29.0296L161.913 34.3625L162.413 34.3625L162.913 34.3625L162.913 29.0296L162.413 29.0296ZM162.413 39.6953L161.913 39.6953L161.913 45.0282L162.413 45.0282L162.913 45.0282L162.913 39.6953L162.413 39.6953ZM162.413 50.3611L161.913 50.3611L161.913 55.6939L162.413 55.6939L162.913 55.6939L162.913 50.3611L162.413 50.3611ZM162.413 61.0268L161.913 61.0268L161.913 66.3597L162.413 66.3597L162.913 66.3597L162.913 61.0268L162.413 61.0268ZM162.413 71.6926L161.913 71.6926L161.913 77.0254L162.413 77.0254L162.913 77.0254L162.913 71.6926L162.413 71.6926ZM162.413 82.3583L161.913 82.3583L161.913 87.6912L162.413 87.6912L162.913 87.6912L162.913 82.3583L162.413 82.3583ZM162.413 93.0241L161.913 93.0241L161.913 98.3569L162.413 98.3569L162.913 98.3569L162.913 93.0241L162.413 93.0241ZM162.413 103.69L161.913 103.69L161.913 109.023L162.413 109.023L162.913 109.023L162.913 103.69L162.413 103.69ZM162.413 114.356L161.913 114.356L161.913 117.022L162.413 117.022L162.913 117.022L162.913 114.356L162.413 114.356ZM169.891 21.1872L169.391 21.1872L169.391 23.8536L169.891 23.8536L170.391 23.8536L170.391 21.1872L169.891 21.1872ZM169.891 29.1865L169.391 29.1865L169.391 34.5194L169.891 34.5194L170.391 34.5194L170.391 29.1865L169.891 29.1865ZM169.891 39.8523L169.391 39.8523L169.391 45.1851L169.891 45.1851L170.391 45.1851L170.391 39.8523L169.891 39.8523ZM169.891 50.518L169.391 50.518L169.391 55.8509L169.891 55.8509L170.391 55.8509L170.391 50.518L169.891 50.518ZM169.891 61.1838L169.391 61.1838L169.391 66.5166L169.891 66.5166L170.391 66.5166L170.391 61.1838L169.891 61.1838ZM169.891 71.8495L169.391 71.8495L169.391 77.1824L169.891 77.1824L170.391 77.1824L170.391 71.8495L169.891 71.8495ZM169.891 82.5153L169.391 82.5153L169.391 87.8481L169.891 87.8481L170.391 87.8481L170.391 82.5153L169.891 82.5153ZM169.891 93.181L169.391 93.181L169.391 98.5139L169.891 98.5139L170.391 98.5139L170.391 93.181L169.891 93.181ZM169.891 103.847L169.391 103.847L169.391 109.18L169.891 109.18L170.391 109.18L170.391 103.847L169.891 103.847ZM169.891 114.512L169.391 114.512L169.391 117.179L169.891 117.179L170.391 117.179L170.391 114.512L169.891 114.512Z" fill="#D92228"/>
<rect width="62.6617" height="38.66" transform="translate(137)" fill="#D92228"/>
<path d="M159.893 18.7613C161.347 19.2185 162.081 20.28 162.081 21.4069C162.081 23.2686 160.448 24.5587 158.015 24.5587C155.565 24.5587 153.916 23.2686 153.916 21.4069C153.916 20.2637 154.667 19.2185 156.121 18.7613C154.863 18.304 154.243 17.3078 154.243 16.1156C154.243 14.3519 155.745 13.1598 158.015 13.1598C160.269 13.1598 161.755 14.3519 161.755 16.1156C161.755 17.2751 161.151 18.2877 159.893 18.7613ZM157.999 14.5805C156.872 14.5805 155.974 15.1848 155.974 16.2626C155.974 17.3078 156.823 17.912 157.982 17.912C159.142 17.912 160.04 17.2751 160.04 16.23C160.04 15.1848 159.109 14.5805 157.999 14.5805ZM157.982 23.0726C159.175 23.0726 160.171 22.4357 160.171 21.2925C160.171 20.1984 159.224 19.5451 157.999 19.5451C156.774 19.5451 155.859 20.1984 155.859 21.3252C155.859 22.452 156.79 23.0726 157.982 23.0726ZM168.602 16.0013C170.725 16.0013 172.619 17.7324 172.619 20.28C172.619 22.844 170.725 24.5587 168.602 24.5587C167.344 24.5587 166.348 24.1178 165.662 23.3339V28.2495H163.964V16.23H165.662V17.2261C166.348 16.4586 167.344 16.0013 168.602 16.0013ZM168.324 23.0563C169.81 23.0563 170.97 21.9948 170.97 20.28C170.97 18.5816 169.81 17.5038 168.324 17.5038C166.985 17.5038 165.662 18.5816 165.662 20.28C165.662 21.9948 166.985 23.0563 168.324 23.0563ZM178.907 20.3617L181.814 24.3301H179.772L177.649 21.4069L175.526 24.3301H173.501L176.408 20.3617L173.501 16.2136H175.526L177.649 19.2838L179.772 16.2136H181.814L178.907 20.3617Z" fill="white"/>
<path d="M162.913 21.0303L162.913 20.5303L161.913 20.5303L161.913 21.0303L162.413 21.0303L162.913 21.0303ZM170.391 21.1872L170.391 20.6872L169.391 20.6872L169.391 21.1872L169.891 21.1872L170.391 21.1872ZM161.913 23.6967L161.913 24.1967L162.913 24.1967L162.913 23.6967L162.413 23.6967L161.913 23.6967ZM162.913 29.0296L162.913 28.5296L161.913 28.5296L161.913 29.0296L162.413 29.0296L162.913 29.0296ZM161.913 34.3625L161.913 34.8625L162.913 34.8625L162.913 34.3625L162.413 34.3625L161.913 34.3625ZM162.913 39.6953L162.913 39.1953L161.913 39.1953L161.913 39.6953L162.413 39.6953L162.913 39.6953ZM161.913 45.0282L161.913 45.5282L162.913 45.5282L162.913 45.0282L162.413 45.0282L161.913 45.0282ZM162.913 50.3611L162.913 49.8611L161.913 49.8611L161.913 50.3611L162.413 50.3611L162.913 50.3611ZM161.913 55.6939L161.913 56.1939L162.913 56.1939L162.913 55.6939L162.413 55.6939L161.913 55.6939ZM162.913 61.0268L162.913 60.5268L161.913 60.5268L161.913 61.0268L162.413 61.0268L162.913 61.0268ZM161.913 66.3597L161.913 66.8597L162.913 66.8597L162.913 66.3597L162.413 66.3597L161.913 66.3597ZM162.913 71.6926L162.913 71.1926L161.913 71.1926L161.913 71.6926L162.413 71.6926L162.913 71.6926ZM161.913 77.0254L161.913 77.5254L162.913 77.5254L162.913 77.0254L162.413 77.0254L161.913 77.0254ZM162.913 82.3583L162.913 81.8583L161.913 81.8583L161.913 82.3583L162.413 82.3583L162.913 82.3583ZM161.913 87.6912L161.913 88.1912L162.913 88.1912L162.913 87.6912L162.413 87.6912L161.913 87.6912ZM162.913 93.0241L162.913 92.5241L161.913 92.5241L161.913 93.0241L162.413 93.0241L162.913 93.0241ZM161.913 98.3569L161.913 98.8569L162.913 98.8569L162.913 98.3569L162.413 98.3569L161.913 98.3569ZM162.913 103.69L162.913 103.19L161.913 103.19L161.913 103.69L162.413 103.69L162.913 103.69ZM161.913 109.023L161.913 109.523L162.913 109.523L162.913 109.023L162.413 109.023L161.913 109.023ZM162.913 114.356L162.913 113.856L161.913 113.856L161.913 114.356L162.413 114.356L162.913 114.356ZM169.391 23.8536L169.391 24.3536L170.391 24.3536L170.391 23.8536L169.891 23.8536L169.391 23.8536ZM170.391 29.1865L170.391 28.6865L169.391 28.6865L169.391 29.1865L169.891 29.1865L170.391 29.1865ZM169.391 34.5194L169.391 35.0194L170.391 35.0194L170.391 34.5194L169.891 34.5194L169.391 34.5194ZM170.391 39.8523L170.391 39.3523L169.391 39.3523L169.391 39.8523L169.891 39.8523L170.391 39.8523ZM169.391 45.1851L169.391 45.6851L170.391 45.6851L170.391 45.1851L169.891 45.1851L169.391 45.1851ZM170.391 50.518L170.391 50.018L169.391 50.018L169.391 50.518L169.891 50.518L170.391 50.518ZM169.391 55.8509L169.391 56.3509L170.391 56.3509L170.391 55.8509L169.891 55.8509L169.391 55.8509ZM170.391 61.1838L170.391 60.6838L169.391 60.6838L169.391 61.1838L169.891 61.1838L170.391 61.1838ZM169.391 66.5166L169.391 67.0166L170.391 67.0166L170.391 66.5166L169.891 66.5166L169.391 66.5166ZM170.391 71.8495L170.391 71.3495L169.391 71.3495L169.391 71.8495L169.891 71.8495L170.391 71.8495ZM169.391 77.1824L169.391 77.6824L170.391 77.6824L170.391 77.1824L169.891 77.1824L169.391 77.1824ZM170.391 82.5153L170.391 82.0153L169.391 82.0153L169.391 82.5153L169.891 82.5153L170.391 82.5153ZM169.391 87.8481L169.391 88.3481L170.391 88.3481L170.391 87.8481L169.891 87.8481L169.391 87.8481ZM170.391 93.181L170.391 92.681L169.391 92.681L169.391 93.181L169.891 93.181L170.391 93.181ZM169.391 98.5139L169.391 99.0139L170.391 99.0139L170.391 98.5139L169.891 98.5139L169.391 98.5139ZM170.391 103.847L170.391 103.347L169.391 103.347L169.391 103.847L169.891 103.847L170.391 103.847ZM169.391 109.18L169.391 109.68L170.391 109.68L170.391 109.18L169.891 109.18L169.391 109.18ZM170.391 114.512L170.391 114.012L169.391 114.012L169.391 114.512L169.891 114.512L170.391 114.512ZM162.413 21.0303L161.913 21.0303L161.913 23.6967L162.413 23.6967L162.913 23.6967L162.913 21.0303L162.413 21.0303ZM162.413 29.0296L161.913 29.0296L161.913 34.3625L162.413 34.3625L162.913 34.3625L162.913 29.0296L162.413 29.0296ZM162.413 39.6953L161.913 39.6953L161.913 45.0282L162.413 45.0282L162.913 45.0282L162.913 39.6953L162.413 39.6953ZM162.413 50.3611L161.913 50.3611L161.913 55.6939L162.413 55.6939L162.913 55.6939L162.913 50.3611L162.413 50.3611ZM162.413 61.0268L161.913 61.0268L161.913 66.3597L162.413 66.3597L162.913 66.3597L162.913 61.0268L162.413 61.0268ZM162.413 71.6926L161.913 71.6926L161.913 77.0254L162.413 77.0254L162.913 77.0254L162.913 71.6926L162.413 71.6926ZM162.413 82.3583L161.913 82.3583L161.913 87.6912L162.413 87.6912L162.913 87.6912L162.913 82.3583L162.413 82.3583ZM162.413 93.0241L161.913 93.0241L161.913 98.3569L162.413 98.3569L162.913 98.3569L162.913 93.0241L162.413 93.0241ZM162.413 103.69L161.913 103.69L161.913 109.023L162.413 109.023L162.913 109.023L162.913 103.69L162.413 103.69ZM162.413 114.356L161.913 114.356L161.913 117.022L162.413 117.022L162.913 117.022L162.913 114.356L162.413 114.356ZM169.891 21.1872L169.391 21.1872L169.391 23.8536L169.891 23.8536L170.391 23.8536L170.391 21.1872L169.891 21.1872ZM169.891 29.1865L169.391 29.1865L169.391 34.5194L169.891 34.5194L170.391 34.5194L170.391 29.1865L169.891 29.1865ZM169.891 39.8523L169.391 39.8523L169.391 45.1851L169.891 45.1851L170.391 45.1851L170.391 39.8523L169.891 39.8523ZM169.891 50.518L169.391 50.518L169.391 55.8509L169.891 55.8509L170.391 55.8509L170.391 50.518L169.891 50.518ZM169.891 61.1838L169.391 61.1838L169.391 66.5166L169.891 66.5166L170.391 66.5166L170.391 61.1838L169.891 61.1838ZM169.891 71.8495L169.391 71.8495L169.391 77.1824L169.891 77.1824L170.391 77.1824L170.391 71.8495L169.891 71.8495ZM169.891 82.5153L169.391 82.5153L169.391 87.8481L169.891 87.8481L170.391 87.8481L170.391 82.5153L169.891 82.5153ZM169.891 93.181L169.391 93.181L169.391 98.5139L169.891 98.5139L170.391 98.5139L170.391 93.181L169.891 93.181ZM169.891 103.847L169.391 103.847L169.391 109.18L169.891 109.18L170.391 109.18L170.391 103.847L169.891 103.847ZM169.891 114.512L169.391 114.512L169.391 117.179L169.891 117.179L170.391 117.179L170.391 114.512L169.891 114.512Z" fill="#D92228"/>
<path d="M406.523 69.6049L407.023 69.6049L407.023 68.6049L406.523 68.6049L406.523 69.1049L406.523 69.6049ZM406.523 116.948L407.023 116.948L407.023 115.948L406.523 115.948L406.523 116.448L406.523 116.948ZM403.857 68.6049L403.357 68.6049L403.357 69.6049L403.857 69.6049L403.857 69.1049L403.857 68.6049ZM398.524 69.6049L399.024 69.6049L399.024 68.6049L398.524 68.6049L398.524 69.1049L398.524 69.6049ZM393.191 68.6049L392.691 68.6049L392.691 69.6049L393.191 69.6049L393.191 69.1049L393.191 68.6049ZM387.858 69.6049L388.358 69.6049L388.358 68.6049L387.858 68.6049L387.858 69.1049L387.858 69.6049ZM382.526 68.6049L382.026 68.6049L382.026 69.6049L382.526 69.6049L382.526 69.1049L382.526 68.6049ZM377.193 69.6049L377.693 69.6049L377.693 68.6049L377.193 68.6049L377.193 69.1049L377.193 69.6049ZM371.86 68.6049L371.36 68.6049L371.36 69.6049L371.86 69.6049L371.86 69.1049L371.86 68.6049ZM366.527 69.6049L367.027 69.6049L367.027 68.6049L366.527 68.6049L366.527 69.1049L366.527 69.6049ZM361.194 68.6049L360.694 68.6049L360.694 69.6049L361.194 69.6049L361.194 69.1049L361.194 68.6049ZM355.861 69.6048L356.361 69.6048L356.361 68.6048L355.861 68.6048L355.861 69.1048L355.861 69.6048ZM350.528 68.6048L350.028 68.6048L350.028 69.6048L350.528 69.6048L350.528 69.1048L350.528 68.6048ZM345.195 69.6048L345.695 69.6048L345.695 68.6048L345.195 68.6048L345.195 69.1048L345.195 69.6048ZM339.863 68.6048L339.363 68.6048L339.363 69.6048L339.863 69.6048L339.863 69.1048L339.863 68.6048ZM334.53 69.6048L335.03 69.6048L335.03 68.6048L334.53 68.6048L334.53 69.1048L334.53 69.6048ZM329.197 68.6048L328.697 68.6048L328.697 69.6048L329.197 69.6048L329.197 69.1048L329.197 68.6048ZM323.864 69.6048L324.364 69.6048L324.364 68.6048L323.864 68.6048L323.864 69.1048L323.864 69.6048ZM318.531 68.6048L318.031 68.6048L318.031 69.6048L318.531 69.6048L318.531 69.1048L318.531 68.6048ZM313.198 69.6048L313.698 69.6048L313.698 68.6048L313.198 68.6048L313.198 69.1048L313.198 69.6048ZM403.857 115.948L403.357 115.948L403.357 116.948L403.857 116.948L403.857 116.448L403.857 115.948ZM398.524 116.948L399.024 116.948L399.024 115.948L398.524 115.948L398.524 116.448L398.524 116.948ZM393.191 115.948L392.691 115.948L392.691 116.948L393.191 116.948L393.191 116.448L393.191 115.948ZM387.858 116.948L388.358 116.948L388.358 115.948L387.858 115.948L387.858 116.448L387.858 116.948ZM382.526 115.948L382.026 115.948L382.026 116.948L382.526 116.948L382.526 116.448L382.526 115.948ZM377.193 116.948L377.693 116.948L377.693 115.948L377.193 115.948L377.193 116.448L377.193 116.948ZM371.86 115.948L371.36 115.948L371.36 116.948L371.86 116.948L371.86 116.448L371.86 115.948ZM366.527 116.948L367.027 116.948L367.027 115.948L366.527 115.948L366.527 116.448L366.527 116.948ZM361.194 115.948L360.694 115.948L360.694 116.948L361.194 116.948L361.194 116.448L361.194 115.948ZM355.861 116.948L356.361 116.948L356.361 115.948L355.861 115.948L355.861 116.448L355.861 116.948ZM350.528 115.948L350.028 115.948L350.028 116.948L350.528 116.948L350.528 116.448L350.528 115.948ZM345.195 116.948L345.695 116.948L345.695 115.948L345.195 115.948L345.195 116.448L345.195 116.948ZM339.863 115.948L339.363 115.948L339.363 116.948L339.863 116.948L339.863 116.448L339.863 115.948ZM334.53 116.948L335.03 116.948L335.03 115.948L334.53 115.948L334.53 116.448L334.53 116.948ZM329.197 115.948L328.697 115.948L328.697 116.948L329.197 116.948L329.197 116.448L329.197 115.948ZM323.864 116.948L324.364 116.948L324.364 115.948L323.864 115.948L323.864 116.448L323.864 116.948ZM318.531 115.948L318.031 115.948L318.031 116.948L318.531 116.948L318.531 116.448L318.531 115.948ZM313.198 116.948L313.698 116.948L313.698 115.948L313.198 115.948L313.198 116.448L313.198 116.948ZM406.523 69.1049L406.523 68.6049L403.857 68.6049L403.857 69.1049L403.857 69.6049L406.523 69.6049L406.523 69.1049ZM398.524 69.1049L398.524 68.6049L393.191 68.6049L393.191 69.1049L393.191 69.6049L398.524 69.6049L398.524 69.1049ZM387.858 69.1049L387.858 68.6049L382.526 68.6049L382.526 69.1049L382.526 69.6049L387.858 69.6049L387.858 69.1049ZM377.193 69.1049L377.193 68.6049L371.86 68.6049L371.86 69.1049L371.86 69.6049L377.193 69.6049L377.193 69.1049ZM366.527 69.1049L366.527 68.6049L361.194 68.6049L361.194 69.1049L361.194 69.6049L366.527 69.6049L366.527 69.1049ZM355.861 69.1048L355.861 68.6048L350.528 68.6048L350.528 69.1048L350.528 69.6048L355.861 69.6048L355.861 69.1048ZM345.195 69.1048L345.195 68.6048L339.863 68.6048L339.863 69.1048L339.863 69.6048L345.195 69.6048L345.195 69.1048ZM334.53 69.1048L334.53 68.6048L329.197 68.6048L329.197 69.1048L329.197 69.6048L334.53 69.6048L334.53 69.1048ZM323.864 69.1048L323.864 68.6048L318.531 68.6048L318.531 69.1048L318.531 69.6048L323.864 69.6048L323.864 69.1048ZM313.198 69.1048L313.198 68.6048L310.532 68.6048L310.532 69.1048L310.532 69.6048L313.198 69.6048L313.198 69.1048ZM406.523 116.448L406.523 115.948L403.857 115.948L403.857 116.448L403.857 116.948L406.523 116.948L406.523 116.448ZM398.524 116.448L398.524 115.948L393.191 115.948L393.191 116.448L393.191 116.948L398.524 116.948L398.524 116.448ZM387.858 116.448L387.858 115.948L382.526 115.948L382.526 116.448L382.526 116.948L387.858 116.948L387.858 116.448ZM377.193 116.448L377.193 115.948L371.86 115.948L371.86 116.448L371.86 116.948L377.193 116.948L377.193 116.448ZM366.527 116.448L366.527 115.948L361.194 115.948L361.194 116.448L361.194 116.948L366.527 116.948L366.527 116.448ZM355.861 116.448L355.861 115.948L350.528 115.948L350.528 116.448L350.528 116.948L355.861 116.948L355.861 116.448ZM345.195 116.448L345.195 115.948L339.863 115.948L339.863 116.448L339.863 116.948L345.195 116.948L345.195 116.448ZM334.53 116.448L334.53 115.948L329.197 115.948L329.197 116.448L329.197 116.948L334.53 116.948L334.53 116.448ZM323.864 116.448L323.864 115.948L318.531 115.948L318.531 116.448L318.531 116.948L323.864 116.948L323.864 116.448ZM313.198 116.448L313.198 115.948L310.532 115.948L310.532 116.448L310.532 116.948L313.198 116.948L313.198 116.448Z" fill="#D92228"/>
<rect width="62.6617" height="38.66" transform="translate(137)" fill="#D92228"/>
<path d="M159.893 18.7613C161.347 19.2185 162.081 20.28 162.081 21.4069C162.081 23.2686 160.448 24.5587 158.015 24.5587C155.565 24.5587 153.916 23.2686 153.916 21.4069C153.916 20.2637 154.667 19.2185 156.121 18.7613C154.863 18.304 154.243 17.3078 154.243 16.1156C154.243 14.3519 155.745 13.1598 158.015 13.1598C160.269 13.1598 161.755 14.3519 161.755 16.1156C161.755 17.2751 161.151 18.2877 159.893 18.7613ZM157.999 14.5805C156.872 14.5805 155.974 15.1848 155.974 16.2626C155.974 17.3078 156.823 17.912 157.982 17.912C159.142 17.912 160.04 17.2751 160.04 16.23C160.04 15.1848 159.109 14.5805 157.999 14.5805ZM157.982 23.0726C159.175 23.0726 160.171 22.4357 160.171 21.2925C160.171 20.1984 159.224 19.5451 157.999 19.5451C156.774 19.5451 155.859 20.1984 155.859 21.3252C155.859 22.452 156.79 23.0726 157.982 23.0726ZM168.602 16.0013C170.725 16.0013 172.619 17.7324 172.619 20.28C172.619 22.844 170.725 24.5587 168.602 24.5587C167.344 24.5587 166.348 24.1178 165.662 23.3339V28.2495H163.964V16.23H165.662V17.2261C166.348 16.4586 167.344 16.0013 168.602 16.0013ZM168.324 23.0563C169.81 23.0563 170.97 21.9948 170.97 20.28C170.97 18.5816 169.81 17.5038 168.324 17.5038C166.985 17.5038 165.662 18.5816 165.662 20.28C165.662 21.9948 166.985 23.0563 168.324 23.0563ZM178.907 20.3617L181.814 24.3301H179.772L177.649 21.4069L175.526 24.3301H173.501L176.408 20.3617L173.501 16.2136H175.526L177.649 19.2838L179.772 16.2136H181.814L178.907 20.3617Z" fill="white"/>
<rect width="72.6617" height="38.66" transform="translate(406.523 73.4463)" fill="#D92228"/>
<path d="M432.487 95.3594H430.952V97.7764H429.237V95.3594H423.309V93.7263L428.665 86.8347H430.952V93.9223H432.487V95.3594ZM429.237 93.9223V88.5984L425.236 93.9223H429.237ZM439.512 92.2075C440.965 92.6648 441.7 93.7263 441.7 94.8531C441.7 96.7149 440.067 98.005 437.634 98.005C435.184 98.005 433.535 96.7149 433.535 94.8531C433.535 93.71 434.286 92.6648 435.739 92.2075C434.482 91.7503 433.861 90.7541 433.861 89.5619C433.861 87.7982 435.364 86.6061 437.634 86.6061C439.887 86.6061 441.373 87.7982 441.373 89.5619C441.373 90.7214 440.769 91.7339 439.512 92.2075ZM437.617 88.0268C436.491 88.0268 435.592 88.6311 435.592 89.7089C435.592 90.7541 436.442 91.3583 437.601 91.3583C438.761 91.3583 439.659 90.7214 439.659 89.6763C439.659 88.6311 438.728 88.0268 437.617 88.0268ZM437.601 96.5189C438.793 96.5189 439.789 95.882 439.789 94.7388C439.789 93.6447 438.842 92.9914 437.617 92.9914C436.393 92.9914 435.478 93.6447 435.478 94.7715C435.478 95.8983 436.409 96.5189 437.601 96.5189ZM448.22 89.4476C450.343 89.4476 452.238 91.1787 452.238 93.7263C452.238 96.2903 450.343 98.005 448.22 98.005C446.963 98.005 445.967 97.5641 445.281 96.7802V101.696H443.582V89.6763H445.281V90.6724C445.967 89.9049 446.963 89.4476 448.22 89.4476ZM447.943 96.5026C449.429 96.5026 450.588 95.4411 450.588 93.7263C450.588 92.0279 449.429 90.9501 447.943 90.9501C446.604 90.9501 445.281 92.0279 445.281 93.7263C445.281 95.4411 446.604 96.5026 447.943 96.5026ZM458.525 93.808L461.432 97.7764H459.391L457.268 94.8531L455.145 97.7764H453.12L456.027 93.808L453.12 89.6599H455.145L457.268 92.7301L459.391 89.6599H461.432L458.525 93.808Z" fill="white"/>
</svg>
