<svg width="809" height="561" viewBox="0 0 809 561" fill="none" xmlns="http://www.w3.org/2000/svg">
<path d="M15.5 0.5H793.5C801.85 0.5 808.5 6.39638 808.5 13.5322V546.962C808.5 554.097 801.85 559.994 793.5 559.994H15.5C7.15023 559.994 0.5 554.097 0.5 546.962V13.5322C0.5 6.39638 7.15022 0.5 15.5 0.5Z" fill="white" stroke="#D3CFCA"/>
<path fill-rule="evenodd" clip-rule="evenodd" d="M59.5 55.5C59.5 59.9183 55.918 63.5 51.5 63.5C47.082 63.5 43.5 59.9183 43.5 55.5C43.5 51.0818 47.082 47.5 51.5 47.5C55.918 47.5 59.5 51.0818 59.5 55.5ZM61.5 55.5C61.5 61.0229 57.023 65.5 51.5 65.5C45.977 65.5 41.5 61.0229 41.5 55.5C41.5 49.9772 45.977 45.5 51.5 45.5C57.023 45.5 61.5 49.9772 61.5 55.5ZM50.03 59.5438C49.364 59.9601 48.5 59.4812 48.5 58.6958V52.3043C48.5 51.5189 49.364 51.04 50.03 51.4563L55.143 54.652C55.77 55.0437 55.77 55.9564 55.143 56.348L50.03 59.5438Z" fill="#1A1816"/>
<path d="M88.7543 47.4195L81.8183 63.4995H78.6743L71.7383 47.4195H75.3383L80.2343 59.1315L85.1543 47.4195H88.7543ZM92.1743 46.0515C93.2783 46.0515 94.0943 46.9395 94.0943 47.9475C94.0943 49.0035 93.2783 49.7955 92.1743 49.7955C91.0463 49.7955 90.2543 49.0035 90.2543 47.9475C90.2543 46.9395 91.0463 46.0515 92.1743 46.0515ZM93.7583 63.4995H90.5903V51.5235H93.7583V63.4995ZM109.098 45.0195V63.4995H105.93V62.4675C104.97 63.3555 103.65 63.8595 101.97 63.8595C98.9223 63.8595 96.0903 61.2915 96.0903 57.5235C96.0903 53.7555 98.9223 51.1635 101.97 51.1635C103.65 51.1635 104.97 51.6675 105.93 52.5555V45.0195H109.098ZM102.522 61.0995C104.226 61.0995 105.93 59.7315 105.93 57.5235C105.93 55.3155 104.226 53.9235 102.522 53.9235C100.602 53.9235 99.1623 55.3155 99.1623 57.5235C99.1623 59.7315 100.602 61.0995 102.522 61.0995ZM123.512 57.2835V58.3635H114.392C114.704 60.0915 115.928 61.1475 117.392 61.1475C118.328 61.1475 119.504 61.0275 120.368 59.5635L123.2 60.1635C122.144 62.6595 120.008 63.8595 117.392 63.8595C114.008 63.8595 111.248 61.2915 111.248 57.5235C111.248 53.7555 114.008 51.1635 117.44 51.1635C120.632 51.1635 123.392 53.6355 123.512 57.2835ZM117.44 53.9235C116.24 53.9235 114.872 54.6435 114.488 56.1315H120.272C119.864 54.5955 118.712 53.9235 117.44 53.9235ZM131.247 51.2355C134.751 51.2355 137.703 53.7555 137.703 57.5235C137.703 61.2915 134.751 63.8115 131.247 63.8115C127.671 63.8115 124.719 61.2915 124.719 57.5235C124.719 53.7555 127.671 51.2355 131.247 51.2355ZM131.247 61.0995C132.903 61.0995 134.631 59.7555 134.631 57.5235C134.631 55.2915 132.903 53.9475 131.247 53.9475C129.519 53.9475 127.791 55.2915 127.791 57.5235C127.791 59.7555 129.519 61.0995 131.247 61.0995Z" fill="#1A1816"/>
<path d="M721.5 55.5C721.5 42.2452 732.25 31.5 745.5 31.5C758.75 31.5 769.5 42.2452 769.5 55.5C769.5 68.7549 758.75 79.5005 745.5 79.5005C732.25 79.5005 721.5 68.7549 721.5 55.5Z" fill="#F2F0EF"/>
<path d="M748.5 63.5C748.5 61.8432 747.16 60.5 745.5 60.5C743.84 60.5 742.5 61.8432 742.5 63.5C742.5 65.1569 743.84 66.5 745.5 66.5C747.16 66.5 748.5 65.1569 748.5 63.5Z" fill="#1A1816"/>
<path d="M745.5 52.5C747.16 52.5 748.5 53.8432 748.5 55.5C748.5 57.1569 747.16 58.5 745.5 58.5C743.84 58.5 742.5 57.1569 742.5 55.5C742.5 53.8432 743.84 52.5 745.5 52.5Z" fill="#1A1816"/>
<path d="M745.5 44.5C747.16 44.5 748.5 45.8432 748.5 47.5C748.5 49.1569 747.16 50.5 745.5 50.5C743.84 50.5 742.5 49.1569 742.5 47.5C742.5 45.8432 743.84 44.5 745.5 44.5Z" fill="#1A1816"/>
<path d="M769.5 103.5H39.5V514.5H769.5V103.5Z" fill="black"/>
<g clip-path="url(#clip0_300_12317)">
<g filter="url(#filter0_d_300_12317)">
<path d="M336.84 332.582L419.605 364.927L341.824 372.804L394.962 454.973L324.674 402.583L346.55 499.386L303.388 427.478L258.972 515.521L257.38 427.888L169.802 444.023L251.486 395.9L165.593 364.132L254.626 364.668L175.017 309.962L266.464 345.548L220.669 272.512L296.96 339.93L279.712 246.307L336.84 332.582Z" fill="#CBEE4C"/>
</g>
<path d="M605.15 239.81L534.988 305.747L563.482 225.969L458.367 239.727L542.332 195.327L437.45 171.684L527.884 162.913L462.425 78.4755L548.896 117.701L573.871 24.4923L582.932 126.82L653.985 57.5544L612.024 144.427L702.593 91.986L625.219 164.91L717.983 154.088L616.523 197.366L716.139 224.059L605.15 239.81Z" fill="#FC0D55"/>
<path fill-rule="evenodd" clip-rule="evenodd" d="M278.513 165.153C269.508 174.117 257.099 177.572 245.47 175.528C247.462 187.166 243.953 199.56 234.95 208.524C225.946 217.489 213.537 220.944 201.907 218.899C203.901 230.537 200.392 242.932 191.388 251.896C182.385 260.86 169.975 264.315 158.345 262.271C160.339 273.909 156.829 286.303 147.826 295.267C138.822 304.232 126.413 307.687 114.783 305.642C116.777 317.28 113.267 329.675 104.264 338.639C89.561 353.277 65.7759 353.225 51.1376 338.523C36.4991 323.821 36.5513 300.035 51.254 285.397C60.2576 276.433 72.6671 272.978 84.2967 275.022C82.3032 263.383 85.8125 250.989 94.816 242.024C103.82 233.06 116.229 229.605 127.859 231.65C125.866 220.012 129.375 207.617 138.378 198.653C147.382 189.689 159.791 186.234 171.421 188.278C169.427 176.64 172.937 164.246 181.94 155.282C190.943 146.317 203.354 142.862 214.983 144.907C212.989 133.269 216.499 120.874 225.503 111.91C240.205 97.2717 263.99 97.3238 278.629 112.026C293.267 126.729 293.215 150.514 278.513 165.153Z" fill="url(#paint0_radial_300_12317)"/>
<path d="M652.653 272.382L664.46 352.459L699.355 279.418L687.025 359.417L741.907 299.903L706.537 372.714L776.528 332.015L721.261 391.17L800.143 372.902L729.888 413.145L810.652 418.93L731.652 436.684L807.123 466.01L726.398 459.699L789.868 509.959L714.591 480.143L760.421 546.871L697.28 496.198L721.398 573.466L676.004 506.44L676.268 587.382L652.653 509.959L629.038 587.382L629.302 506.44L583.907 573.466L608.026 496.198L544.884 546.871L590.715 480.143L515.437 509.959L578.907 459.699L498.182 466.01L573.652 436.684L494.652 418.93L575.417 413.145L505.162 372.902L584.045 391.17L528.777 332.015L598.768 372.714L563.398 299.903L618.28 359.417L605.951 279.418L640.846 352.459L652.653 272.382Z" fill="url(#paint1_radial_300_12317)"/>
</g>
<rect opacity="0.6" x="41.5" y="103.5" width="728.164" height="411" fill="black"/>
<path fill-rule="evenodd" clip-rule="evenodd" d="M400.878 333.355C415.605 333.355 427.544 321.416 427.544 306.689C427.544 291.961 415.605 280.022 400.878 280.022C386.15 280.022 374.211 291.961 374.211 306.689C374.211 321.416 386.15 333.355 400.878 333.355ZM396.958 317.472C395.181 318.582 392.878 317.305 392.878 315.211V298.167C392.878 296.072 395.181 294.795 396.958 295.905L410.593 304.427C412.264 305.472 412.264 307.906 410.593 308.95L396.958 317.472Z" fill="white"/>
<path d="M51.5 130.277C51.5 123.65 56.8726 118.277 63.5 118.277H222.5C229.127 118.277 234.5 123.65 234.5 130.277V130.277C234.5 136.905 229.127 142.277 222.5 142.277H63.5C56.8726 142.277 51.5 136.905 51.5 130.277V130.277Z" fill="#E9E7E4"/>
<path fill-rule="evenodd" clip-rule="evenodd" d="M67.4993 127.61C66.0266 127.61 64.8327 128.804 64.8327 130.277C64.8327 131.75 66.0266 132.944 67.4993 132.944C68.9721 132.944 70.166 131.75 70.166 130.277C70.166 128.804 68.9721 127.61 67.4993 127.61ZM66.166 130.277C66.166 129.541 66.7629 128.944 67.4993 128.944C68.2357 128.944 68.8327 129.541 68.8327 130.277C68.8327 131.013 68.2357 131.61 67.4993 131.61C66.7629 131.61 66.166 131.013 66.166 130.277Z" fill="#1A1816"/>
<path fill-rule="evenodd" clip-rule="evenodd" d="M67.4993 125.61C64.6431 125.61 62.1599 127.214 61.0779 129.551C60.8647 130.012 60.8647 130.543 61.0779 131.003C62.1599 133.34 64.6431 134.944 67.4993 134.944C70.3555 134.944 72.8387 133.34 73.9208 131.003C74.134 130.543 74.134 130.011 73.9208 129.551C72.8387 127.214 70.3555 125.61 67.4993 125.61ZM62.2878 130.111C63.1414 128.268 65.1381 126.944 67.4993 126.944C69.8605 126.944 71.8572 128.268 72.7109 130.111C72.7595 130.216 72.7595 130.338 72.7109 130.443C71.8572 132.286 69.8605 133.61 67.4993 133.61C65.1381 133.61 63.1414 132.286 62.2878 130.443C62.2391 130.338 62.2391 130.216 62.2878 130.111Z" fill="#1A1816"/>
<path d="M91.2792 126.237L88.8672 134.277H87.4992L85.6992 128.301L83.8872 134.277H82.5192L80.1192 126.237H81.4632L83.2272 132.297L85.0752 126.237H86.3112L88.1592 132.297L89.9232 126.237H91.2792ZM94.3262 128.157C95.8502 128.157 96.8582 128.961 96.8582 130.401V134.277H95.6702V133.593C95.2262 134.085 94.5662 134.445 93.6422 134.445C92.3102 134.445 91.4222 133.677 91.4222 132.561C91.4222 131.445 92.2742 130.677 93.8102 130.677H95.6702V130.497C95.6702 129.729 95.1542 129.249 94.3982 129.249C93.5942 129.249 93.0782 129.609 92.9462 130.281L91.7582 130.029C91.9622 128.913 92.9942 128.157 94.3262 128.157ZM93.8342 133.437C94.8302 133.437 95.6702 132.741 95.6702 131.829V131.637H93.7862C93.0542 131.637 92.6222 132.009 92.6222 132.537C92.6222 133.077 93.1022 133.437 93.8342 133.437ZM102.005 128.253C102.149 128.253 102.269 128.253 102.425 128.301L102.341 129.501C102.245 129.489 102.101 129.489 101.993 129.489C100.481 129.489 99.737 130.545 99.737 132.177V134.277H98.489V128.325H99.737V129.597C100.217 128.805 100.973 128.253 102.005 128.253ZM106.84 128.157C108.268 128.157 109.228 129.189 109.228 130.677V134.277H107.968V130.929C107.968 129.957 107.404 129.309 106.552 129.309C105.484 129.309 104.776 130.029 104.776 131.529V134.277H103.528V128.325H104.776V129.057C105.256 128.481 105.952 128.157 106.84 128.157ZM111.689 125.757C112.145 125.757 112.481 126.117 112.481 126.537C112.481 126.981 112.145 127.305 111.689 127.305C111.221 127.305 110.885 126.981 110.885 126.537C110.885 126.117 111.221 125.757 111.689 125.757ZM112.313 134.277H111.065V128.325H112.313V134.277ZM117.61 128.157C119.038 128.157 119.998 129.189 119.998 130.677V134.277H118.738V130.929C118.738 129.957 118.174 129.309 117.322 129.309C116.254 129.309 115.546 130.029 115.546 131.529V134.277H114.298V128.325H115.546V129.057C116.026 128.481 116.722 128.157 117.61 128.157ZM127.595 128.325V134.469C127.583 136.233 126.179 137.277 124.343 137.277C122.915 137.277 121.931 136.737 121.439 135.849L122.471 135.009C122.903 135.693 123.407 136.053 124.343 136.053C125.447 136.053 126.335 135.417 126.335 134.289V133.545C125.831 134.121 125.099 134.445 124.175 134.445C122.627 134.445 121.223 133.185 121.223 131.301C121.223 129.429 122.627 128.157 124.175 128.157C125.099 128.157 125.831 128.493 126.335 129.057V128.325H127.595ZM124.379 133.341C125.375 133.341 126.335 132.561 126.335 131.301C126.335 130.053 125.375 129.261 124.379 129.261C123.299 129.261 122.447 130.053 122.447 131.301C122.447 132.561 123.299 133.341 124.379 133.341ZM129.857 128.601C130.313 128.601 130.637 128.949 130.637 129.357C130.637 129.789 130.313 130.113 129.857 130.113C129.401 130.113 129.065 129.789 129.065 129.357C129.065 128.949 129.401 128.601 129.857 128.601ZM129.857 132.801C130.313 132.801 130.637 133.149 130.637 133.557C130.637 133.989 130.313 134.325 129.857 134.325C129.401 134.325 129.065 133.989 129.065 133.557C129.065 133.149 129.401 132.801 129.857 132.801ZM135.087 126.237H138.711C140.487 126.237 141.603 127.293 141.603 128.829C141.603 130.389 140.487 131.445 138.711 131.445H136.371V134.277H135.087V126.237ZM136.371 130.269H138.711C139.719 130.269 140.319 129.693 140.319 128.829C140.319 128.001 139.719 127.401 138.711 127.401H136.371V130.269ZM146.297 128.157C147.725 128.157 148.685 129.189 148.685 130.677V134.277H147.425V130.929C147.425 129.957 146.861 129.309 146.009 129.309C144.941 129.309 144.233 130.029 144.233 131.529V134.277H142.985V125.037H144.233V129.057C144.713 128.481 145.409 128.157 146.297 128.157ZM153.126 128.193C154.878 128.193 156.306 129.453 156.306 131.301C156.306 133.149 154.878 134.421 153.126 134.421C151.362 134.421 149.922 133.149 149.922 131.301C149.922 129.453 151.362 128.193 153.126 128.193ZM153.126 133.341C154.146 133.341 155.094 132.537 155.094 131.301C155.094 130.065 154.146 129.261 153.126 129.261C152.082 129.261 151.146 130.065 151.146 131.301C151.146 132.537 152.082 133.341 153.126 133.341ZM161.28 132.945L161.664 133.989C161.1 134.325 160.692 134.445 160.188 134.445C158.904 134.445 158.04 133.725 158.04 132.249V129.357H156.756V128.325H158.04V126.237H159.288V128.325H161.328V129.357H159.288V132.165C159.288 132.909 159.684 133.269 160.272 133.269C160.584 133.269 160.968 133.149 161.28 132.945ZM165.208 128.193C166.96 128.193 168.388 129.453 168.388 131.301C168.388 133.149 166.96 134.421 165.208 134.421C163.444 134.421 162.004 133.149 162.004 131.301C162.004 129.453 163.444 128.193 165.208 128.193ZM165.208 133.341C166.228 133.341 167.176 132.537 167.176 131.301C167.176 130.065 166.228 129.261 165.208 129.261C164.164 129.261 163.228 130.065 163.228 131.301C163.228 132.537 164.164 133.341 165.208 133.341ZM173.704 131.757H169.792V130.677H173.704V131.757ZM174.872 132.681L176.12 132.417C176.204 133.125 176.828 133.425 177.608 133.425C178.328 133.425 178.784 133.101 178.784 132.633C178.784 132.273 178.532 132.045 177.98 131.925L176.684 131.661C175.652 131.433 175.064 130.881 175.064 130.041C175.064 128.937 175.988 128.157 177.416 128.157C178.784 128.157 179.708 128.877 179.924 129.873L178.736 130.125C178.64 129.549 178.148 129.153 177.38 129.153C176.648 129.153 176.324 129.513 176.324 129.933C176.324 130.269 176.516 130.485 177.044 130.605L178.46 130.917C179.42 131.121 180.008 131.685 180.008 132.525C180.008 133.773 178.988 134.445 177.5 134.445C176.168 134.445 175.028 133.881 174.872 132.681ZM186.967 131.169V131.601H182.143C182.263 132.705 183.067 133.365 183.943 133.365C184.603 133.365 185.275 133.173 185.695 132.333L186.811 132.573C186.319 133.821 185.263 134.445 183.943 134.445C182.323 134.445 180.907 133.197 180.907 131.313C180.907 129.417 182.311 128.157 183.991 128.157C185.587 128.157 186.907 129.381 186.967 131.169ZM183.991 129.261C183.211 129.261 182.371 129.753 182.179 130.713H185.683C185.491 129.741 184.807 129.261 183.991 129.261ZM191.66 128.157C193.088 128.157 194.048 129.189 194.048 130.677V134.277H192.788V130.929C192.788 129.957 192.224 129.309 191.372 129.309C190.304 129.309 189.596 130.029 189.596 131.529V134.277H188.348V128.325H189.596V129.057C190.076 128.481 190.772 128.157 191.66 128.157ZM195.286 132.681L196.534 132.417C196.618 133.125 197.242 133.425 198.022 133.425C198.742 133.425 199.198 133.101 199.198 132.633C199.198 132.273 198.946 132.045 198.394 131.925L197.098 131.661C196.066 131.433 195.478 130.881 195.478 130.041C195.478 128.937 196.402 128.157 197.83 128.157C199.198 128.157 200.122 128.877 200.338 129.873L199.15 130.125C199.054 129.549 198.562 129.153 197.794 129.153C197.062 129.153 196.738 129.513 196.738 129.933C196.738 130.269 196.93 130.485 197.458 130.605L198.874 130.917C199.834 131.121 200.422 131.685 200.422 132.525C200.422 133.773 199.402 134.445 197.914 134.445C196.582 134.445 195.442 133.881 195.286 132.681ZM202.557 125.757C203.013 125.757 203.349 126.117 203.349 126.537C203.349 126.981 203.013 127.305 202.557 127.305C202.089 127.305 201.753 126.981 201.753 126.537C201.753 126.117 202.089 125.757 202.557 125.757ZM203.181 134.277H201.933V128.325H203.181V134.277ZM208.741 132.945L209.125 133.989C208.561 134.325 208.153 134.445 207.649 134.445C206.365 134.445 205.501 133.725 205.501 132.249V129.357H204.217V128.325H205.501V126.237H206.749V128.325H208.789V129.357H206.749V132.165C206.749 132.909 207.145 133.269 207.733 133.269C208.045 133.269 208.429 133.149 208.741 132.945ZM210.854 125.757C211.31 125.757 211.646 126.117 211.646 126.537C211.646 126.981 211.31 127.305 210.854 127.305C210.386 127.305 210.05 126.981 210.05 126.537C210.05 126.117 210.386 125.757 210.854 125.757ZM211.478 134.277H210.23V128.325H211.478V134.277ZM219.138 128.313L216.57 134.277H215.238L212.682 128.313H214.038L215.91 132.789L217.782 128.313H219.138ZM225.615 131.169V131.601H220.791C220.911 132.705 221.715 133.365 222.591 133.365C223.251 133.365 223.923 133.173 224.343 132.333L225.459 132.573C224.967 133.821 223.911 134.445 222.591 134.445C220.971 134.445 219.555 133.197 219.555 131.313C219.555 129.417 220.959 128.157 222.639 128.157C224.235 128.157 225.555 129.381 225.615 131.169ZM222.639 129.261C221.859 129.261 221.019 129.753 220.827 130.713H224.331C224.139 129.741 223.455 129.261 222.639 129.261Z" fill="#1A1816"/>
<defs>
<filter id="filter0_d_300_12317" x="159.594" y="246.308" width="274.012" height="289.213" filterUnits="userSpaceOnUse" color-interpolation-filters="sRGB">
<feFlood flood-opacity="0" result="BackgroundImageFix"/>
<feColorMatrix in="SourceAlpha" type="matrix" values="0 0 0 0 0 0 0 0 0 0 0 0 0 0 0 0 0 0 127 0" result="hardAlpha"/>
<feOffset dx="4" dy="10"/>
<feGaussianBlur stdDeviation="5"/>
<feComposite in2="hardAlpha" operator="out"/>
<feColorMatrix type="matrix" values="0 0 0 0 0.321569 0 0 0 0 0.72549 0 0 0 0 0.854902 0 0 0 1 0"/>
<feBlend mode="normal" in2="BackgroundImageFix" result="effect1_dropShadow_300_12317"/>
<feBlend mode="normal" in="SourceGraphic" in2="effect1_dropShadow_300_12317" result="shape"/>
</filter>
<radialGradient id="paint0_radial_300_12317" cx="0" cy="0" r="1" gradientUnits="userSpaceOnUse" gradientTransform="translate(164.883 225.275) rotate(90.1256) scale(124.5)">
<stop stop-color="#56CCF2"/>
<stop offset="1" stop-color="#004B4B"/>
</radialGradient>
<radialGradient id="paint1_radial_300_12317" cx="0" cy="0" r="1" gradientUnits="userSpaceOnUse" gradientTransform="translate(652.652 429.882) rotate(90) scale(157.5 158)">
<stop stop-color="#FF0055"/>
<stop offset="1" stop-color="#CBEE4C"/>
</radialGradient>
<clipPath id="clip0_300_12317">
<rect width="730" height="411" fill="white" transform="translate(39.6641 103.277)"/>
</clipPath>
</defs>
</svg>
