<svg width="80" height="80" viewBox="0 0 80 80" fill="none" xmlns="http://www.w3.org/2000/svg">
<g clip-path="url(#clip0_71_12520)">
<path d="M0 10C0 4.47715 4.47715 0 10 0H70C75.5229 0 80 4.47715 80 10V70C80 75.5229 75.5229 80 70 80H10C4.47715 80 0 75.5229 0 70V10Z" fill="white"/>
<path d="M-4.40625 -23.821H84.475V104.509H-4.40625V-23.821Z" fill="white"/>
<line x1="27.2446" y1="-27.6077" x2="27.2446" y2="103.911" stroke="black" stroke-opacity="0.2" stroke-width="0.375"/>
<line x1="52.9246" y1="-27.6184" x2="52.9246" y2="103.9" stroke="black" stroke-opacity="0.2" stroke-width="0.375"/>
<path d="M115.409 40.3443L-16.1097 40.3443" stroke="black" stroke-opacity="0.2" stroke-width="0.375"/>
<line x1="115.409" y1="65.936" x2="-16.1097" y2="65.936" stroke="black" stroke-opacity="0.2" stroke-width="0.375"/>
<line x1="115.409" y1="14.7832" x2="-16.1097" y2="14.7832" stroke="black" stroke-opacity="0.2" stroke-width="0.375"/>
<rect x="41.8203" y="13" width="25.2309" height="25.2309" rx="12.6155" fill="#0F0F0F"/>
<rect x="11.6665" y="13" width="25.2309" height="25.2309" rx="12.6155" fill="#BEB8B0"/>
<path d="M11.6665 53.6158C11.6665 46.4785 17.4524 40.6926 24.5896 40.6926C31.7269 40.6926 37.5128 46.4785 37.5128 53.6158V67.1543H11.6665V53.6158Z" fill="#D92229"/>
<path d="M41.8203 53.6158C41.8203 46.4785 47.6062 40.6926 54.7435 40.6926C61.8807 40.6926 67.6666 46.4785 67.6666 53.6158V67.1543H41.8203V53.6158Z" fill="#D92229"/>
</g>
<path d="M10 0.625H70C75.1777 0.625 79.375 4.82233 79.375 10V70C79.375 75.1777 75.1777 79.375 70 79.375H10C4.82233 79.375 0.625 75.1777 0.625 70V10C0.625 4.82233 4.82233 0.625 10 0.625Z" stroke="#D3CFCA" stroke-width="1.25"/>
<defs>
<clipPath id="clip0_71_12520">
<path d="M0 10C0 4.47715 4.47715 0 10 0H70C75.5229 0 80 4.47715 80 10V70C80 75.5229 75.5229 80 70 80H10C4.47715 80 0 75.5229 0 70V10Z" fill="white"/>
</clipPath>
</defs>
</svg>
