<svg width="56" height="120" viewBox="0 0 56 120" fill="none" xmlns="http://www.w3.org/2000/svg">
<path d="M26.6387 24.7741C33.4799 24.7741 39.0258 19.2282 39.0258 12.387C39.0258 5.54587 33.4799 0 26.6387 0C19.7976 0 14.2517 5.54587 14.2517 12.387C14.2517 19.2282 19.7976 24.7741 26.6387 24.7741Z" fill="#BA1D22"/>
<path d="M27.2209 66.3185V114.125C27.2209 115.743 27.8751 117.213 28.9371 118.275C29.9991 119.337 31.4858 120.004 33.1171 119.996C36.3752 119.983 38.958 117.213 38.958 113.955V42.6617C38.958 42.3218 39.2341 42.05 39.5697 42.05C39.9095 42.05 40.1814 42.3261 40.1814 42.6617V44.4798C40.1814 46.1068 40.8441 47.5851 41.9103 48.6513C42.9766 49.7175 44.4718 50.3845 46.1115 50.376C49.3825 50.359 51.9737 47.5766 51.9737 44.3056V39.8665C51.9737 36.4044 50.5422 27.5687 35.9887 27.1821H14.2646C1.27863 27.5687 0 36.4044 0 39.8665V70.3201C0 71.9513 0.658433 73.4254 1.72892 74.4916C2.79515 75.5621 4.26919 76.2205 5.90041 76.2205C9.15434 76.2205 11.7966 73.5783 11.7966 70.3201V42.9675C11.7966 42.4578 12.2086 42.05 12.7141 42.05C13.2239 42.05 13.6317 42.462 13.6317 42.9675V114.129C13.6317 115.748 14.2901 117.218 15.3521 118.28C16.4141 119.342 17.8881 120.004 19.5151 120C22.7393 119.991 25.373 117.179 25.373 113.955V66.2166L27.2124 66.3228L27.2209 66.3185Z" fill="#BA1D22"/>
<path d="M49.3995 53.3293L37.8875 66.1538C34.9734 69.3993 29.9778 69.6669 26.7324 66.7528L25.7723 65.8905C22.5269 62.9721 22.255 57.9808 25.1734 54.7354L29.0857 50.377C32.6285 51.6471 41.6299 54.4338 49.3995 53.3293Z" fill="#BEB8B0"/>
<path d="M52.8782 49.4538L49.3992 53.3279C41.6297 54.4324 32.6282 51.6457 29.0854 50.3756L40.1641 38.0353C43.0782 34.7898 48.0738 34.5222 51.3192 37.4363L52.2793 38.2986C55.5247 41.2127 55.7966 46.2083 52.8782 49.4538Z" fill="#EFEFEF"/>
<path d="M46.4299 52.7383C51.2558 52.7383 55.168 48.8261 55.168 44.0003C55.168 39.1744 51.2558 35.2622 46.4299 35.2622C41.604 35.2622 37.6919 39.1744 37.6919 44.0003C37.6919 48.8261 41.604 52.7383 46.4299 52.7383Z" fill="#1A1816"/>
</svg>
