<svg width="1140" height="756" viewBox="0 0 1140 756" fill="none" xmlns="http://www.w3.org/2000/svg">
<path d="M16 0.5H1124C1132.56 0.500011 1139.5 7.43959 1139.5 16V740C1139.5 748.56 1132.56 755.5 1124 755.5H16C7.4396 755.5 0.5 748.56 0.5 740V16C0.5 7.43959 7.43959 0.5 16 0.5Z" fill="white"/>
<path d="M16 0.5H1124C1132.56 0.500011 1139.5 7.43959 1139.5 16V740C1139.5 748.56 1132.56 755.5 1124 755.5H16C7.4396 755.5 0.5 748.56 0.5 740V16C0.5 7.43959 7.43959 0.5 16 0.5Z" stroke="#D3CFCA"/>
<path d="M49.664 66.064V70H34.24V48.56H38.592V66.064H49.664ZM60.3615 53.648C65.0335 53.648 68.9695 57.008 68.9695 62.032C68.9695 67.056 65.0335 70.416 60.3615 70.416C55.5935 70.416 51.6575 67.056 51.6575 62.032C51.6575 57.008 55.5935 53.648 60.3615 53.648ZM60.3615 66.8C62.5695 66.8 64.8735 65.008 64.8735 62.032C64.8735 59.056 62.5695 57.264 60.3615 57.264C58.0575 57.264 55.7535 59.056 55.7535 62.032C55.7535 65.008 58.0575 66.8 60.3615 66.8ZM87.9803 54.032V70.384C87.9803 75.28 84.1403 78 78.9883 78C75.2763 78 72.5883 76.688 71.2123 74.48L74.6363 71.568C75.8843 73.136 76.9083 73.872 78.9883 73.872C81.6763 73.872 83.7563 72.528 83.7563 69.744V68.624C82.4763 69.808 80.7163 70.48 78.4763 70.48C74.4123 70.48 70.6363 67.056 70.6363 62.032C70.6363 57.008 74.4123 53.552 78.4763 53.552C80.7163 53.552 82.4763 54.224 83.7563 55.408V54.032H87.9803ZM79.2123 66.8C81.4843 66.8 83.7563 64.976 83.7563 62.032C83.7563 59.088 81.4843 57.232 79.2123 57.232C76.6523 57.232 74.7323 59.088 74.7323 62.032C74.7323 64.976 76.6523 66.8 79.2123 66.8ZM94.5435 46.736C96.0155 46.736 97.1035 47.92 97.1035 49.264C97.1035 50.672 96.0155 51.728 94.5435 51.728C93.0395 51.728 91.9835 50.672 91.9835 49.264C91.9835 47.92 93.0395 46.736 94.5435 46.736ZM96.6555 70H92.4315V54.032H96.6555V70ZM110.372 53.552C114.212 53.552 116.772 56.304 116.772 60.272V70H112.548V61.168C112.548 58.928 111.268 57.424 109.316 57.424C106.916 57.424 105.348 59.024 105.348 62.928V70H101.124V54.032H105.348V55.472C106.596 54.224 108.26 53.552 110.372 53.552ZM126.8 65.776L131.056 64.912C131.28 66.544 132.688 67.088 134.352 67.088C135.92 67.088 136.848 66.384 136.848 65.488C136.848 64.912 136.464 64.336 135.088 64.048L131.824 63.376C128.944 62.768 127.312 61.136 127.312 58.832C127.312 55.76 129.808 53.552 133.84 53.552C137.616 53.552 140.24 55.504 140.784 58.288L136.752 59.088C136.592 57.808 135.472 56.88 133.712 56.88C132.016 56.88 131.536 57.712 131.536 58.448C131.536 58.96 131.728 59.504 132.976 59.792L136.784 60.624C139.6 61.232 140.976 62.992 140.976 65.136C140.976 68.656 138.128 70.48 133.968 70.48C130.448 70.48 127.216 69.104 126.8 65.776ZM159.069 61.712V63.152H146.91C147.326 65.456 148.957 66.864 150.91 66.864C152.158 66.864 153.726 66.704 154.878 64.752L158.653 65.552C157.246 68.88 154.398 70.48 150.91 70.48C146.398 70.48 142.717 67.056 142.717 62.032C142.717 57.008 146.398 53.552 150.974 53.552C155.23 53.552 158.91 56.848 159.069 61.712ZM150.974 57.232C149.373 57.232 147.549 58.192 147.037 60.176H154.75C154.206 58.128 152.67 57.232 150.974 57.232ZM172.439 65.776L173.655 69.296C171.991 70.192 170.839 70.48 169.495 70.48C165.719 70.48 163.223 68.496 163.223 64.112V57.488H159.799V54.032H163.223V48.56H167.447V54.032H172.663V57.488H167.447V63.792C167.447 65.712 168.375 66.544 169.783 66.544C170.519 66.544 171.607 66.224 172.439 65.776ZM186.074 65.776L187.29 69.296C185.626 70.192 184.474 70.48 183.13 70.48C179.354 70.48 176.858 68.496 176.858 64.112V57.488H173.434V54.032H176.858V48.56H181.082V54.032H186.298V57.488H181.082V63.792C181.082 65.712 182.01 66.544 183.418 66.544C184.154 66.544 185.242 66.224 186.074 65.776ZM191.645 46.736C193.117 46.736 194.205 47.92 194.205 49.264C194.205 50.672 193.117 51.728 191.645 51.728C190.141 51.728 189.085 50.672 189.085 49.264C189.085 47.92 190.141 46.736 191.645 46.736ZM193.757 70H189.533V54.032H193.757V70ZM207.473 53.552C211.313 53.552 213.873 56.304 213.873 60.272V70H209.649V61.168C209.649 58.928 208.369 57.424 206.417 57.424C204.017 57.424 202.449 59.024 202.449 62.928V70H198.225V54.032H202.449V55.472C203.697 54.224 205.361 53.552 207.473 53.552ZM233.768 54.032V70.384C233.768 75.28 229.928 78 224.776 78C221.064 78 218.376 76.688 217 74.48L220.424 71.568C221.672 73.136 222.696 73.872 224.776 73.872C227.464 73.872 229.544 72.528 229.544 69.744V68.624C228.264 69.808 226.504 70.48 224.264 70.48C220.2 70.48 216.424 67.056 216.424 62.032C216.424 57.008 220.2 53.552 224.264 53.552C226.504 53.552 228.264 54.224 229.544 55.408V54.032H233.768ZM225 66.8C227.272 66.8 229.544 64.976 229.544 62.032C229.544 59.088 227.272 57.232 225 57.232C222.44 57.232 220.52 59.088 220.52 62.032C220.52 64.976 222.44 66.8 225 66.8ZM236.651 65.776L240.907 64.912C241.131 66.544 242.539 67.088 244.203 67.088C245.771 67.088 246.699 66.384 246.699 65.488C246.699 64.912 246.315 64.336 244.939 64.048L241.675 63.376C238.795 62.768 237.163 61.136 237.163 58.832C237.163 55.76 239.659 53.552 243.691 53.552C247.467 53.552 250.091 55.504 250.635 58.288L246.603 59.088C246.443 57.808 245.323 56.88 243.563 56.88C241.867 56.88 241.387 57.712 241.387 58.448C241.387 58.96 241.579 59.504 242.827 59.792L246.635 60.624C249.451 61.232 250.827 62.992 250.827 65.136C250.827 68.656 247.979 70.48 243.819 70.48C240.299 70.48 237.067 69.104 236.651 65.776Z" fill="#1A1816"/>
<rect x="32.5" y="104.5" width="1075" height="119" rx="11.5" fill="white"/>
<rect x="32.5" y="104.5" width="1075" height="119" rx="11.5" stroke="#D3CFCA"/>
<circle cx="88" cy="160" r="22" fill="white"/>
<path d="M101.4 171.761C101.516 172.014 102.82 173.94 102.917 174.199C103.672 176.219 99.1096 180.537 96.8827 180.537L92.2994 182H87.474H83.7045L80.1655 180.537C76.6264 179.075 72.332 177.682 73.0873 175.662C73.1839 175.403 73.8836 173.253 74 173C74.6687 171.549 76.7644 170.611 78 169.5C79.2356 168.389 80.8262 168.089 82.4406 167.488L87.474 167H92.5522C94.1665 167.601 96.6252 167.725 97.8608 168.836C99.0963 169.946 100.731 170.31 101.4 171.761Z" fill="#D92228"/>
<path d="M96 155C96 159.418 92.4183 163 88 163C83.5817 163 80 159.418 80 155C80 150.582 83.5817 147 88 147C92.4183 147 96 150.582 96 155Z" fill="#D92228"/>
<path fill-rule="evenodd" clip-rule="evenodd" d="M97 155C97 159.971 92.9706 164 88 164C83.0294 164 79 159.971 79 155C79 150.029 83.0294 146 88 146C92.9706 146 97 150.029 97 155ZM88 163C92.4183 163 96 159.418 96 155C96 150.582 92.4183 147 88 147C83.5817 147 80 150.582 80 155C80 159.418 83.5817 163 88 163Z" fill="#D92228"/>
<path fill-rule="evenodd" clip-rule="evenodd" d="M77.3954 169.015C80.2801 167.398 84.1176 166.5 88 166.5C91.8824 166.5 95.7199 167.398 98.6046 169.015C101.482 170.627 103.5 173.013 103.5 176H102.5C102.5 173.522 100.831 171.409 98.1158 169.887C95.4072 168.369 91.7447 167.5 88 167.5C84.2553 167.5 80.5928 168.369 77.8842 169.887C75.1685 171.409 73.5 173.522 73.5 176H72.5C72.5 173.013 74.5179 170.627 77.3954 169.015Z" fill="#D92228"/>
<path fill-rule="evenodd" clip-rule="evenodd" d="M88 139C76.402 139 67 148.402 67 160C67 171.598 76.402 181 88 181C99.598 181 109 171.598 109 160C109 148.402 99.598 139 88 139ZM65 160C65 147.297 75.2975 137 88 137C100.703 137 111 147.297 111 160C111 172.703 100.703 183 88 183C75.2975 183 65 172.703 65 160Z" fill="#620F12"/>
<path d="M134.32 141.3C137.04 141.3 139.1 142.78 139.62 145.16L136.9 145.72C136.7 144.46 135.6 143.64 134.26 143.64C132.9 143.64 132.08 144.4 132.08 145.3C132.08 145.98 132.38 146.46 133.42 146.66L136.3 147.24C138.48 147.7 139.82 149 139.82 151.08C139.82 153.68 137.68 155.3 134.5 155.3C131.7 155.3 129.24 154 128.9 151.32L131.76 150.74C132.12 152.26 133.24 152.92 134.76 152.92C136.32 152.92 137.14 152.18 137.14 151.22C137.14 150.46 136.78 150 135.58 149.76L132.74 149.22C131.14 148.88 129.22 148 129.22 145.38C129.22 142.98 131.18 141.3 134.32 141.3ZM143.433 140.46C144.353 140.46 145.033 141.2 145.033 142.04C145.033 142.92 144.353 143.58 143.433 143.58C142.493 143.58 141.833 142.92 141.833 142.04C141.833 141.2 142.493 140.46 143.433 140.46ZM144.753 155H142.113V145.02H144.753V155ZM157.495 145.02V155.24C157.495 158.3 155.095 160 151.875 160C149.555 160 147.875 159.18 147.015 157.8L149.155 155.98C149.935 156.96 150.575 157.42 151.875 157.42C153.555 157.42 154.855 156.58 154.855 154.84V154.14C154.055 154.88 152.955 155.3 151.555 155.3C149.015 155.3 146.655 153.16 146.655 150.02C146.655 146.88 149.015 144.72 151.555 144.72C152.955 144.72 154.055 145.14 154.855 145.88V145.02H157.495ZM152.015 153C153.435 153 154.855 151.86 154.855 150.02C154.855 148.18 153.435 147.02 152.015 147.02C150.415 147.02 149.215 148.18 149.215 150.02C149.215 151.86 150.415 153 152.015 153ZM165.827 144.72C168.227 144.72 169.827 146.44 169.827 148.92V155H167.187V149.48C167.187 148.08 166.387 147.14 165.167 147.14C163.667 147.14 162.687 148.14 162.687 150.58V155H160.047V145.02H162.687V145.92C163.467 145.14 164.507 144.72 165.827 144.72ZM178.215 140.46C179.135 140.46 179.815 141.2 179.815 142.04C179.815 142.92 179.135 143.58 178.215 143.58C177.275 143.58 176.615 142.92 176.615 142.04C176.615 141.2 177.275 140.46 178.215 140.46ZM179.535 155H176.895V145.02H179.535V155ZM188.017 144.72C190.417 144.72 192.017 146.44 192.017 148.92V155H189.377V149.48C189.377 148.08 188.577 147.14 187.357 147.14C185.857 147.14 184.877 148.14 184.877 150.58V155H182.237V145.02H184.877V145.92C185.657 145.14 186.697 144.72 188.017 144.72ZM202.105 145.02H205.125V147.18H202.105V155H199.465V147.18H197.945V145.02H199.465V143.18C199.465 140.84 201.065 139.4 203.405 139.4C204.045 139.4 204.625 139.52 205.185 139.78L204.585 141.92C204.225 141.8 203.865 141.74 203.585 141.74C202.725 141.74 202.105 142.24 202.105 143.18V145.02ZM210.072 144.72C212.712 144.72 214.452 146.06 214.452 148.48V155H211.932V154.18C211.252 154.84 210.252 155.3 208.892 155.3C206.612 155.3 205.092 154 205.092 152.04C205.092 150.12 206.532 148.84 209.052 148.84H211.932V148.68C211.932 147.68 211.252 147 210.232 147C209.032 147 208.352 147.46 208.152 148.46L205.632 147.96C206.012 146.02 207.792 144.72 210.072 144.72ZM209.312 153.2C210.712 153.2 211.932 152.24 211.932 150.96V150.84H209.012C208.172 150.84 207.612 151.3 207.612 151.98C207.612 152.72 208.292 153.2 209.312 153.2ZM215.73 152.36L218.39 151.82C218.53 152.84 219.41 153.18 220.45 153.18C221.43 153.18 222.01 152.74 222.01 152.18C222.01 151.82 221.77 151.46 220.91 151.28L218.87 150.86C217.07 150.48 216.05 149.46 216.05 148.02C216.05 146.1 217.61 144.72 220.13 144.72C222.49 144.72 224.13 145.94 224.47 147.68L221.95 148.18C221.85 147.38 221.15 146.8 220.05 146.8C218.99 146.8 218.69 147.32 218.69 147.78C218.69 148.1 218.81 148.44 219.59 148.62L221.97 149.14C223.73 149.52 224.59 150.62 224.59 151.96C224.59 154.16 222.81 155.3 220.21 155.3C218.01 155.3 215.99 154.44 215.73 152.36ZM232.889 152.36L233.649 154.56C232.609 155.12 231.889 155.3 231.049 155.3C228.689 155.3 227.129 154.06 227.129 151.32V147.18H224.989V145.02H227.129V141.6H229.769V145.02H233.029V147.18H229.769V151.12C229.769 152.32 230.349 152.84 231.229 152.84C231.689 152.84 232.369 152.64 232.889 152.36ZM244.045 149.82V150.72H236.445C236.705 152.16 237.725 153.04 238.945 153.04C239.725 153.04 240.705 152.94 241.425 151.72L243.785 152.22C242.905 154.3 241.125 155.3 238.945 155.3C236.125 155.3 233.825 153.16 233.825 150.02C233.825 146.88 236.125 144.72 238.985 144.72C241.645 144.72 243.945 146.78 244.045 149.82ZM238.985 147.02C237.985 147.02 236.845 147.62 236.525 148.86H241.345C241.005 147.58 240.045 147.02 238.985 147.02ZM252.031 144.88C252.291 144.88 252.491 144.88 252.731 144.96L252.591 147.5H252.011C249.571 147.5 248.451 149 248.451 151.78V155H245.811V145.02H248.451V146.84C249.251 145.68 250.411 144.88 252.031 144.88ZM272.909 145.02L269.589 155.02H267.209L265.249 149.14L263.269 155.02H260.889L257.569 145.02H260.189L262.169 151.16L264.209 145.02H266.269L268.309 151.18L270.289 145.02H272.909ZM275.731 140.46C276.651 140.46 277.331 141.2 277.331 142.04C277.331 142.92 276.651 143.58 275.731 143.58C274.791 143.58 274.131 142.92 274.131 142.04C274.131 141.2 274.791 140.46 275.731 140.46ZM277.051 155H274.411V145.02H277.051V155ZM286.254 152.36L287.014 154.56C285.974 155.12 285.254 155.3 284.414 155.3C282.054 155.3 280.494 154.06 280.494 151.32V147.18H278.354V145.02H280.494V141.6H283.134V145.02H286.394V147.18H283.134V151.12C283.134 152.32 283.714 152.84 284.594 152.84C285.054 152.84 285.734 152.64 286.254 152.36ZM293.965 144.72C296.365 144.72 297.965 146.44 297.965 148.92V155H295.325V149.48C295.325 148.08 294.525 147.14 293.305 147.14C291.805 147.14 290.825 148.14 290.825 150.58V155H288.185V139.6H290.825V145.92C291.605 145.14 292.645 144.72 293.965 144.72ZM310.832 147.18H318.172C318.212 147.64 318.232 148.02 318.232 148.34C318.232 152.32 315.392 155.3 311.432 155.3C307.432 155.3 304.312 152.24 304.312 148.3C304.312 144.38 307.412 141.3 311.352 141.3C314.172 141.3 316.832 142.62 317.792 145.34L315.352 146.2C314.372 144.32 312.812 143.86 311.352 143.86C308.952 143.86 307.072 145.78 307.072 148.3C307.072 150.84 309.012 152.76 311.512 152.76C313.552 152.76 315.072 151.56 315.532 149.66H310.832V147.18ZM324.84 144.78C327.76 144.78 330.22 146.88 330.22 150.02C330.22 153.16 327.76 155.26 324.84 155.26C321.86 155.26 319.4 153.16 319.4 150.02C319.4 146.88 321.86 144.78 324.84 144.78ZM324.84 153C326.22 153 327.66 151.88 327.66 150.02C327.66 148.16 326.22 147.04 324.84 147.04C323.4 147.04 321.96 148.16 321.96 150.02C321.96 151.88 323.4 153 324.84 153ZM336.612 144.78C339.532 144.78 341.992 146.88 341.992 150.02C341.992 153.16 339.532 155.26 336.612 155.26C333.632 155.26 331.172 153.16 331.172 150.02C331.172 146.88 333.632 144.78 336.612 144.78ZM336.612 153C337.992 153 339.432 151.88 339.432 150.02C339.432 148.16 337.992 147.04 336.612 147.04C335.172 147.04 333.732 148.16 333.732 150.02C333.732 151.88 335.172 153 336.612 153ZM353.783 145.02V155.24C353.783 158.3 351.383 160 348.163 160C345.843 160 344.163 159.18 343.303 157.8L345.443 155.98C346.223 156.96 346.863 157.42 348.163 157.42C349.843 157.42 351.143 156.58 351.143 154.84V154.14C350.343 154.88 349.243 155.3 347.843 155.3C345.303 155.3 342.943 153.16 342.943 150.02C342.943 146.88 345.303 144.72 347.843 144.72C349.243 144.72 350.343 145.14 351.143 145.88V145.02H353.783ZM348.303 153C349.723 153 351.143 151.86 351.143 150.02C351.143 148.18 349.723 147.02 348.303 147.02C346.703 147.02 345.503 148.18 345.503 150.02C345.503 151.86 346.703 153 348.303 153ZM358.975 155H356.335V139.6H358.975V155ZM370.965 149.82V150.72H363.365C363.625 152.16 364.645 153.04 365.865 153.04C366.645 153.04 367.625 152.94 368.345 151.72L370.705 152.22C369.825 154.3 368.045 155.3 365.865 155.3C363.045 155.3 360.745 153.16 360.745 150.02C360.745 146.88 363.045 144.72 365.905 144.72C368.565 144.72 370.865 146.78 370.965 149.82ZM365.905 147.02C364.905 147.02 363.765 147.62 363.445 148.86H368.265C367.925 147.58 366.965 147.02 365.905 147.02Z" fill="#1A1816"/>
<path d="M136.256 174.28V181.096C136.256 183.496 134.672 185.208 132.288 185.208C130.128 185.208 128.672 183.784 128.384 181.752L129.584 181.48C129.776 183 130.752 184.056 132.288 184.056C133.904 184.056 134.992 182.824 134.992 181.096V175.416H130.976V174.28H136.256ZM146.108 177.112V184.984H144.876V183.704C144.236 184.648 143.212 185.192 141.9 185.192C139.996 185.192 138.732 183.832 138.732 181.832V177.112H139.964V181.608C139.964 183.08 140.828 184.056 142.14 184.056C143.788 184.056 144.876 182.952 144.876 180.904V177.112H146.108ZM148.111 182.872L149.327 182.6C149.439 183.64 150.399 184.2 151.647 184.2C152.783 184.2 153.535 183.672 153.535 182.856C153.535 182.2 153.039 181.896 152.239 181.72L150.431 181.32C149.119 181.048 148.383 180.392 148.383 179.304C148.383 177.88 149.567 176.92 151.375 176.92C153.151 176.92 154.303 177.832 154.591 179.112L153.423 179.368C153.263 178.504 152.511 177.912 151.343 177.912C150.223 177.912 149.599 178.456 149.599 179.208C149.599 179.832 150.031 180.12 150.799 180.296L152.703 180.712C153.855 180.968 154.735 181.576 154.735 182.776C154.735 184.328 153.439 185.208 151.551 185.208C149.743 185.208 148.303 184.408 148.111 182.872ZM161.213 183.576L161.613 184.584C160.973 185.032 160.429 185.208 159.789 185.208C158.221 185.208 157.181 184.28 157.181 182.536V178.136H155.469V177.112H157.181V174.28H158.413V177.112H161.229V178.136H158.413V182.456C158.413 183.48 158.989 184.056 159.869 184.056C160.317 184.056 160.813 183.864 161.213 183.576ZM166.533 182.872L167.749 182.6C167.861 183.64 168.821 184.2 170.069 184.2C171.205 184.2 171.957 183.672 171.957 182.856C171.957 182.2 171.461 181.896 170.661 181.72L168.853 181.32C167.541 181.048 166.805 180.392 166.805 179.304C166.805 177.88 167.989 176.92 169.797 176.92C171.573 176.92 172.725 177.832 173.013 179.112L171.845 179.368C171.685 178.504 170.933 177.912 169.765 177.912C168.645 177.912 168.021 178.456 168.021 179.208C168.021 179.832 168.453 180.12 169.221 180.296L171.125 180.712C172.277 180.968 173.157 181.576 173.157 182.776C173.157 184.328 171.861 185.208 169.973 185.208C168.165 185.208 166.725 184.408 166.533 182.872ZM176.035 173.912C176.515 173.912 176.883 174.296 176.883 174.728C176.883 175.192 176.515 175.544 176.035 175.544C175.555 175.544 175.203 175.192 175.203 174.728C175.203 174.296 175.555 173.912 176.035 173.912ZM176.659 185H175.427V177.112H176.659V185ZM187.164 177.112V185.336C187.164 187.56 185.324 189 183.02 189C181.052 189 179.756 188.232 179.148 186.952L180.188 186.168C180.732 187.224 181.532 187.816 183.02 187.816C184.62 187.816 185.932 186.792 185.948 185.176V183.688C185.26 184.648 184.156 185.208 182.812 185.208C180.716 185.208 178.876 183.56 178.876 181.064C178.876 178.568 180.716 176.92 182.812 176.92C184.156 176.92 185.26 177.48 185.948 178.44V177.112H187.164ZM183.004 184.12C184.492 184.12 185.948 182.936 185.948 181.064C185.948 179.176 184.492 177.992 183.004 177.992C181.372 177.992 180.06 179.176 180.06 181.064C180.06 182.936 181.372 184.12 183.004 184.12ZM194.178 176.92C196.082 176.92 197.346 178.28 197.346 180.28V185H196.13V180.504C196.13 179.032 195.25 178.04 193.938 178.04C192.29 178.04 191.202 179.16 191.202 181.208V185H189.986V177.112H191.202V178.424C191.842 177.464 192.85 176.92 194.178 176.92ZM204.738 173.912C205.218 173.912 205.586 174.296 205.586 174.728C205.586 175.192 205.218 175.544 204.738 175.544C204.258 175.544 203.906 175.192 203.906 174.728C203.906 174.296 204.258 173.912 204.738 173.912ZM205.362 185H204.13V177.112H205.362V185ZM212.491 176.92C214.395 176.92 215.659 178.28 215.659 180.28V185H214.443V180.504C214.443 179.032 213.563 178.04 212.251 178.04C210.603 178.04 209.515 179.16 209.515 181.208V185H208.299V177.112H209.515V178.424C210.155 177.464 211.163 176.92 212.491 176.92ZM225.338 176.92C227.306 176.92 228.602 177.976 228.602 179.88V185H227.418V183.8C226.81 184.616 225.818 185.208 224.458 185.208C222.73 185.208 221.594 184.216 221.594 182.792C221.594 181.352 222.698 180.328 224.762 180.328H227.418V179.96C227.418 178.728 226.618 177.992 225.402 177.992C224.202 177.992 223.37 178.584 223.194 179.576L222.026 179.32C222.282 177.896 223.61 176.92 225.338 176.92ZM224.634 184.2C226.17 184.2 227.418 183.128 227.418 181.704V181.288H224.746C223.45 181.288 222.762 181.912 222.762 182.776C222.762 183.608 223.498 184.2 224.634 184.2ZM235.225 176.92C237.129 176.92 238.393 178.28 238.393 180.28V185H237.177V180.504C237.177 179.032 236.297 178.04 234.985 178.04C233.337 178.04 232.249 179.16 232.249 181.208V185H231.033V177.112H232.249V178.424C232.889 177.464 233.897 176.92 235.225 176.92ZM248.585 172.68V185H247.369V183.688C246.681 184.648 245.577 185.208 244.233 185.208C242.137 185.208 240.297 183.56 240.297 181.064C240.297 178.568 242.137 176.92 244.233 176.92C245.577 176.92 246.681 177.48 247.369 178.44V172.68H248.585ZM244.425 184.12C245.913 184.12 247.369 182.936 247.369 181.064C247.369 179.176 245.913 177.992 244.425 177.992C242.793 177.992 241.481 179.176 241.481 181.064C241.481 182.936 242.793 184.12 244.425 184.12ZM266.047 177.112L263.391 185.032H262.255L260.191 179.048L258.111 185.032H256.975L254.319 177.112H255.551L257.583 183.224L259.695 177.112H260.671L262.783 183.224L264.815 177.112H266.047ZM274.921 180.856V181.304H268.153C268.265 183.08 269.609 184.136 270.969 184.136C272.089 184.136 273.097 183.704 273.657 182.44L274.745 182.696C274.121 184.344 272.745 185.208 270.969 185.208C268.873 185.208 266.969 183.592 266.969 181.08C266.969 178.552 268.873 176.92 271.049 176.92C273.177 176.92 274.841 178.504 274.921 180.856ZM271.049 177.992C269.769 177.992 268.441 178.84 268.201 180.392H273.689C273.465 178.84 272.361 177.992 271.049 177.992ZM277.243 178.488H276.299L277.355 174.28H278.795V174.312L277.243 178.488ZM281.995 172.68V182.984C281.995 183.624 282.443 184.04 283.115 184.04C283.419 184.04 283.755 183.944 284.059 183.784L284.315 184.808C283.931 185.032 283.531 185.208 282.923 185.208C281.627 185.208 280.779 184.344 280.779 183.048V172.68H281.995ZM286.98 172.68V182.984C286.98 183.624 287.428 184.04 288.1 184.04C288.404 184.04 288.74 183.944 289.044 183.784L289.3 184.808C288.916 185.032 288.516 185.208 287.908 185.208C286.612 185.208 285.764 184.344 285.764 183.048V172.68H286.98ZM298.331 184.072C299.499 184.072 300.523 183.448 300.939 182.296L302.059 182.6C301.595 184.168 300.075 185.208 298.331 185.208C296.107 185.208 294.219 183.576 294.219 181.064C294.219 178.584 296.107 176.92 298.331 176.92C300.059 176.92 301.563 177.928 302.075 179.544L300.907 179.896C300.523 178.68 299.499 178.04 298.331 178.04C296.715 178.04 295.403 179.256 295.403 181.064C295.403 182.904 296.715 184.072 298.331 184.072ZM307.63 176.936C309.95 176.936 311.806 178.632 311.806 181.048C311.806 183.464 309.95 185.192 307.63 185.192C305.278 185.192 303.438 183.464 303.438 181.048C303.438 178.632 305.278 176.936 307.63 176.936ZM307.63 184.12C309.246 184.12 310.606 182.872 310.606 181.048C310.606 179.24 309.246 178.008 307.63 178.008C305.998 178.008 304.622 179.24 304.622 181.048C304.622 182.872 305.998 184.12 307.63 184.12ZM318.084 176.92C319.988 176.92 321.252 178.28 321.252 180.28V185H320.036V180.504C320.036 179.032 319.156 178.04 317.844 178.04C316.196 178.04 315.108 179.16 315.108 181.208V185H313.892V177.112H315.108V178.424C315.748 177.464 316.756 176.92 318.084 176.92ZM328.069 176.92C329.973 176.92 331.237 178.28 331.237 180.28V185H330.021V180.504C330.021 179.032 329.141 178.04 327.829 178.04C326.181 178.04 325.093 179.16 325.093 181.208V185H323.877V177.112H325.093V178.424C325.733 177.464 326.741 176.92 328.069 176.92ZM341.093 180.856V181.304H334.325C334.437 183.08 335.781 184.136 337.141 184.136C338.261 184.136 339.269 183.704 339.829 182.44L340.917 182.696C340.293 184.344 338.917 185.208 337.141 185.208C335.045 185.208 333.141 183.592 333.141 181.08C333.141 178.552 335.045 176.92 337.221 176.92C339.349 176.92 341.013 178.504 341.093 180.856ZM337.221 177.992C335.941 177.992 334.613 178.84 334.373 180.392H339.861C339.637 178.84 338.533 177.992 337.221 177.992ZM346.581 184.072C347.749 184.072 348.773 183.448 349.189 182.296L350.309 182.6C349.845 184.168 348.325 185.208 346.581 185.208C344.357 185.208 342.469 183.576 342.469 181.064C342.469 178.584 344.357 176.92 346.581 176.92C348.309 176.92 349.813 177.928 350.325 179.544L349.157 179.896C348.773 178.68 347.749 178.04 346.581 178.04C344.965 178.04 343.653 179.256 343.653 181.064C343.653 182.904 344.965 184.072 346.581 184.072ZM356.744 183.576L357.144 184.584C356.504 185.032 355.96 185.208 355.32 185.208C353.752 185.208 352.712 184.28 352.712 182.536V178.136H351V177.112H352.712V174.28H353.944V177.112H356.76V178.136H353.944V182.456C353.944 183.48 354.52 184.056 355.4 184.056C355.848 184.056 356.344 183.864 356.744 183.576ZM370.048 177.112L364.704 188.84H363.344L365.152 184.888L361.616 177.112H362.992L365.808 183.416L368.688 177.112H370.048ZM374.974 176.936C377.294 176.936 379.15 178.632 379.15 181.048C379.15 183.464 377.294 185.192 374.974 185.192C372.622 185.192 370.782 183.464 370.782 181.048C370.782 178.632 372.622 176.936 374.974 176.936ZM374.974 184.12C376.59 184.12 377.95 182.872 377.95 181.048C377.95 179.24 376.59 178.008 374.974 178.008C373.342 178.008 371.966 179.24 371.966 181.048C371.966 182.872 373.342 184.12 374.974 184.12ZM388.42 177.112V184.984H387.188V183.704C386.548 184.648 385.524 185.192 384.212 185.192C382.308 185.192 381.044 183.832 381.044 181.832V177.112H382.276V181.608C382.276 183.08 383.14 184.056 384.452 184.056C386.1 184.056 387.188 182.952 387.188 180.904V177.112H388.42ZM395.621 177.032C395.813 177.032 395.957 177.032 396.181 177.096L396.085 178.264C395.941 178.248 395.765 178.248 395.621 178.248C393.525 178.248 392.453 179.832 392.453 181.96V185H391.221V177.112H392.453V179.048C393.093 177.88 394.165 177.032 395.621 177.032ZM404.87 176.92C406.838 176.92 408.134 177.976 408.134 179.88V185H406.95V183.8C406.342 184.616 405.35 185.208 403.99 185.208C402.262 185.208 401.126 184.216 401.126 182.792C401.126 181.352 402.23 180.328 404.294 180.328H406.95V179.96C406.95 178.728 406.15 177.992 404.934 177.992C403.734 177.992 402.902 178.584 402.726 179.576L401.558 179.32C401.814 177.896 403.142 176.92 404.87 176.92ZM404.166 184.2C405.702 184.2 406.95 183.128 406.95 181.704V181.288H404.278C402.982 181.288 402.294 181.912 402.294 182.776C402.294 183.608 403.03 184.2 404.166 184.2ZM413.956 184.072C415.124 184.072 416.148 183.448 416.564 182.296L417.684 182.6C417.22 184.168 415.7 185.208 413.956 185.208C411.732 185.208 409.844 183.576 409.844 181.064C409.844 178.584 411.732 176.92 413.956 176.92C415.684 176.92 417.188 177.928 417.7 179.544L416.532 179.896C416.148 178.68 415.124 178.04 413.956 178.04C412.34 178.04 411.028 179.256 411.028 181.064C411.028 182.904 412.34 184.072 413.956 184.072ZM423.175 184.072C424.343 184.072 425.367 183.448 425.783 182.296L426.903 182.6C426.439 184.168 424.919 185.208 423.175 185.208C420.951 185.208 419.063 183.576 419.063 181.064C419.063 178.584 420.951 176.92 423.175 176.92C424.903 176.92 426.407 177.928 426.919 179.544L425.751 179.896C425.367 178.68 424.343 178.04 423.175 178.04C421.559 178.04 420.247 179.256 420.247 181.064C420.247 182.904 421.559 184.072 423.175 184.072ZM432.474 176.936C434.794 176.936 436.65 178.632 436.65 181.048C436.65 183.464 434.794 185.192 432.474 185.192C430.122 185.192 428.282 183.464 428.282 181.048C428.282 178.632 430.122 176.936 432.474 176.936ZM432.474 184.12C434.09 184.12 435.45 182.872 435.45 181.048C435.45 179.24 434.09 178.008 432.474 178.008C430.842 178.008 429.466 179.24 429.466 181.048C429.466 182.872 430.842 184.12 432.474 184.12ZM445.92 177.112V184.984H444.688V183.704C444.048 184.648 443.024 185.192 441.712 185.192C439.808 185.192 438.544 183.832 438.544 181.832V177.112H439.776V181.608C439.776 183.08 440.64 184.056 441.952 184.056C443.6 184.056 444.688 182.952 444.688 180.904V177.112H445.92ZM452.913 176.92C454.817 176.92 456.081 178.28 456.081 180.28V185H454.865V180.504C454.865 179.032 453.985 178.04 452.673 178.04C451.025 178.04 449.937 179.16 449.937 181.208V185H448.721V177.112H449.937V178.424C450.577 177.464 451.585 176.92 452.913 176.92ZM463.041 183.576L463.441 184.584C462.801 185.032 462.257 185.208 461.617 185.208C460.049 185.208 459.009 184.28 459.009 182.536V178.136H457.297V177.112H459.009V174.28H460.241V177.112H463.057V178.136H460.241V182.456C460.241 183.48 460.817 184.056 461.697 184.056C462.145 184.056 462.641 183.864 463.041 183.576ZM464.33 182.872L465.546 182.6C465.658 183.64 466.618 184.2 467.866 184.2C469.002 184.2 469.754 183.672 469.754 182.856C469.754 182.2 469.258 181.896 468.458 181.72L466.65 181.32C465.338 181.048 464.602 180.392 464.602 179.304C464.602 177.88 465.786 176.92 467.594 176.92C469.37 176.92 470.522 177.832 470.81 179.112L469.642 179.368C469.482 178.504 468.73 177.912 467.562 177.912C466.442 177.912 465.818 178.456 465.818 179.208C465.818 179.832 466.25 180.12 467.018 180.296L468.922 180.712C470.074 180.968 470.954 181.576 470.954 182.776C470.954 184.328 469.658 185.208 467.77 185.208C465.962 185.208 464.522 184.408 464.33 182.872Z" fill="#726A60"/>
<rect x="834.5" y="136.5" width="241" height="47" rx="23.5" fill="#F2F0EF"/>
<rect x="834.5" y="136.5" width="241" height="47" rx="23.5" stroke="#D3CFCA"/>
<g clip-path="url(#clip0_436_21784)">
<path d="M866.164 158.516V161.677H870.557C870.364 162.694 869.786 163.555 868.917 164.133L871.567 166.189C873.11 164.764 874.001 162.672 874.001 160.185C874.001 159.607 873.949 159.05 873.852 158.516L866.164 158.516Z" fill="#4285F4"/>
<path d="M861.588 161.553L860.99 162.01L858.875 163.658C860.218 166.322 862.971 168.162 866.162 168.162C868.366 168.162 870.214 167.435 871.565 166.188L868.916 164.133C868.188 164.622 867.261 164.919 866.162 164.919C864.04 164.919 862.237 163.487 861.591 161.557L861.588 161.553Z" fill="#34A853"/>
<path d="M858.876 156.34C858.319 157.438 858 158.677 858 159.998C858 161.319 858.319 162.559 858.876 163.657C858.876 163.664 861.592 161.549 861.592 161.549C861.429 161.06 861.332 160.54 861.332 159.998C861.332 159.457 861.429 158.937 861.592 158.447L858.876 156.34Z" fill="#FBBC05"/>
<path d="M866.163 155.086C867.365 155.086 868.433 155.502 869.287 156.303L871.625 153.966C870.207 152.645 868.367 151.836 866.163 151.836C862.971 151.836 860.218 153.669 858.875 156.341L861.591 158.448C862.237 156.519 864.04 155.086 866.163 155.086Z" fill="#EA4335"/>
</g>
<path d="M888.813 163.608C890.493 163.608 891.869 162.712 892.349 160.904L894.013 161.256C893.421 163.768 891.341 165.224 888.813 165.224C885.693 165.224 883.229 162.776 883.229 159.64C883.229 156.52 885.693 154.056 888.813 154.056C891.341 154.056 893.405 155.528 894.013 157.896L892.349 158.376C891.869 156.568 890.493 155.672 888.813 155.672C886.653 155.672 884.957 157.384 884.957 159.64C884.957 161.896 886.653 163.608 888.813 163.608ZM899.621 156.888C901.957 156.888 903.861 158.568 903.861 161.032C903.861 163.496 901.957 165.192 899.621 165.192C897.269 165.192 895.349 163.496 895.349 161.032C895.349 158.568 897.269 156.888 899.621 156.888ZM899.621 163.752C900.981 163.752 902.245 162.68 902.245 161.032C902.245 159.384 900.981 158.312 899.621 158.312C898.229 158.312 896.981 159.384 896.981 161.032C896.981 162.68 898.229 163.752 899.621 163.752ZM910.141 156.84C912.045 156.84 913.325 158.216 913.325 160.2V165H911.645V160.536C911.645 159.24 910.893 158.376 909.757 158.376C908.333 158.376 907.389 159.336 907.389 161.336V165H905.725V157.064H907.389V158.04C908.029 157.272 908.957 156.84 910.141 156.84ZM920.415 163.224L920.927 164.616C920.175 165.064 919.631 165.224 918.959 165.224C917.247 165.224 916.095 164.264 916.095 162.296V158.44H914.383V157.064H916.095V154.28H917.759V157.064H920.479V158.44H917.759V162.184C917.759 163.176 918.287 163.656 919.071 163.656C919.487 163.656 919.999 163.496 920.415 163.224ZM923.232 153.64C923.84 153.64 924.288 154.12 924.288 154.68C924.288 155.272 923.84 155.704 923.232 155.704C922.608 155.704 922.16 155.272 922.16 154.68C922.16 154.12 922.608 153.64 923.232 153.64ZM924.064 165H922.4V157.064H924.064V165ZM931.125 156.84C933.029 156.84 934.309 158.216 934.309 160.2V165H932.629V160.536C932.629 159.24 931.877 158.376 930.741 158.376C929.317 158.376 928.373 159.336 928.373 161.336V165H926.709V157.064H928.373V158.04C929.013 157.272 929.941 156.84 931.125 156.84ZM943.992 157.064V165H942.328V164.024C941.688 164.792 940.76 165.224 939.592 165.224C937.672 165.224 936.408 163.848 936.408 161.848V157.064H938.072V161.512C938.072 162.808 938.824 163.688 939.976 163.688C941.4 163.688 942.328 162.728 942.328 160.728V157.064H943.992ZM953.914 160.856V161.432H947.482C947.642 162.904 948.714 163.784 949.882 163.784C950.762 163.784 951.658 163.528 952.218 162.408L953.706 162.728C953.05 164.392 951.642 165.224 949.882 165.224C947.722 165.224 945.834 163.56 945.834 161.048C945.834 158.52 947.706 156.84 949.946 156.84C952.074 156.84 953.834 158.472 953.914 160.856ZM949.946 158.312C948.906 158.312 947.786 158.968 947.53 160.248H952.202C951.946 158.952 951.034 158.312 949.946 158.312ZM970.669 157.064L968.013 165.032H966.493L964.669 159.688L962.845 165.032H961.325L958.669 157.064H960.333L962.141 162.584L964.013 157.064H965.325L967.197 162.584L969.005 157.064H970.669ZM973.122 153.64C973.73 153.64 974.178 154.12 974.178 154.68C974.178 155.272 973.73 155.704 973.122 155.704C972.498 155.704 972.05 155.272 972.05 154.68C972.05 154.12 972.498 153.64 973.122 153.64ZM973.954 165H972.29V157.064H973.954V165ZM981.368 163.224L981.88 164.616C981.128 165.064 980.584 165.224 979.912 165.224C978.2 165.224 977.048 164.264 977.048 162.296V158.44H975.336V157.064H977.048V154.28H978.712V157.064H981.432V158.44H978.712V162.184C978.712 163.176 979.24 163.656 980.024 163.656C980.44 163.656 980.952 163.496 981.368 163.224ZM987.641 156.84C989.545 156.84 990.825 158.216 990.825 160.2V165H989.145V160.536C989.145 159.24 988.393 158.376 987.257 158.376C985.833 158.376 984.889 159.336 984.889 161.336V165H983.225V152.68H984.889V158.04C985.529 157.272 986.457 156.84 987.641 156.84ZM1001.72 158.92H1007.63C1007.64 159.208 1007.66 159.464 1007.66 159.656C1007.66 162.808 1005.44 165.224 1002.25 165.224C999.084 165.224 996.62 162.776 996.62 159.64C996.62 156.52 999.068 154.056 1002.2 154.056C1004.49 154.056 1006.54 155.16 1007.31 157.224L1005.76 157.768C1005 156.232 1003.64 155.672 1002.2 155.672C1000.04 155.672 998.364 157.4 998.364 159.64C998.364 161.896 1000.08 163.608 1002.3 163.608C1004.27 163.608 1005.66 162.344 1005.98 160.488H1001.72V158.92ZM1013.28 156.888C1015.61 156.888 1017.52 158.568 1017.52 161.032C1017.52 163.496 1015.61 165.192 1013.28 165.192C1010.93 165.192 1009.01 163.496 1009.01 161.032C1009.01 158.568 1010.93 156.888 1013.28 156.888ZM1013.28 163.752C1014.64 163.752 1015.9 162.68 1015.9 161.032C1015.9 159.384 1014.64 158.312 1013.28 158.312C1011.89 158.312 1010.64 159.384 1010.64 161.032C1010.64 162.68 1011.89 163.752 1013.28 163.752ZM1022.97 156.888C1025.3 156.888 1027.21 158.568 1027.21 161.032C1027.21 163.496 1025.3 165.192 1022.97 165.192C1020.61 165.192 1018.69 163.496 1018.69 161.032C1018.69 158.568 1020.61 156.888 1022.97 156.888ZM1022.97 163.752C1024.33 163.752 1025.59 162.68 1025.59 161.032C1025.59 159.384 1024.33 158.312 1022.97 158.312C1021.57 158.312 1020.33 159.384 1020.33 161.032C1020.33 162.68 1021.57 163.752 1022.97 163.752ZM1036.88 157.064V165.256C1036.86 167.608 1034.99 169 1032.54 169C1030.64 169 1029.32 168.28 1028.67 167.096L1030.04 165.976C1030.62 166.888 1031.29 167.368 1032.54 167.368C1034.01 167.368 1035.2 166.52 1035.2 165.016V164.024C1034.52 164.792 1033.55 165.224 1032.32 165.224C1030.25 165.224 1028.38 163.544 1028.38 161.032C1028.38 158.536 1030.25 156.84 1032.32 156.84C1033.55 156.84 1034.52 157.288 1035.2 158.04V157.064H1036.88ZM1032.59 163.752C1033.92 163.752 1035.2 162.712 1035.2 161.032C1035.2 159.368 1033.92 158.312 1032.59 158.312C1031.15 158.312 1030.01 159.368 1030.01 161.032C1030.01 162.712 1031.15 163.752 1032.59 163.752ZM1041.05 165H1039.38V152.68H1041.05V165ZM1050.96 160.856V161.432H1044.53C1044.69 162.904 1045.76 163.784 1046.93 163.784C1047.81 163.784 1048.7 163.528 1049.26 162.408L1050.75 162.728C1050.1 164.392 1048.69 165.224 1046.93 165.224C1044.77 165.224 1042.88 163.56 1042.88 161.048C1042.88 158.52 1044.75 156.84 1046.99 156.84C1049.12 156.84 1050.88 158.472 1050.96 160.856ZM1046.99 158.312C1045.95 158.312 1044.83 158.968 1044.58 160.248H1049.25C1048.99 158.952 1048.08 158.312 1046.99 158.312Z" fill="#1A1816"/>
<rect x="32.5" y="248.5" width="1075" height="139" rx="11.5" fill="white"/>
<rect x="32.5" y="248.5" width="1075" height="139" rx="11.5" stroke="#D3CFCA"/>
<path d="M74.422 297.786V300H65.26V287.94H74.386V290.154H67.708V292.872H73.864V295.05H67.708V297.786H74.422ZM87.9542 290.748C89.8262 290.748 91.4462 292.188 91.4462 294.384V300H89.0882V294.87C89.0882 293.664 88.3142 292.926 87.3242 292.926C86.0642 292.926 85.2362 293.79 85.2362 295.68V300H82.8602V294.87C82.8602 293.664 82.0862 292.926 81.0962 292.926C79.8362 292.926 79.0442 293.79 79.0442 295.68V300H76.6682V291.018H79.0442V291.756C79.6742 291.126 80.5562 290.748 81.7262 290.748C82.9322 290.748 84.0302 291.27 84.6782 292.224C85.4162 291.306 86.5142 290.748 87.9542 290.748ZM97.5161 290.748C99.8921 290.748 101.458 291.954 101.458 294.132V300H99.1901V299.262C98.5781 299.856 97.6781 300.27 96.4541 300.27C94.4021 300.27 93.0341 299.1 93.0341 297.336C93.0341 295.608 94.3301 294.456 96.5981 294.456H99.1901V294.312C99.1901 293.412 98.5781 292.8 97.6601 292.8C96.5801 292.8 95.9681 293.214 95.7881 294.114L93.5201 293.664C93.8621 291.918 95.4641 290.748 97.5161 290.748ZM96.8321 298.38C98.0921 298.38 99.1901 297.516 99.1901 296.364V296.256H96.5621C95.8061 296.256 95.3021 296.67 95.3021 297.282C95.3021 297.948 95.9141 298.38 96.8321 298.38ZM104.894 286.914C105.722 286.914 106.334 287.58 106.334 288.336C106.334 289.128 105.722 289.722 104.894 289.722C104.048 289.722 103.454 289.128 103.454 288.336C103.454 287.58 104.048 286.914 104.894 286.914ZM106.082 300H103.706V291.018H106.082V300ZM111.107 300H108.731V286.14H111.107V300Z" fill="#1A1816"/>
<path d="M71.5145 341.143C71.0409 340.858 70.4267 341.012 70.1425 341.486C69.8584 341.959 70.0119 342.573 70.4855 342.857L75.4855 345.857C75.8022 346.048 76.1978 346.048 76.5145 345.857L81.5145 342.857C81.9881 342.573 82.1416 341.959 81.8575 341.486C81.5733 341.012 80.9591 340.858 80.4855 341.143L76 343.834L71.5145 341.143Z" fill="#1A1816"/>
<path fill-rule="evenodd" clip-rule="evenodd" d="M71 336C68.2386 336 66 338.239 66 341V347C66 349.761 68.2386 352 71 352H81C83.7614 352 86 349.761 86 347V341C86 338.239 83.7614 336 81 336H71ZM68 341C68 339.343 69.3431 338 71 338H81C82.6569 338 84 339.343 84 341V347C84 348.657 82.6569 350 81 350H71C69.3431 350 68 348.657 68 347V341Z" fill="#1A1816"/>
<path d="M104.106 347.278V349H96.98V339.62H104.078V341.342H98.884V343.456H103.672V345.15H98.884V347.278H104.106ZM114.631 341.804C116.087 341.804 117.347 342.924 117.347 344.632V349H115.513V345.01C115.513 344.072 114.911 343.498 114.141 343.498C113.161 343.498 112.517 344.17 112.517 345.64V349H110.669V345.01C110.669 344.072 110.067 343.498 109.297 343.498C108.317 343.498 107.701 344.17 107.701 345.64V349H105.853V342.014H107.701V342.588C108.191 342.098 108.877 341.804 109.787 341.804C110.725 341.804 111.579 342.21 112.083 342.952C112.657 342.238 113.511 341.804 114.631 341.804ZM122.068 341.804C123.916 341.804 125.134 342.742 125.134 344.436V349H123.37V348.426C122.894 348.888 122.194 349.21 121.242 349.21C119.646 349.21 118.582 348.3 118.582 346.928C118.582 345.584 119.59 344.688 121.354 344.688H123.37V344.576C123.37 343.876 122.894 343.4 122.18 343.4C121.34 343.4 120.864 343.722 120.724 344.422L118.96 344.072C119.226 342.714 120.472 341.804 122.068 341.804ZM121.536 347.74C122.516 347.74 123.37 347.068 123.37 346.172V346.088H121.326C120.738 346.088 120.346 346.41 120.346 346.886C120.346 347.404 120.822 347.74 121.536 347.74ZM127.807 338.822C128.451 338.822 128.927 339.34 128.927 339.928C128.927 340.544 128.451 341.006 127.807 341.006C127.149 341.006 126.687 340.544 126.687 339.928C126.687 339.34 127.149 338.822 127.807 338.822ZM128.731 349H126.883V342.014H128.731V349ZM132.639 349H130.791V338.22H132.639V349Z" fill="#1A1816"/>
<path d="M149.574 345.374V345.878H143.946C144.086 347.166 145.024 347.936 146.046 347.936C146.816 347.936 147.6 347.712 148.09 346.732L149.392 347.012C148.818 348.468 147.586 349.196 146.046 349.196C144.156 349.196 142.504 347.74 142.504 345.542C142.504 343.33 144.142 341.86 146.102 341.86C147.964 341.86 149.504 343.288 149.574 345.374ZM146.102 343.148C145.192 343.148 144.212 343.722 143.988 344.842H148.076C147.852 343.708 147.054 343.148 146.102 343.148ZM159.768 341.86C161.21 341.86 162.4 342.938 162.4 344.576V349H160.958V344.87C160.958 343.848 160.286 343.204 159.39 343.204C158.256 343.204 157.514 344.002 157.514 345.556V349H156.058V344.87C156.058 343.848 155.386 343.204 154.49 343.204C153.37 343.204 152.642 344.002 152.642 345.556V349H151.186V342.056H152.642V342.84C153.146 342.224 153.874 341.86 154.868 341.86C155.862 341.86 156.73 342.322 157.178 343.134C157.738 342.35 158.62 341.86 159.768 341.86ZM167.247 341.86C169.025 341.86 170.201 342.798 170.201 344.478V349H168.815V348.202C168.297 348.776 167.527 349.196 166.449 349.196C164.895 349.196 163.859 348.3 163.859 346.998C163.859 345.696 164.853 344.8 166.645 344.8H168.815V344.59C168.815 343.694 168.213 343.134 167.331 343.134C166.393 343.134 165.791 343.554 165.637 344.338L164.251 344.044C164.489 342.742 165.693 341.86 167.247 341.86ZM166.673 348.02C167.835 348.02 168.815 347.208 168.815 346.144V345.92H166.617C165.763 345.92 165.259 346.354 165.259 346.97C165.259 347.6 165.819 348.02 166.673 348.02ZM172.944 339.06C173.476 339.06 173.868 339.48 173.868 339.97C173.868 340.488 173.476 340.866 172.944 340.866C172.398 340.866 172.006 340.488 172.006 339.97C172.006 339.48 172.398 339.06 172.944 339.06ZM173.672 349H172.216V342.056H173.672V349ZM177.303 338.22V347.012C177.303 347.488 177.667 347.824 178.199 347.824C178.437 347.824 178.759 347.74 179.039 347.614L179.319 348.832C178.955 349.028 178.577 349.196 177.947 349.196C176.687 349.196 175.847 348.356 175.847 347.096V338.22H177.303ZM188.647 342.378V346.424C188.647 346.942 189.053 347.25 189.557 347.25C190.523 347.25 190.915 345.934 190.915 344.8C190.915 342.126 188.773 340.292 186.085 340.292C183.243 340.292 181.129 342.364 181.129 345.136C181.129 347.922 183.285 349.966 185.931 349.966C187.065 349.966 188.353 349.602 189.319 348.902L189.809 349.672C188.829 350.428 187.317 350.862 185.959 350.862C182.781 350.862 180.177 348.482 180.177 345.15C180.177 341.846 182.725 339.424 186.085 339.424C189.277 339.424 191.881 341.65 191.881 344.73C191.881 346.284 191.237 348.118 189.417 348.118C188.563 348.118 188.003 347.74 187.779 347.152C187.331 347.74 186.631 348.076 185.735 348.076C184.153 348.076 182.921 346.928 182.921 345.192C182.921 343.4 184.181 342.266 185.735 342.266C186.533 342.266 187.205 342.574 187.681 343.12V342.378H188.647ZM185.875 347.096C186.827 347.096 187.681 346.368 187.681 345.178C187.681 343.988 186.827 343.274 185.875 343.274C184.923 343.274 184.055 343.974 184.055 345.178C184.055 346.382 184.923 347.096 185.875 347.096ZM200.256 345.374V345.878H194.628C194.768 347.166 195.706 347.936 196.728 347.936C197.498 347.936 198.282 347.712 198.772 346.732L200.074 347.012C199.5 348.468 198.268 349.196 196.728 349.196C194.838 349.196 193.186 347.74 193.186 345.542C193.186 343.33 194.824 341.86 196.784 341.86C198.646 341.86 200.186 343.288 200.256 345.374ZM196.784 343.148C195.874 343.148 194.894 343.722 194.67 344.842H198.758C198.534 343.708 197.736 343.148 196.784 343.148ZM210.45 341.86C211.892 341.86 213.082 342.938 213.082 344.576V349H211.64V344.87C211.64 343.848 210.968 343.204 210.072 343.204C208.938 343.204 208.196 344.002 208.196 345.556V349H206.74V344.87C206.74 343.848 206.068 343.204 205.172 343.204C204.052 343.204 203.324 344.002 203.324 345.556V349H201.868V342.056H203.324V342.84C203.828 342.224 204.556 341.86 205.55 341.86C206.544 341.86 207.412 342.322 207.86 343.134C208.42 342.35 209.302 341.86 210.45 341.86ZM217.929 341.86C219.707 341.86 220.883 342.798 220.883 344.478V349H219.497V348.202C218.979 348.776 218.209 349.196 217.131 349.196C215.577 349.196 214.541 348.3 214.541 346.998C214.541 345.696 215.535 344.8 217.327 344.8H219.497V344.59C219.497 343.694 218.895 343.134 218.013 343.134C217.075 343.134 216.473 343.554 216.319 344.338L214.933 344.044C215.171 342.742 216.375 341.86 217.929 341.86ZM217.355 348.02C218.517 348.02 219.497 347.208 219.497 346.144V345.92H217.299C216.445 345.92 215.941 346.354 215.941 346.97C215.941 347.6 216.501 348.02 217.355 348.02ZM223.626 339.06C224.158 339.06 224.55 339.48 224.55 339.97C224.55 340.488 224.158 340.866 223.626 340.866C223.08 340.866 222.688 340.488 222.688 339.97C222.688 339.48 223.08 339.06 223.626 339.06ZM224.354 349H222.898V342.056H224.354V349ZM227.985 338.22V347.012C227.985 347.488 228.349 347.824 228.881 347.824C229.119 347.824 229.441 347.74 229.721 347.614L230.001 348.832C229.637 349.028 229.258 349.196 228.629 349.196C227.369 349.196 226.529 348.356 226.529 347.096V338.22H227.985ZM231.601 347.278C232.133 347.278 232.511 347.684 232.511 348.16C232.511 348.664 232.133 349.056 231.601 349.056C231.069 349.056 230.677 348.664 230.677 348.16C230.677 347.684 231.069 347.278 231.601 347.278ZM237.131 347.852C238.055 347.852 238.825 347.376 239.175 346.396L240.519 346.746C240.127 348.23 238.741 349.196 237.131 349.196C235.143 349.196 233.463 347.726 233.463 345.528C233.463 343.358 235.143 341.86 237.131 341.86C238.699 341.86 240.071 342.812 240.519 344.296L239.119 344.702C238.839 343.68 238.055 343.204 237.131 343.204C235.843 343.204 234.891 344.156 234.891 345.528C234.891 346.942 235.843 347.852 237.131 347.852ZM245.281 341.902C247.325 341.902 248.991 343.372 248.991 345.528C248.991 347.684 247.325 349.168 245.281 349.168C243.223 349.168 241.543 347.684 241.543 345.528C241.543 343.372 243.223 341.902 245.281 341.902ZM245.281 347.908C246.471 347.908 247.577 346.97 247.577 345.528C247.577 344.086 246.471 343.148 245.281 343.148C244.063 343.148 242.971 344.086 242.971 345.528C242.971 346.97 244.063 347.908 245.281 347.908ZM259.204 341.86C260.646 341.86 261.836 342.938 261.836 344.576V349H260.394V344.87C260.394 343.848 259.722 343.204 258.826 343.204C257.692 343.204 256.95 344.002 256.95 345.556V349H255.494V344.87C255.494 343.848 254.822 343.204 253.926 343.204C252.806 343.204 252.078 344.002 252.078 345.556V349H250.622V342.056H252.078V342.84C252.582 342.224 253.31 341.86 254.304 341.86C255.298 341.86 256.166 342.322 256.614 343.134C257.174 342.35 258.056 341.86 259.204 341.86Z" fill="#1A1816"/>
<mask id="path-23-inside-1_436_21784" fill="white">
<path d="M996 304C996 290.745 1006.75 280 1020 280H1052C1065.25 280 1076 290.745 1076 304V304C1076 317.255 1065.25 328 1052 328H1020C1006.75 328 996 317.255 996 304V304Z"/>
</mask>
<path d="M996 304C996 290.745 1006.75 280 1020 280H1052C1065.25 280 1076 290.745 1076 304V304C1076 317.255 1065.25 328 1052 328H1020C1006.75 328 996 317.255 996 304V304Z" fill="white"/>
<path d="M996 304M1076 304M1076 304M996 304M1020 280V281H1052V280V279H1020V280ZM1076 304M1052 328V327H1020V328V329H1052V328ZM996 304M1020 328V327C1007.3 327 997 316.703 997 304H996H995C995 317.807 1006.19 329 1020 329V328ZM1076 304H1075C1075 316.703 1064.7 327 1052 327V328V329C1065.81 329 1077 317.807 1077 304H1076ZM1052 280V281C1064.7 281 1075 291.297 1075 304H1076H1077C1077 290.193 1065.81 279 1052 279V280ZM1020 280V279C1006.19 279 995 290.193 995 304H996H997C997 291.297 1007.3 281 1020 281V280Z" fill="#D3CFCA" mask="url(#path-23-inside-1_436_21784)"/>
<path d="M1029.25 307.448V309H1021.26V298.28H1029.23V299.832H1022.98V302.856H1028.75V304.392H1022.98V307.448H1029.25ZM1039.24 296.68V309H1037.56V308.024C1036.89 308.792 1035.92 309.224 1034.68 309.224C1032.62 309.224 1030.75 307.544 1030.75 305.032C1030.75 302.536 1032.62 300.84 1034.68 300.84C1035.92 300.84 1036.89 301.288 1037.56 302.04V296.68H1039.24ZM1034.96 307.752C1036.28 307.752 1037.56 306.712 1037.56 305.032C1037.56 303.368 1036.28 302.312 1034.96 302.312C1033.52 302.312 1032.38 303.368 1032.38 305.032C1032.38 306.712 1033.52 307.752 1034.96 307.752ZM1042.71 297.64C1043.32 297.64 1043.76 298.12 1043.76 298.68C1043.76 299.272 1043.32 299.704 1042.71 299.704C1042.08 299.704 1041.64 299.272 1041.64 298.68C1041.64 298.12 1042.08 297.64 1042.71 297.64ZM1043.54 309H1041.88V301.064H1043.54V309ZM1050.95 307.224L1051.47 308.616C1050.71 309.064 1050.17 309.224 1049.5 309.224C1047.79 309.224 1046.63 308.264 1046.63 306.296V302.44H1044.92V301.064H1046.63V298.28H1048.3V301.064H1051.02V302.44H1048.3V306.184C1048.3 307.176 1048.83 307.656 1049.61 307.656C1050.03 307.656 1050.54 307.496 1050.95 307.224Z" fill="#1A1816"/>
<rect x="32.5" y="412.5" width="1075" height="139" rx="11.5" fill="white"/>
<rect x="32.5" y="412.5" width="1075" height="139" rx="11.5" stroke="#D3CFCA"/>
<path d="M65.26 451.94H70.876C73.648 451.94 75.34 453.578 75.34 455.99C75.34 458.438 73.648 460.058 70.876 460.058H67.708V464H65.26V451.94ZM67.708 457.844H70.876C72.19 457.844 72.91 457.106 72.91 455.99C72.91 454.91 72.19 454.154 70.876 454.154H67.708V457.844ZM80.6411 454.748C83.0171 454.748 84.5831 455.954 84.5831 458.132V464H82.3151V463.262C81.7031 463.856 80.8031 464.27 79.5791 464.27C77.5271 464.27 76.1591 463.1 76.1591 461.336C76.1591 459.608 77.4551 458.456 79.7231 458.456H82.3151V458.312C82.3151 457.412 81.7031 456.8 80.7851 456.8C79.7051 456.8 79.0931 457.214 78.9131 458.114L76.6451 457.664C76.9871 455.918 78.5891 454.748 80.6411 454.748ZM79.9571 462.38C81.2171 462.38 82.3151 461.516 82.3151 460.364V460.256H79.6871C78.9311 460.256 78.4271 460.67 78.4271 461.282C78.4271 461.948 79.0391 462.38 79.9571 462.38ZM85.9493 461.624L88.3433 461.138C88.4693 462.056 89.2613 462.362 90.1973 462.362C91.0793 462.362 91.6013 461.966 91.6013 461.462C91.6013 461.138 91.3853 460.814 90.6113 460.652L88.7753 460.274C87.1553 459.932 86.2373 459.014 86.2373 457.718C86.2373 455.99 87.6413 454.748 89.9093 454.748C92.0333 454.748 93.5093 455.846 93.8153 457.412L91.5473 457.862C91.4573 457.142 90.8273 456.62 89.8373 456.62C88.8833 456.62 88.6133 457.088 88.6133 457.502C88.6133 457.79 88.7213 458.096 89.4233 458.258L91.5653 458.726C93.1493 459.068 93.9233 460.058 93.9233 461.264C93.9233 463.244 92.3213 464.27 89.9813 464.27C88.0013 464.27 86.1833 463.496 85.9493 461.624ZM94.8263 461.624L97.2203 461.138C97.3463 462.056 98.1383 462.362 99.0743 462.362C99.9563 462.362 100.478 461.966 100.478 461.462C100.478 461.138 100.262 460.814 99.4883 460.652L97.6523 460.274C96.0323 459.932 95.1143 459.014 95.1143 457.718C95.1143 455.99 96.5183 454.748 98.7863 454.748C100.91 454.748 102.386 455.846 102.692 457.412L100.424 457.862C100.334 457.142 99.7043 456.62 98.7143 456.62C97.7603 456.62 97.4903 457.088 97.4903 457.502C97.4903 457.79 97.5983 458.096 98.3003 458.258L100.442 458.726C102.026 459.068 102.8 460.058 102.8 461.264C102.8 463.244 101.198 464.27 98.8583 464.27C96.8783 464.27 95.0603 463.496 94.8263 461.624ZM117.361 455.018L114.373 464.018H112.231L110.467 458.726L108.685 464.018H106.543L103.555 455.018H105.913L107.695 460.544L109.531 455.018H111.385L113.221 460.562L115.003 455.018H117.361ZM122.891 454.802C125.519 454.802 127.733 456.692 127.733 459.518C127.733 462.344 125.519 464.234 122.891 464.234C120.209 464.234 117.995 462.344 117.995 459.518C117.995 456.692 120.209 454.802 122.891 454.802ZM122.891 462.2C124.133 462.2 125.429 461.192 125.429 459.518C125.429 457.844 124.133 456.836 122.891 456.836C121.595 456.836 120.299 457.844 120.299 459.518C120.299 461.192 121.595 462.2 122.891 462.2ZM135.124 454.892C135.358 454.892 135.538 454.892 135.754 454.964L135.628 457.25H135.106C132.91 457.25 131.902 458.6 131.902 461.102V464H129.526V455.018H131.902V456.656C132.622 455.612 133.666 454.892 135.124 454.892ZM146.085 450.14V464H143.709V463.226C142.989 463.892 141.999 464.27 140.739 464.27C138.453 464.27 136.329 462.344 136.329 459.518C136.329 456.692 138.453 454.748 140.739 454.748C141.999 454.748 142.989 455.126 143.709 455.792V450.14H146.085ZM141.153 462.2C142.431 462.2 143.709 461.174 143.709 459.518C143.709 457.862 142.431 456.818 141.153 456.818C139.713 456.818 138.633 457.862 138.633 459.518C138.633 461.174 139.713 462.2 141.153 462.2Z" fill="#1A1816"/>
<path d="M77 511.732C77.5978 511.387 78 510.74 78 510C78 508.895 77.1046 508 76 508C74.8954 508 74 508.895 74 510C74 510.74 74.4022 511.387 75 511.732V513C75 513.552 75.4477 514 76 514C76.5523 514 77 513.552 77 513V511.732Z" fill="#1A1816"/>
<path fill-rule="evenodd" clip-rule="evenodd" d="M76 498C73.7909 498 72 499.791 72 502V504H71C68.7909 504 67 505.791 67 508V514C67 516.209 68.7909 518 71 518H81C83.2091 518 85 516.209 85 514V508C85 505.791 83.2091 504 81 504H80V502C80 499.791 78.2091 498 76 498ZM76 500C74.8954 500 74 500.895 74 502V504H78V502C78 500.895 77.1046 500 76 500ZM69 508C69 506.895 69.8954 506 71 506H81C82.1046 506 83 506.895 83 508V514C83 515.105 82.1046 516 81 516H71C69.8954 516 69 515.105 69 514V508Z" fill="#1A1816"/>
<path d="M96.98 503.62H101.348C103.504 503.62 104.82 504.894 104.82 506.77C104.82 508.674 103.504 509.934 101.348 509.934H98.884V513H96.98V503.62ZM98.884 508.212H101.348C102.37 508.212 102.93 507.638 102.93 506.77C102.93 505.93 102.37 505.342 101.348 505.342H98.884V508.212ZM108.943 505.804C110.791 505.804 112.009 506.742 112.009 508.436V513H110.245V512.426C109.769 512.888 109.069 513.21 108.117 513.21C106.521 513.21 105.457 512.3 105.457 510.928C105.457 509.584 106.465 508.688 108.229 508.688H110.245V508.576C110.245 507.876 109.769 507.4 109.055 507.4C108.215 507.4 107.739 507.722 107.599 508.422L105.835 508.072C106.101 506.714 107.347 505.804 108.943 505.804ZM108.411 511.74C109.391 511.74 110.245 511.068 110.245 510.172V510.088H108.201C107.613 510.088 107.221 510.41 107.221 510.886C107.221 511.404 107.697 511.74 108.411 511.74ZM113.072 511.152L114.934 510.774C115.032 511.488 115.648 511.726 116.376 511.726C117.062 511.726 117.468 511.418 117.468 511.026C117.468 510.774 117.3 510.522 116.698 510.396L115.27 510.102C114.01 509.836 113.296 509.122 113.296 508.114C113.296 506.77 114.388 505.804 116.152 505.804C117.804 505.804 118.952 506.658 119.19 507.876L117.426 508.226C117.356 507.666 116.866 507.26 116.096 507.26C115.354 507.26 115.144 507.624 115.144 507.946C115.144 508.17 115.228 508.408 115.774 508.534L117.44 508.898C118.672 509.164 119.274 509.934 119.274 510.872C119.274 512.412 118.028 513.21 116.208 513.21C114.668 513.21 113.254 512.608 113.072 511.152ZM119.976 511.152L121.838 510.774C121.936 511.488 122.552 511.726 123.28 511.726C123.966 511.726 124.372 511.418 124.372 511.026C124.372 510.774 124.204 510.522 123.602 510.396L122.174 510.102C120.914 509.836 120.2 509.122 120.2 508.114C120.2 506.77 121.292 505.804 123.056 505.804C124.708 505.804 125.856 506.658 126.094 507.876L124.33 508.226C124.26 507.666 123.77 507.26 123 507.26C122.258 507.26 122.048 507.624 122.048 507.946C122.048 508.17 122.132 508.408 122.678 508.534L124.344 508.898C125.576 509.164 126.178 509.934 126.178 510.872C126.178 512.412 124.932 513.21 123.112 513.21C121.572 513.21 120.158 512.608 119.976 511.152ZM137.503 506.014L135.179 513.014H133.513L132.141 508.898L130.755 513.014H129.089L126.765 506.014H128.599L129.985 510.312L131.413 506.014H132.855L134.283 510.326L135.669 506.014H137.503ZM141.804 505.846C143.848 505.846 145.57 507.316 145.57 509.514C145.57 511.712 143.848 513.182 141.804 513.182C139.718 513.182 137.996 511.712 137.996 509.514C137.996 507.316 139.718 505.846 141.804 505.846ZM141.804 511.6C142.77 511.6 143.778 510.816 143.778 509.514C143.778 508.212 142.77 507.428 141.804 507.428C140.796 507.428 139.788 508.212 139.788 509.514C139.788 510.816 140.796 511.6 141.804 511.6ZM151.318 505.916C151.5 505.916 151.64 505.916 151.808 505.972L151.71 507.75H151.304C149.596 507.75 148.812 508.8 148.812 510.746V513H146.964V506.014H148.812V507.288C149.372 506.476 150.184 505.916 151.318 505.916ZM159.844 502.22V513H157.996V512.398C157.436 512.916 156.666 513.21 155.686 513.21C153.908 513.21 152.256 511.712 152.256 509.514C152.256 507.316 153.908 505.804 155.686 505.804C156.666 505.804 157.436 506.098 157.996 506.616V502.22H159.844ZM156.008 511.6C157.002 511.6 157.996 510.802 157.996 509.514C157.996 508.226 157.002 507.414 156.008 507.414C154.888 507.414 154.048 508.226 154.048 509.514C154.048 510.802 154.888 511.6 156.008 511.6Z" fill="#1A1816"/>
<path d="M171.87 507.176C173.158 507.176 174.11 508.198 174.11 509.346C174.11 510.578 173.158 511.502 171.87 511.502C170.582 511.502 169.63 510.578 169.63 509.346C169.63 508.198 170.582 507.176 171.87 507.176ZM177.612 507.176C178.9 507.176 179.852 508.198 179.852 509.346C179.852 510.578 178.9 511.502 177.612 511.502C176.324 511.502 175.372 510.578 175.372 509.346C175.372 508.198 176.324 507.176 177.612 507.176ZM183.354 507.176C184.642 507.176 185.594 508.198 185.594 509.346C185.594 510.578 184.642 511.502 183.354 511.502C182.066 511.502 181.114 510.578 181.114 509.346C181.114 508.198 182.066 507.176 183.354 507.176ZM189.097 507.176C190.385 507.176 191.337 508.198 191.337 509.346C191.337 510.578 190.385 511.502 189.097 511.502C187.809 511.502 186.857 510.578 186.857 509.346C186.857 508.198 187.809 507.176 189.097 507.176ZM194.839 507.176C196.127 507.176 197.079 508.198 197.079 509.346C197.079 510.578 196.127 511.502 194.839 511.502C193.551 511.502 192.599 510.578 192.599 509.346C192.599 508.198 193.551 507.176 194.839 507.176ZM200.581 507.176C201.869 507.176 202.821 508.198 202.821 509.346C202.821 510.578 201.869 511.502 200.581 511.502C199.293 511.502 198.341 510.578 198.341 509.346C198.341 508.198 199.293 507.176 200.581 507.176ZM206.323 507.176C207.611 507.176 208.563 508.198 208.563 509.346C208.563 510.578 207.611 511.502 206.323 511.502C205.035 511.502 204.083 510.578 204.083 509.346C204.083 508.198 205.035 507.176 206.323 507.176ZM212.065 507.176C213.353 507.176 214.305 508.198 214.305 509.346C214.305 510.578 213.353 511.502 212.065 511.502C210.777 511.502 209.825 510.578 209.825 509.346C209.825 508.198 210.777 507.176 212.065 507.176Z" fill="#1A1816"/>
<mask id="path-31-inside-2_436_21784" fill="white">
<path d="M996 468C996 454.745 1006.75 444 1020 444H1052C1065.25 444 1076 454.745 1076 468V468C1076 481.255 1065.25 492 1052 492H1020C1006.75 492 996 481.255 996 468V468Z"/>
</mask>
<path d="M996 468C996 454.745 1006.75 444 1020 444H1052C1065.25 444 1076 454.745 1076 468V468C1076 481.255 1065.25 492 1052 492H1020C1006.75 492 996 481.255 996 468V468Z" fill="white"/>
<path d="M996 468M1076 468M1076 468M996 468M1020 444V445H1052V444V443H1020V444ZM1076 468M1052 492V491H1020V492V493H1052V492ZM996 468M1020 492V491C1007.3 491 997 480.703 997 468H996H995C995 481.807 1006.19 493 1020 493V492ZM1076 468H1075C1075 480.703 1064.7 491 1052 491V492V493C1065.81 493 1077 481.807 1077 468H1076ZM1052 444V445C1064.7 445 1075 455.297 1075 468H1076H1077C1077 454.193 1065.81 443 1052 443V444ZM1020 444V443C1006.19 443 995 454.193 995 468H996H997C997 455.297 1007.3 445 1020 445V444Z" fill="#D3CFCA" mask="url(#path-31-inside-2_436_21784)"/>
<path d="M1029.25 471.448V473H1021.26V462.28H1029.23V463.832H1022.98V466.856H1028.75V468.392H1022.98V471.448H1029.25ZM1039.24 460.68V473H1037.56V472.024C1036.89 472.792 1035.92 473.224 1034.68 473.224C1032.62 473.224 1030.75 471.544 1030.75 469.032C1030.75 466.536 1032.62 464.84 1034.68 464.84C1035.92 464.84 1036.89 465.288 1037.56 466.04V460.68H1039.24ZM1034.96 471.752C1036.28 471.752 1037.56 470.712 1037.56 469.032C1037.56 467.368 1036.28 466.312 1034.96 466.312C1033.52 466.312 1032.38 467.368 1032.38 469.032C1032.38 470.712 1033.52 471.752 1034.96 471.752ZM1042.71 461.64C1043.32 461.64 1043.76 462.12 1043.76 462.68C1043.76 463.272 1043.32 463.704 1042.71 463.704C1042.08 463.704 1041.64 463.272 1041.64 462.68C1041.64 462.12 1042.08 461.64 1042.71 461.64ZM1043.54 473H1041.88V465.064H1043.54V473ZM1050.95 471.224L1051.47 472.616C1050.71 473.064 1050.17 473.224 1049.5 473.224C1047.79 473.224 1046.63 472.264 1046.63 470.296V466.44H1044.92V465.064H1046.63V462.28H1048.3V465.064H1051.02V466.44H1048.3V470.184C1048.3 471.176 1048.83 471.656 1049.61 471.656C1050.03 471.656 1050.54 471.496 1050.95 471.224Z" fill="#1A1816"/>
<rect x="32.5" y="576.5" width="1075" height="139" rx="11.5" fill="white"/>
<rect x="32.5" y="576.5" width="1075" height="139" rx="11.5" stroke="#D3CFCA"/>
<path d="M65.26 615.94H70.876C73.648 615.94 75.34 617.578 75.34 619.99C75.34 622.438 73.648 624.058 70.876 624.058H67.708V628H65.26V615.94ZM67.708 621.844H70.876C72.19 621.844 72.91 621.106 72.91 619.99C72.91 618.91 72.19 618.154 70.876 618.154H67.708V621.844ZM82.4327 618.748C84.5927 618.748 86.0327 620.296 86.0327 622.528V628H83.6567V623.032C83.6567 621.772 82.9367 620.926 81.8387 620.926C80.4887 620.926 79.6067 621.826 79.6067 624.022V628H77.2307V614.14H79.6067V619.828C80.3087 619.126 81.2447 618.748 82.4327 618.748ZM92.5161 618.802C95.1441 618.802 97.3581 620.692 97.3581 623.518C97.3581 626.344 95.1441 628.234 92.5161 628.234C89.8341 628.234 87.6201 626.344 87.6201 623.518C87.6201 620.692 89.8341 618.802 92.5161 618.802ZM92.5161 626.2C93.7581 626.2 95.0541 625.192 95.0541 623.518C95.0541 621.844 93.7581 620.836 92.5161 620.836C91.2201 620.836 89.9241 621.844 89.9241 623.518C89.9241 625.192 91.2201 626.2 92.5161 626.2ZM104.353 618.748C106.513 618.748 107.953 620.296 107.953 622.528V628H105.577V623.032C105.577 621.772 104.857 620.926 103.759 620.926C102.409 620.926 101.527 621.826 101.527 624.022V628H99.1506V619.018H101.527V619.828C102.229 619.126 103.165 618.748 104.353 618.748ZM118.72 623.338V624.148H111.88C112.114 625.444 113.032 626.236 114.13 626.236C114.832 626.236 115.714 626.146 116.362 625.048L118.486 625.498C117.694 627.37 116.092 628.27 114.13 628.27C111.592 628.27 109.522 626.344 109.522 623.518C109.522 620.692 111.592 618.748 114.166 618.748C116.56 618.748 118.63 620.602 118.72 623.338ZM114.166 620.818C113.266 620.818 112.24 621.358 111.952 622.474H116.29C115.984 621.322 115.12 620.818 114.166 620.818ZM130.105 618.748C132.265 618.748 133.705 620.296 133.705 622.528V628H131.329V623.032C131.329 621.772 130.609 620.926 129.511 620.926C128.161 620.926 127.279 621.826 127.279 624.022V628H124.903V619.018H127.279V619.828C127.981 619.126 128.917 618.748 130.105 618.748ZM144.51 619.018V628H142.134V627.19C141.432 627.892 140.496 628.27 139.308 628.27C137.148 628.27 135.708 626.722 135.708 624.49V619.018H138.084V623.986C138.084 625.246 138.804 626.092 139.902 626.092C141.252 626.092 142.134 625.192 142.134 622.996V619.018H144.51ZM158.319 618.748C160.191 618.748 161.811 620.188 161.811 622.384V628H159.453V622.87C159.453 621.664 158.679 620.926 157.689 620.926C156.429 620.926 155.601 621.79 155.601 623.68V628H153.225V622.87C153.225 621.664 152.451 620.926 151.461 620.926C150.201 620.926 149.409 621.79 149.409 623.68V628H147.033V619.018H149.409V619.756C150.039 619.126 150.921 618.748 152.091 618.748C153.297 618.748 154.395 619.27 155.043 620.224C155.781 619.306 156.879 618.748 158.319 618.748ZM169.465 618.748C171.751 618.748 173.875 620.692 173.875 623.518C173.875 626.344 171.751 628.27 169.465 628.27C168.205 628.27 167.215 627.892 166.495 627.226V628H164.119V614.14H166.495V619.792C167.215 619.126 168.205 618.748 169.465 618.748ZM169.051 626.2C170.491 626.2 171.571 625.174 171.571 623.518C171.571 621.862 170.491 620.818 169.051 620.818C167.773 620.818 166.495 621.862 166.495 623.518C166.495 625.174 167.773 626.2 169.051 626.2ZM184.146 623.338V624.148H177.306C177.54 625.444 178.458 626.236 179.556 626.236C180.258 626.236 181.14 626.146 181.788 625.048L183.912 625.498C183.12 627.37 181.518 628.27 179.556 628.27C177.018 628.27 174.948 626.344 174.948 623.518C174.948 620.692 177.018 618.748 179.592 618.748C181.986 618.748 184.056 620.602 184.146 623.338ZM179.592 620.818C178.692 620.818 177.666 621.358 177.378 622.474H181.716C181.41 621.322 180.546 620.818 179.592 620.818ZM191.549 618.892C191.783 618.892 191.963 618.892 192.179 618.964L192.053 621.25H191.531C189.335 621.25 188.327 622.6 188.327 625.102V628H185.951V619.018H188.327V620.656C189.047 619.612 190.091 618.892 191.549 618.892Z" fill="#1A1816"/>
<path d="M72.9255 668.357L71.0679 664.023L74.3952 669.764L73.1 671.743C73.8 673.11 74.9154 674.221 76.2859 674.915L77.0753 674.388L78.0802 676.122L77.2963 676.645L77.2936 676.647C77.0384 676.818 76.7431 676.92 76.4365 676.944C76.1288 676.967 75.8204 676.91 75.5415 676.778L75.5344 676.774C73.6666 675.871 72.1559 674.367 71.2443 672.503L71.2409 672.497C71.108 672.219 71.0492 671.912 71.0704 671.606C71.0914 671.3 71.1911 671.005 71.3597 670.75L72.9255 668.357Z" fill="#1A1816"/>
<path fill-rule="evenodd" clip-rule="evenodd" d="M77.0753 674.388L74.3952 669.764L74.6624 669.356C74.8235 669.109 74.9212 668.827 74.9469 668.534C74.9725 668.241 74.9253 667.946 74.8094 667.676L72.8418 663.085L72.8411 663.083C72.69 662.728 72.4279 662.432 72.0941 662.239C71.7598 662.046 71.3717 661.967 70.9882 662.013L70.9816 662.014C69.6051 662.19 68.3399 662.861 67.4229 663.903C66.506 664.944 66.0001 666.284 66 667.672C66 671.472 67.5095 675.117 70.1965 677.803C72.8835 680.49 76.5278 682 80.3278 682C81.7155 682 83.0556 681.494 84.0972 680.577C85.1387 679.66 85.8104 678.395 85.9863 677.018L85.9871 677.012C86.0335 676.628 85.954 676.24 85.7607 675.906C85.5676 675.572 85.2714 675.31 84.9165 675.159L84.9151 675.158L80.3281 673.192C80.0553 673.075 79.7577 673.028 79.4621 673.056C79.1666 673.083 78.8825 673.183 78.6356 673.348L77.0753 674.388ZM78.0802 676.122L80.3277 680C77.0582 680 73.9226 678.701 71.6107 676.389C69.2988 674.077 68 670.942 68 667.672C68 666.771 68.3286 665.901 68.9241 665.224C69.4822 664.59 70.2391 664.167 71.0679 664.023L74.3952 669.764L77.0753 674.388L78.0802 676.122ZM78.0802 676.122L80.3277 680C81.2289 680 82.0992 679.671 82.7756 679.076C83.4096 678.518 83.8325 677.761 83.9771 676.932L79.6478 675.077L78.0802 676.122Z" fill="#1A1816"/>
<path d="M96.98 667.62H101.348C103.504 667.62 104.82 668.894 104.82 670.77C104.82 672.674 103.504 673.934 101.348 673.934H98.884V677H96.98V667.62ZM98.884 672.212H101.348C102.37 672.212 102.93 671.638 102.93 670.77C102.93 669.93 102.37 669.342 101.348 669.342H98.884V672.212ZM110.337 669.804C112.017 669.804 113.137 671.008 113.137 672.744V677H111.289V673.136C111.289 672.156 110.729 671.498 109.875 671.498C108.825 671.498 108.139 672.198 108.139 673.906V677H106.291V666.22H108.139V670.644C108.685 670.098 109.413 669.804 110.337 669.804ZM118.179 669.846C120.223 669.846 121.945 671.316 121.945 673.514C121.945 675.712 120.223 677.182 118.179 677.182C116.093 677.182 114.371 675.712 114.371 673.514C114.371 671.316 116.093 669.846 118.179 669.846ZM118.179 675.6C119.145 675.6 120.153 674.816 120.153 673.514C120.153 672.212 119.145 671.428 118.179 671.428C117.171 671.428 116.163 672.212 116.163 673.514C116.163 674.816 117.171 675.6 118.179 675.6ZM127.385 669.804C129.065 669.804 130.185 671.008 130.185 672.744V677H128.337V673.136C128.337 672.156 127.777 671.498 126.923 671.498C125.873 671.498 125.187 672.198 125.187 673.906V677H123.339V670.014H125.187V670.644C125.733 670.098 126.461 669.804 127.385 669.804ZM138.56 673.374V674.004H133.24C133.422 675.012 134.136 675.628 134.99 675.628C135.536 675.628 136.222 675.558 136.726 674.704L138.378 675.054C137.762 676.51 136.516 677.21 134.99 677.21C133.016 677.21 131.406 675.712 131.406 673.514C131.406 671.316 133.016 669.804 135.018 669.804C136.88 669.804 138.49 671.246 138.56 673.374ZM135.018 671.414C134.318 671.414 133.52 671.834 133.296 672.702H136.67C136.432 671.806 135.76 671.414 135.018 671.414ZM147.415 669.804C149.095 669.804 150.215 671.008 150.215 672.744V677H148.367V673.136C148.367 672.156 147.807 671.498 146.953 671.498C145.903 671.498 145.217 672.198 145.217 673.906V677H143.369V670.014H145.217V670.644C145.763 670.098 146.491 669.804 147.415 669.804ZM158.619 670.014V677H156.771V676.37C156.225 676.916 155.497 677.21 154.573 677.21C152.893 677.21 151.773 676.006 151.773 674.27V670.014H153.621V673.878C153.621 674.858 154.181 675.516 155.035 675.516C156.085 675.516 156.771 674.816 156.771 673.108V670.014H158.619ZM169.36 669.804C170.816 669.804 172.076 670.924 172.076 672.632V677H170.242V673.01C170.242 672.072 169.64 671.498 168.87 671.498C167.89 671.498 167.246 672.17 167.246 673.64V677H165.398V673.01C165.398 672.072 164.796 671.498 164.026 671.498C163.046 671.498 162.43 672.17 162.43 673.64V677H160.582V670.014H162.43V670.588C162.92 670.098 163.606 669.804 164.516 669.804C165.454 669.804 166.308 670.21 166.812 670.952C167.386 670.238 168.24 669.804 169.36 669.804ZM178.029 669.804C179.807 669.804 181.459 671.316 181.459 673.514C181.459 675.712 179.807 677.21 178.029 677.21C177.049 677.21 176.279 676.916 175.719 676.398V677H173.871V666.22H175.719V670.616C176.279 670.098 177.049 669.804 178.029 669.804ZM177.707 675.6C178.827 675.6 179.667 674.802 179.667 673.514C179.667 672.226 178.827 671.414 177.707 671.414C176.713 671.414 175.719 672.226 175.719 673.514C175.719 674.802 176.713 675.6 177.707 675.6ZM189.447 673.374V674.004H184.127C184.309 675.012 185.023 675.628 185.877 675.628C186.423 675.628 187.109 675.558 187.613 674.704L189.265 675.054C188.649 676.51 187.403 677.21 185.877 677.21C183.903 677.21 182.293 675.712 182.293 673.514C182.293 671.316 183.903 669.804 185.905 669.804C187.767 669.804 189.377 671.246 189.447 673.374ZM185.905 671.414C185.205 671.414 184.407 671.834 184.183 672.702H187.557C187.319 671.806 186.647 671.414 185.905 671.414ZM195.205 669.916C195.387 669.916 195.527 669.916 195.695 669.972L195.597 671.75H195.191C193.483 671.75 192.699 672.8 192.699 674.746V677H190.851V670.014H192.699V671.288C193.259 670.476 194.071 669.916 195.205 669.916Z" fill="#1A1816"/>
<path d="M207.346 666.458L208.368 667.368C206.744 669.02 206.24 670.504 206.24 672.31C206.24 674.116 206.744 675.586 208.368 677.252L207.346 678.148C205.442 676.426 204.672 674.452 204.672 672.31C204.672 670.168 205.442 668.194 207.346 666.458ZM211.901 671.176C213.189 671.176 214.141 672.198 214.141 673.346C214.141 674.578 213.189 675.502 211.901 675.502C210.613 675.502 209.661 674.578 209.661 673.346C209.661 672.198 210.613 671.176 211.901 671.176ZM217.643 671.176C218.931 671.176 219.883 672.198 219.883 673.346C219.883 674.578 218.931 675.502 217.643 675.502C216.355 675.502 215.403 674.578 215.403 673.346C215.403 672.198 216.355 671.176 217.643 671.176ZM223.386 671.176C224.674 671.176 225.626 672.198 225.626 673.346C225.626 674.578 224.674 675.502 223.386 675.502C222.098 675.502 221.146 674.578 221.146 673.346C221.146 672.198 222.098 671.176 223.386 671.176ZM226.93 667.368L227.952 666.458C229.856 668.194 230.626 670.168 230.626 672.31C230.626 674.452 229.856 676.426 227.952 678.148L226.93 677.252C228.554 675.586 229.058 674.116 229.058 672.31C229.058 670.504 228.554 669.02 226.93 667.368ZM237.618 671.176C238.906 671.176 239.858 672.198 239.858 673.346C239.858 674.578 238.906 675.502 237.618 675.502C236.33 675.502 235.378 674.578 235.378 673.346C235.378 672.198 236.33 671.176 237.618 671.176ZM243.36 671.176C244.648 671.176 245.6 672.198 245.6 673.346C245.6 674.578 244.648 675.502 243.36 675.502C242.072 675.502 241.12 674.578 241.12 673.346C241.12 672.198 242.072 671.176 243.36 671.176ZM249.102 671.176C250.39 671.176 251.342 672.198 251.342 673.346C251.342 674.578 250.39 675.502 249.102 675.502C247.814 675.502 246.862 674.578 246.862 673.346C246.862 672.198 247.814 671.176 249.102 671.176ZM257.379 674.06H252.815V672.8H257.379V674.06ZM264.409 667.62V668.684L260.965 677H259.313L262.771 668.978H257.955V667.62H264.409ZM270.304 672.226C271.55 672.618 272.18 673.528 272.18 674.494C272.18 676.09 270.78 677.196 268.694 677.196C266.594 677.196 265.18 676.09 265.18 674.494C265.18 673.514 265.824 672.618 267.07 672.226C265.992 671.834 265.46 670.98 265.46 669.958C265.46 668.446 266.748 667.424 268.694 667.424C270.626 667.424 271.9 668.446 271.9 669.958C271.9 670.952 271.382 671.82 270.304 672.226ZM268.68 668.642C267.714 668.642 266.944 669.16 266.944 670.084C266.944 670.98 267.672 671.498 268.666 671.498C269.66 671.498 270.43 670.952 270.43 670.056C270.43 669.16 269.632 668.642 268.68 668.642ZM268.666 675.922C269.688 675.922 270.542 675.376 270.542 674.396C270.542 673.458 269.73 672.898 268.68 672.898C267.63 672.898 266.846 673.458 266.846 674.424C266.846 675.39 267.644 675.922 268.666 675.922ZM276.762 667.424C279.072 667.424 280.528 669.132 280.528 672.114C280.528 673.808 280.192 675.194 279.268 676.146C278.638 676.79 277.756 677.196 276.72 677.196C275.194 677.196 274.018 676.44 273.626 675.054L275.068 674.774C275.32 675.558 275.922 675.866 276.776 675.866C277.406 675.866 277.924 675.6 278.288 675.208C278.932 674.494 279.142 673.486 279.114 672.492C278.596 673.234 277.63 673.682 276.636 673.682C274.62 673.682 273.388 672.38 273.388 670.602C273.388 668.768 274.745 667.424 276.762 667.424ZM276.79 672.45C277.868 672.45 278.68 671.652 278.68 670.588C278.68 669.51 277.812 668.768 276.79 668.768C275.74 668.768 274.886 669.552 274.886 670.616C274.886 671.68 275.74 672.45 276.79 672.45ZM285.894 667.424C288.26 667.424 289.856 669.398 289.856 672.31C289.856 675.222 288.26 677.196 285.894 677.196C283.528 677.196 281.932 675.222 281.932 672.31C281.932 669.398 283.528 667.424 285.894 667.424ZM285.894 675.81C287.378 675.81 288.33 674.382 288.33 672.31C288.33 670.238 287.378 668.81 285.894 668.81C284.41 668.81 283.458 670.238 283.458 672.31C283.458 674.382 284.41 675.81 285.894 675.81Z" fill="#1A1816"/>
<mask id="path-39-inside-3_436_21784" fill="white">
<path d="M996 632C996 618.745 1006.75 608 1020 608H1052C1065.25 608 1076 618.745 1076 632V632C1076 645.255 1065.25 656 1052 656H1020C1006.75 656 996 645.255 996 632V632Z"/>
</mask>
<path d="M996 632C996 618.745 1006.75 608 1020 608H1052C1065.25 608 1076 618.745 1076 632V632C1076 645.255 1065.25 656 1052 656H1020C1006.75 656 996 645.255 996 632V632Z" fill="white"/>
<path d="M996 632M1076 632M1076 632M996 632M1020 608V609H1052V608V607H1020V608ZM1076 632M1052 656V655H1020V656V657H1052V656ZM996 632M1020 656V655C1007.3 655 997 644.703 997 632H996H995C995 645.807 1006.19 657 1020 657V656ZM1076 632H1075C1075 644.703 1064.7 655 1052 655V656V657C1065.81 657 1077 645.807 1077 632H1076ZM1052 608V609C1064.7 609 1075 619.297 1075 632H1076H1077C1077 618.193 1065.81 607 1052 607V608ZM1020 608V607C1006.19 607 995 618.193 995 632H996H997C997 619.297 1007.3 609 1020 609V608Z" fill="#D3CFCA" mask="url(#path-39-inside-3_436_21784)"/>
<path d="M1029.25 635.448V637H1021.26V626.28H1029.23V627.832H1022.98V630.856H1028.75V632.392H1022.98V635.448H1029.25ZM1039.24 624.68V637H1037.56V636.024C1036.89 636.792 1035.92 637.224 1034.68 637.224C1032.62 637.224 1030.75 635.544 1030.75 633.032C1030.75 630.536 1032.62 628.84 1034.68 628.84C1035.92 628.84 1036.89 629.288 1037.56 630.04V624.68H1039.24ZM1034.96 635.752C1036.28 635.752 1037.56 634.712 1037.56 633.032C1037.56 631.368 1036.28 630.312 1034.96 630.312C1033.52 630.312 1032.38 631.368 1032.38 633.032C1032.38 634.712 1033.52 635.752 1034.96 635.752ZM1042.71 625.64C1043.32 625.64 1043.76 626.12 1043.76 626.68C1043.76 627.272 1043.32 627.704 1042.71 627.704C1042.08 627.704 1041.64 627.272 1041.64 626.68C1041.64 626.12 1042.08 625.64 1042.71 625.64ZM1043.54 637H1041.88V629.064H1043.54V637ZM1050.95 635.224L1051.47 636.616C1050.71 637.064 1050.17 637.224 1049.5 637.224C1047.79 637.224 1046.63 636.264 1046.63 634.296V630.44H1044.92V629.064H1046.63V626.28H1048.3V629.064H1051.02V630.44H1048.3V634.184C1048.3 635.176 1048.83 635.656 1049.61 635.656C1050.03 635.656 1050.54 635.496 1050.95 635.224Z" fill="#1A1816"/>
<g filter="url(#filter0_d_436_21784)">
<path d="M920.375 205.14C919.505 204.024 918.415 201.761 916.525 198.939C915.445 197.389 912.775 194.444 911.975 192.925C911.385 192.002 911.225 190.878 911.505 189.825C911.995 187.823 913.895 186.495 915.935 186.725C917.525 187.043 918.975 187.819 920.125 188.957C920.925 189.711 921.665 190.53 922.325 191.406C922.825 192.026 922.945 192.274 923.505 192.987C924.065 193.7 924.435 194.413 924.155 193.359C923.935 191.809 923.565 189.205 923.035 186.88C922.635 185.113 922.545 184.834 922.175 183.501C921.795 182.168 921.585 181.052 921.175 179.533C920.805 178.041 920.525 176.53 920.315 175.007C919.915 173.059 920.205 171.036 921.115 169.272C922.195 168.253 923.785 167.984 925.145 168.59C926.515 169.598 927.535 171.007 928.065 172.62C928.875 174.605 929.415 176.69 929.675 178.82C930.165 181.92 931.125 186.446 931.165 187.376C931.165 186.229 930.945 183.811 931.165 182.726C931.375 181.595 932.165 180.656 933.235 180.246C934.165 179.963 935.135 179.899 936.095 180.06C937.055 180.261 937.905 180.813 938.475 181.61C939.195 183.418 939.595 185.338 939.655 187.283C939.735 185.58 940.025 183.893 940.525 182.261C941.045 181.531 941.795 181.005 942.665 180.773C943.685 180.585 944.735 180.585 945.765 180.773C946.605 181.054 947.335 181.583 947.875 182.292C948.525 183.936 948.925 185.672 949.045 187.438C949.045 187.872 949.265 186.229 949.945 185.144C950.305 184.092 951.195 183.308 952.275 183.089C953.365 182.87 954.495 183.248 955.225 184.081C955.955 184.914 956.195 186.076 955.835 187.128C955.835 189.143 955.835 189.05 955.835 190.414C955.835 191.778 955.835 192.987 955.835 194.134C955.725 195.948 955.475 197.752 955.095 199.528C954.555 201.101 953.805 202.592 952.865 203.962C951.355 205.636 950.115 207.527 949.175 209.573C948.935 210.589 948.835 211.631 948.865 212.673C948.855 213.636 948.985 214.595 949.235 215.525C947.965 215.659 946.685 215.659 945.425 215.525C944.215 215.339 942.725 212.921 942.325 212.177C942.125 211.778 941.715 211.525 941.265 211.525C940.825 211.525 940.415 211.778 940.215 212.177C939.535 213.355 938.015 215.494 936.955 215.618C934.885 215.866 930.605 215.618 927.225 215.618C927.225 215.618 927.785 212.518 926.515 211.402C925.235 210.286 923.935 208.984 922.975 208.116L920.375 205.14Z" fill="white"/>
<path fill-rule="evenodd" clip-rule="evenodd" d="M920.375 205.14C919.505 204.024 918.415 201.761 916.525 198.939C915.445 197.389 912.775 194.444 911.975 192.925C911.385 192.002 911.225 190.878 911.505 189.825C911.995 187.823 913.895 186.495 915.935 186.725C917.525 187.043 918.975 187.819 920.125 188.957C920.925 189.711 921.665 190.53 922.325 191.406C922.825 192.026 922.945 192.274 923.505 192.987C924.065 193.7 924.435 194.413 924.155 193.359C923.935 191.809 923.565 189.205 923.035 186.88C922.635 185.113 922.545 184.834 922.175 183.501C921.795 182.168 921.585 181.052 921.175 179.533C920.805 178.041 920.525 176.53 920.315 175.007C919.915 173.059 920.205 171.036 921.115 169.272C922.195 168.253 923.785 167.984 925.145 168.59C926.515 169.598 927.535 171.007 928.065 172.62C928.875 174.605 929.415 176.69 929.675 178.82C930.165 181.92 931.125 186.446 931.165 187.376C931.165 186.229 930.945 183.811 931.165 182.726C931.375 181.595 932.165 180.656 933.235 180.246C934.165 179.963 935.135 179.899 936.095 180.06C937.055 180.261 937.905 180.813 938.475 181.61C939.195 183.418 939.595 185.338 939.655 187.283C939.735 185.58 940.025 183.893 940.525 182.261C941.045 181.531 941.795 181.005 942.665 180.773C943.685 180.585 944.735 180.585 945.765 180.773C946.605 181.054 947.335 181.583 947.875 182.292C948.525 183.936 948.925 185.672 949.045 187.438C949.045 187.872 949.265 186.229 949.945 185.144C950.305 184.092 951.195 183.308 952.275 183.089C953.365 182.87 954.495 183.248 955.225 184.081C955.955 184.914 956.195 186.076 955.835 187.128C955.835 189.143 955.835 189.05 955.835 190.414C955.835 191.778 955.835 192.987 955.835 194.134C955.725 195.948 955.475 197.752 955.095 199.528C954.555 201.101 953.805 202.592 952.865 203.962C951.355 205.636 950.115 207.527 949.175 209.573C948.935 210.589 948.835 211.631 948.865 212.673C948.855 213.636 948.985 214.595 949.235 215.525C947.965 215.659 946.685 215.659 945.425 215.525C944.215 215.339 942.725 212.921 942.325 212.177C942.125 211.778 941.715 211.525 941.265 211.525C940.825 211.525 940.415 211.778 940.215 212.177C939.535 213.355 938.015 215.494 936.955 215.618C934.885 215.866 930.605 215.618 927.225 215.618C927.225 215.618 927.785 212.518 926.515 211.402C925.235 210.286 923.935 208.984 922.975 208.116L920.375 205.14Z" stroke="black" stroke-width="2.3251" stroke-linecap="round" stroke-linejoin="round"/>
<path d="M946.666 206.832V196.131C946.666 195.491 946.146 194.971 945.496 194.971C944.856 194.971 944.336 195.491 944.336 196.131V206.832C944.336 207.473 944.856 207.992 945.496 207.992C946.146 207.992 946.666 207.473 946.666 206.832Z" fill="black"/>
<path d="M940.523 206.828L940.463 196.122C940.453 195.483 939.933 194.968 939.293 194.971C938.643 194.975 938.133 195.496 938.133 196.135L938.193 206.842C938.203 207.481 938.723 207.996 939.363 207.992C940.003 207.988 940.523 207.467 940.523 206.828Z" fill="black"/>
<path d="M931.938 196.146L931.998 206.831C932.008 207.476 932.527 207.996 933.167 207.992C933.807 207.988 934.328 207.462 934.328 206.817L934.267 196.133C934.257 195.487 933.738 194.968 933.098 194.971C932.448 194.975 931.938 195.501 931.938 196.146Z" fill="black"/>
</g>
<defs>
<filter id="filter0_d_436_21784" x="907.727" y="167.107" width="51.9173" height="55.3635" filterUnits="userSpaceOnUse" color-interpolation-filters="sRGB">
<feFlood flood-opacity="0" result="BackgroundImageFix"/>
<feColorMatrix in="SourceAlpha" type="matrix" values="0 0 0 0 0 0 0 0 0 0 0 0 0 0 0 0 0 0 127 0" result="hardAlpha"/>
<feOffset dy="3.10014"/>
<feGaussianBlur stdDeviation="1.24006"/>
<feColorMatrix type="matrix" values="0 0 0 0 0 0 0 0 0 0 0 0 0 0 0 0 0 0 0.5 0"/>
<feBlend mode="normal" in2="BackgroundImageFix" result="effect1_dropShadow_436_21784"/>
<feBlend mode="normal" in="SourceGraphic" in2="effect1_dropShadow_436_21784" result="shape"/>
</filter>
<clipPath id="clip0_436_21784">
<rect width="16" height="16.3265" fill="white" transform="translate(858 151.836)"/>
</clipPath>
</defs>
</svg>
