<svg width="405" height="200" viewBox="0 0 405 200" fill="none" xmlns="http://www.w3.org/2000/svg">
<path d="M0 106.931C0 103.858 2.4907 101.368 5.56312 101.368H207.437C210.509 101.368 213 103.858 213 106.931V194.217C213 197.29 210.509 199.78 207.437 199.78H5.56313C2.4907 199.78 0 197.29 0 194.217V106.931Z" fill="#D9D9D9"/>
<rect x="9.73535" y="113.189" width="133" height="10" rx="5" fill="#D92228"/>
<rect x="9.73535" y="129.448" width="193.529" height="9.73547" rx="4.86773" fill="#D92228"/>
<rect x="9.73535" y="145.442" width="174.691" height="10" rx="5" fill="#D92228"/>
<rect x="9.73535" y="161.7" width="174.691" height="10" rx="5" fill="#D92228"/>
<rect x="9.73535" y="177.959" width="81.5762" height="10" rx="5" fill="#D92228"/>
<path d="M267.394 128.832C267.994 128.26 268.943 128.283 269.515 128.882L278.834 138.65C279.406 139.249 279.384 140.199 278.784 140.77C278.185 141.342 277.235 141.32 276.664 140.721L268.38 132.038L259.698 140.322C259.098 140.894 258.149 140.872 257.577 140.272C257.005 139.673 257.027 138.723 257.627 138.151L267.394 128.832ZM222.916 158.855C222.111 158.657 221.62 157.844 221.818 157.039C222.016 156.235 222.829 155.744 223.634 155.942L223.275 157.398L222.916 158.855ZM268.43 129.918L269.929 129.953C269.773 136.627 267.242 146.112 260.038 152.826C252.751 159.617 240.974 163.305 222.916 158.855L223.275 157.398L223.634 155.942C240.978 160.216 251.628 156.562 257.993 150.631C264.441 144.621 266.786 136.004 266.93 129.882L268.43 129.918Z" fill="black"/>
<path fill-rule="evenodd" clip-rule="evenodd" d="M232.583 55.3232C232.583 29.8613 253.224 9.22046 278.686 9.22046C304.148 9.22046 324.788 29.8613 324.788 55.3232C324.788 80.785 304.148 101.426 278.686 101.426C253.224 101.426 232.583 80.785 232.583 55.3232ZM295.776 42.8427C297.577 44.6431 297.577 47.5622 295.776 49.3626L277.335 67.8037C275.535 69.6041 272.616 69.6041 270.815 67.8037L261.595 58.5831C259.795 56.7827 259.795 53.8636 261.595 52.0632C263.395 50.2628 266.314 50.2628 268.115 52.0632L274.075 58.0238L289.257 42.8427C291.057 41.0422 293.976 41.0422 295.776 42.8427Z" fill="#1A1816"/>
<path fill-rule="evenodd" clip-rule="evenodd" d="M349.655 179.284C375.117 179.284 395.758 158.643 395.758 133.181C395.758 107.719 375.117 87.0784 349.655 87.0784C324.194 87.0784 303.553 107.719 303.553 133.181C303.553 158.643 324.194 179.284 349.655 179.284ZM366.746 116.09C368.547 117.891 368.547 120.81 366.746 122.61L356.175 133.181L366.746 143.752C368.547 145.552 368.547 148.471 366.746 150.272C364.946 152.072 362.027 152.072 360.226 150.272L349.655 139.701L339.085 150.272C337.284 152.072 334.365 152.072 332.565 150.272C330.764 148.471 330.764 145.552 332.565 143.752L343.136 133.181L332.565 122.61C330.764 120.81 330.764 117.891 332.565 116.09C334.365 114.29 337.284 114.29 339.085 116.09L349.655 126.661L360.226 116.09C362.027 114.29 364.946 114.29 366.746 116.09Z" fill="#D92228"/>
</svg>
