<svg width="320" height="625" viewBox="0 0 320 625" fill="none" xmlns="http://www.w3.org/2000/svg">
<path d="M16 0.5H304C312.56 0.500002 319.5 7.43959 319.5 16V609C319.5 617.56 312.56 624.5 304 624.5H16C7.43959 624.5 0.5 617.56 0.5 609V16C0.500005 7.43959 7.43959 0.5 16 0.5Z" fill="#F2F0EF"/>
<path d="M16 0.5H304C312.56 0.500002 319.5 7.43959 319.5 16V609C319.5 617.56 312.56 624.5 304 624.5H16C7.43959 624.5 0.5 617.56 0.5 609V16C0.500005 7.43959 7.43959 0.5 16 0.5Z" stroke="#D3CFCA"/>
<path fill-rule="evenodd" clip-rule="evenodd" d="M52.4988 39.7982L47.1235 35.498C45.2974 34.0371 42.7026 34.0371 40.8765 35.498L35.5012 39.7982C34.5524 40.5573 34 41.7066 34 42.9217V49.9992C34 52.2084 35.7909 53.9992 38 53.9992L40 53.9992C41.1046 53.9992 42 53.1038 42 51.9992V48.9992C42 48.4469 42.4477 47.9992 43 47.9992H45C45.5523 47.9992 46 48.4469 46 48.9992V51.9992C46 53.1038 46.8954 53.9992 48 53.9992L50 53.9992C52.2091 53.9992 54 52.2084 54 49.9992V42.9217C54 41.7066 53.4476 40.5573 52.4988 39.7982ZM36.7506 41.36L42.1259 37.0597C43.2216 36.1832 44.7784 36.1832 45.8741 37.0597L51.2494 41.36C51.7238 41.7395 52 42.3142 52 42.9217V49.9992C52 51.1038 51.1046 51.9992 50 51.9992L48 51.9992V48.9992C48 47.3424 46.6569 45.9992 45 45.9992H43C41.3431 45.9992 40 47.3424 40 48.9992V51.9992L38 51.9992C36.8954 51.9992 36 51.1038 36 49.9992V42.9217C36 42.3142 36.2762 41.7395 36.7506 41.36Z" fill="#1A1816"/>
<path d="M65.264 38.28H69.008C72.656 38.28 74.928 40.52 74.928 43.64C74.928 46.76 72.656 49 69.008 49H65.264V38.28ZM66.976 47.448H69.008C71.616 47.448 73.2 45.864 73.2 43.64C73.2 41.416 71.616 39.832 69.008 39.832H66.976V47.448ZM80.1355 40.84C82.1675 40.84 83.5115 41.912 83.5115 43.832V49H81.9275V48.088C81.3355 48.744 80.4555 49.224 79.2235 49.224C77.4475 49.224 76.2635 48.2 76.2635 46.712C76.2635 45.224 77.3995 44.2 79.4475 44.2H81.9275V43.96C81.9275 42.936 81.2395 42.296 80.2315 42.296C79.1595 42.296 78.4715 42.776 78.2955 43.672L76.7115 43.336C76.9835 41.848 78.3595 40.84 80.1355 40.84ZM79.4795 47.88C80.8075 47.88 81.9275 46.952 81.9275 45.736V45.48H79.4155C78.4395 45.48 77.8635 45.976 77.8635 46.68C77.8635 47.4 78.5035 47.88 79.4795 47.88ZM85.0139 46.872L86.6779 46.52C86.7899 47.464 87.6219 47.864 88.6619 47.864C89.6219 47.864 90.2299 47.432 90.2299 46.808C90.2299 46.328 89.8939 46.024 89.1579 45.864L87.4299 45.512C86.0539 45.208 85.2699 44.472 85.2699 43.352C85.2699 41.88 86.5019 40.84 88.4059 40.84C90.2299 40.84 91.4619 41.8 91.7499 43.128L90.1659 43.464C90.0379 42.696 89.3819 42.168 88.3579 42.168C87.3819 42.168 86.9499 42.648 86.9499 43.208C86.9499 43.656 87.2059 43.944 87.9099 44.104L89.7979 44.52C91.0779 44.792 91.8619 45.544 91.8619 46.664C91.8619 48.328 90.5019 49.224 88.5179 49.224C86.7419 49.224 85.2219 48.472 85.0139 46.872ZM98.1644 40.84C100.068 40.84 101.348 42.216 101.348 44.2V49H99.6684V44.536C99.6684 43.24 98.9164 42.376 97.7804 42.376C96.3564 42.376 95.4124 43.336 95.4124 45.336V49H93.7484V36.68H95.4124V42.04C96.0524 41.272 96.9804 40.84 98.1644 40.84ZM108.23 40.84C110.31 40.84 112.166 42.536 112.166 45.032C112.166 47.544 110.31 49.224 108.23 49.224C106.998 49.224 106.022 48.792 105.35 48.024V49H103.686V36.68H105.35V42.04C106.022 41.288 106.998 40.84 108.23 40.84ZM107.958 47.752C109.414 47.752 110.55 46.712 110.55 45.032C110.55 43.368 109.414 42.312 107.958 42.312C106.646 42.312 105.35 43.368 105.35 45.032C105.35 46.712 106.646 47.752 107.958 47.752ZM117.582 40.888C119.918 40.888 121.822 42.568 121.822 45.032C121.822 47.496 119.918 49.192 117.582 49.192C115.23 49.192 113.31 47.496 113.31 45.032C113.31 42.568 115.23 40.888 117.582 40.888ZM117.582 47.752C118.942 47.752 120.206 46.68 120.206 45.032C120.206 43.384 118.942 42.312 117.582 42.312C116.19 42.312 114.942 43.384 114.942 45.032C114.942 46.68 116.19 47.752 117.582 47.752ZM126.87 40.84C128.902 40.84 130.246 41.912 130.246 43.832V49H128.662V48.088C128.07 48.744 127.19 49.224 125.958 49.224C124.182 49.224 122.998 48.2 122.998 46.712C122.998 45.224 124.134 44.2 126.182 44.2H128.662V43.96C128.662 42.936 127.974 42.296 126.966 42.296C125.894 42.296 125.206 42.776 125.03 43.672L123.446 43.336C123.718 41.848 125.094 40.84 126.87 40.84ZM126.214 47.88C127.542 47.88 128.662 46.952 128.662 45.736V45.48H126.15C125.174 45.48 124.598 45.976 124.598 46.68C124.598 47.4 125.238 47.88 126.214 47.88ZM137.108 40.968C137.3 40.968 137.46 40.968 137.668 41.032L137.556 42.632C137.428 42.616 137.236 42.616 137.092 42.616C135.076 42.616 134.084 44.024 134.084 46.2V49H132.42V41.064H134.084V42.76C134.724 41.704 135.732 40.968 137.108 40.968ZM146.728 36.68V49H145.048V48.024C144.376 48.792 143.4 49.224 142.168 49.224C140.104 49.224 138.232 47.544 138.232 45.032C138.232 42.536 140.104 40.84 142.168 40.84C143.4 40.84 144.376 41.288 145.048 42.04V36.68H146.728ZM142.44 47.752C143.768 47.752 145.048 46.712 145.048 45.032C145.048 43.368 143.768 42.312 142.44 42.312C141 42.312 139.864 43.368 139.864 45.032C139.864 46.712 141 47.752 142.44 47.752Z" fill="#1A1816"/>
<path fill-rule="evenodd" clip-rule="evenodd" d="M38.5009 91.5C36.8441 91.5 35.5009 92.8431 35.5009 94.5C35.5009 96.1569 36.8441 97.5 38.5009 97.5C38.6816 97.5 38.8586 97.484 39.0304 97.4534C39.2021 95.8747 40.1086 94.5167 41.4008 93.7284C41.0603 92.4455 39.891 91.5 38.5009 91.5ZM38.5009 99C38.7017 99 38.8994 98.9869 39.0933 98.9614C39.1942 99.4799 39.3754 99.9698 39.6232 100.418C38.9478 100.893 38.3361 101.473 37.8061 102.135C37.4727 102.552 37.1756 102.995 36.915 103.458C36.8165 103.633 36.7296 103.809 36.6538 103.985C35.6857 103.899 34.786 103.459 34.1776 102.775C33.4741 101.983 33.1633 100.849 33.6497 99.6883C33.8795 99.1396 34.1698 98.6229 34.5189 98.1574C34.7046 97.9098 34.9052 97.6794 35.1188 97.4685C35.9435 98.4074 37.153 99 38.5009 99ZM38.9774 103.072C39.4379 102.496 39.9641 102.003 40.5388 101.607C41.4372 102.47 42.6572 103 44.0009 103C45.3447 103 46.5646 102.47 47.4631 101.607C48.0377 102.003 48.5639 102.496 49.0244 103.072C49.3051 103.423 49.5572 103.799 49.7797 104.194C50.623 105.693 50.2813 107.224 49.3525 108.306C48.4561 109.35 47.0149 110 45.5009 110H42.5009C40.9869 110 39.5457 109.35 38.6493 108.306C37.7206 107.224 37.3788 105.693 38.2222 104.194C38.4447 103.799 38.6967 103.423 38.9774 103.072ZM50.1957 102.135C49.6657 101.473 49.054 100.893 48.3786 100.418C48.6265 99.9698 48.8076 99.4799 48.9086 98.9614C49.1024 98.9869 49.3001 99 49.5009 99C50.8488 99 52.0583 98.4074 52.883 97.4685C53.0966 97.6794 53.2972 97.9098 53.4829 98.1574C53.832 98.6229 54.1223 99.1396 54.3521 99.6883C54.8385 100.849 54.5277 101.983 53.8242 102.775C53.2158 103.459 52.3161 103.899 51.3481 103.985C51.2722 103.809 51.1854 103.633 51.0869 103.458C50.8263 102.995 50.5292 102.552 50.1957 102.135ZM49.5009 97.5C49.3202 97.5 49.1433 97.484 48.9714 97.4534C48.7997 95.8747 47.8932 94.5167 46.6011 93.7284C46.9415 92.4455 48.1108 91.5 49.5009 91.5C51.1578 91.5 52.5009 92.8431 52.5009 94.5C52.5009 96.1569 51.1578 97.5 49.5009 97.5ZM40.5009 98C40.5009 96.067 42.0679 94.5 44.0009 94.5C45.9339 94.5 47.5009 96.067 47.5009 98C47.5009 99.933 45.9339 101.5 44.0009 101.5C42.0679 101.5 40.5009 99.933 40.5009 98Z" fill="#1A1816"/>
<path d="M73.632 95.832H69.856V105H68.128V95.832H64.368V94.28H73.632V95.832ZM81.2029 100.856V101.432H74.7709C74.9309 102.904 76.0029 103.784 77.1709 103.784C78.0509 103.784 78.9469 103.528 79.5069 102.408L80.9949 102.728C80.3389 104.392 78.9309 105.224 77.1709 105.224C75.0109 105.224 73.1229 103.56 73.1229 101.048C73.1229 98.52 74.9949 96.84 77.2349 96.84C79.3629 96.84 81.1229 98.472 81.2029 100.856ZM77.2349 98.312C76.1949 98.312 75.0749 98.968 74.8189 100.248H79.4909C79.2349 98.952 78.3229 98.312 77.2349 98.312ZM86.2293 96.84C88.2613 96.84 89.6053 97.912 89.6053 99.832V105H88.0213V104.088C87.4293 104.744 86.5493 105.224 85.3173 105.224C83.5413 105.224 82.3573 104.2 82.3573 102.712C82.3573 101.224 83.4933 100.2 85.5413 100.2H88.0213V99.96C88.0213 98.936 87.3333 98.296 86.3253 98.296C85.2533 98.296 84.5653 98.776 84.3893 99.672L82.8053 99.336C83.0773 97.848 84.4533 96.84 86.2293 96.84ZM85.5733 103.88C86.9013 103.88 88.0213 102.952 88.0213 101.736V101.48H85.5093C84.5333 101.48 83.9573 101.976 83.9573 102.68C83.9573 103.4 84.5973 103.88 85.5733 103.88ZM101.588 96.84C103.236 96.84 104.596 98.072 104.596 99.944V105H102.948V100.28C102.948 99.112 102.18 98.376 101.156 98.376C99.8596 98.376 99.0116 99.288 99.0116 101.064V105H97.3476V100.28C97.3476 99.112 96.5796 98.376 95.5556 98.376C94.2756 98.376 93.4436 99.288 93.4436 101.064V105H91.7796V97.064H93.4436V97.96C94.0196 97.256 94.8516 96.84 95.9876 96.84C97.1236 96.84 98.1156 97.368 98.6276 98.296C99.2676 97.4 100.276 96.84 101.588 96.84Z" fill="#1A1816"/>
<path fill-rule="evenodd" clip-rule="evenodd" d="M282.707 103.707C282.317 104.098 281.683 104.098 281.293 103.707L276 98.4142L270.707 103.707C270.317 104.098 269.683 104.098 269.293 103.707C268.902 103.317 268.902 102.683 269.293 102.293L275.293 96.2929C275.683 95.9024 276.317 95.9024 276.707 96.2929L282.707 102.293C283.098 102.683 283.098 103.317 282.707 103.707Z" fill="#1A1816"/>
<path d="M73.73 153H72.106L71.182 150.816H66.618L65.694 153H64.07L68.2 143.62H69.6L73.73 153ZM70.594 149.444L68.9 145.454L67.206 149.444H70.594ZM81.5903 146.056V153.224C81.5763 155.282 79.9383 156.5 77.7963 156.5C76.1303 156.5 74.9823 155.87 74.4083 154.834L75.6123 153.854C76.1163 154.652 76.7043 155.072 77.7963 155.072C79.0843 155.072 80.1203 154.33 80.1203 153.014V152.146C79.5323 152.818 78.6783 153.196 77.6003 153.196C75.7943 153.196 74.1563 151.726 74.1563 149.528C74.1563 147.344 75.7943 145.86 77.6003 145.86C78.6783 145.86 79.5323 146.252 80.1203 146.91V146.056H81.5903ZM77.8383 151.908C79.0003 151.908 80.1203 150.998 80.1203 149.528C80.1203 148.072 79.0003 147.148 77.8383 147.148C76.5783 147.148 75.5843 148.072 75.5843 149.528C75.5843 150.998 76.5783 151.908 77.8383 151.908ZM90.2498 149.374V149.878H84.6218C84.7618 151.166 85.6998 151.936 86.7218 151.936C87.4918 151.936 88.2758 151.712 88.7658 150.732L90.0678 151.012C89.4938 152.468 88.2618 153.196 86.7218 153.196C84.8318 153.196 83.1798 151.74 83.1798 149.542C83.1798 147.33 84.8178 145.86 86.7778 145.86C88.6398 145.86 90.1798 147.288 90.2498 149.374ZM86.7778 147.148C85.8678 147.148 84.8878 147.722 84.6638 148.842H88.7518C88.5278 147.708 87.7298 147.148 86.7778 147.148ZM95.7259 145.86C97.3919 145.86 98.5119 147.064 98.5119 148.8V153H97.0419V149.094C97.0419 147.96 96.3839 147.204 95.3899 147.204C94.1439 147.204 93.3179 148.044 93.3179 149.794V153H91.8619V146.056H93.3179V146.91C93.8779 146.238 94.6899 145.86 95.7259 145.86ZM104.716 151.446L105.164 152.664C104.506 153.056 104.03 153.196 103.442 153.196C101.944 153.196 100.936 152.356 100.936 150.634V147.26H99.4375V146.056H100.936V143.62H102.392V146.056H104.772V147.26H102.392V150.536C102.392 151.404 102.854 151.824 103.54 151.824C103.904 151.824 104.352 151.684 104.716 151.446ZM105.752 151.138L107.208 150.83C107.306 151.656 108.034 152.006 108.944 152.006C109.784 152.006 110.316 151.628 110.316 151.082C110.316 150.662 110.022 150.396 109.378 150.256L107.866 149.948C106.662 149.682 105.976 149.038 105.976 148.058C105.976 146.77 107.054 145.86 108.72 145.86C110.316 145.86 111.394 146.7 111.646 147.862L110.26 148.156C110.148 147.484 109.574 147.022 108.678 147.022C107.824 147.022 107.446 147.442 107.446 147.932C107.446 148.324 107.67 148.576 108.286 148.716L109.938 149.08C111.058 149.318 111.744 149.976 111.744 150.956C111.744 152.412 110.554 153.196 108.818 153.196C107.264 153.196 105.934 152.538 105.752 151.138Z" fill="#1A1816"/>
<path d="M68.382 183.424C70.286 183.424 71.658 184.46 71.994 186.07L70.496 186.378C70.328 185.384 69.474 184.726 68.354 184.726C67.248 184.726 66.52 185.328 66.52 186.154C66.52 186.812 66.898 187.162 67.71 187.33L69.74 187.764C71.14 188.072 72.148 188.856 72.148 190.326C72.148 192.09 70.706 193.196 68.55 193.196C66.562 193.196 64.91 192.23 64.672 190.41L66.268 190.074C66.492 191.278 67.43 191.866 68.69 191.866C69.95 191.866 70.664 191.264 70.664 190.41C70.664 189.696 70.286 189.36 69.348 189.164L67.304 188.744C66.142 188.478 64.938 187.862 64.938 186.196C64.938 184.544 66.296 183.424 68.382 183.424ZM78.0007 191.446L78.4487 192.664C77.7907 193.056 77.3147 193.196 76.7267 193.196C75.2287 193.196 74.2207 192.356 74.2207 190.634V187.26H72.7227V186.056H74.2207V183.62H75.6767V186.056H78.0567V187.26H75.6767V190.536C75.6767 191.404 76.1387 191.824 76.8247 191.824C77.1887 191.824 77.6367 191.684 78.0007 191.446ZM82.5619 185.86C84.3399 185.86 85.5159 186.798 85.5159 188.478V193H84.1299V192.202C83.6119 192.776 82.8419 193.196 81.7639 193.196C80.2099 193.196 79.1739 192.3 79.1739 190.998C79.1739 189.696 80.1679 188.8 81.9599 188.8H84.1299V188.59C84.1299 187.694 83.5279 187.134 82.6459 187.134C81.7079 187.134 81.1059 187.554 80.9519 188.338L79.5659 188.044C79.8039 186.742 81.0079 185.86 82.5619 185.86ZM81.9879 192.02C83.1499 192.02 84.1299 191.208 84.1299 190.144V189.92H81.9319C81.0779 189.92 80.5739 190.354 80.5739 190.97C80.5739 191.6 81.1339 192.02 81.9879 192.02ZM91.4925 187.26H89.1825V193H87.7265V187.26H86.5925V186.056H87.7265V184.6C87.7265 183.046 88.7485 182.08 90.2885 182.08C90.7225 182.08 91.1005 182.164 91.4785 182.332L91.1285 183.522C90.8765 183.424 90.6105 183.382 90.3865 183.382C89.6585 183.382 89.1825 183.83 89.1825 184.6V186.056H91.4925V187.26ZM96.2777 187.26H93.9677V193H92.5117V187.26H91.3777V186.056H92.5117V184.6C92.5117 183.046 93.5337 182.08 95.0737 182.08C95.5077 182.08 95.8857 182.164 96.2637 182.332L95.9137 183.522C95.6617 183.424 95.3957 183.382 95.1717 183.382C94.4437 183.382 93.9677 183.83 93.9677 184.6V186.056H96.2777V187.26Z" fill="#1A1816"/>
<path fill-rule="evenodd" clip-rule="evenodd" d="M44 230C42.3431 230 41 231.343 41 233C41 233.981 41.471 234.852 42.1993 235.4C41.5106 235.717 40.8931 236.212 40.3907 236.84C40.1919 237.088 40.0138 237.354 39.857 237.633C39.2168 238.77 39.4817 239.941 40.1793 240.754C40.8445 241.529 41.9002 242 43 242H45C46.0998 242 47.1555 241.529 47.8207 240.754C48.5183 239.941 48.7832 238.77 48.143 237.633C47.9862 237.354 47.8081 237.088 47.6093 236.84C47.1069 236.212 46.4894 235.717 45.8007 235.4C46.529 234.852 47 233.981 47 233C47 231.343 45.6569 230 44 230ZM43 233C43 232.448 43.4477 232 44 232C44.5523 232 45 232.448 45 233C45 233.552 44.5523 234 44 234C43.4477 234 43 233.552 43 233ZM44 237C43.2855 237 42.5411 237.353 41.9524 238.089C41.8239 238.25 41.7059 238.425 41.5999 238.614C41.4275 238.92 41.4699 239.187 41.697 239.452C41.9565 239.754 42.4429 240 43 240L45 240C45.5571 240 46.0435 239.754 46.303 239.452C46.5301 239.187 46.5725 238.92 46.4001 238.614C46.2941 238.425 46.1761 238.25 46.0476 238.089C45.4589 237.353 44.7145 237 44 237Z" fill="#1A1816"/>
<path fill-rule="evenodd" clip-rule="evenodd" d="M34 234C34 233.448 34.4477 233 35 233H36V231H35C34.4477 231 34 230.552 34 230C34 229.448 34.4477 229 35 229H36C36.042 229 36.0834 229.003 36.1241 229.008C36.5655 227.279 38.1334 226 40 226H48C50.2091 226 52 227.791 52 230V242C52 244.209 50.2091 246 48 246H40C38.1334 246 36.5654 244.721 36.1241 242.992C36.0834 242.997 36.042 243 36 243H35C34.4477 243 34 242.552 34 242C34 241.448 34.4477 241 35 241H36V239H35C34.4477 239 34 238.552 34 238C34 237.448 34.4477 237 35 237H36V235H35C34.4477 235 34 234.552 34 234ZM38 230C38 228.895 38.8954 228 40 228H48C49.1046 228 50 228.895 50 230V242C50 243.105 49.1046 244 48 244H40C38.8954 244 38 243.105 38 242V230Z" fill="#1A1816"/>
<path d="M72.832 239.448V241H65.264V230.28H66.976V239.448H72.832ZM82.0779 236.856V237.432H75.6459C75.8059 238.904 76.8779 239.784 78.0459 239.784C78.9259 239.784 79.8219 239.528 80.3819 238.408L81.8699 238.728C81.2139 240.392 79.8059 241.224 78.0459 241.224C75.8859 241.224 73.9979 239.56 73.9979 237.048C73.9979 234.52 75.8699 232.84 78.1099 232.84C80.2379 232.84 81.9979 234.472 82.0779 236.856ZM78.1099 234.312C77.0699 234.312 75.9499 234.968 75.6939 236.248H80.3659C80.1099 234.952 79.1979 234.312 78.1099 234.312ZM87.1043 232.84C89.1363 232.84 90.4803 233.912 90.4803 235.832V241H88.8963V240.088C88.3043 240.744 87.4243 241.224 86.1923 241.224C84.4163 241.224 83.2323 240.2 83.2323 238.712C83.2323 237.224 84.3683 236.2 86.4163 236.2H88.8963V235.96C88.8963 234.936 88.2083 234.296 87.2003 234.296C86.1283 234.296 85.4403 234.776 85.2643 235.672L83.6803 235.336C83.9523 233.848 85.3283 232.84 87.1043 232.84ZM86.4483 239.88C87.7763 239.88 88.8963 238.952 88.8963 237.736V237.48H86.3843C85.4083 237.48 84.8323 237.976 84.8323 238.68C84.8323 239.4 85.4723 239.88 86.4483 239.88ZM100.463 228.68V241H98.7826V240.024C98.1106 240.792 97.1346 241.224 95.9026 241.224C93.8386 241.224 91.9666 239.544 91.9666 237.032C91.9666 234.536 93.8386 232.84 95.9026 232.84C97.1346 232.84 98.1106 233.288 98.7826 234.04V228.68H100.463ZM96.1746 239.752C97.5026 239.752 98.7826 238.712 98.7826 237.032C98.7826 235.368 97.5026 234.312 96.1746 234.312C94.7346 234.312 93.5986 235.368 93.5986 237.032C93.5986 238.712 94.7346 239.752 96.1746 239.752ZM102.295 238.872L103.959 238.52C104.071 239.464 104.903 239.864 105.943 239.864C106.903 239.864 107.511 239.432 107.511 238.808C107.511 238.328 107.175 238.024 106.439 237.864L104.711 237.512C103.335 237.208 102.551 236.472 102.551 235.352C102.551 233.88 103.783 232.84 105.687 232.84C107.511 232.84 108.743 233.8 109.031 235.128L107.447 235.464C107.319 234.696 106.663 234.168 105.639 234.168C104.663 234.168 104.231 234.648 104.231 235.208C104.231 235.656 104.487 235.944 105.191 236.104L107.079 236.52C108.359 236.792 109.143 237.544 109.143 238.664C109.143 240.328 107.783 241.224 105.799 241.224C104.023 241.224 102.503 240.472 102.295 238.872Z" fill="#1A1816"/>
<path fill-rule="evenodd" clip-rule="evenodd" d="M282.707 232.293C282.317 231.902 281.683 231.902 281.293 232.293L276 237.586L270.707 232.293C270.317 231.902 269.683 231.902 269.293 232.293C268.902 232.683 268.902 233.317 269.293 233.707L275.293 239.707C275.683 240.098 276.317 240.098 276.707 239.707L282.707 233.707C283.098 233.317 283.098 232.683 282.707 232.293Z" fill="#1A1816"/>
<path fill-rule="evenodd" clip-rule="evenodd" d="M37 282C37.5523 282 38 282.448 38 283V284L43 284V283C43 282.448 43.4477 282 44 282C44.5523 282 45 282.448 45 283V284L49 284V283C49 282.448 49.4477 282 50 282C50.5523 282 51 282.448 51 283V284H53C53.5523 284 54 284.448 54 285C54 285.552 53.5523 286 53 286H51V288.126C52.7252 288.57 54 290.136 54 292V294C54 296.209 52.2091 298 50 298H44C41.7909 298 40 296.209 40 294V292C40 290.136 41.2748 288.57 43 288.126V286L38 286V301C38 301.552 37.5523 302 37 302C36.4477 302 36 301.552 36 301V286H35C34.4477 286 34 285.552 34 285C34 284.448 34.4477 284 35 284H36V283C36 282.448 36.4477 282 37 282ZM49 288V286L45 286V288H49ZM42 292C42 290.895 42.8954 290 44 290H50C51.1046 290 52 290.895 52 292V294C52 295.105 51.1046 296 50 296H44C42.8954 296 42 295.105 42 294V292Z" fill="#1A1816"/>
<path d="M72.832 295.448V297H65.264V286.28H66.976V295.448H72.832ZM75.6459 285.64C76.2539 285.64 76.7019 286.12 76.7019 286.68C76.7019 287.272 76.2539 287.704 75.6459 287.704C75.0219 287.704 74.5739 287.272 74.5739 286.68C74.5739 286.12 75.0219 285.64 75.6459 285.64ZM76.4779 297H74.8139V289.064H76.4779V297ZM78.4514 294.872L80.1154 294.52C80.2274 295.464 81.0594 295.864 82.0994 295.864C83.0594 295.864 83.6674 295.432 83.6674 294.808C83.6674 294.328 83.3314 294.024 82.5954 293.864L80.8674 293.512C79.4914 293.208 78.7074 292.472 78.7074 291.352C78.7074 289.88 79.9394 288.84 81.8434 288.84C83.6674 288.84 84.8994 289.8 85.1874 291.128L83.6034 291.464C83.4754 290.696 82.8194 290.168 81.7954 290.168C80.8194 290.168 80.3874 290.648 80.3874 291.208C80.3874 291.656 80.6434 291.944 81.3474 292.104L83.2354 292.52C84.5154 292.792 85.2994 293.544 85.2994 294.664C85.2994 296.328 83.9394 297.224 81.9554 297.224C80.1794 297.224 78.6594 296.472 78.4514 294.872ZM91.9539 295.224L92.4659 296.616C91.7139 297.064 91.1699 297.224 90.4979 297.224C88.7859 297.224 87.6339 296.264 87.6339 294.296V290.44H85.9219V289.064H87.6339V286.28H89.2979V289.064H92.0179V290.44H89.2979V294.184C89.2979 295.176 89.8259 295.656 90.6099 295.656C91.0259 295.656 91.5379 295.496 91.9539 295.224ZM94.7709 285.64C95.3789 285.64 95.8269 286.12 95.8269 286.68C95.8269 287.272 95.3789 287.704 94.7709 287.704C94.1469 287.704 93.6989 287.272 93.6989 286.68C93.6989 286.12 94.1469 285.64 94.7709 285.64ZM95.6029 297H93.9389V289.064H95.6029V297ZM102.664 288.84C104.568 288.84 105.848 290.216 105.848 292.2V297H104.168V292.536C104.168 291.24 103.416 290.376 102.28 290.376C100.856 290.376 99.9124 291.336 99.9124 293.336V297H98.2484V289.064H99.9124V290.04C100.552 289.272 101.48 288.84 102.664 288.84ZM115.978 289.064V297.256C115.962 299.608 114.09 301 111.642 301C109.738 301 108.426 300.28 107.77 299.096L109.146 297.976C109.722 298.888 110.394 299.368 111.642 299.368C113.114 299.368 114.298 298.52 114.298 297.016V296.024C113.626 296.792 112.65 297.224 111.418 297.224C109.354 297.224 107.482 295.544 107.482 293.032C107.482 290.536 109.354 288.84 111.418 288.84C112.65 288.84 113.626 289.288 114.298 290.04V289.064H115.978ZM111.69 295.752C113.018 295.752 114.298 294.712 114.298 293.032C114.298 291.368 113.018 290.312 111.69 290.312C110.25 290.312 109.114 291.368 109.114 293.032C109.114 294.712 110.25 295.752 111.69 295.752ZM117.811 294.872L119.475 294.52C119.587 295.464 120.419 295.864 121.459 295.864C122.419 295.864 123.027 295.432 123.027 294.808C123.027 294.328 122.691 294.024 121.955 293.864L120.227 293.512C118.851 293.208 118.067 292.472 118.067 291.352C118.067 289.88 119.299 288.84 121.203 288.84C123.027 288.84 124.259 289.8 124.547 291.128L122.963 291.464C122.835 290.696 122.179 290.168 121.155 290.168C120.179 290.168 119.747 290.648 119.747 291.208C119.747 291.656 120.003 291.944 120.707 292.104L122.595 292.52C123.875 292.792 124.659 293.544 124.659 294.664C124.659 296.328 123.299 297.224 121.315 297.224C119.539 297.224 118.019 296.472 117.811 294.872Z" fill="#1A1816"/>
<path fill-rule="evenodd" clip-rule="evenodd" d="M282.707 288.293C282.317 287.902 281.683 287.902 281.293 288.293L276 293.586L270.707 288.293C270.317 287.902 269.683 287.902 269.293 288.293C268.902 288.683 268.902 289.317 269.293 289.707L275.293 295.707C275.683 296.098 276.317 296.098 276.707 295.707L282.707 289.707C283.098 289.317 283.098 288.683 282.707 288.293Z" fill="#1A1816"/>
<path fill-rule="evenodd" clip-rule="evenodd" d="M50.3327 590.999C50.3327 595.602 46.6017 599.333 41.9993 599.333C37.397 599.333 33.666 595.602 33.666 590.999C33.666 586.397 37.397 582.666 41.9993 582.666C46.6017 582.666 50.3327 586.397 50.3327 590.999ZM41.2764 584.692C41.5674 584.415 41.8103 584.333 41.9993 584.333C42.1884 584.333 42.4313 584.415 42.7223 584.692C43.0177 584.973 43.3215 585.42 43.5949 586.034C44.1245 587.226 44.4781 588.914 44.4984 590.825C43.7178 590.937 42.8787 590.999 41.9993 590.999C41.12 590.999 40.2809 590.937 39.5003 590.825C39.5206 588.914 39.8741 587.226 40.4038 586.034C40.6772 585.42 40.981 584.973 41.2764 584.692ZM37.8399 590.491C37.8956 588.527 38.2723 586.727 38.8808 585.358C38.931 585.245 38.9832 585.134 39.0374 585.025C37.2611 585.908 35.9342 587.559 35.4921 589.543C36.1079 589.917 36.9061 590.243 37.8399 590.491ZM35.3419 591.353C36.0801 591.708 36.9361 591.999 37.8743 592.216C37.9906 593.903 38.3463 595.438 38.8808 596.641C38.931 596.754 38.9832 596.865 39.0374 596.974C36.9413 595.932 35.471 593.82 35.3419 591.353ZM39.5712 592.516C40.3501 592.615 41.1647 592.666 41.9993 592.666C42.8339 592.666 43.6486 592.615 44.4275 592.516C44.2969 593.872 43.9965 595.061 43.5949 595.964C43.3215 596.579 43.0177 597.025 42.7223 597.306C42.4313 597.583 42.1884 597.666 41.9993 597.666C41.8103 597.666 41.5674 597.583 41.2764 597.306C40.981 597.025 40.6772 596.579 40.4038 595.964C40.0022 595.061 39.7018 593.872 39.5712 592.516ZM46.1244 592.216C46.0081 593.903 45.6524 595.438 45.1179 596.641C45.0677 596.754 45.0155 596.865 44.9613 596.974C47.0574 595.932 48.5277 593.82 48.6568 591.353C47.9186 591.708 47.0626 591.999 46.1244 592.216ZM48.5066 589.543C48.0645 587.559 46.7376 585.908 44.9613 585.025C45.0155 585.134 45.0677 585.245 45.1179 585.358C45.7264 586.727 46.1031 588.527 46.1588 590.491C47.0925 590.243 47.8908 589.917 48.5066 589.543Z" fill="#1A1816"/>
<path d="M62.624 593.836V595H56.948V586.96H58.232V593.836H62.624ZM66.4024 588.88C67.9264 588.88 68.9344 589.684 68.9344 591.124V595H67.7464V594.316C67.3024 594.808 66.6424 595.168 65.7184 595.168C64.3864 595.168 63.4984 594.4 63.4984 593.284C63.4984 592.168 64.3504 591.4 65.8864 591.4H67.7464V591.22C67.7464 590.452 67.2304 589.972 66.4744 589.972C65.6704 589.972 65.1544 590.332 65.0224 591.004L63.8344 590.752C64.0384 589.636 65.0704 588.88 66.4024 588.88ZM65.9104 594.16C66.9064 594.16 67.7464 593.464 67.7464 592.552V592.36H65.8624C65.1304 592.36 64.6984 592.732 64.6984 593.26C64.6984 593.8 65.1784 594.16 65.9104 594.16ZM73.8772 588.88C75.3052 588.88 76.2652 589.912 76.2652 591.4V595H75.0052V591.652C75.0052 590.68 74.4412 590.032 73.5892 590.032C72.5212 590.032 71.8132 590.752 71.8132 592.252V595H70.5652V589.048H71.8132V589.78C72.2932 589.204 72.9892 588.88 73.8772 588.88ZM83.8626 589.048V595.192C83.8506 596.956 82.4466 598 80.6106 598C79.1826 598 78.1986 597.46 77.7066 596.572L78.7386 595.732C79.1706 596.416 79.6746 596.776 80.6106 596.776C81.7146 596.776 82.6026 596.14 82.6026 595.012V594.268C82.0986 594.844 81.3666 595.168 80.4426 595.168C78.8946 595.168 77.4906 593.908 77.4906 592.024C77.4906 590.152 78.8946 588.88 80.4426 588.88C81.3666 588.88 82.0986 589.216 82.6026 589.78V589.048H83.8626ZM80.6466 594.064C81.6426 594.064 82.6026 593.284 82.6026 592.024C82.6026 590.776 81.6426 589.984 80.6466 589.984C79.5666 589.984 78.7146 590.776 78.7146 592.024C78.7146 593.284 79.5666 594.064 80.6466 594.064ZM91.285 589.048V595H90.037V594.268C89.557 594.844 88.861 595.168 87.985 595.168C86.545 595.168 85.597 594.136 85.597 592.636V589.048H86.845V592.384C86.845 593.356 87.409 594.016 88.273 594.016C89.341 594.016 90.037 593.296 90.037 591.796V589.048H91.285ZM95.5704 588.88C97.0944 588.88 98.1024 589.684 98.1024 591.124V595H96.9144V594.316C96.4704 594.808 95.8104 595.168 94.8864 595.168C93.5544 595.168 92.6664 594.4 92.6664 593.284C92.6664 592.168 93.5184 591.4 95.0544 591.4H96.9144V591.22C96.9144 590.452 96.3984 589.972 95.6424 589.972C94.8384 589.972 94.3224 590.332 94.1904 591.004L93.0024 590.752C93.2064 589.636 94.2384 588.88 95.5704 588.88ZM95.0784 594.16C96.0744 594.16 96.9144 593.464 96.9144 592.552V592.36H95.0304C94.2984 592.36 93.8664 592.732 93.8664 593.26C93.8664 593.8 94.3464 594.16 95.0784 594.16ZM105.589 589.048V595.192C105.577 596.956 104.173 598 102.337 598C100.909 598 99.9252 597.46 99.4332 596.572L100.465 595.732C100.897 596.416 101.401 596.776 102.337 596.776C103.441 596.776 104.329 596.14 104.329 595.012V594.268C103.825 594.844 103.093 595.168 102.169 595.168C100.621 595.168 99.2172 593.908 99.2172 592.024C99.2172 590.152 100.621 588.88 102.169 588.88C103.093 588.88 103.825 589.216 104.329 589.78V589.048H105.589ZM102.373 594.064C103.369 594.064 104.329 593.284 104.329 592.024C104.329 590.776 103.369 589.984 102.373 589.984C101.293 589.984 100.441 590.776 100.441 592.024C100.441 593.284 101.293 594.064 102.373 594.064ZM113.012 591.892V592.324H108.188C108.308 593.428 109.112 594.088 109.988 594.088C110.648 594.088 111.32 593.896 111.74 593.056L112.856 593.296C112.364 594.544 111.308 595.168 109.988 595.168C108.368 595.168 106.952 593.92 106.952 592.036C106.952 590.14 108.356 588.88 110.036 588.88C111.632 588.88 112.952 590.104 113.012 591.892ZM110.036 589.984C109.256 589.984 108.416 590.476 108.224 591.436H111.728C111.536 590.464 110.852 589.984 110.036 589.984ZM114.777 589.324C115.233 589.324 115.557 589.672 115.557 590.08C115.557 590.512 115.233 590.836 114.777 590.836C114.321 590.836 113.985 590.512 113.985 590.08C113.985 589.672 114.321 589.324 114.777 589.324ZM114.777 593.524C115.233 593.524 115.557 593.872 115.557 594.28C115.557 594.712 115.233 595.048 114.777 595.048C114.321 595.048 113.985 594.712 113.985 594.28C113.985 593.872 114.321 593.524 114.777 593.524ZM125.995 593.836V595H120.007V586.96H125.983V588.124H121.291V590.392H125.623V591.544H121.291V593.836H125.995ZM130.948 588.88C132.376 588.88 133.336 589.912 133.336 591.4V595H132.076V591.652C132.076 590.68 131.512 590.032 130.66 590.032C129.592 590.032 128.884 590.752 128.884 592.252V595H127.636V589.048H128.884V589.78C129.364 589.204 130.06 588.88 130.948 588.88ZM140.933 589.048V595.192C140.921 596.956 139.517 598 137.681 598C136.253 598 135.269 597.46 134.777 596.572L135.809 595.732C136.241 596.416 136.745 596.776 137.681 596.776C138.785 596.776 139.673 596.14 139.673 595.012V594.268C139.169 594.844 138.437 595.168 137.513 595.168C135.965 595.168 134.561 593.908 134.561 592.024C134.561 590.152 135.965 588.88 137.513 588.88C138.437 588.88 139.169 589.216 139.673 589.78V589.048H140.933ZM137.717 594.064C138.713 594.064 139.673 593.284 139.673 592.024C139.673 590.776 138.713 589.984 137.717 589.984C136.637 589.984 135.785 590.776 135.785 592.024C135.785 593.284 136.637 594.064 137.717 594.064ZM144.059 595H142.811V585.76H144.059V595ZM146.672 586.48C147.128 586.48 147.464 586.84 147.464 587.26C147.464 587.704 147.128 588.028 146.672 588.028C146.204 588.028 145.868 587.704 145.868 587.26C145.868 586.84 146.204 586.48 146.672 586.48ZM147.296 595H146.048V589.048H147.296V595ZM148.776 593.404L150.024 593.14C150.108 593.848 150.732 594.148 151.512 594.148C152.232 594.148 152.688 593.824 152.688 593.356C152.688 592.996 152.436 592.768 151.884 592.648L150.588 592.384C149.556 592.156 148.968 591.604 148.968 590.764C148.968 589.66 149.892 588.88 151.32 588.88C152.688 588.88 153.612 589.6 153.828 590.596L152.64 590.848C152.544 590.272 152.052 589.876 151.284 589.876C150.552 589.876 150.228 590.236 150.228 590.656C150.228 590.992 150.42 591.208 150.948 591.328L152.364 591.64C153.324 591.844 153.912 592.408 153.912 593.248C153.912 594.496 152.892 595.168 151.404 595.168C150.072 595.168 148.932 594.604 148.776 593.404ZM158.639 588.88C160.067 588.88 161.027 589.912 161.027 591.4V595H159.767V591.652C159.767 590.68 159.203 590.032 158.351 590.032C157.283 590.032 156.575 590.752 156.575 592.252V595H155.327V585.76H156.575V589.78C157.055 589.204 157.751 588.88 158.639 588.88Z" fill="#1A1816"/>
<path d="M56 596.2H77.1031V596.8H56V596.2ZM84.2797 596.2H98.8297V596.8H84.2797V596.2ZM106.006 596.2H134.173V596.8H106.006V596.2ZM141.35 596.2H161.831V596.8H141.35V596.2Z" fill="#1A1816"/>
<path fill-rule="evenodd" clip-rule="evenodd" d="M185.59 587.911C185.264 587.586 184.737 587.586 184.411 587.911L180.001 592.322L175.59 587.911C175.264 587.586 174.737 587.586 174.411 587.911C174.086 588.237 174.086 588.764 174.411 589.09L179.411 594.09C179.737 594.415 180.264 594.415 180.59 594.09L185.59 589.09C185.915 588.764 185.915 588.237 185.59 587.911Z" fill="#1A1816"/>
</svg>
