<svg width="396" height="209" viewBox="0 0 396 209" fill="none" xmlns="http://www.w3.org/2000/svg">
<path d="M0 84.4764C0 78.533 4.81812 73.7148 10.7616 73.7148H260.688C266.631 73.7148 271.449 78.533 271.449 84.4764V197.473C271.449 203.416 266.631 208.234 260.688 208.234H10.7616C4.81811 208.234 0 203.416 0 197.473V84.4764Z" fill="#D92228"/>
<path d="M53.1807 101.321L28.8926 180.754H47.5287L53.1807 160.368H75.9412L82.0653 180.754H101.382L76.7605 101.321H53.1807ZM55.7636 146.925L60.4713 130.08C61.7766 125.484 62.9431 119.471 64.1513 114.749H64.3735C65.5538 119.471 66.9842 125.359 68.3729 130.08L73.3305 146.925H55.7636Z" fill="#F8F7F7"/>
<path d="M155.138 137.968V137.732C164.109 134.441 168.234 127.831 168.234 120.762C168.234 113.569 164.22 108.153 158.679 105.195C152.916 101.779 146.195 100.724 135.238 100.724C126.281 100.724 116.727 101.432 112.02 102.376V180.379C116.019 180.976 122.615 181.545 131.447 181.545C147.25 181.545 156.902 178.948 162.679 174.352C167.609 170.338 170.928 164.7 170.928 157.507C170.955 147.272 164.234 140.44 155.138 137.968ZM129.809 114.277C131.35 114.041 133.572 113.805 137.474 113.805C145.612 113.805 150.222 116.985 150.222 122.998C150.222 128.886 145.14 132.788 135.71 132.788H129.809V114.277ZM136.78 168.241C133.683 168.241 131.6 168.241 129.809 168.005V145.62H135.947C144.917 145.62 152.083 148.8 152.083 156.827C152.097 165.2 144.917 168.241 136.78 168.241Z" fill="#F8F7F7"/>
<path d="M223.794 114.874C230.14 114.874 235.209 116.291 238.889 117.818L242.555 103.557C239.375 101.904 232.293 100.015 222.989 100.015C198.937 100.015 179.62 115.096 179.62 142.204C179.62 164.825 193.785 181.934 221.197 181.934C230.876 181.934 238.292 180.156 241.625 178.49L238.917 164.464C235.39 165.881 229.363 167.075 223.947 167.075C207.922 167.075 198.506 157.035 198.506 141.148C198.465 123.47 209.519 114.874 223.794 114.874Z" fill="#F8F7F7"/>
<path d="M328.299 112.568C328.899 111.997 329.848 112.019 330.42 112.618L339.739 122.386C340.311 122.985 340.289 123.935 339.69 124.506C339.09 125.078 338.141 125.056 337.569 124.457L329.285 115.774L320.603 124.058C320.004 124.63 319.054 124.608 318.482 124.008C317.91 123.409 317.933 122.459 318.532 121.888L328.299 112.568ZM283.821 142.591C283.017 142.393 282.525 141.58 282.723 140.776C282.922 139.971 283.734 139.48 284.539 139.678L284.18 141.134L283.821 142.591ZM329.335 113.654L330.835 113.689C330.678 120.363 328.147 129.848 320.943 136.562C313.656 143.353 301.879 147.041 283.821 142.591L284.18 141.134L284.539 139.678C301.883 143.952 312.534 140.298 318.898 134.367C325.346 128.357 327.692 119.74 327.835 113.618L329.335 113.654Z" fill="black"/>
<path d="M328.98 18.0079C334.587 13.803 342.588 17.8032 342.588 24.8119V75.8422C342.588 82.8509 334.587 86.8512 328.98 82.6463L312.348 70.1722H308.568C299.173 70.1722 291.558 62.5568 291.558 53.1621V47.492C291.558 38.0974 299.173 30.482 308.568 30.482H312.348L328.98 18.0079Z" fill="black"/>
<path d="M351.966 29.3425C358.257 36.189 367.065 53.9899 351.966 70.4214" stroke="black" stroke-width="6" stroke-linecap="round"/>
<path d="M363.777 16.2917C374.066 27.4886 388.471 56.6002 363.777 83.4724" stroke="black" stroke-width="6" stroke-linecap="round"/>
<path d="M373.477 3C387.837 18.6274 407.941 59.2584 373.477 96.7639" stroke="black" stroke-width="6" stroke-linecap="round"/>
</svg>
