<svg width="733" height="300" viewBox="0 0 733 300" fill="none" xmlns="http://www.w3.org/2000/svg">
<path d="M12 0.5H721C727.351 0.5 732.5 5.64872 732.5 12V288C732.5 294.351 727.351 299.5 721 299.5H12C5.64873 299.5 0.5 294.351 0.5 288V12C0.500004 5.64873 5.64873 0.5 12 0.5Z" fill="white"/>
<path d="M12 0.5H721C727.351 0.5 732.5 5.64872 732.5 12V288C732.5 294.351 727.351 299.5 721 299.5H12C5.64873 299.5 0.5 294.351 0.5 288V12C0.500004 5.64873 5.64873 0.5 12 0.5Z" stroke="#D3CFCA"/>
<path d="M57.496 62H53.272L52.144 59.072H45.376L44.248 62H40L46.72 45.92H50.776L57.496 62ZM50.824 55.664L48.76 50.384L46.72 55.664H50.824ZM71.314 49.952V62.24C71.314 65.96 68.146 68 64.234 68C61.474 68 59.386 67.04 58.21 65.096L61.402 63.128C62.29 64.208 62.986 64.616 64.234 64.616C65.962 64.616 67.474 63.752 67.474 61.856V60.968C66.562 61.856 65.314 62.36 63.73 62.36C60.538 62.36 57.85 59.792 57.85 55.976C57.85 52.184 60.538 49.592 63.73 49.592C65.314 49.592 66.562 50.096 67.474 50.984V49.952H71.314ZM64.522 59.096C66.082 59.096 67.474 57.848 67.474 55.976C67.474 54.128 66.082 52.856 64.522 52.856C62.842 52.856 61.618 54.128 61.618 55.976C61.618 57.848 62.842 59.096 64.522 59.096ZM85.8953 55.976V56.96H77.0633C77.3753 58.4 78.3593 59.288 79.6553 59.288C80.5433 59.288 81.5753 59.072 82.2233 57.896L85.6313 58.592C84.5993 61.136 82.4153 62.36 79.6553 62.36C76.1753 62.36 73.2953 59.792 73.2953 55.976C73.2953 52.184 76.1753 49.592 79.6793 49.592C83.0873 49.592 85.8233 52.04 85.8953 55.976ZM79.6793 52.712C78.5993 52.712 77.4953 53.384 77.1353 54.608H82.1033C81.7433 53.312 80.7833 52.712 79.6793 52.712ZM95.428 49.592C98.236 49.592 100.108 51.584 100.108 54.608V62H96.292V55.424C96.292 54.008 95.452 53.048 94.228 53.048C92.716 53.048 91.732 54.08 91.732 56.408V62H87.892V49.952H91.732V51.104C92.644 50.144 93.916 49.592 95.428 49.592ZM110.768 58.448L111.656 61.472C110.72 61.976 109.736 62.36 108.368 62.36C105.368 62.36 103.568 60.728 103.568 57.56V53H101.384V49.952H103.568V45.92H107.408V49.952H110.96V53H107.408V57.176C107.408 58.424 108.008 58.928 109.016 58.928C109.544 58.928 110.264 58.736 110.768 58.448ZM117.873 58.856L121.617 58.088C121.785 59.12 122.721 59.504 123.753 59.504C124.761 59.504 125.313 59.072 125.313 58.544C125.313 58.136 125.001 57.824 124.113 57.656L121.665 57.176C119.433 56.768 118.161 55.568 118.161 53.672C118.161 51.2 120.297 49.592 123.345 49.592C126.345 49.592 128.337 50.96 128.817 53.048L125.313 53.744C125.193 53 124.473 52.328 123.297 52.328C122.265 52.328 121.929 52.832 121.929 53.264C121.929 53.6 122.073 53.936 122.841 54.104L125.673 54.68C127.953 55.16 129.009 56.528 129.009 58.304C129.009 60.968 126.705 62.36 123.537 62.36C120.705 62.36 118.281 61.328 117.873 58.856ZM142.848 55.976V56.96H134.016C134.328 58.4 135.312 59.288 136.608 59.288C137.496 59.288 138.528 59.072 139.176 57.896L142.584 58.592C141.552 61.136 139.368 62.36 136.608 62.36C133.128 62.36 130.248 59.792 130.248 55.976C130.248 52.184 133.128 49.592 136.632 49.592C140.04 49.592 142.776 52.04 142.848 55.976ZM136.632 52.712C135.552 52.712 134.448 53.384 134.088 54.608H139.056C138.696 53.312 137.736 52.712 136.632 52.712ZM150.269 49.592C153.653 49.592 155.789 51.296 155.789 54.368V62H152.093V61.112C151.253 61.832 150.101 62.36 148.493 62.36C145.805 62.36 144.005 60.8 144.005 58.424C144.005 56.072 145.805 54.536 149.021 54.536H152.093V54.296C152.093 53.288 151.397 52.616 150.389 52.616C149.237 52.616 148.565 53.072 148.373 54.128L144.749 53.384C145.277 51.056 147.389 49.592 150.269 49.592ZM149.573 59.48C150.893 59.48 152.093 58.592 152.093 57.248V56.984H149.453C148.493 56.984 147.893 57.488 147.893 58.232C147.893 59 148.565 59.48 149.573 59.48ZM166.173 49.784C166.509 49.784 166.749 49.808 167.037 49.88L166.869 53.72H166.173C163.485 53.72 162.021 55.112 162.021 58.232V62H158.181V49.952H162.021V52.256C162.885 50.816 164.205 49.784 166.173 49.784ZM174.371 59C175.595 59 176.579 58.352 176.987 56.888L180.515 57.656C179.915 60.512 177.371 62.36 174.371 62.36C170.771 62.36 167.795 59.792 167.795 55.976C167.795 52.184 170.771 49.592 174.371 49.592C177.299 49.592 179.843 51.392 180.515 54.224L176.915 55.088C176.579 53.624 175.595 52.952 174.371 52.952C172.643 52.952 171.491 54.224 171.491 55.976C171.491 57.752 172.643 59 174.371 59ZM190.069 49.592C192.853 49.592 194.725 51.584 194.725 54.608V62H190.909V55.424C190.909 54.008 190.069 53.048 188.821 53.048C187.333 53.048 186.349 54.08 186.349 56.408V62H182.509V43.52H186.349V51.104C187.285 50.144 188.533 49.592 190.069 49.592Z" fill="#1A1816"/>
<path d="M49.03 87H47.644L44.06 82.982H42.338V87H41.232V77.62H45.572C47.406 77.62 48.638 78.684 48.638 80.294C48.638 81.904 47.406 82.982 45.572 82.982H45.404L49.03 87ZM42.338 81.974H45.572C46.748 81.974 47.532 81.302 47.532 80.294C47.532 79.286 46.748 78.614 45.572 78.614H42.338V81.974ZM56.7612 83.374V83.766H50.8392C50.9372 85.32 52.1132 86.244 53.3032 86.244C54.2832 86.244 55.1652 85.866 55.6552 84.76L56.6072 84.984C56.0612 86.426 54.8572 87.182 53.3032 87.182C51.4692 87.182 49.8032 85.768 49.8032 83.57C49.8032 81.358 51.4692 79.93 53.3732 79.93C55.2352 79.93 56.6912 81.316 56.7612 83.374ZM53.3732 80.868C52.2532 80.868 51.0912 81.61 50.8812 82.968H55.6832C55.4872 81.61 54.5212 80.868 53.3732 80.868ZM65.2173 80.098V90.36H64.1533V85.852C63.5513 86.692 62.5853 87.182 61.4093 87.182C59.5753 87.182 57.9653 85.74 57.9653 83.556C57.9653 81.372 59.5753 79.93 61.4093 79.93C62.5853 79.93 63.5513 80.42 64.1533 81.26V80.098H65.2173ZM61.5773 86.23C62.8793 86.23 64.1533 85.194 64.1533 83.556C64.1533 81.904 62.8793 80.868 61.5773 80.868C60.1493 80.868 59.0013 81.904 59.0013 83.556C59.0013 85.194 60.1493 86.23 61.5773 86.23ZM73.8637 80.098V86.986H72.7857V85.866C72.2257 86.692 71.3297 87.168 70.1817 87.168C68.5157 87.168 67.4097 85.978 67.4097 84.228V80.098H68.4877V84.032C68.4877 85.32 69.2437 86.174 70.3917 86.174C71.8337 86.174 72.7857 85.208 72.7857 83.416V80.098H73.8637ZM76.958 77.298C77.378 77.298 77.7 77.634 77.7 78.012C77.7 78.418 77.378 78.726 76.958 78.726C76.538 78.726 76.23 78.418 76.23 78.012C76.23 77.634 76.538 77.298 76.958 77.298ZM77.504 87H76.426V80.098H77.504V87ZM83.9238 80.028C84.0918 80.028 84.2178 80.028 84.4138 80.084L84.3298 81.106C84.2038 81.092 84.0498 81.092 83.9238 81.092C82.0898 81.092 81.1518 82.478 81.1518 84.34V87H80.0738V80.098H81.1518V81.792C81.7118 80.77 82.6498 80.028 83.9238 80.028ZM91.9936 83.374V83.766H86.0716C86.1696 85.32 87.3456 86.244 88.5356 86.244C89.5156 86.244 90.3976 85.866 90.8876 84.76L91.8396 84.984C91.2936 86.426 90.0896 87.182 88.5356 87.182C86.7016 87.182 85.0356 85.768 85.0356 83.57C85.0356 81.358 86.7016 79.93 88.6056 79.93C90.4676 79.93 91.9236 81.316 91.9936 83.374ZM88.6056 80.868C87.4856 80.868 86.3236 81.61 86.1136 82.968H90.9156C90.7196 81.61 89.7536 80.868 88.6056 80.868ZM100.45 76.22V87H99.3857V85.852C98.7837 86.692 97.8177 87.182 96.6417 87.182C94.8077 87.182 93.1977 85.74 93.1977 83.556C93.1977 81.372 94.8077 79.93 96.6417 79.93C97.8177 79.93 98.7837 80.42 99.3857 81.26V76.22H100.45ZM96.8097 86.23C98.1117 86.23 99.3857 85.194 99.3857 83.556C99.3857 81.904 98.1117 80.868 96.8097 80.868C95.3817 80.868 94.2337 81.904 94.2337 83.556C94.2337 85.194 95.3817 86.23 96.8097 86.23ZM112.551 80.098V87H111.473V80.994H107.763V87H106.699V80.994H105.495V80.098H106.699V78.474C106.699 77.004 107.623 76.08 109.079 76.08C109.569 76.08 109.975 76.192 110.367 76.416L110.087 77.27C109.793 77.116 109.485 77.032 109.149 77.032C108.295 77.032 107.763 77.592 107.763 78.474V80.098H112.551ZM112.005 78.726C111.585 78.726 111.277 78.418 111.277 78.012C111.277 77.634 111.585 77.298 112.005 77.298C112.425 77.298 112.747 77.634 112.747 78.012C112.747 78.418 112.425 78.726 112.005 78.726ZM121.456 83.374V83.766H115.534C115.632 85.32 116.808 86.244 117.998 86.244C118.978 86.244 119.86 85.866 120.35 84.76L121.302 84.984C120.756 86.426 119.552 87.182 117.998 87.182C116.164 87.182 114.498 85.768 114.498 83.57C114.498 81.358 116.164 79.93 118.068 79.93C119.93 79.93 121.386 81.316 121.456 83.374ZM118.068 80.868C116.948 80.868 115.786 81.61 115.576 82.968H120.378C120.182 81.61 119.216 80.868 118.068 80.868ZM124.355 87H123.291V76.22H124.355V87ZM133.44 76.22V87H132.376V85.852C131.774 86.692 130.808 87.182 129.632 87.182C127.798 87.182 126.188 85.74 126.188 83.556C126.188 81.372 127.798 79.93 129.632 79.93C130.808 79.93 131.774 80.42 132.376 81.26V76.22H133.44ZM129.8 86.23C131.102 86.23 132.376 85.194 132.376 83.556C132.376 81.904 131.102 80.868 129.8 80.868C128.372 80.868 127.224 81.904 127.224 83.556C127.224 85.194 128.372 86.23 129.8 86.23ZM135.322 85.138L136.386 84.9C136.484 85.81 137.324 86.3 138.416 86.3C139.41 86.3 140.068 85.838 140.068 85.124C140.068 84.55 139.634 84.284 138.934 84.13L137.352 83.78C136.204 83.542 135.56 82.968 135.56 82.016C135.56 80.77 136.596 79.93 138.178 79.93C139.732 79.93 140.74 80.728 140.992 81.848L139.97 82.072C139.83 81.316 139.172 80.798 138.15 80.798C137.17 80.798 136.624 81.274 136.624 81.932C136.624 82.478 137.002 82.73 137.674 82.884L139.34 83.248C140.348 83.472 141.118 84.004 141.118 85.054C141.118 86.412 139.984 87.182 138.332 87.182C136.75 87.182 135.49 86.482 135.322 85.138ZM149.165 79.93C150.887 79.93 152.021 80.854 152.021 82.52V87H150.985V85.95C150.453 86.664 149.585 87.182 148.395 87.182C146.883 87.182 145.889 86.314 145.889 85.068C145.889 83.808 146.855 82.912 148.661 82.912H150.985V82.59C150.985 81.512 150.285 80.868 149.221 80.868C148.171 80.868 147.443 81.386 147.289 82.254L146.267 82.03C146.491 80.784 147.653 79.93 149.165 79.93ZM148.549 86.3C149.893 86.3 150.985 85.362 150.985 84.116V83.752H148.647C147.513 83.752 146.911 84.298 146.911 85.054C146.911 85.782 147.555 86.3 148.549 86.3ZM157.998 80.028C158.166 80.028 158.292 80.028 158.488 80.084L158.404 81.106C158.278 81.092 158.124 81.092 157.998 81.092C156.164 81.092 155.226 82.478 155.226 84.34V87H154.148V80.098H155.226V81.792C155.786 80.77 156.724 80.028 157.998 80.028ZM166.068 83.374V83.766H160.146C160.244 85.32 161.42 86.244 162.61 86.244C163.59 86.244 164.472 85.866 164.962 84.76L165.914 84.984C165.368 86.426 164.164 87.182 162.61 87.182C160.776 87.182 159.11 85.768 159.11 83.57C159.11 81.358 160.776 79.93 162.68 79.93C164.542 79.93 165.998 81.316 166.068 83.374ZM162.68 80.868C161.56 80.868 160.398 81.61 160.188 82.968H164.99C164.794 81.61 163.828 80.868 162.68 80.868ZM179.801 79.93C181.257 79.93 182.377 80.966 182.377 82.534V87H181.313V82.716C181.313 81.624 180.571 80.91 179.535 80.91C178.261 80.91 177.421 81.848 177.421 83.472V87H176.357V82.716C176.357 81.624 175.615 80.91 174.593 80.91C173.319 80.91 172.493 81.848 172.493 83.472V87H171.429V80.098H172.493V81.148C172.983 80.392 173.767 79.93 174.845 79.93C175.909 79.93 176.791 80.448 177.197 81.33C177.729 80.476 178.625 79.93 179.801 79.93ZM187.323 79.93C189.045 79.93 190.179 80.854 190.179 82.52V87H189.143V85.95C188.611 86.664 187.743 87.182 186.553 87.182C185.041 87.182 184.047 86.314 184.047 85.068C184.047 83.808 185.013 82.912 186.819 82.912H189.143V82.59C189.143 81.512 188.443 80.868 187.379 80.868C186.329 80.868 185.601 81.386 185.447 82.254L184.425 82.03C184.649 80.784 185.811 79.93 187.323 79.93ZM186.707 86.3C188.051 86.3 189.143 85.362 189.143 84.116V83.752H186.805C185.671 83.752 185.069 84.298 185.069 85.054C185.069 85.782 185.713 86.3 186.707 86.3ZM196.156 80.028C196.324 80.028 196.45 80.028 196.646 80.084L196.562 81.106C196.436 81.092 196.282 81.092 196.156 81.092C194.322 81.092 193.384 82.478 193.384 84.34V87H192.306V80.098H193.384V81.792C193.944 80.77 194.882 80.028 196.156 80.028ZM205.09 87H203.732L200.792 83.752L199.14 85.488V87H198.076V76.22H199.14V84.06L202.99 80.098H204.278L201.52 82.996L205.09 87ZM212.429 83.374V83.766H206.507C206.605 85.32 207.781 86.244 208.971 86.244C209.951 86.244 210.833 85.866 211.323 84.76L212.275 84.984C211.729 86.426 210.525 87.182 208.971 87.182C207.137 87.182 205.471 85.768 205.471 83.57C205.471 81.358 207.137 79.93 209.041 79.93C210.903 79.93 212.359 81.316 212.429 83.374ZM209.041 80.868C207.921 80.868 206.759 81.61 206.549 82.968H211.351C211.155 81.61 210.189 80.868 209.041 80.868ZM220.885 76.22V87H219.821V85.852C219.219 86.692 218.253 87.182 217.077 87.182C215.243 87.182 213.633 85.74 213.633 83.556C213.633 81.372 215.243 79.93 217.077 79.93C218.253 79.93 219.219 80.42 219.821 81.26V76.22H220.885ZM217.245 86.23C218.547 86.23 219.821 85.194 219.821 83.556C219.821 81.904 218.547 80.868 217.245 80.868C215.817 80.868 214.669 81.904 214.669 83.556C214.669 85.194 215.817 86.23 217.245 86.23ZM236.164 80.098L233.84 87.028H232.846L231.04 81.792L229.22 87.028H228.226L225.902 80.098H226.98L228.758 85.446L230.606 80.098H231.46L233.308 85.446L235.086 80.098H236.164ZM238.286 77.298C238.706 77.298 239.028 77.634 239.028 78.012C239.028 78.418 238.706 78.726 238.286 78.726C237.866 78.726 237.558 78.418 237.558 78.012C237.558 77.634 237.866 77.298 238.286 77.298ZM238.832 87H237.754V80.098H238.832V87ZM245.196 85.754L245.546 86.636C244.986 87.028 244.51 87.182 243.95 87.182C242.578 87.182 241.668 86.37 241.668 84.844V80.994H240.17V80.098H241.668V77.62H242.746V80.098H245.21V80.994H242.746V84.774C242.746 85.67 243.25 86.174 244.02 86.174C244.412 86.174 244.846 86.006 245.196 85.754ZM250.58 79.93C252.246 79.93 253.352 81.12 253.352 82.87V87H252.288V83.066C252.288 81.778 251.518 80.91 250.37 80.91C248.928 80.91 247.976 81.89 247.976 83.682V87H246.912V76.22H247.976V81.246C248.536 80.406 249.418 79.93 250.58 79.93ZM261.667 79.384L263.347 80.35L262.983 80.966L261.331 80.014V81.862H260.561V80.014L258.909 80.966L258.545 80.35L260.225 79.384L258.545 78.418L258.909 77.802L260.561 78.754V76.92H261.331V78.754L262.983 77.802L263.347 78.418L261.667 79.384Z" fill="#726A60"/>
<mask id="path-4-inside-1_227_14856" fill="white">
<path d="M40 124C40 119.582 43.5817 116 48 116H685C689.418 116 693 119.582 693 124V156C693 160.418 689.418 164 685 164H48C43.5817 164 40 160.418 40 156V124Z"/>
</mask>
<path d="M40 124C40 119.582 43.5817 116 48 116H685C689.418 116 693 119.582 693 124V156C693 160.418 689.418 164 685 164H48C43.5817 164 40 160.418 40 156V124Z" fill="white"/>
<path d="M48 116V117H685V116V115H48V116ZM693 124H692V156H693H694V124H693ZM685 164V163H48V164V165H685V164ZM40 156H41V124H40H39V156H40ZM48 164V163C44.134 163 41 159.866 41 156H40H39C39 160.971 43.0294 165 48 165V164ZM693 156H692C692 159.866 688.866 163 685 163V164V165C689.971 165 694 160.971 694 156H693ZM685 116V117C688.866 117 692 120.134 692 124H693H694C694 119.029 689.971 115 685 115V116ZM48 116V115C43.0294 115 39 119.029 39 124H40H41C41 120.134 44.134 117 48 117V116Z" fill="#958A7F" mask="url(#path-4-inside-1_227_14856)"/>
<g clip-path="url(#clip0_227_14856)">
<path d="M64.196 132H63.176L62.276 129.96H58.04L57.14 132H56.12L59.72 123.96H60.596L64.196 132ZM61.904 129.108L60.164 125.136L58.412 129.108H61.904ZM70.9351 126.084V132.252C70.9351 133.92 69.5551 135 67.8271 135C66.3511 135 65.3791 134.424 64.9231 133.464L65.7031 132.876C66.1111 133.668 66.7111 134.112 67.8271 134.112C69.0271 134.112 70.0111 133.344 70.0231 132.132V131.016C69.5071 131.736 68.6791 132.156 67.6711 132.156C66.0991 132.156 64.7191 130.92 64.7191 129.048C64.7191 127.176 66.0991 125.94 67.6711 125.94C68.6791 125.94 69.5071 126.36 70.0231 127.08V126.084H70.9351ZM67.8151 131.34C68.9311 131.34 70.0231 130.452 70.0231 129.048C70.0231 127.632 68.9311 126.744 67.8151 126.744C66.5911 126.744 65.6071 127.632 65.6071 129.048C65.6071 130.452 66.5911 131.34 67.8151 131.34ZM78.4761 128.892V129.228H73.4001C73.4841 130.56 74.4921 131.352 75.5121 131.352C76.3521 131.352 77.1081 131.028 77.5281 130.08L78.3441 130.272C77.8761 131.508 76.8441 132.156 75.5121 132.156C73.9401 132.156 72.5121 130.944 72.5121 129.06C72.5121 127.164 73.9401 125.94 75.5721 125.94C77.1681 125.94 78.4161 127.128 78.4761 128.892ZM75.5721 126.744C74.6121 126.744 73.6161 127.38 73.4361 128.544H77.5521C77.3841 127.38 76.5561 126.744 75.5721 126.744ZM83.1922 125.94C84.6202 125.94 85.5682 126.96 85.5682 128.46V132H84.6562V128.628C84.6562 127.524 83.9962 126.78 83.0122 126.78C81.7762 126.78 80.9602 127.62 80.9602 129.156V132H80.0482V126.084H80.9602V127.068C81.4402 126.348 82.1962 125.94 83.1922 125.94ZM90.7885 130.932L91.0885 131.688C90.6085 132.024 90.2005 132.156 89.7205 132.156C88.5445 132.156 87.7645 131.46 87.7645 130.152V126.852H86.4805V126.084H87.7645V123.96H88.6885V126.084H90.8005V126.852H88.6885V130.092C88.6885 130.86 89.1205 131.292 89.7805 131.292C90.1165 131.292 90.4885 131.148 90.7885 130.932ZM92.7215 127.116H92.0135L92.8055 123.96H93.8855V123.984L92.7215 127.116ZM94.509 130.404L95.421 130.2C95.505 130.98 96.225 131.4 97.161 131.4C98.013 131.4 98.577 131.004 98.577 130.392C98.577 129.9 98.205 129.672 97.605 129.54L96.249 129.24C95.265 129.036 94.713 128.544 94.713 127.728C94.713 126.66 95.601 125.94 96.957 125.94C98.289 125.94 99.153 126.624 99.369 127.584L98.493 127.776C98.373 127.128 97.809 126.684 96.933 126.684C96.093 126.684 95.625 127.092 95.625 127.656C95.625 128.124 95.949 128.34 96.525 128.472L97.953 128.784C98.817 128.976 99.477 129.432 99.477 130.332C99.477 131.496 98.505 132.156 97.089 132.156C95.733 132.156 94.653 131.556 94.509 130.404ZM107.371 125.94C108.943 125.94 110.323 127.176 110.323 129.048C110.323 130.92 108.943 132.156 107.371 132.156C106.363 132.156 105.535 131.736 105.019 131.016V134.88H104.107V126.084H105.019V127.08C105.535 126.36 106.363 125.94 107.371 125.94ZM107.227 131.34C108.451 131.34 109.435 130.452 109.435 129.048C109.435 127.632 108.451 126.744 107.227 126.744C106.111 126.744 105.019 127.632 105.019 129.048C105.019 130.452 106.111 131.34 107.227 131.34ZM115.2 126.024C115.344 126.024 115.452 126.024 115.62 126.072L115.548 126.948C115.44 126.936 115.308 126.936 115.2 126.936C113.628 126.936 112.824 128.124 112.824 129.72V132H111.9V126.084H112.824V127.536C113.304 126.66 114.108 126.024 115.2 126.024ZM117.397 123.684C117.757 123.684 118.033 123.972 118.033 124.296C118.033 124.644 117.757 124.908 117.397 124.908C117.037 124.908 116.773 124.644 116.773 124.296C116.773 123.972 117.037 123.684 117.397 123.684ZM117.865 132H116.941V126.084H117.865V132ZM127.244 125.94C128.492 125.94 129.452 126.828 129.452 128.172V132H128.54V128.328C128.54 127.392 127.904 126.78 127.016 126.78C125.924 126.78 125.204 127.584 125.204 128.976V132H124.292V128.328C124.292 127.392 123.656 126.78 122.78 126.78C121.688 126.78 120.98 127.584 120.98 128.976V132H120.068V126.084H120.98V126.984C121.4 126.336 122.072 125.94 122.996 125.94C123.908 125.94 124.664 126.384 125.012 127.14C125.468 126.408 126.236 125.94 127.244 125.94ZM133.691 125.94C135.167 125.94 136.139 126.732 136.139 128.16V132H135.251V131.1C134.795 131.712 134.051 132.156 133.031 132.156C131.735 132.156 130.883 131.412 130.883 130.344C130.883 129.264 131.711 128.496 133.259 128.496H135.251V128.22C135.251 127.296 134.651 126.744 133.739 126.744C132.839 126.744 132.215 127.188 132.083 127.932L131.207 127.74C131.399 126.672 132.395 125.94 133.691 125.94ZM133.163 131.4C134.315 131.4 135.251 130.596 135.251 129.528V129.216H133.247C132.275 129.216 131.759 129.684 131.759 130.332C131.759 130.956 132.311 131.4 133.163 131.4ZM141.262 126.024C141.406 126.024 141.514 126.024 141.682 126.072L141.61 126.948C141.502 126.936 141.37 126.936 141.262 126.936C139.69 126.936 138.886 128.124 138.886 129.72V132H137.962V126.084H138.886V127.536C139.366 126.66 140.17 126.024 141.262 126.024ZM148.392 126.084L144.384 134.88H143.364L144.72 131.916L142.068 126.084H143.1L145.212 130.812L147.372 126.084H148.392ZM152.189 130.404L153.101 130.2C153.185 130.98 153.905 131.4 154.841 131.4C155.693 131.4 156.257 131.004 156.257 130.392C156.257 129.9 155.885 129.672 155.285 129.54L153.929 129.24C152.945 129.036 152.393 128.544 152.393 127.728C152.393 126.66 153.281 125.94 154.637 125.94C155.969 125.94 156.833 126.624 157.049 127.584L156.173 127.776C156.053 127.128 155.489 126.684 154.613 126.684C153.773 126.684 153.305 127.092 153.305 127.656C153.305 128.124 153.629 128.34 154.205 128.472L155.633 128.784C156.497 128.976 157.157 129.432 157.157 130.332C157.157 131.496 156.185 132.156 154.769 132.156C153.413 132.156 152.333 131.556 152.189 130.404ZM162.015 130.932L162.315 131.688C161.835 132.024 161.427 132.156 160.947 132.156C159.771 132.156 158.991 131.46 158.991 130.152V126.852H157.707V126.084H158.991V123.96H159.915V126.084H162.027V126.852H159.915V130.092C159.915 130.86 160.347 131.292 161.007 131.292C161.343 131.292 161.715 131.148 162.015 130.932ZM165.871 125.94C167.347 125.94 168.319 126.732 168.319 128.16V132H167.431V131.1C166.975 131.712 166.231 132.156 165.211 132.156C163.915 132.156 163.063 131.412 163.063 130.344C163.063 129.264 163.891 128.496 165.439 128.496H167.431V128.22C167.431 127.296 166.831 126.744 165.919 126.744C165.019 126.744 164.395 127.188 164.263 127.932L163.387 127.74C163.579 126.672 164.575 125.94 165.871 125.94ZM165.343 131.4C166.495 131.4 167.431 130.596 167.431 129.528V129.216H165.427C164.455 129.216 163.939 129.684 163.939 130.332C163.939 130.956 164.491 131.4 165.343 131.4ZM173.394 130.932L173.694 131.688C173.214 132.024 172.806 132.156 172.326 132.156C171.15 132.156 170.37 131.46 170.37 130.152V126.852H169.086V126.084H170.37V123.96H171.294V126.084H173.406V126.852H171.294V130.092C171.294 130.86 171.726 131.292 172.386 131.292C172.722 131.292 173.094 131.148 173.394 130.932ZM180.113 128.892V129.228H175.037C175.121 130.56 176.129 131.352 177.149 131.352C177.989 131.352 178.745 131.028 179.165 130.08L179.981 130.272C179.513 131.508 178.481 132.156 177.149 132.156C175.577 132.156 174.149 130.944 174.149 129.06C174.149 127.164 175.577 125.94 177.209 125.94C178.805 125.94 180.053 127.128 180.113 128.892ZM177.209 126.744C176.249 126.744 175.253 127.38 175.073 128.544H179.189C179.021 127.38 178.193 126.744 177.209 126.744Z" fill="#1A1816"/>
<path d="M184.18 125.472L185.62 126.3L185.308 126.828L183.892 126.012V127.596H183.232V126.012L181.816 126.828L181.504 126.3L182.944 125.472L181.504 124.644L181.816 124.116L183.232 124.932V123.36H183.892V124.932L185.308 124.116L185.62 124.644L184.18 125.472Z" fill="#726A60"/>
<path d="M65.632 143.416H61.664V153H60.384V143.416H56.4V142.28H65.632V143.416ZM73.2338 148.856V149.304H66.4658C66.5778 151.08 67.9218 152.136 69.2818 152.136C70.4018 152.136 71.4098 151.704 71.9698 150.44L73.0578 150.696C72.4338 152.344 71.0578 153.208 69.2818 153.208C67.1858 153.208 65.2818 151.592 65.2818 149.08C65.2818 146.552 67.1858 144.92 69.3618 144.92C71.4898 144.92 73.1538 146.504 73.2338 148.856ZM69.3618 145.992C68.0818 145.992 66.7538 146.84 66.5138 148.392H72.0018C71.7778 146.84 70.6738 145.992 69.3618 145.992ZM79.1294 149.112L82.1374 153H80.6654L78.2334 149.848L75.8014 153H74.3294L77.3374 149.112L74.3294 145.112H75.8014L78.2334 148.36L80.6654 145.112H82.1374L79.1294 149.112ZM87.057 144.92C89.025 144.92 90.321 145.976 90.321 147.88V153H89.137V151.8C88.529 152.616 87.537 153.208 86.177 153.208C84.449 153.208 83.313 152.216 83.313 150.792C83.313 149.352 84.417 148.328 86.481 148.328H89.137V147.96C89.137 146.728 88.337 145.992 87.121 145.992C85.921 145.992 85.089 146.584 84.913 147.576L83.745 147.32C84.001 145.896 85.329 144.92 87.057 144.92ZM86.353 152.2C87.889 152.2 89.137 151.128 89.137 149.704V149.288H86.465C85.169 149.288 84.481 149.912 84.481 150.776C84.481 151.608 85.217 152.2 86.353 152.2ZM92.0798 150.872L93.2958 150.6C93.4078 151.64 94.3678 152.2 95.6158 152.2C96.7518 152.2 97.5038 151.672 97.5038 150.856C97.5038 150.2 97.0078 149.896 96.2078 149.72L94.3998 149.32C93.0878 149.048 92.3518 148.392 92.3518 147.304C92.3518 145.88 93.5358 144.92 95.3438 144.92C97.1198 144.92 98.2718 145.832 98.5598 147.112L97.3918 147.368C97.2318 146.504 96.4798 145.912 95.3118 145.912C94.1918 145.912 93.5678 146.456 93.5678 147.208C93.5678 147.832 93.9998 148.12 94.7678 148.296L96.6718 148.712C97.8238 148.968 98.7038 149.576 98.7038 150.776C98.7038 152.328 97.4078 153.208 95.5198 153.208C93.7118 153.208 92.2718 152.408 92.0798 150.872Z" fill="#1A1816"/>
</g>
<path fill-rule="evenodd" clip-rule="evenodd" d="M671.707 136.293C671.317 135.902 670.683 135.902 670.293 136.293L665 141.586L659.707 136.293C659.317 135.902 658.683 135.902 658.293 136.293C657.902 136.683 657.902 137.317 658.293 137.707L664.293 143.707C664.683 144.098 665.317 144.098 665.707 143.707L671.707 137.707C672.098 137.317 672.098 136.683 671.707 136.293Z" fill="#1A1816"/>
<mask id="path-10-inside-2_227_14856" fill="white">
<path d="M40 196C40 191.582 43.5817 188 48 188H685C689.418 188 693 191.582 693 196V228C693 232.418 689.418 236 685 236H48C43.5817 236 40 232.418 40 228V196Z"/>
</mask>
<path d="M40 196C40 191.582 43.5817 188 48 188H685C689.418 188 693 191.582 693 196V228C693 232.418 689.418 236 685 236H48C43.5817 236 40 232.418 40 228V196Z" fill="white"/>
<path d="M48 188V190H685V188V186H48V188ZM693 196H691V228H693H695V196H693ZM685 236V234H48V236V238H685V236ZM40 228H42V196H40H38V228H40ZM48 236V234C44.6863 234 42 231.314 42 228H40H38C38 233.523 42.4771 238 48 238V236ZM693 228H691C691 231.314 688.314 234 685 234V236V238C690.523 238 695 233.523 695 228H693ZM685 188V190C688.314 190 691 192.686 691 196H693H695C695 190.477 690.523 186 685 186V188ZM48 188V186C42.4772 186 38 190.477 38 196H40H42C42 192.686 44.6863 190 48 190V188Z" fill="#D92228" mask="url(#path-10-inside-2_227_14856)"/>
<path d="M62.448 216.024C64.304 216.024 65.776 215.048 66.336 213.288L67.552 213.576C66.896 215.816 64.912 217.208 62.448 217.208C59.328 217.208 56.88 214.76 56.88 211.64C56.88 208.52 59.328 206.072 62.448 206.072C64.912 206.072 66.896 207.464 67.552 209.624L66.336 209.976C65.792 208.248 64.304 207.256 62.448 207.256C60.048 207.256 58.16 209.16 58.16 211.64C58.16 214.104 60.048 216.024 62.448 216.024ZM74.0375 208.92C75.9415 208.92 77.2055 210.28 77.2055 212.28V217H75.9895V212.504C75.9895 211.032 75.1095 210.04 73.7975 210.04C72.1495 210.04 71.0615 211.16 71.0615 213.208V217H69.8455V204.68H71.0615V210.424C71.7015 209.464 72.7095 208.92 74.0375 208.92ZM83.3175 208.936C85.6375 208.936 87.4935 210.632 87.4935 213.048C87.4935 215.464 85.6375 217.192 83.3175 217.192C80.9655 217.192 79.1255 215.464 79.1255 213.048C79.1255 210.632 80.9655 208.936 83.3175 208.936ZM83.3175 216.12C84.9335 216.12 86.2935 214.872 86.2935 213.048C86.2935 211.24 84.9335 210.008 83.3175 210.008C81.6855 210.008 80.3095 211.24 80.3095 213.048C80.3095 214.872 81.6855 216.12 83.3175 216.12ZM93.0519 208.936C95.3719 208.936 97.2279 210.632 97.2279 213.048C97.2279 215.464 95.3719 217.192 93.0519 217.192C90.6999 217.192 88.8599 215.464 88.8599 213.048C88.8599 210.632 90.6999 208.936 93.0519 208.936ZM93.0519 216.12C94.6679 216.12 96.0279 214.872 96.0279 213.048C96.0279 211.24 94.6679 210.008 93.0519 210.008C91.4199 210.008 90.0439 211.24 90.0439 213.048C90.0439 214.872 91.4199 216.12 93.0519 216.12ZM98.6423 214.872L99.8583 214.6C99.9703 215.64 100.93 216.2 102.178 216.2C103.314 216.2 104.066 215.672 104.066 214.856C104.066 214.2 103.57 213.896 102.77 213.72L100.962 213.32C99.6503 213.048 98.9143 212.392 98.9143 211.304C98.9143 209.88 100.098 208.92 101.906 208.92C103.682 208.92 104.834 209.832 105.122 211.112L103.954 211.368C103.794 210.504 103.042 209.912 101.874 209.912C100.754 209.912 100.13 210.456 100.13 211.208C100.13 211.832 100.562 212.12 101.33 212.296L103.234 212.712C104.386 212.968 105.266 213.576 105.266 214.776C105.266 216.328 103.97 217.208 102.082 217.208C100.274 217.208 98.8343 216.408 98.6423 214.872ZM114.64 212.856V213.304H107.872C107.984 215.08 109.328 216.136 110.688 216.136C111.808 216.136 112.816 215.704 113.376 214.44L114.464 214.696C113.84 216.344 112.464 217.208 110.688 217.208C108.592 217.208 106.688 215.592 106.688 213.08C106.688 210.552 108.592 208.92 110.768 208.92C112.896 208.92 114.56 210.504 114.64 212.856ZM110.768 209.992C109.488 209.992 108.16 210.84 107.92 212.392H113.408C113.184 210.84 112.08 209.992 110.768 209.992ZM123.791 208.92C125.759 208.92 127.055 209.976 127.055 211.88V217H125.871V215.8C125.263 216.616 124.271 217.208 122.911 217.208C121.183 217.208 120.047 216.216 120.047 214.792C120.047 213.352 121.151 212.328 123.215 212.328H125.871V211.96C125.871 210.728 125.071 209.992 123.855 209.992C122.655 209.992 121.823 210.584 121.647 211.576L120.479 211.32C120.735 209.896 122.063 208.92 123.791 208.92ZM123.087 216.2C124.623 216.2 125.871 215.128 125.871 213.704V213.288H123.199C121.903 213.288 121.215 213.912 121.215 214.776C121.215 215.608 121.951 216.2 123.087 216.2ZM133.678 208.92C135.582 208.92 136.846 210.28 136.846 212.28V217H135.63V212.504C135.63 211.032 134.75 210.04 133.438 210.04C131.79 210.04 130.702 211.16 130.702 213.208V217H129.486V209.112H130.702V210.424C131.342 209.464 132.35 208.92 133.678 208.92ZM155.054 206.28V217H153.838V208.968L149.614 217H148.958L144.718 208.968V217H143.502V206.28H144.606L149.278 215.112L153.95 206.28H155.054ZM165.285 215.848V217H157.877V206.28H159.141V215.848H165.285ZM170.742 206.072C172.886 206.072 174.39 207.256 174.758 209.016L173.494 209.304C173.254 208.008 172.182 207.176 170.71 207.176C169.27 207.176 168.278 207.96 168.278 209.112C168.278 210.072 168.886 210.504 169.894 210.712L172.23 211.24C173.718 211.56 174.934 212.312 174.934 214.024C174.934 215.976 173.35 217.208 170.95 217.208C168.678 217.208 166.854 216.04 166.598 214.008L167.926 213.736C168.166 215.24 169.398 216.088 171.062 216.088C172.694 216.088 173.67 215.272 173.67 214.088C173.67 213.08 173.126 212.68 171.926 212.408L169.51 211.88C168.134 211.576 166.934 210.856 166.934 209.144C166.934 207.304 168.454 206.072 170.742 206.072Z" fill="#1A1816"/>
<path d="M180.24 208.296L182.16 209.4L181.744 210.104L179.856 209.016V211.128H178.976V209.016L177.088 210.104L176.672 209.4L178.592 208.296L176.672 207.192L177.088 206.488L178.976 207.576V205.48H179.856V207.576L181.744 206.488L182.16 207.192L180.24 208.296Z" fill="#726A60"/>
<path fill-rule="evenodd" clip-rule="evenodd" d="M671.707 208.293C671.317 207.902 670.683 207.902 670.293 208.293L665 213.586L659.707 208.293C659.317 207.902 658.683 207.902 658.293 208.293C657.902 208.683 657.902 209.317 658.293 209.707L664.293 215.707C664.683 216.098 665.317 216.098 665.707 215.707L671.707 209.707C672.098 209.317 672.098 208.683 671.707 208.293Z" fill="#1A1816"/>
<path d="M47.4704 251.031L47.0329 246.364C47.0145 246.169 47.1684 246 47.3647 246H48.6327C48.829 246 48.9829 246.169 48.9645 246.364L48.527 251.031C48.511 251.202 48.3672 251.333 48.1952 251.333H47.8022C47.6302 251.333 47.4864 251.202 47.4704 251.031Z" fill="#D92228"/>
<path d="M48.9987 253C48.9987 253.552 48.551 254 47.9987 254C47.4464 254 46.9987 253.552 46.9987 253C46.9987 252.447 47.4464 252 47.9987 252C48.551 252 48.9987 252.447 48.9987 253Z" fill="#D92228"/>
<path fill-rule="evenodd" clip-rule="evenodd" d="M47.9987 243.333C44.3168 243.333 41.332 246.318 41.332 250C41.332 253.682 44.3168 256.666 47.9987 256.666C51.6806 256.666 54.6654 253.682 54.6654 250C54.6654 246.318 51.6806 243.333 47.9987 243.333ZM42.6654 250C42.6654 247.054 45.0532 244.666 47.9987 244.666C50.9442 244.666 53.332 247.054 53.332 250C53.332 252.945 50.9442 255.333 47.9987 255.333C45.0532 255.333 42.6654 252.945 42.6654 250Z" fill="#D92228"/>
<path d="M64.382 245.424C66.286 245.424 67.658 246.46 67.994 248.07L66.496 248.378C66.328 247.384 65.474 246.726 64.354 246.726C63.248 246.726 62.52 247.328 62.52 248.154C62.52 248.812 62.898 249.162 63.71 249.33L65.74 249.764C67.14 250.072 68.148 250.856 68.148 252.326C68.148 254.09 66.706 255.196 64.55 255.196C62.562 255.196 60.91 254.23 60.672 252.41L62.268 252.074C62.492 253.278 63.43 253.866 64.69 253.866C65.95 253.866 66.664 253.264 66.664 252.41C66.664 251.696 66.286 251.36 65.348 251.164L63.304 250.744C62.142 250.478 60.938 249.862 60.938 248.196C60.938 246.544 62.296 245.424 64.382 245.424ZM76.447 251.374V251.878H70.819C70.959 253.166 71.897 253.936 72.919 253.936C73.689 253.936 74.473 253.712 74.963 252.732L76.265 253.012C75.691 254.468 74.459 255.196 72.919 255.196C71.029 255.196 69.377 253.74 69.377 251.542C69.377 249.33 71.015 247.86 72.975 247.86C74.837 247.86 76.377 249.288 76.447 251.374ZM72.975 249.148C72.065 249.148 71.085 249.722 70.861 250.842H74.949C74.725 249.708 73.927 249.148 72.975 249.148ZM79.5151 255H78.0591V244.22H79.5151V255ZM88.1912 251.374V251.878H82.5632C82.7032 253.166 83.6412 253.936 84.6632 253.936C85.4332 253.936 86.2172 253.712 86.7072 252.732L88.0092 253.012C87.4352 254.468 86.2032 255.196 84.6632 255.196C82.7732 255.196 81.1212 253.74 81.1212 251.542C81.1212 249.33 82.7592 247.86 84.7192 247.86C86.5812 247.86 88.1212 249.288 88.1912 251.374ZM84.7192 249.148C83.8092 249.148 82.8292 249.722 82.6052 250.842H86.6932C86.4692 249.708 85.6712 249.148 84.7192 249.148ZM92.8693 253.852C93.7933 253.852 94.5633 253.376 94.9133 252.396L96.2573 252.746C95.8653 254.23 94.4793 255.196 92.8693 255.196C90.8813 255.196 89.2013 253.726 89.2013 251.528C89.2013 249.358 90.8813 247.86 92.8693 247.86C94.4373 247.86 95.8093 248.812 96.2573 250.296L94.8573 250.702C94.5773 249.68 93.7933 249.204 92.8693 249.204C91.5813 249.204 90.6293 250.156 90.6293 251.528C90.6293 252.942 91.5813 253.852 92.8693 253.852ZM102.055 253.446L102.503 254.664C101.845 255.056 101.369 255.196 100.781 255.196C99.2833 255.196 98.2753 254.356 98.2753 252.634V249.26H96.7773V248.056H98.2753V245.62H99.7313V248.056H102.111V249.26H99.7313V252.536C99.7313 253.404 100.193 253.824 100.879 253.824C101.243 253.824 101.691 253.684 102.055 253.446ZM109.925 247.86C111.703 247.86 112.879 248.798 112.879 250.478V255H111.493V254.202C110.975 254.776 110.205 255.196 109.127 255.196C107.573 255.196 106.537 254.3 106.537 252.998C106.537 251.696 107.531 250.8 109.323 250.8H111.493V250.59C111.493 249.694 110.891 249.134 110.009 249.134C109.071 249.134 108.469 249.554 108.315 250.338L106.929 250.044C107.167 248.742 108.371 247.86 109.925 247.86ZM109.351 254.02C110.513 254.02 111.493 253.208 111.493 252.144V251.92H109.295C108.441 251.92 107.937 252.354 107.937 252.97C107.937 253.6 108.497 254.02 109.351 254.02ZM118.646 247.86C120.312 247.86 121.432 249.064 121.432 250.8V255H119.962V251.094C119.962 249.96 119.304 249.204 118.31 249.204C117.064 249.204 116.238 250.044 116.238 251.794V255H114.782V248.056H116.238V248.91C116.798 248.238 117.61 247.86 118.646 247.86ZM130.058 247.902C132.102 247.902 133.768 249.372 133.768 251.528C133.768 253.684 132.102 255.168 130.058 255.168C128 255.168 126.32 253.684 126.32 251.528C126.32 249.372 128 247.902 130.058 247.902ZM130.058 253.908C131.248 253.908 132.354 252.97 132.354 251.528C132.354 250.086 131.248 249.148 130.058 249.148C128.84 249.148 127.748 250.086 127.748 251.528C127.748 252.97 128.84 253.908 130.058 253.908ZM139.375 247.86C141.195 247.86 142.819 249.344 142.819 251.528C142.819 253.726 141.195 255.196 139.375 255.196C138.297 255.196 137.443 254.818 136.855 254.146V258.36H135.399V248.056H136.855V248.91C137.443 248.252 138.297 247.86 139.375 247.86ZM139.137 253.908C140.411 253.908 141.405 252.998 141.405 251.528C141.405 250.072 140.411 249.148 139.137 249.148C137.989 249.148 136.855 250.072 136.855 251.528C136.855 252.998 137.989 253.908 139.137 253.908ZM148.594 253.446L149.042 254.664C148.384 255.056 147.908 255.196 147.32 255.196C145.822 255.196 144.814 254.356 144.814 252.634V249.26H143.316V248.056H144.814V245.62H146.27V248.056H148.65V249.26H146.27V252.536C146.27 253.404 146.732 253.824 147.418 253.824C147.782 253.824 148.23 253.684 148.594 253.446ZM151.059 245.06C151.591 245.06 151.983 245.48 151.983 245.97C151.983 246.488 151.591 246.866 151.059 246.866C150.513 246.866 150.121 246.488 150.121 245.97C150.121 245.48 150.513 245.06 151.059 245.06ZM151.787 255H150.331V248.056H151.787V255ZM157.238 247.902C159.282 247.902 160.948 249.372 160.948 251.528C160.948 253.684 159.282 255.168 157.238 255.168C155.18 255.168 153.5 253.684 153.5 251.528C153.5 249.372 155.18 247.902 157.238 247.902ZM157.238 253.908C158.428 253.908 159.534 252.97 159.534 251.528C159.534 250.086 158.428 249.148 157.238 249.148C156.02 249.148 154.928 250.086 154.928 251.528C154.928 252.97 156.02 253.908 157.238 253.908ZM166.443 247.86C168.109 247.86 169.229 249.064 169.229 250.8V255H167.759V251.094C167.759 249.96 167.101 249.204 166.107 249.204C164.861 249.204 164.035 250.044 164.035 251.794V255H162.579V248.056H164.035V248.91C164.595 248.238 165.407 247.86 166.443 247.86ZM178.891 253.446L179.339 254.664C178.681 255.056 178.205 255.196 177.617 255.196C176.119 255.196 175.111 254.356 175.111 252.634V249.26H173.613V248.056H175.111V245.62H176.567V248.056H178.947V249.26H176.567V252.536C176.567 253.404 177.029 253.824 177.715 253.824C178.079 253.824 178.527 253.684 178.891 253.446ZM183.474 247.902C185.518 247.902 187.184 249.372 187.184 251.528C187.184 253.684 185.518 255.168 183.474 255.168C181.416 255.168 179.736 253.684 179.736 251.528C179.736 249.372 181.416 247.902 183.474 247.902ZM183.474 253.908C184.664 253.908 185.77 252.97 185.77 251.528C185.77 250.086 184.664 249.148 183.474 249.148C182.256 249.148 181.164 250.086 181.164 251.528C181.164 252.97 182.256 253.908 183.474 253.908ZM195.34 253.852C196.264 253.852 197.034 253.376 197.384 252.396L198.728 252.746C198.336 254.23 196.95 255.196 195.34 255.196C193.352 255.196 191.672 253.726 191.672 251.528C191.672 249.358 193.352 247.86 195.34 247.86C196.908 247.86 198.28 248.812 198.728 250.296L197.328 250.702C197.048 249.68 196.264 249.204 195.34 249.204C194.052 249.204 193.1 250.156 193.1 251.528C193.1 252.942 194.052 253.852 195.34 253.852ZM203.49 247.902C205.534 247.902 207.2 249.372 207.2 251.528C207.2 253.684 205.534 255.168 203.49 255.168C201.432 255.168 199.752 253.684 199.752 251.528C199.752 249.372 201.432 247.902 203.49 247.902ZM203.49 253.908C204.68 253.908 205.786 252.97 205.786 251.528C205.786 250.086 204.68 249.148 203.49 249.148C202.272 249.148 201.18 250.086 201.18 251.528C201.18 252.97 202.272 253.908 203.49 253.908ZM212.695 247.86C214.361 247.86 215.481 249.064 215.481 250.8V255H214.011V251.094C214.011 249.96 213.353 249.204 212.359 249.204C211.113 249.204 210.287 250.044 210.287 251.794V255H208.831V248.056H210.287V248.91C210.847 248.238 211.659 247.86 212.695 247.86ZM221.684 253.446L222.132 254.664C221.474 255.056 220.998 255.196 220.41 255.196C218.912 255.196 217.904 254.356 217.904 252.634V249.26H216.406V248.056H217.904V245.62H219.36V248.056H221.74V249.26H219.36V252.536C219.36 253.404 219.822 253.824 220.508 253.824C220.872 253.824 221.32 253.684 221.684 253.446ZM224.149 245.06C224.681 245.06 225.073 245.48 225.073 245.97C225.073 246.488 224.681 246.866 224.149 246.866C223.603 246.866 223.211 246.488 223.211 245.97C223.211 245.48 223.603 245.06 224.149 245.06ZM224.877 255H223.421V248.056H224.877V255ZM231.056 247.86C232.722 247.86 233.842 249.064 233.842 250.8V255H232.372V251.094C232.372 249.96 231.714 249.204 230.72 249.204C229.474 249.204 228.648 250.044 228.648 251.794V255H227.192V248.056H228.648V248.91C229.208 248.238 230.02 247.86 231.056 247.86ZM242.314 248.056V255H240.858V254.146C240.298 254.818 239.486 255.196 238.464 255.196C236.784 255.196 235.678 253.992 235.678 252.242V248.056H237.134V251.948C237.134 253.082 237.792 253.852 238.8 253.852C240.046 253.852 240.858 253.012 240.858 251.262V248.056H242.314ZM250.996 251.374V251.878H245.368C245.508 253.166 246.446 253.936 247.468 253.936C248.238 253.936 249.022 253.712 249.512 252.732L250.814 253.012C250.24 254.468 249.008 255.196 247.468 255.196C245.578 255.196 243.926 253.74 243.926 251.542C243.926 249.33 245.564 247.86 247.524 247.86C249.386 247.86 250.926 249.288 250.996 251.374ZM247.524 249.148C246.614 249.148 245.634 249.722 245.41 250.842H249.498C249.274 249.708 248.476 249.148 247.524 249.148ZM252.878 253.278C253.41 253.278 253.788 253.684 253.788 254.16C253.788 254.664 253.41 255.056 252.878 255.056C252.346 255.056 251.954 254.664 251.954 254.16C251.954 253.684 252.346 253.278 252.878 253.278Z" fill="#D92228"/>
<defs>
<clipPath id="clip0_227_14856">
<rect width="597" height="40" fill="white" transform="translate(56 120)"/>
</clipPath>
</defs>
</svg>
