<svg width="80" height="80" viewBox="0 0 80 80" fill="none" xmlns="http://www.w3.org/2000/svg">
<g clip-path="url(#clip0_71_12477)">
<path d="M0 10C0 4.47715 4.47715 0 10 0H70C75.5229 0 80 4.47715 80 10V70C80 75.5229 75.5229 80 70 80H10C4.47715 80 0 75.5229 0 70V10Z" fill="white"/>
<path d="M-4.40613 -23.821H84.4751V104.509H-4.40613V-23.821Z" fill="white"/>
<line x1="27.2445" y1="-27.6077" x2="27.2445" y2="103.911" stroke="black" stroke-opacity="0.2" stroke-width="0.375"/>
<line x1="52.9244" y1="-27.6184" x2="52.9244" y2="103.9" stroke="black" stroke-opacity="0.2" stroke-width="0.375"/>
<path d="M115.409 40.3443L-16.1098 40.3443" stroke="black" stroke-opacity="0.2" stroke-width="0.375"/>
<line x1="115.409" y1="65.936" x2="-16.1098" y2="65.936" stroke="black" stroke-opacity="0.2" stroke-width="0.375"/>
<line x1="115.409" y1="14.7832" x2="-16.1098" y2="14.7832" stroke="black" stroke-opacity="0.2" stroke-width="0.375"/>
<circle cx="40.546" cy="41.2128" r="26.2128" fill="#D92228"/>
<path d="M50.9611 15.553L12.4729 38.2241L66.2509 52.4595L50.9611 15.553Z" fill="#D4D2D1"/>
<path d="M54.3332 16.0467C54.3332 17.7294 52.9692 19.0935 51.2865 19.0935C49.6038 19.0935 48.2397 17.7294 48.2397 16.0467C48.2397 14.3641 49.6038 13 51.2865 13C52.9692 13 54.3332 14.3641 54.3332 16.0467Z" fill="#010101"/>
<circle cx="66.38" cy="52.0467" r="3.04675" fill="#010101"/>
<ellipse cx="14.38" cy="38.1594" rx="3.04675" ry="3.01534" fill="#010101"/>
</g>
<path d="M10 0.625H70C75.1777 0.625 79.375 4.82233 79.375 10V70C79.375 75.1777 75.1777 79.375 70 79.375H10C4.82233 79.375 0.625 75.1777 0.625 70V10C0.625 4.82233 4.82233 0.625 10 0.625Z" stroke="#D3CFCA" stroke-width="1.25"/>
<defs>
<clipPath id="clip0_71_12477">
<path d="M0 10C0 4.47715 4.47715 0 10 0H70C75.5229 0 80 4.47715 80 10V70C80 75.5229 75.5229 80 70 80H10C4.47715 80 0 75.5229 0 70V10Z" fill="white"/>
</clipPath>
</defs>
</svg>
