<svg width="597" height="637" viewBox="0 0 597 637" fill="none" xmlns="http://www.w3.org/2000/svg">
<line x1="474.027" y1="1.81287" x2="474.027" y2="601" stroke="white" stroke-opacity="0.5" stroke-width="0.450256"/>
<line x1="323.724" y1="1.81287" x2="323.724" y2="601" stroke="white" stroke-opacity="0.5" stroke-width="0.450256"/>
<line x1="180.225" y1="1.81287" x2="180.225" y2="601" stroke="white" stroke-opacity="0.5" stroke-width="0.450256"/>
<path d="M562 386L38 386" stroke="white" stroke-opacity="0.5" stroke-width="0.450256"/>
<line x1="565" y1="202.225" x2="77" y2="202.225" stroke="white" stroke-opacity="0.5" stroke-width="0.450256"/>
<line x1="565" y1="285.225" x2="43" y2="285.225" stroke="white" stroke-opacity="0.5" stroke-width="0.450256"/>
<circle cx="314.386" cy="353.708" r="188.806" stroke="white" stroke-width="7.96899"/>
<circle cx="314.299" cy="353.795" r="278.314" stroke="white" stroke-width="7.96899"/>
<rect x="295.755" y="38.5528" width="84.4746" height="84.4746" rx="42.2373" fill="white"/>
<path d="M335.866 62.6683C326.352 62.6683 318.613 70.4704 318.613 80.0582C318.613 81.6193 319.871 82.8873 321.417 82.8873C322.965 82.8873 324.224 81.6193 324.224 80.0582C324.224 73.5925 329.446 68.3272 335.866 68.3272C342.285 68.3272 347.504 73.5917 347.504 80.0582C347.504 81.4225 347.275 82.7547 346.888 83.8773C346.152 85.1892 344.499 87.9836 343.505 89.2034C343.31 89.4408 343.115 89.6672 342.919 89.8885C341.528 91.4919 339.79 93.488 339.912 97.7818C339.99 100.461 340.036 103.062 339.861 103.948L339.809 104.248C339.681 104.988 339.523 105.906 336.086 106.026C335.336 106.054 334.641 106.373 334.13 106.925C333.618 107.472 333.351 108.193 333.378 108.95C333.432 110.481 334.663 111.679 336.18 111.679H336.264H336.28C341.592 111.495 344.638 109.316 345.367 105.053C345.615 103.801 345.653 102.056 345.527 97.6129C345.468 95.5407 345.991 94.9384 347.142 93.6156C347.372 93.352 347.607 93.0859 347.838 92.8004C349.482 90.7907 351.834 86.5585 351.854 86.5222C351.922 86.3972 351.985 86.2646 352.042 86.121C352.758 84.1831 353.12 82.1414 353.12 80.0557C353.118 70.4704 345.379 62.6683 335.866 62.6683Z" fill="black"/>
<path d="M339.824 80.5238C339.824 81.8222 340.875 82.8874 342.168 82.8874C343.46 82.8874 344.513 81.8222 344.513 80.5238C344.513 75.7181 340.632 71.8069 335.865 71.8069C331.094 71.8069 327.215 75.7181 327.215 80.5238C327.215 81.8222 328.266 82.8874 329.558 82.8874C330.851 82.8874 331.903 81.8222 331.903 80.5238C331.903 78.3241 333.679 76.5358 335.864 76.5358C338.047 76.5358 339.824 78.3241 339.824 80.5238Z" fill="#D92228"/>
<path d="M323.844 89.1044L312.256 100.781C311.763 101.276 311.494 101.93 311.494 102.633C311.494 103.332 311.763 103.988 312.257 104.486C312.747 104.979 313.401 105.254 314.096 105.254C314.789 105.254 315.441 104.979 315.933 104.484L327.521 92.8061C328.013 92.3111 328.282 91.6547 328.282 90.9544C328.282 90.2507 328.013 89.5994 327.522 89.1061C326.536 88.1076 324.823 88.1093 323.844 89.1044Z" fill="black"/>
<path d="M345.688 57.387C345.674 57.387 345.661 57.3904 345.648 57.3912V57.387H344.555V57.4115C344.022 57.474 343.606 57.9057 343.592 58.4522H343.587V60.396H343.614C343.675 60.891 344.058 61.2729 344.554 61.3311V61.3556H345.647V61.3379C345.66 61.3379 345.674 61.3421 345.687 61.3421C349.721 61.3421 353 64.6045 353.041 68.6213H353.032V69.7153H353.057C353.12 70.2491 353.554 70.6673 354.1 70.6783V70.6825H356.042V70.6563C356.538 70.5955 356.919 70.2128 356.978 69.7153H357.004V68.6213H356.999C356.959 62.4226 351.901 57.387 345.688 57.387Z" fill="black"/>
<path d="M364.487 68.6228C364.446 58.2916 356.03 49.8998 345.688 49.8998C345.674 49.8998 345.661 49.9032 345.648 49.9041V49.8998H344.555V49.9243C344.021 49.9869 343.602 50.4202 343.592 50.9693H343.587V52.9105H343.613C343.674 53.4055 344.057 53.7874 344.554 53.8457V53.8701H345.647V53.8533C345.66 53.8533 345.674 53.8575 345.687 53.8575C353.849 53.8575 360.487 60.4735 360.528 68.622H360.519V69.7159H360.545C360.608 70.2489 361.04 70.6654 361.586 70.6781V70.6831H363.53V70.657C364.024 70.5944 364.405 70.2126 364.464 69.7167H364.489V68.6228H364.487Z" fill="black"/>
<rect x="90.1301" y="267.045" width="84.4746" height="84.4746" rx="42.2373" fill="white"/>
<path d="M126.676 308.857C125.246 305.196 128.857 301.584 132.518 303.014L162.506 314.733H162.507C166.21 316.181 166.329 321.304 162.856 322.983L162.508 323.134L151.214 327.553L146.795 338.847C145.346 342.552 140.224 342.664 138.546 339.193L138.395 338.845L126.676 308.857ZM142.596 333.623L146.264 324.251L146.323 324.111C146.634 323.422 147.204 322.88 147.912 322.603L157.286 318.934L133.174 309.512L142.596 333.623ZM114.337 316.878C115.473 315.743 117.313 315.743 118.448 316.878C119.583 318.013 119.583 319.854 118.448 320.989L113.638 325.799C112.503 326.933 110.663 326.933 109.528 325.799C108.393 324.663 108.393 322.822 109.528 321.687L114.337 316.878ZM109.98 303.201C111.585 303.201 112.886 304.502 112.886 306.107C112.886 307.712 111.585 309.014 109.98 309.014H103.567C101.961 309.014 100.66 307.713 100.66 306.107C100.66 304.502 101.962 303.201 103.567 303.201H109.98ZM109.528 286.417C110.663 285.281 112.503 285.281 113.638 286.417L118.448 291.226C119.583 292.361 119.583 294.201 118.448 295.337C117.313 296.472 115.473 296.472 114.337 295.337L109.528 290.527C108.393 289.392 108.393 287.552 109.528 286.417ZM144.798 286.417C145.934 285.281 147.774 285.281 148.91 286.417C150.044 287.552 150.044 289.392 148.91 290.527L144.1 295.337C142.965 296.472 141.124 296.472 139.989 295.337C138.854 294.201 138.854 292.361 139.989 291.226L144.798 286.417ZM126.312 286.869V280.456C126.312 278.85 127.613 277.549 129.218 277.549C130.824 277.549 132.125 278.85 132.125 280.456V286.869C132.125 288.474 130.824 289.775 129.218 289.775C127.613 289.775 126.312 288.474 126.312 286.869Z" fill="black"/>
<rect x="234.175" y="495.834" width="84.4746" height="84.4746" rx="42.2373" fill="white"/>
<path d="M272.151 540.276C271.795 540.068 271.401 539.933 270.993 539.88C270.584 539.826 270.169 539.855 269.772 539.965C269.375 540.074 269.004 540.262 268.68 540.517C268.357 540.773 268.088 541.09 267.889 541.451C267.531 542.272 267.007 543.009 266.349 543.616C265.691 544.223 264.915 544.687 264.068 544.978C262.875 545.415 261.587 545.527 260.336 545.305C259.084 545.083 257.914 544.533 256.944 543.712C255.974 542.891 255.238 541.828 254.812 540.631C254.386 539.434 254.284 538.145 254.517 536.896C254.785 535.445 255.501 534.116 256.564 533.094C257.628 532.071 258.985 531.408 260.444 531.197C261.904 530.986 263.393 531.239 264.702 531.918C266.011 532.598 267.075 533.67 267.742 534.985C268.061 535.649 268.607 536.176 269.28 536.473C269.954 536.769 270.711 536.815 271.416 536.602C271.823 536.476 272.197 536.263 272.514 535.978C272.83 535.694 273.081 535.343 273.248 534.952C273.416 534.561 273.497 534.138 273.485 533.712C273.473 533.287 273.369 532.869 273.179 532.487C272.035 530.296 270.306 528.465 268.183 527.197L279.057 521.907C279.713 521.54 280.228 520.966 280.521 520.274C280.814 519.582 280.867 518.812 280.674 518.086C280.514 517.706 280.28 517.362 279.985 517.074C279.69 516.787 279.341 516.561 278.958 516.41C278.574 516.259 278.164 516.187 277.752 516.197C277.34 516.207 276.935 516.3 276.559 516.47L264.509 522.348L274.208 510.739C274.696 510.2 274.977 509.507 275.004 508.782C275.031 508.056 274.801 507.344 274.355 506.771C274.079 506.433 273.732 506.161 273.338 505.973C272.944 505.786 272.513 505.689 272.077 505.689C271.641 505.689 271.21 505.786 270.817 505.973C270.423 506.161 270.075 506.433 269.8 506.771L258.484 520.29L260.101 513.972C260.275 513.287 260.21 512.564 259.916 511.922C259.622 511.281 259.117 510.759 258.484 510.445C258.081 510.285 257.648 510.212 257.214 510.23C256.78 510.249 256.355 510.359 255.967 510.553C255.579 510.747 255.236 511.021 254.96 511.357C254.685 511.693 254.484 512.083 254.37 512.502L248.933 535.132C248.715 536.001 248.567 536.885 248.492 537.778V538.365C248.53 541.808 249.925 545.097 252.374 547.518C254.822 549.939 258.127 551.297 261.57 551.297C263.951 551.32 266.291 550.671 268.318 549.423C270.346 548.175 271.98 546.379 273.032 544.243C273.425 543.596 273.552 542.822 273.388 542.083C273.224 541.343 272.781 540.696 272.151 540.276Z" fill="black"/>
<path d="M291.255 525.287C288.881 525.297 286.555 525.961 284.534 527.205C282.512 528.449 280.871 530.226 279.792 532.341C279.4 532.988 279.273 533.762 279.437 534.501C279.601 535.241 280.044 535.888 280.674 536.308C281.021 536.522 281.407 536.666 281.809 536.73C282.212 536.794 282.623 536.778 283.019 536.682C283.416 536.587 283.789 536.413 284.118 536.173C284.447 535.932 284.725 535.628 284.936 535.28C285.292 534.441 285.814 533.684 286.471 533.053C287.128 532.421 287.905 531.929 288.756 531.606C289.963 531.158 291.268 531.042 292.536 531.27C293.803 531.498 294.986 532.061 295.961 532.902C296.936 533.742 297.669 534.828 298.081 536.048C298.494 537.267 298.573 538.575 298.308 539.835C297.995 541.23 297.265 542.498 296.215 543.469C295.166 544.44 293.846 545.069 292.43 545.272C290.971 545.578 289.451 545.382 288.117 544.715C286.783 544.048 285.714 542.95 285.083 541.598C284.742 540.954 284.194 540.444 283.527 540.151C282.86 539.858 282.114 539.798 281.409 539.982C281.002 540.108 280.628 540.321 280.311 540.605C279.995 540.89 279.744 541.241 279.577 541.632C279.409 542.023 279.328 542.446 279.34 542.872C279.352 543.297 279.456 543.715 279.645 544.097C280.787 546.329 282.514 548.208 284.642 549.534L273.767 554.824C273.149 555.081 272.637 555.542 272.317 556.13C271.996 556.718 271.886 557.398 272.004 558.057C272.166 558.718 272.542 559.307 273.074 559.732C273.605 560.158 274.262 560.395 274.943 560.408L276.266 560.114L288.022 554.383L278.617 565.404C278.342 565.711 278.131 566.069 277.997 566.458C277.862 566.848 277.807 567.26 277.835 567.671C277.862 568.081 277.971 568.483 278.156 568.851C278.341 569.219 278.598 569.546 278.911 569.813C279.414 570.205 280.036 570.412 280.674 570.401C281.099 570.431 281.524 570.353 281.91 570.173C282.296 569.993 282.629 569.717 282.878 569.372L294.341 556L292.724 562.612C292.562 563.352 292.665 564.124 293.014 564.795C293.363 565.467 293.936 565.994 294.634 566.286H295.663C296.292 566.308 296.91 566.117 297.417 565.744C297.924 565.37 298.29 564.836 298.455 564.229L303.892 541.451C304.11 540.583 304.258 539.699 304.333 538.806V538.366C304.333 534.897 302.955 531.57 300.503 529.118C298.05 526.665 294.723 525.287 291.255 525.287Z" fill="black"/>
<g clip-path="url(#clip0_52_12223)">
<rect x="103.884" y="84.7642" width="84.4746" height="84.4746" rx="42.2373" fill="white"/>
<path d="M180.426 128.717C177.829 125.188 175.468 121.492 173.357 117.653C171.052 101.21 161.678 92.9121 145.389 93.2194C136.169 93.3731 128.486 96.4465 123.414 102.132C118.343 107.818 116.038 115.194 116.653 123.646C117.268 132.098 119.112 135.171 123.107 140.243C127.102 145.314 127.563 146.236 125.873 152.536C125.758 152.92 125.723 153.323 125.77 153.72C125.817 154.118 125.945 154.502 126.147 154.848C126.349 155.194 126.62 155.494 126.943 155.731C127.266 155.968 127.634 156.136 128.024 156.224C128.418 156.341 128.831 156.377 129.239 156.332C129.647 156.286 130.041 156.16 130.399 155.959C130.757 155.758 131.072 155.488 131.324 155.164C131.576 154.84 131.76 154.469 131.866 154.073C134.018 145.467 132.788 142.855 127.871 136.554C124.684 132.819 122.891 128.094 122.8 123.185C122.402 120.169 122.648 117.103 123.522 114.189C124.396 111.276 125.878 108.58 127.871 106.281C131.866 101.979 138.013 99.5199 145.543 99.3662C153.073 99.2126 164.905 101.21 167.364 118.575C167.518 120.419 170.284 124.722 173.05 129.025L169.669 130.1C169.076 130.322 168.566 130.721 168.208 131.244C167.85 131.767 167.663 132.387 167.671 133.02V137.476C167.671 141.779 167.825 145.16 166.749 146.236C165.674 147.311 163.983 147.465 160.603 147.465C159.81 147.444 159.021 147.584 158.284 147.878C157.548 148.172 156.878 148.612 156.318 149.173C155.757 149.734 155.316 150.403 155.023 151.14C154.729 151.877 154.588 152.665 154.609 153.458V157.761C154.609 158.576 154.933 159.358 155.51 159.934C156.086 160.511 156.868 160.834 157.683 160.834C158.498 160.834 159.28 160.511 159.856 159.934C160.432 159.358 160.756 158.576 160.756 157.761V153.612C164.444 153.612 168.593 153.151 171.206 150.538C173.818 147.926 173.972 143.623 173.818 137.323V135.171L178.889 133.481C179.352 133.321 179.772 133.058 180.118 132.712C180.465 132.366 180.727 131.946 180.887 131.483C181.035 131.019 181.071 130.526 180.99 130.045C180.91 129.564 180.717 129.109 180.426 128.717Z" fill="black"/>
<path d="M149.845 113.504L149.231 111.967L151.075 109.047C150.312 107.978 149.378 107.044 148.309 106.281L145.389 108.125L143.852 107.511L143.084 104.13H139.088L138.32 107.511L136.783 108.125L133.864 106.281C132.794 107.044 131.86 107.978 131.097 109.047L132.942 111.967L132.327 113.504L128.946 114.272C128.819 114.93 128.767 115.6 128.792 116.27C128.767 116.94 128.819 117.61 128.946 118.268L132.327 119.036L132.942 120.573L131.097 123.492C131.86 124.562 132.794 125.496 133.864 126.259L136.783 124.414L138.32 125.029L139.088 128.41H143.084L143.852 125.029L145.389 124.414L148.309 126.259C149.378 125.496 150.312 124.562 151.075 123.492L149.231 120.573L149.845 119.036L153.226 118.268C153.353 117.61 153.405 116.94 153.38 116.27C153.405 115.6 153.353 114.93 153.226 114.272L149.845 113.504ZM141.086 119.343C140.478 119.343 139.884 119.163 139.379 118.825C138.873 118.488 138.479 118.008 138.247 117.446C138.014 116.885 137.953 116.267 138.072 115.67C138.19 115.074 138.483 114.527 138.913 114.097C139.343 113.667 139.89 113.374 140.486 113.256C141.083 113.137 141.701 113.198 142.262 113.43C142.824 113.663 143.304 114.057 143.641 114.562C143.979 115.068 144.159 115.662 144.159 116.27C144.159 117.085 143.836 117.867 143.259 118.443C142.683 119.02 141.901 119.343 141.086 119.343Z" fill="#D92228"/>
</g>
<rect x="31.9998" y="453.765" width="84.4746" height="84.4746" rx="42.2373" fill="white"/>
<path d="M47.0656 509.562H56.9312L72.4483 522.495C72.9358 522.9 73.5499 523.122 74.1839 523.121C74.5815 523.122 74.9743 523.034 75.3337 522.864C75.8003 522.645 76.195 522.298 76.4717 521.864C76.7483 521.429 76.8954 520.925 76.8957 520.41V471.597C76.8961 471.081 76.7494 470.576 76.473 470.141C76.1967 469.706 75.802 469.358 75.3352 469.14C74.8685 468.921 74.349 468.839 73.8377 468.905C73.3264 468.971 72.8444 469.181 72.4483 469.511L56.9312 482.444H47.0656C46.3464 482.444 45.6566 482.73 45.148 483.238C44.6395 483.747 44.3538 484.437 44.3538 485.156V506.85C44.3538 507.57 44.6395 508.259 45.148 508.768C45.6566 509.277 46.3464 509.562 47.0656 509.562ZM49.7774 487.868H57.9129C58.5469 487.868 59.161 487.646 59.6485 487.241L71.4721 477.386V514.62L59.6485 504.765C59.161 504.36 58.5469 504.138 57.9129 504.139H49.7774V487.868ZM104.014 496.003C104.008 501.036 102.006 505.861 98.4478 509.42C94.889 512.978 90.064 514.98 85.0312 514.986C84.312 514.986 83.6222 514.7 83.1137 514.192C82.6051 513.683 82.3194 512.993 82.3194 512.274C82.3194 511.555 82.6051 510.865 83.1137 510.356C83.6222 509.848 84.312 509.562 85.0312 509.562C88.6273 509.562 92.0762 508.134 94.619 505.591C97.1618 503.048 98.5904 499.599 98.5904 496.003C98.5904 492.407 97.1618 488.958 94.619 486.415C92.0762 483.872 88.6273 482.444 85.0312 482.444C84.312 482.444 83.6222 482.158 83.1137 481.65C82.6051 481.141 82.3194 480.451 82.3194 479.732C82.3194 479.013 82.6051 478.323 83.1137 477.815C83.6222 477.306 84.312 477.02 85.0312 477.02C90.064 477.026 94.889 479.028 98.4478 482.587C102.006 486.145 104.008 490.97 104.014 496.003ZM90.4549 496.003C90.4549 494.565 89.8835 493.185 88.8663 492.168C87.8492 491.151 86.4697 490.579 85.0312 490.579C84.312 490.579 83.6222 490.294 83.1137 489.785C82.6051 489.277 82.3194 488.587 82.3194 487.868C82.3194 487.148 82.6051 486.459 83.1137 485.95C83.6222 485.441 84.312 485.156 85.0312 485.156C87.9081 485.156 90.6672 486.299 92.7014 488.333C94.7357 490.367 95.8786 493.126 95.8786 496.003C95.8786 498.88 94.7357 501.639 92.7014 503.673C90.6672 505.708 87.9081 506.85 85.0312 506.85C84.312 506.85 83.6222 506.565 83.1137 506.056C82.6051 505.548 82.3194 504.858 82.3194 504.139C82.3194 503.419 82.6051 502.73 83.1137 502.221C83.6222 501.712 84.312 501.427 85.0312 501.427C86.4697 501.427 87.8492 500.855 88.8663 499.838C89.8835 498.821 90.4549 497.442 90.4549 496.003Z" fill="black"/>
<path d="M84.9864 501.036C83.3459 501.036 82 502.374 82 504.018C82 505.661 83.3459 507 84.9864 507C91.0583 507 96 502.064 96 496.002C96 489.934 91.0583 485 84.9864 485C83.3459 485 82 486.337 82 487.979C82 489.624 83.3459 490.962 84.9864 490.962C87.7656 490.962 90.0252 493.221 90.0252 496.001C90.0252 498.777 87.7656 501.036 84.9864 501.036Z" fill="#D92228"/>
<rect x="370.649" y="160.917" width="84.4746" height="84.4746" rx="42.2373" fill="white"/>
<path d="M443.813 200.396C440.764 196.621 429.439 184.279 412.888 184.279C408.664 184.266 404.476 185.055 400.546 186.602L392.125 178.327C391.566 177.907 390.874 177.704 390.177 177.753C389.48 177.803 388.824 178.102 388.33 178.596C387.835 179.091 387.536 179.747 387.487 180.444C387.437 181.141 387.641 181.833 388.06 182.392L433.65 227.982C433.9 228.315 434.218 228.59 434.583 228.789C434.948 228.988 435.352 229.107 435.767 229.136C436.182 229.166 436.599 229.106 436.988 228.96C437.378 228.815 437.732 228.587 438.026 228.293C438.32 227.999 438.548 227.645 438.693 227.255C438.839 226.865 438.899 226.449 438.869 226.034C438.84 225.619 438.722 225.215 438.523 224.85C438.323 224.484 438.048 224.166 437.715 223.917L430.891 216.947C435.838 214.092 440.219 210.352 443.813 205.913C444.45 205.135 444.798 204.16 444.798 203.154C444.798 202.149 444.45 201.174 443.813 200.396ZM426.536 212.737L420.728 206.929C421.308 205.756 421.606 204.463 421.599 203.154C421.599 200.844 420.681 198.628 419.048 196.994C417.414 195.361 415.198 194.443 412.888 194.443C411.579 194.436 410.286 194.734 409.113 195.314L405.047 191.249C407.592 190.488 410.232 190.097 412.888 190.087C425.664 190.087 435.102 199.089 438.586 203.154C435.177 207.045 431.095 210.291 426.536 212.737Z" fill="black"/>
<path d="M393.141 193.862C392.582 193.443 391.891 193.239 391.193 193.289C390.496 193.338 389.84 193.637 389.346 194.132C388.852 194.626 388.552 195.282 388.503 195.979C388.453 196.676 388.657 197.368 389.076 197.927L410.855 219.706C411.414 220.125 412.106 220.329 412.803 220.279C413.5 220.23 414.156 219.93 414.65 219.436C415.145 218.942 415.444 218.286 415.494 217.589C415.543 216.892 415.339 216.2 414.92 215.641L393.141 193.862Z" fill="black"/>
<path d="M385.882 201.121C385.624 200.84 385.31 200.615 384.96 200.461C384.61 200.307 384.232 200.228 383.85 200.228C383.467 200.228 383.089 200.307 382.739 200.461C382.389 200.615 382.075 200.84 381.817 201.121C381.535 201.38 381.31 201.694 381.157 202.044C381.003 202.394 380.923 202.772 380.923 203.154C380.923 203.536 381.003 203.914 381.157 204.264C381.31 204.614 381.535 204.928 381.817 205.187L391.98 215.35C392.54 215.77 393.231 215.973 393.928 215.924C394.626 215.874 395.282 215.575 395.776 215.08C396.27 214.586 396.57 213.93 396.619 213.233C396.669 212.536 396.465 211.844 396.046 211.285L385.882 201.121Z" fill="black"/>
<rect x="426.081" y="412.738" width="84.4746" height="84.4746" rx="42.2373" fill="white"/>
<path d="M488.968 452.871C488.968 440.305 478.781 430.118 466.215 430.118C453.649 430.118 443.462 440.305 443.462 452.871C443.462 465.437 453.649 475.624 466.215 475.624C472.498 475.624 478.183 473.079 482.303 468.959C486.424 464.839 488.968 459.154 488.968 452.871ZM494.204 452.871C494.204 459.656 491.786 465.879 487.77 470.723L504.31 487.263C505.333 488.286 505.333 489.944 504.31 490.967C503.288 491.989 501.63 491.989 500.607 490.967L484.067 474.427C479.223 478.442 473 480.86 466.215 480.86C450.756 480.86 438.225 468.329 438.225 452.871C438.225 437.413 450.756 424.882 466.215 424.882C481.673 424.882 494.204 437.413 494.204 452.871Z" fill="black"/>
<path d="M466.995 440.001C468.376 440.001 469.495 441.12 469.495 442.501V450.495H477.5C478.881 450.495 480 451.615 480 452.995C480 454.376 478.881 455.495 477.5 455.495H469.495V463.501C469.495 464.882 468.376 466.001 466.995 466.001C465.615 466.001 464.495 464.882 464.495 463.501V455.495H456.5C455.119 455.495 454 454.376 454 452.995C454 451.615 455.119 450.495 456.5 450.495H464.495V442.501C464.495 441.12 465.614 440.001 466.995 440.001Z" fill="#D92228"/>
<path d="M313.186 228.823C342.02 228.815 369.965 238.805 392.259 257.092C414.552 275.379 429.815 300.83 435.446 329.109C441.077 357.388 436.728 386.744 423.14 412.176C409.552 437.608 387.566 457.541 360.928 468.578C334.29 479.616 304.649 481.076 277.056 472.708C249.463 464.34 225.625 446.663 209.604 422.69C193.584 398.716 186.372 369.928 189.198 341.233C192.024 312.538 204.712 285.71 225.102 265.322C236.653 253.732 250.382 244.541 265.499 238.277C280.616 232.013 296.823 228.8 313.186 228.823ZM312.395 379.24L294.247 429.385C293.801 430.642 293.108 431.797 292.21 432.782C291.312 433.767 290.226 434.564 289.016 435.124C287.198 435.976 285.168 436.269 283.184 435.967C281.199 435.664 279.349 434.779 277.868 433.424C276.387 432.069 275.341 430.305 274.864 428.355C274.387 426.405 274.499 424.357 275.187 422.471L287.84 387.432C288.844 384.795 289.637 382.083 290.212 379.321C290.723 376.516 291.089 373.687 291.307 370.845C291.794 365.715 292.138 360.159 292.402 354.826C292.666 349.493 292.848 344.322 292.99 340.044C293.172 334.711 291.733 334.366 287.454 333.352L286.562 333.15L250.063 326.276C248.75 326.044 247.496 325.556 246.372 324.839C245.249 324.122 244.277 323.191 243.514 322.098C242.379 320.443 241.762 318.489 241.739 316.482C241.716 314.476 242.289 312.508 243.386 310.827C244.482 309.147 246.053 307.829 247.898 307.042C249.744 306.254 251.782 306.032 253.754 306.404L292.97 313.764C294.531 313.906 296.052 314.089 297.654 314.271C302.48 314.933 307.342 315.292 312.213 315.346C318.276 315.228 324.328 314.774 330.341 313.988C332.166 313.785 333.889 313.562 335.613 313.399L372.619 306.465C375.244 305.92 377.978 306.438 380.223 307.904C381.335 308.657 382.287 309.623 383.023 310.747C383.759 311.871 384.264 313.13 384.509 314.45C384.754 315.771 384.735 317.127 384.451 318.44C384.168 319.753 383.627 320.996 382.859 322.098C382.106 323.198 381.143 324.138 380.026 324.865C378.909 325.593 377.66 326.092 376.35 326.336L340.986 332.987C339.81 333.251 338.756 333.433 337.823 333.575C334.133 334.204 332.308 334.528 332.531 339.78C332.693 343.613 333.159 348.195 333.768 352.981C334.477 358.597 335.41 364.559 336.383 370.014C337.012 373.603 337.6 376.482 338.411 379.24C339.222 381.997 340.013 384.816 341.23 388.202L353.619 422.471C354.307 424.357 354.419 426.405 353.942 428.355C353.464 430.305 352.419 432.069 350.938 433.424C349.457 434.779 347.607 435.664 345.622 435.967C343.637 436.269 341.608 435.976 339.79 435.124C338.58 434.564 337.494 433.767 336.595 432.782C335.697 431.797 335.004 430.642 334.558 429.385L316.349 379.341L314.322 375.63L312.294 379.24H312.395ZM313.186 270.716C317.329 270.712 321.344 272.145 324.549 274.771C327.753 277.396 329.948 281.051 330.759 285.114C331.571 289.176 330.948 293.394 328.998 297.049C327.048 300.704 323.891 303.57 320.065 305.158C316.239 306.746 311.981 306.958 308.016 305.758C304.051 304.558 300.624 302.021 298.321 298.578C296.017 295.135 294.978 291 295.382 286.877C295.785 282.754 297.606 278.899 300.533 275.968C302.192 274.301 304.163 272.979 306.335 272.078C308.506 271.176 310.835 270.713 313.186 270.716Z" fill="white"/>
<path d="M313.255 379.127L295.107 429.273C294.66 430.529 293.968 431.684 293.07 432.67C292.171 433.655 291.085 434.451 289.875 435.011C288.057 435.863 286.028 436.157 284.043 435.854C282.058 435.552 280.208 434.667 278.727 433.312C277.246 431.956 276.201 430.192 275.723 428.242C275.246 426.292 275.358 424.244 276.046 422.358L288.699 387.319C289.703 384.683 290.496 381.97 291.071 379.208C291.583 376.404 291.948 373.575 292.166 370.732C292.653 365.602 292.998 360.046 293.261 354.713C293.525 349.38 293.707 344.21 293.849 339.931C294.032 334.598 292.592 334.254 288.314 333.24L287.422 333.037L250.922 326.163C249.61 325.932 248.356 325.443 247.232 324.727C246.108 324.01 245.136 323.079 244.373 321.986C243.239 320.331 242.621 318.376 242.598 316.37C242.576 314.363 243.149 312.395 244.245 310.715C245.342 309.034 246.912 307.717 248.758 306.929C250.603 306.142 252.641 305.92 254.613 306.291L293.829 313.652C295.39 313.794 296.911 313.976 298.513 314.159C303.339 314.82 308.202 315.179 313.072 315.234C319.135 315.115 325.187 314.662 331.2 313.875C333.025 313.672 334.749 313.449 336.472 313.287L373.478 306.352C376.103 305.808 378.837 306.325 381.082 307.792C382.195 308.545 383.146 309.511 383.882 310.635C384.618 311.758 385.123 313.017 385.368 314.338C385.614 315.658 385.594 317.014 385.311 318.327C385.028 319.64 384.486 320.884 383.718 321.986C382.965 323.085 382.002 324.026 380.886 324.753C379.769 325.48 378.519 325.98 377.209 326.224L341.846 332.875C340.67 333.138 339.615 333.321 338.682 333.463C334.992 334.091 333.167 334.416 333.39 339.668C333.552 343.5 334.019 348.083 334.627 352.868C335.337 358.485 336.269 364.446 337.243 369.901C337.871 373.49 338.459 376.37 339.27 379.127C340.081 381.885 340.872 384.703 342.089 388.09L354.478 422.358C355.166 424.244 355.278 426.292 354.801 428.242C354.324 430.192 353.278 431.956 351.797 433.312C350.316 434.667 348.466 435.552 346.481 435.854C344.497 436.157 342.467 435.863 340.649 435.011C339.439 434.451 338.353 433.655 337.455 432.67C336.556 431.684 335.864 430.529 335.418 429.273L317.209 379.229L315.181 375.518L313.153 379.127H313.255ZM314.046 270.603C318.188 270.6 322.204 272.033 325.408 274.658C328.612 277.284 330.807 280.939 331.619 285.001C332.43 289.064 331.808 293.282 329.858 296.937C327.908 300.591 324.751 303.457 320.925 305.045C317.099 306.633 312.84 306.845 308.875 305.646C304.91 304.446 301.484 301.908 299.18 298.465C296.876 295.023 295.838 290.887 296.241 286.764C296.644 282.642 298.465 278.786 301.393 275.855C303.051 274.189 305.023 272.866 307.194 271.965C309.366 271.064 311.694 270.601 314.046 270.603Z" fill="#D92228"/>
<defs>
<clipPath id="clip0_52_12223">
<rect x="103.884" y="84.7642" width="84.4746" height="84.4746" rx="42.2373" fill="white"/>
</clipPath>
</defs>
</svg>
