<svg width="52" height="120" viewBox="0 0 52 120" fill="none" xmlns="http://www.w3.org/2000/svg">
<path d="M26.6396 24.7749C33.481 24.7749 39.0271 19.2288 39.0271 12.3874C39.0271 5.54606 33.481 0 26.6396 0C19.7982 0 14.2522 5.54606 14.2522 12.3874C14.2522 19.2288 19.7982 24.7749 26.6396 24.7749Z" fill="#BA1D22"/>
<path d="M27.2218 66.3173V114.125C27.2218 115.744 27.876 117.214 28.938 118.276C30 119.338 31.4869 120.005 33.1181 119.996C36.3764 119.983 38.9592 117.214 38.9592 113.955V42.6597C38.9592 42.3199 39.2354 42.048 39.571 42.048C39.9108 42.048 40.1827 42.3241 40.1827 42.6597V50.5867C40.1827 52.2137 40.8454 53.692 41.9117 54.7583C42.9779 55.8246 44.4733 56.4915 46.113 56.483C49.3841 56.466 51.9754 53.6835 51.9754 50.4125V39.8645C51.9754 36.4023 50.5438 27.5663 35.9898 27.1797H14.2651C1.27867 27.5663 0 36.4023 0 39.8645V70.3191C0 71.9503 0.658454 73.4244 1.72897 74.4907C2.79524 75.5612 4.26933 76.2196 5.9006 76.2196C9.15464 76.2196 11.7969 73.5773 11.7969 70.3191V42.9656C11.7969 42.4558 12.209 42.048 12.7145 42.048C13.2243 42.048 13.6321 42.4601 13.6321 42.9656V114.13C13.6321 115.748 14.2906 117.218 15.3526 118.28C16.4146 119.342 17.8887 120.005 19.5157 120C22.74 119.992 25.3738 117.18 25.3738 113.955V66.2154L27.2133 66.3216L27.2218 66.3173Z" fill="#BA1D22"/>
<path d="M51.9794 51.0117C51.9794 55.0687 48.6914 58.3609 44.6302 58.3609H23.0329C19.7746 58.3609 17.1323 55.7186 17.1323 52.4646C17.1323 50.8333 17.7908 49.3592 18.8613 48.2929C19.9276 47.2224 21.4017 46.564 23.0329 46.564H51.9794V51.0117Z" fill="#1A1816"/>
<path d="M37.0773 27.1758L30.3525 58.361H45.0254L37.0773 27.1758Z" fill="#EFEFEF"/>
</svg>
