<svg width="80" height="80" viewBox="0 0 80 80" fill="none" xmlns="http://www.w3.org/2000/svg">
<g clip-path="url(#clip0_71_12432)">
<path d="M0 10C0 4.47715 4.47715 0 10 0H70C75.5229 0 80 4.47715 80 10V70C80 75.5229 75.5229 80 70 80H10C4.47715 80 0 75.5229 0 70V10Z" fill="white"/>
<path d="M-4.40601 -23.821H84.4752V104.509H-4.40601V-23.821Z" fill="white"/>
<line x1="27.2444" y1="-27.6077" x2="27.2444" y2="103.911" stroke="black" stroke-opacity="0.2" stroke-width="0.375"/>
<line x1="52.9243" y1="-27.6184" x2="52.9243" y2="103.9" stroke="black" stroke-opacity="0.2" stroke-width="0.375"/>
<path d="M115.409 40.3443L-16.11 40.3443" stroke="black" stroke-opacity="0.2" stroke-width="0.375"/>
<line x1="115.409" y1="65.936" x2="-16.11" y2="65.936" stroke="black" stroke-opacity="0.2" stroke-width="0.375"/>
<line x1="115.409" y1="14.7832" x2="-16.11" y2="14.7832" stroke="black" stroke-opacity="0.2" stroke-width="0.375"/>
<path d="M60.1555 58.9333C49.3626 69.6836 31.8421 69.6143 20.9959 58.7681C10.1496 47.9219 10.0804 30.4014 20.8307 19.6085L60.1555 58.9333Z" fill="#1A1816"/>
<ellipse cx="40.3882" cy="39.376" rx="13.4945" ry="27.8248" transform="rotate(-43.7068 40.3882 39.376)" fill="#D4D2D1"/>
<ellipse cx="49.8524" cy="30.4383" rx="13.4945" ry="27.8248" transform="rotate(-43.7068 49.8524 30.4383)" fill="#D92228"/>
</g>
<path d="M10 0.625H70C75.1777 0.625 79.375 4.82233 79.375 10V70C79.375 75.1777 75.1777 79.375 70 79.375H10C4.82233 79.375 0.625 75.1777 0.625 70V10C0.625 4.82233 4.82233 0.625 10 0.625Z" stroke="#D3CFCA" stroke-width="1.25"/>
<defs>
<clipPath id="clip0_71_12432">
<path d="M0 10C0 4.47715 4.47715 0 10 0H70C75.5229 0 80 4.47715 80 10V70C80 75.5229 75.5229 80 70 80H10C4.47715 80 0 75.5229 0 70V10Z" fill="white"/>
</clipPath>
</defs>
</svg>
