<svg width="80" height="80" viewBox="0 0 80 80" fill="none" xmlns="http://www.w3.org/2000/svg">
<g clip-path="url(#clip0_71_12408)">
<path d="M0 10C0 4.47715 4.47715 0 10 0H70C75.5229 0 80 4.47715 80 10V70C80 75.5229 75.5229 80 70 80H10C4.47715 80 0 75.5229 0 70V10Z" fill="white"/>
<path d="M-4.40613 -23.821H84.4751V104.509H-4.40613V-23.821Z" fill="white"/>
<line x1="27.2446" y1="-27.6077" x2="27.2446" y2="103.911" stroke="black" stroke-opacity="0.2" stroke-width="0.375"/>
<line x1="52.9246" y1="-27.6184" x2="52.9246" y2="103.9" stroke="black" stroke-opacity="0.2" stroke-width="0.375"/>
<path d="M115.409 40.3443L-16.1097 40.3443" stroke="black" stroke-opacity="0.2" stroke-width="0.375"/>
<line x1="115.409" y1="65.936" x2="-16.1097" y2="65.936" stroke="black" stroke-opacity="0.2" stroke-width="0.375"/>
<line x1="115.409" y1="14.7832" x2="-16.1097" y2="14.7832" stroke="black" stroke-opacity="0.2" stroke-width="0.375"/>
<path d="M39.9401 48.7648L33.6562 66.1382C33.5017 66.5735 33.2619 66.9736 32.9509 67.315C32.6398 67.6564 32.2638 67.9322 31.8448 68.1263C31.2154 68.4216 30.5126 68.5232 29.8254 68.4184C29.1382 68.3136 28.4976 68.007 27.9848 67.5374C27.4719 67.0679 27.1099 66.4566 26.9446 65.7811C26.7794 65.1055 26.8182 64.396 27.0564 63.7426L31.4375 51.603C31.7852 50.6895 32.0599 49.7499 32.259 48.7929C32.4361 47.8213 32.5626 46.8411 32.6382 45.8563C32.8067 44.079 32.926 42.154 33.0173 40.3064C33.1086 38.4588 33.1718 36.6673 33.2209 35.185C33.2841 33.3374 32.7856 33.218 31.3041 32.8667L30.9952 32.7964L18.3572 30.4149C17.9027 30.3347 17.4685 30.1656 17.0793 29.9172C16.6902 29.6689 16.3538 29.3462 16.0894 28.9677C15.6967 28.3942 15.4828 27.7171 15.475 27.0219C15.4671 26.3268 15.6655 25.6449 16.0452 25.0627C16.4248 24.4805 16.9686 24.024 17.6077 23.7512C18.2467 23.4784 18.9523 23.4015 19.6351 23.5302L33.2139 26.0803C33.7545 26.1295 34.2811 26.1927 34.8358 26.256C36.5067 26.4851 38.1904 26.6094 39.8769 26.6283C41.9763 26.5873 44.0717 26.4301 46.1538 26.1576C46.7857 26.0874 47.3824 26.0101 47.9792 25.9539L60.7927 23.5513C61.7018 23.3626 62.6485 23.542 63.4257 24.05C63.8109 24.3108 64.1404 24.6456 64.3952 25.0349C64.65 25.4242 64.8249 25.8603 64.9099 26.3179C64.9948 26.7754 64.988 27.2453 64.8899 27.7002C64.7918 28.1551 64.6043 28.5859 64.3384 28.9677C64.0776 29.3486 63.7443 29.6744 63.3576 29.9263C62.9709 30.1783 62.5383 30.3515 62.0846 30.436L49.8398 32.7402C49.4326 32.8316 49.0675 32.8948 48.7445 32.944C47.4667 33.1618 46.8348 33.2742 46.912 35.0937C46.9682 36.4215 47.1297 38.0092 47.3403 39.6671C47.5861 41.6131 47.909 43.6785 48.246 45.5683C48.4637 46.8118 48.6673 47.8094 48.9482 48.7648C49.229 49.7202 49.5028 50.6967 49.9241 51.8699L54.214 63.7426C54.4521 64.396 54.491 65.1055 54.3257 65.7811C54.1605 66.4566 53.7985 67.0679 53.2856 67.5374C52.7728 68.007 52.1322 68.3136 51.445 68.4184C50.7578 68.5232 50.055 68.4216 49.4256 68.1263C49.0066 67.9322 48.6306 67.6564 48.3195 67.315C48.0084 66.9736 47.7686 66.5735 47.6141 66.1382L41.3092 48.7999L40.6071 47.5143L39.905 48.7648H39.9401ZM40.2139 11.1658C41.6483 11.1646 43.0387 11.661 44.1483 12.5706C45.2578 13.4802 46.0178 14.7466 46.2987 16.1541C46.5797 17.5615 46.3642 19.0228 45.689 20.2891C45.0138 21.5554 43.9206 22.5482 42.5958 23.0984C41.271 23.6486 39.7966 23.7221 38.4236 23.3065C37.0507 22.8908 35.8644 22.0116 35.0667 20.8188C34.269 19.626 33.9093 18.1933 34.049 16.7649C34.1887 15.3365 34.8191 14.0008 35.8328 12.9853C36.407 12.4079 37.0897 11.9498 37.8416 11.6375C38.5936 11.3253 39.3998 11.1649 40.2139 11.1658Z" fill="#1A1816"/>
<rect x="14.4813" y="10.4039" width="51.6351" height="59.202" stroke="black" stroke-opacity="0.3" stroke-width="2.49191"/>
<rect x="12" y="8" width="4.71005" height="4.71005" fill="#D92228"/>
<rect x="63.8878" y="8" width="4.71005" height="4.71005" fill="#D92228"/>
<rect x="63.8878" y="66.9141" width="4.71005" height="4.71005" fill="#D92228"/>
<rect x="12" y="66.9141" width="4.71005" height="4.71005" fill="#D92228"/>
</g>
<path d="M10 0.625H70C75.1777 0.625 79.375 4.82233 79.375 10V70C79.375 75.1777 75.1777 79.375 70 79.375H10C4.82233 79.375 0.625 75.1777 0.625 70V10C0.625 4.82233 4.82233 0.625 10 0.625Z" stroke="#D3CFCA" stroke-width="1.25"/>
<defs>
<clipPath id="clip0_71_12408">
<path d="M0 10C0 4.47715 4.47715 0 10 0H70C75.5229 0 80 4.47715 80 10V70C80 75.5229 75.5229 80 70 80H10C4.47715 80 0 75.5229 0 70V10Z" fill="white"/>
</clipPath>
</defs>
</svg>
