<svg width="53" height="120" viewBox="0 0 53 120" fill="none" xmlns="http://www.w3.org/2000/svg">
<path d="M26.1562 24.9374C33.0425 24.9374 38.6249 19.355 38.6249 12.4687C38.6249 5.58243 33.0425 0 26.1562 0C19.2699 0 13.6875 5.58243 13.6875 12.4687C13.6875 19.355 19.2699 24.9374 26.1562 24.9374Z" fill="#BA1D22"/>
<path d="M27.3961 65.969V114.091C27.3961 115.72 28.0546 117.199 29.1236 118.268C30.1925 119.337 31.6891 120.009 33.3311 120C36.6108 119.987 39.2105 117.199 39.2105 113.92V42.1519C39.2105 41.8098 39.4885 41.5362 39.8263 41.5362C40.1684 41.5362 40.442 41.8141 40.442 42.1519V43.982C40.442 45.6197 41.1091 47.1077 42.1823 48.181C43.2556 49.2543 44.7607 49.9256 46.4113 49.9171C49.7037 49.8999 52.3121 47.0992 52.3121 43.8067V39.3383C52.3121 35.8534 50.8711 26.9594 36.2216 26.5703H14.3544C1.28706 26.9594 0 35.8534 0 39.3383V69.9927C0 71.6346 0.662774 73.1184 1.74032 74.1917C2.81358 75.2692 4.29734 75.932 5.93931 75.932C9.21469 75.932 11.8743 73.2723 11.8743 69.9927V42.4598C11.8743 41.9467 12.2891 41.5362 12.7979 41.5362C13.3111 41.5362 13.7216 41.9509 13.7216 42.4598V114.091C13.7216 115.72 14.3843 117.199 15.4533 118.268C16.5223 119.337 18.0061 120.004 19.6438 120C22.8892 119.991 25.5403 117.161 25.5403 113.915V65.8621L27.3918 65.969H27.3961Z" fill="#BA1D22"/>
</svg>
