<svg width="160" height="228" viewBox="0 0 160 228" fill="none" xmlns="http://www.w3.org/2000/svg">
<g clip-path="url(#clip0_123_12280)">
<path d="M0 0H133V272H0V0Z" fill="#F8F7F7"/>
<line x1="196.792" y1="59.9158" x2="0.0214081" y2="59.9157" stroke="black" stroke-opacity="0.39" stroke-width="0.103004"/>
<line x1="196.792" y1="41.9485" x2="0.0214081" y2="41.9485" stroke="black" stroke-opacity="0.39" stroke-width="0.103004"/>
<line x1="107.127" y1="241.631" x2="107.127" y2="-10.3691" stroke="black" stroke-opacity="0.39" stroke-width="0.103004"/>
<line x1="120.127" y1="241.631" x2="120.127" y2="-10.3691" stroke="black" stroke-opacity="0.39" stroke-width="0.103004"/>
<rect x="3.71899" y="205.008" width="120" height="120" rx="60" transform="rotate(-90 3.71899 205.008)" fill="black"/>
<path d="M59.0226 179.451C59.0226 181.842 60.9607 183.78 63.3516 183.78C65.7424 183.78 67.6806 181.842 67.6806 179.451L63.3516 179.451L59.0226 179.451ZM66.4126 108.238C64.7221 106.548 61.9811 106.548 60.2905 108.238L32.7409 135.788C31.0503 137.479 31.0503 140.22 32.7409 141.91C34.4315 143.601 37.1724 143.601 38.863 141.91L63.3516 117.422L87.8401 141.91C89.5307 143.601 92.2717 143.601 93.9622 141.91C95.6528 140.22 95.6528 137.479 93.9622 135.788L66.4126 108.238ZM63.3516 179.451L67.6806 179.451L67.6806 111.299L63.3516 111.299L59.0226 111.299L59.0226 179.451L63.3516 179.451Z" fill="#D4D2D1"/>
<path d="M122.14 21.8506C122.075 55.8709 95.5909 83.4294 62.9292 83.4295C30.2673 83.4295 3.783 55.871 3.7187 21.8506L122.14 21.8506Z" fill="#D92228"/>
</g>
<defs>
<clipPath id="clip0_123_12280">
<rect width="160" height="228" fill="white"/>
</clipPath>
</defs>
</svg>
