<svg width="390" height="405" viewBox="0 0 390 405" fill="none" xmlns="http://www.w3.org/2000/svg">
<g clip-path="url(#clip0_289_15343)">
<path d="M0 16C0 7.16345 7.16344 0 16 0H374C382.837 0 390 7.16344 390 16V388.64C390 397.476 382.837 404.64 374 404.64H16C7.16344 404.64 0 397.476 0 388.64V16Z" fill="white"/>
<g clip-path="url(#clip1_289_15343)">
<rect width="390" height="92" fill="white" style="mix-blend-mode:hard-light"/>
<g clip-path="url(#clip2_289_15343)">
<path fill-rule="evenodd" clip-rule="evenodd" d="M31.7071 21.2929C32.0976 21.6834 32.0976 22.3166 31.7071 22.7071L26.4142 28L31.7071 33.2929C32.0976 33.6834 32.0976 34.3166 31.7071 34.7071C31.3166 35.0976 30.6834 35.0976 30.2929 34.7071L24.2929 28.7071C23.9024 28.3166 23.9024 27.6834 24.2929 27.2929L30.2929 21.2929C30.6834 20.9024 31.3166 20.9024 31.7071 21.2929Z" fill="#1A1816"/>
</g>
<g clip-path="url(#clip3_289_15343)">
<mask id="path-4-outside-1_289_15343" maskUnits="userSpaceOnUse" x="245" y="14" width="91" height="28" fill="black">
<rect fill="white" x="245" y="14" width="91" height="28"/>
<path d="M247 16H334V40H247V16Z"/>
</mask>
<path d="M252.008 22.056C254.184 22.056 255.752 23.24 256.136 25.08L254.424 25.432C254.232 24.296 253.256 23.544 251.976 23.544C250.712 23.544 249.88 24.232 249.88 25.176C249.88 25.928 250.312 26.328 251.24 26.52L253.56 27.016C255.16 27.368 256.312 28.264 256.312 29.944C256.312 31.96 254.664 33.224 252.2 33.224C249.928 33.224 248.04 32.12 247.768 30.04L249.592 29.656C249.848 31.032 250.92 31.704 252.36 31.704C253.8 31.704 254.616 31.016 254.616 30.04C254.616 29.224 254.184 28.84 253.112 28.616L250.776 28.136C249.448 27.832 248.072 27.128 248.072 25.224C248.072 23.336 249.624 22.056 252.008 22.056ZM261.479 24.84C263.511 24.84 264.855 25.912 264.855 27.832V33H263.271V32.088C262.679 32.744 261.799 33.224 260.567 33.224C258.791 33.224 257.607 32.2 257.607 30.712C257.607 29.224 258.743 28.2 260.791 28.2H263.271V27.96C263.271 26.936 262.583 26.296 261.575 26.296C260.503 26.296 259.815 26.776 259.639 27.672L258.055 27.336C258.327 25.848 259.703 24.84 261.479 24.84ZM260.823 31.88C262.151 31.88 263.271 30.952 263.271 29.736V29.48H260.759C259.783 29.48 259.207 29.976 259.207 30.68C259.207 31.4 259.847 31.88 260.823 31.88ZM274.316 25.048L270.892 33H269.116L265.708 25.048H267.516L270.012 31.016L272.508 25.048H274.316ZM282.953 28.856V29.432H276.521C276.681 30.904 277.753 31.784 278.921 31.784C279.801 31.784 280.697 31.528 281.257 30.408L282.745 30.728C282.089 32.392 280.681 33.224 278.921 33.224C276.761 33.224 274.873 31.56 274.873 29.048C274.873 26.52 276.745 24.84 278.985 24.84C281.113 24.84 282.873 26.472 282.953 28.856ZM278.985 26.312C277.945 26.312 276.825 26.968 276.569 28.248H281.241C280.985 26.952 280.073 26.312 278.985 26.312ZM297.436 33.384L295.82 31.992C294.94 32.808 293.756 33.224 292.508 33.224C290.044 33.224 288.396 31.912 288.396 29.928C288.396 28.68 289.18 27.704 290.332 27.128C289.756 26.424 289.5 25.752 289.5 24.936C289.5 23.224 290.892 22.056 292.748 22.056C294.636 22.056 295.804 23.224 296.028 25L294.46 25.288C294.348 23.96 293.692 23.464 292.748 23.464C291.804 23.464 291.1 24.008 291.1 24.968C291.1 25.832 291.612 26.456 292.972 27.592L295.5 29.768C295.66 29.336 295.756 28.824 295.756 28.248V27.48H297.244V28.248C297.244 29.24 297.036 30.088 296.7 30.792L298.412 32.264L297.436 33.384ZM292.508 31.816C293.276 31.816 294.06 31.544 294.668 31L291.66 28.408L291.324 28.12C290.524 28.52 290.028 29.176 290.028 29.928C290.028 31.064 291.02 31.816 292.508 31.816ZM311.982 31.448V33H303.998V22.28H311.966V23.832H305.71V26.856H311.486V28.392H305.71V31.448H311.982ZM318.81 29.112L321.658 33H319.658L317.578 30.136L315.498 33H313.514L316.362 29.112L313.514 25.048H315.498L317.578 28.056L319.658 25.048H321.658L318.81 29.112ZM324.474 21.64C325.082 21.64 325.53 22.12 325.53 22.68C325.53 23.272 325.082 23.704 324.474 23.704C323.85 23.704 323.402 23.272 323.402 22.68C323.402 22.12 323.85 21.64 324.474 21.64ZM325.306 33H323.642V25.064H325.306V33ZM332.72 31.224L333.232 32.616C332.48 33.064 331.936 33.224 331.264 33.224C329.552 33.224 328.4 32.264 328.4 30.296V26.44H326.688V25.064H328.4V22.28H330.064V25.064H332.784V26.44H330.064V30.184C330.064 31.176 330.592 31.656 331.376 31.656C331.792 31.656 332.304 31.496 332.72 31.224Z" fill="#1A1816"/>
<path d="M247 34.6H333.312V35.4H247V34.6Z" fill="#1A1816"/>
</g>
<path d="M247 16V14H245V16H247ZM334 16H336V14H334V16ZM334 40V42H336V40H334ZM247 40H245V42H247V40ZM247 16V18H334V16V14H247V16ZM334 16H332V40H334H336V16H334ZM334 40V38H247V40V42H334V40ZM247 40H249V16H247H245V40H247Z" fill="#3377CC" mask="url(#path-4-outside-1_289_15343)"/>
<g clip-path="url(#clip4_289_15343)">
<path d="M359 25C359 24.4477 359.448 24 360 24C360.552 24 361 24.4477 361 25C361 25.5523 360.552 26 360 26C359.448 26 359 25.5523 359 25Z" fill="#1A1816"/>
<path d="M361 33C361 32.4477 361.448 32 362 32C362.552 32 363 32.4477 363 33C363 33.5523 362.552 34 362 34C361.448 34 361 33.5523 361 33Z" fill="#1A1816"/>
<path d="M362 22C360.343 22 359 23.3431 359 25H361C361 24.4477 361.448 24 362 24H362.169C362.939 24 363.498 24.7304 363.298 25.4733L363.26 25.6146C363.179 25.9138 362.99 26.1724 362.73 26.3402L362.411 26.546C361.531 27.1124 361 28.0867 361 29.1326V30C361 30.5523 361.448 31 362 31C362.552 31 363 30.5523 363 30V29.1326C363 28.7665 363.186 28.4255 363.494 28.2273L363.813 28.0215C364.49 27.5852 364.981 26.9128 365.191 26.1349L365.229 25.9936C365.772 23.9798 364.255 22 362.169 22H362Z" fill="#1A1816"/>
<path fill-rule="evenodd" clip-rule="evenodd" d="M362 38C367.523 38 372 33.5228 372 28C372 22.4772 367.523 18 362 18C356.477 18 352 22.4772 352 28C352 33.5228 356.477 38 362 38ZM362 36C366.418 36 370 32.4183 370 28C370 23.5817 366.418 20 362 20C357.582 20 354 23.5817 354 28C354 32.4183 357.582 36 362 36Z" fill="#1A1816"/>
</g>
<path d="M21.056 62.04C23.232 62.04 24.88 63.224 25.296 65.128L23.12 65.576C22.96 64.568 22.08 63.912 21.008 63.912C19.92 63.912 19.264 64.52 19.264 65.24C19.264 65.784 19.504 66.168 20.336 66.328L22.64 66.792C24.384 67.16 25.456 68.2 25.456 69.864C25.456 71.944 23.744 73.24 21.2 73.24C18.96 73.24 16.992 72.2 16.72 70.056L19.008 69.592C19.296 70.808 20.192 71.336 21.408 71.336C22.656 71.336 23.312 70.744 23.312 69.976C23.312 69.368 23.024 69 22.064 68.808L19.792 68.376C18.512 68.104 16.976 67.4 16.976 65.304C16.976 63.384 18.544 62.04 21.056 62.04ZM32.4138 70.888L33.0218 72.648C32.1898 73.096 31.6138 73.24 30.9418 73.24C29.0538 73.24 27.8058 72.248 27.8058 70.056V66.744H26.0938V65.016H27.8058V62.28H29.9178V65.016H32.5258V66.744H29.9178V69.896C29.9178 70.856 30.3818 71.272 31.0858 71.272C31.4538 71.272 31.9978 71.112 32.4138 70.888ZM41.531 68.856V69.576H35.451C35.659 70.728 36.475 71.432 37.451 71.432C38.075 71.432 38.859 71.352 39.435 70.376L41.323 70.776C40.619 72.44 39.195 73.24 37.451 73.24C35.195 73.24 33.355 71.528 33.355 69.016C33.355 66.504 35.195 64.776 37.483 64.776C39.611 64.776 41.451 66.424 41.531 68.856ZM37.483 66.616C36.683 66.616 35.771 67.096 35.515 68.088H39.371C39.099 67.064 38.331 66.616 37.483 66.616ZM47.8876 64.776C49.9196 64.776 51.8076 66.504 51.8076 69.016C51.8076 71.528 49.9196 73.24 47.8876 73.24C46.7676 73.24 45.8876 72.904 45.2476 72.312V76.84H43.1356V65.016H45.2476V65.704C45.8876 65.112 46.7676 64.776 47.8876 64.776ZM47.5196 71.4C48.7996 71.4 49.7596 70.488 49.7596 69.016C49.7596 67.544 48.7996 66.616 47.5196 66.616C46.3836 66.616 45.2476 67.544 45.2476 69.016C45.2476 70.488 46.3836 71.4 47.5196 71.4ZM63.2279 67.608C64.0759 67.976 64.5879 68.776 64.5879 69.816C64.5879 71.88 63.0519 73.24 60.7959 73.24C58.5559 73.24 57.0039 71.88 56.8279 69.848L58.8599 69.448C59.0199 70.632 59.6439 71.352 60.7959 71.352C61.8359 71.352 62.6039 70.744 62.6039 69.832C62.6039 69.032 62.0439 68.536 60.9879 68.536H59.4359V66.648H60.8599C61.8679 66.648 62.4279 66.168 62.4279 65.384C62.4279 64.52 61.7879 63.944 60.7959 63.944C59.8039 63.944 59.0519 64.536 58.9559 65.88L56.9719 65.48C57.1479 63.448 58.6199 62.04 60.7959 62.04C62.9719 62.04 64.4279 63.4 64.4279 65.384C64.4279 66.424 63.9799 67.208 63.2279 67.608ZM74.0351 64.824C76.3711 64.824 78.3391 66.504 78.3391 69.016C78.3391 71.528 76.3711 73.208 74.0351 73.208C71.6511 73.208 69.6831 71.528 69.6831 69.016C69.6831 66.504 71.6511 64.824 74.0351 64.824ZM74.0351 71.4C75.1391 71.4 76.2911 70.504 76.2911 69.016C76.2911 67.528 75.1391 66.632 74.0351 66.632C72.8831 66.632 71.7311 67.528 71.7311 69.016C71.7311 70.504 72.8831 71.4 74.0351 71.4ZM82.3043 65.016H84.7203V66.744H82.3043V73H80.1923V66.744H78.9763V65.016H80.1923V63.544C80.1923 61.672 81.4723 60.52 83.3443 60.52C83.8563 60.52 84.3203 60.616 84.7683 60.824L84.2883 62.536C84.0003 62.44 83.7123 62.392 83.4883 62.392C82.8003 62.392 82.3043 62.792 82.3043 63.544V65.016ZM96.1811 62.28V63.832L92.5011 73H90.1171L93.8291 64.248H88.6931V62.28H96.1811ZM98.0915 65.24C98.8275 65.24 99.3555 65.816 99.3555 66.472C99.3555 67.16 98.8275 67.688 98.0915 67.688C97.3555 67.688 96.8275 67.16 96.8275 66.472C96.8275 65.816 97.3555 65.24 98.0915 65.24ZM98.0915 70.616C98.8275 70.616 99.3555 71.192 99.3555 71.848C99.3555 72.536 98.8275 73.064 98.0915 73.064C97.3555 73.064 96.8275 72.536 96.8275 71.848C96.8275 71.192 97.3555 70.616 98.0915 70.616Z" fill="#1A1816"/>
<path d="M118.768 62.28V73H117.68L110.672 64.488V73H109.408V62.28H110.496L117.504 70.888V62.28H118.768ZM125.036 64.936C127.356 64.936 129.212 66.632 129.212 69.048C129.212 71.464 127.356 73.192 125.036 73.192C122.684 73.192 120.844 71.464 120.844 69.048C120.844 66.632 122.684 64.936 125.036 64.936ZM125.036 72.12C126.652 72.12 128.012 70.872 128.012 69.048C128.012 67.24 126.652 66.008 125.036 66.008C123.404 66.008 122.028 67.24 122.028 69.048C122.028 70.872 123.404 72.12 125.036 72.12ZM135.635 71.576L136.035 72.584C135.395 73.032 134.851 73.208 134.211 73.208C132.643 73.208 131.603 72.28 131.603 70.536V66.136H129.891V65.112H131.603V62.28H132.835V65.112H135.651V66.136H132.835V70.456C132.835 71.48 133.411 72.056 134.291 72.056C134.739 72.056 135.235 71.864 135.635 71.576ZM138.332 61.912C138.812 61.912 139.18 62.296 139.18 62.728C139.18 63.192 138.812 63.544 138.332 63.544C137.852 63.544 137.5 63.192 137.5 62.728C137.5 62.296 137.852 61.912 138.332 61.912ZM138.956 73H137.724V65.112H138.956V73ZM146.26 66.136H143.396V73H142.18V66.136H140.804V65.112H142.18V63.256C142.18 61.576 143.236 60.52 144.884 60.52C145.348 60.52 145.78 60.616 146.164 60.792L145.86 61.8C145.572 61.672 145.252 61.608 144.964 61.608C144.004 61.608 143.396 62.248 143.396 63.256V65.112H146.26V66.136ZM148.332 61.912C148.812 61.912 149.18 62.296 149.18 62.728C149.18 63.192 148.812 63.544 148.332 63.544C147.852 63.544 147.5 63.192 147.5 62.728C147.5 62.296 147.852 61.912 148.332 61.912ZM148.956 73H147.724V65.112H148.956V73ZM155.284 72.072C156.452 72.072 157.476 71.448 157.892 70.296L159.012 70.6C158.548 72.168 157.028 73.208 155.284 73.208C153.06 73.208 151.172 71.576 151.172 69.064C151.172 66.584 153.06 64.92 155.284 64.92C157.012 64.92 158.516 65.928 159.028 67.544L157.86 67.896C157.476 66.68 156.452 66.04 155.284 66.04C153.668 66.04 152.356 67.256 152.356 69.064C152.356 70.904 153.668 72.072 155.284 72.072ZM164.088 64.92C166.056 64.92 167.352 65.976 167.352 67.88V73H166.168V71.8C165.56 72.616 164.568 73.208 163.208 73.208C161.48 73.208 160.344 72.216 160.344 70.792C160.344 69.352 161.448 68.328 163.512 68.328H166.168V67.96C166.168 66.728 165.368 65.992 164.152 65.992C162.952 65.992 162.12 66.584 161.944 67.576L160.776 67.32C161.032 65.896 162.36 64.92 164.088 64.92ZM163.384 72.2C164.92 72.2 166.168 71.128 166.168 69.704V69.288H163.496C162.2 69.288 161.512 69.912 161.512 70.776C161.512 71.608 162.248 72.2 163.384 72.2ZM174.119 71.576L174.519 72.584C173.879 73.032 173.335 73.208 172.695 73.208C171.127 73.208 170.087 72.28 170.087 70.536V66.136H168.375V65.112H170.087V62.28H171.319V65.112H174.135V66.136H171.319V70.456C171.319 71.48 171.895 72.056 172.775 72.056C173.223 72.056 173.719 71.864 174.119 71.576ZM176.816 61.912C177.296 61.912 177.664 62.296 177.664 62.728C177.664 63.192 177.296 63.544 176.816 63.544C176.336 63.544 175.984 63.192 175.984 62.728C175.984 62.296 176.336 61.912 176.816 61.912ZM177.44 73H176.208V65.112H177.44V73ZM183.849 64.936C186.169 64.936 188.025 66.632 188.025 69.048C188.025 71.464 186.169 73.192 183.849 73.192C181.497 73.192 179.657 71.464 179.657 69.048C179.657 66.632 181.497 64.936 183.849 64.936ZM183.849 72.12C185.465 72.12 186.825 70.872 186.825 69.048C186.825 67.24 185.465 66.008 183.849 66.008C182.217 66.008 180.841 67.24 180.841 69.048C180.841 70.872 182.217 72.12 183.849 72.12ZM194.303 64.92C196.207 64.92 197.471 66.28 197.471 68.28V73H196.255V68.504C196.255 67.032 195.375 66.04 194.063 66.04C192.415 66.04 191.327 67.16 191.327 69.208V73H190.111V65.112H191.327V66.424C191.967 65.464 192.975 64.92 194.303 64.92ZM213.695 64.92C215.359 64.92 216.639 66.104 216.639 67.896V73H215.423V68.104C215.423 66.856 214.575 66.04 213.391 66.04C211.935 66.04 210.975 67.112 210.975 68.968V73H209.759V68.104C209.759 66.856 208.911 66.04 207.743 66.04C206.287 66.04 205.343 67.112 205.343 68.968V73H204.127V65.112H205.343V66.312C205.903 65.448 206.799 64.92 208.031 64.92C209.247 64.92 210.255 65.512 210.719 66.52C211.327 65.544 212.351 64.92 213.695 64.92ZM226.499 68.856V69.304H219.731C219.843 71.08 221.187 72.136 222.547 72.136C223.667 72.136 224.675 71.704 225.235 70.44L226.323 70.696C225.699 72.344 224.323 73.208 222.547 73.208C220.451 73.208 218.547 71.592 218.547 69.08C218.547 66.552 220.451 64.92 222.627 64.92C224.755 64.92 226.419 66.504 226.499 68.856ZM222.627 65.992C221.347 65.992 220.019 66.84 219.779 68.392H225.267C225.043 66.84 223.939 65.992 222.627 65.992ZM232.932 71.576L233.332 72.584C232.692 73.032 232.148 73.208 231.508 73.208C229.94 73.208 228.9 72.28 228.9 70.536V66.136H227.188V65.112H228.9V62.28H230.132V65.112H232.948V66.136H230.132V70.456C230.132 71.48 230.708 72.056 231.588 72.056C232.036 72.056 232.532 71.864 232.932 71.576ZM239.084 64.92C240.988 64.92 242.252 66.28 242.252 68.28V73H241.036V68.504C241.036 67.032 240.156 66.04 238.844 66.04C237.196 66.04 236.108 67.16 236.108 69.208V73H234.892V60.68H236.108V66.424C236.748 65.464 237.756 64.92 239.084 64.92ZM248.364 64.936C250.684 64.936 252.54 66.632 252.54 69.048C252.54 71.464 250.684 73.192 248.364 73.192C246.012 73.192 244.172 71.464 244.172 69.048C244.172 66.632 246.012 64.936 248.364 64.936ZM248.364 72.12C249.98 72.12 251.34 70.872 251.34 69.048C251.34 67.24 249.98 66.008 248.364 66.008C246.732 66.008 245.356 67.24 245.356 69.048C245.356 70.872 246.732 72.12 248.364 72.12ZM262.195 60.68V73H260.979V71.688C260.291 72.648 259.187 73.208 257.843 73.208C255.747 73.208 253.907 71.56 253.907 69.064C253.907 66.568 255.747 64.92 257.843 64.92C259.187 64.92 260.291 65.48 260.979 66.44V60.68H262.195ZM258.035 72.12C259.523 72.12 260.979 70.936 260.979 69.064C260.979 67.176 259.523 65.992 258.035 65.992C256.403 65.992 255.091 67.176 255.091 69.064C255.091 70.936 256.403 72.12 258.035 72.12Z" fill="#1A1816"/>
<path d="M0 90C0 88.8954 0.895431 88 2 88H388C389.105 88 390 88.8954 390 90C390 91.1046 389.105 92 388 92H2C0.89543 92 0 91.1046 0 90Z" fill="#F2F0EF"/>
<path d="M0 90C0 88.8954 0.895431 88 2 88H154C155.105 88 156 88.8954 156 90C156 91.1046 155.105 92 154 92H2C0.895426 92 0 91.1046 0 90Z" fill="#1A1816"/>
</g>
<path d="M31.888 116.24V132.32H28.624V125.72H20.944V132.32H17.68V116.24H20.944V122.768H28.624V116.24H31.888ZM40.5861 120.056C44.0901 120.056 47.0421 122.576 47.0421 126.344C47.0421 130.112 44.0901 132.632 40.5861 132.632C37.0101 132.632 34.0581 130.112 34.0581 126.344C34.0581 122.576 37.0101 120.056 40.5861 120.056ZM40.5861 129.92C42.2421 129.92 43.9701 128.576 43.9701 126.344C43.9701 124.112 42.2421 122.768 40.5861 122.768C38.8581 122.768 37.1301 124.112 37.1301 126.344C37.1301 128.576 38.8581 129.92 40.5861 129.92ZM66.043 120.344L62.059 132.344H59.203L56.851 125.288L54.475 132.344H51.619L47.635 120.344H50.779L53.155 127.712L55.603 120.344H58.075L60.523 127.736L62.899 120.344H66.043ZM85.3696 113.84V132.32H82.2016V131.288C81.2416 132.176 79.9216 132.68 78.2416 132.68C75.1936 132.68 72.3616 130.112 72.3616 126.344C72.3616 122.576 75.1936 119.984 78.2416 119.984C79.9216 119.984 81.2416 120.488 82.2016 121.376V113.84H85.3696ZM78.7936 129.92C80.4976 129.92 82.2016 128.552 82.2016 126.344C82.2016 124.136 80.4976 122.744 78.7936 122.744C76.8736 122.744 75.4336 124.136 75.4336 126.344C75.4336 128.552 76.8736 129.92 78.7936 129.92ZM94.048 120.056C97.552 120.056 100.504 122.576 100.504 126.344C100.504 130.112 97.552 132.632 94.048 132.632C90.472 132.632 87.52 130.112 87.52 126.344C87.52 122.576 90.472 120.056 94.048 120.056ZM94.048 129.92C95.704 129.92 97.432 128.576 97.432 126.344C97.432 124.112 95.704 122.768 94.048 122.768C92.32 122.768 90.592 124.112 90.592 126.344C90.592 128.576 92.32 129.92 94.048 129.92ZM120.346 120.32L112.666 138.08H109.138L111.778 131.96L106.81 120.32H110.338L113.506 128L116.818 120.32H120.346ZM127.242 120.056C130.746 120.056 133.698 122.576 133.698 126.344C133.698 130.112 130.746 132.632 127.242 132.632C123.666 132.632 120.714 130.112 120.714 126.344C120.714 122.576 123.666 120.056 127.242 120.056ZM127.242 129.92C128.898 129.92 130.626 128.576 130.626 126.344C130.626 124.112 128.898 122.768 127.242 122.768C125.514 122.768 123.786 124.112 123.786 126.344C123.786 128.576 125.514 129.92 127.242 129.92ZM147.272 120.344V132.32H144.104V131.24C143.168 132.176 141.92 132.68 140.336 132.68C137.456 132.68 135.536 130.616 135.536 127.64V120.344H138.704V126.968C138.704 128.648 139.664 129.776 141.128 129.776C142.928 129.776 144.104 128.576 144.104 125.648V120.344H147.272ZM172.961 120.344L168.977 132.344H166.121L163.769 125.288L161.393 132.344H158.537L154.553 120.344H157.697L160.073 127.712L162.521 120.344H164.993L167.441 127.736L169.817 120.344H172.961ZM179.308 119.984C182.476 119.984 184.564 121.592 184.564 124.496V132.32H181.54V131.336C180.724 132.128 179.524 132.68 177.892 132.68C175.156 132.68 173.332 131.12 173.332 128.768C173.332 126.464 175.06 124.928 178.084 124.928H181.54V124.736C181.54 123.536 180.724 122.72 179.5 122.72C178.06 122.72 177.244 123.272 177.004 124.472L173.98 123.872C174.436 121.544 176.572 119.984 179.308 119.984ZM178.396 130.16C180.076 130.16 181.54 129.008 181.54 127.472V127.328H178.036C177.028 127.328 176.356 127.88 176.356 128.696C176.356 129.584 177.172 130.16 178.396 130.16ZM194.09 119.984C196.97 119.984 198.89 122.048 198.89 125.024V132.32H195.722V125.696C195.722 124.016 194.762 122.888 193.298 122.888C191.498 122.888 190.322 124.088 190.322 127.016V132.32H187.154V120.344H190.322V121.424C191.258 120.488 192.506 119.984 194.09 119.984ZM209.503 129.152L210.415 131.792C209.167 132.464 208.303 132.68 207.295 132.68C204.463 132.68 202.591 131.192 202.591 127.904V122.936H200.023V120.344H202.591V116.24H205.759V120.344H209.671V122.936H205.759V127.664C205.759 129.104 206.455 129.728 207.511 129.728C208.063 129.728 208.879 129.488 209.503 129.152ZM225.265 129.152L226.177 131.792C224.929 132.464 224.065 132.68 223.057 132.68C220.225 132.68 218.353 131.192 218.353 127.904V122.936H215.785V120.344H218.353V116.24H221.521V120.344H225.433V122.936H221.521V127.664C221.521 129.104 222.217 129.728 223.273 129.728C223.825 129.728 224.641 129.488 225.265 129.152ZM232.965 120.056C236.469 120.056 239.421 122.576 239.421 126.344C239.421 130.112 236.469 132.632 232.965 132.632C229.389 132.632 226.437 130.112 226.437 126.344C226.437 122.576 229.389 120.056 232.965 120.056ZM232.965 129.92C234.621 129.92 236.349 128.576 236.349 126.344C236.349 124.112 234.621 122.768 232.965 122.768C231.237 122.768 229.509 124.112 229.509 126.344C229.509 128.576 231.237 129.92 232.965 129.92ZM254.295 119.984C257.343 119.984 260.175 122.576 260.175 126.344C260.175 130.112 257.343 132.68 254.295 132.68C252.615 132.68 251.295 132.176 250.335 131.288V132.32H247.167V113.84H250.335V121.376C251.295 120.488 252.615 119.984 254.295 119.984ZM253.743 129.92C255.663 129.92 257.103 128.552 257.103 126.344C257.103 124.136 255.663 122.744 253.743 122.744C252.039 122.744 250.335 124.136 250.335 126.344C250.335 128.552 252.039 129.92 253.743 129.92ZM273.629 126.104V127.184H264.509C264.821 128.912 266.045 129.968 267.509 129.968C268.445 129.968 269.621 129.848 270.485 128.384L273.317 128.984C272.261 131.48 270.125 132.68 267.509 132.68C264.125 132.68 261.365 130.112 261.365 126.344C261.365 122.576 264.125 119.984 267.557 119.984C270.749 119.984 273.509 122.456 273.629 126.104ZM267.557 122.744C266.357 122.744 264.989 123.464 264.605 124.952H270.389C269.981 123.416 268.829 122.744 267.557 122.744ZM288.328 119.984C291.208 119.984 293.128 122.048 293.128 125.024V132.32H289.96V125.696C289.96 124.016 289 122.888 287.536 122.888C285.736 122.888 284.56 124.088 284.56 127.016V132.32H281.392V120.344H284.56V121.424C285.496 120.488 286.744 119.984 288.328 119.984ZM301.509 120.056C305.013 120.056 307.965 122.576 307.965 126.344C307.965 130.112 305.013 132.632 301.509 132.632C297.933 132.632 294.981 130.112 294.981 126.344C294.981 122.576 297.933 120.056 301.509 120.056ZM301.509 129.92C303.165 129.92 304.893 128.576 304.893 126.344C304.893 124.112 303.165 122.768 301.509 122.768C299.781 122.768 298.053 124.112 298.053 126.344C298.053 128.576 299.781 129.92 301.509 129.92ZM317.915 129.152L318.827 131.792C317.579 132.464 316.715 132.68 315.707 132.68C312.875 132.68 311.003 131.192 311.003 127.904V122.936H308.435V120.344H311.003V116.24H314.171V120.344H318.083V122.936H314.171V127.664C314.171 129.104 314.867 129.728 315.923 129.728C316.475 129.728 317.291 129.488 317.915 129.152ZM322.034 114.872C323.138 114.872 323.954 115.76 323.954 116.768C323.954 117.824 323.138 118.616 322.034 118.616C320.906 118.616 320.114 117.824 320.114 116.768C320.114 115.76 320.906 114.872 322.034 114.872ZM323.618 132.32H320.45V120.344H323.618V132.32ZM338.861 120.344V132.32H335.693V122.936H330.701V132.32H327.533V122.936H325.709V120.344H327.533V118.136C327.533 115.328 329.453 113.6 332.333 113.6C333.101 113.6 333.797 113.744 334.469 114.032L333.773 116.6C333.341 116.48 332.909 116.408 332.549 116.408C331.445 116.408 330.701 117.008 330.701 118.136V120.344H338.861ZM337.277 118.616C336.149 118.616 335.357 117.824 335.357 116.768C335.357 115.76 336.149 114.872 337.277 114.872C338.381 114.872 339.197 115.76 339.197 116.768C339.197 117.824 338.381 118.616 337.277 118.616ZM353.441 126.104V127.184H344.321C344.633 128.912 345.857 129.968 347.321 129.968C348.257 129.968 349.433 129.848 350.297 128.384L353.129 128.984C352.073 131.48 349.937 132.68 347.321 132.68C343.937 132.68 341.177 130.112 341.177 126.344C341.177 122.576 343.937 119.984 347.369 119.984C350.561 119.984 353.321 122.456 353.441 126.104ZM347.369 122.744C346.169 122.744 344.801 123.464 344.417 124.952H350.201C349.793 123.416 348.641 122.744 347.369 122.744ZM367.656 113.84V132.32H364.488V131.288C363.528 132.176 362.208 132.68 360.528 132.68C357.48 132.68 354.648 130.112 354.648 126.344C354.648 122.576 357.48 119.984 360.528 119.984C362.208 119.984 363.528 120.488 364.488 121.376V113.84H367.656ZM361.08 129.92C362.784 129.92 364.488 128.552 364.488 126.344C364.488 124.136 362.784 122.744 361.08 122.744C359.16 122.744 357.72 124.136 357.72 126.344C357.72 128.552 359.16 129.92 361.08 129.92ZM23.248 148.056C26.752 148.056 29.704 150.576 29.704 154.344C29.704 158.112 26.752 160.632 23.248 160.632C19.672 160.632 16.72 158.112 16.72 154.344C16.72 150.576 19.672 148.056 23.248 148.056ZM23.248 157.92C24.904 157.92 26.632 156.576 26.632 154.344C26.632 152.112 24.904 150.768 23.248 150.768C21.52 150.768 19.792 152.112 19.792 154.344C19.792 156.576 21.52 157.92 23.248 157.92ZM35.4117 148.344H39.0357V150.936H35.4117V160.32H32.2437V150.936H30.4197V148.344H32.2437V146.136C32.2437 143.328 34.1637 141.6 36.9717 141.6C37.7397 141.6 38.4357 141.744 39.1077 142.056L38.3877 144.624C37.9557 144.48 37.5237 144.408 37.1877 144.408C36.1557 144.408 35.4117 145.008 35.4117 146.136V148.344ZM49.003 160.32H45.835V141.84H49.003V160.32ZM53.8861 142.872C54.9901 142.872 55.8061 143.76 55.8061 144.768C55.8061 145.824 54.9901 146.616 53.8861 146.616C52.7581 146.616 51.9661 145.824 51.9661 144.768C51.9661 143.76 52.7581 142.872 53.8861 142.872ZM55.4701 160.32H52.3021V148.344H55.4701V160.32ZM70.6653 148.32L65.6732 160.32H62.3132L57.3212 148.32H60.7292L63.9932 156.456L67.2572 148.32H70.6653ZM83.3018 154.104V155.184H74.1818C74.4938 156.912 75.7178 157.968 77.1818 157.968C78.1178 157.968 79.2938 157.848 80.1578 156.384L82.9898 156.984C81.9338 159.48 79.7978 160.68 77.1818 160.68C73.7978 160.68 71.0378 158.112 71.0378 154.344C71.0378 150.576 73.7978 147.984 77.2298 147.984C80.4218 147.984 83.1818 150.456 83.3018 154.104ZM77.2298 150.744C76.0298 150.744 74.6618 151.464 74.2778 152.952H80.0618C79.6538 151.416 78.5018 150.744 77.2298 150.744ZM93.5695 155.568H85.6975V152.832H93.5695V155.568ZM104.255 157.152L105.167 159.792C103.919 160.464 103.055 160.68 102.047 160.68C99.2153 160.68 97.3433 159.192 97.3433 155.904V150.936H94.7753V148.344H97.3433V144.24H100.511V148.344H104.423V150.936H100.511V155.664C100.511 157.104 101.207 157.728 102.263 157.728C102.815 157.728 103.631 157.488 104.255 157.152ZM114.086 148.176C114.398 148.176 114.638 148.176 114.926 148.272L114.758 151.32H114.062C111.134 151.32 109.79 153.12 109.79 156.456V160.32H106.622V148.344H109.79V150.528C110.75 149.136 112.142 148.176 114.086 148.176ZM121.335 147.984C124.503 147.984 126.591 149.592 126.591 152.496V160.32H123.567V159.336C122.751 160.128 121.551 160.68 119.919 160.68C117.183 160.68 115.359 159.12 115.359 156.768C115.359 154.464 117.087 152.928 120.111 152.928H123.567V152.736C123.567 151.536 122.751 150.72 121.527 150.72C120.087 150.72 119.271 151.272 119.031 152.472L116.007 151.872C116.463 149.544 118.599 147.984 121.335 147.984ZM120.423 158.16C122.103 158.16 123.567 157.008 123.567 155.472V155.328H120.063C119.055 155.328 118.383 155.88 118.383 156.696C118.383 157.584 119.199 158.16 120.423 158.16ZM136.117 147.984C138.997 147.984 140.917 150.048 140.917 153.024V160.32H137.749V153.696C137.749 152.016 136.789 150.888 135.325 150.888C133.525 150.888 132.349 152.088 132.349 155.016V160.32H129.181V148.344H132.349V149.424C133.285 148.488 134.533 147.984 136.117 147.984ZM142.722 157.152L145.914 156.504C146.082 157.728 147.138 158.136 148.386 158.136C149.562 158.136 150.258 157.608 150.258 156.936C150.258 156.504 149.97 156.072 148.938 155.856L146.49 155.352C144.33 154.896 143.106 153.672 143.106 151.944C143.106 149.64 144.978 147.984 148.002 147.984C150.834 147.984 152.802 149.448 153.21 151.536L150.186 152.136C150.066 151.176 149.226 150.48 147.906 150.48C146.634 150.48 146.274 151.104 146.274 151.656C146.274 152.04 146.418 152.448 147.354 152.664L150.21 153.288C152.322 153.744 153.354 155.064 153.354 156.672C153.354 159.312 151.218 160.68 148.098 160.68C145.458 160.68 143.034 159.648 142.722 157.152ZM159.118 148.344H162.742V150.936H159.118V160.32H155.95V150.936H154.126V148.344H155.95V146.136C155.95 143.328 157.87 141.6 160.678 141.6C161.446 141.6 162.142 141.744 162.814 142.056L162.094 144.624C161.662 144.48 161.23 144.408 160.894 144.408C159.862 144.408 159.118 145.008 159.118 146.136V148.344ZM175.249 154.104V155.184H166.129C166.441 156.912 167.665 157.968 169.129 157.968C170.065 157.968 171.241 157.848 172.105 156.384L174.937 156.984C173.881 159.48 171.745 160.68 169.129 160.68C165.745 160.68 162.985 158.112 162.985 154.344C162.985 150.576 165.745 147.984 169.177 147.984C172.369 147.984 175.129 150.456 175.249 154.104ZM169.177 150.744C167.977 150.744 166.609 151.464 166.225 152.952H172.009C171.601 151.416 170.449 150.744 169.177 150.744ZM184.88 148.176C185.192 148.176 185.432 148.176 185.72 148.272L185.552 151.32H184.856C181.928 151.32 180.584 153.12 180.584 156.456V160.32H177.416V148.344H180.584V150.528C181.544 149.136 182.936 148.176 184.88 148.176ZM196.229 160.32H193.061V141.84H196.229V160.32ZM210.664 154.104V155.184H201.544C201.856 156.912 203.08 157.968 204.544 157.968C205.48 157.968 206.656 157.848 207.52 156.384L210.352 156.984C209.296 159.48 207.16 160.68 204.544 160.68C201.16 160.68 198.4 158.112 198.4 154.344C198.4 150.576 201.16 147.984 204.592 147.984C207.784 147.984 210.544 150.456 210.664 154.104ZM204.592 150.744C203.392 150.744 202.024 151.464 201.64 152.952H207.424C207.016 151.416 205.864 150.744 204.592 150.744ZM217.847 147.984C221.015 147.984 223.103 149.592 223.103 152.496V160.32H220.079V159.336C219.263 160.128 218.063 160.68 216.431 160.68C213.695 160.68 211.871 159.12 211.871 156.768C211.871 154.464 213.599 152.928 216.623 152.928H220.079V152.736C220.079 151.536 219.263 150.72 218.039 150.72C216.599 150.72 215.783 151.272 215.543 152.472L212.519 151.872C212.975 149.544 215.111 147.984 217.847 147.984ZM216.935 158.16C218.615 158.16 220.079 157.008 220.079 155.472V155.328H216.575C215.567 155.328 214.895 155.88 214.895 156.696C214.895 157.584 215.711 158.16 216.935 158.16ZM237.74 141.84V160.32H234.572V159.288C233.612 160.176 232.292 160.68 230.612 160.68C227.564 160.68 224.732 158.112 224.732 154.344C224.732 150.576 227.564 147.984 230.612 147.984C232.292 147.984 233.612 148.488 234.572 149.376V141.84H237.74ZM231.164 157.92C232.868 157.92 234.572 156.552 234.572 154.344C234.572 152.136 232.868 150.744 231.164 150.744C229.244 150.744 227.804 152.136 227.804 154.344C227.804 156.552 229.244 157.92 231.164 157.92ZM239.843 157.152L243.035 156.504C243.203 157.728 244.259 158.136 245.507 158.136C246.683 158.136 247.379 157.608 247.379 156.936C247.379 156.504 247.091 156.072 246.059 155.856L243.611 155.352C241.451 154.896 240.227 153.672 240.227 151.944C240.227 149.64 242.099 147.984 245.123 147.984C247.955 147.984 249.923 149.448 250.331 151.536L247.307 152.136C247.187 151.176 246.347 150.48 245.027 150.48C243.755 150.48 243.395 151.104 243.395 151.656C243.395 152.04 243.539 152.448 244.475 152.664L247.331 153.288C249.443 153.744 250.475 155.064 250.475 156.672C250.475 159.312 248.339 160.68 245.219 160.68C242.579 160.68 240.155 159.648 239.843 157.152ZM257.181 143.88C260.517 143.88 262.749 145.992 262.749 149.088C262.749 151.512 260.997 153.24 258.261 153.576V154.92H255.357V151.176H257.181C258.669 151.176 259.677 150.336 259.677 149.088C259.677 147.672 258.669 146.688 257.181 146.688C255.573 146.688 254.541 147.792 254.253 149.448L251.253 148.848C251.445 146.208 253.797 143.88 257.181 143.88ZM256.773 156.744C257.877 156.744 258.669 157.608 258.669 158.592C258.669 159.624 257.877 160.416 256.773 160.416C255.669 160.416 254.877 159.624 254.877 158.592C254.877 157.608 255.669 156.744 256.773 156.744Z" fill="#1A1816"/>
<g clip-path="url(#clip5_289_15343)">
<path d="M17.408 212.6H22.08C24.368 212.6 25.808 213.96 25.808 215.928C25.808 217.896 24.368 219.256 22.08 219.256H18.672V223.32H17.408V212.6ZM18.672 218.12H22.08C23.616 218.12 24.56 217.208 24.56 215.928C24.56 214.648 23.616 213.736 22.08 213.736H18.672V218.12ZM35.0139 215.432V223.304H33.7819V222.024C33.1419 222.968 32.1179 223.512 30.8059 223.512C28.9019 223.512 27.6379 222.152 27.6379 220.152V215.432H28.8699V219.928C28.8699 221.4 29.7339 222.376 31.0459 222.376C32.6939 222.376 33.7819 221.272 33.7819 219.224V215.432H35.0139ZM37.0173 221.192L38.2333 220.92C38.3453 221.96 39.3053 222.52 40.5533 222.52C41.6893 222.52 42.4413 221.992 42.4413 221.176C42.4413 220.52 41.9453 220.216 41.1453 220.04L39.3373 219.64C38.0253 219.368 37.2893 218.712 37.2893 217.624C37.2893 216.2 38.4733 215.24 40.2812 215.24C42.0573 215.24 43.2093 216.152 43.4973 217.432L42.3293 217.688C42.1693 216.824 41.4173 216.232 40.2493 216.232C39.1293 216.232 38.5053 216.776 38.5053 217.528C38.5053 218.152 38.9373 218.44 39.7053 218.616L41.6093 219.032C42.7613 219.288 43.6413 219.896 43.6413 221.096C43.6413 222.648 42.3453 223.528 40.4573 223.528C38.6493 223.528 37.2093 222.728 37.0173 221.192ZM49.975 215.24C51.879 215.24 53.143 216.6 53.143 218.6V223.32H51.927V218.824C51.927 217.352 51.047 216.36 49.735 216.36C48.087 216.36 46.999 217.48 46.999 219.528V223.32H45.783V211H46.999V216.744C47.639 215.784 48.647 215.24 49.975 215.24ZM60.5983 217.96C60.5983 220.104 61.2223 221.944 63.1743 223.88L62.3103 224.632C60.1343 222.632 59.2863 220.392 59.2863 217.96C59.2863 215.528 60.1343 213.288 62.3103 211.288L63.1743 212.056C61.2223 213.976 60.5983 215.816 60.5983 217.96ZM69.8229 216.456H66.9589V223.32H65.7429V216.456H64.3669V215.432H65.7429V213.576C65.7429 211.896 66.7989 210.84 68.4469 210.84C68.9109 210.84 69.3429 210.936 69.7269 211.112L69.4229 212.12C69.1349 211.992 68.8149 211.928 68.5269 211.928C67.5669 211.928 66.9589 212.568 66.9589 213.576V215.432H69.8229V216.456ZM74.057 215.24C76.025 215.24 77.321 216.296 77.321 218.2V223.32H76.137V222.12C75.529 222.936 74.537 223.528 73.177 223.528C71.449 223.528 70.313 222.536 70.313 221.112C70.313 219.672 71.417 218.648 73.481 218.648H76.137V218.28C76.137 217.048 75.337 216.312 74.121 216.312C72.921 216.312 72.089 216.904 71.913 217.896L70.745 217.64C71.001 216.216 72.329 215.24 74.057 215.24ZM73.353 222.52C74.889 222.52 76.137 221.448 76.137 220.024V219.608H73.465C72.169 219.608 71.481 220.232 71.481 221.096C71.481 221.928 72.217 222.52 73.353 222.52ZM79.0798 221.192L80.2958 220.92C80.4078 221.96 81.3678 222.52 82.6158 222.52C83.7518 222.52 84.5038 221.992 84.5038 221.176C84.5038 220.52 84.0078 220.216 83.2078 220.04L81.3998 219.64C80.0878 219.368 79.3518 218.712 79.3518 217.624C79.3518 216.2 80.5358 215.24 82.3438 215.24C84.1198 215.24 85.2718 216.152 85.5598 217.432L84.3918 217.688C84.2318 216.824 83.4798 216.232 82.3118 216.232C81.1918 216.232 80.5678 216.776 80.5678 217.528C80.5678 218.152 80.9998 218.44 81.7678 218.616L83.6718 219.032C84.8238 219.288 85.7038 219.896 85.7038 221.096C85.7038 222.648 84.4078 223.528 82.5198 223.528C80.7118 223.528 79.2718 222.728 79.0798 221.192ZM92.1815 221.896L92.5815 222.904C91.9415 223.352 91.3975 223.528 90.7575 223.528C89.1895 223.528 88.1495 222.6 88.1495 220.856V216.456H86.4375V215.432H88.1495V212.6H89.3815V215.432H92.1975V216.456H89.3815V220.776C89.3815 221.8 89.9575 222.376 90.8375 222.376C91.2855 222.376 91.7815 222.184 92.1815 221.896ZM101.14 219.176V219.624H94.372C94.484 221.4 95.828 222.456 97.188 222.456C98.308 222.456 99.316 222.024 99.876 220.76L100.964 221.016C100.34 222.664 98.964 223.528 97.188 223.528C95.092 223.528 93.188 221.912 93.188 219.4C93.188 216.872 95.092 215.24 97.268 215.24C99.396 215.24 101.06 216.824 101.14 219.176ZM97.268 216.312C95.988 216.312 94.66 217.16 94.42 218.712H99.908C99.684 217.16 98.58 216.312 97.268 216.312ZM107.636 215.352C107.828 215.352 107.972 215.352 108.196 215.416L108.1 216.584C107.956 216.568 107.78 216.568 107.636 216.568C105.54 216.568 104.468 218.152 104.468 220.28V223.32H103.236V215.432H104.468V217.368C105.108 216.2 106.18 215.352 107.636 215.352ZM121.429 211V223.32H120.213V222.008C119.525 222.968 118.421 223.528 117.077 223.528C114.981 223.528 113.141 221.88 113.141 219.384C113.141 216.888 114.981 215.24 117.077 215.24C118.421 215.24 119.525 215.8 120.213 216.76V211H121.429ZM117.269 222.44C118.757 222.44 120.213 221.256 120.213 219.384C120.213 217.496 118.757 216.312 117.269 216.312C115.637 216.312 114.325 217.496 114.325 219.384C114.325 221.256 115.637 222.44 117.269 222.44ZM131.484 219.176V219.624H124.716C124.828 221.4 126.172 222.456 127.532 222.456C128.652 222.456 129.66 222.024 130.22 220.76L131.308 221.016C130.684 222.664 129.308 223.528 127.532 223.528C125.436 223.528 123.532 221.912 123.532 219.4C123.532 216.872 125.436 215.24 127.612 215.24C129.74 215.24 131.404 216.824 131.484 219.176ZM127.612 216.312C126.332 216.312 125.004 217.16 124.764 218.712H130.252C130.028 217.16 128.924 216.312 127.612 216.312ZM134.796 223.32H133.58V211H134.796V223.32ZM138.347 212.232C138.827 212.232 139.195 212.616 139.195 213.048C139.195 213.512 138.827 213.864 138.347 213.864C137.867 213.864 137.515 213.512 137.515 213.048C137.515 212.616 137.867 212.232 138.347 212.232ZM138.971 223.32H137.739V215.432H138.971V223.32ZM149.092 215.432L145.604 223.32H144.276L140.788 215.432H142.116L144.948 221.88L147.764 215.432H149.092ZM157.765 219.176V219.624H150.997C151.109 221.4 152.453 222.456 153.813 222.456C154.933 222.456 155.941 222.024 156.501 220.76L157.589 221.016C156.965 222.664 155.589 223.528 153.813 223.528C151.717 223.528 149.813 221.912 149.813 219.4C149.813 216.872 151.717 215.24 153.893 215.24C156.021 215.24 157.685 216.824 157.765 219.176ZM153.893 216.312C152.613 216.312 151.285 217.16 151.045 218.712H156.533C156.309 217.16 155.205 216.312 153.893 216.312ZM164.261 215.352C164.453 215.352 164.597 215.352 164.821 215.416L164.725 216.584C164.581 216.568 164.405 216.568 164.261 216.568C162.165 216.568 161.093 218.152 161.093 220.28V223.32H159.861V215.432H161.093V217.368C161.733 216.2 162.805 215.352 164.261 215.352ZM173.767 215.432L168.423 227.16H167.063L168.871 223.208L165.335 215.432H166.711L169.527 221.736L172.407 215.432H173.767ZM174.216 225.432H173.256L174.312 221.224H175.752V221.256L174.216 225.432ZM186.214 215.352C186.406 215.352 186.55 215.352 186.774 215.416L186.678 216.584C186.534 216.568 186.358 216.568 186.214 216.568C184.118 216.568 183.046 218.152 183.046 220.28V223.32H181.814V215.432H183.046V217.368C183.686 216.2 184.758 215.352 186.214 215.352ZM195.437 219.176V219.624H188.669C188.781 221.4 190.125 222.456 191.485 222.456C192.605 222.456 193.613 222.024 194.173 220.76L195.261 221.016C194.637 222.664 193.261 223.528 191.485 223.528C189.389 223.528 187.485 221.912 187.485 219.4C187.485 216.872 189.389 215.24 191.565 215.24C193.693 215.24 195.357 216.824 195.437 219.176ZM191.565 216.312C190.285 216.312 188.957 217.16 188.717 218.712H194.205C193.981 217.16 192.877 216.312 191.565 216.312ZM200.925 222.392C202.093 222.392 203.117 221.768 203.533 220.616L204.653 220.92C204.189 222.488 202.669 223.528 200.925 223.528C198.701 223.528 196.813 221.896 196.813 219.384C196.813 216.904 198.701 215.24 200.925 215.24C202.653 215.24 204.157 216.248 204.669 217.864L203.501 218.216C203.117 217 202.093 216.36 200.925 216.36C199.309 216.36 197.997 217.576 197.997 219.384C197.997 221.224 199.309 222.392 200.925 222.392ZM210.224 215.256C212.544 215.256 214.4 216.952 214.4 219.368C214.4 221.784 212.544 223.512 210.224 223.512C207.872 223.512 206.032 221.784 206.032 219.368C206.032 216.952 207.872 215.256 210.224 215.256ZM210.224 222.44C211.84 222.44 213.2 221.192 213.2 219.368C213.2 217.56 211.84 216.328 210.224 216.328C208.592 216.328 207.216 217.56 207.216 219.368C207.216 221.192 208.592 222.44 210.224 222.44ZM226.054 215.24C227.718 215.24 228.998 216.424 228.998 218.216V223.32H227.782V218.424C227.782 217.176 226.934 216.36 225.75 216.36C224.294 216.36 223.334 217.432 223.334 219.288V223.32H222.118V218.424C222.118 217.176 221.27 216.36 220.102 216.36C218.646 216.36 217.702 217.432 217.702 219.288V223.32H216.486V215.432H217.702V216.632C218.262 215.768 219.158 215.24 220.39 215.24C221.606 215.24 222.614 215.832 223.078 216.84C223.686 215.864 224.71 215.24 226.054 215.24ZM241.195 215.24C242.859 215.24 244.139 216.424 244.139 218.216V223.32H242.923V218.424C242.923 217.176 242.075 216.36 240.891 216.36C239.435 216.36 238.475 217.432 238.475 219.288V223.32H237.259V218.424C237.259 217.176 236.411 216.36 235.243 216.36C233.787 216.36 232.843 217.432 232.843 219.288V223.32H231.627V215.432H232.843V216.632C233.403 215.768 234.299 215.24 235.531 215.24C236.747 215.24 237.755 215.832 238.219 216.84C238.827 215.864 239.851 215.24 241.195 215.24ZM253.999 219.176V219.624H247.231C247.343 221.4 248.687 222.456 250.047 222.456C251.167 222.456 252.175 222.024 252.735 220.76L253.823 221.016C253.199 222.664 251.823 223.528 250.047 223.528C247.951 223.528 246.047 221.912 246.047 219.4C246.047 216.872 247.951 215.24 250.127 215.24C252.255 215.24 253.919 216.824 253.999 219.176ZM250.127 216.312C248.847 216.312 247.519 217.16 247.279 218.712H252.767C252.543 217.16 251.439 216.312 250.127 216.312ZM260.288 215.24C262.192 215.24 263.456 216.6 263.456 218.6V223.32H262.24V218.824C262.24 217.352 261.36 216.36 260.048 216.36C258.4 216.36 257.312 217.48 257.312 219.528V223.32H256.096V215.432H257.312V216.744C257.952 215.784 258.96 215.24 260.288 215.24ZM273.648 211V223.32H272.432V222.008C271.744 222.968 270.64 223.528 269.296 223.528C267.2 223.528 265.36 221.88 265.36 219.384C265.36 216.888 267.2 215.24 269.296 215.24C270.64 215.24 271.744 215.8 272.432 216.76V211H273.648ZM269.488 222.44C270.976 222.44 272.432 221.256 272.432 219.384C272.432 217.496 270.976 216.312 269.488 216.312C267.856 216.312 266.544 217.496 266.544 219.384C266.544 221.256 267.856 222.44 269.488 222.44ZM283.703 219.176V219.624H276.935C277.047 221.4 278.391 222.456 279.751 222.456C280.871 222.456 281.879 222.024 282.439 220.76L283.527 221.016C282.903 222.664 281.527 223.528 279.751 223.528C277.655 223.528 275.751 221.912 275.751 219.4C275.751 216.872 277.655 215.24 279.831 215.24C281.959 215.24 283.623 216.824 283.703 219.176ZM279.831 216.312C278.551 216.312 277.223 217.16 276.983 218.712H282.471C282.247 217.16 281.143 216.312 279.831 216.312ZM293.367 211V223.32H292.151V222.008C291.463 222.968 290.359 223.528 289.015 223.528C286.919 223.528 285.079 221.88 285.079 219.384C285.079 216.888 286.919 215.24 289.015 215.24C290.359 215.24 291.463 215.8 292.151 216.76V211H293.367ZM289.207 222.44C290.695 222.44 292.151 221.256 292.151 219.384C292.151 217.496 290.695 216.312 289.207 216.312C287.575 216.312 286.263 217.496 286.263 219.384C286.263 221.256 287.575 222.44 289.207 222.44ZM295.661 212.056L296.525 211.288C298.701 213.288 299.549 215.528 299.549 217.96C299.549 220.392 298.701 222.632 296.525 224.632L295.661 223.88C297.613 221.944 298.237 220.104 298.237 217.96C298.237 215.816 297.613 213.976 295.661 212.056Z" fill="#1A1816"/>
<circle cx="366" cy="218.32" r="5" stroke="#1A1816" stroke-width="6"/>
</g>
<g clip-path="url(#clip6_289_15343)">
<path d="M20.976 270.392C23.12 270.392 24.624 271.576 24.992 273.336L23.728 273.624C23.488 272.328 22.416 271.496 20.944 271.496C19.504 271.496 18.512 272.28 18.512 273.432C18.512 274.392 19.12 274.824 20.128 275.032L22.464 275.56C23.952 275.88 25.168 276.632 25.168 278.344C25.168 280.296 23.584 281.528 21.184 281.528C18.912 281.528 17.088 280.36 16.832 278.328L18.16 278.056C18.4 279.56 19.632 280.408 21.296 280.408C22.928 280.408 23.904 279.592 23.904 278.408C23.904 277.4 23.36 277 22.16 276.728L19.744 276.2C18.368 275.896 17.168 275.176 17.168 273.464C17.168 271.624 18.688 270.392 20.976 270.392ZM38.9913 270.6V281.32H37.7753V273.288L33.5513 281.32H32.8953L28.6553 273.288V281.32H27.4393V270.6H28.5433L33.2153 279.432L37.8873 270.6H38.9913ZM45.3823 270.392C47.5263 270.392 49.0303 271.576 49.3983 273.336L48.1343 273.624C47.8943 272.328 46.8223 271.496 45.3503 271.496C43.9103 271.496 42.9183 272.28 42.9183 273.432C42.9183 274.392 43.5263 274.824 44.5343 275.032L46.8703 275.56C48.3583 275.88 49.5743 276.632 49.5743 278.344C49.5743 280.296 47.9903 281.528 45.5903 281.528C43.3183 281.528 41.4943 280.36 41.2383 278.328L42.5663 278.056C42.8063 279.56 44.0383 280.408 45.7023 280.408C47.3343 280.408 48.3103 279.592 48.3103 278.408C48.3103 277.4 47.7663 277 46.5663 276.728L44.1503 276.2C42.7743 275.896 41.5743 275.176 41.5743 273.464C41.5743 271.624 43.0943 270.392 45.3823 270.392ZM56.6608 275.96C56.6608 278.104 57.2848 279.944 59.2368 281.88L58.3728 282.632C56.1968 280.632 55.3488 278.392 55.3488 275.96C55.3488 273.528 56.1968 271.288 58.3728 269.288L59.2368 270.056C57.2848 271.976 56.6608 273.816 56.6608 275.96ZM60.8454 279.192L62.0614 278.92C62.1734 279.96 63.1334 280.52 64.3814 280.52C65.5174 280.52 66.2694 279.992 66.2694 279.176C66.2694 278.52 65.7734 278.216 64.9734 278.04L63.1654 277.64C61.8534 277.368 61.1174 276.712 61.1174 275.624C61.1174 274.2 62.3014 273.24 64.1094 273.24C65.8854 273.24 67.0374 274.152 67.3254 275.432L66.1574 275.688C65.9974 274.824 65.2454 274.232 64.0774 274.232C62.9574 274.232 62.3334 274.776 62.3334 275.528C62.3334 276.152 62.7654 276.44 63.5334 276.616L65.4374 277.032C66.5894 277.288 67.4694 277.896 67.4694 279.096C67.4694 280.648 66.1734 281.528 64.2854 281.528C62.4774 281.528 61.0374 280.728 60.8454 279.192ZM70.8271 281.32H69.6111V269H70.8271V281.32ZM77.1144 273.256C79.4344 273.256 81.2904 274.952 81.2904 277.368C81.2904 279.784 79.4344 281.512 77.1144 281.512C74.7624 281.512 72.9224 279.784 72.9224 277.368C72.9224 274.952 74.7624 273.256 77.1144 273.256ZM77.1144 280.44C78.7304 280.44 80.0904 279.192 80.0904 277.368C80.0904 275.56 78.7304 274.328 77.1144 274.328C75.4824 274.328 74.1064 275.56 74.1064 277.368C74.1064 279.192 75.4824 280.44 77.1144 280.44ZM93.9379 273.432L91.2819 281.352H90.1459L88.0819 275.368L86.0019 281.352H84.8659L82.2099 273.432H83.4419L85.4739 279.544L87.5859 273.432H88.5619L90.6739 279.544L92.7059 273.432H93.9379ZM102.812 277.176V277.624H96.0439C96.1559 279.4 97.4999 280.456 98.8599 280.456C99.9799 280.456 100.988 280.024 101.548 278.76L102.636 279.016C102.012 280.664 100.636 281.528 98.8599 281.528C96.7639 281.528 94.8599 279.912 94.8599 277.4C94.8599 274.872 96.7639 273.24 98.9399 273.24C101.068 273.24 102.732 274.824 102.812 277.176ZM98.9399 274.312C97.6599 274.312 96.3319 275.16 96.0919 276.712H101.58C101.356 275.16 100.252 274.312 98.9399 274.312ZM109.308 273.352C109.5 273.352 109.644 273.352 109.868 273.416L109.772 274.584C109.628 274.568 109.452 274.568 109.308 274.568C107.212 274.568 106.14 276.152 106.14 278.28V281.32H104.908V273.432H106.14V275.368C106.78 274.2 107.852 273.352 109.308 273.352ZM110.341 283.432H109.381L110.437 279.224H111.877V279.256L110.341 283.432ZM122.131 273.24C124.035 273.24 125.299 274.6 125.299 276.6V281.32H124.083V276.824C124.083 275.352 123.203 274.36 121.891 274.36C120.243 274.36 119.155 275.48 119.155 277.528V281.32H117.939V273.432H119.155V274.744C119.795 273.784 120.803 273.24 122.131 273.24ZM131.396 273.256C133.716 273.256 135.572 274.952 135.572 277.368C135.572 279.784 133.716 281.512 131.396 281.512C129.044 281.512 127.204 279.784 127.204 277.368C127.204 274.952 129.044 273.256 131.396 273.256ZM131.396 280.44C133.012 280.44 134.372 279.192 134.372 277.368C134.372 275.56 133.012 274.328 131.396 274.328C129.764 274.328 128.388 275.56 128.388 277.368C128.388 279.192 129.764 280.44 131.396 280.44ZM141.994 279.896L142.394 280.904C141.754 281.352 141.21 281.528 140.57 281.528C139.002 281.528 137.962 280.6 137.962 278.856V274.456H136.25V273.432H137.962V270.6H139.194V273.432H142.01V274.456H139.194V278.776C139.194 279.8 139.77 280.376 140.65 280.376C141.098 280.376 141.594 280.184 141.994 279.896ZM152.386 273.352C152.578 273.352 152.722 273.352 152.946 273.416L152.85 274.584C152.706 274.568 152.53 274.568 152.386 274.568C150.29 274.568 149.218 276.152 149.218 278.28V281.32H147.986V273.432H149.218V275.368C149.858 274.2 150.93 273.352 152.386 273.352ZM161.609 277.176V277.624H154.841C154.953 279.4 156.297 280.456 157.657 280.456C158.777 280.456 159.785 280.024 160.345 278.76L161.433 279.016C160.809 280.664 159.433 281.528 157.657 281.528C155.561 281.528 153.657 279.912 153.657 277.4C153.657 274.872 155.561 273.24 157.737 273.24C159.865 273.24 161.529 274.824 161.609 277.176ZM157.737 274.312C156.457 274.312 155.129 275.16 154.889 276.712H160.377C160.153 275.16 159.049 274.312 157.737 274.312ZM167.097 280.392C168.265 280.392 169.289 279.768 169.705 278.616L170.825 278.92C170.361 280.488 168.841 281.528 167.097 281.528C164.873 281.528 162.985 279.896 162.985 277.384C162.985 274.904 164.873 273.24 167.097 273.24C168.825 273.24 170.329 274.248 170.841 275.864L169.673 276.216C169.289 275 168.265 274.36 167.097 274.36C165.481 274.36 164.169 275.576 164.169 277.384C164.169 279.224 165.481 280.392 167.097 280.392ZM176.396 273.256C178.716 273.256 180.572 274.952 180.572 277.368C180.572 279.784 178.716 281.512 176.396 281.512C174.044 281.512 172.204 279.784 172.204 277.368C172.204 274.952 174.044 273.256 176.396 273.256ZM176.396 280.44C178.012 280.44 179.372 279.192 179.372 277.368C179.372 275.56 178.012 274.328 176.396 274.328C174.764 274.328 173.388 275.56 173.388 277.368C173.388 279.192 174.764 280.44 176.396 280.44ZM192.226 273.24C193.89 273.24 195.17 274.424 195.17 276.216V281.32H193.954V276.424C193.954 275.176 193.106 274.36 191.922 274.36C190.466 274.36 189.506 275.432 189.506 277.288V281.32H188.29V276.424C188.29 275.176 187.442 274.36 186.274 274.36C184.818 274.36 183.874 275.432 183.874 277.288V281.32H182.658V273.432H183.874V274.632C184.434 273.768 185.33 273.24 186.562 273.24C187.778 273.24 188.786 273.832 189.25 274.84C189.858 273.864 190.882 273.24 192.226 273.24ZM207.367 273.24C209.031 273.24 210.311 274.424 210.311 276.216V281.32H209.095V276.424C209.095 275.176 208.247 274.36 207.063 274.36C205.607 274.36 204.647 275.432 204.647 277.288V281.32H203.431V276.424C203.431 275.176 202.583 274.36 201.415 274.36C199.959 274.36 199.015 275.432 199.015 277.288V281.32H197.799V273.432H199.015V274.632C199.575 273.768 200.471 273.24 201.703 273.24C202.919 273.24 203.927 273.832 204.391 274.84C204.999 273.864 206.023 273.24 207.367 273.24ZM220.171 277.176V277.624H213.403C213.515 279.4 214.859 280.456 216.219 280.456C217.339 280.456 218.347 280.024 218.907 278.76L219.995 279.016C219.371 280.664 217.995 281.528 216.219 281.528C214.123 281.528 212.219 279.912 212.219 277.4C212.219 274.872 214.123 273.24 216.299 273.24C218.427 273.24 220.091 274.824 220.171 277.176ZM216.299 274.312C215.019 274.312 213.691 275.16 213.451 276.712H218.939C218.715 275.16 217.611 274.312 216.299 274.312ZM226.459 273.24C228.363 273.24 229.627 274.6 229.627 276.6V281.32H228.411V276.824C228.411 275.352 227.531 274.36 226.219 274.36C224.571 274.36 223.483 275.48 223.483 277.528V281.32H222.267V273.432H223.483V274.744C224.123 273.784 225.131 273.24 226.459 273.24ZM239.82 269V281.32H238.604V280.008C237.916 280.968 236.812 281.528 235.468 281.528C233.372 281.528 231.532 279.88 231.532 277.384C231.532 274.888 233.372 273.24 235.468 273.24C236.812 273.24 237.916 273.8 238.604 274.76V269H239.82ZM235.66 280.44C237.148 280.44 238.604 279.256 238.604 277.384C238.604 275.496 237.148 274.312 235.66 274.312C234.028 274.312 232.716 275.496 232.716 277.384C232.716 279.256 234.028 280.44 235.66 280.44ZM249.874 277.176V277.624H243.106C243.218 279.4 244.562 280.456 245.922 280.456C247.042 280.456 248.05 280.024 248.61 278.76L249.698 279.016C249.074 280.664 247.698 281.528 245.922 281.528C243.826 281.528 241.922 279.912 241.922 277.4C241.922 274.872 243.826 273.24 246.002 273.24C248.13 273.24 249.794 274.824 249.874 277.176ZM246.002 274.312C244.722 274.312 243.394 275.16 243.154 276.712H248.642C248.418 275.16 247.314 274.312 246.002 274.312ZM259.539 269V281.32H258.323V280.008C257.635 280.968 256.531 281.528 255.187 281.528C253.091 281.528 251.251 279.88 251.251 277.384C251.251 274.888 253.091 273.24 255.187 273.24C256.531 273.24 257.635 273.8 258.323 274.76V269H259.539ZM255.379 280.44C256.867 280.44 258.323 279.256 258.323 277.384C258.323 275.496 256.867 274.312 255.379 274.312C253.747 274.312 252.435 275.496 252.435 277.384C252.435 279.256 253.747 280.44 255.379 280.44ZM261.833 270.056L262.697 269.288C264.873 271.288 265.721 273.528 265.721 275.96C265.721 278.392 264.873 280.632 262.697 282.632L261.833 281.88C263.785 279.944 264.409 278.104 264.409 275.96C264.409 273.816 263.785 271.976 261.833 270.056Z" fill="#1A1816"/>
<circle cx="366" cy="276.32" r="7.5" stroke="#1A1816"/>
</g>
<rect width="390" height="80" transform="translate(0 324.64)" fill="white"/>
<mask id="path-18-inside-2_289_15343" fill="white">
<path d="M16 364.64C16 351.385 26.7452 340.64 40 340.64H350C363.255 340.64 374 351.385 374 364.64C374 377.894 363.255 388.64 350 388.64H40C26.7452 388.64 16 377.894 16 364.64Z"/>
</mask>
<path d="M16 364.64C16 351.385 26.7452 340.64 40 340.64H350C363.255 340.64 374 351.385 374 364.64C374 377.894 363.255 388.64 350 388.64H40C26.7452 388.64 16 377.894 16 364.64Z" fill="#1A1816"/>
<path d="M16 364.64M374 364.64M374 364.64M16 364.64M40 340.64V341.64H350V340.64V339.64H40V340.64ZM374 364.64M350 388.64V387.64H40V388.64V389.64H350V388.64ZM16 364.64M40 388.64V387.64C27.2975 387.64 17 377.342 17 364.64H16H15C15 378.447 26.1929 389.64 40 389.64V388.64ZM374 364.64H373C373 377.342 362.703 387.64 350 387.64V388.64V389.64C363.807 389.64 375 378.447 375 364.64H374ZM350 340.64V341.64C362.703 341.64 373 351.937 373 364.64H374H375C375 350.833 363.807 339.64 350 339.64V340.64ZM40 340.64V339.64C26.1929 339.64 15 350.833 15 364.64H16H17C17 351.937 27.2975 341.64 40 341.64V340.64Z" fill="#1A1816" mask="url(#path-18-inside-2_289_15343)"/>
<path d="M164.852 368.248C166.532 368.248 167.908 367.352 168.388 365.544L170.052 365.896C169.46 368.408 167.38 369.864 164.852 369.864C161.732 369.864 159.268 367.416 159.268 364.28C159.268 361.16 161.732 358.696 164.852 358.696C167.38 358.696 169.444 360.168 170.052 362.536L168.388 363.016C167.908 361.208 166.532 360.312 164.852 360.312C162.692 360.312 160.996 362.024 160.996 364.28C160.996 366.536 162.692 368.248 164.852 368.248ZM175.661 361.528C177.997 361.528 179.901 363.208 179.901 365.672C179.901 368.136 177.997 369.832 175.661 369.832C173.309 369.832 171.389 368.136 171.389 365.672C171.389 363.208 173.309 361.528 175.661 361.528ZM175.661 368.392C177.021 368.392 178.285 367.32 178.285 365.672C178.285 364.024 177.021 362.952 175.661 362.952C174.269 362.952 173.021 364.024 173.021 365.672C173.021 367.32 174.269 368.392 175.661 368.392ZM186.18 361.48C188.084 361.48 189.364 362.856 189.364 364.84V369.64H187.684V365.176C187.684 363.88 186.932 363.016 185.796 363.016C184.372 363.016 183.428 363.976 183.428 365.976V369.64H181.764V361.704H183.428V362.68C184.068 361.912 184.996 361.48 186.18 361.48ZM196.454 367.864L196.966 369.256C196.214 369.704 195.67 369.864 194.998 369.864C193.286 369.864 192.134 368.904 192.134 366.936V363.08H190.422V361.704H192.134V358.92H193.798V361.704H196.518V363.08H193.798V366.824C193.798 367.816 194.326 368.296 195.11 368.296C195.526 368.296 196.038 368.136 196.454 367.864ZM199.271 358.28C199.879 358.28 200.327 358.76 200.327 359.32C200.327 359.912 199.879 360.344 199.271 360.344C198.647 360.344 198.199 359.912 198.199 359.32C198.199 358.76 198.647 358.28 199.271 358.28ZM200.103 369.64H198.439V361.704H200.103V369.64ZM207.164 361.48C209.068 361.48 210.348 362.856 210.348 364.84V369.64H208.668V365.176C208.668 363.88 207.916 363.016 206.78 363.016C205.356 363.016 204.412 363.976 204.412 365.976V369.64H202.748V361.704H204.412V362.68C205.052 361.912 205.98 361.48 207.164 361.48ZM220.031 361.704V369.64H218.367V368.664C217.727 369.432 216.799 369.864 215.631 369.864C213.711 369.864 212.447 368.488 212.447 366.488V361.704H214.111V366.152C214.111 367.448 214.863 368.328 216.015 368.328C217.439 368.328 218.367 367.368 218.367 365.368V361.704H220.031ZM229.953 365.496V366.072H223.521C223.681 367.544 224.753 368.424 225.921 368.424C226.801 368.424 227.697 368.168 228.257 367.048L229.745 367.368C229.089 369.032 227.681 369.864 225.921 369.864C223.761 369.864 221.873 368.2 221.873 365.688C221.873 363.16 223.745 361.48 225.985 361.48C228.113 361.48 229.873 363.112 229.953 365.496ZM225.985 362.952C224.945 362.952 223.825 363.608 223.569 364.888H228.241C227.985 363.592 227.073 362.952 225.985 362.952Z" fill="white"/>
</g>
<path d="M16 0.381836H374C382.626 0.381836 389.618 7.37423 389.618 16V388.64C389.618 397.265 382.626 404.258 374 404.258H16C7.37423 404.258 0.381836 397.265 0.381836 388.64V16C0.38184 7.37424 7.37424 0.381836 16 0.381836Z" stroke="#D3CFCA" stroke-width="0.763329"/>
<defs>
<clipPath id="clip0_289_15343">
<path d="M0 16C0 7.16345 7.16344 0 16 0H374C382.837 0 390 7.16344 390 16V388.64C390 397.476 382.837 404.64 374 404.64H16C7.16344 404.64 0 397.476 0 388.64V16Z" fill="white"/>
</clipPath>
<clipPath id="clip1_289_15343">
<rect width="390" height="92" fill="white"/>
</clipPath>
<clipPath id="clip2_289_15343">
<rect width="24" height="24" fill="white" transform="translate(16 16)"/>
</clipPath>
<clipPath id="clip3_289_15343">
<path d="M247 16H334V40H247V16Z" fill="white"/>
</clipPath>
<clipPath id="clip4_289_15343">
<rect width="24" height="24" fill="white" transform="translate(350 16)"/>
</clipPath>
<clipPath id="clip5_289_15343">
<rect width="358" height="56" fill="white" transform="translate(16 190.32)"/>
</clipPath>
<clipPath id="clip6_289_15343">
<rect width="358" height="56" fill="white" transform="translate(16 248.32)"/>
</clipPath>
</defs>
</svg>
