<svg width="377" height="627" viewBox="0 0 377 627" fill="none" xmlns="http://www.w3.org/2000/svg">
<g clip-path="url(#clip0_406_36211)">
<path d="M1 17C1 8.16345 8.16344 1 17 1H360C368.837 1 376 8.16344 376 17V610C376 618.837 368.837 626 360 626H17C8.16345 626 1 618.837 1 610V17Z" fill="#2B2B2B" fill-opacity="0.72"/>
<rect width="290" height="812" transform="translate(1 1)" fill="white"/>
<rect width="290" height="60" transform="translate(1 1)" fill="white"/>
<path d="M88.1352 38.8564C87.6041 39.5592 86.8402 39.9463 85.9868 39.9463C84.6322 39.9463 84.2801 39.3269 84.2801 38.243L84.3397 28.1897H87.6399V27.5465H84.3397V23.1035H83.9578C83.3193 25.8491 81.6602 27.4512 79.7207 27.749V28.1897L81.6901 28.1838C81.6901 28.1838 81.6304 37.564 81.6304 37.8559C81.6304 38.9755 81.8393 39.6783 82.4539 40.2084C83.0447 40.7087 83.7489 40.9409 84.9305 40.9409C86.5776 40.9409 87.7294 40.0893 88.3441 39.0589L88.1352 38.8564Z" fill="#2B2B2B"/>
<path fill-rule="evenodd" clip-rule="evenodd" d="M101.27 34.068C101.27 29.8335 98.2625 27.2487 94.8191 27.2487C91.4055 27.2487 88.368 29.8335 88.368 34.0978C88.368 38.3621 91.3757 40.9469 94.8191 40.9469C98.2684 40.9469 101.27 38.3323 101.27 34.068ZM94.8191 40.4764C94.0851 40.4764 93.2615 40.2441 92.6409 39.5949C91.698 38.5944 91.2265 36.7421 91.2265 34.0978C91.2265 31.3939 91.698 29.5417 92.6707 28.6007C93.2555 27.9813 94.0851 27.7192 94.8191 27.7192C95.5233 27.7192 96.3468 27.9515 96.9675 28.6007C97.9402 29.5714 98.4117 31.4237 98.4117 34.0978C98.4117 36.7421 97.9104 38.6242 96.9675 39.5949C96.3528 40.2441 95.5531 40.4764 94.8191 40.4764Z" fill="#2B2B2B"/>
<path d="M109.601 27.2487C108.599 27.2487 107.954 27.6299 107.423 28.0706C106.832 28.6304 106.277 29.3689 105.83 30.7507H105.74C105.74 30.6418 105.757 29.8184 105.773 29.0572L105.773 29.0542C105.787 28.4008 105.8 27.7939 105.8 27.7252C105.8 27.6358 105.74 27.5465 105.591 27.5465H101.467V27.8085L101.47 27.8088C101.821 27.8385 102.178 27.8687 102.5 28.1004C102.768 28.2731 102.971 28.5411 103.031 28.9223C103.12 29.3034 103.12 30.3932 103.12 30.8638V37.1293C103.12 37.8916 103.09 38.6837 103.001 39.2138C102.828 39.8034 102.619 40.0059 102.207 40.2143C101.945 40.3335 101.646 40.393 101.413 40.4228V40.6848H107.512V40.4228C107.25 40.393 107.041 40.3632 106.778 40.2441C106.54 40.1548 106.367 39.9463 106.188 39.6247C105.925 39.0649 105.776 38.4514 105.776 36.9804V35.2889C105.776 34.4432 105.794 33.6154 105.901 32.7756C106.176 30.578 107.28 28.821 108.073 28.821C108.426 28.821 108.628 29.1724 108.837 29.6727C109.076 30.2325 109.368 30.4231 110.222 30.4231C111.045 30.4231 111.517 29.7442 111.517 28.9818C111.517 28.422 111.338 28.0408 111.075 27.749C110.747 27.4274 110.222 27.2487 109.601 27.2487Z" fill="#2B2B2B"/>
<path d="M118.535 28.4279C117.711 29.2498 117.121 31.1021 117.121 33.8358C117.121 36.6886 117.711 38.243 118.535 39.1542C119.066 39.7438 119.89 40.125 120.833 40.125C123.542 40.125 124.664 38.0941 125.129 36.5694L125.571 36.7183C124.92 39.1006 123.273 40.9529 120.474 40.9529C118.738 40.9529 117.473 40.393 116.5 39.5711C115.235 38.511 114.262 36.8077 114.262 34.1038C114.262 30.2802 116.971 27.2547 120.474 27.2547C122.772 27.2547 123.834 27.8741 124.509 28.5471C125.01 28.9878 125.302 29.5774 125.302 30.1611C125.302 30.9532 124.801 31.3641 124.037 31.3641C123.184 31.3641 122.712 30.8043 122.563 29.8037C122.211 28.2195 121.769 27.7192 120.445 27.7192C119.711 27.7192 119.036 27.9872 118.535 28.4279Z" fill="#2B2B2B"/>
<path fill-rule="evenodd" clip-rule="evenodd" d="M139.929 34.068C139.929 29.8335 136.922 27.2487 133.478 27.2487C130.065 27.2487 127.027 29.8335 127.027 34.0978C127.027 38.3621 130.035 40.9469 133.478 40.9469C136.927 40.9469 139.929 38.3323 139.929 34.068ZM133.478 40.4764C132.744 40.4764 131.921 40.2441 131.3 39.5949C130.357 38.5944 129.886 36.7421 129.886 34.0978C129.886 31.3939 130.357 29.5417 131.33 28.6007C131.915 27.9813 132.744 27.7192 133.478 27.7192C134.182 27.7192 135.006 27.9515 135.627 28.6007C136.599 29.5714 137.071 31.4237 137.071 34.0978C137.071 36.7421 136.569 38.6242 135.627 39.5949C135.012 40.2441 134.212 40.4764 133.478 40.4764Z" fill="#2B2B2B"/>
<path d="M112.818 39.458C112.818 40.2836 112.147 40.9528 111.32 40.9528C110.493 40.9528 109.822 40.2836 109.822 39.458C109.822 38.6324 110.493 37.9631 111.32 37.9631C112.147 37.9631 112.818 38.6324 112.818 39.458Z" fill="#2B2B2B"/>
<path d="M140.234 40.6789V40.4466C140.466 40.4168 140.795 40.2977 140.997 40.2143C141.529 40.0059 141.791 39.7736 141.911 39.1244C142 38.6242 142 37.8618 142 37.0102V30.8638C142 30.1015 142 29.3034 141.911 28.8925C141.821 28.4816 141.678 28.2135 141.409 28.0706C141.147 27.8919 140.759 27.8383 140.407 27.8086V27.5465H144.53C144.68 27.5465 144.709 27.6061 144.709 27.7252C144.709 27.8002 144.694 28.4051 144.679 29.0047L144.679 29.0103C144.664 29.5983 144.65 30.1797 144.65 30.2504H144.769C145.181 29.2201 145.682 28.5768 146.357 28.1063C147.007 27.5763 147.89 27.2547 149.155 27.2547C150.331 27.2547 151.19 27.5763 151.745 28.1957C152.217 28.696 152.509 29.3154 152.569 30.31H152.658C153.16 29.1367 153.721 28.5173 154.365 28.0766C155.099 27.5465 155.929 27.2547 157.075 27.2547C158.34 27.2547 159.08 27.5763 159.665 28.1659C160.315 28.7555 160.607 29.6667 160.607 31.1319V37.1888C160.607 37.9809 160.637 38.7195 160.757 39.19C160.906 39.7498 161.079 40.0119 161.521 40.2203C161.576 40.2391 161.631 40.2591 161.687 40.2793C161.897 40.3554 162.113 40.4338 162.344 40.4526V40.6848H156.305V40.4228L156.342 40.4147C156.734 40.3297 157.016 40.2686 157.248 40.1012C157.54 39.8927 157.719 39.6009 157.809 39.2197C157.928 38.7195 157.928 37.9273 157.928 37.0161V31.3879C157.928 30.4767 157.779 29.8037 157.457 29.3034C157.134 28.8032 156.603 28.5411 155.893 28.5411C154.598 28.5411 153.595 29.3928 153.034 30.9532C152.742 31.7453 152.652 32.7161 152.652 34.1574V37.1412C152.652 37.2918 152.652 37.4389 152.651 37.5815L152.651 37.5838C152.647 38.275 152.643 38.8607 152.742 39.2257C152.891 39.6366 153.064 39.9582 153.392 40.1667C153.625 40.2858 153.894 40.399 154.276 40.4585V40.6908H148.326V40.4288C148.738 40.3692 149.03 40.2799 149.269 40.1369C149.591 39.9583 149.77 39.6962 149.83 39.315C149.979 38.785 150.009 37.9333 150.009 37.0221V31.3641C150.009 30.5422 149.86 29.8931 149.657 29.4523C149.305 28.8329 148.744 28.5411 147.92 28.5411C146.536 28.5411 145.622 29.4821 145.091 30.983C144.769 31.8942 144.68 32.8054 144.68 34.1574V37.0221C144.68 37.9333 144.68 38.6659 144.829 39.2257C144.918 39.6069 145.062 39.8749 145.3 40.0476C145.533 40.256 145.891 40.3692 146.362 40.4288V40.6789H140.234Z" fill="#2B2B2B"/>
<path fill-rule="evenodd" clip-rule="evenodd" d="M164.17 30.4469C164.123 30.3695 164.105 30.3159 164.099 30.2087L164.081 29.9824C164.069 29.8395 164.015 29.7382 163.896 29.6906C164.075 29.6131 164.123 29.4642 164.123 29.3213C164.123 29.0414 163.908 28.8865 163.573 28.8865H162.905V30.4529H163.18V29.8216H163.603C163.758 29.8216 163.806 29.8752 163.818 30.0479L163.83 30.2087C163.836 30.31 163.848 30.3933 163.89 30.4469H164.17ZM163.568 29.1307C163.747 29.1307 163.842 29.2022 163.842 29.3511C163.842 29.494 163.753 29.5714 163.591 29.5714H163.174V29.1307H163.568Z" fill="#2B2B2B"/>
<path fill-rule="evenodd" clip-rule="evenodd" d="M163.49 31.1438C164.337 31.1438 165 30.5005 165 29.6846C165 28.8687 164.337 28.2255 163.49 28.2255C162.637 28.2255 161.974 28.8687 161.974 29.6846C161.974 30.4946 162.637 31.1438 163.49 31.1438ZM163.49 28.5054C164.17 28.5054 164.689 29.0235 164.689 29.6846C164.689 30.3457 164.17 30.8579 163.49 30.8579C162.804 30.8579 162.284 30.3457 162.284 29.6846C162.284 29.0235 162.804 28.5054 163.49 28.5054Z" fill="#2B2B2B"/>
<path d="M77.9843 37.5043C77.9843 38.1833 77.9843 38.7074 78.044 39.1481C78.1932 39.7675 78.5155 40.0296 78.8377 40.1784C79.1003 40.2976 79.3987 40.3869 79.6613 40.4107V40.6728H73.598V40.4107C73.8606 40.3809 74.1888 40.2916 74.3918 40.1784C74.7737 39.9998 75.0661 39.7675 75.1855 39.2672C75.3048 38.7669 75.3048 38.2071 75.3048 37.5043V23.8716C75.3048 23.4309 75.3048 22.341 75.2451 21.9599C75.1258 21.5489 74.9826 21.2809 74.7439 21.1082C74.4514 20.9295 74.1829 20.8759 73.7114 20.8461V20.5781H77.8053C77.9545 20.5781 78.0142 20.6377 78.0142 20.7866C78.0142 21.0405 78.0086 21.3154 78.0023 21.6285C77.994 22.0422 77.9843 22.5229 77.9843 23.1093V37.5043Z" fill="#D92228"/>
<path d="M44.7739 28.0704C45.305 27.6297 45.9495 27.2485 46.9521 27.2485C47.5727 27.2485 48.0979 27.4272 48.4261 27.7488C48.6887 28.0407 48.8677 28.4218 48.8677 28.9817C48.8677 29.744 48.3963 30.4229 47.5727 30.4229C46.7194 30.4229 46.4269 30.2324 46.1882 29.6725C45.9794 29.1722 45.7765 28.8209 45.4244 28.8209C44.6306 28.8209 43.5266 30.5778 43.2521 32.7755C43.1447 33.6152 43.1268 34.4431 43.1268 35.2888V36.9802C43.1268 38.4513 43.276 39.0647 43.5386 39.6246C43.7176 39.9462 43.8906 40.1546 44.1294 40.244C44.3919 40.3631 44.6008 40.3928 44.8634 40.4226V40.6847H38.7644V40.4226C38.9971 40.3928 39.2955 40.3333 39.5581 40.2142C39.9698 40.0057 40.1787 39.8032 40.3518 39.2136C40.4413 38.6836 40.4711 37.8914 40.4711 37.1291V30.8637C40.4711 30.3932 40.4711 29.3033 40.3816 28.9221C40.3219 28.5409 40.119 28.2729 39.8505 28.1002C39.529 27.8685 39.1719 27.8383 38.8207 27.8086L38.8181 27.8084V27.5463H42.9418C43.091 27.5463 43.1506 27.6357 43.1506 27.725C43.1506 27.7937 43.1379 28.4006 43.1242 29.0541C43.1083 29.8161 43.091 30.6415 43.091 30.7505H43.1805C43.6281 29.3688 44.1831 28.6303 44.7739 28.0704Z" fill="#D92228"/>
<path fill-rule="evenodd" clip-rule="evenodd" d="M72.5597 40.4226H72.5835V40.6847C72.1419 40.8097 71.5929 40.9467 70.9782 40.9467C70.3576 40.9467 69.8861 40.8038 69.6235 40.6251C69.2058 40.3333 69.0029 39.9223 68.9731 39.0111H68.8537C68.3822 39.9819 67.326 40.9527 65.4103 40.9527C63.3455 40.9527 61.7581 39.8032 61.7581 37.6889C61.7581 36.8968 61.9908 36.1047 62.6114 35.5151C63.3557 34.8193 64.2078 34.5614 65.2294 34.2523C65.502 34.1697 65.7867 34.0836 66.0847 33.9845C68.0003 33.4246 68.8835 32.6325 68.9432 31.7213V29.7202C68.9432 28.1895 68.3822 27.6893 67.1469 27.6893C66.6158 27.6893 66.1443 27.8382 65.7923 28.0704C65.3208 28.392 65.1716 28.9519 65.1418 29.7738C65.1119 30.8041 64.5808 31.1853 63.7274 31.1853C63.0531 31.1853 62.4921 30.7743 62.4921 30.012C62.4921 29.4224 62.7308 28.9817 63.1127 28.6005C63.8468 27.7786 65.7027 27.2485 67.0872 27.2485C69.7071 27.2485 71.5631 28.1598 71.5631 30.1609V37.9867C71.5631 39.2791 71.6227 39.839 71.8853 40.1308C72.0285 40.3333 72.2673 40.4226 72.5597 40.4226ZM66.4964 40.0057C67.5289 40.0057 68.8835 39.1243 68.9134 37.6234V32.9541C68.4495 33.5636 67.5869 33.9713 66.9112 34.2906L66.8784 34.3061C65.9653 34.6873 65.3447 35.0089 64.9926 35.4496C64.6106 35.8903 64.4614 36.5395 64.4614 37.4209C64.4614 39.2434 65.2014 40.0057 66.4964 40.0057Z" fill="#D92228"/>
<path fill-rule="evenodd" clip-rule="evenodd" d="M60.7137 36.7182L60.2184 36.5633C59.6455 38.4275 58.434 40.0891 55.9813 40.0891C54.8892 40.0891 53.9224 39.7377 53.2421 38.9694C52.4484 38.088 51.9471 36.2953 51.9471 34.0619C51.9471 33.8296 51.9471 33.6629 51.977 33.4306H60.6063C60.666 33.0494 60.666 32.4479 60.666 32.1203C60.666 29.8869 59.1024 27.2426 55.3368 27.2426C51.8636 27.2426 49.0647 30.1252 49.0647 34.1512C49.0647 36.1524 49.6257 37.9153 50.9207 39.2077C52.0426 40.3512 53.5405 40.9408 55.4263 40.9408C58.2073 40.9408 59.9618 39.2613 60.7197 36.7122H60.7137V36.7182ZM53.451 28.5112C53.9523 28.0109 54.6266 27.7488 55.3666 27.7488C56.1902 27.7488 56.6915 27.9811 57.1629 28.398C57.7239 28.9578 58.0163 29.8988 58.0163 31.4235C58.0163 32.567 57.8373 32.8052 56.954 32.8052H52.0068C52.1858 30.8637 52.717 29.1603 53.451 28.5112Z" fill="#D92228"/>
<path fill-rule="evenodd" clip-rule="evenodd" d="M35.1002 32.3467L26.059 23.0736L17 32.3467H19.7631V40.6668H32.3431V32.3467H35.1002ZM29.5084 29.9167C29.2697 29.6785 28.8877 29.5475 28.4282 29.5475C27.6703 29.5475 27.1929 29.8631 26.8647 30.1371L26.8587 30.143C26.5305 30.4587 26.1545 30.8875 25.8442 31.7213C25.8489 31.5379 25.8536 31.2989 25.8583 31.0598L25.8621 30.8696C25.874 30.4051 25.88 30.0061 25.88 29.9584C25.88 29.8572 25.8084 29.75 25.6532 29.75H22.7111V30.0001L22.7887 30.0061C23.0274 30.0239 23.2542 30.0477 23.4631 30.1966C23.6481 30.3217 23.7614 30.4944 23.7973 30.7148C23.8569 30.9709 23.8569 31.7213 23.8569 32.0429V36.3013C23.8569 36.736 23.845 37.3316 23.7794 37.7306C23.66 38.1178 23.5347 38.2369 23.2781 38.3679C23.1348 38.4334 22.9558 38.4811 22.7529 38.5049L22.6694 38.5108V38.761H27.0616V38.5108L26.984 38.5049C26.805 38.487 26.6737 38.4632 26.4947 38.3858C26.3634 38.3381 26.25 38.219 26.1306 37.9986C25.9576 37.6294 25.8502 37.2125 25.8502 36.2V34.4252C25.8502 33.8892 25.874 33.371 25.8919 33.1447C26.0889 31.7273 26.8587 30.5897 27.36 30.5897C27.551 30.5897 27.6763 30.7982 27.8135 31.1317C27.9747 31.5129 28.2014 31.9178 28.8519 31.9178C29.4965 31.9178 29.8366 31.3759 29.8366 30.8339C29.8426 30.4646 29.7352 30.1669 29.5084 29.9167Z" fill="#D92228"/>
<path d="M257 39L273 23.0001" stroke="#1A1816" stroke-width="2" stroke-linecap="round"/>
<path d="M273 39L257 23.0001" stroke="#1A1816" stroke-width="2" stroke-linecap="round"/>
<mask id="path-7-inside-1_406_36211" fill="white">
<path d="M1 61H291V109H1V61Z"/>
</mask>
<path d="M1 61H291V109H1V61Z" fill="white"/>
<path d="M291 109V108H1V109V110H291V109Z" fill="#BEB8B0" mask="url(#path-7-inside-1_406_36211)"/>
<path d="M23.874 85.17V85.226C24.784 85.324 25.638 86.108 25.638 87.424C25.638 88.936 24.658 90 22.67 90H18.106V80.62H22.572C24.294 80.62 25.358 81.642 25.358 83.154C25.358 84.344 24.56 85.058 23.874 85.17ZM19.604 81.908V84.68H22.404C23.3 84.68 23.902 84.106 23.902 83.238C23.902 82.44 23.286 81.908 22.418 81.908H19.604ZM19.604 88.712H22.516C23.524 88.712 24.098 88.138 24.098 87.284C24.098 86.43 23.468 85.884 22.558 85.884H19.604V88.712ZM33.7205 83.056V90H32.2645V89.146C31.7045 89.818 30.8925 90.196 29.8705 90.196C28.1905 90.196 27.0845 88.992 27.0845 87.242V83.056H28.5405V86.948C28.5405 88.082 29.1985 88.852 30.2065 88.852C31.4525 88.852 32.2645 88.012 32.2645 86.262V83.056H33.7205ZM42.6681 83.042L38.0761 93.36H36.4521L38.0201 89.832L35.0241 83.042H36.6481L38.8041 88.068L41.0441 83.042H42.6681Z" fill="#1A1816"/>
<g clip-path="url(#clip1_406_36211)">
<path fill-rule="evenodd" clip-rule="evenodd" d="M271.707 81.2929C271.317 80.9024 270.683 80.9024 270.293 81.2929L265 86.5858L259.707 81.2929C259.317 80.9024 258.683 80.9024 258.293 81.2929C257.902 81.6834 257.902 82.3166 258.293 82.7071L264.293 88.7071C264.683 89.0976 265.317 89.0976 265.707 88.7071L271.707 82.7071C272.098 82.3166 272.098 81.6834 271.707 81.2929Z" fill="#1A1816"/>
</g>
<mask id="path-11-inside-2_406_36211" fill="white">
<path d="M1 109H291V157H1V109Z"/>
</mask>
<path d="M1 109H291V157H1V109Z" fill="white"/>
<path d="M291 157V156H1V157V158H291V157Z" fill="#BEB8B0" mask="url(#path-11-inside-2_406_36211)"/>
<path d="M21.382 128.424C23.286 128.424 24.658 129.46 24.994 131.07L23.496 131.378C23.328 130.384 22.474 129.726 21.354 129.726C20.248 129.726 19.52 130.328 19.52 131.154C19.52 131.812 19.898 132.162 20.71 132.33L22.74 132.764C24.14 133.072 25.148 133.856 25.148 135.326C25.148 137.09 23.706 138.196 21.55 138.196C19.562 138.196 17.91 137.23 17.672 135.41L19.268 135.074C19.492 136.278 20.43 136.866 21.69 136.866C22.95 136.866 23.664 136.264 23.664 135.41C23.664 134.696 23.286 134.36 22.348 134.164L20.304 133.744C19.142 133.478 17.938 132.862 17.938 131.196C17.938 129.544 19.296 128.424 21.382 128.424ZM33.447 134.374V134.878H27.819C27.959 136.166 28.897 136.936 29.919 136.936C30.689 136.936 31.473 136.712 31.963 135.732L33.265 136.012C32.691 137.468 31.459 138.196 29.919 138.196C28.029 138.196 26.377 136.74 26.377 134.542C26.377 132.33 28.015 130.86 29.975 130.86C31.837 130.86 33.377 132.288 33.447 134.374ZM29.975 132.148C29.065 132.148 28.085 132.722 27.861 133.842H31.949C31.725 132.708 30.927 132.148 29.975 132.148ZM36.5151 138H35.0591V127.22H36.5151V138ZM40.1792 138H38.7232V127.22H40.1792V138Z" fill="#1A1816"/>
<g clip-path="url(#clip2_406_36211)">
<path fill-rule="evenodd" clip-rule="evenodd" d="M271.707 129.293C271.317 128.902 270.683 128.902 270.293 129.293L265 134.586L259.707 129.293C259.317 128.902 258.683 128.902 258.293 129.293C257.902 129.683 257.902 130.317 258.293 130.707L264.293 136.707C264.683 137.098 265.317 137.098 265.707 136.707L271.707 130.707C272.098 130.317 272.098 129.683 271.707 129.293Z" fill="#1A1816"/>
</g>
<mask id="path-15-inside-3_406_36211" fill="white">
<path d="M1 157H291V205H1V157Z"/>
</mask>
<path d="M1 157H291V205H1V157Z" fill="white"/>
<path d="M291 205V204H1V205V206H291V205Z" fill="#BEB8B0" mask="url(#path-15-inside-3_406_36211)"/>
<path d="M26.17 186H24.308L20.962 182.262H19.604V186H18.106V176.62H22.516C24.448 176.62 25.736 177.754 25.736 179.448C25.736 181.058 24.56 182.15 22.782 182.248L26.17 186ZM19.604 180.904H22.516C23.552 180.904 24.238 180.316 24.238 179.448C24.238 178.566 23.552 177.978 22.516 177.978H19.604V180.904ZM33.7615 182.374V182.878H28.1335C28.2735 184.166 29.2115 184.936 30.2335 184.936C31.0035 184.936 31.7875 184.712 32.2775 183.732L33.5795 184.012C33.0055 185.468 31.7735 186.196 30.2335 186.196C28.3435 186.196 26.6915 184.74 26.6915 182.542C26.6915 180.33 28.3295 178.86 30.2895 178.86C32.1515 178.86 33.6915 180.288 33.7615 182.374ZM30.2895 180.148C29.3795 180.148 28.3995 180.722 28.1755 181.842H32.2635C32.0395 180.708 31.2415 180.148 30.2895 180.148ZM39.2376 178.86C40.9036 178.86 42.0236 180.064 42.0236 181.8V186H40.5536V182.094C40.5536 180.96 39.8956 180.204 38.9016 180.204C37.6556 180.204 36.8296 181.044 36.8296 182.794V186H35.3736V179.056H36.8296V179.91C37.3896 179.238 38.2016 178.86 39.2376 178.86ZM48.2272 184.446L48.6752 185.664C48.0172 186.056 47.5412 186.196 46.9532 186.196C45.4552 186.196 44.4472 185.356 44.4472 183.634V180.26H42.9492V179.056H44.4472V176.62H45.9032V179.056H48.2832V180.26H45.9032V183.536C45.9032 184.404 46.3652 184.824 47.0512 184.824C47.4152 184.824 47.8632 184.684 48.2272 184.446Z" fill="#1A1816"/>
<g clip-path="url(#clip3_406_36211)">
<path fill-rule="evenodd" clip-rule="evenodd" d="M271.707 177.293C271.317 176.902 270.683 176.902 270.293 177.293L265 182.586L259.707 177.293C259.317 176.902 258.683 176.902 258.293 177.293C257.902 177.683 257.902 178.317 258.293 178.707L264.293 184.707C264.683 185.098 265.317 185.098 265.707 184.707L271.707 178.707C272.098 178.317 272.098 177.683 271.707 177.293Z" fill="#1A1816"/>
</g>
<mask id="path-19-inside-4_406_36211" fill="white">
<path d="M1 205H291V253H1V205Z"/>
</mask>
<path d="M1 205H291V253H1V205Z" fill="white"/>
<path d="M291 253V252H1V253V254H291V253Z" fill="#BEB8B0" mask="url(#path-19-inside-4_406_36211)"/>
<path d="M28.382 224.62V234H26.926V227.798L23.608 234H22.894L19.562 227.798V234H18.106V224.62H19.422L23.244 231.718L27.08 224.62H28.382ZM33.7244 226.902C35.7684 226.902 37.4344 228.372 37.4344 230.528C37.4344 232.684 35.7684 234.168 33.7244 234.168C31.6664 234.168 29.9864 232.684 29.9864 230.528C29.9864 228.372 31.6664 226.902 33.7244 226.902ZM33.7244 232.908C34.9144 232.908 36.0204 231.97 36.0204 230.528C36.0204 229.086 34.9144 228.148 33.7244 228.148C32.5064 228.148 31.4144 229.086 31.4144 230.528C31.4144 231.97 32.5064 232.908 33.7244 232.908ZM43.167 226.972C43.335 226.972 43.475 226.972 43.657 227.028L43.559 228.428C43.447 228.414 43.279 228.414 43.153 228.414C41.389 228.414 40.521 229.646 40.521 231.55V234H39.065V227.056H40.521V228.54C41.081 227.616 41.963 226.972 43.167 226.972ZM49.2663 232.446L49.7143 233.664C49.0563 234.056 48.5803 234.196 47.9923 234.196C46.4943 234.196 45.4863 233.356 45.4863 231.634V228.26H43.9883V227.056H45.4863V224.62H46.9423V227.056H49.3223V228.26H46.9423V231.536C46.9423 232.404 47.4043 232.824 48.0903 232.824C48.4543 232.824 48.9023 232.684 49.2663 232.446ZM57.5454 227.056V234.224C57.5314 236.282 55.8934 237.5 53.7514 237.5C52.0854 237.5 50.9374 236.87 50.3634 235.834L51.5674 234.854C52.0714 235.652 52.6594 236.072 53.7514 236.072C55.0394 236.072 56.0754 235.33 56.0754 234.014V233.146C55.4874 233.818 54.6334 234.196 53.5554 234.196C51.7494 234.196 50.1114 232.726 50.1114 230.528C50.1114 228.344 51.7494 226.86 53.5554 226.86C54.6334 226.86 55.4874 227.252 56.0754 227.91V227.056H57.5454ZM53.7934 232.908C54.9554 232.908 56.0754 231.998 56.0754 230.528C56.0754 229.072 54.9554 228.148 53.7934 228.148C52.5334 228.148 51.5394 229.072 51.5394 230.528C51.5394 231.998 52.5334 232.908 53.7934 232.908ZM62.5229 226.86C64.3009 226.86 65.4769 227.798 65.4769 229.478V234H64.0909V233.202C63.5729 233.776 62.8029 234.196 61.7249 234.196C60.1709 234.196 59.1349 233.3 59.1349 231.998C59.1349 230.696 60.1289 229.8 61.9209 229.8H64.0909V229.59C64.0909 228.694 63.4889 228.134 62.6069 228.134C61.6689 228.134 61.0669 228.554 60.9129 229.338L59.5269 229.044C59.7649 227.742 60.9689 226.86 62.5229 226.86ZM61.9489 233.02C63.1109 233.02 64.0909 232.208 64.0909 231.144V230.92H61.8929C61.0389 230.92 60.5349 231.354 60.5349 231.97C60.5349 232.6 61.0949 233.02 61.9489 233.02ZM74.2114 227.056V234.224C74.1974 236.282 72.5594 237.5 70.4174 237.5C68.7514 237.5 67.6034 236.87 67.0294 235.834L68.2334 234.854C68.7374 235.652 69.3254 236.072 70.4174 236.072C71.7054 236.072 72.7414 235.33 72.7414 234.014V233.146C72.1534 233.818 71.2994 234.196 70.2214 234.196C68.4154 234.196 66.7774 232.726 66.7774 230.528C66.7774 228.344 68.4154 226.86 70.2214 226.86C71.2994 226.86 72.1534 227.252 72.7414 227.91V227.056H74.2114ZM70.4594 232.908C71.6214 232.908 72.7414 231.998 72.7414 230.528C72.7414 229.072 71.6214 228.148 70.4594 228.148C69.1994 228.148 68.2054 229.072 68.2054 230.528C68.2054 231.998 69.1994 232.908 70.4594 232.908ZM82.8709 230.374V230.878H77.2429C77.3829 232.166 78.3209 232.936 79.3429 232.936C80.1129 232.936 80.8969 232.712 81.3869 231.732L82.6889 232.012C82.1149 233.468 80.8829 234.196 79.3429 234.196C77.4529 234.196 75.8009 232.74 75.8009 230.542C75.8009 228.33 77.4389 226.86 79.3989 226.86C81.2609 226.86 82.8009 228.288 82.8709 230.374ZM79.3989 228.148C78.4889 228.148 77.5089 228.722 77.2849 229.842H81.3729C81.1489 228.708 80.3509 228.148 79.3989 228.148Z" fill="#1A1816"/>
<g clip-path="url(#clip4_406_36211)">
<path fill-rule="evenodd" clip-rule="evenodd" d="M273.707 225.293C273.317 224.902 272.683 224.902 272.293 225.293L267 230.586L261.707 225.293C261.317 224.902 260.683 224.902 260.293 225.293C259.902 225.683 259.902 226.317 260.293 226.707L266.293 232.707C266.683 233.098 267.317 233.098 267.707 232.707L273.707 226.707C274.098 226.317 274.098 225.683 273.707 225.293Z" fill="#1A1816"/>
</g>
<mask id="path-23-inside-5_406_36211" fill="white">
<path d="M1 253H291V301H1V253Z"/>
</mask>
<path d="M1 253H291V301H1V253Z" fill="white"/>
<path d="M291 301V300H1V301V302H291V301Z" fill="#BEB8B0" mask="url(#path-23-inside-5_406_36211)"/>
<path d="M19.604 273.978V276.764H24.448V278.122H19.604V282H18.106V272.62H24.966V273.978H19.604ZM27.2448 272.06C27.7768 272.06 28.1688 272.48 28.1688 272.97C28.1688 273.488 27.7768 273.866 27.2448 273.866C26.6988 273.866 26.3068 273.488 26.3068 272.97C26.3068 272.48 26.6988 272.06 27.2448 272.06ZM27.9728 282H26.5168V275.056H27.9728V282ZM34.1516 274.86C35.8176 274.86 36.9376 276.064 36.9376 277.8V282H35.4676V278.094C35.4676 276.96 34.8096 276.204 33.8156 276.204C32.5696 276.204 31.7436 277.044 31.7436 278.794V282H30.2876V275.056H31.7436V275.91C32.3036 275.238 33.1156 274.86 34.1516 274.86ZM45.8013 271.22V282H44.3313V281.146C43.7433 281.818 42.8893 282.196 41.8113 282.196C40.0053 282.196 38.3673 280.726 38.3673 278.528C38.3673 276.344 40.0053 274.86 41.8113 274.86C42.8893 274.86 43.7433 275.252 44.3313 275.91V271.22H45.8013ZM42.0493 280.908C43.2113 280.908 44.3313 279.998 44.3313 278.528C44.3313 277.072 43.2113 276.148 42.0493 276.148C40.7893 276.148 39.7953 277.072 39.7953 278.528C39.7953 279.998 40.7893 280.908 42.0493 280.908ZM59.5157 282H57.6537L54.3077 278.262H52.9497V282H51.4517V272.62H55.8617C57.7937 272.62 59.0817 273.754 59.0817 275.448C59.0817 277.058 57.9057 278.15 56.1277 278.248L59.5157 282ZM52.9497 276.904H55.8617C56.8977 276.904 57.5837 276.316 57.5837 275.448C57.5837 274.566 56.8977 273.978 55.8617 273.978H52.9497V276.904ZM67.1072 278.374V278.878H61.4792C61.6192 280.166 62.5572 280.936 63.5792 280.936C64.3492 280.936 65.1332 280.712 65.6232 279.732L66.9252 280.012C66.3512 281.468 65.1192 282.196 63.5792 282.196C61.6892 282.196 60.0372 280.74 60.0372 278.542C60.0372 276.33 61.6752 274.86 63.6352 274.86C65.4972 274.86 67.0372 276.288 67.1072 278.374ZM63.6352 276.148C62.7252 276.148 61.7452 276.722 61.5212 277.842H65.6092C65.3852 276.708 64.5872 276.148 63.6352 276.148ZM71.5053 274.86C73.2833 274.86 74.4593 275.798 74.4593 277.478V282H73.0733V281.202C72.5553 281.776 71.7853 282.196 70.7073 282.196C69.1533 282.196 68.1173 281.3 68.1173 279.998C68.1173 278.696 69.1113 277.8 70.9033 277.8H73.0733V277.59C73.0733 276.694 72.4713 276.134 71.5893 276.134C70.6513 276.134 70.0493 276.554 69.8953 277.338L68.5093 277.044C68.7473 275.742 69.9513 274.86 71.5053 274.86ZM70.9313 281.02C72.0933 281.02 73.0733 280.208 73.0733 279.144V278.92H70.8753C70.0213 278.92 69.5173 279.354 69.5173 279.97C69.5173 280.6 70.0773 281.02 70.9313 281.02ZM77.8179 282H76.3619V271.22H77.8179V282ZM84.1979 280.446L84.6459 281.664C83.9879 282.056 83.5119 282.196 82.9239 282.196C81.4259 282.196 80.4179 281.356 80.4179 279.634V276.26H78.9199V275.056H80.4179V272.62H81.8739V275.056H84.2539V276.26H81.8739V279.536C81.8739 280.404 82.3359 280.824 83.0219 280.824C83.3859 280.824 83.8339 280.684 84.1979 280.446ZM88.7811 274.902C90.8251 274.902 92.4911 276.372 92.4911 278.528C92.4911 280.684 90.8251 282.168 88.7811 282.168C86.7231 282.168 85.0431 280.684 85.0431 278.528C85.0431 276.372 86.7231 274.902 88.7811 274.902ZM88.7811 280.908C89.9711 280.908 91.0771 279.97 91.0771 278.528C91.0771 277.086 89.9711 276.148 88.7811 276.148C87.5631 276.148 86.4711 277.086 86.4711 278.528C86.4711 279.97 87.5631 280.908 88.7811 280.908ZM98.2236 274.972C98.3916 274.972 98.5316 274.972 98.7136 275.028L98.6156 276.428C98.5036 276.414 98.3356 276.414 98.2096 276.414C96.4456 276.414 95.5776 277.646 95.5776 279.55V282H94.1216V275.056H95.5776V276.54C96.1376 275.616 97.0196 274.972 98.2236 274.972ZM99.3168 280.138L100.773 279.83C100.871 280.656 101.599 281.006 102.509 281.006C103.349 281.006 103.881 280.628 103.881 280.082C103.881 279.662 103.587 279.396 102.943 279.256L101.431 278.948C100.227 278.682 99.5408 278.038 99.5408 277.058C99.5408 275.77 100.619 274.86 102.285 274.86C103.881 274.86 104.959 275.7 105.211 276.862L103.825 277.156C103.713 276.484 103.139 276.022 102.243 276.022C101.389 276.022 101.011 276.442 101.011 276.932C101.011 277.324 101.235 277.576 101.851 277.716L103.503 278.08C104.623 278.318 105.309 278.976 105.309 279.956C105.309 281.412 104.119 282.196 102.383 282.196C100.829 282.196 99.4988 281.538 99.3168 280.138ZM109.08 272.424C110.62 272.424 111.88 273.6 111.88 275.238C111.88 276.862 110.62 278.038 109.08 278.038C107.54 278.038 106.28 276.862 106.28 275.238C106.28 273.6 107.54 272.424 109.08 272.424ZM109.08 277.576C110.354 277.576 111.404 276.582 111.404 275.238C111.404 273.88 110.354 272.886 109.08 272.886C107.82 272.886 106.77 273.88 106.77 275.238C106.77 276.582 107.82 277.576 109.08 277.576ZM110.298 274.706C110.298 275.14 110.018 275.448 109.584 275.546L110.438 276.47H109.85L109.038 275.588H108.548V276.47H108.072V273.852H109.248C109.878 273.852 110.298 274.188 110.298 274.706ZM108.548 275.168H109.248C109.584 275.168 109.808 274.986 109.808 274.72C109.808 274.454 109.584 274.286 109.248 274.286H108.548V275.168Z" fill="#1A1816"/>
<g clip-path="url(#clip5_406_36211)">
<path fill-rule="evenodd" clip-rule="evenodd" d="M273.707 273.293C273.317 272.902 272.683 272.902 272.293 273.293L267 278.586L261.707 273.293C261.317 272.902 260.683 272.902 260.293 273.293C259.902 273.683 259.902 274.317 260.293 274.707L266.293 280.707C266.683 281.098 267.317 281.098 267.707 280.707L273.707 274.707C274.098 274.317 274.098 273.683 273.707 273.293Z" fill="#1A1816"/>
</g>
<mask id="path-27-inside-6_406_36211" fill="white">
<path d="M1 301H291V349H1V301Z"/>
</mask>
<path d="M1 301H291V349H1V301Z" fill="white"/>
<path d="M291 349V348H1V349V350H291V349Z" fill="#BEB8B0" mask="url(#path-27-inside-6_406_36211)"/>
<path d="M28.382 320.62V330H26.926V323.798L23.608 330H22.894L19.562 323.798V330H18.106V320.62H19.422L23.244 327.718L27.08 320.62H28.382ZM37.3224 323.042L32.7304 333.36H31.1064L32.6744 329.832L29.6784 323.042H31.3024L33.4584 328.068L35.6984 323.042H37.3224ZM50.1368 320.62V330H48.6388V325.968H43.5708V330H42.0728V320.62H43.5708V324.596H48.6388V320.62H50.1368ZM55.49 322.902C57.534 322.902 59.2 324.372 59.2 326.528C59.2 328.684 57.534 330.168 55.49 330.168C53.432 330.168 51.752 328.684 51.752 326.528C51.752 324.372 53.432 322.902 55.49 322.902ZM55.49 328.908C56.68 328.908 57.786 327.97 57.786 326.528C57.786 325.086 56.68 324.148 55.49 324.148C54.272 324.148 53.18 325.086 53.18 326.528C53.18 327.97 54.272 328.908 55.49 328.908ZM69.4126 322.86C70.8546 322.86 72.0446 323.938 72.0446 325.576V330H70.6026V325.87C70.6026 324.848 69.9306 324.204 69.0346 324.204C67.9006 324.204 67.1586 325.002 67.1586 326.556V330H65.7026V325.87C65.7026 324.848 65.0306 324.204 64.1346 324.204C63.0146 324.204 62.2866 325.002 62.2866 326.556V330H60.8306V323.056H62.2866V323.84C62.7906 323.224 63.5186 322.86 64.5126 322.86C65.5066 322.86 66.3746 323.322 66.8226 324.134C67.3826 323.35 68.2646 322.86 69.4126 322.86ZM80.574 326.374V326.878H74.946C75.086 328.166 76.024 328.936 77.046 328.936C77.816 328.936 78.6 328.712 79.09 327.732L80.392 328.012C79.818 329.468 78.586 330.196 77.046 330.196C75.156 330.196 73.504 328.74 73.504 326.542C73.504 324.33 75.142 322.86 77.102 322.86C78.964 322.86 80.504 324.288 80.574 326.374ZM77.102 324.148C76.192 324.148 75.212 324.722 74.988 325.842H79.076C78.852 324.708 78.054 324.148 77.102 324.148Z" fill="#1A1816"/>
<mask id="path-30-inside-7_406_36211" fill="white">
<path d="M1 349H291V397H1V349Z"/>
</mask>
<path d="M1 349H291V397H1V349Z" fill="white"/>
<path d="M291 397V396H1V397V398H291V397Z" fill="#BEB8B0" mask="url(#path-30-inside-7_406_36211)"/>
<path d="M26.548 368.62V378H25.274L19.604 371.266V378H18.106V368.62H19.38L25.036 375.466V368.62H26.548ZM35.2244 374.374V374.878H29.5964C29.7364 376.166 30.6744 376.936 31.6964 376.936C32.4664 376.936 33.2504 376.712 33.7404 375.732L35.0424 376.012C34.4684 377.468 33.2364 378.196 31.6964 378.196C29.8064 378.196 28.1544 376.74 28.1544 374.542C28.1544 372.33 29.7924 370.86 31.7524 370.86C33.6144 370.86 35.1544 372.288 35.2244 374.374ZM31.7524 372.148C30.8424 372.148 29.8624 372.722 29.6384 373.842H33.7264C33.5024 372.708 32.7044 372.148 31.7524 372.148ZM46.3718 371.056L44.0478 378.028H42.7178L41.1218 373.352L39.5258 378.028H38.1958L35.8718 371.056H37.3278L38.9098 375.886L40.5478 371.056H41.6958L43.3338 375.886L44.9158 371.056H46.3718ZM47.0903 376.138L48.5463 375.83C48.6443 376.656 49.3723 377.006 50.2823 377.006C51.1223 377.006 51.6543 376.628 51.6543 376.082C51.6543 375.662 51.3603 375.396 50.7163 375.256L49.2043 374.948C48.0003 374.682 47.3143 374.038 47.3143 373.058C47.3143 371.77 48.3923 370.86 50.0583 370.86C51.6543 370.86 52.7323 371.7 52.9843 372.862L51.5983 373.156C51.4863 372.484 50.9123 372.022 50.0163 372.022C49.1623 372.022 48.7843 372.442 48.7843 372.932C48.7843 373.324 49.0083 373.576 49.6243 373.716L51.2763 374.08C52.3963 374.318 53.0823 374.976 53.0823 375.956C53.0823 377.412 51.8923 378.196 50.1563 378.196C48.6023 378.196 47.2723 377.538 47.0903 376.138ZM65.7939 378.336L64.3799 377.118C63.6099 377.832 62.5739 378.196 61.4819 378.196C59.3259 378.196 57.8839 377.048 57.8839 375.312C57.8839 374.22 58.5699 373.366 59.5779 372.862C59.0739 372.246 58.8499 371.658 58.8499 370.944C58.8499 369.446 60.0679 368.424 61.6919 368.424C63.3439 368.424 64.3659 369.446 64.5619 371L63.1899 371.252C63.0919 370.09 62.5179 369.656 61.6919 369.656C60.8659 369.656 60.2499 370.132 60.2499 370.972C60.2499 371.728 60.6979 372.274 61.8879 373.268L64.0999 375.172C64.2399 374.794 64.3239 374.346 64.3239 373.842V373.17H65.6259V373.842C65.6259 374.71 65.4439 375.452 65.1499 376.068L66.6479 377.356L65.7939 378.336ZM61.4819 376.964C62.1539 376.964 62.8399 376.726 63.3719 376.25L60.7399 373.982L60.4459 373.73C59.7459 374.08 59.3119 374.654 59.3119 375.312C59.3119 376.306 60.1799 376.964 61.4819 376.964ZM74.3217 369.978V376.642H76.3797V378H70.7517V376.642H72.8097V369.978H70.7517V368.62H76.3797V369.978H74.3217ZM81.6751 370.86C83.3411 370.86 84.4611 372.064 84.4611 373.8V378H82.9911V374.094C82.9911 372.96 82.3331 372.204 81.3391 372.204C80.0931 372.204 79.2671 373.044 79.2671 374.794V378H77.8111V371.056H79.2671V371.91C79.8271 371.238 80.6391 370.86 81.6751 370.86ZM85.9047 376.138L87.3607 375.83C87.4587 376.656 88.1867 377.006 89.0967 377.006C89.9367 377.006 90.4687 376.628 90.4687 376.082C90.4687 375.662 90.1747 375.396 89.5307 375.256L88.0187 374.948C86.8147 374.682 86.1287 374.038 86.1287 373.058C86.1287 371.77 87.2067 370.86 88.8727 370.86C90.4687 370.86 91.5467 371.7 91.7987 372.862L90.4127 373.156C90.3007 372.484 89.7267 372.022 88.8307 372.022C87.9767 372.022 87.5987 372.442 87.5987 372.932C87.5987 373.324 87.8227 373.576 88.4387 373.716L90.0907 374.08C91.2107 374.318 91.8967 374.976 91.8967 375.956C91.8967 377.412 90.7067 378.196 88.9707 378.196C87.4167 378.196 86.0867 377.538 85.9047 376.138ZM94.3874 368.06C94.9194 368.06 95.3114 368.48 95.3114 368.97C95.3114 369.488 94.9194 369.866 94.3874 369.866C93.8414 369.866 93.4494 369.488 93.4494 368.97C93.4494 368.48 93.8414 368.06 94.3874 368.06ZM95.1154 378H93.6594V371.056H95.1154V378ZM104.262 371.056V378.224C104.248 380.282 102.61 381.5 100.468 381.5C98.8022 381.5 97.6542 380.87 97.0802 379.834L98.2842 378.854C98.7882 379.652 99.3762 380.072 100.468 380.072C101.756 380.072 102.792 379.33 102.792 378.014V377.146C102.204 377.818 101.35 378.196 100.272 378.196C98.4662 378.196 96.8282 376.726 96.8282 374.528C96.8282 372.344 98.4662 370.86 100.272 370.86C101.35 370.86 102.204 371.252 102.792 371.91V371.056H104.262ZM100.51 376.908C101.672 376.908 102.792 375.998 102.792 374.528C102.792 373.072 101.672 372.148 100.51 372.148C99.2502 372.148 98.2562 373.072 98.2562 374.528C98.2562 375.998 99.2502 376.908 100.51 376.908ZM110.318 370.86C111.984 370.86 113.104 372.064 113.104 373.8V378H111.634V374.094C111.634 372.96 110.976 372.204 109.982 372.204C108.736 372.204 107.91 373.044 107.91 374.794V378H106.454V367.22H107.91V371.91C108.47 371.238 109.282 370.86 110.318 370.86ZM119.321 376.446L119.769 377.664C119.111 378.056 118.635 378.196 118.047 378.196C116.549 378.196 115.541 377.356 115.541 375.634V372.26H114.043V371.056H115.541V368.62H116.997V371.056H119.377V372.26H116.997V375.536C116.997 376.404 117.459 376.824 118.145 376.824C118.509 376.824 118.957 376.684 119.321 376.446ZM120.358 376.138L121.814 375.83C121.912 376.656 122.64 377.006 123.55 377.006C124.39 377.006 124.922 376.628 124.922 376.082C124.922 375.662 124.628 375.396 123.984 375.256L122.472 374.948C121.268 374.682 120.582 374.038 120.582 373.058C120.582 371.77 121.66 370.86 123.326 370.86C124.922 370.86 126 371.7 126.252 372.862L124.866 373.156C124.754 372.484 124.18 372.022 123.284 372.022C122.43 372.022 122.052 372.442 122.052 372.932C122.052 373.324 122.276 373.576 122.892 373.716L124.544 374.08C125.664 374.318 126.35 374.976 126.35 375.956C126.35 377.412 125.16 378.196 123.424 378.196C121.87 378.196 120.54 377.538 120.358 376.138Z" fill="#1A1816"/>
<path fill-rule="evenodd" clip-rule="evenodd" d="M265.707 369.293C265.317 368.902 264.683 368.902 264.293 369.293L259 374.586L253.707 369.293C253.317 368.902 252.683 368.902 252.293 369.293C251.902 369.683 251.902 370.317 252.293 370.707L258.293 376.707C258.683 377.098 259.317 377.098 259.707 376.707L265.707 370.707C266.098 370.317 266.098 369.683 265.707 369.293Z" fill="#1A1816"/>
<mask id="path-34-inside-8_406_36211" fill="white">
<path d="M1 397H291V445H1V397Z"/>
</mask>
<path d="M1 397H291V445H1V397Z" fill="white"/>
<path d="M291 445V444H1V445V446H291V445Z" fill="#BEB8B0" mask="url(#path-34-inside-8_406_36211)"/>
<path d="M26.73 426H25.106L24.182 423.816H19.618L18.694 426H17.07L21.2 416.62H22.6L26.73 426ZM23.594 422.444L21.9 418.454L20.206 422.444H23.594ZM34.5903 415.22V426H33.1203V425.146C32.5323 425.818 31.6783 426.196 30.6003 426.196C28.7943 426.196 27.1563 424.726 27.1563 422.528C27.1563 420.344 28.7943 418.86 30.6003 418.86C31.6783 418.86 32.5323 419.252 33.1203 419.91V415.22H34.5903ZM30.8383 424.908C32.0003 424.908 33.1203 423.998 33.1203 422.528C33.1203 421.072 32.0003 420.148 30.8383 420.148C29.5783 420.148 28.5843 421.072 28.5843 422.528C28.5843 423.998 29.5783 424.908 30.8383 424.908ZM43.4038 419.042L40.4078 426H38.8538L35.8718 419.042H37.4538L39.6378 424.264L41.8218 419.042H43.4038ZM50.9607 422.374V422.878H45.3327C45.4727 424.166 46.4107 424.936 47.4327 424.936C48.2027 424.936 48.9867 424.712 49.4767 423.732L50.7787 424.012C50.2047 425.468 48.9727 426.196 47.4327 426.196C45.5427 426.196 43.8907 424.74 43.8907 422.542C43.8907 420.33 45.5287 418.86 47.4887 418.86C49.3507 418.86 50.8907 420.288 50.9607 422.374ZM47.4887 420.148C46.5787 420.148 45.5987 420.722 45.3747 421.842H49.4627C49.2387 420.708 48.4407 420.148 47.4887 420.148ZM56.6748 418.972C56.8428 418.972 56.9828 418.972 57.1648 419.028L57.0668 420.428C56.9548 420.414 56.7868 420.414 56.6608 420.414C54.8968 420.414 54.0288 421.646 54.0288 423.55V426H52.5728V419.056H54.0288V420.54C54.5888 419.616 55.4708 418.972 56.6748 418.972ZM62.7741 424.446L63.2221 425.664C62.5641 426.056 62.0881 426.196 61.5001 426.196C60.0021 426.196 58.9941 425.356 58.9941 423.634V420.26H57.4961V419.056H58.9941V416.62H60.4501V419.056H62.8301V420.26H60.4501V423.536C60.4501 424.404 60.9121 424.824 61.5981 424.824C61.9621 424.824 62.4101 424.684 62.7741 424.446ZM65.239 416.06C65.771 416.06 66.163 416.48 66.163 416.97C66.163 417.488 65.771 417.866 65.239 417.866C64.693 417.866 64.301 417.488 64.301 416.97C64.301 416.48 64.693 416.06 65.239 416.06ZM65.967 426H64.511V419.056H65.967V426ZM67.6938 424.138L69.1498 423.83C69.2478 424.656 69.9758 425.006 70.8858 425.006C71.7258 425.006 72.2578 424.628 72.2578 424.082C72.2578 423.662 71.9638 423.396 71.3198 423.256L69.8078 422.948C68.6038 422.682 67.9178 422.038 67.9178 421.058C67.9178 419.77 68.9958 418.86 70.6618 418.86C72.2578 418.86 73.3358 419.7 73.5878 420.862L72.2018 421.156C72.0898 420.484 71.5158 420.022 70.6198 420.022C69.7658 420.022 69.3878 420.442 69.3878 420.932C69.3878 421.324 69.6118 421.576 70.2278 421.716L71.8798 422.08C72.9998 422.318 73.6858 422.976 73.6858 423.956C73.6858 425.412 72.4958 426.196 70.7598 426.196C69.2058 426.196 67.8758 425.538 67.6938 424.138ZM81.8045 422.374V422.878H76.1765C76.3165 424.166 77.2545 424.936 78.2765 424.936C79.0465 424.936 79.8305 424.712 80.3205 423.732L81.6225 424.012C81.0485 425.468 79.8165 426.196 78.2765 426.196C76.3865 426.196 74.7345 424.74 74.7345 422.542C74.7345 420.33 76.3725 418.86 78.3325 418.86C80.1945 418.86 81.7345 420.288 81.8045 422.374ZM78.3325 420.148C77.4225 420.148 76.4425 420.722 76.2185 421.842H80.3065C80.0825 420.708 79.2845 420.148 78.3325 420.148Z" fill="#1A1816"/>
<rect width="290" height="100" transform="translate(1 445)" fill="white"/>
<path d="M19.604 467.978V470.764H24.448V472.122H19.604V476H18.106V466.62H24.966V467.978H19.604ZM27.2448 466.06C27.7768 466.06 28.1688 466.48 28.1688 466.97C28.1688 467.488 27.7768 467.866 27.2448 467.866C26.6988 467.866 26.3068 467.488 26.3068 466.97C26.3068 466.48 26.6988 466.06 27.2448 466.06ZM27.9728 476H26.5168V469.056H27.9728V476ZM34.1516 468.86C35.8176 468.86 36.9376 470.064 36.9376 471.8V476H35.4676V472.094C35.4676 470.96 34.8096 470.204 33.8156 470.204C32.5696 470.204 31.7436 471.044 31.7436 472.794V476H30.2876V469.056H31.7436V469.91C32.3036 469.238 33.1156 468.86 34.1516 468.86ZM45.8013 465.22V476H44.3313V475.146C43.7433 475.818 42.8893 476.196 41.8113 476.196C40.0053 476.196 38.3673 474.726 38.3673 472.528C38.3673 470.344 40.0053 468.86 41.8113 468.86C42.8893 468.86 43.7433 469.252 44.3313 469.91V465.22H45.8013ZM42.0493 474.908C43.2113 474.908 44.3313 473.998 44.3313 472.528C44.3313 471.072 43.2113 470.148 42.0493 470.148C40.7893 470.148 39.7953 471.072 39.7953 472.528C39.7953 473.998 40.7893 474.908 42.0493 474.908ZM55.3157 468.86C56.9817 468.86 58.1017 470.064 58.1017 471.8V476H56.6317V472.094C56.6317 470.96 55.9737 470.204 54.9797 470.204C53.7337 470.204 52.9077 471.044 52.9077 472.794V476H51.4517V465.22H52.9077V469.91C53.4677 469.238 54.2797 468.86 55.3157 468.86ZM63.283 468.902C65.327 468.902 66.993 470.372 66.993 472.528C66.993 474.684 65.327 476.168 63.283 476.168C61.225 476.168 59.545 474.684 59.545 472.528C59.545 470.372 61.225 468.902 63.283 468.902ZM63.283 474.908C64.473 474.908 65.579 473.97 65.579 472.528C65.579 471.086 64.473 470.148 63.283 470.148C62.065 470.148 60.973 471.086 60.973 472.528C60.973 473.97 62.065 474.908 63.283 474.908ZM77.2056 468.86C78.6476 468.86 79.8376 469.938 79.8376 471.576V476H78.3956V471.87C78.3956 470.848 77.7236 470.204 76.8276 470.204C75.6936 470.204 74.9516 471.002 74.9516 472.556V476H73.4956V471.87C73.4956 470.848 72.8236 470.204 71.9276 470.204C70.8076 470.204 70.0796 471.002 70.0796 472.556V476H68.6236V469.056H70.0796V469.84C70.5836 469.224 71.3116 468.86 72.3056 468.86C73.2996 468.86 74.1676 469.322 74.6156 470.134C75.1756 469.35 76.0576 468.86 77.2056 468.86ZM88.367 472.374V472.878H82.739C82.879 474.166 83.817 474.936 84.839 474.936C85.609 474.936 86.393 474.712 86.883 473.732L88.185 474.012C87.611 475.468 86.379 476.196 84.839 476.196C82.949 476.196 81.297 474.74 81.297 472.542C81.297 470.33 82.935 468.86 84.895 468.86C86.757 468.86 88.297 470.288 88.367 472.374ZM84.895 470.148C83.985 470.148 83.005 470.722 82.781 471.842H86.869C86.645 470.708 85.847 470.148 84.895 470.148ZM89.391 474.138L90.847 473.83C90.945 474.656 91.673 475.006 92.583 475.006C93.423 475.006 93.955 474.628 93.955 474.082C93.955 473.662 93.661 473.396 93.017 473.256L91.505 472.948C90.301 472.682 89.615 472.038 89.615 471.058C89.615 469.77 90.693 468.86 92.359 468.86C93.955 468.86 95.033 469.7 95.285 470.862L93.899 471.156C93.787 470.484 93.213 470.022 92.317 470.022C91.463 470.022 91.085 470.442 91.085 470.932C91.085 471.324 91.309 471.576 91.925 471.716L93.577 472.08C94.697 472.318 95.383 472.976 95.383 473.956C95.383 475.412 94.193 476.196 92.457 476.196C90.903 476.196 89.573 475.538 89.391 474.138ZM103.629 468.902C105.673 468.902 107.339 470.372 107.339 472.528C107.339 474.684 105.673 476.168 103.629 476.168C101.571 476.168 99.8907 474.684 99.8907 472.528C99.8907 470.372 101.571 468.902 103.629 468.902ZM103.629 474.908C104.819 474.908 105.925 473.97 105.925 472.528C105.925 471.086 104.819 470.148 103.629 470.148C102.411 470.148 101.319 471.086 101.319 472.528C101.319 473.97 102.411 474.908 103.629 474.908ZM112.833 468.86C114.499 468.86 115.619 470.064 115.619 471.8V476H114.149V472.094C114.149 470.96 113.491 470.204 112.497 470.204C111.251 470.204 110.425 471.044 110.425 472.794V476H108.969V469.056H110.425V469.91C110.985 469.238 111.797 468.86 112.833 468.86ZM125.282 474.446L125.73 475.664C125.072 476.056 124.596 476.196 124.008 476.196C122.51 476.196 121.502 475.356 121.502 473.634V470.26H120.004V469.056H121.502V466.62H122.958V469.056H125.338V470.26H122.958V473.536C122.958 474.404 123.42 474.824 124.106 474.824C124.47 474.824 124.918 474.684 125.282 474.446ZM130.771 468.86C132.437 468.86 133.557 470.064 133.557 471.8V476H132.087V472.094C132.087 470.96 131.429 470.204 130.435 470.204C129.189 470.204 128.363 471.044 128.363 472.794V476H126.907V465.22H128.363V469.91C128.923 469.238 129.735 468.86 130.771 468.86ZM142.07 472.374V472.878H136.442C136.582 474.166 137.52 474.936 138.542 474.936C139.312 474.936 140.096 474.712 140.586 473.732L141.888 474.012C141.314 475.468 140.082 476.196 138.542 476.196C136.652 476.196 135 474.74 135 472.542C135 470.33 136.638 468.86 138.598 468.86C140.46 468.86 142 470.288 142.07 472.374ZM138.598 470.148C137.688 470.148 136.708 470.722 136.484 471.842H140.572C140.348 470.708 139.55 470.148 138.598 470.148ZM153.973 469.056V476.224C153.959 478.282 152.321 479.5 150.179 479.5C148.513 479.5 147.365 478.87 146.791 477.834L147.995 476.854C148.499 477.652 149.087 478.072 150.179 478.072C151.467 478.072 152.503 477.33 152.503 476.014V475.146C151.915 475.818 151.061 476.196 149.983 476.196C148.177 476.196 146.539 474.726 146.539 472.528C146.539 470.344 148.177 468.86 149.983 468.86C151.061 468.86 151.915 469.252 152.503 469.91V469.056H153.973ZM150.221 474.908C151.383 474.908 152.503 473.998 152.503 472.528C152.503 471.072 151.383 470.148 150.221 470.148C148.961 470.148 147.967 471.072 147.967 472.528C147.967 473.998 148.961 474.908 150.221 474.908ZM159.301 468.902C161.345 468.902 163.011 470.372 163.011 472.528C163.011 474.684 161.345 476.168 159.301 476.168C157.243 476.168 155.563 474.684 155.563 472.528C155.563 470.372 157.243 468.902 159.301 468.902ZM159.301 474.908C160.491 474.908 161.597 473.97 161.597 472.528C161.597 471.086 160.491 470.148 159.301 470.148C158.083 470.148 156.991 471.086 156.991 472.528C156.991 473.97 158.083 474.908 159.301 474.908ZM166.293 466.62V467.054L166.237 473.074H164.753L164.697 467.054V466.62H166.293ZM165.481 474.278C166.013 474.278 166.405 474.684 166.405 475.16C166.405 475.664 166.013 476.056 165.481 476.056C164.949 476.056 164.571 475.664 164.571 475.16C164.571 474.684 164.949 474.278 165.481 474.278Z" fill="#2B2B2B"/>
<rect x="17.5" y="489.5" width="118.516" height="39" rx="5.5" fill="#2B2B2B"/>
<rect x="17.5" y="489.5" width="118.516" height="39" rx="5.5" stroke="#A6A6A6"/>
<path d="M41.7973 509.336C41.8081 508.502 42.0298 507.683 42.4418 506.957C42.8538 506.231 43.4428 505.621 44.1539 505.184C43.7021 504.539 43.1062 504.008 42.4134 503.634C41.7205 503.259 40.9499 503.051 40.1627 503.027C38.4835 502.85 36.8555 504.031 35.9998 504.031C35.1275 504.031 33.81 503.044 32.3913 503.073C31.4736 503.103 30.5793 503.37 29.7954 503.848C29.0115 504.326 28.3649 504.999 27.9184 505.801C25.9844 509.15 27.427 514.071 29.2796 516.777C30.2065 518.103 31.2898 519.583 32.7072 519.531C34.0943 519.473 34.6123 518.646 36.2866 518.646C37.9454 518.646 38.4314 519.531 39.8776 519.497C41.366 519.473 42.3038 518.166 43.1981 516.828C43.8641 515.884 44.3766 514.84 44.7166 513.736C43.8518 513.37 43.1139 512.758 42.5948 511.975C42.0757 511.193 41.7983 510.275 41.7973 509.336Z" fill="white"/>
<path d="M39.0657 501.247C39.8772 500.272 40.277 499.02 40.1802 497.756C38.9404 497.886 37.7951 498.479 36.9726 499.416C36.5705 499.873 36.2625 500.406 36.0662 500.982C35.87 501.559 35.7893 502.169 35.8289 502.777C36.4491 502.783 37.0626 502.649 37.6232 502.384C38.1839 502.119 38.6771 501.73 39.0657 501.247Z" fill="white"/>
<path d="M59.3307 516.175H54.5973L53.4606 519.532H51.4557L55.9391 507.114H58.0221L62.5055 519.532H60.4664L59.3307 516.175ZM55.0875 514.626H58.8395L56.9899 509.179H56.9382L55.0875 514.626Z" fill="white"/>
<path d="M72.1881 515.005C72.1881 517.819 70.6823 519.626 68.4098 519.626C67.8342 519.657 67.2617 519.524 66.7579 519.244C66.2541 518.964 65.8393 518.547 65.5612 518.042H65.5182V522.527H63.6598V510.478H65.4586V511.984H65.4928C65.7838 511.481 66.2055 511.067 66.7131 510.785C67.2208 510.504 67.7953 510.365 68.3756 510.383C70.6734 510.383 72.1881 512.2 72.1881 515.005ZM70.278 515.005C70.278 513.172 69.3307 511.967 67.8854 511.967C66.4655 511.967 65.5104 513.198 65.5104 515.005C65.5104 516.83 66.4655 518.051 67.8854 518.051C69.3307 518.051 70.278 516.855 70.278 515.005Z" fill="white"/>
<path d="M82.153 515.005C82.153 517.819 80.6471 519.626 78.3746 519.626C77.799 519.657 77.2265 519.524 76.7227 519.244C76.2189 518.964 75.8042 518.547 75.526 518.042H75.483V522.527H73.6246V510.478H75.4234V511.984H75.4576C75.7486 511.481 76.1703 511.067 76.6779 510.785C77.1856 510.504 77.7601 510.365 78.3404 510.383C80.6383 510.383 82.153 512.2 82.153 515.005ZM80.2428 515.005C80.2428 513.172 79.2955 511.967 77.8502 511.967C76.4303 511.967 75.4752 513.198 75.4752 515.005C75.4752 516.83 76.4303 518.051 77.8502 518.051C79.2955 518.051 80.2428 516.855 80.2428 515.005Z" fill="white"/>
<path d="M88.7389 516.072C88.8766 517.303 90.0729 518.112 91.7077 518.112C93.2741 518.112 94.401 517.303 94.401 516.193C94.401 515.229 93.7213 514.652 92.112 514.256L90.5026 513.869C88.2223 513.318 87.1637 512.251 87.1637 510.521C87.1637 508.378 89.0309 506.907 91.6823 506.907C94.3063 506.907 96.1051 508.378 96.1657 510.521H94.2897C94.1774 509.282 93.1529 508.534 91.6559 508.534C90.1588 508.534 89.1344 509.29 89.1344 510.392C89.1344 511.27 89.7887 511.787 91.3893 512.182L92.7574 512.518C95.3053 513.121 96.3639 514.144 96.3639 515.96C96.3639 518.284 94.5133 519.739 91.5699 519.739C88.816 519.739 86.9567 518.318 86.8365 516.072L88.7389 516.072Z" fill="white"/>
<path d="M100.375 508.335V510.478H102.096V511.95H100.375V516.941C100.375 517.716 100.719 518.078 101.476 518.078C101.681 518.074 101.885 518.06 102.088 518.035V519.498C101.747 519.561 101.401 519.59 101.055 519.583C99.2223 519.583 98.5075 518.895 98.5075 517.139V511.95H97.1911V510.478H98.5074V508.335H100.375Z" fill="white"/>
<path d="M103.093 515.005C103.093 512.157 104.771 510.367 107.387 510.367C110.012 510.367 111.682 512.157 111.682 515.005C111.682 517.862 110.021 519.644 107.387 519.644C104.755 519.644 103.093 517.862 103.093 515.005ZM109.789 515.005C109.789 513.051 108.893 511.898 107.387 511.898C105.882 511.898 104.987 513.06 104.987 515.005C104.987 516.967 105.882 518.112 107.387 518.112C108.893 518.112 109.789 516.967 109.789 515.005Z" fill="white"/>
<path d="M113.214 510.478H114.987V512.019H115.03C115.15 511.538 115.432 511.112 115.828 510.815C116.225 510.517 116.712 510.364 117.208 510.383C117.422 510.383 117.635 510.406 117.844 510.453V512.191C117.574 512.108 117.292 512.07 117.009 512.079C116.739 512.068 116.47 512.115 116.22 512.218C115.971 512.321 115.746 512.477 115.562 512.675C115.378 512.873 115.239 513.108 115.155 513.365C115.07 513.621 115.042 513.893 115.073 514.162V519.532H113.214L113.214 510.478Z" fill="white"/>
<path d="M126.413 516.873C126.163 518.516 124.562 519.644 122.514 519.644C119.881 519.644 118.246 517.879 118.246 515.048C118.246 512.208 119.889 510.367 122.436 510.367C124.941 510.367 126.516 512.087 126.516 514.833V515.469H120.122V515.582C120.092 515.915 120.134 516.25 120.244 516.566C120.354 516.882 120.53 517.171 120.761 517.413C120.991 517.656 121.27 517.847 121.58 517.973C121.89 518.099 122.223 518.158 122.557 518.146C122.996 518.187 123.437 518.085 123.814 517.856C124.191 517.627 124.483 517.282 124.648 516.873L126.413 516.873ZM120.131 514.17H124.657C124.674 513.871 124.628 513.571 124.523 513.29C124.419 513.009 124.257 512.752 124.049 512.536C123.84 512.321 123.589 512.15 123.312 512.036C123.034 511.922 122.736 511.866 122.436 511.873C122.134 511.871 121.834 511.929 121.554 512.044C121.273 512.158 121.019 512.327 120.805 512.541C120.59 512.755 120.42 513.009 120.305 513.288C120.189 513.568 120.13 513.868 120.131 514.17Z" fill="white"/>
<path d="M54.8545 497.767C55.2441 497.739 55.6351 497.798 55.9992 497.939C56.3633 498.08 56.6915 498.301 56.9601 498.585C57.2286 498.868 57.4309 499.208 57.5523 499.579C57.6737 499.95 57.7112 500.344 57.6621 500.731C57.6621 502.638 56.6318 503.733 54.8545 503.733H52.6992V497.767H54.8545ZM53.626 502.89H54.751C55.0294 502.906 55.308 502.861 55.5665 502.756C55.8251 502.651 56.057 502.49 56.2455 502.285C56.434 502.079 56.5743 501.834 56.6562 501.568C56.738 501.301 56.7594 501.02 56.7187 500.744C56.7564 500.469 56.7329 500.189 56.6498 499.924C56.5667 499.66 56.426 499.417 56.238 499.213C56.0499 499.009 55.8191 498.849 55.562 498.745C55.3049 498.641 55.028 498.594 54.751 498.61H53.626V502.89Z" fill="white"/>
<path d="M58.709 501.48C58.6807 501.184 58.7145 500.886 58.8084 500.603C58.9022 500.321 59.054 500.062 59.2539 499.842C59.4538 499.622 59.6976 499.446 59.9694 499.326C60.2413 499.206 60.5352 499.144 60.8325 499.144C61.1298 499.144 61.4238 499.206 61.6956 499.326C61.9675 499.446 62.2112 499.622 62.4111 499.842C62.6111 500.062 62.7628 500.321 62.8567 500.603C62.9505 500.886 62.9844 501.184 62.956 501.48C62.9849 501.776 62.9514 502.075 62.8579 502.358C62.7643 502.64 62.6126 502.9 62.4126 503.12C62.2126 503.341 61.9687 503.517 61.6966 503.638C61.4245 503.758 61.1301 503.82 60.8325 503.82C60.5349 503.82 60.2406 503.758 59.9684 503.638C59.6963 503.517 59.4524 503.341 59.2524 503.12C59.0524 502.9 58.9008 502.64 58.8072 502.358C58.7136 502.075 58.6801 501.776 58.709 501.48ZM62.042 501.48C62.042 500.504 61.6035 499.933 60.834 499.933C60.0615 499.933 59.627 500.504 59.627 501.48C59.627 502.464 60.0615 503.03 60.834 503.03C61.6035 503.03 62.042 502.46 62.042 501.48Z" fill="white"/>
<path d="M68.6016 503.733H67.6797L66.749 500.417H66.6787L65.752 503.733H64.8389L63.5977 499.23H64.499L65.3057 502.666H65.3721L66.2979 499.23H67.1504L68.0762 502.666H68.1465L68.9492 499.23H69.8379L68.6016 503.733Z" fill="white"/>
<path d="M70.8818 499.23H71.7373V499.946H71.8037C71.9164 499.689 72.1064 499.474 72.3472 499.33C72.5881 499.186 72.8678 499.121 73.1475 499.144C73.3666 499.127 73.5866 499.16 73.7912 499.24C73.9958 499.32 74.1797 499.445 74.3294 499.606C74.4791 499.767 74.5906 499.96 74.6558 500.169C74.7211 500.379 74.7382 500.601 74.706 500.818V503.733H73.8174V501.042C73.8174 500.318 73.5029 499.958 72.8457 499.958C72.6969 499.951 72.5484 499.976 72.4104 500.032C72.2723 500.088 72.148 500.173 72.0459 500.281C71.9437 500.39 71.8662 500.519 71.8187 500.66C71.7712 500.801 71.7547 500.951 71.7705 501.099V503.733H70.8818L70.8818 499.23Z" fill="white"/>
<path d="M76.1221 497.473H77.0107V503.733H76.1221V497.473Z" fill="white"/>
<path d="M78.2461 501.48C78.2178 501.184 78.2517 500.885 78.3455 500.603C78.4394 500.321 78.5912 500.062 78.7911 499.842C78.9911 499.622 79.2348 499.446 79.5067 499.326C79.7786 499.206 80.0726 499.144 80.3699 499.144C80.6672 499.144 80.9612 499.206 81.233 499.326C81.5049 499.446 81.7486 499.622 81.9486 499.842C82.1486 500.062 82.3003 500.321 82.3942 500.603C82.4881 500.885 82.5219 501.184 82.4936 501.48C82.5225 501.776 82.489 502.075 82.3954 502.358C82.3017 502.64 82.15 502.9 81.95 503.12C81.75 503.341 81.5061 503.517 81.234 503.638C80.9618 503.758 80.6675 503.82 80.3699 503.82C80.0722 503.82 79.7779 503.758 79.5058 503.638C79.2336 503.517 78.9897 503.341 78.7897 503.12C78.5897 502.9 78.438 502.64 78.3444 502.358C78.2508 502.075 78.2173 501.776 78.2461 501.48ZM81.5791 501.48C81.5791 500.504 81.1406 499.933 80.3711 499.933C79.5986 499.933 79.1641 500.504 79.1641 501.48C79.1641 502.464 79.5987 503.03 80.3711 503.03C81.1406 503.03 81.5791 502.46 81.5791 501.48Z" fill="white"/>
<path d="M83.4292 502.46C83.4292 501.649 84.0327 501.182 85.104 501.116L86.3237 501.045V500.657C86.3237 500.181 86.0093 499.913 85.4019 499.913C84.9058 499.913 84.562 500.095 84.4634 500.413H83.603C83.6938 499.64 84.4214 499.144 85.4429 499.144C86.5718 499.144 87.2085 499.706 87.2085 500.657V503.733H86.353V503.101H86.2827C86.14 503.328 85.9396 503.513 85.702 503.637C85.4643 503.761 85.198 503.82 84.9302 503.808C84.7411 503.827 84.5501 503.807 84.3693 503.748C84.1886 503.69 84.0221 503.594 83.8807 503.467C83.7393 503.34 83.626 503.185 83.5483 503.011C83.4705 502.838 83.4299 502.65 83.4292 502.46ZM86.3237 502.075V501.699L85.2241 501.769C84.604 501.811 84.3227 502.021 84.3227 502.418C84.3227 502.824 84.6743 503.06 85.1577 503.06C85.2994 503.074 85.4425 503.06 85.5785 503.018C85.7145 502.975 85.8406 502.906 85.9494 502.815C86.0582 502.723 86.1474 502.61 86.2117 502.483C86.276 502.356 86.3141 502.217 86.3237 502.075Z" fill="white"/>
<path d="M88.3765 501.48C88.3765 500.057 89.1079 499.156 90.2456 499.156C90.527 499.143 90.8063 499.21 91.0508 499.35C91.2954 499.49 91.495 499.697 91.6265 499.946H91.6929V497.473H92.5815V503.733H91.73V503.022H91.6597C91.5181 503.269 91.3114 503.473 91.0622 503.612C90.8129 503.75 90.5306 503.818 90.2456 503.808C89.1001 503.808 88.3765 502.906 88.3765 501.48ZM89.2945 501.48C89.2945 502.435 89.7447 503.01 90.4976 503.01C91.2466 503.01 91.7095 502.427 91.7095 501.484C91.7095 500.545 91.2417 499.954 90.4976 499.954C89.7495 499.954 89.2945 500.533 89.2945 501.48Z" fill="white"/>
<path d="M96.2583 501.48C96.23 501.184 96.2638 500.886 96.3577 500.603C96.4515 500.321 96.6033 500.062 96.8032 499.842C97.0032 499.622 97.2469 499.446 97.5187 499.326C97.7906 499.206 98.0846 499.144 98.3818 499.144C98.6791 499.144 98.9731 499.206 99.2449 499.326C99.5168 499.446 99.7605 499.622 99.9604 499.842C100.16 500.062 100.312 500.321 100.406 500.603C100.5 500.886 100.534 501.184 100.505 501.48C100.534 501.776 100.501 502.075 100.407 502.358C100.314 502.64 100.162 502.9 99.9619 503.12C99.7619 503.341 99.518 503.517 99.2459 503.638C98.9738 503.758 98.6795 503.82 98.3818 503.82C98.0842 503.82 97.7899 503.758 97.5178 503.638C97.2456 503.517 97.0017 503.341 96.8017 503.12C96.6017 502.9 96.4501 502.64 96.3565 502.358C96.2629 502.075 96.2295 501.776 96.2583 501.48ZM99.5913 501.48C99.5913 500.504 99.1528 499.933 98.3833 499.933C97.6108 499.933 97.1763 500.504 97.1763 501.48C97.1763 502.464 97.6109 503.03 98.3833 503.03C99.1528 503.03 99.5913 502.46 99.5913 501.48Z" fill="white"/>
<path d="M101.698 499.23H102.553V499.946H102.62C102.732 499.689 102.922 499.474 103.163 499.33C103.404 499.186 103.684 499.121 103.963 499.144C104.182 499.127 104.402 499.16 104.607 499.24C104.812 499.32 104.996 499.445 105.145 499.606C105.295 499.767 105.407 499.96 105.472 500.169C105.537 500.379 105.554 500.601 105.522 500.818V503.733H104.633V501.042C104.633 500.318 104.319 499.958 103.662 499.958C103.513 499.951 103.364 499.976 103.226 500.032C103.088 500.088 102.964 500.173 102.862 500.281C102.76 500.39 102.682 500.519 102.635 500.66C102.587 500.801 102.571 500.951 102.586 501.099V503.733H101.698V499.23Z" fill="white"/>
<path d="M110.543 498.109V499.251H111.519V500H110.543V502.315C110.543 502.787 110.738 502.993 111.18 502.993C111.293 502.993 111.407 502.986 111.519 502.973V503.713C111.359 503.741 111.198 503.757 111.036 503.758C110.047 503.758 109.654 503.411 109.654 502.542V499.999H108.939V499.251H109.654V498.109H110.543Z" fill="white"/>
<path d="M112.733 497.473H113.614V499.954H113.684C113.802 499.695 113.997 499.478 114.243 499.334C114.489 499.189 114.773 499.124 115.057 499.147C115.275 499.136 115.493 499.172 115.695 499.254C115.897 499.336 116.079 499.462 116.227 499.622C116.375 499.782 116.486 499.973 116.552 500.182C116.618 500.39 116.637 500.61 116.608 500.826V503.733H115.718V501.045C115.718 500.326 115.383 499.962 114.755 499.962C114.603 499.949 114.449 499.97 114.305 500.023C114.161 500.076 114.031 500.16 113.923 500.269C113.815 500.378 113.732 500.509 113.68 500.653C113.628 500.797 113.608 500.951 113.622 501.104V503.733H112.733L112.733 497.473Z" fill="white"/>
<path d="M121.79 502.518C121.669 502.929 121.407 503.285 121.051 503.523C120.694 503.761 120.265 503.867 119.838 503.82C119.542 503.828 119.247 503.771 118.974 503.654C118.702 503.536 118.458 503.361 118.26 503.14C118.062 502.919 117.915 502.657 117.828 502.373C117.742 502.089 117.718 501.79 117.758 501.496C117.719 501.201 117.743 500.901 117.83 500.617C117.916 500.332 118.063 500.069 118.26 499.846C118.456 499.623 118.699 499.445 118.971 499.324C119.242 499.202 119.537 499.141 119.834 499.144C121.087 499.144 121.843 500 121.843 501.414V501.724H118.664V501.773C118.65 501.939 118.67 502.105 118.725 502.262C118.779 502.419 118.865 502.562 118.978 502.684C119.091 502.805 119.228 502.902 119.38 502.967C119.533 503.032 119.697 503.065 119.863 503.063C120.075 503.089 120.291 503.051 120.481 502.953C120.672 502.856 120.83 502.705 120.934 502.518L121.79 502.518ZM118.664 501.066H120.938C120.949 500.915 120.929 500.763 120.878 500.621C120.827 500.478 120.746 500.348 120.642 500.238C120.538 500.128 120.411 500.041 120.272 499.983C120.132 499.925 119.981 499.896 119.83 499.9C119.676 499.898 119.523 499.927 119.381 499.985C119.239 500.043 119.109 500.129 119.001 500.237C118.892 500.346 118.806 500.475 118.748 500.618C118.69 500.76 118.662 500.913 118.664 501.066Z" fill="white"/>
<path fill-rule="evenodd" clip-rule="evenodd" d="M290.889 555.236C290.889 554.571 290.446 554.128 289.891 554.128H267.609C267.055 554.128 266.501 554.682 266.501 555.347V572.752L266.168 572.641H248.431C248.267 572.607 248.097 572.62 247.94 572.679C247.783 572.738 247.646 572.84 247.544 572.973V563.55C247.544 562.885 247.101 562.442 246.657 562.442H243.886V554.793C243.886 554.128 243.443 553.463 242.999 553.463H232.579C232.135 553.463 231.692 554.128 231.692 554.793V570.645H224.265V534.174C224.265 533.508 223.821 532.843 223.267 532.843H221.604L215.729 520.317H214.177V514.441C214.177 513.776 213.733 513.333 213.29 513.333L210.407 513H208.966L206.084 513.222C205.641 513.333 205.197 513.776 205.197 514.33V520.317H203.756L197.881 532.954H196.107C195.553 532.954 195.109 533.619 195.109 534.284V569.758H188.458C187.904 569.758 187.46 570.424 187.46 571.089V584.835H181.696V541.933C181.696 541.268 181.141 540.825 180.587 540.825H168.282C167.728 540.825 167.174 541.268 167.174 541.933V571.2H161.963C161.409 571.2 160.855 571.865 160.855 572.53V584.724H103.209V542.155H92.2347L86.1376 549.25V584.724H78.932V566.987C78.932 566.322 78.4885 565.878 77.9343 565.878H75.052C74.4977 565.878 74.0543 566.322 74.0543 566.987V584.724H68.844V572.53C68.844 571.865 68.5115 571.2 67.9572 571.2H62.6361V566.433C62.6361 565.768 62.1927 565.102 61.5275 565.102H58.5344C58.091 565.102 57.5367 565.768 57.5367 566.433V584.724H50.5528V576.853C50.5528 576.188 50.2202 575.745 49.6659 575.745H35.1437V555.236C35.1437 554.682 34.5894 554.128 34.146 554.128V554.017H23.6147V550.359C23.6147 549.693 23.1713 549.25 22.7278 549.25H17.2959C16.7416 549.25 16.1873 549.693 16.1873 550.359V554.017H1.88685C1.44343 554.017 1 554.571 1 555.236L1.99771 626.406H291V555.236H290.889Z" fill="url(#paint0_linear_406_36211)"/>
<path fill-rule="evenodd" clip-rule="evenodd" d="M260.625 595.699C264.394 595.699 268.274 595.699 271.711 595.478C273.928 595.478 275.59 595.256 274.371 595.034C272.819 594.702 269.493 594.369 267.72 594.369H201.871C195.441 594.369 184.577 594.369 181.806 595.256C177.704 596.586 194.333 596.586 202.758 596.697C222.601 596.919 257.188 595.589 260.625 595.589V595.699Z" fill="#D3D9E2"/>
<path fill-rule="evenodd" clip-rule="evenodd" d="M254.417 547.808C255.181 547.679 255.876 547.287 256.382 546.7C256.888 546.114 257.174 545.368 257.189 544.593V541.933C257.132 541.242 256.862 540.586 256.415 540.057C255.967 539.527 255.366 539.151 254.694 538.98C254.023 538.809 253.314 538.852 252.668 539.103C252.022 539.354 251.471 539.801 251.092 540.381L250.87 540.935C250.316 542.487 249.54 547.143 250.316 547.919H254.417V547.808Z" fill="#191847"/>
<path fill-rule="evenodd" clip-rule="evenodd" d="M255.637 544.261C256.302 543.485 256.746 542.487 256.635 541.489C256.413 538.385 252.201 539.05 251.314 540.602C250.427 542.154 250.538 546.145 251.646 546.367C252.09 546.367 252.977 546.145 253.864 545.591L253.309 549.693H256.746L255.637 544.15V544.261Z" fill="#D4A181"/>
<path fill-rule="evenodd" clip-rule="evenodd" d="M254.639 542.599C254.306 544.484 254.306 547.255 254.86 547.809H259.073C259.295 543.819 257.078 545.371 257.078 541.601L256.745 541.38V541.047C256.08 539.606 255.193 538.83 254.084 538.83C252.311 538.83 251.867 539.606 251.424 540.271C251.756 541.601 253.419 541.601 254.639 542.599V542.599Z" fill="#191847"/>
<path fill-rule="evenodd" clip-rule="evenodd" d="M250.981 541.933H250.76H250.981C250.981 541.822 251.203 541.822 251.425 541.933C251.278 541.91 251.128 541.91 250.981 541.933V541.933ZM253.42 541.933C253.274 541.908 253.124 541.908 252.977 541.933H253.42Z" fill="#243033"/>
<path fill-rule="evenodd" clip-rule="evenodd" d="M259.737 561.443L254.749 579.07L252.31 592.261H249.871L252.864 561.443H259.737Z" fill="#BA8B72"/>
<path fill-rule="evenodd" clip-rule="evenodd" d="M262.066 561.443C261.733 570.644 261.844 575.633 261.955 576.409C261.955 577.296 262.509 582.839 265.613 592.483H263.063C258.962 583.171 257.521 577.628 257.077 576.409C256.523 575.19 255.193 570.201 253.197 561.443H262.066Z" fill="#D4A181"/>
<path d="M259.848 561.443C258.518 567.54 256.19 577.185 252.864 590.377H249.317C248.829 580.629 249.876 570.866 252.421 561.443H259.959H259.848Z" fill="#D92228"/>
<path d="M259.848 561.443C258.518 567.54 256.19 577.185 252.864 590.377H249.317C248.829 580.629 249.876 570.866 252.421 561.443H259.959H259.848Z" fill="#333333" fill-opacity="0.2"/>
<path fill-rule="evenodd" clip-rule="evenodd" d="M262.067 561.443C261.7 571.274 262.821 581.103 265.393 590.599H261.735C257.522 581.397 254.64 572.418 252.645 561.443H262.067Z" fill="#D92228"/>
<path fill-rule="evenodd" clip-rule="evenodd" d="M265.946 594.257L265.836 592.04C264.766 592.286 263.647 592.209 262.621 591.818C261.274 592.696 259.767 593.299 258.186 593.592C258.058 593.604 257.934 593.644 257.823 593.708C257.711 593.773 257.616 593.861 257.542 593.967C257.468 594.072 257.418 594.192 257.395 594.319C257.373 594.446 257.378 594.576 257.41 594.701H265.614L265.946 594.257V594.257ZM252.755 594.257L252.644 592.04C251.574 592.286 250.455 592.209 249.429 591.818C248.082 592.696 246.575 593.299 244.995 593.592C244.866 593.604 244.742 593.644 244.631 593.708C244.52 593.773 244.424 593.861 244.35 593.967C244.276 594.072 244.226 594.192 244.203 594.319C244.181 594.446 244.186 594.576 244.219 594.701H252.422L252.755 594.257V594.257Z" fill="#191847"/>
<path fill-rule="evenodd" clip-rule="evenodd" d="M246.102 546.59C246.102 546.59 246.324 546.59 246.213 547.033C246.213 547.477 245.991 548.142 245.88 548.142C245.326 548.142 245.437 547.588 245.548 547.033C245.769 546.701 245.88 546.59 246.102 546.59V546.59ZM246.213 550.026V551.024C245.88 551.246 245.437 551.357 245.104 551.246C244.882 551.246 244.661 551.024 244.439 550.47C244.439 550.248 244.439 550.359 244.217 550.137L244.106 549.916C244.097 549.842 244.097 549.767 244.106 549.694L243.885 549.029L243.996 548.474C244.085 548.373 244.2 548.296 244.328 548.253C244.772 548.142 245.326 548.142 245.658 548.364C246.102 548.696 246.213 549.472 246.213 550.026" fill="#D4A181"/>
<path fill-rule="evenodd" clip-rule="evenodd" d="M243.997 544.705C244.662 544.705 244.884 544.594 245.105 545.259L246.657 548.806C246.657 548.806 246.879 549.25 246.657 549.25H244.773L244.44 549.028L242.999 545.148C242.888 544.926 242.999 544.594 243.11 544.594" fill="#243033"/>
<path fill-rule="evenodd" clip-rule="evenodd" d="M243.776 546.59L244.22 546.701C244.22 547.033 244.22 547.033 243.998 547.144C243.924 547.141 243.85 547.141 243.776 547.144L243.998 547.698H244.331C244.811 547.684 245.292 547.684 245.772 547.698C245.772 547.698 245.994 547.698 245.994 547.92L245.883 548.253C245.883 548.253 246.215 548.142 246.215 548.364L246.104 548.696L244.996 548.918L244.442 549.029V549.694H244.109L243.776 549.583C243.776 549.361 243.333 549.25 243.333 549.029V548.585C243.333 548.585 243.111 548.585 243.111 548.364L243.333 547.698L243.111 547.033L243.555 546.701H243.776V546.59ZM264.728 556.678C268.054 563.329 270.049 566.877 270.382 567.431C271.326 568.198 272.37 568.832 273.486 569.315C273.929 569.537 273.819 569.981 273.597 570.091C272.488 570.978 271.38 570.202 270.271 569.87C269.052 569.537 269.384 570.978 268.276 570.757C268.497 570.091 269.052 568.761 268.608 567.985L261.624 557.121L264.728 556.678V556.678Z" fill="#D4A181"/>
<path fill-rule="evenodd" clip-rule="evenodd" d="M254.529 551.024L252.533 548.807C251.092 552.465 251.092 556.345 248.432 549.472L242.002 552.021C244.663 558.34 246.214 561.777 253.088 559.227C254.972 558.562 254.529 553.684 254.529 551.024Z" fill="#AFB9C5"/>
<path fill-rule="evenodd" clip-rule="evenodd" d="M256.08 547.365L252.533 548.695C253.42 554.903 251.979 559.116 251.535 563.771L261.512 562.33L262.399 567.208L269.716 566.099C267.499 558.484 262.772 551.842 256.302 547.254L256.08 547.365V547.365Z" fill="#C5CFD6"/>
<path fill-rule="evenodd" clip-rule="evenodd" d="M258.631 553.795C259.407 557.564 259.739 560.557 259.407 562.663L261.402 562.331C260.737 559.338 259.85 556.455 258.631 553.795Z" fill="black" fill-opacity="0.1"/>
<path fill-rule="evenodd" clip-rule="evenodd" d="M252.864 544.705C252.864 544.927 252.864 545.37 252.31 545.481H251.756C251.534 545.481 251.312 545.481 251.312 545.038L252.864 544.705Z" fill="white"/>
<mask id="mask0_406_36211" style="mask-type:alpha" maskUnits="userSpaceOnUse" x="252" y="542" width="2" height="2">
<path d="M252.976 542.488C252.754 542.488 252.644 542.821 252.754 543.043C252.754 543.264 253.087 543.375 253.309 543.264C253.641 543.264 253.752 542.932 253.641 542.71C253.641 542.599 253.309 542.377 252.976 542.599" fill="white"/>
</mask>
<g mask="url(#mask0_406_36211)">
<path d="M252.976 542.488C252.754 542.488 252.644 542.821 252.754 543.043C252.754 543.264 253.087 543.375 253.309 543.264C253.641 543.264 253.752 542.932 253.641 542.71C253.641 542.599 253.309 542.377 252.976 542.599" fill="white"/>
<path fill-rule="evenodd" clip-rule="evenodd" d="M252.645 542.932L253.088 543.154C253.199 543.154 253.31 542.932 253.199 542.71L252.866 542.6C252.645 542.6 252.645 542.821 252.645 542.932" fill="#29353A"/>
<path d="M253.31 542.377C252.866 542.377 252.645 542.377 252.645 542.599C252.977 542.377 253.31 542.377 253.531 542.599C253.975 543.042 253.531 542.377 253.088 542.377H253.31Z" fill="#29353A"/>
</g>
<mask id="mask1_406_36211" style="mask-type:alpha" maskUnits="userSpaceOnUse" x="250" y="542" width="2" height="2">
<path d="M250.981 542.377C250.87 542.377 250.759 542.821 250.87 543.042L251.424 543.264C251.757 543.153 251.868 542.931 251.757 542.71C251.757 542.488 251.424 542.266 251.092 542.377" fill="white"/>
</mask>
<g mask="url(#mask1_406_36211)">
<path d="M250.981 542.377C250.87 542.377 250.759 542.821 250.87 543.042L251.424 543.264C251.757 543.153 251.868 542.931 251.757 542.71C251.757 542.488 251.424 542.266 251.092 542.377" fill="white"/>
<path fill-rule="evenodd" clip-rule="evenodd" d="M250.648 542.931C250.759 543.042 250.981 543.153 251.092 543.042L251.314 542.71C251.314 542.599 250.981 542.488 250.87 542.599C250.759 542.599 250.648 542.71 250.648 542.931Z" fill="#29353A"/>
<path d="M251.313 542.266C251.534 542.266 251.756 542.487 251.756 542.598C251.424 542.376 251.202 542.376 250.869 542.598C250.426 542.931 250.869 542.266 251.313 542.266Z" fill="#29353A"/>
</g>
<path fill-rule="evenodd" clip-rule="evenodd" d="M250.76 543.263C250.878 543.331 251.012 543.367 251.148 543.367C251.284 543.367 251.418 543.331 251.536 543.263L251.758 542.598C251.758 542.376 251.314 542.265 251.092 542.265H250.538C250.538 542.487 250.427 543.152 250.76 543.374V543.263ZM252.755 543.374C252.977 543.485 253.31 543.595 253.642 543.374C253.975 543.374 253.975 542.709 253.864 542.487L253.199 542.376C252.977 542.376 252.534 542.376 252.534 542.709C252.534 543.041 252.534 543.263 252.755 543.374ZM254.196 542.709L255.748 542.819C255.807 542.819 255.864 542.796 255.905 542.754C255.947 542.713 255.97 542.657 255.97 542.598L254.196 542.487V542.376C253.901 542.335 253.606 542.298 253.31 542.265H252.201C252.091 542.289 251.978 542.289 251.868 542.265L250.982 542.154H250.316V542.487C250.316 542.93 250.316 543.374 250.649 543.485C250.871 543.485 251.425 543.595 251.758 543.374C251.979 543.041 251.868 542.598 252.09 542.598C252.423 542.598 252.201 543.041 252.534 543.374C252.755 543.706 253.31 543.706 253.642 543.595C253.975 543.595 254.086 543.152 254.086 542.819C254.079 542.783 254.079 542.745 254.086 542.709H254.196Z" fill="#C92039"/>
<path d="M252.199 542.709C251.645 543.263 251.312 543.596 251.312 543.818C251.312 544.039 251.534 544.15 252.088 544.261L252.199 542.709V542.709Z" fill="url(#paint1_linear_406_36211)"/>
<mask id="mask2_406_36211" style="mask-type:alpha" maskUnits="userSpaceOnUse" x="226" y="532" width="9" height="14">
<path d="M226.924 536.39C226.37 536.833 226.148 537.166 226.037 537.388C226.037 537.498 226.259 537.609 226.813 537.72C226.813 539.383 227.257 540.935 227.922 541.046C228.476 541.268 229.585 540.935 230.804 540.159L229.917 545.48H234.352L232.91 538.496C233.686 537.498 234.241 536.168 234.13 534.949C233.908 531.069 228.587 531.845 227.478 533.84C227.146 534.505 226.924 535.392 226.924 536.39Z" fill="white"/>
</mask>
<g mask="url(#mask2_406_36211)">
<path d="M226.924 536.39C226.37 536.833 226.148 537.166 226.037 537.388C226.037 537.498 226.259 537.609 226.813 537.72C226.813 539.383 227.257 540.935 227.922 541.046C228.476 541.268 229.585 540.935 230.804 540.159L229.917 545.48H234.352L232.91 538.496C233.686 537.498 234.241 536.168 234.13 534.949C233.908 531.069 228.587 531.845 227.478 533.84C227.146 534.505 226.924 535.392 226.924 536.39Z" fill="#D4A181"/>
<path fill-rule="evenodd" clip-rule="evenodd" d="M227.144 539.272L227.69 539.175C227.69 539.175 227.748 539.503 227.311 539.58L226.874 539.657C226.765 539.676 226.527 539.605 226.598 539.368L227.144 539.272" fill="white"/>
</g>
<path fill-rule="evenodd" clip-rule="evenodd" d="M231.248 535.837C231.542 535.837 231.824 535.954 232.032 536.162C232.239 536.37 232.356 536.652 232.356 536.946C232.382 537.223 232.303 537.5 232.135 537.722L232.911 538.83C234.13 538.054 235.128 535.948 234.019 533.842C233.465 532.733 232.8 532.29 231.913 532.068C231.248 531.736 230.472 531.736 229.917 531.957C228.994 531.992 228.088 532.218 227.257 532.622C227.257 533.731 227.479 534.174 229.474 534.064C229.807 534.396 230.25 534.729 230.583 535.283C230.472 537.5 230.028 538.609 229.252 538.609C228.144 538.609 227.368 538.165 226.813 538.165C226.481 538.165 226.592 538.609 226.813 538.83C227.035 539.163 228.033 538.83 228.033 539.163C228.033 539.606 227.146 539.939 227.146 540.161C227.146 540.493 227.146 541.269 227.7 541.269C228.476 541.269 230.472 541.047 230.804 539.939C231.026 539.274 231.137 537.943 231.248 535.837V535.837Z" fill="#191847"/>
<path fill-rule="evenodd" clip-rule="evenodd" d="M228.922 534.838L229.365 534.949L228.922 534.617C228.811 534.617 228.367 534.395 228.035 534.506L227.924 534.617L229.032 534.838" fill="#191847"/>
<mask id="mask3_406_36211" style="mask-type:alpha" maskUnits="userSpaceOnUse" x="227" y="535" width="2" height="2">
<path d="M227.923 535.615C227.59 535.615 227.48 536.059 227.59 536.28C227.701 536.613 228.145 536.724 228.477 536.613C228.81 536.502 228.921 536.17 228.921 535.837C228.921 535.837 228.477 535.615 227.812 535.615H227.923Z" fill="white"/>
</mask>
<g mask="url(#mask3_406_36211)">
<path d="M227.923 535.615C227.59 535.615 227.48 536.059 227.59 536.28C227.701 536.613 228.145 536.724 228.477 536.613C228.81 536.502 228.921 536.17 228.921 535.837C228.921 535.837 228.477 535.615 227.812 535.615H227.923Z" fill="white"/>
<path fill-rule="evenodd" clip-rule="evenodd" d="M227.479 536.281C227.479 536.392 227.812 536.503 228.033 536.392C228.255 536.281 228.255 536.281 228.255 535.948L227.701 535.727C227.479 535.837 227.368 536.059 227.479 536.281Z" fill="#191847"/>
<path fill-rule="evenodd" clip-rule="evenodd" d="M229.03 535.947L228.697 535.614C228.488 535.509 228.263 535.434 228.032 535.393L227.811 535.503L228.587 535.725L229.03 535.947V535.947Z" fill="#8B572A"/>
</g>
<path fill-rule="evenodd" clip-rule="evenodd" d="M228.476 544.372C228.366 551.023 226.259 557.009 222.49 563.993L226.481 565.324C231.802 559.781 233.908 556.677 233.132 550.912C233.022 549.471 231.359 545.369 230.583 543.152L228.476 544.372V544.372Z" fill="#B81D22"/>
<path fill-rule="evenodd" clip-rule="evenodd" d="M236.348 560.557L230.583 574.525L225.927 591.375H222.602L227.036 561.554L236.348 560.557Z" fill="#191847"/>
<path fill-rule="evenodd" clip-rule="evenodd" d="M238.566 556.787C238.677 570.644 239.675 582.173 241.449 591.375H237.901C234.908 581.397 231.804 572.529 231.139 570.866C230.474 569.314 232.913 563.106 229.809 551.799L238.566 556.787V556.787Z" fill="#2F3676"/>
<path fill-rule="evenodd" clip-rule="evenodd" d="M241.78 595.145L241.558 591.154H237.678C235.567 592.67 233.202 593.796 230.694 594.48V595.145H237.567L239.895 594.813V595.145H241.78V595.145ZM226.371 595.145L226.26 591.154H222.38C220.235 592.682 217.831 593.808 215.285 594.48V595.145H222.269L224.597 594.813V595.145H226.482H226.371Z" fill="#191847"/>
<path fill-rule="evenodd" clip-rule="evenodd" d="M215.064 543.708C214.62 543.708 213.179 543.708 212.736 543.375C212.181 543.153 211.627 542.488 211.516 542.267H210.629C210.297 542.377 210.075 542.377 209.743 542.267L207.969 541.823C207.636 541.823 207.193 541.601 207.082 541.823C207.082 542.045 207.082 542.045 207.415 542.267L208.301 542.599C208.634 542.71 208.856 543.043 208.856 543.043L208.745 543.486L208.967 543.929V544.484C209.299 544.484 208.967 545.038 209.521 545.26C209.964 545.592 211.627 545.592 212.403 545.592C213.179 545.592 215.064 545.814 215.285 545.703C215.507 545.703 215.064 543.708 215.064 543.708" fill="#D4A181"/>
<path fill-rule="evenodd" clip-rule="evenodd" d="M240.339 561.444L226.814 563.328C228.289 556.708 228.959 549.934 228.81 543.153C228.81 543.042 229.032 542.598 229.142 542.709C230.251 542.709 231.36 542.487 232.468 541.822C236.459 546.589 238.454 552.908 240.228 561.444H240.339Z" fill="#F2F2F2"/>
<path fill-rule="evenodd" clip-rule="evenodd" d="M231.47 542.044C227.48 542.598 221.383 544.261 213.733 542.82L213.512 546.589C219.498 549.36 225.484 551.355 230.251 550.247C229.475 559.781 230.584 567.319 235.24 566.654C237.457 566.321 239.563 566.21 241.337 566.099C241.337 558.118 238.011 547.254 234.464 542.154C234.242 542.044 234.02 541.6 233.466 541.711L231.36 542.044H231.47Z" fill="#D0021B"/>
<path fill-rule="evenodd" clip-rule="evenodd" d="M35.3327 595.999C35.3327 600.602 31.6017 604.333 26.9993 604.333C22.397 604.333 18.666 600.602 18.666 595.999C18.666 591.397 22.397 587.666 26.9993 587.666C31.6017 587.666 35.3327 591.397 35.3327 595.999ZM26.2764 589.692C26.5674 589.415 26.8103 589.333 26.9993 589.333C27.1884 589.333 27.4313 589.415 27.7223 589.692C28.0177 589.973 28.3215 590.42 28.5949 591.034C29.1245 592.226 29.4781 593.914 29.4984 595.825C28.7178 595.937 27.8787 595.999 26.9993 595.999C26.12 595.999 25.2809 595.937 24.5003 595.825C24.5206 593.914 24.8741 592.226 25.4038 591.034C25.6772 590.42 25.981 589.973 26.2764 589.692ZM22.8399 595.491C22.8956 593.527 23.2723 591.727 23.8808 590.358C23.931 590.245 23.9832 590.134 24.0374 590.025C22.2611 590.908 20.9342 592.559 20.4921 594.543C21.1079 594.917 21.9061 595.243 22.8399 595.491ZM20.3419 596.353C21.0801 596.708 21.9361 596.999 22.8743 597.216C22.9906 598.903 23.3463 600.438 23.8808 601.641C23.931 601.754 23.9832 601.865 24.0374 601.974C21.9413 600.932 20.471 598.82 20.3419 596.353ZM24.5712 597.516C25.3501 597.615 26.1647 597.666 26.9993 597.666C27.8339 597.666 28.6486 597.615 29.4275 597.516C29.2969 598.872 28.9965 600.061 28.5949 600.964C28.3215 601.579 28.0177 602.025 27.7223 602.306C27.4313 602.583 27.1884 602.666 26.9993 602.666C26.8103 602.666 26.5674 602.583 26.2764 602.306C25.981 602.025 25.6772 601.579 25.4038 600.964C25.0022 600.061 24.7018 598.872 24.5712 597.516ZM31.1244 597.216C31.0081 598.903 30.6524 600.438 30.1179 601.641C30.0677 601.754 30.0155 601.865 29.9613 601.974C32.0574 600.932 33.5277 598.82 33.6568 596.353C32.9186 596.708 32.0626 596.999 31.1244 597.216ZM33.5066 594.543C33.0645 592.559 31.7376 590.908 29.9613 590.025C30.0155 590.134 30.0677 590.245 30.1179 590.358C30.7264 591.727 31.1031 593.527 31.1588 595.491C32.0925 595.243 32.8908 594.917 33.5066 594.543Z" fill="#1A1816"/>
<path d="M47.624 598.836V600H41.948V591.96H43.232V598.836H47.624ZM51.4024 593.88C52.9264 593.88 53.9344 594.684 53.9344 596.124V600H52.7464V599.316C52.3024 599.808 51.6424 600.168 50.7184 600.168C49.3864 600.168 48.4984 599.4 48.4984 598.284C48.4984 597.168 49.3504 596.4 50.8864 596.4H52.7464V596.22C52.7464 595.452 52.2304 594.972 51.4744 594.972C50.6704 594.972 50.1544 595.332 50.0224 596.004L48.8344 595.752C49.0384 594.636 50.0704 593.88 51.4024 593.88ZM50.9104 599.16C51.9064 599.16 52.7464 598.464 52.7464 597.552V597.36H50.8624C50.1304 597.36 49.6984 597.732 49.6984 598.26C49.6984 598.8 50.1784 599.16 50.9104 599.16ZM58.8772 593.88C60.3052 593.88 61.2652 594.912 61.2652 596.4V600H60.0052V596.652C60.0052 595.68 59.4412 595.032 58.5892 595.032C57.5212 595.032 56.8132 595.752 56.8132 597.252V600H55.5652V594.048H56.8132V594.78C57.2932 594.204 57.9892 593.88 58.8772 593.88ZM68.8626 594.048V600.192C68.8506 601.956 67.4466 603 65.6106 603C64.1826 603 63.1986 602.46 62.7066 601.572L63.7386 600.732C64.1706 601.416 64.6746 601.776 65.6106 601.776C66.7146 601.776 67.6026 601.14 67.6026 600.012V599.268C67.0986 599.844 66.3666 600.168 65.4426 600.168C63.8946 600.168 62.4906 598.908 62.4906 597.024C62.4906 595.152 63.8946 593.88 65.4426 593.88C66.3666 593.88 67.0986 594.216 67.6026 594.78V594.048H68.8626ZM65.6466 599.064C66.6426 599.064 67.6026 598.284 67.6026 597.024C67.6026 595.776 66.6426 594.984 65.6466 594.984C64.5666 594.984 63.7146 595.776 63.7146 597.024C63.7146 598.284 64.5666 599.064 65.6466 599.064ZM76.285 594.048V600H75.037V599.268C74.557 599.844 73.861 600.168 72.985 600.168C71.545 600.168 70.597 599.136 70.597 597.636V594.048H71.845V597.384C71.845 598.356 72.409 599.016 73.273 599.016C74.341 599.016 75.037 598.296 75.037 596.796V594.048H76.285ZM80.5704 593.88C82.0944 593.88 83.1024 594.684 83.1024 596.124V600H81.9144V599.316C81.4704 599.808 80.8104 600.168 79.8864 600.168C78.5544 600.168 77.6664 599.4 77.6664 598.284C77.6664 597.168 78.5184 596.4 80.0544 596.4H81.9144V596.22C81.9144 595.452 81.3984 594.972 80.6424 594.972C79.8384 594.972 79.3224 595.332 79.1904 596.004L78.0024 595.752C78.2064 594.636 79.2384 593.88 80.5704 593.88ZM80.0784 599.16C81.0744 599.16 81.9144 598.464 81.9144 597.552V597.36H80.0304C79.2984 597.36 78.8664 597.732 78.8664 598.26C78.8664 598.8 79.3464 599.16 80.0784 599.16ZM90.5892 594.048V600.192C90.5772 601.956 89.1732 603 87.3372 603C85.9092 603 84.9252 602.46 84.4332 601.572L85.4652 600.732C85.8972 601.416 86.4012 601.776 87.3372 601.776C88.4412 601.776 89.3292 601.14 89.3292 600.012V599.268C88.8252 599.844 88.0932 600.168 87.1692 600.168C85.6212 600.168 84.2172 598.908 84.2172 597.024C84.2172 595.152 85.6212 593.88 87.1692 593.88C88.0932 593.88 88.8252 594.216 89.3292 594.78V594.048H90.5892ZM87.3732 599.064C88.3692 599.064 89.3292 598.284 89.3292 597.024C89.3292 595.776 88.3692 594.984 87.3732 594.984C86.2932 594.984 85.4412 595.776 85.4412 597.024C85.4412 598.284 86.2932 599.064 87.3732 599.064ZM98.0115 596.892V597.324H93.1875C93.3075 598.428 94.1115 599.088 94.9875 599.088C95.6475 599.088 96.3195 598.896 96.7395 598.056L97.8555 598.296C97.3635 599.544 96.3075 600.168 94.9875 600.168C93.3675 600.168 91.9515 598.92 91.9515 597.036C91.9515 595.14 93.3555 593.88 95.0355 593.88C96.6315 593.88 97.9515 595.104 98.0115 596.892ZM95.0355 594.984C94.2555 594.984 93.4155 595.476 93.2235 596.436H96.7275C96.5355 595.464 95.8515 594.984 95.0355 594.984ZM99.7773 594.324C100.233 594.324 100.557 594.672 100.557 595.08C100.557 595.512 100.233 595.836 99.7773 595.836C99.3213 595.836 98.9853 595.512 98.9853 595.08C98.9853 594.672 99.3213 594.324 99.7773 594.324ZM99.7773 598.524C100.233 598.524 100.557 598.872 100.557 599.28C100.557 599.712 100.233 600.048 99.7773 600.048C99.3213 600.048 98.9853 599.712 98.9853 599.28C98.9853 598.872 99.3213 598.524 99.7773 598.524ZM110.995 598.836V600H105.007V591.96H110.983V593.124H106.291V595.392H110.623V596.544H106.291V598.836H110.995ZM115.948 593.88C117.376 593.88 118.336 594.912 118.336 596.4V600H117.076V596.652C117.076 595.68 116.512 595.032 115.66 595.032C114.592 595.032 113.884 595.752 113.884 597.252V600H112.636V594.048H113.884V594.78C114.364 594.204 115.06 593.88 115.948 593.88ZM125.933 594.048V600.192C125.921 601.956 124.517 603 122.681 603C121.253 603 120.269 602.46 119.777 601.572L120.809 600.732C121.241 601.416 121.745 601.776 122.681 601.776C123.785 601.776 124.673 601.14 124.673 600.012V599.268C124.169 599.844 123.437 600.168 122.513 600.168C120.965 600.168 119.561 598.908 119.561 597.024C119.561 595.152 120.965 593.88 122.513 593.88C123.437 593.88 124.169 594.216 124.673 594.78V594.048H125.933ZM122.717 599.064C123.713 599.064 124.673 598.284 124.673 597.024C124.673 595.776 123.713 594.984 122.717 594.984C121.637 594.984 120.785 595.776 120.785 597.024C120.785 598.284 121.637 599.064 122.717 599.064ZM129.059 600H127.811V590.76H129.059V600ZM131.672 591.48C132.128 591.48 132.464 591.84 132.464 592.26C132.464 592.704 132.128 593.028 131.672 593.028C131.204 593.028 130.868 592.704 130.868 592.26C130.868 591.84 131.204 591.48 131.672 591.48ZM132.296 600H131.048V594.048H132.296V600ZM133.776 598.404L135.024 598.14C135.108 598.848 135.732 599.148 136.512 599.148C137.232 599.148 137.688 598.824 137.688 598.356C137.688 597.996 137.436 597.768 136.884 597.648L135.588 597.384C134.556 597.156 133.968 596.604 133.968 595.764C133.968 594.66 134.892 593.88 136.32 593.88C137.688 593.88 138.612 594.6 138.828 595.596L137.64 595.848C137.544 595.272 137.052 594.876 136.284 594.876C135.552 594.876 135.228 595.236 135.228 595.656C135.228 595.992 135.42 596.208 135.948 596.328L137.364 596.64C138.324 596.844 138.912 597.408 138.912 598.248C138.912 599.496 137.892 600.168 136.404 600.168C135.072 600.168 133.932 599.604 133.776 598.404ZM143.639 593.88C145.067 593.88 146.027 594.912 146.027 596.4V600H144.767V596.652C144.767 595.68 144.203 595.032 143.351 595.032C142.283 595.032 141.575 595.752 141.575 597.252V600H140.327V590.76H141.575V594.78C142.055 594.204 142.751 593.88 143.639 593.88Z" fill="#1A1816"/>
<path d="M41 601.2H62.1031V601.8H41V601.2ZM69.2797 601.2H83.8297V601.8H69.2797V601.2ZM91.0062 601.2H119.173V601.8H91.0062V601.2ZM126.35 601.2H146.831V601.8H126.35V601.2Z" fill="#1A1816"/>
<path fill-rule="evenodd" clip-rule="evenodd" d="M170.59 592.911C170.264 592.586 169.737 592.586 169.411 592.911L165.001 597.322L160.59 592.911C160.264 592.586 159.737 592.586 159.411 592.911C159.086 593.237 159.086 593.764 159.411 594.09L164.411 599.09C164.737 599.415 165.264 599.415 165.59 599.09L170.59 594.09C170.915 593.764 170.915 593.237 170.59 592.911Z" fill="#1A1816"/>
</g>
<path d="M360 0.5C369.113 0.500001 376.5 7.8873 376.5 17V610C376.5 619.113 369.113 626.5 360 626.5H17C7.8873 626.5 0.5 619.113 0.5 610V17C0.500005 7.88731 7.8873 0.5 17 0.5H360Z" stroke="#D3CFCA"/>
<defs>
<linearGradient id="paint0_linear_406_36211" x1="194.72" y1="610.529" x2="194.72" y2="483.968" gradientUnits="userSpaceOnUse">
<stop stop-color="#E0E0E0" stop-opacity="0"/>
<stop offset="1" stop-color="#D5D5D5"/>
</linearGradient>
<linearGradient id="paint1_linear_406_36211" x1="251.416" y1="543.485" x2="252.107" y2="543.508" gradientUnits="userSpaceOnUse">
<stop stop-color="#ECCFB7"/>
<stop offset="1" stop-color="#D4A181"/>
</linearGradient>
<clipPath id="clip0_406_36211">
<path d="M1 17C1 8.16345 8.16344 1 17 1H360C368.837 1 376 8.16344 376 17V610C376 618.837 368.837 626 360 626H17C8.16345 626 1 618.837 1 610V17Z" fill="white"/>
</clipPath>
<clipPath id="clip1_406_36211">
<rect width="24" height="24" fill="white" transform="translate(253 73)"/>
</clipPath>
<clipPath id="clip2_406_36211">
<rect width="24" height="24" fill="white" transform="translate(253 121)"/>
</clipPath>
<clipPath id="clip3_406_36211">
<rect width="24" height="24" fill="white" transform="translate(253 169)"/>
</clipPath>
<clipPath id="clip4_406_36211">
<rect width="24" height="24" fill="white" transform="translate(255 217)"/>
</clipPath>
<clipPath id="clip5_406_36211">
<rect width="24" height="24" fill="white" transform="translate(255 265)"/>
</clipPath>
</defs>
</svg>
