<svg width="485" height="196" viewBox="0 0 485 196" fill="none" xmlns="http://www.w3.org/2000/svg">
<path d="M16 0.5H468.535C477.096 0.5 484.035 7.43959 484.035 16V180C484.035 188.56 477.096 195.5 468.535 195.5H16C7.43959 195.5 0.5 188.56 0.5 180V16C0.500002 7.43959 7.43959 0.5 16 0.5Z" fill="white"/>
<path d="M16 0.5H468.535C477.096 0.5 484.035 7.43959 484.035 16V180C484.035 188.56 477.096 195.5 468.535 195.5H16C7.43959 195.5 0.5 188.56 0.5 180V16C0.500002 7.43959 7.43959 0.5 16 0.5Z" stroke="#D3CFCA"/>
<path d="M22.2077 17.7771V28H19.7053V23.9566H15.4026V28H12.885V17.7771H15.4026V21.7594H19.7053V17.7771H22.2077ZM31.5386 25.7723V28H24.0926V25.7723H26.8391V20.7371L24.1994 21.9578V19.6691L27.6936 17.7771H29.2804V25.7723H31.5386Z" fill="black"/>
<path d="M43.2054 17.7771H46.7758C50.2546 17.7771 52.4213 19.9132 52.4213 22.8885C52.4213 25.8639 50.2546 28 46.7758 28H43.2054V17.7771ZM44.838 26.52H46.7758C49.2629 26.52 50.7734 25.0094 50.7734 22.8885C50.7734 20.7677 49.2629 19.2571 46.7758 19.2571H44.838V26.52ZM57.3873 20.2184C59.3251 20.2184 60.6068 21.2407 60.6068 23.0716V28H59.0962V27.1303C58.5317 27.7559 57.6925 28.2136 56.5176 28.2136C54.824 28.2136 53.6949 27.2371 53.6949 25.8181C53.6949 24.3991 54.7782 23.4226 56.7312 23.4226H59.0962V23.1937C59.0962 22.2172 58.4401 21.6069 57.4789 21.6069C56.4566 21.6069 55.8005 22.0646 55.6326 22.9191L54.1221 22.5986C54.3815 21.1796 55.6937 20.2184 57.3873 20.2184ZM56.7617 26.9319C58.0282 26.9319 59.0962 26.047 59.0962 24.8873V24.6432H56.7007C55.77 24.6432 55.2207 25.1162 55.2207 25.7876C55.2207 26.4742 55.831 26.9319 56.7617 26.9319ZM62.0395 25.9707L63.6263 25.635C63.7331 26.5352 64.5266 26.9167 65.5183 26.9167C66.4338 26.9167 67.0136 26.5047 67.0136 25.9096C67.0136 25.4519 66.6932 25.162 65.9913 25.0094L64.3435 24.6737C63.0313 24.3838 62.2836 23.682 62.2836 22.6139C62.2836 21.2101 63.4585 20.2184 65.2742 20.2184C67.0136 20.2184 68.1885 21.1339 68.4631 22.4003L66.9526 22.7207C66.8305 21.9883 66.2049 21.4848 65.2284 21.4848C64.2977 21.4848 63.8857 21.9425 63.8857 22.4766C63.8857 22.9038 64.1298 23.1784 64.8012 23.331L66.6017 23.7277C67.8223 23.9871 68.5699 24.7043 68.5699 25.7723C68.5699 27.3592 67.273 28.2136 65.381 28.2136C63.6874 28.2136 62.2378 27.4965 62.0395 25.9707ZM74.5802 20.2184C76.3959 20.2184 77.6166 21.5306 77.6166 23.4226V28H76.0145V23.743C76.0145 22.5071 75.2973 21.6831 74.214 21.6831C72.856 21.6831 71.9558 22.5986 71.9558 24.5059V28H70.369V16.2513H71.9558V21.3627C72.5661 20.6303 73.4511 20.2184 74.5802 20.2184ZM84.179 20.2184C86.1625 20.2184 87.9325 21.8357 87.9325 24.216C87.9325 26.6115 86.1625 28.2136 84.179 28.2136C83.0041 28.2136 82.0734 27.8016 81.4325 27.0693V28H79.8457V16.2513H81.4325V21.3627C82.0734 20.6456 83.0041 20.2184 84.179 20.2184ZM83.9196 26.8099C85.3081 26.8099 86.3914 25.8181 86.3914 24.216C86.3914 22.6291 85.3081 21.6221 83.9196 21.6221C82.6684 21.6221 81.4325 22.6291 81.4325 24.216C81.4325 25.8181 82.6684 26.8099 83.9196 26.8099ZM93.0978 20.2641C95.3255 20.2641 97.1412 21.8662 97.1412 24.216C97.1412 26.5657 95.3255 28.1831 93.0978 28.1831C90.8549 28.1831 89.0239 26.5657 89.0239 24.216C89.0239 21.8662 90.8549 20.2641 93.0978 20.2641ZM93.0978 26.8099C94.3948 26.8099 95.6001 25.7876 95.6001 24.216C95.6001 22.6444 94.3948 21.6221 93.0978 21.6221C91.7704 21.6221 90.5802 22.6444 90.5802 24.216C90.5802 25.7876 91.7704 26.8099 93.0978 26.8099ZM101.955 20.2184C103.892 20.2184 105.174 21.2407 105.174 23.0716V28H103.664V27.1303C103.099 27.7559 102.26 28.2136 101.085 28.2136C99.3913 28.2136 98.2622 27.2371 98.2622 25.8181C98.2622 24.3991 99.3455 23.4226 101.299 23.4226H103.664V23.1937C103.664 22.2172 103.007 21.6069 102.046 21.6069C101.024 21.6069 100.368 22.0646 100.2 22.9191L98.6894 22.5986C98.9488 21.1796 100.261 20.2184 101.955 20.2184ZM101.329 26.9319C102.596 26.9319 103.664 26.047 103.664 24.8873V24.6432H101.268C100.337 24.6432 99.788 25.1162 99.788 25.7876C99.788 26.4742 100.398 26.9319 101.329 26.9319ZM111.718 20.3404C111.901 20.3404 112.054 20.3404 112.252 20.4015L112.146 21.9273C112.023 21.912 111.84 21.912 111.703 21.912C109.781 21.912 108.835 23.2547 108.835 25.3298V28H107.248V20.432H108.835V22.0493C109.445 21.0423 110.406 20.3404 111.718 20.3404ZM120.892 16.2513V28H119.29V27.0693C118.649 27.8016 117.719 28.2136 116.544 28.2136C114.575 28.2136 112.79 26.6115 112.79 24.216C112.79 21.8357 114.575 20.2184 116.544 20.2184C117.719 20.2184 118.649 20.6456 119.29 21.3627V16.2513H120.892ZM116.803 26.8099C118.069 26.8099 119.29 25.8181 119.29 24.216C119.29 22.6291 118.069 21.6221 116.803 21.6221C115.43 21.6221 114.347 22.6291 114.347 24.216C114.347 25.8181 115.43 26.8099 116.803 26.8099Z" fill="black"/>
<path d="M54.2077 47.7771V58H51.7053V53.9566H47.4026V58H44.885V47.7771H47.4026V51.7594H51.7053V47.7771H54.2077ZM63.5538 55.8028V58H56.1384V56.3521L59.6783 53.0411C60.3344 52.4155 61.0363 51.8052 61.0363 50.8745C61.0363 50.1421 60.5175 49.6538 59.7698 49.6538C58.9306 49.6538 58.3966 50.1573 58.3203 51.3017L55.9858 50.8592C56.0774 48.7994 57.5879 47.5482 59.7698 47.5482C61.9365 47.5482 63.447 48.8299 63.447 50.8592C63.447 52.2782 62.6841 53.1632 61.3109 54.4601L59.8461 55.8028H63.5538Z" fill="black"/>
<path d="M80.0575 56.6725C81.6596 56.6725 82.9718 55.8181 83.4295 54.0939L85.0163 54.4296C84.4518 56.8251 82.4682 58.2136 80.0575 58.2136C77.0821 58.2136 74.7324 55.8791 74.7324 52.8885C74.7324 49.9132 77.0821 47.5635 80.0575 47.5635C82.4682 47.5635 84.4365 48.9672 85.0163 51.2254L83.4295 51.6831C82.9718 49.959 81.6596 49.1045 80.0575 49.1045C77.9976 49.1045 76.3803 50.7371 76.3803 52.8885C76.3803 55.0399 77.9976 56.6725 80.0575 56.6725ZM90.3648 50.2641C92.5925 50.2641 94.4082 51.8662 94.4082 54.216C94.4082 56.5657 92.5925 58.1831 90.3648 58.1831C88.1218 58.1831 86.2909 56.5657 86.2909 54.216C86.2909 51.8662 88.1218 50.2641 90.3648 50.2641ZM90.3648 56.8099C91.6617 56.8099 92.8671 55.7876 92.8671 54.216C92.8671 52.6444 91.6617 51.6221 90.3648 51.6221C89.0373 51.6221 87.8472 52.6444 87.8472 54.216C87.8472 55.7876 89.0373 56.8099 90.3648 56.8099ZM105.538 50.2184C107.11 50.2184 108.407 51.3932 108.407 53.1784V58H106.835V53.4989C106.835 52.385 106.103 51.6831 105.127 51.6831C103.891 51.6831 103.082 52.5529 103.082 54.2465V58H101.495V53.4989C101.495 52.385 100.763 51.6831 99.7862 51.6831C98.5655 51.6831 97.7721 52.5529 97.7721 54.2465V58H96.1853V50.432H97.7721V51.2864C98.3214 50.6151 99.1148 50.2184 100.198 50.2184C101.281 50.2184 102.227 50.7219 102.716 51.6069C103.326 50.7524 104.287 50.2184 105.538 50.2184ZM114.987 50.2184C116.971 50.2184 118.74 51.8357 118.74 54.216C118.74 56.6115 116.971 58.2136 114.987 58.2136C113.812 58.2136 112.881 57.8016 112.24 57.0693V61.6619H110.654V50.432H112.24V51.3627C112.881 50.6456 113.812 50.2184 114.987 50.2184ZM114.728 56.8099C116.116 56.8099 117.199 55.8181 117.199 54.216C117.199 52.6291 116.116 51.6221 114.728 51.6221C113.476 51.6221 112.24 52.6291 112.24 54.216C112.24 55.8181 113.476 56.8099 114.728 56.8099ZM121.922 46.2513V55.8334C121.922 56.3521 122.319 56.7183 122.899 56.7183C123.158 56.7183 123.509 56.6268 123.814 56.4894L124.119 57.8169C123.723 58.0305 123.311 58.2136 122.624 58.2136C121.251 58.2136 120.335 57.2981 120.335 55.9249V46.2513H121.922ZM132.32 54.0482V54.5974H126.187C126.339 56.0012 127.361 56.8404 128.475 56.8404C129.314 56.8404 130.169 56.5963 130.703 55.5282L132.122 55.8334C131.496 57.4202 130.154 58.2136 128.475 58.2136C126.415 58.2136 124.615 56.6268 124.615 54.2312C124.615 51.8205 126.4 50.2184 128.536 50.2184C130.566 50.2184 132.244 51.7747 132.32 54.0482ZM128.536 51.6221C127.544 51.6221 126.476 52.2477 126.232 53.4683H130.688C130.444 52.2324 129.574 51.6221 128.536 51.6221ZM138.624 56.3064L139.112 57.6338C138.395 58.061 137.876 58.2136 137.236 58.2136C135.603 58.2136 134.504 57.2981 134.504 55.4214V51.7442H132.872V50.432H134.504V47.7771H136.091V50.432H138.685V51.7442H136.091V55.3146C136.091 56.2606 136.595 56.7183 137.342 56.7183C137.739 56.7183 138.227 56.5657 138.624 56.3064ZM147.251 54.0482V54.5974H141.117C141.269 56.0012 142.292 56.8404 143.406 56.8404C144.245 56.8404 145.099 56.5963 145.633 55.5282L147.052 55.8334C146.427 57.4202 145.084 58.2136 143.406 58.2136C141.346 58.2136 139.545 56.6268 139.545 54.2312C139.545 51.8205 141.33 50.2184 143.467 50.2184C145.496 50.2184 147.174 51.7747 147.251 54.0482ZM143.467 51.6221C142.475 51.6221 141.407 52.2477 141.163 53.4683H145.618C145.374 52.2324 144.504 51.6221 143.467 51.6221ZM160.116 50.4167L155.112 61.6619H153.342L155.051 57.8169L151.786 50.4167H153.555L155.905 55.8944L158.347 50.4167H160.116ZM164.718 50.2641C166.946 50.2641 168.762 51.8662 168.762 54.216C168.762 56.5657 166.946 58.1831 164.718 58.1831C162.475 58.1831 160.644 56.5657 160.644 54.216C160.644 51.8662 162.475 50.2641 164.718 50.2641ZM164.718 56.8099C166.015 56.8099 167.221 55.7876 167.221 54.216C167.221 52.6444 166.015 51.6221 164.718 51.6221C163.391 51.6221 162.201 52.6444 162.201 54.216C162.201 55.7876 163.391 56.8099 164.718 56.8099ZM177.588 50.432V58H176.001V57.0693C175.391 57.8016 174.506 58.2136 173.392 58.2136C171.561 58.2136 170.356 56.9014 170.356 54.9942V50.432H171.942V54.6737C171.942 55.9096 172.66 56.7488 173.758 56.7488C175.116 56.7488 176.001 55.8334 176.001 53.9261V50.432H177.588ZM184.471 50.3404C184.654 50.3404 184.807 50.3404 185.005 50.4015L184.898 51.9273C184.776 51.912 184.593 51.912 184.456 51.912C182.533 51.912 181.587 53.2547 181.587 55.3298V58H180.001V50.432H181.587V52.0493C182.198 51.0423 183.159 50.3404 184.471 50.3404ZM194.724 56.3064L195.213 57.6338C194.496 58.061 193.977 58.2136 193.336 58.2136C191.703 58.2136 190.605 57.2981 190.605 55.4214V51.7442H188.972V50.432H190.605V47.7771H192.192V50.432H194.785V51.7442H192.192V55.3146C192.192 56.2606 192.695 56.7183 193.443 56.7183C193.839 56.7183 194.328 56.5657 194.724 56.3064ZM203.351 54.0482V54.5974H197.217C197.37 56.0012 198.392 56.8404 199.506 56.8404C200.345 56.8404 201.199 56.5963 201.734 55.5282L203.153 55.8334C202.527 57.4202 201.184 58.2136 199.506 58.2136C197.446 58.2136 195.646 56.6268 195.646 54.2312C195.646 51.8205 197.431 50.2184 199.567 50.2184C201.596 50.2184 203.275 51.7747 203.351 54.0482ZM199.567 51.6221C198.575 51.6221 197.507 52.2477 197.263 53.4683H201.718C201.474 52.2324 200.604 51.6221 199.567 51.6221ZM208.144 50.2184C210.082 50.2184 211.364 51.2407 211.364 53.0716V58H209.853V57.1303C209.289 57.7559 208.449 58.2136 207.274 58.2136C205.581 58.2136 204.452 57.2371 204.452 55.8181C204.452 54.3991 205.535 53.4226 207.488 53.4226H209.853V53.1937C209.853 52.2172 209.197 51.6069 208.236 51.6069C207.213 51.6069 206.557 52.0646 206.39 52.9191L204.879 52.5986C205.138 51.1796 206.451 50.2184 208.144 50.2184ZM207.519 56.9319C208.785 56.9319 209.853 56.047 209.853 54.8873V54.6432H207.458C206.527 54.6432 205.978 55.1162 205.978 55.7876C205.978 56.4742 206.588 56.9319 207.519 56.9319ZM222.79 50.2184C224.362 50.2184 225.659 51.3932 225.659 53.1784V58H224.087V53.4989C224.087 52.385 223.355 51.6831 222.378 51.6831C221.143 51.6831 220.334 52.5529 220.334 54.2465V58H218.747V53.4989C218.747 52.385 218.015 51.6831 217.038 51.6831C215.817 51.6831 215.024 52.5529 215.024 54.2465V58H213.437V50.432H215.024V51.2864C215.573 50.6151 216.367 50.2184 217.45 50.2184C218.533 50.2184 219.479 50.7219 219.968 51.6069C220.578 50.7524 221.539 50.2184 222.79 50.2184ZM231.035 55.9707L232.621 55.635C232.728 56.5352 233.522 56.9167 234.513 56.9167C235.429 56.9167 236.009 56.5047 236.009 55.9096C236.009 55.4519 235.688 55.162 234.986 55.0094L233.339 54.6737C232.026 54.3838 231.279 53.682 231.279 52.6139C231.279 51.2101 232.454 50.2184 234.269 50.2184C236.009 50.2184 237.184 51.1339 237.458 52.4003L235.948 52.7207C235.826 51.9883 235.2 51.4848 234.223 51.4848C233.293 51.4848 232.881 51.9425 232.881 52.4766C232.881 52.9038 233.125 53.1784 233.796 53.331L235.597 53.7277C236.817 53.9871 237.565 54.7043 237.565 55.7723C237.565 57.3592 236.268 58.2136 234.376 58.2136C232.682 58.2136 231.233 57.4965 231.035 55.9707ZM246.413 54.0482V54.5974H240.28C240.432 56.0012 241.454 56.8404 242.568 56.8404C243.407 56.8404 244.262 56.5963 244.796 55.5282L246.215 55.8334C245.589 57.4202 244.247 58.2136 242.568 58.2136C240.508 58.2136 238.708 56.6268 238.708 54.2312C238.708 51.8205 240.493 50.2184 242.629 50.2184C244.659 50.2184 246.337 51.7747 246.413 54.0482ZM242.629 51.6221C241.638 51.6221 240.569 52.2477 240.325 53.4683H244.781C244.537 52.2324 243.667 51.6221 242.629 51.6221ZM252.717 56.3064L253.205 57.6338C252.488 58.061 251.969 58.2136 251.329 58.2136C249.696 58.2136 248.597 57.2981 248.597 55.4214V51.7442H246.965V50.432H248.597V47.7771H250.184V50.432H252.778V51.7442H250.184V55.3146C250.184 56.2606 250.688 56.7183 251.435 56.7183C251.832 56.7183 252.32 56.5657 252.717 56.3064ZM261.373 50.432V58H259.787V57.0693C259.176 57.8016 258.291 58.2136 257.177 58.2136C255.346 58.2136 254.141 56.9014 254.141 54.9942V50.432H255.728V54.6737C255.728 55.9096 256.445 56.7488 257.544 56.7488C258.902 56.7488 259.787 55.8334 259.787 53.9261V50.432H261.373ZM268.119 50.2184C270.103 50.2184 271.873 51.8357 271.873 54.216C271.873 56.6115 270.103 58.2136 268.119 58.2136C266.944 58.2136 266.014 57.8016 265.373 57.0693V61.6619H263.786V50.432H265.373V51.3627C266.014 50.6456 266.944 50.2184 268.119 50.2184ZM267.86 56.8099C269.248 56.8099 270.332 55.8181 270.332 54.216C270.332 52.6291 269.248 51.6221 267.86 51.6221C266.609 51.6221 265.373 52.6291 265.373 54.216C265.373 55.8181 266.609 56.8099 267.86 56.8099ZM281.937 56.3064L282.425 57.6338C281.708 58.061 281.189 58.2136 280.549 58.2136C278.916 58.2136 277.817 57.2981 277.817 55.4214V51.7442H276.185V50.432H277.817V47.7771H279.404V50.432H281.998V51.7442H279.404V55.3146C279.404 56.2606 279.908 56.7183 280.655 56.7183C281.052 56.7183 281.54 56.5657 281.937 56.3064ZM286.932 50.2641C289.16 50.2641 290.975 51.8662 290.975 54.216C290.975 56.5657 289.16 58.1831 286.932 58.1831C284.689 58.1831 282.858 56.5657 282.858 54.216C282.858 51.8662 284.689 50.2641 286.932 50.2641ZM286.932 56.8099C288.229 56.8099 289.434 55.7876 289.434 54.216C289.434 52.6444 288.229 51.6221 286.932 51.6221C285.605 51.6221 284.414 52.6444 284.414 54.216C284.414 55.7876 285.605 56.8099 286.932 56.8099ZM300.856 50.2184C302.839 50.2184 304.609 51.8357 304.609 54.216C304.609 56.6115 302.839 58.2136 300.856 58.2136C299.681 58.2136 298.75 57.8016 298.109 57.0693V58H296.522V46.2513H298.109V51.3627C298.75 50.6456 299.681 50.2184 300.856 50.2184ZM300.596 56.8099C301.985 56.8099 303.068 55.8181 303.068 54.216C303.068 52.6291 301.985 51.6221 300.596 51.6221C299.345 51.6221 298.109 52.6291 298.109 54.216C298.109 55.8181 299.345 56.8099 300.596 56.8099ZM313.406 54.0482V54.5974H307.272C307.425 56.0012 308.447 56.8404 309.561 56.8404C310.4 56.8404 311.254 56.5963 311.789 55.5282L313.208 55.8334C312.582 57.4202 311.239 58.2136 309.561 58.2136C307.501 58.2136 305.701 56.6268 305.701 54.2312C305.701 51.8205 307.486 50.2184 309.622 50.2184C311.651 50.2184 313.33 51.7747 313.406 54.0482ZM309.622 51.6221C308.63 51.6221 307.562 52.2477 307.318 53.4683H311.773C311.529 52.2324 310.659 51.6221 309.622 51.6221ZM322.609 50.432V58.2441C322.594 60.4871 320.808 61.8145 318.474 61.8145C316.658 61.8145 315.407 61.1279 314.781 59.9988L316.094 58.9307C316.643 59.8005 317.284 60.2582 318.474 60.2582C319.878 60.2582 321.007 59.4495 321.007 58.0153V57.0693C320.366 57.8016 319.435 58.2136 318.26 58.2136C316.292 58.2136 314.507 56.6115 314.507 54.216C314.507 51.8357 316.292 50.2184 318.26 50.2184C319.435 50.2184 320.366 50.6456 321.007 51.3627V50.432H322.609ZM318.52 56.8099C319.786 56.8099 321.007 55.8181 321.007 54.216C321.007 52.6291 319.786 51.6221 318.52 51.6221C317.146 51.6221 316.063 52.6291 316.063 54.216C316.063 55.8181 317.146 56.8099 318.52 56.8099ZM325.913 47.1668C326.492 47.1668 326.92 47.6245 326.92 48.1585C326.92 48.7231 326.492 49.135 325.913 49.135C325.318 49.135 324.89 48.7231 324.89 48.1585C324.89 47.6245 325.318 47.1668 325.913 47.1668ZM326.706 58H325.119V50.432H326.706V58ZM333.44 50.2184C335.256 50.2184 336.476 51.5306 336.476 53.4226V58H334.874V53.743C334.874 52.5071 334.157 51.6831 333.074 51.6831C331.716 51.6831 330.816 52.5986 330.816 54.5059V58H329.229V50.432H330.816V51.3627C331.426 50.6303 332.311 50.2184 333.44 50.2184ZM346.931 50.3404C347.114 50.3404 347.267 50.3404 347.465 50.4015L347.358 51.9273C347.236 51.912 347.053 51.912 346.916 51.912C344.993 51.912 344.047 53.2547 344.047 55.3298V58H342.461V50.432H344.047V52.0493C344.658 51.0423 345.619 50.3404 346.931 50.3404ZM355.783 54.0482V54.5974H349.649C349.802 56.0012 350.824 56.8404 351.938 56.8404C352.777 56.8404 353.631 56.5963 354.166 55.5282L355.585 55.8334C354.959 57.4202 353.616 58.2136 351.938 58.2136C349.878 58.2136 348.078 56.6268 348.078 54.2312C348.078 51.8205 349.863 50.2184 351.999 50.2184C354.028 50.2184 355.707 51.7747 355.783 54.0482ZM351.999 51.6221C351.007 51.6221 349.939 52.2477 349.695 53.4683H354.15C353.906 52.2324 353.036 51.6221 351.999 51.6221ZM360.881 56.7488C361.888 56.7488 362.728 56.2301 363.109 55.162L364.574 55.5434C364.147 57.1608 362.636 58.2136 360.881 58.2136C358.715 58.2136 356.884 56.6115 356.884 54.216C356.884 51.851 358.715 50.2184 360.881 50.2184C362.59 50.2184 364.086 51.2559 364.574 52.8733L363.048 53.3158C362.743 52.2019 361.888 51.6831 360.881 51.6831C359.478 51.6831 358.44 52.7207 358.44 54.216C358.44 55.7571 359.478 56.7488 360.881 56.7488ZM373.395 54.0482V54.5974H367.261C367.414 56.0012 368.436 56.8404 369.55 56.8404C370.389 56.8404 371.244 56.5963 371.778 55.5282L373.197 55.8334C372.571 57.4202 371.229 58.2136 369.55 58.2136C367.49 58.2136 365.69 56.6268 365.69 54.2312C365.69 51.8205 367.475 50.2184 369.611 50.2184C371.641 50.2184 373.319 51.7747 373.395 54.0482ZM369.611 51.6221C368.619 51.6221 367.551 52.2477 367.307 53.4683H371.763C371.518 52.2324 370.649 51.6221 369.611 51.6221ZM376.068 47.1668C376.647 47.1668 377.075 47.6245 377.075 48.1585C377.075 48.7231 376.647 49.135 376.068 49.135C375.473 49.135 375.045 48.7231 375.045 48.1585C375.045 47.6245 375.473 47.1668 376.068 47.1668ZM376.861 58H375.274V50.432H376.861V58ZM386.601 50.4167L383.336 58H381.642L378.392 50.4167H380.116L382.497 56.108L384.877 50.4167H386.601ZM388.927 47.1668C389.507 47.1668 389.934 47.6245 389.934 48.1585C389.934 48.7231 389.507 49.135 388.927 49.135C388.332 49.135 387.904 48.7231 387.904 48.1585C387.904 47.6245 388.332 47.1668 388.927 47.1668ZM389.72 58H388.133V50.432H389.72V58ZM396.454 50.2184C398.27 50.2184 399.491 51.5306 399.491 53.4226V58H397.889V53.743C397.889 52.5071 397.171 51.6831 396.088 51.6831C394.73 51.6831 393.83 52.5986 393.83 54.5059V58H392.243V50.432H393.83V51.3627C394.44 50.6303 395.325 50.2184 396.454 50.2184ZM409.151 50.432V58.2441C409.136 60.4871 407.35 61.8145 405.016 61.8145C403.2 61.8145 401.949 61.1279 401.323 59.9988L402.636 58.9307C403.185 59.8005 403.826 60.2582 405.016 60.2582C406.42 60.2582 407.549 59.4495 407.549 58.0153V57.0693C406.908 57.8016 405.977 58.2136 404.802 58.2136C402.834 58.2136 401.049 56.6115 401.049 54.216C401.049 51.8357 402.834 50.2184 404.802 50.2184C405.977 50.2184 406.908 50.6456 407.549 51.3627V50.432H409.151ZM405.062 56.8099C406.328 56.8099 407.549 55.8181 407.549 54.216C407.549 52.6291 406.328 51.6221 405.062 51.6221C403.688 51.6221 402.605 52.6291 402.605 54.216C402.605 55.8181 403.688 56.8099 405.062 56.8099ZM416.743 46.2513V55.8334C416.743 56.3521 417.14 56.7183 417.72 56.7183C417.979 56.7183 418.33 56.6268 418.635 56.4894L418.94 57.8169C418.544 58.0305 418.132 58.2136 417.445 58.2136C416.072 58.2136 415.156 57.2981 415.156 55.9249V46.2513H416.743ZM427.141 54.0482V54.5974H421.008C421.16 56.0012 422.182 56.8404 423.296 56.8404C424.135 56.8404 424.99 56.5963 425.524 55.5282L426.943 55.8334C426.317 57.4202 424.975 58.2136 423.296 58.2136C421.236 58.2136 419.436 56.6268 419.436 54.2312C419.436 51.8205 421.221 50.2184 423.357 50.2184C425.387 50.2184 427.065 51.7747 427.141 54.0482ZM423.357 51.6221C422.366 51.6221 421.297 52.2477 421.053 53.4683H425.509C425.265 52.2324 424.395 51.6221 423.357 51.6221ZM431.935 50.2184C433.872 50.2184 435.154 51.2407 435.154 53.0716V58H433.643V57.1303C433.079 57.7559 432.24 58.2136 431.065 58.2136C429.371 58.2136 428.242 57.2371 428.242 55.8181C428.242 54.3991 429.325 53.4226 431.278 53.4226H433.643V53.1937C433.643 52.2172 432.987 51.6069 432.026 51.6069C431.004 51.6069 430.348 52.0646 430.18 52.9191L428.669 52.5986C428.929 51.1796 430.241 50.2184 431.935 50.2184ZM431.309 56.9319C432.575 56.9319 433.643 56.047 433.643 54.8873V54.6432H431.248C430.317 54.6432 429.768 55.1162 429.768 55.7876C429.768 56.4742 430.378 56.9319 431.309 56.9319ZM444.674 46.2513V58H443.071V57.0693C442.431 57.8016 441.5 58.2136 440.325 58.2136C438.357 58.2136 436.572 56.6115 436.572 54.216C436.572 51.8357 438.357 50.2184 440.325 50.2184C441.5 50.2184 442.431 50.6456 443.071 51.3627V46.2513H444.674ZM440.584 56.8099C441.851 56.8099 443.071 55.8181 443.071 54.216C443.071 52.6291 441.851 51.6221 440.584 51.6221C439.211 51.6221 438.128 52.6291 438.128 54.216C438.128 55.8181 439.211 56.8099 440.584 56.8099ZM446.421 55.9707L448.008 55.635C448.115 56.5352 448.908 56.9167 449.9 56.9167C450.815 56.9167 451.395 56.5047 451.395 55.9096C451.395 55.4519 451.075 55.162 450.373 55.0094L448.725 54.6737C447.413 54.3838 446.665 53.682 446.665 52.6139C446.665 51.2101 447.84 50.2184 449.656 50.2184C451.395 50.2184 452.57 51.1339 452.845 52.4003L451.334 52.7207C451.212 51.9883 450.587 51.4848 449.61 51.4848C448.679 51.4848 448.267 51.9425 448.267 52.4766C448.267 52.9038 448.511 53.1784 449.183 53.331L450.983 53.7277C452.204 53.9871 452.952 54.7043 452.952 55.7723C452.952 57.3592 451.655 58.2136 449.763 58.2136C448.069 58.2136 446.619 57.4965 446.421 55.9707Z" fill="black"/>
<path d="M87.2077 77.7771V88H84.7053V83.9566H80.4026V88H77.885V77.7771H80.4026V81.7594H84.7053V77.7771H87.2077ZM95.3942 82.8275C96.2029 83.2395 96.6607 83.9719 96.6607 84.9331C96.6607 86.8709 95.1043 88.2289 92.8461 88.2289C90.71 88.2289 89.1232 86.9777 88.8943 84.9942L91.2745 84.5517C91.4271 85.5587 91.9612 86.1385 92.8614 86.1385C93.7158 86.1385 94.3414 85.6503 94.3414 84.9026C94.3414 84.2312 93.8379 83.8345 92.9377 83.8345H91.5645V81.8357H92.8309C93.7006 81.8357 94.2041 81.4543 94.2041 80.7982C94.2041 80.0963 93.6701 79.6233 92.8461 79.6233C92.0375 79.6233 91.4119 80.1268 91.3203 81.2712L89.0163 80.8287C89.2605 78.7994 90.7558 77.5482 92.8309 77.5482C95.0128 77.5482 96.5081 78.8909 96.5081 80.7677C96.5081 81.6984 96.0961 82.4155 95.3942 82.8275Z" fill="black"/>
<path d="M114.492 82.736V82.797C115.484 82.9038 116.414 83.7582 116.414 85.1925C116.414 86.8404 115.346 88 113.18 88H108.205V77.7771H113.073C114.949 77.7771 116.109 78.8909 116.109 80.5388C116.109 81.8357 115.239 82.6139 114.492 82.736ZM109.838 79.1808V82.2019H112.89C113.866 82.2019 114.522 81.5763 114.522 80.6303C114.522 79.7606 113.851 79.1808 112.905 79.1808H109.838ZM109.838 86.5963H113.012C114.11 86.5963 114.736 85.9707 114.736 85.0399C114.736 84.1092 114.049 83.5141 113.057 83.5141H109.838V86.5963ZM125.223 80.432V88H123.636V87.0693C123.026 87.8016 122.141 88.2136 121.027 88.2136C119.196 88.2136 117.991 86.9014 117.991 84.9942V80.432H119.578V84.6737C119.578 85.9096 120.295 86.7488 121.393 86.7488C122.751 86.7488 123.636 85.8334 123.636 83.9261V80.432H125.223ZM128.551 77.1668C129.131 77.1668 129.558 77.6245 129.558 78.1585C129.558 78.7231 129.131 79.135 128.551 79.135C127.956 79.135 127.529 78.7231 127.529 78.1585C127.529 77.6245 127.956 77.1668 128.551 77.1668ZM129.345 88H127.758V80.432H129.345V88ZM133.302 76.2513V85.8334C133.302 86.3521 133.698 86.7183 134.278 86.7183C134.538 86.7183 134.888 86.6268 135.194 86.4894L135.499 87.8169C135.102 88.0305 134.69 88.2136 134.003 88.2136C132.63 88.2136 131.715 87.2981 131.715 85.9249V76.2513H133.302ZM144.096 76.2513V88H142.494V87.0693C141.853 87.8016 140.923 88.2136 139.748 88.2136C137.78 88.2136 135.994 86.6115 135.994 84.216C135.994 81.8357 137.78 80.2184 139.748 80.2184C140.923 80.2184 141.853 80.6456 142.494 81.3627V76.2513H144.096ZM140.007 86.8099C141.274 86.8099 142.494 85.8181 142.494 84.216C142.494 82.6291 141.274 81.6221 140.007 81.6221C138.634 81.6221 137.551 82.6291 137.551 84.216C137.551 85.8181 138.634 86.8099 140.007 86.8099ZM157.594 80.4167L152.589 91.6619H150.819L152.528 87.8169L149.263 80.4167H151.033L153.382 85.8944L155.824 80.4167H157.594ZM162.195 80.2641C164.423 80.2641 166.239 81.8662 166.239 84.216C166.239 86.5657 164.423 88.1831 162.195 88.1831C159.953 88.1831 158.122 86.5657 158.122 84.216C158.122 81.8662 159.953 80.2641 162.195 80.2641ZM162.195 86.8099C163.492 86.8099 164.698 85.7876 164.698 84.216C164.698 82.6444 163.492 81.6221 162.195 81.6221C160.868 81.6221 159.678 82.6444 159.678 84.216C159.678 85.7876 160.868 86.8099 162.195 86.8099ZM175.065 80.432V88H173.478V87.0693C172.868 87.8016 171.983 88.2136 170.869 88.2136C169.038 88.2136 167.833 86.9014 167.833 84.9942V80.432H169.42V84.6737C169.42 85.9096 170.137 86.7488 171.235 86.7488C172.593 86.7488 173.478 85.8334 173.478 83.9261V80.432H175.065ZM181.948 80.3404C182.131 80.3404 182.284 80.3404 182.482 80.4015L182.376 81.9273C182.254 81.912 182.07 81.912 181.933 81.912C180.011 81.912 179.065 83.2547 179.065 85.3298V88H177.478V80.432H179.065V82.0493C179.675 81.0423 180.636 80.3404 181.948 80.3404ZM191.988 80.2184C193.972 80.2184 195.742 81.8357 195.742 84.216C195.742 86.6115 193.972 88.2136 191.988 88.2136C190.813 88.2136 189.882 87.8016 189.242 87.0693V88H187.655V76.2513H189.242V81.3627C189.882 80.6456 190.813 80.2184 191.988 80.2184ZM191.729 86.8099C193.117 86.8099 194.201 85.8181 194.201 84.216C194.201 82.6291 193.117 81.6221 191.729 81.6221C190.478 81.6221 189.242 82.6291 189.242 84.216C189.242 85.8181 190.478 86.8099 191.729 86.8099ZM201.96 80.3404C202.143 80.3404 202.295 80.3404 202.494 80.4015L202.387 81.9273C202.265 81.912 202.082 81.912 201.944 81.912C200.022 81.912 199.076 83.2547 199.076 85.3298V88H197.489V80.432H199.076V82.0493C199.686 81.0423 200.648 80.3404 201.96 80.3404ZM206.724 80.2184C208.662 80.2184 209.944 81.2407 209.944 83.0716V88H208.433V87.1303C207.868 87.7559 207.029 88.2136 205.854 88.2136C204.161 88.2136 203.032 87.2371 203.032 85.8181C203.032 84.3991 204.115 83.4226 206.068 83.4226H208.433V83.1937C208.433 82.2172 207.777 81.6069 206.816 81.6069C205.793 81.6069 205.137 82.0646 204.969 82.9191L203.459 82.5986C203.718 81.1796 205.03 80.2184 206.724 80.2184ZM206.098 86.9319C207.365 86.9319 208.433 86.047 208.433 84.8873V84.6432H206.037C205.107 84.6432 204.557 85.1162 204.557 85.7876C204.557 86.4742 205.168 86.9319 206.098 86.9319ZM216.228 80.2184C218.044 80.2184 219.265 81.5306 219.265 83.4226V88H217.663V83.743C217.663 82.5071 216.945 81.6831 215.862 81.6831C214.504 81.6831 213.604 82.5986 213.604 84.5059V88H212.017V80.432H213.604V81.3627C214.214 80.6303 215.099 80.2184 216.228 80.2184ZM228.925 76.2513V88H227.323V87.0693C226.682 87.8016 225.751 88.2136 224.576 88.2136C222.608 88.2136 220.823 86.6115 220.823 84.216C220.823 81.8357 222.608 80.2184 224.576 80.2184C225.751 80.2184 226.682 80.6456 227.323 81.3627V76.2513H228.925ZM224.836 86.8099C226.102 86.8099 227.323 85.8181 227.323 84.216C227.323 82.6291 226.102 81.6221 224.836 81.6221C223.462 81.6221 222.379 82.6291 222.379 84.216C222.379 85.8181 223.462 86.8099 224.836 86.8099Z" fill="black"/>
<path d="M87.2077 107.777V118H84.7053V113.957H80.4026V118H77.885V107.777H80.4026V111.759H84.7053V107.777H87.2077ZM95.3942 112.828C96.2029 113.239 96.6607 113.972 96.6607 114.933C96.6607 116.871 95.1043 118.229 92.8461 118.229C90.71 118.229 89.1232 116.978 88.8943 114.994L91.2745 114.552C91.4271 115.559 91.9612 116.139 92.8614 116.139C93.7158 116.139 94.3414 115.65 94.3414 114.903C94.3414 114.231 93.8379 113.835 92.9377 113.835H91.5645V111.836H92.8309C93.7006 111.836 94.2041 111.454 94.2041 110.798C94.2041 110.096 93.6701 109.623 92.8461 109.623C92.0375 109.623 91.4119 110.127 91.3203 111.271L89.0163 110.829C89.2605 108.799 90.7558 107.548 92.8309 107.548C95.0128 107.548 96.5081 108.891 96.5081 110.768C96.5081 111.698 96.0961 112.416 95.3942 112.828Z" fill="black"/>
<path d="M111.242 109.257V116.52H113.485V118H107.351V116.52H109.594V109.257H107.351V107.777H113.485V109.257H111.242ZM119.256 110.218C121.072 110.218 122.292 111.531 122.292 113.423V118H120.69V113.743C120.69 112.507 119.973 111.683 118.89 111.683C117.532 111.683 116.632 112.599 116.632 114.506V118H115.045V110.432H116.632V111.363C117.242 110.63 118.127 110.218 119.256 110.218ZM131.455 110.417L128.19 118H126.497L123.247 110.417H124.971L127.351 116.108L129.731 110.417H131.455ZM133.781 107.167C134.361 107.167 134.788 107.624 134.788 108.159C134.788 108.723 134.361 109.135 133.781 109.135C133.186 109.135 132.759 108.723 132.759 108.159C132.759 107.624 133.186 107.167 133.781 107.167ZM134.575 118H132.988V110.432H134.575V118ZM141.644 116.306L142.133 117.634C141.415 118.061 140.897 118.214 140.256 118.214C138.623 118.214 137.525 117.298 137.525 115.421V111.744H135.892V110.432H137.525V107.777H139.112V110.432H141.705V111.744H139.112V115.315C139.112 116.261 139.615 116.718 140.363 116.718C140.759 116.718 141.248 116.566 141.644 116.306ZM150.271 114.048V114.597H144.137C144.29 116.001 145.312 116.84 146.426 116.84C147.265 116.84 148.119 116.596 148.653 115.528L150.072 115.833C149.447 117.42 148.104 118.214 146.426 118.214C144.366 118.214 142.565 116.627 142.565 114.231C142.565 111.82 144.351 110.218 146.487 110.218C148.516 110.218 150.194 111.775 150.271 114.048ZM146.487 111.622C145.495 111.622 144.427 112.248 144.183 113.468H148.638C148.394 112.232 147.524 111.622 146.487 111.622ZM158.834 110.218C160.772 110.218 162.053 111.241 162.053 113.072V118H160.543V117.13C159.978 117.756 159.139 118.214 157.964 118.214C156.271 118.214 155.141 117.237 155.141 115.818C155.141 114.399 156.225 113.423 158.178 113.423H160.543V113.194C160.543 112.217 159.887 111.607 158.925 111.607C157.903 111.607 157.247 112.065 157.079 112.919L155.569 112.599C155.828 111.18 157.14 110.218 158.834 110.218ZM158.208 116.932C159.475 116.932 160.543 116.047 160.543 114.887V114.643H158.147C157.217 114.643 156.667 115.116 156.667 115.788C156.667 116.474 157.278 116.932 158.208 116.932ZM171.573 110.432V118.244C171.558 120.487 169.772 121.815 167.438 121.815C165.622 121.815 164.371 121.128 163.745 119.999L165.058 118.931C165.607 119.8 166.248 120.258 167.438 120.258C168.842 120.258 169.971 119.45 169.971 118.015V117.069C169.33 117.802 168.399 118.214 167.224 118.214C165.256 118.214 163.471 116.612 163.471 114.216C163.471 111.836 165.256 110.218 167.224 110.218C168.399 110.218 169.33 110.646 169.971 111.363V110.432H171.573ZM167.484 116.81C168.75 116.81 169.971 115.818 169.971 114.216C169.971 112.629 168.75 111.622 167.484 111.622C166.11 111.622 165.027 112.629 165.027 114.216C165.027 115.818 166.11 116.81 167.484 116.81ZM181.01 114.048V114.597H174.877C175.029 116.001 176.052 116.84 177.165 116.84C178.005 116.84 178.859 116.596 179.393 115.528L180.812 115.833C180.187 117.42 178.844 118.214 177.165 118.214C175.106 118.214 173.305 116.627 173.305 114.231C173.305 111.82 175.09 110.218 177.226 110.218C179.256 110.218 180.934 111.775 181.01 114.048ZM177.226 111.622C176.235 111.622 175.167 112.248 174.922 113.468H179.378C179.134 112.232 178.264 111.622 177.226 111.622ZM186.979 110.218C188.794 110.218 190.015 111.531 190.015 113.423V118H188.413V113.743C188.413 112.507 187.696 111.683 186.612 111.683C185.254 111.683 184.354 112.599 184.354 114.506V118H182.767V110.432H184.354V111.363C184.965 110.63 185.85 110.218 186.979 110.218ZM196.776 116.306L197.264 117.634C196.547 118.061 196.028 118.214 195.388 118.214C193.755 118.214 192.656 117.298 192.656 115.421V111.744H191.024V110.432H192.656V107.777H194.243V110.432H196.837V111.744H194.243V115.315C194.243 116.261 194.747 116.718 195.494 116.718C195.891 116.718 196.379 116.566 196.776 116.306ZM197.906 115.971L199.493 115.635C199.6 116.535 200.393 116.917 201.385 116.917C202.301 116.917 202.88 116.505 202.88 115.91C202.88 115.452 202.56 115.162 201.858 115.009L200.21 114.674C198.898 114.384 198.15 113.682 198.15 112.614C198.15 111.21 199.325 110.218 201.141 110.218C202.88 110.218 204.055 111.134 204.33 112.4L202.819 112.721C202.697 111.988 202.072 111.485 201.095 111.485C200.164 111.485 199.752 111.943 199.752 112.477C199.752 112.904 199.997 113.178 200.668 113.331L202.468 113.728C203.689 113.987 204.437 114.704 204.437 115.772C204.437 117.359 203.14 118.214 201.248 118.214C199.554 118.214 198.105 117.496 197.906 115.971Z" fill="black"/>
<path d="M87.2077 137.777V148H84.7053V143.957H80.4026V148H77.885V137.777H80.4026V141.759H84.7053V137.777H87.2077ZM95.3942 142.828C96.2029 143.239 96.6607 143.972 96.6607 144.933C96.6607 146.871 95.1043 148.229 92.8461 148.229C90.71 148.229 89.1232 146.978 88.8943 144.994L91.2745 144.552C91.4271 145.559 91.9612 146.139 92.8614 146.139C93.7158 146.139 94.3414 145.65 94.3414 144.903C94.3414 144.231 93.8379 143.835 92.9377 143.835H91.5645V141.836H92.8309C93.7006 141.836 94.2041 141.454 94.2041 140.798C94.2041 140.096 93.6701 139.623 92.8461 139.623C92.0375 139.623 91.4119 140.127 91.3203 141.271L89.0163 140.829C89.2605 138.799 90.7558 137.548 92.8309 137.548C95.0128 137.548 96.5081 138.891 96.5081 140.768C96.5081 141.698 96.0961 142.416 95.3942 142.828Z" fill="black"/>
<path d="M115.819 146.52V148H108.205V137.777H115.804V139.257H109.838V142.141H115.346V143.606H109.838V146.52H115.819ZM122.117 140.218C123.933 140.218 125.153 141.531 125.153 143.423V148H123.551V143.743C123.551 142.507 122.834 141.683 121.751 141.683C120.393 141.683 119.492 142.599 119.492 144.506V148H117.906V140.432H119.492V141.363C120.103 140.63 120.988 140.218 122.117 140.218ZM130.404 140.218C132.342 140.218 133.623 141.241 133.623 143.072V148H132.113V147.13C131.548 147.756 130.709 148.214 129.534 148.214C127.84 148.214 126.711 147.237 126.711 145.818C126.711 144.399 127.795 143.423 129.748 143.423H132.113V143.194C132.113 142.217 131.457 141.607 130.495 141.607C129.473 141.607 128.817 142.065 128.649 142.919L127.139 142.599C127.398 141.18 128.71 140.218 130.404 140.218ZM129.778 146.932C131.045 146.932 132.113 146.047 132.113 144.887V144.643H129.717C128.786 144.643 128.237 145.116 128.237 145.788C128.237 146.474 128.847 146.932 129.778 146.932ZM140.03 140.218C142.014 140.218 143.784 141.836 143.784 144.216C143.784 146.612 142.014 148.214 140.03 148.214C138.855 148.214 137.924 147.802 137.284 147.069V148H135.697V136.251H137.284V141.363C137.924 140.646 138.855 140.218 140.03 140.218ZM139.771 146.81C141.159 146.81 142.243 145.818 142.243 144.216C142.243 142.629 141.159 141.622 139.771 141.622C138.52 141.622 137.284 142.629 137.284 144.216C137.284 145.818 138.52 146.81 139.771 146.81ZM146.965 136.251V145.833C146.965 146.352 147.362 146.718 147.942 146.718C148.201 146.718 148.552 146.627 148.857 146.489L149.163 147.817C148.766 148.031 148.354 148.214 147.667 148.214C146.294 148.214 145.379 147.298 145.379 145.925V136.251H146.965ZM157.363 144.048V144.597H151.23C151.382 146.001 152.405 146.84 153.518 146.84C154.358 146.84 155.212 146.596 155.746 145.528L157.165 145.833C156.539 147.42 155.197 148.214 153.518 148.214C151.459 148.214 149.658 146.627 149.658 144.231C149.658 141.82 151.443 140.218 153.579 140.218C155.609 140.218 157.287 141.775 157.363 144.048ZM153.579 141.622C152.588 141.622 151.52 142.248 151.275 143.468H155.731C155.487 142.232 154.617 141.622 153.579 141.622ZM164.324 136.251V145.833C164.324 146.352 164.721 146.718 165.301 146.718C165.56 146.718 165.911 146.627 166.216 146.489L166.522 147.817C166.125 148.031 165.713 148.214 165.026 148.214C163.653 148.214 162.738 147.298 162.738 145.925V136.251H164.324ZM174.722 144.048V144.597H168.589C168.741 146.001 169.764 146.84 170.877 146.84C171.717 146.84 172.571 146.596 173.105 145.528L174.524 145.833C173.899 147.42 172.556 148.214 170.877 148.214C168.818 148.214 167.017 146.627 167.017 144.231C167.017 141.82 168.802 140.218 170.938 140.218C172.968 140.218 174.646 141.775 174.722 144.048ZM170.938 141.622C169.947 141.622 168.879 142.248 168.634 143.468H173.09C172.846 142.232 171.976 141.622 170.938 141.622ZM179.516 140.218C181.454 140.218 182.735 141.241 182.735 143.072V148H181.225V147.13C180.66 147.756 179.821 148.214 178.646 148.214C176.952 148.214 175.823 147.237 175.823 145.818C175.823 144.399 176.907 143.423 178.86 143.423H181.225V143.194C181.225 142.217 180.569 141.607 179.607 141.607C178.585 141.607 177.929 142.065 177.761 142.919L176.251 142.599C176.51 141.18 177.822 140.218 179.516 140.218ZM178.89 146.932C180.157 146.932 181.225 146.047 181.225 144.887V144.643H178.829C177.898 144.643 177.349 145.116 177.349 145.788C177.349 146.474 177.959 146.932 178.89 146.932ZM192.255 136.251V148H190.653V147.069C190.012 147.802 189.081 148.214 187.906 148.214C185.938 148.214 184.153 146.612 184.153 144.216C184.153 141.836 185.938 140.218 187.906 140.218C189.081 140.218 190.012 140.646 190.653 141.363V136.251H192.255ZM188.166 146.81C189.432 146.81 190.653 145.818 190.653 144.216C190.653 142.629 189.432 141.622 188.166 141.622C186.792 141.622 185.709 142.629 185.709 144.216C185.709 145.818 186.792 146.81 188.166 146.81ZM194.002 145.971L195.589 145.635C195.696 146.535 196.489 146.917 197.481 146.917C198.397 146.917 198.976 146.505 198.976 145.91C198.976 145.452 198.656 145.162 197.954 145.009L196.306 144.674C194.994 144.384 194.246 143.682 194.246 142.614C194.246 141.21 195.421 140.218 197.237 140.218C198.976 140.218 200.151 141.134 200.426 142.4L198.915 142.721C198.793 141.988 198.168 141.485 197.191 141.485C196.26 141.485 195.849 141.943 195.849 142.477C195.849 142.904 196.093 143.178 196.764 143.331L198.564 143.728C199.785 143.987 200.533 144.704 200.533 145.772C200.533 147.359 199.236 148.214 197.344 148.214C195.65 148.214 194.201 147.496 194.002 145.971Z" fill="black"/>
<path d="M54.2077 167.777V178H51.7053V173.957H47.4026V178H44.885V167.777H47.4026V171.759H51.7053V167.777H54.2077ZM63.5538 175.803V178H56.1384V176.352L59.6783 173.041C60.3344 172.416 61.0363 171.805 61.0363 170.874C61.0363 170.142 60.5175 169.654 59.7698 169.654C58.9306 169.654 58.3966 170.157 58.3203 171.302L55.9858 170.859C56.0774 168.799 57.5879 167.548 59.7698 167.548C61.9365 167.548 63.447 168.83 63.447 170.859C63.447 172.278 62.6841 173.163 61.3109 174.46L59.8461 175.803H63.5538Z" fill="black"/>
<path d="M82.4225 176.52V178H75.2054V167.777H76.838V176.52H82.4225ZM91.2396 174.048V174.597H85.1059C85.2584 176.001 86.2807 176.84 87.3946 176.84C88.2338 176.84 89.0882 176.596 89.6223 175.528L91.0413 175.833C90.4157 177.42 89.073 178.214 87.3946 178.214C85.3347 178.214 83.5343 176.627 83.5343 174.231C83.5343 171.82 85.3195 170.218 87.4556 170.218C89.4849 170.218 91.1633 171.775 91.2396 174.048ZM87.4556 171.622C86.4638 171.622 85.3958 172.248 85.1516 173.468H89.607C89.3629 172.232 88.4932 171.622 87.4556 171.622ZM96.0329 170.218C97.9707 170.218 99.2524 171.241 99.2524 173.072V178H97.7418V177.13C97.1773 177.756 96.3381 178.214 95.1632 178.214C93.4696 178.214 92.3405 177.237 92.3405 175.818C92.3405 174.399 93.4238 173.423 95.3768 173.423H97.7418V173.194C97.7418 172.217 97.0857 171.607 96.1245 171.607C95.1022 171.607 94.4461 172.065 94.2782 172.919L92.7677 172.599C93.0271 171.18 94.3393 170.218 96.0329 170.218ZM95.4073 176.932C96.6738 176.932 97.7418 176.047 97.7418 174.887V174.643H95.3463C94.4156 174.643 93.8663 175.116 93.8663 175.788C93.8663 176.474 94.4766 176.932 95.4073 176.932ZM108.772 166.251V178H107.17V177.069C106.529 177.802 105.598 178.214 104.423 178.214C102.455 178.214 100.67 176.612 100.67 174.216C100.67 171.836 102.455 170.218 104.423 170.218C105.598 170.218 106.529 170.646 107.17 171.363V166.251H108.772ZM104.683 176.81C105.949 176.81 107.17 175.818 107.17 174.216C107.17 172.629 105.949 171.622 104.683 171.622C103.309 171.622 102.226 172.629 102.226 174.216C102.226 175.818 103.309 176.81 104.683 176.81ZM110.519 175.971L112.106 175.635C112.213 176.535 113.006 176.917 113.998 176.917C114.914 176.917 115.494 176.505 115.494 175.91C115.494 175.452 115.173 175.162 114.471 175.009L112.823 174.674C111.511 174.384 110.764 173.682 110.764 172.614C110.764 171.21 111.938 170.218 113.754 170.218C115.494 170.218 116.668 171.134 116.943 172.4L115.433 172.721C115.31 171.988 114.685 171.485 113.708 171.485C112.778 171.485 112.366 171.943 112.366 172.477C112.366 172.904 112.61 173.178 113.281 173.331L115.082 173.728C116.302 173.987 117.05 174.704 117.05 175.772C117.05 177.359 115.753 178.214 113.861 178.214C112.167 178.214 110.718 177.496 110.519 175.971ZM127.059 171.744H124.541V178H122.954V171.744H121.719V170.432H122.954V168.845C122.954 167.151 124.068 166.099 125.747 166.099C126.22 166.099 126.632 166.19 127.044 166.373L126.662 167.67C126.387 167.563 126.098 167.518 125.853 167.518C125.06 167.518 124.541 168.006 124.541 168.845V170.432H127.059V171.744ZM135.36 170.432V178H133.773V177.069C133.163 177.802 132.278 178.214 131.164 178.214C129.333 178.214 128.128 176.901 128.128 174.994V170.432H129.714V174.674C129.714 175.91 130.432 176.749 131.53 176.749C132.888 176.749 133.773 175.833 133.773 173.926V170.432H135.36ZM141.984 170.218C143.799 170.218 145.02 171.531 145.02 173.423V178H143.418V173.743C143.418 172.507 142.701 171.683 141.618 171.683C140.26 171.683 139.359 172.599 139.359 174.506V178H137.773V170.432H139.359V171.363C139.97 170.63 140.855 170.218 141.984 170.218ZM151.446 170.218C153.261 170.218 154.482 171.531 154.482 173.423V178H152.88V173.743C152.88 172.507 152.163 171.683 151.079 171.683C149.721 171.683 148.821 172.599 148.821 174.506V178H147.234V170.432H148.821V171.363C149.432 170.63 150.316 170.218 151.446 170.218ZM163.745 174.048V174.597H157.612C157.764 176.001 158.787 176.84 159.9 176.84C160.74 176.84 161.594 176.596 162.128 175.528L163.547 175.833C162.921 177.42 161.579 178.214 159.9 178.214C157.841 178.214 156.04 176.627 156.04 174.231C156.04 171.82 157.825 170.218 159.961 170.218C161.991 170.218 163.669 171.775 163.745 174.048ZM159.961 171.622C158.97 171.622 157.902 172.248 157.657 173.468H162.113C161.869 172.232 160.999 171.622 159.961 171.622ZM166.937 166.251V175.833C166.937 176.352 167.333 176.718 167.913 176.718C168.173 176.718 168.523 176.627 168.829 176.489L169.134 177.817C168.737 178.031 168.325 178.214 167.638 178.214C166.265 178.214 165.35 177.298 165.35 175.925V166.251H166.937Z" fill="black"/>
<path d="M3.77344 135.276H462.605V177.18C462.605 186.016 455.442 193.18 446.605 193.18H19.7734C10.9369 193.18 3.77344 186.016 3.77344 177.18V135.276Z" fill="url(#paint0_linear_352_14911)"/>
<defs>
<linearGradient id="paint0_linear_352_14911" x1="233.189" y1="135.276" x2="233.189" y2="193.18" gradientUnits="userSpaceOnUse">
<stop stop-color="white" stop-opacity="0"/>
<stop offset="0.852461" stop-color="white"/>
</linearGradient>
</defs>
</svg>
