<svg width="325" height="232" viewBox="0 0 325 232" fill="none" xmlns="http://www.w3.org/2000/svg">
<rect y="139.32" width="222.97" height="92.2681" rx="10" fill="#D92228"/>
<path fill-rule="evenodd" clip-rule="evenodd" d="M12.4912 150.214C10.4692 150.214 8.83008 151.853 8.83008 153.875V164.859C8.83008 166.881 10.4692 168.52 12.4912 168.52H23.4744C25.4964 168.52 27.1355 166.881 27.1355 164.859V153.875C27.1355 151.853 25.4964 150.214 23.4744 150.214H12.4912ZM16.1523 156.621C16.1523 157.632 15.3327 158.452 14.3217 158.452C13.3107 158.452 12.4912 157.632 12.4912 156.621C12.4912 155.61 13.3107 154.791 14.3217 154.791C15.3327 154.791 16.1523 155.61 16.1523 156.621ZM23.5855 159.478L25.305 161.198V164.859C25.305 165.87 24.4854 166.689 23.4744 166.689H12.4912L19.7023 159.478C20.7746 158.406 22.5132 158.406 23.5855 159.478Z" fill="#F8F7F7"/>
<rect x="39.543" y="153.265" width="111.838" height="12.2036" rx="6.10182" fill="#F8F7F7"/>
<path fill-rule="evenodd" clip-rule="evenodd" d="M12.4912 175.214C10.4692 175.214 8.83008 176.853 8.83008 178.875V189.859C8.83008 191.881 10.4692 193.52 12.4912 193.52H23.4744C25.4964 193.52 27.1355 191.881 27.1355 189.859V178.875C27.1355 176.853 25.4964 175.214 23.4744 175.214H12.4912ZM16.1523 181.621C16.1523 182.632 15.3327 183.452 14.3217 183.452C13.3107 183.452 12.4912 182.632 12.4912 181.621C12.4912 180.61 13.3107 179.791 14.3217 179.791C15.3327 179.791 16.1523 180.61 16.1523 181.621ZM23.5855 184.478L25.305 186.198V189.859C25.305 190.87 24.4854 191.689 23.4744 191.689H12.4912L19.7023 184.478C20.7746 183.406 22.5132 183.406 23.5855 184.478Z" fill="#F8F7F7"/>
<path fill-rule="evenodd" clip-rule="evenodd" d="M12.4912 199.214C10.4692 199.214 8.83008 200.853 8.83008 202.875V213.859C8.83008 215.881 10.4692 217.52 12.4912 217.52H23.4744C25.4964 217.52 27.1355 215.881 27.1355 213.859V202.875C27.1355 200.853 25.4964 199.214 23.4744 199.214H12.4912ZM16.1523 205.621C16.1523 206.632 15.3327 207.452 14.3217 207.452C13.3107 207.452 12.4912 206.632 12.4912 205.621C12.4912 204.61 13.3107 203.791 14.3217 203.791C15.3327 203.791 16.1523 204.61 16.1523 205.621ZM23.5855 208.478L25.305 210.198V213.859C25.305 214.87 24.4854 215.689 23.4744 215.689H12.4912L19.7023 208.478C20.7746 207.406 22.5132 207.406 23.5855 208.478Z" fill="#F8F7F7"/>
<rect x="39.543" y="178.265" width="145.047" height="12.2036" rx="6.10182" fill="#F8F7F7"/>
<rect x="39.543" y="202.265" width="162.417" height="12.2036" rx="6.10182" fill="#F8F7F7"/>
<ellipse cx="255.255" cy="22.7463" rx="23.5173" ry="22.7463" fill="#BEB8B0"/>
<ellipse cx="255.255" cy="126.839" rx="23.5173" ry="22.7463" fill="#BA1D22"/>
<ellipse cx="208.991" cy="101.008" rx="22.7463" ry="23.1318" fill="#D92228"/>
<ellipse cx="301.519" cy="101.008" rx="22.7463" ry="23.1318" fill="#1A1816"/>
<ellipse cx="208.991" cy="49.3481" rx="22.7463" ry="23.1318" fill="#D4D2D1"/>
<ellipse cx="301.519" cy="49.3481" rx="22.7463" ry="23.1318" fill="#1A1816"/>
<path d="M152.668 127.824C153.089 128.537 152.851 129.457 152.138 129.878C151.424 130.298 150.504 130.061 150.084 129.347L151.376 128.585L152.668 127.824ZM175.903 80.0732C176.641 80.4491 176.935 81.3523 176.559 82.0905L170.434 94.1208C170.058 94.859 169.154 95.1527 168.416 94.7768C167.678 94.4009 167.384 93.4977 167.76 92.7595L173.205 82.066L162.512 76.621C161.773 76.2451 161.48 75.3419 161.855 74.6036C162.231 73.8654 163.135 73.5717 163.873 73.9476L175.903 80.0732ZM151.376 128.585L150.084 129.347C146.694 123.596 143.837 114.203 146.411 104.699C149.016 95.0844 157.072 85.7355 174.759 79.9834L175.222 81.4099L175.686 82.8363C158.699 88.361 151.582 97.0866 149.307 105.484C147.002 113.991 149.559 122.548 152.668 127.824L151.376 128.585Z" fill="black"/>
</svg>
