<svg width="316" height="231" viewBox="0 0 316 231" fill="none" xmlns="http://www.w3.org/2000/svg">
<rect y="138.291" width="315.5" height="92.2681" rx="10" fill="#D92228"/>
<path fill-rule="evenodd" clip-rule="evenodd" d="M12.4912 149.186C10.4692 149.186 8.83008 150.825 8.83008 152.847V163.83C8.83008 165.852 10.4692 167.491 12.4912 167.491H23.4744C25.4964 167.491 27.1355 165.852 27.1355 163.83V152.847C27.1355 150.825 25.4964 149.186 23.4744 149.186H12.4912ZM16.1523 155.593C16.1523 156.604 15.3327 157.423 14.3217 157.423C13.3107 157.423 12.4912 156.604 12.4912 155.593C12.4912 154.582 13.3107 153.762 14.3217 153.762C15.3327 153.762 16.1523 154.582 16.1523 155.593ZM23.5855 158.45L25.305 160.169V163.83C25.305 164.841 24.4854 165.661 23.4744 165.661H12.4912L19.7023 158.45C20.7746 157.378 22.5132 157.378 23.5855 158.45Z" fill="#F8F7F7"/>
<rect x="39.543" y="152.237" width="183.868" height="12.2036" rx="6.10182" fill="#F8F7F7"/>
<path fill-rule="evenodd" clip-rule="evenodd" d="M12.4912 174.186C10.4692 174.186 8.83008 175.825 8.83008 177.847V188.83C8.83008 190.852 10.4692 192.491 12.4912 192.491H23.4744C25.4964 192.491 27.1355 190.852 27.1355 188.83V177.847C27.1355 175.825 25.4964 174.186 23.4744 174.186H12.4912ZM16.1523 180.593C16.1523 181.604 15.3327 182.423 14.3217 182.423C13.3107 182.423 12.4912 181.604 12.4912 180.593C12.4912 179.582 13.3107 178.762 14.3217 178.762C15.3327 178.762 16.1523 179.582 16.1523 180.593ZM23.5855 183.45L25.305 185.169V188.83C25.305 189.841 24.4854 190.661 23.4744 190.661H12.4912L19.7023 183.45C20.7746 182.378 22.5132 182.378 23.5855 183.45Z" fill="#F8F7F7"/>
<path fill-rule="evenodd" clip-rule="evenodd" d="M12.4912 198.186C10.4692 198.186 8.83008 199.825 8.83008 201.847V212.83C8.83008 214.852 10.4692 216.491 12.4912 216.491H23.4744C25.4964 216.491 27.1355 214.852 27.1355 212.83V201.847C27.1355 199.825 25.4964 198.186 23.4744 198.186H12.4912ZM16.1523 204.593C16.1523 205.604 15.3327 206.423 14.3217 206.423C13.3107 206.423 12.4912 205.604 12.4912 204.593C12.4912 203.582 13.3107 202.762 14.3217 202.762C15.3327 202.762 16.1523 203.582 16.1523 204.593ZM23.5855 207.45L25.305 209.169V212.83C25.305 213.841 24.4854 214.661 23.4744 214.661H12.4912L19.7023 207.45C20.7746 206.378 22.5132 206.378 23.5855 207.45Z" fill="#F8F7F7"/>
<rect x="39.543" y="177.237" width="238.466" height="12.2036" rx="6.10182" fill="#F8F7F7"/>
<rect x="39.543" y="201.237" width="267.023" height="12.2036" rx="6.10182" fill="#F8F7F7"/>
<path d="M305.602 0H162.398C156.934 0 152.5 3.7732 152.5 8.42218V66.1479C152.5 73.3881 159.393 79.2534 167.902 79.2534H300.098C308.607 79.2534 315.5 73.3879 315.5 66.1479V8.42218C315.5 3.7732 311.066 0 305.602 0ZM257.286 13.2085H272.81V26.4167H257.286V13.2085ZM257.286 33.0212H272.81V46.2322H257.286V33.0212ZM233.998 13.2085H249.525V26.4167H233.998V13.2085ZM233.998 33.0212H249.525V46.2322H233.998V33.0212ZM210.714 13.2085H226.237V26.4167H210.714V13.2085ZM210.714 33.0212H226.237V46.2322H210.714V33.0212ZM187.429 13.2085H202.952V26.4167H187.429V13.2085ZM187.429 33.0212H202.952V46.2322H187.429V33.0212ZM179.667 66.0452H164.144V52.837H179.667V66.0452ZM179.667 46.2324H164.144V33.0215H179.667V46.2324ZM179.667 26.417H164.144V13.2088H179.667V26.417ZM280.571 66.0452H187.429V52.837H280.571V66.0452ZM303.856 66.0452H288.332V52.837H303.856V66.0452ZM303.856 46.2324H280.571V13.2085H303.856V46.2324Z" fill="black"/>
<path d="M122.012 125.667C122.433 126.381 122.195 127.3 121.481 127.721C120.768 128.142 119.848 127.904 119.427 127.19L120.72 126.429L122.012 125.667ZM145.247 77.9167C145.985 78.2926 146.279 79.1958 145.903 79.934L139.777 91.9643C139.401 92.7025 138.498 92.9962 137.76 92.6203C137.022 92.2444 136.728 91.3413 137.104 90.603L142.549 79.9095L131.855 74.4645C131.117 74.0886 130.823 73.1854 131.199 72.4472C131.575 71.7089 132.478 71.4152 133.217 71.7911L145.247 77.9167ZM120.72 126.429L119.427 127.19C116.038 121.439 113.181 112.047 115.755 102.543C118.36 92.9279 126.415 83.579 144.102 77.8269L144.566 79.2534L145.03 80.6799C128.043 86.2045 120.926 94.9301 118.651 103.327C116.346 111.835 118.903 120.392 122.012 125.667L120.72 126.429Z" fill="black"/>
</svg>
