<svg width="760" height="436" viewBox="0 0 760 436" fill="none" xmlns="http://www.w3.org/2000/svg">
<g filter="url(#filter0_d_340_32310)">
<g clip-path="url(#clip0_340_32310)">
<path d="M16 28C16 19.1634 23.1634 12 32 12H728C736.837 12 744 19.1634 744 28V400C744 408.837 736.837 416 728 416H32C23.1634 416 16 408.837 16 400V28Z" fill="white"/>
<rect width="728" height="80" transform="translate(16 12)" fill="white"/>
<path d="M47.704 43.56C51.208 43.56 53.752 45.288 54.352 48.216L50.464 49.008C50.176 47.496 48.928 46.752 47.656 46.752C46.336 46.752 45.496 47.472 45.496 48.384C45.496 49.032 45.784 49.512 46.792 49.728L50.128 50.472C52.912 51.096 54.544 52.608 54.544 55.152C54.544 58.584 51.496 60.36 47.92 60.36C44.296 60.36 41.32 58.632 40.888 55.488L44.968 54.696C45.376 56.352 46.528 57.072 48.136 57.072C49.624 57.072 50.512 56.4 50.512 55.416C50.512 54.696 50.176 54.24 49.024 54L45.664 53.28C43.36 52.752 41.344 51.552 41.344 48.624C41.344 45.504 43.936 43.56 47.704 43.56ZM64.4967 56.448L65.3847 59.472C64.4487 59.976 63.4647 60.36 62.0967 60.36C59.0967 60.36 57.2967 58.728 57.2967 55.56V51H55.1127V47.952H57.2967V43.92H61.1367V47.952H64.6887V51H61.1367V55.176C61.1367 56.424 61.7367 56.928 62.7447 56.928C63.2727 56.928 63.9927 56.736 64.4967 56.448ZM72.2579 47.592C75.6419 47.592 77.7779 49.296 77.7779 52.368V60H74.0819V59.112C73.2419 59.832 72.0899 60.36 70.4819 60.36C67.7939 60.36 65.9939 58.8 65.9939 56.424C65.9939 54.072 67.7939 52.536 71.0099 52.536H74.0819V52.296C74.0819 51.288 73.3859 50.616 72.3779 50.616C71.2259 50.616 70.5539 51.072 70.3619 52.128L66.7379 51.384C67.2659 49.056 69.3779 47.592 72.2579 47.592ZM71.5619 57.48C72.8819 57.48 74.0819 56.592 74.0819 55.248V54.984H71.4419C70.4819 54.984 69.8819 55.488 69.8819 56.232C69.8819 57 70.5539 57.48 71.5619 57.48ZM87.9218 47.784C88.2578 47.784 88.4978 47.808 88.7858 47.88L88.6178 51.72H87.9218C85.2338 51.72 83.7698 53.112 83.7698 56.232V60H79.9298V47.952H83.7698V50.256C84.6338 48.816 85.9538 47.784 87.9218 47.784ZM98.4408 56.448L99.3288 59.472C98.3928 59.976 97.4088 60.36 96.0408 60.36C93.0408 60.36 91.2408 58.728 91.2408 55.56V51H89.0568V47.952H91.2408V43.92H95.0808V47.952H98.6328V51H95.0808V55.176C95.0808 56.424 95.6808 56.928 96.6888 56.928C97.2168 56.928 97.9368 56.736 98.4408 56.448ZM109.722 60H105.882V41.52H109.722V60ZM124.082 53.976V54.96H115.25C115.562 56.4 116.547 57.288 117.843 57.288C118.731 57.288 119.762 57.072 120.411 55.896L123.819 56.592C122.787 59.136 120.603 60.36 117.843 60.36C114.362 60.36 111.482 57.792 111.482 53.976C111.482 50.184 114.362 47.592 117.866 47.592C121.275 47.592 124.011 50.04 124.082 53.976ZM117.866 50.712C116.786 50.712 115.682 51.384 115.322 52.608H120.291C119.93 51.312 118.97 50.712 117.866 50.712ZM131.263 47.592C134.647 47.592 136.783 49.296 136.783 52.368V60H133.087V59.112C132.247 59.832 131.095 60.36 129.487 60.36C126.799 60.36 124.999 58.8 124.999 56.424C124.999 54.072 126.799 52.536 130.015 52.536H133.087V52.296C133.087 51.288 132.391 50.616 131.383 50.616C130.231 50.616 129.559 51.072 129.367 52.128L125.743 51.384C126.271 49.056 128.383 47.592 131.263 47.592ZM130.567 57.48C131.887 57.48 133.087 56.592 133.087 55.248V54.984H130.447C129.487 54.984 128.887 55.488 128.887 56.232C128.887 57 129.559 57.48 130.567 57.48ZM151.607 41.52V60H147.767V58.968C146.855 59.856 145.607 60.36 144.023 60.36C140.831 60.36 138.143 57.792 138.143 53.976C138.143 50.184 140.831 47.592 144.023 47.592C145.607 47.592 146.855 48.096 147.767 48.984V41.52H151.607ZM144.815 57.096C146.375 57.096 147.767 55.848 147.767 53.976C147.767 52.128 146.375 50.856 144.815 50.856C143.135 50.856 141.911 52.128 141.911 53.976C141.911 55.848 143.135 57.096 144.815 57.096ZM165.551 44.568C164.639 44.568 163.991 45.096 163.991 46.056V47.952H167.303V51H163.991V60H160.175V51H158.447V47.952H160.175V45.912C160.175 43.08 162.119 41.28 165.023 41.28C165.839 41.28 166.631 41.448 167.399 41.76L166.583 44.736C166.223 44.616 165.839 44.568 165.551 44.568ZM172.367 41.52V60H168.527V41.52H172.367ZM180.798 47.64C184.374 47.64 187.398 50.184 187.398 53.976C187.398 57.792 184.374 60.336 180.798 60.336C177.15 60.336 174.126 57.792 174.126 53.976C174.126 50.184 177.15 47.64 180.798 47.64ZM180.798 57.096C182.286 57.096 183.702 55.872 183.702 53.976C183.702 52.104 182.286 50.856 180.798 50.856C179.238 50.856 177.822 52.104 177.822 53.976C177.822 55.872 179.238 57.096 180.798 57.096ZM206.401 47.952L202.537 60.024H199.201L197.041 53.496L194.857 60.024H191.521L187.657 47.952H191.425L193.393 54.432L195.673 47.952H198.385L200.665 54.456L202.633 47.952H206.401Z" fill="#1A1816"/>
<path d="M672 60L688 44.0001" stroke="#1A1816" stroke-width="2" stroke-linecap="round"/>
<path d="M688 60L672 44.0001" stroke="#1A1816" stroke-width="2" stroke-linecap="round"/>
<rect x="16.5" y="92.5" width="727" height="227" fill="white"/>
<rect x="16.5" y="92.5" width="727" height="227" stroke="#D3CFCA"/>
<path d="M49.632 123.416H45.664V133H44.384V123.416H40.4V122.28H49.632V123.416ZM55.6313 124.92C57.5353 124.92 58.7993 126.28 58.7993 128.28V133H57.5833V128.504C57.5833 127.032 56.7033 126.04 55.3913 126.04C53.7433 126.04 52.6553 127.16 52.6553 129.208V133H51.4393V120.68H52.6553V126.424C53.2953 125.464 54.3033 124.92 55.6313 124.92ZM62.1753 121.912C62.6553 121.912 63.0233 122.296 63.0233 122.728C63.0233 123.192 62.6553 123.544 62.1753 123.544C61.6953 123.544 61.3433 123.192 61.3433 122.728C61.3433 122.296 61.6953 121.912 62.1753 121.912ZM62.7993 133H61.5673V125.112H62.7993V133ZM65.0641 130.872L66.2801 130.6C66.3921 131.64 67.3521 132.2 68.6001 132.2C69.7361 132.2 70.4881 131.672 70.4881 130.856C70.4881 130.2 69.9921 129.896 69.1921 129.72L67.3841 129.32C66.0721 129.048 65.3361 128.392 65.3361 127.304C65.3361 125.88 66.5201 124.92 68.3281 124.92C70.1041 124.92 71.2561 125.832 71.5441 127.112L70.3761 127.368C70.2161 126.504 69.4641 125.912 68.2961 125.912C67.1761 125.912 66.5521 126.456 66.5521 127.208C66.5521 127.832 66.9841 128.12 67.7521 128.296L69.6561 128.712C70.8081 128.968 71.6881 129.576 71.6881 130.776C71.6881 132.328 70.3921 133.208 68.5041 133.208C66.6961 133.208 65.2561 132.408 65.0641 130.872ZM88.4691 125.112L85.8131 133.032H84.6771L82.6131 127.048L80.5331 133.032H79.3971L76.7411 125.112H77.9731L80.0051 131.224L82.1171 125.112H83.0931L85.2051 131.224L87.2371 125.112H88.4691ZM90.894 121.912C91.374 121.912 91.742 122.296 91.742 122.728C91.742 123.192 91.374 123.544 90.894 123.544C90.414 123.544 90.062 123.192 90.062 122.728C90.062 122.296 90.414 121.912 90.894 121.912ZM91.518 133H90.286V125.112H91.518V133ZM95.5109 120.68V130.984C95.5109 131.624 95.9589 132.04 96.6309 132.04C96.9349 132.04 97.2709 131.944 97.5749 131.784L97.8309 132.808C97.4469 133.032 97.0469 133.208 96.4389 133.208C95.1429 133.208 94.2949 132.344 94.2949 131.048V120.68H95.5109ZM100.495 120.68V130.984C100.495 131.624 100.943 132.04 101.615 132.04C101.919 132.04 102.255 131.944 102.559 131.784L102.815 132.808C102.431 133.032 102.031 133.208 101.423 133.208C100.127 133.208 99.2793 132.344 99.2793 131.048V120.68H100.495ZM112.807 124.92C114.903 124.92 116.743 126.568 116.743 129.064C116.743 131.56 114.903 133.208 112.807 133.208C111.463 133.208 110.359 132.648 109.671 131.688V133H108.455V120.68H109.671V126.44C110.359 125.48 111.463 124.92 112.807 124.92ZM112.615 132.12C114.247 132.12 115.559 130.936 115.559 129.064C115.559 127.176 114.247 125.992 112.615 125.992C111.127 125.992 109.671 127.176 109.671 129.064C109.671 130.936 111.127 132.12 112.615 132.12ZM126.078 128.856V129.304H119.31C119.422 131.08 120.766 132.136 122.126 132.136C123.246 132.136 124.254 131.704 124.814 130.44L125.902 130.696C125.278 132.344 123.902 133.208 122.126 133.208C120.03 133.208 118.126 131.592 118.126 129.08C118.126 126.552 120.03 124.92 122.206 124.92C124.334 124.92 125.998 126.504 126.078 128.856ZM122.206 125.992C120.926 125.992 119.598 126.84 119.358 128.392H124.846C124.622 126.84 123.518 125.992 122.206 125.992ZM135.742 125.112V133.336C135.742 135.56 133.902 137 131.598 137C129.63 137 128.334 136.232 127.726 134.952L128.766 134.168C129.31 135.224 130.11 135.816 131.598 135.816C133.198 135.816 134.51 134.792 134.526 133.176V131.688C133.838 132.648 132.734 133.208 131.39 133.208C129.294 133.208 127.454 131.56 127.454 129.064C127.454 126.568 129.294 124.92 131.39 124.92C132.734 124.92 133.838 125.48 134.526 126.44V125.112H135.742ZM131.582 132.12C133.07 132.12 134.526 130.936 134.526 129.064C134.526 127.176 133.07 125.992 131.582 125.992C129.95 125.992 128.638 127.176 128.638 129.064C128.638 130.936 129.95 132.12 131.582 132.12ZM139.3 121.912C139.78 121.912 140.148 122.296 140.148 122.728C140.148 123.192 139.78 123.544 139.3 123.544C138.82 123.544 138.468 123.192 138.468 122.728C138.468 122.296 138.82 121.912 139.3 121.912ZM139.924 133H138.692V125.112H139.924V133ZM147.053 124.92C148.957 124.92 150.221 126.28 150.221 128.28V133H149.005V128.504C149.005 127.032 148.125 126.04 146.813 126.04C145.165 126.04 144.077 127.16 144.077 129.208V133H142.861V125.112H144.077V126.424C144.717 125.464 145.725 124.92 147.053 124.92ZM157.933 120.68V130.984C157.933 131.624 158.381 132.04 159.053 132.04C159.357 132.04 159.693 131.944 159.997 131.784L160.253 132.808C159.869 133.032 159.469 133.208 158.861 133.208C157.565 133.208 156.717 132.344 156.717 131.048V120.68H157.933ZM168.968 128.856V129.304H162.2C162.312 131.08 163.656 132.136 165.016 132.136C166.136 132.136 167.144 131.704 167.704 130.44L168.792 130.696C168.168 132.344 166.792 133.208 165.016 133.208C162.92 133.208 161.016 131.592 161.016 129.08C161.016 126.552 162.92 124.92 165.096 124.92C167.224 124.92 168.888 126.504 168.968 128.856ZM165.096 125.992C163.816 125.992 162.488 126.84 162.248 128.392H167.736C167.512 126.84 166.408 125.992 165.096 125.992ZM174.088 124.92C176.056 124.92 177.352 125.976 177.352 127.88V133H176.168V131.8C175.56 132.616 174.568 133.208 173.208 133.208C171.48 133.208 170.344 132.216 170.344 130.792C170.344 129.352 171.448 128.328 173.512 128.328H176.168V127.96C176.168 126.728 175.368 125.992 174.152 125.992C172.952 125.992 172.12 126.584 171.944 127.576L170.776 127.32C171.032 125.896 172.36 124.92 174.088 124.92ZM173.384 132.2C174.92 132.2 176.168 131.128 176.168 129.704V129.288H173.496C172.2 129.288 171.512 129.912 171.512 130.776C171.512 131.608 172.248 132.2 173.384 132.2ZM187.351 120.68V133H186.135V131.688C185.447 132.648 184.343 133.208 182.999 133.208C180.903 133.208 179.063 131.56 179.063 129.064C179.063 126.568 180.903 124.92 182.999 124.92C184.343 124.92 185.447 125.48 186.135 126.44V120.68H187.351ZM183.191 132.12C184.679 132.12 186.135 130.936 186.135 129.064C186.135 127.176 184.679 125.992 183.191 125.992C181.559 125.992 180.247 127.176 180.247 129.064C180.247 130.936 181.559 132.12 183.191 132.12ZM201.773 120.68V133H200.557V131.688C199.869 132.648 198.765 133.208 197.421 133.208C195.325 133.208 193.485 131.56 193.485 129.064C193.485 126.568 195.325 124.92 197.421 124.92C198.765 124.92 199.869 125.48 200.557 126.44V120.68H201.773ZM197.613 132.12C199.101 132.12 200.557 130.936 200.557 129.064C200.557 127.176 199.101 125.992 197.613 125.992C195.981 125.992 194.669 127.176 194.669 129.064C194.669 130.936 195.981 132.12 197.613 132.12ZM205.332 121.912C205.812 121.912 206.18 122.296 206.18 122.728C206.18 123.192 205.812 123.544 205.332 123.544C204.852 123.544 204.5 123.192 204.5 122.728C204.5 122.296 204.852 121.912 205.332 121.912ZM205.956 133H204.724V125.112H205.956V133ZM208.22 130.872L209.436 130.6C209.548 131.64 210.508 132.2 211.756 132.2C212.892 132.2 213.644 131.672 213.644 130.856C213.644 130.2 213.148 129.896 212.348 129.72L210.54 129.32C209.228 129.048 208.492 128.392 208.492 127.304C208.492 125.88 209.676 124.92 211.484 124.92C213.26 124.92 214.412 125.832 214.7 127.112L213.532 127.368C213.372 126.504 212.62 125.912 211.452 125.912C210.332 125.912 209.708 126.456 209.708 127.208C209.708 127.832 210.14 128.12 210.908 128.296L212.812 128.712C213.964 128.968 214.844 129.576 214.844 130.776C214.844 132.328 213.548 133.208 211.66 133.208C209.852 133.208 208.412 132.408 208.22 130.872ZM221.322 131.576L221.722 132.584C221.082 133.032 220.538 133.208 219.898 133.208C218.33 133.208 217.29 132.28 217.29 130.536V126.136H215.578V125.112H217.29V122.28H218.522V125.112H221.338V126.136H218.522V130.456C218.522 131.48 219.098 132.056 219.978 132.056C220.426 132.056 220.922 131.864 221.322 131.576ZM227.683 125.032C227.875 125.032 228.019 125.032 228.243 125.096L228.147 126.264C228.003 126.248 227.827 126.248 227.683 126.248C225.587 126.248 224.515 127.832 224.515 129.96V133H223.283V125.112H224.515V127.048C225.155 125.88 226.227 125.032 227.683 125.032ZM230.613 121.912C231.093 121.912 231.461 122.296 231.461 122.728C231.461 123.192 231.093 123.544 230.613 123.544C230.133 123.544 229.781 123.192 229.781 122.728C229.781 122.296 230.133 121.912 230.613 121.912ZM231.237 133H230.005V125.112H231.237V133ZM238.526 124.92C240.622 124.92 242.462 126.568 242.462 129.064C242.462 131.56 240.622 133.208 238.526 133.208C237.182 133.208 236.078 132.648 235.39 131.688V133H234.174V120.68H235.39V126.44C236.078 125.48 237.182 124.92 238.526 124.92ZM238.334 132.12C239.966 132.12 241.278 130.936 241.278 129.064C241.278 127.176 239.966 125.992 238.334 125.992C236.846 125.992 235.39 127.176 235.39 129.064C235.39 130.936 236.846 132.12 238.334 132.12ZM251.748 125.112V132.984H250.516V131.704C249.876 132.648 248.852 133.192 247.54 133.192C245.636 133.192 244.372 131.832 244.372 129.832V125.112H245.604V129.608C245.604 131.08 246.468 132.056 247.78 132.056C249.428 132.056 250.516 130.952 250.516 128.904V125.112H251.748ZM258.885 131.576L259.285 132.584C258.645 133.032 258.101 133.208 257.461 133.208C255.893 133.208 254.853 132.28 254.853 130.536V126.136H253.141V125.112H254.853V122.28H256.085V125.112H258.901V126.136H256.085V130.456C256.085 131.48 256.661 132.056 257.541 132.056C257.989 132.056 258.485 131.864 258.885 131.576ZM261.582 121.912C262.062 121.912 262.43 122.296 262.43 122.728C262.43 123.192 262.062 123.544 261.582 123.544C261.102 123.544 260.75 123.192 260.75 122.728C260.75 122.296 261.102 121.912 261.582 121.912ZM262.206 133H260.974V125.112H262.206V133ZM268.614 124.936C270.934 124.936 272.79 126.632 272.79 129.048C272.79 131.464 270.934 133.192 268.614 133.192C266.262 133.192 264.422 131.464 264.422 129.048C264.422 126.632 266.262 124.936 268.614 124.936ZM268.614 132.12C270.23 132.12 271.59 130.872 271.59 129.048C271.59 127.24 270.23 126.008 268.614 126.008C266.982 126.008 265.606 127.24 265.606 129.048C265.606 130.872 266.982 132.12 268.614 132.12ZM279.069 124.92C280.973 124.92 282.237 126.28 282.237 128.28V133H281.021V128.504C281.021 127.032 280.141 126.04 278.829 126.04C277.181 126.04 276.093 127.16 276.093 129.208V133H274.877V125.112H276.093V126.424C276.733 125.464 277.741 124.92 279.069 124.92ZM293.26 126.136H290.396V133H289.18V126.136H287.804V125.112H289.18V123.256C289.18 121.576 290.236 120.52 291.884 120.52C292.348 120.52 292.78 120.616 293.164 120.792L292.86 121.8C292.572 121.672 292.252 121.608 291.964 121.608C291.004 121.608 290.396 122.248 290.396 123.256V125.112H293.26V126.136ZM297.989 124.936C300.309 124.936 302.165 126.632 302.165 129.048C302.165 131.464 300.309 133.192 297.989 133.192C295.637 133.192 293.797 131.464 293.797 129.048C293.797 126.632 295.637 124.936 297.989 124.936ZM297.989 132.12C299.605 132.12 300.965 130.872 300.965 129.048C300.965 127.24 299.605 126.008 297.989 126.008C296.357 126.008 294.981 127.24 294.981 129.048C294.981 130.872 296.357 132.12 297.989 132.12ZM308.652 125.032C308.844 125.032 308.988 125.032 309.212 125.096L309.116 126.264C308.972 126.248 308.796 126.248 308.652 126.248C306.556 126.248 305.484 127.832 305.484 129.96V133H304.252V125.112H305.484V127.048C306.124 125.88 307.196 125.032 308.652 125.032ZM322.189 125.112L316.845 136.84H315.485L317.293 132.888L313.757 125.112H315.133L317.949 131.416L320.829 125.112H322.189ZM327.114 124.936C329.434 124.936 331.29 126.632 331.29 129.048C331.29 131.464 329.434 133.192 327.114 133.192C324.762 133.192 322.922 131.464 322.922 129.048C322.922 126.632 324.762 124.936 327.114 124.936ZM327.114 132.12C328.73 132.12 330.09 130.872 330.09 129.048C330.09 127.24 328.73 126.008 327.114 126.008C325.482 126.008 324.106 127.24 324.106 129.048C324.106 130.872 325.482 132.12 327.114 132.12ZM340.561 125.112V132.984H339.329V131.704C338.689 132.648 337.665 133.192 336.353 133.192C334.449 133.192 333.185 131.832 333.185 129.832V125.112H334.417V129.608C334.417 131.08 335.281 132.056 336.593 132.056C338.241 132.056 339.329 130.952 339.329 128.904V125.112H340.561ZM347.761 125.032C347.953 125.032 348.097 125.032 348.321 125.096L348.225 126.264C348.081 126.248 347.905 126.248 347.761 126.248C345.665 126.248 344.593 127.832 344.593 129.96V133H343.361V125.112H344.593V127.048C345.233 125.88 346.305 125.032 347.761 125.032ZM358.322 131.576L358.722 132.584C358.082 133.032 357.538 133.208 356.898 133.208C355.33 133.208 354.29 132.28 354.29 130.536V126.136H352.578V125.112H354.29V122.28H355.522V125.112H358.338V126.136H355.522V130.456C355.522 131.48 356.098 132.056 356.978 132.056C357.426 132.056 357.922 131.864 358.322 131.576ZM367.281 128.856V129.304H360.513C360.625 131.08 361.969 132.136 363.329 132.136C364.449 132.136 365.457 131.704 366.017 130.44L367.105 130.696C366.481 132.344 365.105 133.208 363.329 133.208C361.233 133.208 359.329 131.592 359.329 129.08C359.329 126.552 361.233 124.92 363.409 124.92C365.537 124.92 367.201 126.504 367.281 128.856ZM363.409 125.992C362.129 125.992 360.801 126.84 360.561 128.392H366.049C365.825 126.84 364.721 125.992 363.409 125.992ZM372.401 124.92C374.369 124.92 375.665 125.976 375.665 127.88V133H374.481V131.8C373.873 132.616 372.881 133.208 371.521 133.208C369.793 133.208 368.657 132.216 368.657 130.792C368.657 129.352 369.761 128.328 371.825 128.328H374.481V127.96C374.481 126.728 373.681 125.992 372.465 125.992C371.265 125.992 370.433 126.584 370.257 127.576L369.089 127.32C369.345 125.896 370.673 124.92 372.401 124.92ZM371.697 132.2C373.233 132.2 374.481 131.128 374.481 129.704V129.288H371.809C370.513 129.288 369.825 129.912 369.825 130.776C369.825 131.608 370.561 132.2 371.697 132.2ZM387.664 124.92C389.328 124.92 390.608 126.104 390.608 127.896V133H389.392V128.104C389.392 126.856 388.544 126.04 387.36 126.04C385.904 126.04 384.944 127.112 384.944 128.968V133H383.728V128.104C383.728 126.856 382.88 126.04 381.712 126.04C380.256 126.04 379.312 127.112 379.312 128.968V133H378.096V125.112H379.312V126.312C379.872 125.448 380.768 124.92 382 124.92C383.216 124.92 384.224 125.512 384.688 126.52C385.296 125.544 386.32 124.92 387.664 124.92ZM400.291 124.92C402.259 124.92 403.555 125.976 403.555 127.88V133H402.371V131.8C401.763 132.616 400.771 133.208 399.411 133.208C397.683 133.208 396.547 132.216 396.547 130.792C396.547 129.352 397.651 128.328 399.715 128.328H402.371V127.96C402.371 126.728 401.571 125.992 400.355 125.992C399.155 125.992 398.323 126.584 398.147 127.576L396.979 127.32C397.235 125.896 398.563 124.92 400.291 124.92ZM399.587 132.2C401.123 132.2 402.371 131.128 402.371 129.704V129.288H399.699C398.403 129.288 397.715 129.912 397.715 130.776C397.715 131.608 398.451 132.2 399.587 132.2ZM410.178 124.92C412.082 124.92 413.346 126.28 413.346 128.28V133H412.13V128.504C412.13 127.032 411.25 126.04 409.938 126.04C408.29 126.04 407.202 127.16 407.202 129.208V133H405.986V125.112H407.202V126.424C407.842 125.464 408.85 124.92 410.178 124.92ZM423.539 120.68V133H422.323V131.688C421.635 132.648 420.531 133.208 419.187 133.208C417.091 133.208 415.251 131.56 415.251 129.064C415.251 126.568 417.091 124.92 419.187 124.92C420.531 124.92 421.635 125.48 422.323 126.44V120.68H423.539ZM419.379 132.12C420.867 132.12 422.323 130.936 422.323 129.064C422.323 127.176 420.867 125.992 419.379 125.992C417.747 125.992 416.435 127.176 416.435 129.064C416.435 130.936 417.747 132.12 419.379 132.12ZM437.704 125.112L432.36 136.84H431L432.808 132.888L429.272 125.112H430.648L433.464 131.416L436.344 125.112H437.704ZM442.63 124.936C444.95 124.936 446.806 126.632 446.806 129.048C446.806 131.464 444.95 133.192 442.63 133.192C440.278 133.192 438.438 131.464 438.438 129.048C438.438 126.632 440.278 124.936 442.63 124.936ZM442.63 132.12C444.246 132.12 445.606 130.872 445.606 129.048C445.606 127.24 444.246 126.008 442.63 126.008C440.998 126.008 439.622 127.24 439.622 129.048C439.622 130.872 440.998 132.12 442.63 132.12ZM456.076 125.112V132.984H454.844V131.704C454.204 132.648 453.18 133.192 451.868 133.192C449.964 133.192 448.7 131.832 448.7 129.832V125.112H449.932V129.608C449.932 131.08 450.796 132.056 452.108 132.056C453.756 132.056 454.844 130.952 454.844 128.904V125.112H456.076ZM463.277 125.032C463.469 125.032 463.613 125.032 463.837 125.096L463.741 126.264C463.597 126.248 463.421 126.248 463.277 126.248C461.181 126.248 460.109 127.832 460.109 129.96V133H458.877V125.112H460.109V127.048C460.749 125.88 461.821 125.032 463.277 125.032ZM473.854 124.92C475.95 124.92 477.79 126.568 477.79 129.064C477.79 131.56 475.95 133.208 473.854 133.208C472.51 133.208 471.406 132.648 470.718 131.688V133H469.502V120.68H470.718V126.44C471.406 125.48 472.51 124.92 473.854 124.92ZM473.662 132.12C475.294 132.12 476.606 130.936 476.606 129.064C476.606 127.176 475.294 125.992 473.662 125.992C472.174 125.992 470.718 127.176 470.718 129.064C470.718 130.936 472.174 132.12 473.662 132.12ZM480.628 121.912C481.108 121.912 481.476 122.296 481.476 122.728C481.476 123.192 481.108 123.544 480.628 123.544C480.148 123.544 479.796 123.192 479.796 122.728C479.796 122.296 480.148 121.912 480.628 121.912ZM481.252 133H480.02V125.112H481.252V133ZM485.245 120.68V130.984C485.245 131.624 485.693 132.04 486.365 132.04C486.669 132.04 487.005 131.944 487.309 131.784L487.565 132.808C487.181 133.032 486.781 133.208 486.173 133.208C484.877 133.208 484.029 132.344 484.029 131.048V120.68H485.245ZM490.23 120.68V130.984C490.23 131.624 490.678 132.04 491.35 132.04C491.654 132.04 491.99 131.944 492.294 131.784L492.55 132.808C492.166 133.032 491.766 133.208 491.158 133.208C489.862 133.208 489.014 132.344 489.014 131.048V120.68H490.23ZM494.894 121.912C495.374 121.912 495.742 122.296 495.742 122.728C495.742 123.192 495.374 123.544 494.894 123.544C494.414 123.544 494.062 123.192 494.062 122.728C494.062 122.296 494.414 121.912 494.894 121.912ZM495.518 133H494.286V125.112H495.518V133ZM502.647 124.92C504.551 124.92 505.815 126.28 505.815 128.28V133H504.599V128.504C504.599 127.032 503.719 126.04 502.407 126.04C500.759 126.04 499.671 127.16 499.671 129.208V133H498.455V125.112H499.671V126.424C500.311 125.464 501.319 124.92 502.647 124.92ZM516.007 125.112V133.336C516.007 135.56 514.167 137 511.863 137C509.895 137 508.599 136.232 507.991 134.952L509.031 134.168C509.575 135.224 510.375 135.816 511.863 135.816C513.463 135.816 514.775 134.792 514.791 133.176V131.688C514.103 132.648 512.999 133.208 511.655 133.208C509.559 133.208 507.719 131.56 507.719 129.064C507.719 126.568 509.559 124.92 511.655 124.92C512.999 124.92 514.103 125.48 514.791 126.44V125.112H516.007ZM511.847 132.12C513.335 132.12 514.791 130.936 514.791 129.064C514.791 127.176 513.335 125.992 511.847 125.992C510.215 125.992 508.903 127.176 508.903 129.064C508.903 130.936 510.215 132.12 511.847 132.12ZM525.885 124.92C527.853 124.92 529.149 125.976 529.149 127.88V133H527.965V131.8C527.357 132.616 526.365 133.208 525.005 133.208C523.277 133.208 522.141 132.216 522.141 130.792C522.141 129.352 523.245 128.328 525.309 128.328H527.965V127.96C527.965 126.728 527.165 125.992 525.949 125.992C524.749 125.992 523.917 126.584 523.741 127.576L522.573 127.32C522.829 125.896 524.157 124.92 525.885 124.92ZM525.181 132.2C526.717 132.2 527.965 131.128 527.965 129.704V129.288H525.293C523.997 129.288 523.309 129.912 523.309 130.776C523.309 131.608 524.045 132.2 525.181 132.2ZM535.772 124.92C537.676 124.92 538.94 126.28 538.94 128.28V133H537.724V128.504C537.724 127.032 536.844 126.04 535.532 126.04C533.884 126.04 532.796 127.16 532.796 129.208V133H531.58V125.112H532.796V126.424C533.436 125.464 534.444 124.92 535.772 124.92ZM549.132 120.68V133H547.916V131.688C547.228 132.648 546.124 133.208 544.78 133.208C542.684 133.208 540.844 131.56 540.844 129.064C540.844 126.568 542.684 124.92 544.78 124.92C546.124 124.92 547.228 125.48 547.916 126.44V120.68H549.132ZM544.972 132.12C546.46 132.12 547.916 130.936 547.916 129.064C547.916 127.176 546.46 125.992 544.972 125.992C543.34 125.992 542.028 127.176 542.028 129.064C542.028 130.936 543.34 132.12 544.972 132.12ZM555.314 130.872L556.53 130.6C556.642 131.64 557.602 132.2 558.85 132.2C559.986 132.2 560.738 131.672 560.738 130.856C560.738 130.2 560.242 129.896 559.442 129.72L557.634 129.32C556.322 129.048 555.586 128.392 555.586 127.304C555.586 125.88 556.77 124.92 558.578 124.92C560.354 124.92 561.506 125.832 561.794 127.112L560.626 127.368C560.466 126.504 559.714 125.912 558.546 125.912C557.426 125.912 556.802 126.456 556.802 127.208C556.802 127.832 557.234 128.12 558.002 128.296L559.906 128.712C561.058 128.968 561.938 129.576 561.938 130.776C561.938 132.328 560.642 133.208 558.754 133.208C556.946 133.208 555.506 132.408 555.314 130.872ZM571.186 125.112V132.984H569.954V131.704C569.314 132.648 568.29 133.192 566.978 133.192C565.074 133.192 563.81 131.832 563.81 129.832V125.112H565.042V129.608C565.042 131.08 565.906 132.056 567.218 132.056C568.866 132.056 569.954 130.952 569.954 128.904V125.112H571.186ZM578.338 124.92C580.434 124.92 582.274 126.568 582.274 129.064C582.274 131.56 580.434 133.208 578.338 133.208C576.994 133.208 575.89 132.648 575.202 131.688V133H573.986V120.68H575.202V126.44C575.89 125.48 576.994 124.92 578.338 124.92ZM578.146 132.12C579.778 132.12 581.09 130.936 581.09 129.064C581.09 127.176 579.778 125.992 578.146 125.992C576.658 125.992 575.202 127.176 575.202 129.064C575.202 130.936 576.658 132.12 578.146 132.12ZM583.705 130.872L584.921 130.6C585.033 131.64 585.993 132.2 587.241 132.2C588.377 132.2 589.129 131.672 589.129 130.856C589.129 130.2 588.633 129.896 587.833 129.72L586.025 129.32C584.713 129.048 583.977 128.392 583.977 127.304C583.977 125.88 585.161 124.92 586.969 124.92C588.745 124.92 589.897 125.832 590.185 127.112L589.017 127.368C588.857 126.504 588.105 125.912 586.937 125.912C585.817 125.912 585.193 126.456 585.193 127.208C585.193 127.832 585.625 128.12 586.393 128.296L588.297 128.712C589.449 128.968 590.329 129.576 590.329 130.776C590.329 132.328 589.033 133.208 587.145 133.208C585.337 133.208 583.897 132.408 583.705 130.872ZM595.863 132.072C597.031 132.072 598.055 131.448 598.471 130.296L599.591 130.6C599.127 132.168 597.607 133.208 595.863 133.208C593.639 133.208 591.751 131.576 591.751 129.064C591.751 126.584 593.639 124.92 595.863 124.92C597.591 124.92 599.095 125.928 599.607 127.544L598.439 127.896C598.055 126.68 597.031 126.04 595.863 126.04C594.247 126.04 592.935 127.256 592.935 129.064C592.935 130.904 594.247 132.072 595.863 132.072ZM606.089 125.032C606.281 125.032 606.425 125.032 606.649 125.096L606.553 126.264C606.409 126.248 606.233 126.248 606.089 126.248C603.993 126.248 602.921 127.832 602.921 129.96V133H601.689V125.112H602.921V127.048C603.561 125.88 604.633 125.032 606.089 125.032ZM609.019 121.912C609.499 121.912 609.867 122.296 609.867 122.728C609.867 123.192 609.499 123.544 609.019 123.544C608.539 123.544 608.187 123.192 608.187 122.728C608.187 122.296 608.539 121.912 609.019 121.912ZM609.643 133H608.411V125.112H609.643V133ZM616.932 124.92C619.028 124.92 620.868 126.568 620.868 129.064C620.868 131.56 619.028 133.208 616.932 133.208C615.588 133.208 614.484 132.648 613.796 131.688V136.84H612.58V125.112H613.796V126.44C614.484 125.48 615.588 124.92 616.932 124.92ZM616.74 132.12C618.372 132.12 619.684 130.936 619.684 129.064C619.684 127.176 618.372 125.992 616.74 125.992C615.252 125.992 613.796 127.176 613.796 129.064C613.796 130.936 615.252 132.12 616.74 132.12ZM627.307 131.576L627.707 132.584C627.067 133.032 626.523 133.208 625.883 133.208C624.315 133.208 623.275 132.28 623.275 130.536V126.136H621.562V125.112H623.275V122.28H624.507V125.112H627.323V126.136H624.507V130.456C624.507 131.48 625.083 132.056 625.963 132.056C626.411 132.056 626.907 131.864 627.307 131.576ZM630.003 121.912C630.483 121.912 630.851 122.296 630.851 122.728C630.851 123.192 630.483 123.544 630.003 123.544C629.523 123.544 629.171 123.192 629.171 122.728C629.171 122.296 629.523 121.912 630.003 121.912ZM630.627 133H629.395V125.112H630.627V133ZM637.036 124.936C639.356 124.936 641.212 126.632 641.212 129.048C641.212 131.464 639.356 133.192 637.036 133.192C634.684 133.192 632.844 131.464 632.844 129.048C632.844 126.632 634.684 124.936 637.036 124.936ZM637.036 132.12C638.652 132.12 640.012 130.872 640.012 129.048C640.012 127.24 638.652 126.008 637.036 126.008C635.404 126.008 634.028 127.24 634.028 129.048C634.028 130.872 635.404 132.12 637.036 132.12ZM647.491 124.92C649.395 124.92 650.659 126.28 650.659 128.28V133H649.443V128.504C649.443 127.032 648.563 126.04 647.251 126.04C645.603 126.04 644.515 127.16 644.515 129.208V133H643.299V125.112H644.515V126.424C645.155 125.464 646.163 124.92 647.491 124.92ZM661.666 124.92C663.762 124.92 665.602 126.568 665.602 129.064C665.602 131.56 663.762 133.208 661.666 133.208C660.322 133.208 659.218 132.648 658.53 131.688V136.84H657.314V125.112H658.53V126.44C659.218 125.48 660.322 124.92 661.666 124.92ZM661.474 132.12C663.106 132.12 664.418 130.936 664.418 129.064C664.418 127.176 663.106 125.992 661.474 125.992C659.986 125.992 658.53 127.176 658.53 129.064C658.53 130.936 659.986 132.12 661.474 132.12ZM674.937 128.856V129.304H668.169C668.281 131.08 669.625 132.136 670.985 132.136C672.105 132.136 673.113 131.704 673.673 130.44L674.761 130.696C674.137 132.344 672.761 133.208 670.985 133.208C668.889 133.208 666.985 131.592 666.985 129.08C666.985 126.552 668.889 124.92 671.065 124.92C673.193 124.92 674.857 126.504 674.937 128.856ZM671.065 125.992C669.785 125.992 668.457 126.84 668.217 128.392H673.705C673.481 126.84 672.377 125.992 671.065 125.992ZM681.433 125.032C681.625 125.032 681.769 125.032 681.993 125.096L681.897 126.264C681.753 126.248 681.577 126.248 681.433 126.248C679.337 126.248 678.265 127.832 678.265 129.96V133H677.033V125.112H678.265V127.048C678.905 125.88 679.977 125.032 681.433 125.032ZM684.363 121.912C684.843 121.912 685.211 122.296 685.211 122.728C685.211 123.192 684.843 123.544 684.363 123.544C683.883 123.544 683.531 123.192 683.531 122.728C683.531 122.296 683.883 121.912 684.363 121.912ZM684.987 133H683.755V125.112H684.987V133ZM691.396 124.936C693.716 124.936 695.572 126.632 695.572 129.048C695.572 131.464 693.716 133.192 691.396 133.192C689.044 133.192 687.204 131.464 687.204 129.048C687.204 126.632 689.044 124.936 691.396 124.936ZM691.396 132.12C693.012 132.12 694.372 130.872 694.372 129.048C694.372 127.24 693.012 126.008 691.396 126.008C689.764 126.008 688.388 127.24 688.388 129.048C688.388 130.872 689.764 132.12 691.396 132.12ZM705.226 120.68V133H704.01V131.688C703.322 132.648 702.218 133.208 700.874 133.208C698.778 133.208 696.938 131.56 696.938 129.064C696.938 126.568 698.778 124.92 700.874 124.92C702.218 124.92 703.322 125.48 704.01 126.44V120.68H705.226ZM701.066 132.12C702.554 132.12 704.01 130.936 704.01 129.064C704.01 127.176 702.554 125.992 701.066 125.992C699.434 125.992 698.122 127.176 698.122 129.064C698.122 130.936 699.434 132.12 701.066 132.12ZM52.016 149.112L49.36 157.032H48.224L46.16 151.048L44.08 157.032H42.944L40.288 149.112H41.52L43.552 155.224L45.664 149.112H46.64L48.752 155.224L50.784 149.112H52.016ZM54.4409 145.912C54.9209 145.912 55.2889 146.296 55.2889 146.728C55.2889 147.192 54.9209 147.544 54.4409 147.544C53.9609 147.544 53.6089 147.192 53.6089 146.728C53.6089 146.296 53.9609 145.912 54.4409 145.912ZM55.0649 157H53.8329V149.112H55.0649V157ZM59.0578 144.68V154.984C59.0578 155.624 59.5058 156.04 60.1778 156.04C60.4818 156.04 60.8177 155.944 61.1218 155.784L61.3778 156.808C60.9938 157.032 60.5938 157.208 59.9858 157.208C58.6898 157.208 57.8418 156.344 57.8418 155.048V144.68H59.0578ZM64.0421 144.68V154.984C64.0421 155.624 64.4901 156.04 65.1621 156.04C65.4661 156.04 65.8021 155.944 66.1061 155.784L66.3621 156.808C65.9781 157.032 65.5781 157.208 64.9701 157.208C63.6741 157.208 62.8261 156.344 62.8261 155.048V144.68H64.0421ZM76.3538 148.92C78.4498 148.92 80.2898 150.568 80.2898 153.064C80.2898 155.56 78.4498 157.208 76.3538 157.208C75.0098 157.208 73.9058 156.648 73.2178 155.688V157H72.0018V144.68H73.2178V150.44C73.9058 149.48 75.0098 148.92 76.3538 148.92ZM76.1618 156.12C77.7938 156.12 79.1058 154.936 79.1058 153.064C79.1058 151.176 77.7938 149.992 76.1618 149.992C74.6738 149.992 73.2178 151.176 73.2178 153.064C73.2178 154.936 74.6738 156.12 76.1618 156.12ZM89.6244 152.856V153.304H82.8564C82.9684 155.08 84.3124 156.136 85.6724 156.136C86.7924 156.136 87.8004 155.704 88.3604 154.44L89.4484 154.696C88.8244 156.344 87.4484 157.208 85.6724 157.208C83.5764 157.208 81.6724 155.592 81.6724 153.08C81.6724 150.552 83.5764 148.92 85.7524 148.92C87.8804 148.92 89.5444 150.504 89.6244 152.856ZM85.7524 149.992C84.4724 149.992 83.1444 150.84 82.9044 152.392H88.3924C88.1684 150.84 87.0644 149.992 85.7524 149.992ZM99.2885 149.112V157.336C99.2885 159.56 97.4485 161 95.1445 161C93.1765 161 91.8805 160.232 91.2725 158.952L92.3125 158.168C92.8565 159.224 93.6565 159.816 95.1445 159.816C96.7445 159.816 98.0565 158.792 98.0725 157.176V155.688C97.3845 156.648 96.2805 157.208 94.9365 157.208C92.8405 157.208 91.0005 155.56 91.0005 153.064C91.0005 150.568 92.8405 148.92 94.9365 148.92C96.2805 148.92 97.3845 149.48 98.0725 150.44V149.112H99.2885ZM95.1285 156.12C96.6165 156.12 98.0725 154.936 98.0725 153.064C98.0725 151.176 96.6165 149.992 95.1285 149.992C93.4965 149.992 92.1845 151.176 92.1845 153.064C92.1845 154.936 93.4965 156.12 95.1285 156.12ZM102.847 145.912C103.327 145.912 103.695 146.296 103.695 146.728C103.695 147.192 103.327 147.544 102.847 147.544C102.367 147.544 102.015 147.192 102.015 146.728C102.015 146.296 102.367 145.912 102.847 145.912ZM103.471 157H102.239V149.112H103.471V157ZM110.6 148.92C112.504 148.92 113.768 150.28 113.768 152.28V157H112.552V152.504C112.552 151.032 111.672 150.04 110.36 150.04C108.712 150.04 107.624 151.16 107.624 153.208V157H106.408V149.112H107.624V150.424C108.264 149.464 109.272 148.92 110.6 148.92ZM121.16 145.912C121.64 145.912 122.008 146.296 122.008 146.728C122.008 147.192 121.64 147.544 121.16 147.544C120.68 147.544 120.328 147.192 120.328 146.728C120.328 146.296 120.68 145.912 121.16 145.912ZM121.784 157H120.552V149.112H121.784V157ZM134.289 148.92C135.953 148.92 137.233 150.104 137.233 151.896V157H136.017V152.104C136.017 150.856 135.169 150.04 133.985 150.04C132.529 150.04 131.569 151.112 131.569 152.968V157H130.353V152.104C130.353 150.856 129.505 150.04 128.337 150.04C126.881 150.04 125.937 151.112 125.937 152.968V157H124.721V149.112H125.937V150.312C126.497 149.448 127.393 148.92 128.625 148.92C129.841 148.92 130.849 149.512 131.312 150.52C131.921 149.544 132.945 148.92 134.289 148.92ZM149.429 148.92C151.093 148.92 152.373 150.104 152.373 151.896V157H151.157V152.104C151.157 150.856 150.309 150.04 149.125 150.04C147.669 150.04 146.709 151.112 146.709 152.968V157H145.493V152.104C145.493 150.856 144.645 150.04 143.477 150.04C142.021 150.04 141.077 151.112 141.077 152.968V157H139.861V149.112H141.077V150.312C141.637 149.448 142.533 148.92 143.765 148.92C144.981 148.92 145.989 149.512 146.453 150.52C147.061 149.544 148.085 148.92 149.429 148.92ZM162.234 152.856V153.304H155.466C155.578 155.08 156.922 156.136 158.282 156.136C159.402 156.136 160.41 155.704 160.97 154.44L162.058 154.696C161.434 156.344 160.058 157.208 158.282 157.208C156.186 157.208 154.282 155.592 154.282 153.08C154.282 150.552 156.186 148.92 158.362 148.92C160.49 148.92 162.154 150.504 162.234 152.856ZM158.362 149.992C157.082 149.992 155.754 150.84 155.514 152.392H161.002C160.778 150.84 159.674 149.992 158.362 149.992ZM171.898 144.68V157H170.682V155.688C169.994 156.648 168.89 157.208 167.546 157.208C165.45 157.208 163.61 155.56 163.61 153.064C163.61 150.568 165.45 148.92 167.546 148.92C168.89 148.92 169.994 149.48 170.682 150.44V144.68H171.898ZM167.738 156.12C169.226 156.12 170.682 154.936 170.682 153.064C170.682 151.176 169.226 149.992 167.738 149.992C166.106 149.992 164.794 151.176 164.794 153.064C164.794 154.936 166.106 156.12 167.738 156.12ZM175.457 145.912C175.937 145.912 176.305 146.296 176.305 146.728C176.305 147.192 175.937 147.544 175.457 147.544C174.977 147.544 174.625 147.192 174.625 146.728C174.625 146.296 174.977 145.912 175.457 145.912ZM176.081 157H174.849V149.112H176.081V157ZM182.041 148.92C184.009 148.92 185.305 149.976 185.305 151.88V157H184.121V155.8C183.513 156.616 182.521 157.208 181.161 157.208C179.433 157.208 178.297 156.216 178.297 154.792C178.297 153.352 179.401 152.328 181.465 152.328H184.121V151.96C184.121 150.728 183.321 149.992 182.105 149.992C180.905 149.992 180.073 150.584 179.897 151.576L178.729 151.32C178.985 149.896 180.313 148.92 182.041 148.92ZM181.337 156.2C182.873 156.2 184.121 155.128 184.121 153.704V153.288H181.449C180.153 153.288 179.465 153.912 179.465 154.776C179.465 155.608 180.201 156.2 181.337 156.2ZM192.072 155.576L192.472 156.584C191.832 157.032 191.288 157.208 190.648 157.208C189.08 157.208 188.04 156.28 188.04 154.536V150.136H186.328V149.112H188.04V146.28H189.272V149.112H192.088V150.136H189.272V154.456C189.272 155.48 189.848 156.056 190.728 156.056C191.176 156.056 191.672 155.864 192.072 155.576ZM201.031 152.856V153.304H194.263C194.375 155.08 195.719 156.136 197.079 156.136C198.199 156.136 199.207 155.704 199.767 154.44L200.855 154.696C200.231 156.344 198.855 157.208 197.079 157.208C194.983 157.208 193.079 155.592 193.079 153.08C193.079 150.552 194.983 148.92 197.159 148.92C199.287 148.92 200.951 150.504 201.031 152.856ZM197.159 149.992C195.879 149.992 194.551 150.84 194.311 152.392H199.799C199.575 150.84 198.471 149.992 197.159 149.992ZM204.183 144.68V154.984C204.183 155.624 204.631 156.04 205.303 156.04C205.607 156.04 205.943 155.944 206.247 155.784L206.503 156.808C206.119 157.032 205.719 157.208 205.111 157.208C203.815 157.208 202.967 156.344 202.967 155.048V144.68H204.183ZM215.111 149.112L209.767 160.84H208.407L210.215 156.888L206.679 149.112H208.055L210.871 155.416L213.751 149.112H215.111ZM216.398 155.432C216.878 155.432 217.23 155.816 217.23 156.248C217.23 156.696 216.878 157.048 216.398 157.048C215.918 157.048 215.566 156.696 215.566 156.248C215.566 155.816 215.918 155.432 216.398 155.432Z" fill="black"/>
<path d="M40 204C40 195.163 47.1634 188 56 188H704C712.837 188 720 195.163 720 204V280C720 288.837 712.837 296 704 296H56C47.1634 296 40 288.837 40 280V204Z" fill="#F2F0EF"/>
<path fill-rule="evenodd" clip-rule="evenodd" d="M68 205.5C68.5523 205.5 69 205.948 69 206.5C69 207.052 68.5523 207.5 68 207.5C67.4477 207.5 67 207.052 67 206.5C67 205.948 67.4477 205.5 68 205.5ZM63.5 215.5C63.5 213.015 65.5147 211 68 211C70.4853 211 72.5 213.015 72.5 215.5C72.5 216.986 71.7808 218.304 70.6671 219.125C70.4533 219.283 70.311 219.519 70.2716 219.781L70.0888 221H65.9112L65.7284 219.781C65.689 219.519 65.5467 219.283 65.3329 219.125C64.2192 218.304 63.5 216.986 63.5 215.5ZM72.1909 220.469L72.1103 221.006C72.6107 221.061 73 221.485 73 222C73 222.552 72.5523 223 72 223H71.8112L71.7444 223.445C71.5241 224.914 70.2626 226 68.7776 226H67.2224C65.7374 226 64.4759 224.914 64.2556 223.445L64.1888 223H64C63.4477 223 63 222.552 63 222C63 221.485 63.3893 221.061 63.8897 221.006L63.8091 220.469C62.3985 219.278 61.5 217.494 61.5 215.5C61.5 211.91 64.4101 209 68 209C71.5899 209 74.5 211.91 74.5 215.5C74.5 217.494 73.6015 219.278 72.1909 220.469ZM77 216.5C77.5523 216.5 78 216.052 78 215.5C78 214.948 77.5523 214.5 77 214.5C76.4477 214.5 76 214.948 76 215.5C76 216.052 76.4477 216.5 77 216.5ZM73.366 208.206C73.6422 207.727 73.4783 207.116 73 206.84C72.5217 206.564 71.9101 206.727 71.634 207.206C71.3578 207.684 71.5217 208.296 72 208.572C72.4783 208.848 73.0899 208.684 73.366 208.206ZM63 206.84C62.5217 207.116 62.3578 207.727 62.634 208.206C62.9101 208.684 63.5217 208.848 64 208.572C64.4783 208.296 64.6422 207.684 64.366 207.206C64.0899 206.727 63.4783 206.564 63 206.84ZM59.7058 211.866C59.2275 211.59 59.0636 210.978 59.3398 210.5C59.6159 210.022 60.2275 209.858 60.7058 210.134C61.1841 210.41 61.348 211.022 61.0718 211.5C60.7957 211.978 60.1841 212.142 59.7058 211.866ZM76.6603 210.5C76.9364 210.978 76.7725 211.59 76.2942 211.866C75.816 212.142 75.2044 211.978 74.9282 211.5C74.6521 211.022 74.816 210.41 75.2942 210.134C75.7725 209.858 76.3841 210.022 76.6603 210.5ZM59 216.5C59.5523 216.5 60 216.052 60 215.5C60 214.948 59.5523 214.5 59 214.5C58.4477 214.5 58 214.948 58 215.5C58 216.052 58.4477 216.5 59 216.5ZM74.9282 219.5C74.6521 219.978 74.8159 220.59 75.2942 220.866C75.7725 221.142 76.3841 220.978 76.6602 220.5C76.9364 220.022 76.7725 219.41 76.2942 219.134C75.8159 218.858 75.2043 219.022 74.9282 219.5ZM60.7057 220.866C61.184 220.59 61.3479 219.978 61.0718 219.5C60.7956 219.022 60.184 218.858 59.7057 219.134C59.2275 219.41 59.0636 220.022 59.3397 220.5C59.6159 220.978 60.2275 221.142 60.7057 220.866Z" fill="#1A1816"/>
<path d="M106.752 221H103.568L100.336 217.32H99.568V221H96.928V210.28H102.352C104.672 210.28 106.208 211.688 106.208 213.784C106.208 215.544 105.12 216.808 103.392 217.192L106.752 221ZM99.568 215.112H102.064C103.008 215.112 103.616 214.6 103.616 213.816C103.616 213.048 103.008 212.536 102.064 212.536H99.568V215.112ZM115.284 216.984V217.64H109.396C109.604 218.6 110.26 219.192 111.124 219.192C111.716 219.192 112.404 219.048 112.836 218.264L115.108 218.728C114.42 220.424 112.964 221.24 111.124 221.24C108.804 221.24 106.884 219.528 106.884 216.984C106.884 214.456 108.804 212.728 111.14 212.728C113.412 212.728 115.236 214.36 115.284 216.984ZM111.14 214.808C110.42 214.808 109.684 215.256 109.444 216.072H112.756C112.516 215.208 111.876 214.808 111.14 214.808ZM120.472 219C121.288 219 121.944 218.568 122.216 217.592L124.568 218.104C124.168 220.008 122.472 221.24 120.472 221.24C118.072 221.24 116.088 219.528 116.088 216.984C116.088 214.456 118.072 212.728 120.472 212.728C122.424 212.728 124.12 213.928 124.568 215.816L122.168 216.392C121.944 215.416 121.288 214.968 120.472 214.968C119.32 214.968 118.552 215.816 118.552 216.984C118.552 218.168 119.32 219 120.472 219ZM129.817 212.76C132.201 212.76 134.217 214.456 134.217 216.984C134.217 219.528 132.201 221.224 129.817 221.224C127.385 221.224 125.369 219.528 125.369 216.984C125.369 214.456 127.385 212.76 129.817 212.76ZM129.817 219.064C130.809 219.064 131.753 218.248 131.753 216.984C131.753 215.736 130.809 214.904 129.817 214.904C128.777 214.904 127.833 215.736 127.833 216.984C127.833 218.248 128.777 219.064 129.817 219.064ZM145.937 212.728C147.649 212.728 149.009 214.024 149.009 215.976V221H146.465V216.52C146.465 215.608 145.873 215.032 145.121 215.032C144.177 215.032 143.553 215.72 143.553 217.064V221H140.993V216.52C140.993 215.608 140.401 215.032 139.633 215.032C138.705 215.032 138.097 215.72 138.097 217.064V221H135.537V212.968H138.097V213.704C138.641 213.096 139.425 212.728 140.465 212.728C141.585 212.728 142.545 213.208 143.089 214.088C143.729 213.256 144.689 212.728 145.937 212.728ZM161.156 212.728C162.868 212.728 164.228 214.024 164.228 215.976V221H161.684V216.52C161.684 215.608 161.092 215.032 160.34 215.032C159.396 215.032 158.772 215.72 158.772 217.064V221H156.212V216.52C156.212 215.608 155.62 215.032 154.852 215.032C153.924 215.032 153.316 215.72 153.316 217.064V221H150.756V212.968H153.316V213.704C153.86 213.096 154.644 212.728 155.684 212.728C156.804 212.728 157.764 213.208 158.308 214.088C158.948 213.256 159.908 212.728 161.156 212.728ZM173.847 216.984V217.64H167.959C168.167 218.6 168.823 219.192 169.687 219.192C170.279 219.192 170.967 219.048 171.399 218.264L173.671 218.728C172.983 220.424 171.527 221.24 169.687 221.24C167.367 221.24 165.447 219.528 165.447 216.984C165.447 214.456 167.367 212.728 169.703 212.728C171.975 212.728 173.799 214.36 173.847 216.984ZM169.703 214.808C168.983 214.808 168.247 215.256 168.007 216.072H171.319C171.079 215.208 170.439 214.808 169.703 214.808ZM180.202 212.728C182.074 212.728 183.322 214.056 183.322 216.072V221H180.778V216.616C180.778 215.672 180.218 215.032 179.402 215.032C178.394 215.032 177.738 215.72 177.738 217.272V221H175.178V212.968H177.738V213.736C178.346 213.096 179.194 212.728 180.202 212.728ZM193.517 208.68V221H190.957V220.312C190.349 220.904 189.517 221.24 188.461 221.24C186.333 221.24 184.541 219.528 184.541 216.984C184.541 214.456 186.333 212.728 188.461 212.728C189.517 212.728 190.349 213.064 190.957 213.656V208.68H193.517ZM188.989 219.064C190.029 219.064 190.957 218.232 190.957 216.984C190.957 215.752 190.029 214.904 188.989 214.904C187.869 214.904 187.053 215.752 187.053 216.984C187.053 218.232 187.869 219.064 188.989 219.064ZM198.982 212.728C201.238 212.728 202.661 213.864 202.661 215.912V221H200.198V220.408C199.638 220.888 198.87 221.24 197.798 221.24C196.006 221.24 194.806 220.2 194.806 218.616C194.806 217.048 196.006 216.024 198.15 216.024H200.198V215.864C200.198 215.192 199.734 214.744 199.062 214.744C198.294 214.744 197.846 215.048 197.718 215.752L195.302 215.256C195.654 213.704 197.062 212.728 198.982 212.728ZM198.518 219.32C199.398 219.32 200.198 218.728 200.198 217.832V217.656H198.438C197.798 217.656 197.398 217.992 197.398 218.488C197.398 219 197.846 219.32 198.518 219.32ZM209.616 218.632L210.208 220.648C209.584 220.984 208.928 221.24 208.016 221.24C206.016 221.24 204.816 220.152 204.816 218.04V215H203.36V212.968H204.816V210.28H207.376V212.968H209.744V215H207.376V217.784C207.376 218.616 207.776 218.952 208.448 218.952C208.8 218.952 209.28 218.824 209.616 218.632ZM212.586 209.144C213.45 209.144 214.074 209.816 214.074 210.6C214.074 211.416 213.45 212.024 212.586 212.024C211.722 212.024 211.114 211.416 211.114 210.6C211.114 209.816 211.722 209.144 212.586 209.144ZM213.866 221H211.306V212.968H213.866V221ZM219.77 212.76C222.154 212.76 224.17 214.456 224.17 216.984C224.17 219.528 222.154 221.224 219.77 221.224C217.338 221.224 215.322 219.528 215.322 216.984C215.322 214.456 217.338 212.76 219.77 212.76ZM219.77 219.064C220.762 219.064 221.706 218.248 221.706 216.984C221.706 215.736 220.762 214.904 219.77 214.904C218.73 214.904 217.786 215.736 217.786 216.984C217.786 218.248 218.73 219.064 219.77 219.064ZM230.515 212.728C232.387 212.728 233.635 214.056 233.635 216.072V221H231.091V216.616C231.091 215.672 230.531 215.032 229.715 215.032C228.707 215.032 228.051 215.72 228.051 217.272V221H225.491V212.968H228.051V213.736C228.659 213.096 229.507 212.728 230.515 212.728Z" fill="#1A1816"/>
<path d="M105.632 239.416H101.664V249H100.384V239.416H96.4V238.28H105.632V239.416ZM109.474 240.936C111.794 240.936 113.65 242.632 113.65 245.048C113.65 247.464 111.794 249.192 109.474 249.192C107.122 249.192 105.282 247.464 105.282 245.048C105.282 242.632 107.122 240.936 109.474 240.936ZM109.474 248.12C111.09 248.12 112.45 246.872 112.45 245.048C112.45 243.24 111.09 242.008 109.474 242.008C107.842 242.008 106.466 243.24 106.466 245.048C106.466 246.872 107.842 248.12 109.474 248.12ZM129.335 240.92C130.999 240.92 132.279 242.104 132.279 243.896V249H131.063V244.104C131.063 242.856 130.215 242.04 129.031 242.04C127.575 242.04 126.615 243.112 126.615 244.968V249H125.399V244.104C125.399 242.856 124.551 242.04 123.383 242.04C121.927 242.04 120.983 243.112 120.983 244.968V249H119.767V241.112H120.983V242.312C121.543 241.448 122.439 240.92 123.671 240.92C124.887 240.92 125.895 241.512 126.359 242.52C126.967 241.544 127.991 240.92 129.335 240.92ZM137.932 240.92C139.9 240.92 141.196 241.976 141.196 243.88V249H140.012V247.8C139.404 248.616 138.412 249.208 137.052 249.208C135.324 249.208 134.188 248.216 134.188 246.792C134.188 245.352 135.292 244.328 137.356 244.328H140.012V243.96C140.012 242.728 139.212 241.992 137.996 241.992C136.796 241.992 135.964 242.584 135.788 243.576L134.62 243.32C134.876 241.896 136.204 240.92 137.932 240.92ZM137.228 248.2C138.764 248.2 140.012 247.128 140.012 245.704V245.288H137.34C136.044 245.288 135.356 245.912 135.356 246.776C135.356 247.608 136.092 248.2 137.228 248.2ZM147.739 245.112L150.747 249H149.275L146.843 245.848L144.411 249H142.939L145.947 245.112L142.939 241.112H144.411L146.843 244.36L149.275 241.112H150.747L147.739 245.112ZM153.613 237.912C154.093 237.912 154.461 238.296 154.461 238.728C154.461 239.192 154.093 239.544 153.613 239.544C153.133 239.544 152.781 239.192 152.781 238.728C152.781 238.296 153.133 237.912 153.613 237.912ZM154.237 249H153.005V241.112H154.237V249ZM166.742 240.92C168.406 240.92 169.686 242.104 169.686 243.896V249H168.47V244.104C168.47 242.856 167.622 242.04 166.438 242.04C164.982 242.04 164.022 243.112 164.022 244.968V249H162.806V244.104C162.806 242.856 161.958 242.04 160.79 242.04C159.334 242.04 158.39 243.112 158.39 244.968V249H157.174V241.112H158.39V242.312C158.95 241.448 159.846 240.92 161.078 240.92C162.294 240.92 163.302 241.512 163.766 242.52C164.374 241.544 165.398 240.92 166.742 240.92ZM173.05 237.912C173.53 237.912 173.898 238.296 173.898 238.728C173.898 239.192 173.53 239.544 173.05 239.544C172.57 239.544 172.218 239.192 172.218 238.728C172.218 238.296 172.57 237.912 173.05 237.912ZM173.674 249H172.442V241.112H173.674V249ZM182.659 247.976V249H175.843V248.168L180.979 242.136H175.987V241.112H182.499V241.96L177.363 247.976H182.659ZM191.734 244.856V245.304H184.966C185.078 247.08 186.422 248.136 187.782 248.136C188.902 248.136 189.91 247.704 190.47 246.44L191.558 246.696C190.934 248.344 189.558 249.208 187.782 249.208C185.686 249.208 183.782 247.592 183.782 245.08C183.782 242.552 185.686 240.92 187.862 240.92C189.99 240.92 191.654 242.504 191.734 244.856ZM187.862 241.992C186.582 241.992 185.254 242.84 185.014 244.392H190.502C190.278 242.84 189.174 241.992 187.862 241.992ZM205.173 241.112L199.829 252.84H198.469L200.277 248.888L196.741 241.112H198.117L200.933 247.416L203.813 241.112H205.173ZM210.099 240.936C212.419 240.936 214.275 242.632 214.275 245.048C214.275 247.464 212.419 249.192 210.099 249.192C207.747 249.192 205.907 247.464 205.907 245.048C205.907 242.632 207.747 240.936 210.099 240.936ZM210.099 248.12C211.715 248.12 213.075 246.872 213.075 245.048C213.075 243.24 211.715 242.008 210.099 242.008C208.467 242.008 207.091 243.24 207.091 245.048C207.091 246.872 208.467 248.12 210.099 248.12ZM223.545 241.112V248.984H222.313V247.704C221.673 248.648 220.649 249.192 219.337 249.192C217.433 249.192 216.169 247.832 216.169 245.832V241.112H217.401V245.608C217.401 247.08 218.265 248.056 219.577 248.056C221.225 248.056 222.313 246.952 222.313 244.904V241.112H223.545ZM230.746 241.032C230.938 241.032 231.082 241.032 231.306 241.096L231.21 242.264C231.066 242.248 230.89 242.248 230.746 242.248C228.65 242.248 227.578 243.832 227.578 245.96V249H226.346V241.112H227.578V243.048C228.218 241.88 229.29 241.032 230.746 241.032ZM246.539 240.92C248.203 240.92 249.483 242.104 249.483 243.896V249H248.267V244.104C248.267 242.856 247.419 242.04 246.235 242.04C244.779 242.04 243.819 243.112 243.819 244.968V249H242.603V244.104C242.603 242.856 241.755 242.04 240.587 242.04C239.131 242.04 238.187 243.112 238.187 244.968V249H236.971V241.112H238.187V242.312C238.747 241.448 239.643 240.92 240.875 240.92C242.091 240.92 243.099 241.512 243.562 242.52C244.171 241.544 245.195 240.92 246.539 240.92ZM255.135 240.92C257.103 240.92 258.399 241.976 258.399 243.88V249H257.215V247.8C256.607 248.616 255.615 249.208 254.255 249.208C252.527 249.208 251.391 248.216 251.391 246.792C251.391 245.352 252.495 244.328 254.559 244.328H257.215V243.96C257.215 242.728 256.415 241.992 255.199 241.992C253.999 241.992 253.167 242.584 252.991 243.576L251.823 243.32C252.079 241.896 253.407 240.92 255.135 240.92ZM254.431 248.2C255.967 248.2 257.215 247.128 257.215 245.704V245.288H254.543C253.247 245.288 252.559 245.912 252.559 246.776C252.559 247.608 253.295 248.2 254.431 248.2ZM265.23 241.032C265.422 241.032 265.566 241.032 265.79 241.096L265.694 242.264C265.55 242.248 265.374 242.248 265.23 242.248C263.134 242.248 262.062 243.832 262.062 245.96V249H260.83V241.112H262.062V243.048C262.702 241.88 263.774 241.032 265.23 241.032ZM275.44 249H273.888L270.528 245.288L268.64 247.272V249H267.424V236.68H268.64V245.64L273.04 241.112H274.512L271.36 244.424L275.44 249ZM283.828 244.856V245.304H277.06C277.172 247.08 278.516 248.136 279.876 248.136C280.996 248.136 282.004 247.704 282.564 246.44L283.652 246.696C283.028 248.344 281.652 249.208 279.876 249.208C277.78 249.208 275.876 247.592 275.876 245.08C275.876 242.552 277.78 240.92 279.956 240.92C282.084 240.92 283.748 242.504 283.828 244.856ZM279.956 241.992C278.676 241.992 277.348 242.84 277.108 244.392H282.596C282.372 242.84 281.268 241.992 279.956 241.992ZM290.26 247.576L290.66 248.584C290.02 249.032 289.476 249.208 288.836 249.208C287.268 249.208 286.228 248.28 286.228 246.536V242.136H284.516V241.112H286.228V238.28H287.46V241.112H290.276V242.136H287.46V246.456C287.46 247.48 288.036 248.056 288.916 248.056C289.364 248.056 289.86 247.864 290.26 247.576ZM299.644 248.072C300.812 248.072 301.836 247.448 302.252 246.296L303.372 246.6C302.908 248.168 301.388 249.208 299.644 249.208C297.42 249.208 295.532 247.576 295.532 245.064C295.532 242.584 297.42 240.92 299.644 240.92C301.372 240.92 302.876 241.928 303.388 243.544L302.22 243.896C301.836 242.68 300.812 242.04 299.644 242.04C298.028 242.04 296.716 243.256 296.716 245.064C296.716 246.904 298.028 248.072 299.644 248.072ZM308.943 240.936C311.263 240.936 313.119 242.632 313.119 245.048C313.119 247.464 311.263 249.192 308.943 249.192C306.591 249.192 304.751 247.464 304.751 245.048C304.751 242.632 306.591 240.936 308.943 240.936ZM308.943 248.12C310.559 248.12 311.919 246.872 311.919 245.048C311.919 243.24 310.559 242.008 308.943 242.008C307.311 242.008 305.935 243.24 305.935 245.048C305.935 246.872 307.311 248.12 308.943 248.12ZM322.139 241.112L318.651 249H317.323L313.835 241.112H315.163L317.995 247.56L320.811 241.112H322.139ZM330.812 244.856V245.304H324.044C324.156 247.08 325.5 248.136 326.86 248.136C327.98 248.136 328.988 247.704 329.548 246.44L330.636 246.696C330.012 248.344 328.636 249.208 326.86 249.208C324.764 249.208 322.86 247.592 322.86 245.08C322.86 242.552 324.764 240.92 326.94 240.92C329.068 240.92 330.732 242.504 330.812 244.856ZM326.94 241.992C325.66 241.992 324.332 242.84 324.092 244.392H329.58C329.356 242.84 328.252 241.992 326.94 241.992ZM337.308 241.032C337.5 241.032 337.644 241.032 337.868 241.096L337.772 242.264C337.628 242.248 337.452 242.248 337.308 242.248C335.212 242.248 334.14 243.832 334.14 245.96V249H332.908V241.112H334.14V243.048C334.78 241.88 335.852 241.032 337.308 241.032ZM342.323 240.92C344.291 240.92 345.587 241.976 345.587 243.88V249H344.403V247.8C343.795 248.616 342.803 249.208 341.443 249.208C339.715 249.208 338.579 248.216 338.579 246.792C338.579 245.352 339.683 244.328 341.747 244.328H344.403V243.96C344.403 242.728 343.603 241.992 342.387 241.992C341.187 241.992 340.355 242.584 340.179 243.576L339.011 243.32C339.267 241.896 340.595 240.92 342.323 240.92ZM341.619 248.2C343.155 248.2 344.403 247.128 344.403 245.704V245.288H341.731C340.435 245.288 339.747 245.912 339.747 246.776C339.747 247.608 340.483 248.2 341.619 248.2ZM355.585 241.112V249.336C355.585 251.56 353.745 253 351.441 253C349.473 253 348.177 252.232 347.569 250.952L348.609 250.168C349.153 251.224 349.953 251.816 351.441 251.816C353.041 251.816 354.353 250.792 354.369 249.176V247.688C353.681 248.648 352.577 249.208 351.233 249.208C349.137 249.208 347.297 247.56 347.297 245.064C347.297 242.568 349.137 240.92 351.233 240.92C352.577 240.92 353.681 241.48 354.369 242.44V241.112H355.585ZM351.425 248.12C352.913 248.12 354.369 246.936 354.369 245.064C354.369 243.176 352.913 241.992 351.425 241.992C349.793 241.992 348.481 243.176 348.481 245.064C348.481 246.936 349.793 248.12 351.425 248.12ZM365.64 244.856V245.304H358.872C358.984 247.08 360.328 248.136 361.688 248.136C362.808 248.136 363.816 247.704 364.376 246.44L365.464 246.696C364.84 248.344 363.464 249.208 361.688 249.208C359.592 249.208 357.688 247.592 357.688 245.08C357.688 242.552 359.592 240.92 361.768 240.92C363.896 240.92 365.56 242.504 365.64 244.856ZM361.768 241.992C360.488 241.992 359.16 242.84 358.92 244.392H364.408C364.184 242.84 363.08 241.992 361.768 241.992ZM367.122 251.112H366.162L367.218 246.904H368.658V246.936L367.122 251.112ZM385.329 241.112L382.673 249.032H381.536L379.473 243.048L377.393 249.032H376.257L373.601 241.112H374.833L376.865 247.224L378.977 241.112H379.953L382.065 247.224L384.097 241.112H385.329ZM394.203 244.856V245.304H387.435C387.547 247.08 388.891 248.136 390.251 248.136C391.371 248.136 392.379 247.704 392.939 246.44L394.027 246.696C393.403 248.344 392.027 249.208 390.251 249.208C388.155 249.208 386.251 247.592 386.251 245.08C386.251 242.552 388.155 240.92 390.331 240.92C392.459 240.92 394.123 242.504 394.203 244.856ZM390.331 241.992C389.051 241.992 387.723 242.84 387.483 244.392H392.971C392.747 242.84 391.643 241.992 390.331 241.992ZM399.658 246.872L400.874 246.6C400.986 247.64 401.946 248.2 403.194 248.2C404.33 248.2 405.082 247.672 405.082 246.856C405.082 246.2 404.586 245.896 403.786 245.72L401.978 245.32C400.666 245.048 399.93 244.392 399.93 243.304C399.93 241.88 401.114 240.92 402.922 240.92C404.698 240.92 405.85 241.832 406.138 243.112L404.97 243.368C404.81 242.504 404.058 241.912 402.89 241.912C401.77 241.912 401.146 242.456 401.146 243.208C401.146 243.832 401.578 244.12 402.346 244.296L404.25 244.712C405.402 244.968 406.282 245.576 406.282 246.776C406.282 248.328 404.986 249.208 403.098 249.208C401.29 249.208 399.85 248.408 399.658 246.872ZM415.53 241.112V248.984H414.298V247.704C413.658 248.648 412.634 249.192 411.322 249.192C409.418 249.192 408.154 247.832 408.154 245.832V241.112H409.386V245.608C409.386 247.08 410.25 248.056 411.562 248.056C413.21 248.056 414.298 246.952 414.298 244.904V241.112H415.53ZM425.898 241.112V249.336C425.898 251.56 424.058 253 421.754 253C419.786 253 418.49 252.232 417.882 250.952L418.922 250.168C419.466 251.224 420.266 251.816 421.754 251.816C423.354 251.816 424.666 250.792 424.682 249.176V247.688C423.994 248.648 422.89 249.208 421.546 249.208C419.45 249.208 417.61 247.56 417.61 245.064C417.61 242.568 419.45 240.92 421.546 240.92C422.89 240.92 423.994 241.48 424.682 242.44V241.112H425.898ZM421.738 248.12C423.226 248.12 424.682 246.936 424.682 245.064C424.682 243.176 423.226 241.992 421.738 241.992C420.106 241.992 418.794 243.176 418.794 245.064C418.794 246.936 420.106 248.12 421.738 248.12ZM436.289 241.112V249.336C436.289 251.56 434.449 253 432.145 253C430.177 253 428.881 252.232 428.273 250.952L429.312 250.168C429.857 251.224 430.657 251.816 432.145 251.816C433.745 251.816 435.057 250.792 435.073 249.176V247.688C434.385 248.648 433.281 249.208 431.937 249.208C429.841 249.208 428.001 247.56 428.001 245.064C428.001 242.568 429.841 240.92 431.937 240.92C433.281 240.92 434.385 241.48 435.073 242.44V241.112H436.289ZM432.129 248.12C433.617 248.12 435.073 246.936 435.073 245.064C435.073 243.176 433.617 241.992 432.129 241.992C430.497 241.992 429.185 243.176 429.185 245.064C429.185 246.936 430.497 248.12 432.129 248.12ZM446.343 244.856V245.304H439.575C439.687 247.08 441.031 248.136 442.391 248.136C443.511 248.136 444.519 247.704 445.079 246.44L446.167 246.696C445.543 248.344 444.167 249.208 442.391 249.208C440.295 249.208 438.391 247.592 438.391 245.08C438.391 242.552 440.295 240.92 442.471 240.92C444.599 240.92 446.263 242.504 446.343 244.856ZM442.471 241.992C441.191 241.992 439.863 242.84 439.623 244.392H445.111C444.887 242.84 443.783 241.992 442.471 241.992ZM447.767 246.872L448.983 246.6C449.095 247.64 450.055 248.2 451.303 248.2C452.439 248.2 453.191 247.672 453.191 246.856C453.191 246.2 452.695 245.896 451.895 245.72L450.087 245.32C448.775 245.048 448.039 244.392 448.039 243.304C448.039 241.88 449.223 240.92 451.031 240.92C452.807 240.92 453.959 241.832 454.247 243.112L453.079 243.368C452.919 242.504 452.167 241.912 450.999 241.912C449.879 241.912 449.255 242.456 449.255 243.208C449.255 243.832 449.687 244.12 450.455 244.296L452.359 244.712C453.511 244.968 454.391 245.576 454.391 246.776C454.391 248.328 453.095 249.208 451.207 249.208C449.399 249.208 447.959 248.408 447.767 246.872ZM460.869 247.576L461.269 248.584C460.629 249.032 460.085 249.208 459.445 249.208C457.877 249.208 456.837 248.28 456.837 246.536V242.136H455.125V241.112H456.837V238.28H458.069V241.112H460.885V242.136H458.069V246.456C458.069 247.48 458.645 248.056 459.525 248.056C459.973 248.056 460.469 247.864 460.869 247.576ZM471.053 240.92C472.957 240.92 474.221 242.28 474.221 244.28V249H473.005V244.504C473.005 243.032 472.125 242.04 470.813 242.04C469.165 242.04 468.077 243.16 468.077 245.208V249H466.861V236.68H468.077V242.424C468.717 241.464 469.725 240.92 471.053 240.92ZM479.885 240.92C481.853 240.92 483.149 241.976 483.149 243.88V249H481.965V247.8C481.357 248.616 480.365 249.208 479.005 249.208C477.277 249.208 476.141 248.216 476.141 246.792C476.141 245.352 477.245 244.328 479.309 244.328H481.965V243.96C481.965 242.728 481.165 241.992 479.949 241.992C478.749 241.992 477.917 242.584 477.741 243.576L476.573 243.32C476.829 241.896 478.157 240.92 479.885 240.92ZM479.181 248.2C480.717 248.2 481.965 247.128 481.965 245.704V245.288H479.293C477.997 245.288 477.309 245.912 477.309 246.776C477.309 247.608 478.045 248.2 479.181 248.2ZM492.53 241.112L489.042 249H487.714L484.226 241.112H485.554L488.386 247.56L491.202 241.112H492.53ZM494.957 237.912C495.437 237.912 495.805 238.296 495.805 238.728C495.805 239.192 495.437 239.544 494.957 239.544C494.477 239.544 494.125 239.192 494.125 238.728C494.125 238.296 494.477 237.912 494.957 237.912ZM495.581 249H494.349V241.112H495.581V249ZM502.709 240.92C504.613 240.92 505.877 242.28 505.877 244.28V249H504.661V244.504C504.661 243.032 503.781 242.04 502.469 242.04C500.821 242.04 499.733 243.16 499.733 245.208V249H498.517V241.112H499.733V242.424C500.373 241.464 501.381 240.92 502.709 240.92ZM516.07 241.112V249.336C516.07 251.56 514.23 253 511.926 253C509.958 253 508.662 252.232 508.054 250.952L509.094 250.168C509.638 251.224 510.438 251.816 511.926 251.816C513.526 251.816 514.838 250.792 514.854 249.176V247.688C514.166 248.648 513.062 249.208 511.718 249.208C509.622 249.208 507.782 247.56 507.782 245.064C507.782 242.568 509.622 240.92 511.718 240.92C513.062 240.92 514.166 241.48 514.854 242.44V241.112H516.07ZM511.91 248.12C513.398 248.12 514.854 246.936 514.854 245.064C514.854 243.176 513.398 241.992 511.91 241.992C510.278 241.992 508.966 243.176 508.966 245.064C508.966 246.936 510.278 248.12 511.91 248.12ZM525.948 240.92C527.916 240.92 529.212 241.976 529.212 243.88V249H528.028V247.8C527.42 248.616 526.428 249.208 525.068 249.208C523.34 249.208 522.204 248.216 522.204 246.792C522.204 245.352 523.308 244.328 525.372 244.328H528.028V243.96C528.028 242.728 527.228 241.992 526.012 241.992C524.812 241.992 523.98 242.584 523.804 243.576L522.636 243.32C522.892 241.896 524.22 240.92 525.948 240.92ZM525.244 248.2C526.78 248.2 528.028 247.128 528.028 245.704V245.288H525.356C524.06 245.288 523.372 245.912 523.372 246.776C523.372 247.608 524.108 248.2 525.244 248.2ZM535.978 247.576L536.378 248.584C535.738 249.032 535.194 249.208 534.554 249.208C532.986 249.208 531.946 248.28 531.946 246.536V242.136H530.234V241.112H531.946V238.28H533.178V241.112H535.994V242.136H533.178V246.456C533.178 247.48 533.754 248.056 534.634 248.056C535.082 248.056 535.578 247.864 535.978 247.576ZM543.027 236.68V246.984C543.027 247.624 543.475 248.04 544.147 248.04C544.451 248.04 544.786 247.944 545.091 247.784L545.347 248.808C544.963 249.032 544.562 249.208 543.955 249.208C542.659 249.208 541.811 248.344 541.811 247.048V236.68H543.027ZM554.062 244.856V245.304H547.294C547.406 247.08 548.75 248.136 550.11 248.136C551.23 248.136 552.238 247.704 552.798 246.44L553.886 246.696C553.262 248.344 551.886 249.208 550.11 249.208C548.014 249.208 546.11 247.592 546.11 245.08C546.11 242.552 548.014 240.92 550.19 240.92C552.318 240.92 553.982 242.504 554.062 244.856ZM550.19 241.992C548.91 241.992 547.582 242.84 547.342 244.392H552.83C552.606 242.84 551.502 241.992 550.19 241.992ZM559.182 240.92C561.15 240.92 562.446 241.976 562.446 243.88V249H561.262V247.8C560.654 248.616 559.662 249.208 558.302 249.208C556.574 249.208 555.438 248.216 555.438 246.792C555.438 245.352 556.542 244.328 558.606 244.328H561.262V243.96C561.262 242.728 560.462 241.992 559.246 241.992C558.046 241.992 557.214 242.584 557.038 243.576L555.87 243.32C556.126 241.896 557.454 240.92 559.182 240.92ZM558.478 248.2C560.014 248.2 561.262 247.128 561.262 245.704V245.288H558.59C557.294 245.288 556.606 245.912 556.606 246.776C556.606 247.608 557.342 248.2 558.478 248.2ZM564.205 246.872L565.421 246.6C565.533 247.64 566.493 248.2 567.741 248.2C568.877 248.2 569.629 247.672 569.629 246.856C569.629 246.2 569.133 245.896 568.333 245.72L566.525 245.32C565.213 245.048 564.477 244.392 564.477 243.304C564.477 241.88 565.661 240.92 567.469 240.92C569.245 240.92 570.397 241.832 570.685 243.112L569.517 243.368C569.357 242.504 568.605 241.912 567.437 241.912C566.317 241.912 565.693 242.456 565.693 243.208C565.693 243.832 566.125 244.12 566.893 244.296L568.797 244.712C569.949 244.968 570.829 245.576 570.829 246.776C570.829 248.328 569.533 249.208 567.645 249.208C565.837 249.208 564.397 248.408 564.205 246.872ZM577.307 247.576L577.707 248.584C577.067 249.032 576.523 249.208 575.883 249.208C574.315 249.208 573.275 248.28 573.275 246.536V242.136H571.562V241.112H573.275V238.28H574.507V241.112H577.323V242.136H574.507V246.456C574.507 247.48 575.083 248.056 575.963 248.056C576.411 248.056 576.907 247.864 577.307 247.576ZM586.771 240.936C589.091 240.936 590.947 242.632 590.947 245.048C590.947 247.464 589.091 249.192 586.771 249.192C584.419 249.192 582.579 247.464 582.579 245.048C582.579 242.632 584.419 240.936 586.771 240.936ZM586.771 248.12C588.387 248.12 589.747 246.872 589.747 245.048C589.747 243.24 588.387 242.008 586.771 242.008C585.139 242.008 583.763 243.24 583.763 245.048C583.763 246.872 585.139 248.12 586.771 248.12ZM597.225 240.92C599.129 240.92 600.393 242.28 600.393 244.28V249H599.177V244.504C599.177 243.032 598.297 242.04 596.985 242.04C595.337 242.04 594.249 243.16 594.249 245.208V249H593.033V241.112H594.249V242.424C594.889 241.464 595.897 240.92 597.225 240.92ZM610.249 244.856V245.304H603.481C603.593 247.08 604.937 248.136 606.297 248.136C607.417 248.136 608.425 247.704 608.985 246.44L610.073 246.696C609.449 248.344 608.073 249.208 606.297 249.208C604.201 249.208 602.297 247.592 602.297 245.08C602.297 242.552 604.201 240.92 606.377 240.92C608.505 240.92 610.169 242.504 610.249 244.856ZM606.377 241.992C605.097 241.992 603.769 242.84 603.529 244.392H609.017C608.793 242.84 607.689 241.992 606.377 241.992ZM619.401 240.92C621.369 240.92 622.665 241.976 622.665 243.88V249H621.481V247.8C620.873 248.616 619.881 249.208 618.521 249.208C616.793 249.208 615.657 248.216 615.657 246.792C615.657 245.352 616.761 244.328 618.825 244.328H621.481V243.96C621.481 242.728 620.681 241.992 619.465 241.992C618.265 241.992 617.433 242.584 617.257 243.576L616.089 243.32C616.345 241.896 617.673 240.92 619.401 240.92ZM618.697 248.2C620.233 248.2 621.481 247.128 621.481 245.704V245.288H618.809C617.513 245.288 616.825 245.912 616.825 246.776C616.825 247.608 617.561 248.2 618.697 248.2ZM632.664 241.112V249.336C632.664 251.56 630.824 253 628.52 253C626.552 253 625.256 252.232 624.648 250.952L625.688 250.168C626.232 251.224 627.032 251.816 628.52 251.816C630.12 251.816 631.432 250.792 631.448 249.176V247.688C630.76 248.648 629.656 249.208 628.312 249.208C626.216 249.208 624.376 247.56 624.376 245.064C624.376 242.568 626.216 240.92 628.312 240.92C629.656 240.92 630.76 241.48 631.448 242.44V241.112H632.664ZM628.504 248.12C629.992 248.12 631.448 246.936 631.448 245.064C631.448 243.176 629.992 241.992 628.504 241.992C626.872 241.992 625.56 243.176 625.56 245.064C625.56 246.936 626.872 248.12 628.504 248.12ZM642.718 244.856V245.304H635.95C636.062 247.08 637.406 248.136 638.766 248.136C639.886 248.136 640.894 247.704 641.454 246.44L642.542 246.696C641.918 248.344 640.542 249.208 638.766 249.208C636.67 249.208 634.766 247.592 634.766 245.08C634.766 242.552 636.67 240.92 638.846 240.92C640.974 240.92 642.638 242.504 642.718 244.856ZM638.846 241.992C637.566 241.992 636.238 242.84 635.998 244.392H641.486C641.262 242.84 640.158 241.992 638.846 241.992ZM649.006 240.92C650.91 240.92 652.174 242.28 652.174 244.28V249H650.958V244.504C650.958 243.032 650.078 242.04 648.766 242.04C647.118 242.04 646.03 243.16 646.03 245.208V249H644.814V241.112H646.03V242.424C646.67 241.464 647.678 240.92 649.006 240.92ZM659.135 247.576L659.535 248.584C658.895 249.032 658.351 249.208 657.711 249.208C656.143 249.208 655.103 248.28 655.103 246.536V242.136H653.391V241.112H655.103V238.28H656.335V241.112H659.151V242.136H656.335V246.456C656.335 247.48 656.911 248.056 657.791 248.056C658.239 248.056 658.735 247.864 659.135 247.576ZM100.432 264.92C102.4 264.92 103.696 265.976 103.696 267.88V273H102.512V271.8C101.904 272.616 100.912 273.208 99.552 273.208C97.824 273.208 96.688 272.216 96.688 270.792C96.688 269.352 97.792 268.328 99.856 268.328H102.512V267.96C102.512 266.728 101.712 265.992 100.496 265.992C99.296 265.992 98.464 266.584 98.288 267.576L97.12 267.32C97.376 265.896 98.704 264.92 100.432 264.92ZM99.728 272.2C101.264 272.2 102.512 271.128 102.512 269.704V269.288H99.84C98.544 269.288 97.856 269.912 97.856 270.776C97.856 271.608 98.592 272.2 99.728 272.2ZM105.455 270.872L106.671 270.6C106.783 271.64 107.743 272.2 108.991 272.2C110.127 272.2 110.879 271.672 110.879 270.856C110.879 270.2 110.383 269.896 109.583 269.72L107.775 269.32C106.463 269.048 105.727 268.392 105.727 267.304C105.727 265.88 106.911 264.92 108.719 264.92C110.495 264.92 111.647 265.832 111.935 267.112L110.767 267.368C110.607 266.504 109.855 265.912 108.687 265.912C107.567 265.912 106.943 266.456 106.943 267.208C106.943 267.832 107.375 268.12 108.143 268.296L110.047 268.712C111.199 268.968 112.079 269.576 112.079 270.776C112.079 272.328 110.783 273.208 108.895 273.208C107.087 273.208 105.647 272.408 105.455 270.872ZM113.392 270.872L114.608 270.6C114.72 271.64 115.68 272.2 116.928 272.2C118.064 272.2 118.816 271.672 118.816 270.856C118.816 270.2 118.32 269.896 117.52 269.72L115.712 269.32C114.4 269.048 113.664 268.392 113.664 267.304C113.664 265.88 114.848 264.92 116.656 264.92C118.432 264.92 119.584 265.832 119.872 267.112L118.704 267.368C118.544 266.504 117.792 265.912 116.624 265.912C115.504 265.912 114.88 266.456 114.88 267.208C114.88 267.832 115.312 268.12 116.08 268.296L117.984 268.712C119.136 268.968 120.016 269.576 120.016 270.776C120.016 272.328 118.72 273.208 116.832 273.208C115.024 273.208 113.584 272.408 113.392 270.872ZM122.894 261.912C123.374 261.912 123.742 262.296 123.742 262.728C123.742 263.192 123.374 263.544 122.894 263.544C122.414 263.544 122.062 263.192 122.062 262.728C122.062 262.296 122.414 261.912 122.894 261.912ZM123.518 273H122.286V265.112H123.518V273ZM134.023 265.112V273.336C134.023 275.56 132.183 277 129.879 277C127.911 277 126.615 276.232 126.007 274.952L127.047 274.168C127.591 275.224 128.391 275.816 129.879 275.816C131.479 275.816 132.791 274.792 132.807 273.176V271.688C132.119 272.648 131.015 273.208 129.671 273.208C127.575 273.208 125.735 271.56 125.735 269.064C125.735 266.568 127.575 264.92 129.671 264.92C131.015 264.92 132.119 265.48 132.807 266.44V265.112H134.023ZM129.863 272.12C131.351 272.12 132.807 270.936 132.807 269.064C132.807 267.176 131.351 265.992 129.863 265.992C128.231 265.992 126.919 267.176 126.919 269.064C126.919 270.936 128.231 272.12 129.863 272.12ZM141.038 264.92C142.942 264.92 144.206 266.28 144.206 268.28V273H142.99V268.504C142.99 267.032 142.11 266.04 140.798 266.04C139.15 266.04 138.062 267.16 138.062 269.208V273H136.846V265.112H138.062V266.424C138.702 265.464 139.71 264.92 141.038 264.92ZM154.062 268.856V269.304H147.294C147.406 271.08 148.75 272.136 150.11 272.136C151.23 272.136 152.238 271.704 152.798 270.44L153.886 270.696C153.262 272.344 151.886 273.208 150.11 273.208C148.014 273.208 146.11 271.592 146.11 269.08C146.11 266.552 148.014 264.92 150.19 264.92C152.318 264.92 153.982 266.504 154.062 268.856ZM150.19 265.992C148.91 265.992 147.582 266.84 147.342 268.392H152.83C152.606 266.84 151.502 265.992 150.19 265.992ZM163.726 260.68V273H162.51V271.688C161.822 272.648 160.718 273.208 159.374 273.208C157.278 273.208 155.438 271.56 155.438 269.064C155.438 266.568 157.278 264.92 159.374 264.92C160.718 264.92 161.822 265.48 162.51 266.44V260.68H163.726ZM159.566 272.12C161.054 272.12 162.51 270.936 162.51 269.064C162.51 267.176 161.054 265.992 159.566 265.992C157.934 265.992 156.622 267.176 156.622 269.064C156.622 270.936 157.934 272.12 159.566 272.12ZM174.916 271.576L175.316 272.584C174.676 273.032 174.132 273.208 173.492 273.208C171.924 273.208 170.884 272.28 170.884 270.536V266.136H169.172V265.112H170.884V262.28H172.116V265.112H174.932V266.136H172.116V270.456C172.116 271.48 172.692 272.056 173.572 272.056C174.02 272.056 174.516 271.864 174.916 271.576ZM180.114 264.936C182.434 264.936 184.29 266.632 184.29 269.048C184.29 271.464 182.434 273.192 180.114 273.192C177.762 273.192 175.922 271.464 175.922 269.048C175.922 266.632 177.762 264.936 180.114 264.936ZM180.114 272.12C181.73 272.12 183.09 270.872 183.09 269.048C183.09 267.24 181.73 266.008 180.114 266.008C178.482 266.008 177.106 267.24 177.106 269.048C177.106 270.872 178.482 272.12 180.114 272.12ZM197.64 268.856V269.304H190.872C190.984 271.08 192.328 272.136 193.688 272.136C194.808 272.136 195.816 271.704 196.376 270.44L197.464 270.696C196.84 272.344 195.464 273.208 193.688 273.208C191.592 273.208 189.688 271.592 189.688 269.08C189.688 266.552 191.592 264.92 193.768 264.92C195.896 264.92 197.56 266.504 197.64 268.856ZM193.768 265.992C192.488 265.992 191.16 266.84 190.92 268.392H196.408C196.184 266.84 195.08 265.992 193.768 265.992ZM202.76 264.92C204.728 264.92 206.024 265.976 206.024 267.88V273H204.84V271.8C204.232 272.616 203.24 273.208 201.88 273.208C200.152 273.208 199.016 272.216 199.016 270.792C199.016 269.352 200.12 268.328 202.184 268.328H204.84V267.96C204.84 266.728 204.04 265.992 202.824 265.992C201.624 265.992 200.792 266.584 200.616 267.576L199.448 267.32C199.704 265.896 201.032 264.92 202.76 264.92ZM202.056 272.2C203.592 272.2 204.84 271.128 204.84 269.704V269.288H202.168C200.872 269.288 200.184 269.912 200.184 270.776C200.184 271.608 200.92 272.2 202.056 272.2ZM211.847 272.072C213.015 272.072 214.039 271.448 214.455 270.296L215.575 270.6C215.111 272.168 213.591 273.208 211.847 273.208C209.623 273.208 207.735 271.576 207.735 269.064C207.735 266.584 209.623 264.92 211.847 264.92C213.575 264.92 215.079 265.928 215.591 267.544L214.423 267.896C214.039 266.68 213.015 266.04 211.847 266.04C210.231 266.04 208.919 267.256 208.919 269.064C208.919 270.904 210.231 272.072 211.847 272.072ZM221.866 264.92C223.77 264.92 225.034 266.28 225.034 268.28V273H223.818V268.504C223.818 267.032 222.938 266.04 221.626 266.04C219.978 266.04 218.89 267.16 218.89 269.208V273H217.674V260.68H218.89V266.424C219.53 265.464 220.538 264.92 221.866 264.92ZM237.753 271.976V273H230.937V272.168L236.073 266.136H231.081V265.112H237.593V265.96L232.457 271.976H237.753ZM240.535 261.912C241.015 261.912 241.383 262.296 241.383 262.728C241.383 263.192 241.015 263.544 240.535 263.544C240.055 263.544 239.703 263.192 239.703 262.728C239.703 262.296 240.055 261.912 240.535 261.912ZM241.159 273H239.927V265.112H241.159V273ZM248.448 264.92C250.544 264.92 252.384 266.568 252.384 269.064C252.384 271.56 250.544 273.208 248.448 273.208C247.104 273.208 246 272.648 245.312 271.688V276.84H244.096V265.112H245.312V266.44C246 265.48 247.104 264.92 248.448 264.92ZM248.256 272.12C249.888 272.12 251.2 270.936 251.2 269.064C251.2 267.176 249.888 265.992 248.256 265.992C246.768 265.992 245.312 267.176 245.312 269.064C245.312 270.936 246.768 272.12 248.256 272.12ZM261.909 272.072C263.077 272.072 264.101 271.448 264.517 270.296L265.637 270.6C265.173 272.168 263.653 273.208 261.909 273.208C259.685 273.208 257.797 271.576 257.797 269.064C257.797 266.584 259.685 264.92 261.909 264.92C263.637 264.92 265.141 265.928 265.653 267.544L264.485 267.896C264.101 266.68 263.077 266.04 261.909 266.04C260.293 266.04 258.981 267.256 258.981 269.064C258.981 270.904 260.293 272.072 261.909 272.072ZM271.208 264.936C273.528 264.936 275.384 266.632 275.384 269.048C275.384 271.464 273.528 273.192 271.208 273.192C268.856 273.192 267.016 271.464 267.016 269.048C267.016 266.632 268.856 264.936 271.208 264.936ZM271.208 272.12C272.824 272.12 274.184 270.872 274.184 269.048C274.184 267.24 272.824 266.008 271.208 266.008C269.576 266.008 268.2 267.24 268.2 269.048C268.2 270.872 269.576 272.12 271.208 272.12ZM285.039 260.68V273H283.823V271.688C283.135 272.648 282.031 273.208 280.687 273.208C278.591 273.208 276.751 271.56 276.751 269.064C276.751 266.568 278.591 264.92 280.687 264.92C282.031 264.92 283.135 265.48 283.823 266.44V260.68H285.039ZM280.879 272.12C282.367 272.12 283.823 270.936 283.823 269.064C283.823 267.176 282.367 265.992 280.879 265.992C279.247 265.992 277.935 267.176 277.935 269.064C277.935 270.936 279.247 272.12 280.879 272.12ZM295.093 268.856V269.304H288.325C288.437 271.08 289.781 272.136 291.141 272.136C292.261 272.136 293.269 271.704 293.829 270.44L294.917 270.696C294.293 272.344 292.917 273.208 291.141 273.208C289.045 273.208 287.141 271.592 287.141 269.08C287.141 266.552 289.045 264.92 291.221 264.92C293.349 264.92 295.013 266.504 295.093 268.856ZM291.221 265.992C289.941 265.992 288.613 266.84 288.373 268.392H293.861C293.637 266.84 292.533 265.992 291.221 265.992ZM308.533 265.112L303.189 276.84H301.829L303.637 272.888L300.101 265.112H301.477L304.293 271.416L307.173 265.112H308.533ZM313.458 264.936C315.778 264.936 317.634 266.632 317.634 269.048C317.634 271.464 315.778 273.192 313.458 273.192C311.106 273.192 309.266 271.464 309.266 269.048C309.266 266.632 311.106 264.936 313.458 264.936ZM313.458 272.12C315.074 272.12 316.434 270.872 316.434 269.048C316.434 267.24 315.074 266.008 313.458 266.008C311.826 266.008 310.45 267.24 310.45 269.048C310.45 270.872 311.826 272.12 313.458 272.12ZM326.905 265.112V272.984H325.673V271.704C325.033 272.648 324.009 273.192 322.697 273.192C320.793 273.192 319.529 271.832 319.529 269.832V265.112H320.761V269.608C320.761 271.08 321.625 272.056 322.937 272.056C324.585 272.056 325.673 270.952 325.673 268.904V265.112H326.905ZM338.088 264.92C340.184 264.92 342.024 266.568 342.024 269.064C342.024 271.56 340.184 273.208 338.088 273.208C336.744 273.208 335.64 272.648 334.952 271.688V276.84H333.736V265.112H334.952V266.44C335.64 265.48 336.744 264.92 338.088 264.92ZM337.896 272.12C339.528 272.12 340.84 270.936 340.84 269.064C340.84 267.176 339.528 265.992 337.896 265.992C336.408 265.992 334.952 267.176 334.952 269.064C334.952 270.936 336.408 272.12 337.896 272.12ZM345.183 260.68V270.984C345.183 271.624 345.631 272.04 346.303 272.04C346.607 272.04 346.943 271.944 347.247 271.784L347.503 272.808C347.119 273.032 346.719 273.208 346.111 273.208C344.815 273.208 343.967 272.344 343.967 271.048V260.68H345.183ZM352.37 264.92C354.338 264.92 355.634 265.976 355.634 267.88V273H354.45V271.8C353.842 272.616 352.85 273.208 351.49 273.208C349.762 273.208 348.626 272.216 348.626 270.792C348.626 269.352 349.73 268.328 351.794 268.328H354.45V267.96C354.45 266.728 353.65 265.992 352.434 265.992C351.234 265.992 350.402 266.584 350.226 267.576L349.058 267.32C349.314 265.896 350.642 264.92 352.37 264.92ZM351.666 272.2C353.202 272.2 354.45 271.128 354.45 269.704V269.288H351.778C350.482 269.288 349.794 269.912 349.794 270.776C349.794 271.608 350.53 272.2 351.666 272.2ZM362.256 264.92C364.16 264.92 365.424 266.28 365.424 268.28V273H364.208V268.504C364.208 267.032 363.328 266.04 362.016 266.04C360.368 266.04 359.28 267.16 359.28 269.208V273H358.064V265.112H359.28V266.424C359.92 265.464 360.928 264.92 362.256 264.92ZM376.416 271.576L376.816 272.584C376.176 273.032 375.632 273.208 374.992 273.208C373.424 273.208 372.384 272.28 372.384 270.536V266.136H370.672V265.112H372.384V262.28H373.616V265.112H376.432V266.136H373.616V270.456C373.616 271.48 374.192 272.056 375.072 272.056C375.52 272.056 376.016 271.864 376.416 271.576ZM381.614 264.936C383.934 264.936 385.79 266.632 385.79 269.048C385.79 271.464 383.934 273.192 381.614 273.192C379.262 273.192 377.422 271.464 377.422 269.048C377.422 266.632 379.262 264.936 381.614 264.936ZM381.614 272.12C383.23 272.12 384.59 270.872 384.59 269.048C384.59 267.24 383.23 266.008 381.614 266.008C379.982 266.008 378.606 267.24 378.606 269.048C378.606 270.872 379.982 272.12 381.614 272.12ZM391.236 270.872L392.452 270.6C392.564 271.64 393.524 272.2 394.772 272.2C395.908 272.2 396.66 271.672 396.66 270.856C396.66 270.2 396.164 269.896 395.364 269.72L393.556 269.32C392.244 269.048 391.508 268.392 391.508 267.304C391.508 265.88 392.692 264.92 394.5 264.92C396.276 264.92 397.428 265.832 397.716 267.112L396.548 267.368C396.388 266.504 395.636 265.912 394.468 265.912C393.348 265.912 392.724 266.456 392.724 267.208C392.724 267.832 393.156 268.12 393.924 268.296L395.828 268.712C396.98 268.968 397.86 269.576 397.86 270.776C397.86 272.328 396.564 273.208 394.676 273.208C392.868 273.208 391.428 272.408 391.236 270.872ZM407.234 268.856V269.304H400.466C400.578 271.08 401.922 272.136 403.282 272.136C404.402 272.136 405.41 271.704 405.97 270.44L407.058 270.696C406.434 272.344 405.058 273.208 403.282 273.208C401.186 273.208 399.282 271.592 399.282 269.08C399.282 266.552 401.186 264.92 403.362 264.92C405.49 264.92 407.154 266.504 407.234 268.856ZM403.362 265.992C402.082 265.992 400.754 266.84 400.514 268.392H406.002C405.778 266.84 404.674 265.992 403.362 265.992ZM413.73 265.032C413.922 265.032 414.066 265.032 414.29 265.096L414.194 266.264C414.05 266.248 413.874 266.248 413.73 266.248C411.634 266.248 410.562 267.832 410.562 269.96V273H409.33V265.112H410.562V267.048C411.202 265.88 412.274 265.032 413.73 265.032ZM423.108 265.112L419.62 273H418.292L414.804 265.112H416.132L418.964 271.56L421.78 265.112H423.108ZM431.781 268.856V269.304H425.013C425.125 271.08 426.469 272.136 427.829 272.136C428.949 272.136 429.957 271.704 430.517 270.44L431.605 270.696C430.981 272.344 429.605 273.208 427.829 273.208C425.733 273.208 423.829 271.592 423.829 269.08C423.829 266.552 425.733 264.92 427.909 264.92C430.037 264.92 431.701 266.504 431.781 268.856ZM427.909 265.992C426.629 265.992 425.301 266.84 425.061 268.392H430.549C430.325 266.84 429.221 265.992 427.909 265.992ZM433.866 271.432C434.346 271.432 434.698 271.816 434.698 272.248C434.698 272.696 434.346 273.048 433.866 273.048C433.386 273.048 433.034 272.696 433.034 272.248C433.034 271.816 433.386 271.432 433.866 271.432Z" fill="#1A1816"/>
<rect width="728" height="96" transform="translate(16 320)" fill="white"/>
<g clip-path="url(#clip1_340_32310)">
<path d="M488.352 371.608C490.032 371.608 491.408 370.712 491.888 368.904L493.552 369.256C492.96 371.768 490.88 373.224 488.352 373.224C485.232 373.224 482.768 370.776 482.768 367.64C482.768 364.52 485.232 362.056 488.352 362.056C490.88 362.056 492.944 363.528 493.552 365.896L491.888 366.376C491.408 364.568 490.032 363.672 488.352 363.672C486.192 363.672 484.496 365.384 484.496 367.64C484.496 369.896 486.192 371.608 488.352 371.608ZM498.761 364.84C500.793 364.84 502.137 365.912 502.137 367.832V373H500.553V372.088C499.961 372.744 499.081 373.224 497.849 373.224C496.073 373.224 494.889 372.2 494.889 370.712C494.889 369.224 496.025 368.2 498.073 368.2H500.553V367.96C500.553 366.936 499.865 366.296 498.857 366.296C497.785 366.296 497.097 366.776 496.921 367.672L495.337 367.336C495.609 365.848 496.985 364.84 498.761 364.84ZM498.105 371.88C499.433 371.88 500.553 370.952 500.553 369.736V369.48H498.041C497.065 369.48 496.489 369.976 496.489 370.68C496.489 371.4 497.129 371.88 498.105 371.88ZM508.727 364.84C510.631 364.84 511.911 366.216 511.911 368.2V373H510.231V368.536C510.231 367.24 509.479 366.376 508.343 366.376C506.919 366.376 505.975 367.336 505.975 369.336V373H504.311V365.064H505.975V366.04C506.615 365.272 507.543 364.84 508.727 364.84ZM517.737 371.688C518.793 371.688 519.673 371.144 520.073 370.024L521.609 370.424C521.161 372.12 519.577 373.224 517.737 373.224C515.465 373.224 513.545 371.544 513.545 369.032C513.545 366.552 515.465 364.84 517.737 364.84C519.529 364.84 521.097 365.928 521.609 367.624L520.009 368.088C519.689 366.92 518.793 366.376 517.737 366.376C516.265 366.376 515.177 367.464 515.177 369.032C515.177 370.648 516.265 371.688 517.737 371.688ZM530.859 368.856V369.432H524.427C524.587 370.904 525.659 371.784 526.827 371.784C527.707 371.784 528.603 371.528 529.163 370.408L530.651 370.728C529.995 372.392 528.587 373.224 526.827 373.224C524.667 373.224 522.779 371.56 522.779 369.048C522.779 366.52 524.651 364.84 526.891 364.84C529.019 364.84 530.779 366.472 530.859 368.856ZM526.891 366.312C525.851 366.312 524.731 366.968 524.475 368.248H529.147C528.891 366.952 527.979 366.312 526.891 366.312ZM534.366 373H532.702V360.68H534.366V373Z" fill="#1A1816"/>
<path d="M482 374.6H535.63V375.4H482V374.6Z" fill="#1A1816"/>
</g>
<mask id="path-13-inside-1_340_32310" fill="white">
<path d="M560 368C560 354.745 570.745 344 584 344H696C709.255 344 720 354.745 720 368C720 381.255 709.255 392 696 392H584C570.745 392 560 381.255 560 368Z"/>
</mask>
<path d="M560 368C560 354.745 570.745 344 584 344H696C709.255 344 720 354.745 720 368C720 381.255 709.255 392 696 392H584C570.745 392 560 381.255 560 368Z" fill="#1A1816"/>
<path d="M560 368M720 368M720 368M560 368M584 344V345H696V344V343H584V344ZM720 368M696 392V391H584V392V393H696V392ZM560 368M584 392V391C571.297 391 561 380.703 561 368H560H559C559 381.807 570.193 393 584 393V392ZM720 368H719C719 380.703 708.703 391 696 391V392V393C709.807 393 721 381.807 721 368H720ZM696 344V345C708.703 345 719 355.297 719 368H720H721C721 354.193 709.807 343 696 343V344ZM584 344V343C570.193 343 559 354.193 559 368H560H561C561 355.297 571.297 345 584 345V344Z" fill="#1A1816" mask="url(#path-13-inside-1_340_32310)"/>
<path d="M589.008 362.056C591.184 362.056 592.752 363.24 593.136 365.08L591.424 365.432C591.232 364.296 590.256 363.544 588.976 363.544C587.712 363.544 586.88 364.232 586.88 365.176C586.88 365.928 587.312 366.328 588.24 366.52L590.56 367.016C592.16 367.368 593.312 368.264 593.312 369.944C593.312 371.96 591.664 373.224 589.2 373.224C586.928 373.224 585.04 372.12 584.768 370.04L586.592 369.656C586.848 371.032 587.92 371.704 589.36 371.704C590.8 371.704 591.616 371.016 591.616 370.04C591.616 369.224 591.184 368.84 590.112 368.616L587.776 368.136C586.448 367.832 585.072 367.128 585.072 365.224C585.072 363.336 586.624 362.056 589.008 362.056ZM600.001 371.224L600.513 372.616C599.761 373.064 599.217 373.224 598.545 373.224C596.833 373.224 595.681 372.264 595.681 370.296V366.44H593.969V365.064H595.681V362.28H597.345V365.064H600.065V366.44H597.345V370.184C597.345 371.176 597.873 371.656 598.657 371.656C599.073 371.656 599.585 371.496 600.001 371.224ZM605.214 364.84C607.246 364.84 608.59 365.912 608.59 367.832V373H607.006V372.088C606.414 372.744 605.534 373.224 604.302 373.224C602.526 373.224 601.342 372.2 601.342 370.712C601.342 369.224 602.478 368.2 604.526 368.2H607.006V367.96C607.006 366.936 606.318 366.296 605.31 366.296C604.238 366.296 603.55 366.776 603.374 367.672L601.79 367.336C602.062 365.848 603.438 364.84 605.214 364.84ZM604.558 371.88C605.886 371.88 607.006 370.952 607.006 369.736V369.48H604.494C603.518 369.48 602.942 369.976 602.942 370.68C602.942 371.4 603.582 371.88 604.558 371.88ZM615.452 364.968C615.644 364.968 615.804 364.968 616.012 365.032L615.9 366.632C615.772 366.616 615.58 366.616 615.436 366.616C613.42 366.616 612.428 368.024 612.428 370.2V373H610.764V365.064H612.428V366.76C613.068 365.704 614.076 364.968 615.452 364.968ZM622.423 371.224L622.935 372.616C622.183 373.064 621.639 373.224 620.967 373.224C619.255 373.224 618.103 372.264 618.103 370.296V366.44H616.391V365.064H618.103V362.28H619.767V365.064H622.487V366.44H619.767V370.184C619.767 371.176 620.295 371.656 621.079 371.656C621.495 371.656 622.007 371.496 622.423 371.224ZM629.897 373H628.233V360.68H629.897V373ZM639.812 368.856V369.432H633.38C633.54 370.904 634.612 371.784 635.78 371.784C636.66 371.784 637.556 371.528 638.116 370.408L639.604 370.728C638.948 372.392 637.54 373.224 635.78 373.224C633.62 373.224 631.732 371.56 631.732 369.048C631.732 366.52 633.604 364.84 635.844 364.84C637.972 364.84 639.732 366.472 639.812 368.856ZM635.844 366.312C634.804 366.312 633.684 366.968 633.428 368.248H638.1C637.844 366.952 636.932 366.312 635.844 366.312ZM644.839 364.84C646.871 364.84 648.215 365.912 648.215 367.832V373H646.631V372.088C646.039 372.744 645.159 373.224 643.927 373.224C642.151 373.224 640.967 372.2 640.967 370.712C640.967 369.224 642.103 368.2 644.151 368.2H646.631V367.96C646.631 366.936 645.943 366.296 644.935 366.296C643.863 366.296 643.175 366.776 642.999 367.672L641.415 367.336C641.687 365.848 643.063 364.84 644.839 364.84ZM644.183 371.88C645.511 371.88 646.631 370.952 646.631 369.736V369.48H644.119C643.143 369.48 642.567 369.976 642.567 370.68C642.567 371.4 643.207 371.88 644.183 371.88ZM658.197 360.68V373H656.517V372.024C655.845 372.792 654.869 373.224 653.637 373.224C651.573 373.224 649.701 371.544 649.701 369.032C649.701 366.536 651.573 364.84 653.637 364.84C654.869 364.84 655.845 365.288 656.517 366.04V360.68H658.197ZM653.909 371.752C655.237 371.752 656.517 370.712 656.517 369.032C656.517 367.368 655.237 366.312 653.909 366.312C652.469 366.312 651.333 367.368 651.333 369.032C651.333 370.712 652.469 371.752 653.909 371.752ZM669.311 366.44H666.671V373H665.007V366.44H663.711V365.064H665.007V363.4C665.007 361.624 666.175 360.52 667.935 360.52C668.431 360.52 668.863 360.616 669.295 360.808L668.895 362.168C668.607 362.056 668.303 362.008 668.047 362.008C667.215 362.008 666.671 362.52 666.671 363.4V365.064H669.311V366.44ZM672.131 373H670.467V360.68H672.131V373ZM678.239 364.888C680.575 364.888 682.479 366.568 682.479 369.032C682.479 371.496 680.575 373.192 678.239 373.192C675.887 373.192 673.967 371.496 673.967 369.032C673.967 366.568 675.887 364.888 678.239 364.888ZM678.239 371.752C679.599 371.752 680.863 370.68 680.863 369.032C680.863 367.384 679.599 366.312 678.239 366.312C676.847 366.312 675.599 367.384 675.599 369.032C675.599 370.68 676.847 371.752 678.239 371.752ZM695.24 365.064L692.584 373.032H691.064L689.24 367.688L687.416 373.032H685.896L683.24 365.064H684.904L686.712 370.584L688.584 365.064H689.896L691.768 370.584L693.576 365.064H695.24Z" fill="white"/>
</g>
<path d="M32 12.5H728C736.56 12.5 743.5 19.4396 743.5 28V400C743.5 408.56 736.56 415.5 728 415.5H32C23.4396 415.5 16.5 408.56 16.5 400V28L16.5049 27.5996C16.7172 19.2242 23.5735 12.5 32 12.5Z" stroke="#D3CFCA"/>
</g>
<defs>
<filter id="filter0_d_340_32310" x="0" y="0" width="760" height="436" filterUnits="userSpaceOnUse" color-interpolation-filters="sRGB">
<feFlood flood-opacity="0" result="BackgroundImageFix"/>
<feColorMatrix in="SourceAlpha" type="matrix" values="0 0 0 0 0 0 0 0 0 0 0 0 0 0 0 0 0 0 127 0" result="hardAlpha"/>
<feOffset dy="4"/>
<feGaussianBlur stdDeviation="8"/>
<feColorMatrix type="matrix" values="0 0 0 0 0 0 0 0 0 0 0 0 0 0 0 0 0 0 0.16 0"/>
<feBlend mode="normal" in2="BackgroundImageFix" result="effect1_dropShadow_340_32310"/>
<feBlend mode="normal" in="SourceGraphic" in2="effect1_dropShadow_340_32310" result="shape"/>
</filter>
<clipPath id="clip0_340_32310">
<path d="M16 28C16 19.1634 23.1634 12 32 12H728C736.837 12 744 19.1634 744 28V400C744 408.837 736.837 416 728 416H32C23.1634 416 16 408.837 16 400V28Z" fill="white"/>
</clipPath>
<clipPath id="clip1_340_32310">
<rect width="54" height="48" fill="white" transform="translate(482 344)"/>
</clipPath>
</defs>
</svg>
