<svg width="326" height="203" viewBox="0 0 326 203" fill="none" xmlns="http://www.w3.org/2000/svg">
<path d="M0 109.953C0 106.881 2.4907 104.39 5.56312 104.39H207.437C210.509 104.39 213 106.881 213 109.953V197.24C213 200.312 210.509 202.803 207.437 202.803H5.56313C2.4907 202.803 0 200.312 0 197.24V109.953Z" fill="#D9D9D9"/>
<rect x="9.73535" y="116.212" width="133" height="10" rx="5" fill="#1A1816"/>
<rect x="9.73535" y="132.47" width="193.529" height="9.73547" rx="4.86773" fill="#1A1816"/>
<rect x="9.73535" y="148.464" width="174.691" height="10" rx="5" fill="#1A1816"/>
<rect x="9.73535" y="164.723" width="174.691" height="10" rx="5" fill="#1A1816"/>
<rect x="9.73535" y="180.981" width="81.5762" height="10" rx="5" fill="#1A1816"/>
<path d="M269.274 62.1133C251.576 62.0669 237.244 48.1798 237.244 31.0557C237.244 13.9317 251.576 0.0463363 269.274 0L269.274 62.1133Z" fill="#D92228"/>
<path d="M269.275 62.1133C286.974 62.0671 301.307 48.1799 301.307 31.0557C301.306 13.9316 286.974 0.0462063 269.275 0L269.275 62.1133Z" fill="#1A1816"/>
<path d="M325.551 62.114C325.49 93.0087 300.319 118.034 269.276 118.035V62.114H325.551Z" fill="#D92228"/>
<path d="M213 62.114C213.061 93.0087 238.232 118.034 269.274 118.035V62.114H213Z" fill="#1A1816"/>
<path d="M162.314 94.7623C162.37 95.5888 161.746 96.3046 160.919 96.3611C160.093 96.4176 159.377 95.7934 159.321 94.9669L160.817 94.8646L162.314 94.7623ZM204.472 62.4723C204.964 63.139 204.822 64.0781 204.155 64.5698L193.291 72.5832C192.624 73.075 191.685 72.9331 191.193 72.2664C190.702 71.5998 190.843 70.6607 191.51 70.1689L201.167 63.0459L194.044 53.3886C193.552 52.7219 193.694 51.7828 194.361 51.2911C195.028 50.7994 195.967 50.9412 196.459 51.6079L204.472 62.4723ZM160.817 94.8646L159.321 94.9669C158.865 88.3069 160.517 78.6292 167.075 71.2843C173.709 63.8538 185.099 59.1021 203.489 61.8795L203.265 63.3627L203.041 64.8458C185.378 62.1783 175.107 66.793 169.313 73.2823C163.442 79.8573 161.896 88.6529 162.314 94.7623L160.817 94.8646Z" fill="black"/>
</svg>
