<svg width="358" height="224" viewBox="0 0 358 224" fill="none" xmlns="http://www.w3.org/2000/svg">
<g clip-path="url(#clip0_289_15549)">
<path d="M0 16C0 7.16345 7.16344 0 16 0H342C350.837 0 358 7.16344 358 16V208C358 216.837 350.837 224 342 224H16C7.16345 224 0 216.837 0 208V16Z" fill="white"/>
<path d="M16 34C16 24.0589 24.0589 16 34 16V16C43.9411 16 52 24.0589 52 34V34C52 43.9411 43.9411 52 34 52V52C24.0589 52 16 43.9411 16 34V34Z" fill="#1A1816"/>
<path fill-rule="evenodd" clip-rule="evenodd" d="M34.0099 22.5L44 33.0416H40.9535V42.5H27.0531V33.0416H24L34.0099 22.5ZM36.6278 29.8596C37.1355 29.8596 37.5575 30.0085 37.8213 30.2793C38.0719 30.5637 38.1906 30.9022 38.184 31.322C38.184 31.9381 37.8081 32.5542 37.0959 32.5542C36.3772 32.5542 36.1266 32.0938 35.9486 31.6605C35.7969 31.2814 35.6584 31.0444 35.4474 31.0444C34.8935 31.0444 34.0429 32.3376 33.8253 33.9489C33.8055 34.2062 33.7791 34.7952 33.7791 35.4046V37.4222C33.7791 38.5732 33.8978 39.0471 34.089 39.4669C34.2209 39.7174 34.3462 39.8528 34.4913 39.907C34.6891 39.995 34.8342 40.0221 35.032 40.0424L35.1177 40.0491V40.3335H30.2644V40.0491L30.3567 40.0424C30.5809 40.0153 30.7788 39.9611 30.937 39.8866C31.2206 39.7377 31.359 39.6023 31.4909 39.1622C31.5635 38.7086 31.5767 38.0315 31.5767 37.5373V32.6964C31.5767 32.3308 31.5767 31.4777 31.5107 31.1866C31.4712 30.9361 31.3459 30.7397 31.1414 30.5976C30.9106 30.4283 30.6601 30.4012 30.3963 30.3809L30.3106 30.3741V30.0898H33.5615C33.7329 30.0898 33.8121 30.2116 33.8121 30.3267C33.8121 30.3809 33.8055 30.8345 33.7923 31.3626C33.7909 31.4339 33.7895 31.5064 33.7881 31.5788C33.7829 31.8506 33.7777 32.1223 33.7725 32.3308C34.1154 31.3829 34.5308 30.8955 34.8935 30.5366L34.9001 30.5298C35.2628 30.2184 35.7903 29.8596 36.6278 29.8596Z" fill="white"/>
<path d="M70.272 31.208C71.76 31.208 73.04 30.392 73.44 28.52L75.552 28.952C75.024 31.704 72.848 33.24 70.272 33.24C67.12 33.24 64.64 30.792 64.64 27.64C64.64 24.504 67.12 22.04 70.272 22.04C72.848 22.04 75.008 23.592 75.552 26.168L73.44 26.76C73.04 24.904 71.76 24.088 70.272 24.088C68.352 24.088 66.832 25.608 66.832 27.64C66.832 29.672 68.352 31.208 70.272 31.208ZM81.0195 24.824C83.3555 24.824 85.3235 26.504 85.3235 29.016C85.3235 31.528 83.3555 33.208 81.0195 33.208C78.6355 33.208 76.6675 31.528 76.6675 29.016C76.6675 26.504 78.6355 24.824 81.0195 24.824ZM81.0195 31.4C82.1235 31.4 83.2755 30.504 83.2755 29.016C83.2755 27.528 82.1235 26.632 81.0195 26.632C79.8675 26.632 78.7155 27.528 78.7155 29.016C78.7155 30.504 79.8675 31.4 81.0195 31.4ZM96.9489 24.776C98.6129 24.776 100.053 26.056 100.053 28.008V33H97.9569V28.44C97.9569 27.368 97.2689 26.712 96.3889 26.712C95.2689 26.712 94.5329 27.48 94.5329 29.16V33H92.4209V28.44C92.4209 27.368 91.7329 26.712 90.8529 26.712C89.7329 26.712 89.0289 27.48 89.0289 29.16V33H86.9169V25.016H89.0289V25.672C89.5889 25.112 90.3729 24.776 91.4129 24.776C92.4849 24.776 93.4609 25.24 94.0369 26.088C94.6929 25.272 95.6689 24.776 96.9489 24.776ZM106.856 24.776C108.888 24.776 110.776 26.504 110.776 29.016C110.776 31.528 108.888 33.24 106.856 33.24C105.736 33.24 104.856 32.904 104.216 32.312V36.84H102.104V25.016H104.216V25.704C104.856 25.112 105.736 24.776 106.856 24.776ZM106.488 31.4C107.768 31.4 108.728 30.488 108.728 29.016C108.728 27.544 107.768 26.616 106.488 26.616C105.352 26.616 104.216 27.544 104.216 29.016C104.216 30.488 105.352 31.4 106.488 31.4ZM114.482 33H112.37V20.68H114.482V33ZM124.265 28.856V29.576H118.185C118.393 30.728 119.209 31.432 120.185 31.432C120.809 31.432 121.593 31.352 122.169 30.376L124.057 30.776C123.353 32.44 121.929 33.24 120.185 33.24C117.929 33.24 116.089 31.528 116.089 29.016C116.089 26.504 117.929 24.776 120.217 24.776C122.345 24.776 124.185 26.424 124.265 28.856ZM120.217 26.616C119.417 26.616 118.505 27.096 118.249 28.088H122.105C121.833 27.064 121.065 26.616 120.217 26.616ZM131.07 30.888L131.678 32.648C130.846 33.096 130.27 33.24 129.598 33.24C127.71 33.24 126.462 32.248 126.462 30.056V26.744H124.75V25.016H126.462V22.28H128.574V25.016H131.182V26.744H128.574V29.896C128.574 30.856 129.038 31.272 129.742 31.272C130.11 31.272 130.654 31.112 131.07 30.888ZM140.187 28.856V29.576H134.107C134.315 30.728 135.131 31.432 136.107 31.432C136.731 31.432 137.515 31.352 138.091 30.376L139.979 30.776C139.275 32.44 137.851 33.24 136.107 33.24C133.851 33.24 132.011 31.528 132.011 29.016C132.011 26.504 133.851 24.776 136.139 24.776C138.267 24.776 140.107 26.424 140.187 28.856ZM136.139 26.616C135.339 26.616 134.427 27.096 134.171 28.088H138.027C137.755 27.064 136.987 26.616 136.139 26.616ZM153.747 25L148.627 36.84H146.275L148.035 32.76L144.723 25H147.075L149.187 30.12L151.395 25H153.747ZM158.504 24.824C160.84 24.824 162.808 26.504 162.808 29.016C162.808 31.528 160.84 33.208 158.504 33.208C156.12 33.208 154.152 31.528 154.152 29.016C154.152 26.504 156.12 24.824 158.504 24.824ZM158.504 31.4C159.608 31.4 160.76 30.504 160.76 29.016C160.76 27.528 159.608 26.632 158.504 26.632C157.352 26.632 156.2 27.528 156.2 29.016C156.2 30.504 157.352 31.4 158.504 31.4ZM172.017 25.016V33H169.905V32.28C169.281 32.904 168.449 33.24 167.393 33.24C165.473 33.24 164.193 31.864 164.193 29.88V25.016H166.305V29.432C166.305 30.552 166.945 31.304 167.921 31.304C169.121 31.304 169.905 30.504 169.905 28.552V25.016H172.017ZM179.237 24.904C179.445 24.904 179.605 24.904 179.797 24.968L179.685 27H179.221C177.269 27 176.373 28.2 176.373 30.424V33H174.261V25.016H176.373V26.472C177.013 25.544 177.941 24.904 179.237 24.904ZM196.947 22.28V33H194.835V26.84L191.475 33H190.499L187.123 26.84V33H185.011V22.28H186.915L190.979 29.688L195.059 22.28H196.947ZM202.527 24.776C204.639 24.776 206.031 25.848 206.031 27.784V33H204.015V32.344C203.471 32.872 202.671 33.24 201.583 33.24C199.759 33.24 198.543 32.2 198.543 30.632C198.543 29.096 199.695 28.072 201.711 28.072H204.015V27.944C204.015 27.144 203.471 26.6 202.655 26.6C201.695 26.6 201.151 26.968 200.991 27.768L198.975 27.368C199.279 25.816 200.703 24.776 202.527 24.776ZM201.919 31.56C203.039 31.56 204.015 30.792 204.015 29.768V29.672H201.679C201.007 29.672 200.559 30.04 200.559 30.584C200.559 31.176 201.103 31.56 201.919 31.56ZM212.893 24.904C213.101 24.904 213.261 24.904 213.453 24.968L213.341 27H212.877C210.925 27 210.029 28.2 210.029 30.424V33H207.917V25.016H210.029V26.472C210.669 25.544 211.597 24.904 212.893 24.904ZM223.528 33H220.872L218.216 29.976L216.888 31.448V33H214.776V20.68H216.888V28.632L220.248 25.016H222.712L219.608 28.456L223.528 33ZM231.703 28.856V29.576H225.623C225.831 30.728 226.647 31.432 227.623 31.432C228.247 31.432 229.031 31.352 229.607 30.376L231.495 30.776C230.791 32.44 229.367 33.24 227.623 33.24C225.367 33.24 223.527 31.528 223.527 29.016C223.527 26.504 225.367 24.776 227.655 24.776C229.783 24.776 231.623 26.424 231.703 28.856ZM227.655 26.616C226.855 26.616 225.943 27.096 225.687 28.088H229.543C229.271 27.064 228.503 26.616 227.655 26.616ZM238.508 30.888L239.116 32.648C238.284 33.096 237.708 33.24 237.036 33.24C235.148 33.24 233.9 32.248 233.9 30.056V26.744H232.188V25.016H233.9V22.28H236.012V25.016H238.62V26.744H236.012V29.896C236.012 30.856 236.476 31.272 237.18 31.272C237.548 31.272 238.092 31.112 238.508 30.888ZM254.52 22.28L249.896 33H247.8L243.176 22.28H245.576L248.84 30.088L252.12 22.28H254.52ZM259.408 24.248V31.032H261.648V33H254.992V31.032H257.232V24.248H254.992V22.28H261.648V24.248H259.408ZM263.089 22.28H268.081C270.545 22.28 272.049 23.736 272.049 25.88C272.049 28.056 270.545 29.496 268.081 29.496H265.265V33H263.089V22.28ZM265.265 27.528H268.081C269.249 27.528 269.889 26.872 269.889 25.88C269.889 24.92 269.249 24.248 268.081 24.248H265.265V27.528ZM72.656 52.856V53.576H66.576C66.784 54.728 67.6 55.432 68.576 55.432C69.2 55.432 69.984 55.352 70.56 54.376L72.448 54.776C71.744 56.44 70.32 57.24 68.576 57.24C66.32 57.24 64.48 55.528 64.48 53.016C64.48 50.504 66.32 48.776 68.608 48.776C70.736 48.776 72.576 50.424 72.656 52.856ZM68.608 50.616C67.808 50.616 66.896 51.096 66.64 52.088H70.496C70.224 51.064 69.456 50.616 68.608 50.616ZM78.8846 48.776C80.8046 48.776 82.0846 50.152 82.0846 52.136V57H79.9726V52.584C79.9726 51.464 79.3326 50.712 78.3566 50.712C77.1566 50.712 76.3726 51.512 76.3726 53.464V57H74.2606V49.016H76.3726V49.736C76.9966 49.112 77.8286 48.776 78.8846 48.776ZM89.096 48.904C89.304 48.904 89.464 48.904 89.656 48.968L89.544 51H89.08C87.128 51 86.232 52.2 86.232 54.424V57H84.12V49.016H86.232V50.472C86.872 49.544 87.8 48.904 89.096 48.904ZM94.6133 48.824C96.9493 48.824 98.9173 50.504 98.9173 53.016C98.9173 55.528 96.9493 57.208 94.6133 57.208C92.2293 57.208 90.2613 55.528 90.2613 53.016C90.2613 50.504 92.2293 48.824 94.6133 48.824ZM94.6133 55.4C95.7173 55.4 96.8693 54.504 96.8693 53.016C96.8693 51.528 95.7173 50.632 94.6133 50.632C93.4613 50.632 92.3093 51.528 92.3093 53.016C92.3093 54.504 93.4613 55.4 94.6133 55.4ZM102.623 57H100.511V44.68H102.623V57ZM106.982 57H104.87V44.68H106.982V57ZM119.261 48.776C120.925 48.776 122.365 50.056 122.365 52.008V57H120.269V52.44C120.269 51.368 119.581 50.712 118.701 50.712C117.581 50.712 116.845 51.48 116.845 53.16V57H114.733V52.44C114.733 51.368 114.045 50.712 113.165 50.712C112.045 50.712 111.341 51.48 111.341 53.16V57H109.229V49.016H111.341V49.672C111.901 49.112 112.685 48.776 113.725 48.776C114.797 48.776 115.773 49.24 116.349 50.088C117.005 49.272 117.981 48.776 119.261 48.776ZM131.953 52.856V53.576H125.873C126.081 54.728 126.897 55.432 127.873 55.432C128.497 55.432 129.281 55.352 129.857 54.376L131.745 54.776C131.041 56.44 129.617 57.24 127.873 57.24C125.617 57.24 123.777 55.528 123.777 53.016C123.777 50.504 125.617 48.776 127.905 48.776C130.033 48.776 131.873 50.424 131.953 52.856ZM127.905 50.616C127.105 50.616 126.193 51.096 125.937 52.088H129.793C129.521 51.064 128.753 50.616 127.905 50.616ZM138.182 48.776C140.102 48.776 141.382 50.152 141.382 52.136V57H139.27V52.584C139.27 51.464 138.63 50.712 137.654 50.712C136.454 50.712 135.67 51.512 135.67 53.464V57H133.558V49.016H135.67V49.736C136.294 49.112 137.126 48.776 138.182 48.776ZM148.617 54.888L149.225 56.648C148.393 57.096 147.817 57.24 147.145 57.24C145.257 57.24 144.009 56.248 144.009 54.056V50.744H142.297V49.016H144.009V46.28H146.121V49.016H148.729V50.744H146.121V53.896C146.121 54.856 146.585 55.272 147.289 55.272C147.657 55.272 148.201 55.112 148.617 54.888Z" fill="#1A1816"/>
<path d="M323.337 26.198C324.331 26.478 324.933 27.234 324.933 28.312C324.933 30.034 323.645 31.182 321.741 31.182C319.753 31.182 318.437 29.95 318.325 28.13L319.361 27.92C319.459 29.306 320.327 30.202 321.741 30.202C323.029 30.202 323.925 29.46 323.925 28.326C323.925 27.29 323.141 26.688 321.839 26.688H320.537V25.722H321.769C322.973 25.722 323.729 25.134 323.729 24.168C323.729 23.118 322.917 22.418 321.685 22.418C320.411 22.418 319.557 23.202 319.473 24.588L318.451 24.392C318.577 22.642 319.809 21.438 321.699 21.438C323.533 21.438 324.751 22.544 324.751 24.168C324.751 25.176 324.205 25.904 323.337 26.198ZM330.406 21.438C332.73 21.438 334.284 23.412 334.284 26.31C334.284 29.222 332.73 31.182 330.406 31.182C328.082 31.182 326.514 29.222 326.514 26.31C326.514 23.412 328.082 21.438 330.406 21.438ZM330.406 30.146C332.072 30.146 333.164 28.592 333.164 26.31C333.164 24.014 332.072 22.46 330.406 22.46C328.726 22.46 327.634 24.014 327.634 26.31C327.634 28.592 328.726 30.146 330.406 30.146ZM335.562 29.138L336.626 28.9C336.724 29.81 337.564 30.3 338.656 30.3C339.65 30.3 340.308 29.838 340.308 29.124C340.308 28.55 339.874 28.284 339.174 28.13L337.592 27.78C336.444 27.542 335.8 26.968 335.8 26.016C335.8 24.77 336.836 23.93 338.418 23.93C339.972 23.93 340.98 24.728 341.232 25.848L340.21 26.072C340.07 25.316 339.412 24.798 338.39 24.798C337.41 24.798 336.864 25.274 336.864 25.932C336.864 26.478 337.242 26.73 337.914 26.884L339.58 27.248C340.588 27.472 341.358 28.004 341.358 29.054C341.358 30.412 340.224 31.182 338.572 31.182C336.99 31.182 335.73 30.482 335.562 29.138Z" fill="#726A60"/>
<path d="M72.078 79.992V81H65.232V71.62H72.064V72.614H66.338V75.792H71.658V76.786H66.338V79.992H72.078ZM73.5581 79.138L74.6221 78.9C74.7201 79.81 75.5601 80.3 76.6521 80.3C77.6461 80.3 78.3041 79.838 78.3041 79.124C78.3041 78.55 77.8701 78.284 77.1701 78.13L75.5881 77.78C74.4401 77.542 73.7961 76.968 73.7961 76.016C73.7961 74.77 74.8321 73.93 76.4141 73.93C77.9681 73.93 78.9761 74.728 79.2281 75.848L78.2061 76.072C78.0661 75.316 77.4081 74.798 76.3861 74.798C75.4061 74.798 74.8601 75.274 74.8601 75.932C74.8601 76.478 75.2381 76.73 75.9101 76.884L77.5761 77.248C78.5841 77.472 79.3541 78.004 79.3541 79.054C79.3541 80.412 78.2201 81.182 76.5681 81.182C74.9861 81.182 73.7261 80.482 73.5581 79.138ZM85.0221 79.754L85.3721 80.636C84.8121 81.028 84.3361 81.182 83.7761 81.182C82.4041 81.182 81.4941 80.37 81.4941 78.844V74.994H79.9961V74.098H81.4941V71.62H82.5721V74.098H85.0361V74.994H82.5721V78.774C82.5721 79.67 83.0761 80.174 83.8461 80.174C84.2381 80.174 84.6721 80.006 85.0221 79.754ZM87.3819 71.298C87.8019 71.298 88.1239 71.634 88.1239 72.012C88.1239 72.418 87.8019 72.726 87.3819 72.726C86.9619 72.726 86.6539 72.418 86.6539 72.012C86.6539 71.634 86.9619 71.298 87.3819 71.298ZM87.9279 81H86.8499V74.098H87.9279V81ZM98.8696 73.93C100.326 73.93 101.446 74.966 101.446 76.534V81H100.382V76.716C100.382 75.624 99.6396 74.91 98.6036 74.91C97.3296 74.91 96.4896 75.848 96.4896 77.472V81H95.4256V76.716C95.4256 75.624 94.6836 74.91 93.6616 74.91C92.3876 74.91 91.5616 75.848 91.5616 77.472V81H90.4976V74.098H91.5616V75.148C92.0516 74.392 92.8356 73.93 93.9136 73.93C94.9776 73.93 95.8596 74.448 96.2656 75.33C96.7976 74.476 97.6936 73.93 98.8696 73.93ZM106.392 73.93C108.114 73.93 109.248 74.854 109.248 76.52V81H108.212V79.95C107.68 80.664 106.812 81.182 105.622 81.182C104.11 81.182 103.116 80.314 103.116 79.068C103.116 77.808 104.082 76.912 105.888 76.912H108.212V76.59C108.212 75.512 107.512 74.868 106.448 74.868C105.398 74.868 104.67 75.386 104.516 76.254L103.494 76.03C103.718 74.784 104.88 73.93 106.392 73.93ZM105.776 80.3C107.12 80.3 108.212 79.362 108.212 78.116V77.752H105.874C104.74 77.752 104.138 78.298 104.138 79.054C104.138 79.782 104.782 80.3 105.776 80.3ZM115.169 79.754L115.519 80.636C114.959 81.028 114.483 81.182 113.923 81.182C112.551 81.182 111.641 80.37 111.641 78.844V74.994H110.143V74.098H111.641V71.62H112.719V74.098H115.183V74.994H112.719V78.774C112.719 79.67 113.223 80.174 113.993 80.174C114.385 80.174 114.819 80.006 115.169 79.754ZM123.007 77.374V77.766H117.085C117.183 79.32 118.359 80.244 119.549 80.244C120.529 80.244 121.411 79.866 121.901 78.76L122.853 78.984C122.307 80.426 121.103 81.182 119.549 81.182C117.715 81.182 116.049 79.768 116.049 77.57C116.049 75.358 117.715 73.93 119.619 73.93C121.481 73.93 122.937 75.316 123.007 77.374ZM119.619 74.868C118.499 74.868 117.337 75.61 117.127 76.968H121.929C121.733 75.61 120.767 74.868 119.619 74.868ZM131.463 70.22V81H130.399V79.852C129.797 80.692 128.831 81.182 127.655 81.182C125.821 81.182 124.211 79.74 124.211 77.556C124.211 75.372 125.821 73.93 127.655 73.93C128.831 73.93 129.797 74.42 130.399 75.26V70.22H131.463ZM127.823 80.23C129.125 80.23 130.399 79.194 130.399 77.556C130.399 75.904 129.125 74.868 127.823 74.868C126.395 74.868 125.247 75.904 125.247 77.556C125.247 79.194 126.395 80.23 127.823 80.23ZM141.255 79.754L141.605 80.636C141.045 81.028 140.569 81.182 140.009 81.182C138.637 81.182 137.727 80.37 137.727 78.844V74.994H136.229V74.098H137.727V71.62H138.805V74.098H141.269V74.994H138.805V78.774C138.805 79.67 139.309 80.174 140.079 80.174C140.471 80.174 140.905 80.006 141.255 79.754ZM143.614 71.298C144.034 71.298 144.356 71.634 144.356 72.012C144.356 72.418 144.034 72.726 143.614 72.726C143.194 72.726 142.886 72.418 142.886 72.012C142.886 71.634 143.194 71.298 143.614 71.298ZM144.16 81H143.082V74.098H144.16V81ZM155.102 73.93C156.558 73.93 157.678 74.966 157.678 76.534V81H156.614V76.716C156.614 75.624 155.872 74.91 154.836 74.91C153.562 74.91 152.722 75.848 152.722 77.472V81H151.658V76.716C151.658 75.624 150.916 74.91 149.894 74.91C148.62 74.91 147.794 75.848 147.794 77.472V81H146.73V74.098H147.794V75.148C148.284 74.392 149.068 73.93 150.146 73.93C151.21 73.93 152.092 74.448 152.498 75.33C153.03 74.476 153.926 73.93 155.102 73.93ZM166.306 77.374V77.766H160.384C160.482 79.32 161.658 80.244 162.848 80.244C163.828 80.244 164.71 79.866 165.2 78.76L166.152 78.984C165.606 80.426 164.402 81.182 162.848 81.182C161.014 81.182 159.348 79.768 159.348 77.57C159.348 75.358 161.014 73.93 162.918 73.93C164.78 73.93 166.236 75.316 166.306 77.374ZM162.918 74.868C161.798 74.868 160.636 75.61 160.426 76.968H165.228C165.032 75.61 164.066 74.868 162.918 74.868ZM168.336 74.532C168.756 74.532 169.064 74.868 169.064 75.246C169.064 75.638 168.756 75.946 168.336 75.946C167.916 75.946 167.608 75.638 167.608 75.246C167.608 74.868 167.916 74.532 168.336 74.532ZM168.336 79.628C168.756 79.628 169.064 79.964 169.064 80.342C169.064 80.734 168.756 81.042 168.336 81.042C167.916 81.042 167.608 80.734 167.608 80.342C167.608 79.964 167.916 79.628 168.336 79.628ZM175.519 75.33H177.465C179.327 75.33 180.545 76.324 180.545 78.144C180.545 79.936 179.243 81.182 177.255 81.182C175.337 81.182 173.881 79.992 173.867 77.962L174.931 77.752C174.931 79.306 175.925 80.174 177.269 80.174C178.599 80.174 179.495 79.376 179.495 78.158C179.495 76.94 178.655 76.324 177.381 76.324H174.427L174.637 71.62H180.181V72.614H175.659L175.519 75.33ZM194.313 73.93C195.769 73.93 196.889 74.966 196.889 76.534V81H195.825V76.716C195.825 75.624 195.083 74.91 194.047 74.91C192.773 74.91 191.933 75.848 191.933 77.472V81H190.869V76.716C190.869 75.624 190.127 74.91 189.105 74.91C187.831 74.91 187.005 75.848 187.005 77.472V81H185.941V74.098H187.005V75.148C187.495 74.392 188.279 73.93 189.357 73.93C190.421 73.93 191.303 74.448 191.709 75.33C192.241 74.476 193.137 73.93 194.313 73.93ZM199.833 71.298C200.253 71.298 200.575 71.634 200.575 72.012C200.575 72.418 200.253 72.726 199.833 72.726C199.413 72.726 199.105 72.418 199.105 72.012C199.105 71.634 199.413 71.298 199.833 71.298ZM200.379 81H199.301V74.098H200.379V81ZM206.617 73.93C208.283 73.93 209.389 75.12 209.389 76.87V81H208.325V77.066C208.325 75.778 207.555 74.91 206.407 74.91C204.965 74.91 204.013 75.89 204.013 77.682V81H202.949V74.098H204.013V75.246C204.573 74.406 205.455 73.93 206.617 73.93ZM211.097 79.138L212.161 78.9C212.259 79.81 213.099 80.3 214.191 80.3C215.185 80.3 215.843 79.838 215.843 79.124C215.843 78.55 215.409 78.284 214.709 78.13L213.127 77.78C211.979 77.542 211.335 76.968 211.335 76.016C211.335 74.77 212.371 73.93 213.953 73.93C215.507 73.93 216.515 74.728 216.767 75.848L215.745 76.072C215.605 75.316 214.947 74.798 213.925 74.798C212.945 74.798 212.399 75.274 212.399 75.932C212.399 76.478 212.777 76.73 213.449 76.884L215.115 77.248C216.123 77.472 216.893 78.004 216.893 79.054C216.893 80.412 215.759 81.182 214.107 81.182C212.525 81.182 211.265 80.482 211.097 79.138Z" fill="#726A60"/>
<path d="M19.178 110.488V112.84C19.178 113.582 18.814 114.142 18.24 114.394C18.814 114.646 19.178 115.192 19.178 115.934V118.286C19.178 118.86 19.542 119.238 20.088 119.238H21.25V120.148H19.962C18.87 120.148 18.142 119.448 18.142 118.384V116.046C18.142 115.346 17.652 114.968 16.952 114.87L16.63 114.8V113.974L16.952 113.904C17.652 113.82 18.142 113.442 18.142 112.728V110.39C18.142 109.34 18.87 108.626 19.962 108.626H21.25V109.55H20.088C19.542 109.55 19.178 109.928 19.178 110.488ZM25.1936 110.488V112.84C25.1936 113.582 24.8296 114.142 24.2556 114.394C24.8296 114.646 25.1936 115.192 25.1936 115.934V118.286C25.1936 118.86 25.5576 119.238 26.1036 119.238H27.2656V120.148H25.9776C24.8856 120.148 24.1576 119.448 24.1576 118.384V116.046C24.1576 115.346 23.6676 114.968 22.9676 114.87L22.6456 114.8V113.974L22.9676 113.904C23.6676 113.82 24.1576 113.442 24.1576 112.728V110.39C24.1576 109.34 24.8856 108.626 25.9776 108.626H27.2656V109.55H26.1036C25.5576 109.55 25.1936 109.928 25.1936 110.488ZM32.962 109.438C35.678 109.438 37.806 111.594 37.806 114.31C37.806 117.04 35.678 119.182 32.962 119.182C30.232 119.182 28.104 117.04 28.104 114.31C28.104 111.594 30.232 109.438 32.962 109.438ZM32.962 118.132C35.048 118.132 36.686 116.48 36.686 114.31C36.686 112.154 35.048 110.474 32.962 110.474C30.862 110.474 29.224 112.154 29.224 114.31C29.224 116.48 30.862 118.132 32.962 118.132ZM49.0863 112.098L46.7623 119.028H45.7683L43.9623 113.792L42.1423 119.028H41.1483L38.8243 112.098H39.9023L41.6803 117.446L43.5283 112.098H44.3823L46.2303 117.446L48.0083 112.098H49.0863ZM54.232 111.93C55.898 111.93 57.004 113.12 57.004 114.87V119H55.94V115.066C55.94 113.778 55.17 112.91 54.022 112.91C52.58 112.91 51.628 113.89 51.628 115.682V119H50.564V112.098H51.628V113.246C52.188 112.406 53.07 111.93 54.232 111.93ZM65.6284 115.374V115.766H59.7064C59.8044 117.32 60.9804 118.244 62.1704 118.244C63.1504 118.244 64.0324 117.866 64.5224 116.76L65.4744 116.984C64.9284 118.426 63.7244 119.182 62.1704 119.182C60.3364 119.182 58.6704 117.768 58.6704 115.57C58.6704 113.358 60.3364 111.93 62.2404 111.93C64.1024 111.93 65.5584 113.316 65.6284 115.374ZM62.2404 112.868C61.1204 112.868 59.9584 113.61 59.7484 114.968H64.5504C64.3544 113.61 63.3884 112.868 62.2404 112.868ZM71.3125 112.028C71.4805 112.028 71.6065 112.028 71.8025 112.084L71.7185 113.106C71.5925 113.092 71.4385 113.092 71.3125 113.092C69.4785 113.092 68.5405 114.478 68.5405 116.34V119H67.4625V112.098H68.5405V113.792C69.1005 112.77 70.0385 112.028 71.3125 112.028ZM81.422 109.62V119H80.47L74.338 111.552V119H73.232V109.62H74.184L80.316 117.152V109.62H81.422ZM86.5147 111.93C88.2367 111.93 89.3707 112.854 89.3707 114.52V119H88.3347V117.95C87.8027 118.664 86.9347 119.182 85.7447 119.182C84.2327 119.182 83.2387 118.314 83.2387 117.068C83.2387 115.808 84.2047 114.912 86.0107 114.912H88.3347V114.59C88.3347 113.512 87.6347 112.868 86.5707 112.868C85.5207 112.868 84.7927 113.386 84.6387 114.254L83.6167 114.03C83.8407 112.784 85.0027 111.93 86.5147 111.93ZM85.8987 118.3C87.2427 118.3 88.3347 117.362 88.3347 116.116V115.752H85.9967C84.8627 115.752 84.2607 116.298 84.2607 117.054C84.2607 117.782 84.9047 118.3 85.8987 118.3ZM99.8696 111.93C101.326 111.93 102.446 112.966 102.446 114.534V119H101.382V114.716C101.382 113.624 100.64 112.91 99.6036 112.91C98.3296 112.91 97.4896 113.848 97.4896 115.472V119H96.4256V114.716C96.4256 113.624 95.6836 112.91 94.6616 112.91C93.3876 112.91 92.5616 113.848 92.5616 115.472V119H91.4976V112.098H92.5616V113.148C93.0516 112.392 93.8356 111.93 94.9136 111.93C95.9776 111.93 96.8596 112.448 97.2656 113.33C97.7976 112.476 98.6936 111.93 99.8696 111.93ZM111.074 115.374V115.766H105.152C105.25 117.32 106.426 118.244 107.616 118.244C108.596 118.244 109.478 117.866 109.968 116.76L110.92 116.984C110.374 118.426 109.17 119.182 107.616 119.182C105.782 119.182 104.116 117.768 104.116 115.57C104.116 113.358 105.782 111.93 107.686 111.93C109.548 111.93 111.004 113.316 111.074 115.374ZM107.686 112.868C106.566 112.868 105.404 113.61 105.194 114.968H109.996C109.8 113.61 108.834 112.868 107.686 112.868ZM116.792 113.974V114.8L116.47 114.87C115.77 114.968 115.28 115.346 115.28 116.046V118.384C115.28 119.448 114.552 120.148 113.46 120.148H112.172V119.238H113.334C113.88 119.238 114.244 118.86 114.244 118.286V115.934C114.244 115.192 114.608 114.646 115.182 114.394C114.608 114.142 114.244 113.582 114.244 112.84V110.488C114.244 109.928 113.88 109.55 113.334 109.55H112.172V108.626H113.46C114.552 108.626 115.28 109.34 115.28 110.39V112.728C115.28 113.442 115.77 113.82 116.47 113.904L116.792 113.974ZM122.808 113.974V114.8L122.486 114.87C121.786 114.968 121.296 115.346 121.296 116.046V118.384C121.296 119.448 120.568 120.148 119.476 120.148H118.188V119.238H119.35C119.896 119.238 120.26 118.86 120.26 118.286V115.934C120.26 115.192 120.624 114.646 121.198 114.394C120.624 114.142 120.26 113.582 120.26 112.84V110.488C120.26 109.928 119.896 109.55 119.35 109.55H118.188V108.626H119.476C120.568 108.626 121.296 109.34 121.296 110.39V112.728C121.296 113.442 121.786 113.82 122.486 113.904L122.808 113.974ZM128.837 109.298C129.257 109.298 129.579 109.634 129.579 110.012C129.579 110.418 129.257 110.726 128.837 110.726C128.417 110.726 128.109 110.418 128.109 110.012C128.109 109.634 128.417 109.298 128.837 109.298ZM129.383 119H128.305V112.098H129.383V119ZM135.621 111.93C137.287 111.93 138.393 113.12 138.393 114.87V119H137.329V115.066C137.329 113.778 136.559 112.91 135.411 112.91C133.969 112.91 133.017 113.89 133.017 115.682V119H131.953V112.098H133.017V113.246C133.577 112.406 134.459 111.93 135.621 111.93ZM146.77 112.098L143.718 119H142.556L139.504 112.098H140.666L143.144 117.74L145.608 112.098H146.77ZM148.894 109.298C149.314 109.298 149.636 109.634 149.636 110.012C149.636 110.418 149.314 110.726 148.894 110.726C148.474 110.726 148.166 110.418 148.166 110.012C148.166 109.634 148.474 109.298 148.894 109.298ZM149.44 119H148.362V112.098H149.44V119ZM155.803 117.754L156.153 118.636C155.593 119.028 155.117 119.182 154.557 119.182C153.185 119.182 152.275 118.37 152.275 116.844V112.994H150.777V112.098H152.275V109.62H153.353V112.098H155.817V112.994H153.353V116.774C153.353 117.67 153.857 118.174 154.627 118.174C155.019 118.174 155.453 118.006 155.803 117.754ZM163.642 115.374V115.766H157.72C157.818 117.32 158.994 118.244 160.184 118.244C161.164 118.244 162.046 117.866 162.536 116.76L163.488 116.984C162.942 118.426 161.738 119.182 160.184 119.182C158.35 119.182 156.684 117.768 156.684 115.57C156.684 113.358 158.35 111.93 160.254 111.93C162.116 111.93 163.572 113.316 163.642 115.374ZM160.254 112.868C159.134 112.868 157.972 113.61 157.762 114.968H162.564C162.368 113.61 161.402 112.868 160.254 112.868ZM172.098 108.22V119H171.034V117.852C170.432 118.692 169.466 119.182 168.29 119.182C166.456 119.182 164.846 117.74 164.846 115.556C164.846 113.372 166.456 111.93 168.29 111.93C169.466 111.93 170.432 112.42 171.034 113.26V108.22H172.098ZM168.458 118.23C169.76 118.23 171.034 117.194 171.034 115.556C171.034 113.904 169.76 112.868 168.458 112.868C167.03 112.868 165.882 113.904 165.882 115.556C165.882 117.194 167.03 118.23 168.458 118.23ZM184.493 112.098L179.817 122.36H178.627L180.209 118.902L177.115 112.098H178.319L180.783 117.614L183.303 112.098H184.493ZM188.803 111.944C190.833 111.944 192.457 113.428 192.457 115.542C192.457 117.656 190.833 119.168 188.803 119.168C186.745 119.168 185.135 117.656 185.135 115.542C185.135 113.428 186.745 111.944 188.803 111.944ZM188.803 118.23C190.217 118.23 191.407 117.138 191.407 115.542C191.407 113.96 190.217 112.882 188.803 112.882C187.375 112.882 186.171 113.96 186.171 115.542C186.171 117.138 187.375 118.23 188.803 118.23ZM200.569 112.098V118.986H199.491V117.866C198.931 118.692 198.035 119.168 196.887 119.168C195.221 119.168 194.115 117.978 194.115 116.228V112.098H195.193V116.032C195.193 117.32 195.949 118.174 197.097 118.174C198.539 118.174 199.491 117.208 199.491 115.416V112.098H200.569ZM210.34 117.754L210.69 118.636C210.13 119.028 209.654 119.182 209.094 119.182C207.722 119.182 206.812 118.37 206.812 116.844V112.994H205.314V112.098H206.812V109.62H207.89V112.098H210.354V112.994H207.89V116.774C207.89 117.67 208.394 118.174 209.164 118.174C209.556 118.174 209.99 118.006 210.34 117.754ZM214.889 111.944C216.919 111.944 218.543 113.428 218.543 115.542C218.543 117.656 216.919 119.168 214.889 119.168C212.831 119.168 211.221 117.656 211.221 115.542C211.221 113.428 212.831 111.944 214.889 111.944ZM214.889 118.23C216.303 118.23 217.493 117.138 217.493 115.542C217.493 113.96 216.303 112.882 214.889 112.882C213.461 112.882 212.257 113.96 212.257 115.542C212.257 117.138 213.461 118.23 214.889 118.23ZM227.746 112.028C227.914 112.028 228.04 112.028 228.236 112.084L228.152 113.106C228.026 113.092 227.872 113.092 227.746 113.092C225.912 113.092 224.974 114.478 224.974 116.34V119H223.896V112.098H224.974V113.792C225.534 112.77 226.472 112.028 227.746 112.028ZM235.816 115.374V115.766H229.894C229.992 117.32 231.168 118.244 232.358 118.244C233.338 118.244 234.22 117.866 234.71 116.76L235.662 116.984C235.116 118.426 233.912 119.182 232.358 119.182C230.524 119.182 228.858 117.768 228.858 115.57C228.858 113.358 230.524 111.93 232.428 111.93C234.29 111.93 235.746 113.316 235.816 115.374ZM232.428 112.868C231.308 112.868 230.146 113.61 229.936 114.968H234.738C234.542 113.61 233.576 112.868 232.428 112.868ZM240.618 118.188C241.64 118.188 242.536 117.642 242.9 116.634L243.88 116.9C243.474 118.272 242.144 119.182 240.618 119.182C238.672 119.182 237.02 117.754 237.02 115.556C237.02 113.386 238.672 111.93 240.618 111.93C242.13 111.93 243.446 112.812 243.894 114.226L242.872 114.534C242.536 113.47 241.64 112.91 240.618 112.91C239.204 112.91 238.056 113.974 238.056 115.556C238.056 117.166 239.204 118.188 240.618 118.188ZM252.044 115.374V115.766H246.122C246.22 117.32 247.396 118.244 248.586 118.244C249.566 118.244 250.448 117.866 250.938 116.76L251.89 116.984C251.344 118.426 250.14 119.182 248.586 119.182C246.752 119.182 245.086 117.768 245.086 115.57C245.086 113.358 246.752 111.93 248.656 111.93C250.518 111.93 251.974 113.316 252.044 115.374ZM248.656 112.868C247.536 112.868 246.374 113.61 246.164 114.968H250.966C250.77 113.61 249.804 112.868 248.656 112.868ZM254.522 109.298C254.942 109.298 255.264 109.634 255.264 110.012C255.264 110.418 254.942 110.726 254.522 110.726C254.102 110.726 253.794 110.418 253.794 110.012C253.794 109.634 254.102 109.298 254.522 109.298ZM255.068 119H253.99V112.098H255.068V119ZM263.924 112.098L260.872 119H259.71L256.658 112.098H257.82L260.298 117.74L262.762 112.098H263.924ZM271.513 115.374V115.766H265.591C265.689 117.32 266.865 118.244 268.055 118.244C269.035 118.244 269.917 117.866 270.407 116.76L271.359 116.984C270.813 118.426 269.609 119.182 268.055 119.182C266.221 119.182 264.555 117.768 264.555 115.57C264.555 113.358 266.221 111.93 268.125 111.93C269.987 111.93 271.443 113.316 271.513 115.374ZM268.125 112.868C267.005 112.868 265.843 113.61 265.633 114.968H270.435C270.239 113.61 269.273 112.868 268.125 112.868ZM283.203 115.374V115.766H277.281C277.379 117.32 278.555 118.244 279.745 118.244C280.725 118.244 281.607 117.866 282.097 116.76L283.049 116.984C282.503 118.426 281.299 119.182 279.745 119.182C277.911 119.182 276.245 117.768 276.245 115.57C276.245 113.358 277.911 111.93 279.815 111.93C281.677 111.93 283.133 113.316 283.203 115.374ZM279.815 112.868C278.695 112.868 277.533 113.61 277.323 114.968H282.125C281.929 113.61 280.963 112.868 279.815 112.868ZM288.361 115.598L290.993 119H289.705L287.577 116.242L285.449 119H284.161L286.793 115.598L284.161 112.098H285.449L287.577 114.94L289.705 112.098H290.993L288.361 115.598ZM295.552 118.188C296.574 118.188 297.47 117.642 297.834 116.634L298.814 116.9C298.408 118.272 297.078 119.182 295.552 119.182C293.606 119.182 291.954 117.754 291.954 115.556C291.954 113.386 293.606 111.93 295.552 111.93C297.064 111.93 298.38 112.812 298.828 114.226L297.806 114.534C297.47 113.47 296.574 112.91 295.552 112.91C294.138 112.91 292.99 113.974 292.99 115.556C292.99 117.166 294.138 118.188 295.552 118.188ZM301.714 119H300.65V108.22H301.714V119ZM310.463 112.098V118.986H309.385V117.866C308.825 118.692 307.929 119.168 306.781 119.168C305.115 119.168 304.009 117.978 304.009 116.228V112.098H305.087V116.032C305.087 117.32 305.843 118.174 306.991 118.174C308.433 118.174 309.385 117.208 309.385 115.416V112.098H310.463ZM312.216 117.138L313.28 116.9C313.378 117.81 314.218 118.3 315.31 118.3C316.304 118.3 316.962 117.838 316.962 117.124C316.962 116.55 316.528 116.284 315.828 116.13L314.246 115.78C313.098 115.542 312.454 114.968 312.454 114.016C312.454 112.77 313.49 111.93 315.072 111.93C316.626 111.93 317.634 112.728 317.886 113.848L316.864 114.072C316.724 113.316 316.066 112.798 315.044 112.798C314.064 112.798 313.518 113.274 313.518 113.932C313.518 114.478 313.896 114.73 314.568 114.884L316.234 115.248C317.242 115.472 318.012 116.004 318.012 117.054C318.012 118.412 316.878 119.182 315.226 119.182C313.644 119.182 312.384 118.482 312.216 117.138ZM320.53 109.298C320.95 109.298 321.272 109.634 321.272 110.012C321.272 110.418 320.95 110.726 320.53 110.726C320.11 110.726 319.802 110.418 319.802 110.012C319.802 109.634 320.11 109.298 320.53 109.298ZM321.076 119H319.998V112.098H321.076V119ZM329.932 112.098L326.88 119H325.718L322.666 112.098H323.828L326.306 117.74L328.77 112.098H329.932ZM337.521 115.374V115.766H331.599C331.697 117.32 332.873 118.244 334.063 118.244C335.043 118.244 335.925 117.866 336.415 116.76L337.367 116.984C336.821 118.426 335.617 119.182 334.063 119.182C332.229 119.182 330.563 117.768 330.563 115.57C330.563 113.358 332.229 111.93 334.133 111.93C335.995 111.93 337.451 113.316 337.521 115.374ZM334.133 112.868C333.013 112.868 331.851 113.61 331.641 114.968H336.443C336.247 113.61 335.281 112.868 334.133 112.868ZM18.296 139H17.232V128.22H18.296V139ZM21.4033 129.298C21.8233 129.298 22.1453 129.634 22.1453 130.012C22.1453 130.418 21.8233 130.726 21.4033 130.726C20.9833 130.726 20.6753 130.418 20.6753 130.012C20.6753 129.634 20.9833 129.298 21.4033 129.298ZM21.9493 139H20.8713V132.098H21.9493V139ZM30.8051 132.098L27.7531 139H26.5911L23.5391 132.098H24.7011L27.1791 137.74L29.6431 132.098H30.8051ZM38.394 135.374V135.766H32.472C32.57 137.32 33.746 138.244 34.936 138.244C35.916 138.244 36.798 137.866 37.288 136.76L38.24 136.984C37.694 138.426 36.49 139.182 34.936 139.182C33.102 139.182 31.436 137.768 31.436 135.57C31.436 133.358 33.102 131.93 35.006 131.93C36.868 131.93 38.324 133.316 38.394 135.374ZM35.006 132.868C33.886 132.868 32.724 133.61 32.514 134.968H37.316C37.12 133.61 36.154 132.868 35.006 132.868ZM44.6315 135.892H40.1095V134.954H44.6315V135.892ZM50.5026 137.754L50.8526 138.636C50.2926 139.028 49.8166 139.182 49.2566 139.182C47.8846 139.182 46.9746 138.37 46.9746 136.844V132.994H45.4766V132.098H46.9746V129.62H48.0526V132.098H50.5166V132.994H48.0526V136.774C48.0526 137.67 48.5566 138.174 49.3266 138.174C49.7186 138.174 50.1526 138.006 50.5026 137.754ZM56.0683 132.028C56.2363 132.028 56.3623 132.028 56.5583 132.084L56.4743 133.106C56.3483 133.092 56.1943 133.092 56.0683 133.092C54.2343 133.092 53.2963 134.478 53.2963 136.34V139H52.2183V132.098H53.2963V133.792C53.8563 132.77 54.7943 132.028 56.0683 132.028ZM60.4561 131.93C62.1781 131.93 63.3121 132.854 63.3121 134.52V139H62.2761V137.95C61.7441 138.664 60.8761 139.182 59.6861 139.182C58.1741 139.182 57.1801 138.314 57.1801 137.068C57.1801 135.808 58.1461 134.912 59.9521 134.912H62.2761V134.59C62.2761 133.512 61.5761 132.868 60.5121 132.868C59.4621 132.868 58.7341 133.386 58.5801 134.254L57.5581 134.03C57.7821 132.784 58.9441 131.93 60.4561 131.93ZM59.8401 138.3C61.1841 138.3 62.2761 137.362 62.2761 136.116V135.752H59.9381C58.8041 135.752 58.2021 136.298 58.2021 137.054C58.2021 137.782 58.8461 138.3 59.8401 138.3ZM69.107 131.93C70.773 131.93 71.879 133.12 71.879 134.87V139H70.815V135.066C70.815 133.778 70.045 132.91 68.897 132.91C67.455 132.91 66.503 133.89 66.503 135.682V139H65.439V132.098H66.503V133.246C67.063 132.406 67.945 131.93 69.107 131.93ZM73.5874 137.138L74.6514 136.9C74.7494 137.81 75.5894 138.3 76.6814 138.3C77.6754 138.3 78.3334 137.838 78.3334 137.124C78.3334 136.55 77.8994 136.284 77.1994 136.13L75.6174 135.78C74.4694 135.542 73.8254 134.968 73.8254 134.016C73.8254 132.77 74.8614 131.93 76.4434 131.93C77.9974 131.93 79.0054 132.728 79.2574 133.848L78.2354 134.072C78.0954 133.316 77.4374 132.798 76.4154 132.798C75.4354 132.798 74.8894 133.274 74.8894 133.932C74.8894 134.478 75.2674 134.73 75.9394 134.884L77.6054 135.248C78.6134 135.472 79.3834 136.004 79.3834 137.054C79.3834 138.412 78.2494 139.182 76.5974 139.182C75.0154 139.182 73.7554 138.482 73.5874 137.138ZM85.011 132.994H82.505V139H81.441V132.994H80.237V132.098H81.441V130.474C81.441 129.004 82.365 128.08 83.807 128.08C84.213 128.08 84.591 128.164 84.927 128.318L84.661 129.2C84.409 129.088 84.129 129.032 83.877 129.032C83.037 129.032 82.505 129.592 82.505 130.474V132.098H85.011V132.994ZM92.4389 135.374V135.766H86.5169C86.6149 137.32 87.7909 138.244 88.9809 138.244C89.9609 138.244 90.8429 137.866 91.3329 136.76L92.2849 136.984C91.7389 138.426 90.5349 139.182 88.9809 139.182C87.1469 139.182 85.4809 137.768 85.4809 135.57C85.4809 133.358 87.1469 131.93 89.0509 131.93C90.9129 131.93 92.3689 133.316 92.4389 135.374ZM89.0509 132.868C87.9309 132.868 86.7689 133.61 86.5589 134.968H91.3609C91.1649 133.61 90.1989 132.868 89.0509 132.868ZM98.123 132.028C98.291 132.028 98.417 132.028 98.613 132.084L98.529 133.106C98.403 133.092 98.249 133.092 98.123 133.092C96.289 133.092 95.351 134.478 95.351 136.34V139H94.273V132.098H95.351V133.792C95.911 132.77 96.849 132.028 98.123 132.028ZM104.634 139H103.57V128.22H104.634V139ZM113.425 135.374V135.766H107.503C107.601 137.32 108.777 138.244 109.967 138.244C110.947 138.244 111.829 137.866 112.319 136.76L113.271 136.984C112.725 138.426 111.521 139.182 109.967 139.182C108.133 139.182 106.467 137.768 106.467 135.57C106.467 133.358 108.133 131.93 110.037 131.93C111.899 131.93 113.355 133.316 113.425 135.374ZM110.037 132.868C108.917 132.868 107.755 133.61 107.545 134.968H112.347C112.151 133.61 111.185 132.868 110.037 132.868ZM117.905 131.93C119.627 131.93 120.761 132.854 120.761 134.52V139H119.725V137.95C119.193 138.664 118.325 139.182 117.135 139.182C115.623 139.182 114.629 138.314 114.629 137.068C114.629 135.808 115.595 134.912 117.401 134.912H119.725V134.59C119.725 133.512 119.025 132.868 117.961 132.868C116.911 132.868 116.183 133.386 116.029 134.254L115.007 134.03C115.231 132.784 116.393 131.93 117.905 131.93ZM117.289 138.3C118.633 138.3 119.725 137.362 119.725 136.116V135.752H117.387C116.253 135.752 115.651 136.298 115.651 137.054C115.651 137.782 116.295 138.3 117.289 138.3ZM129.51 128.22V139H128.446V137.852C127.844 138.692 126.878 139.182 125.702 139.182C123.868 139.182 122.258 137.74 122.258 135.556C122.258 133.372 123.868 131.93 125.702 131.93C126.878 131.93 127.844 132.42 128.446 133.26V128.22H129.51ZM125.87 138.23C127.172 138.23 128.446 137.194 128.446 135.556C128.446 133.904 127.172 132.868 125.87 132.868C124.442 132.868 123.294 133.904 123.294 135.556C123.294 137.194 124.442 138.23 125.87 138.23ZM131.392 137.138L132.456 136.9C132.554 137.81 133.394 138.3 134.486 138.3C135.48 138.3 136.138 137.838 136.138 137.124C136.138 136.55 135.704 136.284 135.004 136.13L133.422 135.78C132.274 135.542 131.63 134.968 131.63 134.016C131.63 132.77 132.666 131.93 134.248 131.93C135.802 131.93 136.81 132.728 137.062 133.848L136.04 134.072C135.9 133.316 135.242 132.798 134.22 132.798C133.24 132.798 132.694 133.274 132.694 133.932C132.694 134.478 133.072 134.73 133.744 134.884L135.41 135.248C136.418 135.472 137.188 136.004 137.188 137.054C137.188 138.412 136.054 139.182 134.402 139.182C132.82 139.182 131.56 138.482 131.392 137.138ZM148.875 132.098L145.823 139H144.661L141.609 132.098H142.771L145.249 137.74L147.713 132.098H148.875ZM150.999 129.298C151.419 129.298 151.741 129.634 151.741 130.012C151.741 130.418 151.419 130.726 150.999 130.726C150.579 130.726 150.271 130.418 150.271 130.012C150.271 129.634 150.579 129.298 150.999 129.298ZM151.545 139H150.467V132.098H151.545V139ZM156.761 131.93C158.483 131.93 159.617 132.854 159.617 134.52V139H158.581V137.95C158.049 138.664 157.181 139.182 155.991 139.182C154.479 139.182 153.485 138.314 153.485 137.068C153.485 135.808 154.451 134.912 156.257 134.912H158.581V134.59C158.581 133.512 157.881 132.868 156.817 132.868C155.767 132.868 155.039 133.386 154.885 134.254L153.863 134.03C154.087 132.784 155.249 131.93 156.761 131.93ZM156.145 138.3C157.489 138.3 158.581 137.362 158.581 136.116V135.752H156.243C155.109 135.752 154.507 136.298 154.507 137.054C154.507 137.782 155.151 138.3 156.145 138.3ZM175.379 129.62V139H174.315V131.972L170.619 139H170.045L166.335 131.972V139H165.271V129.62H166.237L170.325 137.348L174.413 129.62H175.379ZM180.495 131.93C182.217 131.93 183.351 132.854 183.351 134.52V139H182.315V137.95C181.783 138.664 180.915 139.182 179.725 139.182C178.213 139.182 177.219 138.314 177.219 137.068C177.219 135.808 178.185 134.912 179.991 134.912H182.315V134.59C182.315 133.512 181.615 132.868 180.551 132.868C179.501 132.868 178.773 133.386 178.619 134.254L177.597 134.03C177.821 132.784 178.983 131.93 180.495 131.93ZM179.879 138.3C181.223 138.3 182.315 137.362 182.315 136.116V135.752H179.977C178.843 135.752 178.241 136.298 178.241 137.054C178.241 137.782 178.885 138.3 179.879 138.3ZM189.328 132.028C189.496 132.028 189.622 132.028 189.818 132.084L189.734 133.106C189.608 133.092 189.454 133.092 189.328 133.092C187.494 133.092 186.556 134.478 186.556 136.34V139H185.478V132.098H186.556V133.792C187.116 132.77 188.054 132.028 189.328 132.028ZM198.262 139H196.904L193.964 135.752L192.312 137.488V139H191.248V128.22H192.312V136.06L196.162 132.098H197.45L194.692 134.996L198.262 139ZM205.601 135.374V135.766H199.679C199.777 137.32 200.953 138.244 202.143 138.244C203.123 138.244 204.005 137.866 204.495 136.76L205.447 136.984C204.901 138.426 203.697 139.182 202.143 139.182C200.309 139.182 198.643 137.768 198.643 135.57C198.643 133.358 200.309 131.93 202.213 131.93C204.075 131.93 205.531 133.316 205.601 135.374ZM202.213 132.868C201.093 132.868 199.931 133.61 199.721 134.968H204.523C204.327 133.61 203.361 132.868 202.213 132.868ZM211.229 137.754L211.579 138.636C211.019 139.028 210.543 139.182 209.983 139.182C208.611 139.182 207.701 138.37 207.701 136.844V132.994H206.203V132.098H207.701V129.62H208.779V132.098H211.243V132.994H208.779V136.774C208.779 137.67 209.283 138.174 210.053 138.174C210.445 138.174 210.879 138.006 211.229 137.754ZM224.732 129.62L220.644 139H219.58L215.492 129.62H216.696L220.112 137.488L223.528 129.62H224.732ZM228.614 130.614V137.992H230.784V139H225.338V137.992H227.508V130.614H225.338V129.62H230.784V130.614H228.614ZM232.373 129.62H236.461C238.463 129.62 239.723 130.81 239.723 132.532C239.723 134.254 238.463 135.444 236.461 135.444H233.479V139H232.373V129.62ZM233.479 134.45H236.461C237.805 134.45 238.631 133.652 238.631 132.532C238.631 131.412 237.805 130.614 236.461 130.614H233.479V134.45ZM240.772 137.628C241.192 137.628 241.5 137.964 241.5 138.342C241.5 138.734 241.192 139.042 240.772 139.042C240.352 139.042 240.044 138.734 240.044 138.342C240.044 137.964 240.352 137.628 240.772 137.628Z" fill="#1A1816"/>
<g clip-path="url(#clip1_289_15549)">
<rect width="358" height="80" transform="translate(0 144)" fill="white"/>
<mask id="path-10-inside-1_289_15549" fill="white">
<path d="M16 184C16 170.745 26.7452 160 40 160H129C142.255 160 153 170.745 153 184V184C153 197.255 142.255 208 129 208H40C26.7452 208 16 197.255 16 184V184Z"/>
</mask>
<path d="M16 184C16 170.745 26.7452 160 40 160H129C142.255 160 153 170.745 153 184V184C153 197.255 142.255 208 129 208H40C26.7452 208 16 197.255 16 184V184Z" fill="white"/>
<path d="M16 184M153 184M153 184M16 184M40 160V161H129V160V159H40V160ZM153 184M129 208V207H40V208V209H129V208ZM16 184M40 208V207C27.2974 207 17 196.703 17 184H16H15C15 197.807 26.1929 209 40 209V208ZM153 184H152C152 196.703 141.703 207 129 207V208V209C142.807 209 154 197.807 154 184H153ZM129 160V161C141.703 161 152 171.297 152 184H153H154C154 170.193 142.807 159 129 159V160ZM40 160V159C26.1929 159 15 170.193 15 184H16H17C17 171.297 27.2975 161 40 161V160Z" fill="#1A1816" mask="url(#path-10-inside-1_289_15549)"/>
<path d="M44.98 178.28V189H43.268V184.392H37.476V189H35.764V178.28H37.476V182.824H43.268V178.28H44.98ZM51.098 180.888C53.434 180.888 55.338 182.568 55.338 185.032C55.338 187.496 53.434 189.192 51.098 189.192C48.746 189.192 46.826 187.496 46.826 185.032C46.826 182.568 48.746 180.888 51.098 180.888ZM51.098 187.752C52.458 187.752 53.722 186.68 53.722 185.032C53.722 183.384 52.458 182.312 51.098 182.312C49.706 182.312 48.458 183.384 48.458 185.032C48.458 186.68 49.706 187.752 51.098 187.752ZM68.099 181.064L65.443 189.032H63.923L62.099 183.688L60.275 189.032H58.755L56.099 181.064H57.763L59.571 186.584L61.443 181.064H62.755L64.627 186.584L66.435 181.064H68.099ZM74.5053 177.64C75.1133 177.64 75.5613 178.12 75.5613 178.68C75.5613 179.272 75.1133 179.704 74.5053 179.704C73.8813 179.704 73.4333 179.272 73.4333 178.68C73.4333 178.12 73.8813 177.64 74.5053 177.64ZM75.3373 189H73.6733V181.064H75.3373V189ZM82.7508 187.224L83.2628 188.616C82.5108 189.064 81.9668 189.224 81.2948 189.224C79.5828 189.224 78.4308 188.264 78.4308 186.296V182.44H76.7188V181.064H78.4308V178.28H80.0948V181.064H82.8148V182.44H80.0948V186.184C80.0948 187.176 80.6228 187.656 81.4068 187.656C81.8228 187.656 82.3348 187.496 82.7508 187.224ZM99.5209 181.064L96.8649 189.032H95.3449L93.5209 183.688L91.6969 189.032H90.1769L87.5209 181.064H89.1849L90.9929 186.584L92.8649 181.064H94.1769L96.0489 186.584L97.8569 181.064H99.5209ZM104.536 180.888C106.872 180.888 108.776 182.568 108.776 185.032C108.776 187.496 106.872 189.192 104.536 189.192C102.184 189.192 100.264 187.496 100.264 185.032C100.264 182.568 102.184 180.888 104.536 180.888ZM104.536 187.752C105.896 187.752 107.16 186.68 107.16 185.032C107.16 183.384 105.896 182.312 104.536 182.312C103.144 182.312 101.896 183.384 101.896 185.032C101.896 186.68 103.144 187.752 104.536 187.752ZM115.327 180.968C115.519 180.968 115.679 180.968 115.887 181.032L115.775 182.632C115.647 182.616 115.455 182.616 115.311 182.616C113.295 182.616 112.303 184.024 112.303 186.2V189H110.639V181.064H112.303V182.76C112.943 181.704 113.951 180.968 115.327 180.968ZM125.742 189H123.646L120.638 185.624L119.022 187.368V189H117.358V176.68H119.022V185.128L122.91 181.064H124.862L121.742 184.44L125.742 189ZM126.186 186.872L127.85 186.52C127.962 187.464 128.794 187.864 129.834 187.864C130.794 187.864 131.402 187.432 131.402 186.808C131.402 186.328 131.066 186.024 130.33 185.864L128.602 185.512C127.226 185.208 126.442 184.472 126.442 183.352C126.442 181.88 127.674 180.84 129.578 180.84C131.402 180.84 132.634 181.8 132.922 183.128L131.338 183.464C131.21 182.696 130.554 182.168 129.53 182.168C128.554 182.168 128.122 182.648 128.122 183.208C128.122 183.656 128.378 183.944 129.082 184.104L130.97 184.52C132.25 184.792 133.034 185.544 133.034 186.664C133.034 188.328 131.674 189.224 129.69 189.224C127.914 189.224 126.394 188.472 126.186 186.872Z" fill="#1A1816"/>
<path d="M165 184C165 170.745 175.745 160 189 160H318C331.255 160 342 170.745 342 184V184C342 197.255 331.255 208 318 208H189C175.745 208 165 197.255 165 184V184Z" fill="#1A1816"/>
<path d="M188.984 179.832V183.016H194.52V184.568H188.984V189H187.272V178.28H195.112V179.832H188.984ZM197.716 177.64C198.324 177.64 198.772 178.12 198.772 178.68C198.772 179.272 198.324 179.704 197.716 179.704C197.092 179.704 196.644 179.272 196.644 178.68C196.644 178.12 197.092 177.64 197.716 177.64ZM198.548 189H196.884V181.064H198.548V189ZM205.61 180.84C207.514 180.84 208.794 182.216 208.794 184.2V189H207.114V184.536C207.114 183.24 206.362 182.376 205.226 182.376C203.802 182.376 202.858 183.336 202.858 185.336V189H201.194V181.064H202.858V182.04C203.498 181.272 204.426 180.84 205.61 180.84ZM212.076 177.64C212.684 177.64 213.132 178.12 213.132 178.68C213.132 179.272 212.684 179.704 212.076 179.704C211.452 179.704 211.004 179.272 211.004 178.68C211.004 178.12 211.452 177.64 212.076 177.64ZM212.908 189H211.244V181.064H212.908V189ZM214.881 186.872L216.545 186.52C216.657 187.464 217.489 187.864 218.529 187.864C219.489 187.864 220.097 187.432 220.097 186.808C220.097 186.328 219.761 186.024 219.025 185.864L217.297 185.512C215.921 185.208 215.137 184.472 215.137 183.352C215.137 181.88 216.369 180.84 218.273 180.84C220.097 180.84 221.329 181.8 221.617 183.128L220.033 183.464C219.905 182.696 219.249 182.168 218.225 182.168C217.249 182.168 216.817 182.648 216.817 183.208C216.817 183.656 217.073 183.944 217.777 184.104L219.665 184.52C220.945 184.792 221.729 185.544 221.729 186.664C221.729 188.328 220.369 189.224 218.385 189.224C216.609 189.224 215.089 188.472 214.881 186.872ZM228.032 180.84C229.936 180.84 231.216 182.216 231.216 184.2V189H229.536V184.536C229.536 183.24 228.784 182.376 227.648 182.376C226.224 182.376 225.28 183.336 225.28 185.336V189H223.616V176.68H225.28V182.04C225.92 181.272 226.848 180.84 228.032 180.84ZM244.898 184.856V185.432H238.466C238.626 186.904 239.698 187.784 240.866 187.784C241.746 187.784 242.642 187.528 243.202 186.408L244.69 186.728C244.034 188.392 242.626 189.224 240.866 189.224C238.706 189.224 236.818 187.56 236.818 185.048C236.818 182.52 238.69 180.84 240.93 180.84C243.058 180.84 244.818 182.472 244.898 184.856ZM240.93 182.312C239.89 182.312 238.77 182.968 238.514 184.248H243.186C242.93 182.952 242.018 182.312 240.93 182.312ZM251.157 180.84C253.061 180.84 254.341 182.216 254.341 184.2V189H252.661V184.536C252.661 183.24 251.909 182.376 250.773 182.376C249.349 182.376 248.405 183.336 248.405 185.336V189H246.741V181.064H248.405V182.04C249.045 181.272 249.973 180.84 251.157 180.84ZM261.35 180.968C261.542 180.968 261.702 180.968 261.91 181.032L261.798 182.632C261.67 182.616 261.478 182.616 261.334 182.616C259.318 182.616 258.326 184.024 258.326 186.2V189H256.662V181.064H258.326V182.76C258.966 181.704 259.974 180.968 261.35 180.968ZM266.825 180.888C269.161 180.888 271.065 182.568 271.065 185.032C271.065 187.496 269.161 189.192 266.825 189.192C264.473 189.192 262.553 187.496 262.553 185.032C262.553 182.568 264.473 180.888 266.825 180.888ZM266.825 187.752C268.185 187.752 269.449 186.68 269.449 185.032C269.449 183.384 268.185 182.312 266.825 182.312C265.433 182.312 264.185 183.384 264.185 185.032C264.185 186.68 265.433 187.752 266.825 187.752ZM274.592 189H272.928V176.68H274.592V189ZM278.78 189H277.116V176.68H278.78V189ZM291.111 180.84C292.759 180.84 294.119 182.072 294.119 183.944V189H292.471V184.28C292.471 183.112 291.703 182.376 290.679 182.376C289.383 182.376 288.535 183.288 288.535 185.064V189H286.871V184.28C286.871 183.112 286.103 182.376 285.079 182.376C283.799 182.376 282.967 183.288 282.967 185.064V189H281.303V181.064H282.967V181.96C283.543 181.256 284.375 180.84 285.511 180.84C286.647 180.84 287.639 181.368 288.151 182.296C288.791 181.4 289.799 180.84 291.111 180.84ZM303.867 184.856V185.432H297.435C297.595 186.904 298.667 187.784 299.835 187.784C300.715 187.784 301.611 187.528 302.171 186.408L303.659 186.728C303.003 188.392 301.595 189.224 299.835 189.224C297.675 189.224 295.787 187.56 295.787 185.048C295.787 182.52 297.659 180.84 299.899 180.84C302.027 180.84 303.787 182.472 303.867 184.856ZM299.899 182.312C298.859 182.312 297.739 182.968 297.483 184.248H302.155C301.899 182.952 300.987 182.312 299.899 182.312ZM310.125 180.84C312.029 180.84 313.309 182.216 313.309 184.2V189H311.629V184.536C311.629 183.24 310.877 182.376 309.741 182.376C308.317 182.376 307.373 183.336 307.373 185.336V189H305.709V181.064H307.373V182.04C308.013 181.272 308.941 180.84 310.125 180.84ZM320.399 187.224L320.911 188.616C320.159 189.064 319.615 189.224 318.943 189.224C317.231 189.224 316.079 188.264 316.079 186.296V182.44H314.367V181.064H316.079V178.28H317.743V181.064H320.463V182.44H317.743V186.184C317.743 187.176 318.271 187.656 319.055 187.656C319.471 187.656 319.983 187.496 320.399 187.224Z" fill="white"/>
</g>
</g>
<path d="M16 0.5H342C350.56 0.500003 357.5 7.43959 357.5 16V208C357.5 216.56 350.56 223.5 342 223.5H16C7.43959 223.5 0.5 216.56 0.5 208V16C0.500003 7.43959 7.43959 0.5 16 0.5Z" stroke="#D3CFCA"/>
<defs>
<clipPath id="clip0_289_15549">
<path d="M0 16C0 7.16345 7.16344 0 16 0H342C350.837 0 358 7.16344 358 16V208C358 216.837 350.837 224 342 224H16C7.16345 224 0 216.837 0 208V16Z" fill="white"/>
</clipPath>
<clipPath id="clip1_289_15549">
<path d="M0 144H358V212C358 218.627 352.627 224 346 224H12C5.37259 224 0 218.627 0 212V144Z" fill="white"/>
</clipPath>
</defs>
</svg>
