<svg width="587" height="900" viewBox="0 0 587 900" fill="none" xmlns="http://www.w3.org/2000/svg">
<g clip-path="url(#clip0_355_19957)">
<path d="M184.711 28C184.711 19.1634 191.874 12 200.711 12H558.711C567.547 12 574.711 19.1634 574.711 28V872C574.711 880.837 567.547 888 558.711 888H200.711C191.874 888 184.711 880.837 184.711 872V28Z" fill="white"/>
<rect width="390" height="24" transform="translate(184.77 832)" fill="white"/>
<rect x="325.77" y="842" width="108" height="4" rx="2" fill="#202124"/>
<rect width="390" height="116" transform="translate(184.77 150)" fill="white"/>
<path d="M202.002 171.62H205.11C208.4 171.62 210.304 173.65 210.304 176.31C210.304 178.956 208.4 181 205.11 181H202.002V171.62ZM203.108 179.992H205.096C207.728 179.992 209.184 178.382 209.184 176.31C209.184 174.224 207.728 172.614 205.096 172.614H203.108V179.992ZM215.348 173.944C217.378 173.944 219.002 175.428 219.002 177.542C219.002 179.656 217.378 181.168 215.348 181.168C213.29 181.168 211.68 179.656 211.68 177.542C211.68 175.428 213.29 173.944 215.348 173.944ZM215.348 180.23C216.762 180.23 217.952 179.138 217.952 177.542C217.952 175.96 216.762 174.882 215.348 174.882C213.92 174.882 212.716 175.96 212.716 177.542C212.716 179.138 213.92 180.23 215.348 180.23ZM228.023 173.93C229.689 173.93 230.795 175.12 230.795 176.87V181H229.731V177.066C229.731 175.778 228.961 174.91 227.813 174.91C226.371 174.91 225.419 175.89 225.419 177.682V181H224.355V174.098H225.419V175.246C225.979 174.406 226.861 173.93 228.023 173.93ZM236.129 173.944C238.159 173.944 239.783 175.428 239.783 177.542C239.783 179.656 238.159 181.168 236.129 181.168C234.071 181.168 232.461 179.656 232.461 177.542C232.461 175.428 234.071 173.944 236.129 173.944ZM236.129 180.23C237.543 180.23 238.733 179.138 238.733 177.542C238.733 175.96 237.543 174.882 236.129 174.882C234.701 174.882 233.497 175.96 233.497 177.542C233.497 179.138 234.701 180.23 236.129 180.23ZM245.403 179.754L245.753 180.636C245.193 181.028 244.717 181.182 244.157 181.182C242.785 181.182 241.875 180.37 241.875 178.844V174.994H240.377V174.098H241.875V171.62H242.953V174.098H245.417V174.994H242.953V178.774C242.953 179.67 243.457 180.174 244.227 180.174C244.619 180.174 245.053 180.006 245.403 179.754ZM250.058 179.138L251.122 178.9C251.22 179.81 252.06 180.3 253.152 180.3C254.146 180.3 254.804 179.838 254.804 179.124C254.804 178.55 254.37 178.284 253.67 178.13L252.088 177.78C250.94 177.542 250.296 176.968 250.296 176.016C250.296 174.77 251.332 173.93 252.914 173.93C254.468 173.93 255.476 174.728 255.728 175.848L254.706 176.072C254.566 175.316 253.908 174.798 252.886 174.798C251.906 174.798 251.36 175.274 251.36 175.932C251.36 176.478 251.738 176.73 252.41 176.884L254.076 177.248C255.084 177.472 255.854 178.004 255.854 179.054C255.854 180.412 254.72 181.182 253.068 181.182C251.486 181.182 250.226 180.482 250.058 179.138ZM264.056 177.374V177.766H258.134C258.232 179.32 259.408 180.244 260.598 180.244C261.578 180.244 262.46 179.866 262.95 178.76L263.902 178.984C263.356 180.426 262.152 181.182 260.598 181.182C258.764 181.182 257.098 179.768 257.098 177.57C257.098 175.358 258.764 173.93 260.668 173.93C262.53 173.93 263.986 175.316 264.056 177.374ZM260.668 174.868C259.548 174.868 258.386 175.61 258.176 176.968H262.978C262.782 175.61 261.816 174.868 260.668 174.868ZM269.558 173.93C271.224 173.93 272.33 175.12 272.33 176.87V181H271.266V177.066C271.266 175.778 270.496 174.91 269.348 174.91C267.906 174.91 266.954 175.89 266.954 177.682V181H265.89V174.098H266.954V175.246C267.514 174.406 268.396 173.93 269.558 173.93ZM281.249 170.22V181H280.185V179.852C279.583 180.692 278.617 181.182 277.441 181.182C275.607 181.182 273.997 179.74 273.997 177.556C273.997 175.372 275.607 173.93 277.441 173.93C278.617 173.93 279.583 174.42 280.185 175.26V170.22H281.249ZM277.609 180.23C278.911 180.23 280.185 179.194 280.185 177.556C280.185 175.904 278.911 174.868 277.609 174.868C276.181 174.868 275.033 175.904 275.033 177.556C275.033 179.194 276.181 180.23 277.609 180.23ZM295.618 173.93C297.074 173.93 298.194 174.966 298.194 176.534V181H297.13V176.716C297.13 175.624 296.388 174.91 295.352 174.91C294.078 174.91 293.238 175.848 293.238 177.472V181H292.174V176.716C292.174 175.624 291.432 174.91 290.41 174.91C289.136 174.91 288.31 175.848 288.31 177.472V181H287.246V174.098H288.31V175.148C288.8 174.392 289.584 173.93 290.662 173.93C291.726 173.93 292.608 174.448 293.014 175.33C293.546 174.476 294.442 173.93 295.618 173.93ZM306.822 177.374V177.766H300.9C300.998 179.32 302.174 180.244 303.364 180.244C304.344 180.244 305.226 179.866 305.716 178.76L306.668 178.984C306.122 180.426 304.918 181.182 303.364 181.182C301.53 181.182 299.864 179.768 299.864 177.57C299.864 175.358 301.53 173.93 303.434 173.93C305.296 173.93 306.752 175.316 306.822 177.374ZM303.434 174.868C302.314 174.868 301.152 175.61 300.942 176.968H305.744C305.548 175.61 304.582 174.868 303.434 174.868ZM313.107 170.22V179.236C313.107 179.796 313.499 180.16 314.087 180.16C314.353 180.16 314.647 180.076 314.913 179.936L315.137 180.832C314.801 181.028 314.451 181.182 313.919 181.182C312.785 181.182 312.043 180.426 312.043 179.292V170.22H313.107ZM317.189 171.298C317.609 171.298 317.931 171.634 317.931 172.012C317.931 172.418 317.609 172.726 317.189 172.726C316.769 172.726 316.461 172.418 316.461 172.012C316.461 171.634 316.769 171.298 317.189 171.298ZM317.735 181H316.657V174.098H317.735V181ZM326.59 174.098L323.538 181H322.376L319.324 174.098H320.486L322.964 179.74L325.428 174.098H326.59ZM334.179 177.374V177.766H328.257C328.355 179.32 329.531 180.244 330.721 180.244C331.701 180.244 332.583 179.866 333.073 178.76L334.025 178.984C333.479 180.426 332.275 181.182 330.721 181.182C328.887 181.182 327.221 179.768 327.221 177.57C327.221 175.358 328.887 173.93 330.791 173.93C332.653 173.93 334.109 175.316 334.179 177.374ZM330.791 174.868C329.671 174.868 328.509 175.61 328.299 176.968H333.101C332.905 175.61 331.939 174.868 330.791 174.868ZM340.417 177.892H335.895V176.954H340.417V177.892ZM346.288 179.754L346.638 180.636C346.078 181.028 345.602 181.182 345.042 181.182C343.67 181.182 342.76 180.37 342.76 178.844V174.994H341.262V174.098H342.76V171.62H343.838V174.098H346.302V174.994H343.838V178.774C343.838 179.67 344.342 180.174 345.112 180.174C345.504 180.174 345.938 180.006 346.288 179.754ZM351.853 174.028C352.021 174.028 352.147 174.028 352.343 174.084L352.259 175.106C352.133 175.092 351.979 175.092 351.853 175.092C350.019 175.092 349.081 176.478 349.081 178.34V181H348.003V174.098H349.081V175.792C349.641 174.77 350.579 174.028 351.853 174.028ZM356.241 173.93C357.963 173.93 359.097 174.854 359.097 176.52V181H358.061V179.95C357.529 180.664 356.661 181.182 355.471 181.182C353.959 181.182 352.965 180.314 352.965 179.068C352.965 177.808 353.931 176.912 355.737 176.912H358.061V176.59C358.061 175.512 357.361 174.868 356.297 174.868C355.247 174.868 354.519 175.386 354.365 176.254L353.343 176.03C353.567 174.784 354.729 173.93 356.241 173.93ZM355.625 180.3C356.969 180.3 358.061 179.362 358.061 178.116V177.752H355.723C354.589 177.752 353.987 178.298 353.987 179.054C353.987 179.782 354.631 180.3 355.625 180.3ZM364.892 173.93C366.558 173.93 367.664 175.12 367.664 176.87V181H366.6V177.066C366.6 175.778 365.83 174.91 364.682 174.91C363.24 174.91 362.288 175.89 362.288 177.682V181H361.224V174.098H362.288V175.246C362.848 174.406 363.73 173.93 364.892 173.93ZM369.373 179.138L370.437 178.9C370.535 179.81 371.375 180.3 372.467 180.3C373.461 180.3 374.119 179.838 374.119 179.124C374.119 178.55 373.685 178.284 372.985 178.13L371.403 177.78C370.255 177.542 369.611 176.968 369.611 176.016C369.611 174.77 370.647 173.93 372.229 173.93C373.783 173.93 374.791 174.728 375.043 175.848L374.021 176.072C373.881 175.316 373.223 174.798 372.201 174.798C371.221 174.798 370.675 175.274 370.675 175.932C370.675 176.478 371.053 176.73 371.725 176.884L373.391 177.248C374.399 177.472 375.169 178.004 375.169 179.054C375.169 180.412 374.035 181.182 372.383 181.182C370.801 181.182 369.541 180.482 369.373 179.138ZM380.796 174.994H378.29V181H377.226V174.994H376.022V174.098H377.226V172.474C377.226 171.004 378.15 170.08 379.592 170.08C379.998 170.08 380.376 170.164 380.712 170.318L380.446 171.2C380.194 171.088 379.914 171.032 379.662 171.032C378.822 171.032 378.29 171.592 378.29 172.474V174.098H380.796V174.994ZM388.224 177.374V177.766H382.302C382.4 179.32 383.576 180.244 384.766 180.244C385.746 180.244 386.628 179.866 387.118 178.76L388.07 178.984C387.524 180.426 386.32 181.182 384.766 181.182C382.932 181.182 381.266 179.768 381.266 177.57C381.266 175.358 382.932 173.93 384.836 173.93C386.698 173.93 388.154 175.316 388.224 177.374ZM384.836 174.868C383.716 174.868 382.554 175.61 382.344 176.968H387.146C386.95 175.61 385.984 174.868 384.836 174.868ZM393.908 174.028C394.076 174.028 394.202 174.028 394.398 174.084L394.314 175.106C394.188 175.092 394.034 175.092 393.908 175.092C392.074 175.092 391.136 176.478 391.136 178.34V181H390.058V174.098H391.136V175.792C391.696 174.77 392.634 174.028 393.908 174.028ZM400.279 170.22V179.236C400.279 179.796 400.671 180.16 401.259 180.16C401.525 180.16 401.819 180.076 402.085 179.936L402.309 180.832C401.973 181.028 401.623 181.182 401.091 181.182C399.957 181.182 399.215 180.426 399.215 179.292V170.22H400.279ZM409.935 177.374V177.766H404.013C404.111 179.32 405.287 180.244 406.477 180.244C407.457 180.244 408.339 179.866 408.829 178.76L409.781 178.984C409.235 180.426 408.031 181.182 406.477 181.182C404.643 181.182 402.977 179.768 402.977 177.57C402.977 175.358 404.643 173.93 406.547 173.93C408.409 173.93 409.865 175.316 409.935 177.374ZM406.547 174.868C405.427 174.868 404.265 175.61 404.055 176.968H408.857C408.661 175.61 407.695 174.868 406.547 174.868ZM414.415 173.93C416.137 173.93 417.271 174.854 417.271 176.52V181H416.235V179.95C415.703 180.664 414.835 181.182 413.645 181.182C412.133 181.182 411.139 180.314 411.139 179.068C411.139 177.808 412.105 176.912 413.911 176.912H416.235V176.59C416.235 175.512 415.535 174.868 414.471 174.868C413.421 174.868 412.693 175.386 412.539 176.254L411.517 176.03C411.741 174.784 412.903 173.93 414.415 173.93ZM413.799 180.3C415.143 180.3 416.235 179.362 416.235 178.116V177.752H413.897C412.763 177.752 412.161 178.298 412.161 179.054C412.161 179.782 412.805 180.3 413.799 180.3ZM426.02 170.22V181H424.956V179.852C424.354 180.692 423.388 181.182 422.212 181.182C420.378 181.182 418.768 179.74 418.768 177.556C418.768 175.372 420.378 173.93 422.212 173.93C423.388 173.93 424.354 174.42 424.956 175.26V170.22H426.02ZM422.38 180.23C423.682 180.23 424.956 179.194 424.956 177.556C424.956 175.904 423.682 174.868 422.38 174.868C420.952 174.868 419.804 175.904 419.804 177.556C419.804 179.194 420.952 180.23 422.38 180.23ZM427.902 179.138L428.966 178.9C429.064 179.81 429.904 180.3 430.996 180.3C431.99 180.3 432.648 179.838 432.648 179.124C432.648 178.55 432.214 178.284 431.514 178.13L429.932 177.78C428.784 177.542 428.14 176.968 428.14 176.016C428.14 174.77 429.176 173.93 430.758 173.93C432.312 173.93 433.32 174.728 433.572 175.848L432.55 176.072C432.41 175.316 431.752 174.798 430.73 174.798C429.75 174.798 429.204 175.274 429.204 175.932C429.204 176.478 429.582 176.73 430.254 176.884L431.92 177.248C432.928 177.472 433.698 178.004 433.698 179.054C433.698 180.412 432.564 181.182 430.912 181.182C429.33 181.182 428.07 180.482 427.902 179.138ZM442.907 173.93C444.741 173.93 446.351 175.372 446.351 177.556C446.351 179.74 444.741 181.182 442.907 181.182C441.731 181.182 440.765 180.692 440.163 179.852V181H439.099V170.22H440.163V175.26C440.765 174.42 441.731 173.93 442.907 173.93ZM442.739 180.23C444.167 180.23 445.315 179.194 445.315 177.556C445.315 175.904 444.167 174.868 442.739 174.868C441.437 174.868 440.163 175.904 440.163 177.556C440.163 179.194 441.437 180.23 442.739 180.23ZM454.519 177.374V177.766H448.597C448.695 179.32 449.871 180.244 451.061 180.244C452.041 180.244 452.923 179.866 453.413 178.76L454.365 178.984C453.819 180.426 452.615 181.182 451.061 181.182C449.227 181.182 447.561 179.768 447.561 177.57C447.561 175.358 449.227 173.93 451.131 173.93C452.993 173.93 454.449 175.316 454.519 177.374ZM451.131 174.868C450.011 174.868 448.849 175.61 448.639 176.968H453.441C453.245 175.61 452.279 174.868 451.131 174.868ZM460.147 179.754L460.497 180.636C459.937 181.028 459.461 181.182 458.901 181.182C457.529 181.182 456.619 180.37 456.619 178.844V174.994H455.121V174.098H456.619V171.62H457.697V174.098H460.161V174.994H457.697V178.774C457.697 179.67 458.201 180.174 458.971 180.174C459.363 180.174 459.797 180.006 460.147 179.754ZM471.145 174.098L468.821 181.028H467.827L466.021 175.792L464.201 181.028H463.207L460.883 174.098H461.961L463.739 179.446L465.587 174.098H466.441L468.289 179.446L470.067 174.098H471.145ZM478.91 177.374V177.766H472.988C473.086 179.32 474.262 180.244 475.452 180.244C476.432 180.244 477.314 179.866 477.804 178.76L478.756 178.984C478.21 180.426 477.006 181.182 475.452 181.182C473.618 181.182 471.952 179.768 471.952 177.57C471.952 175.358 473.618 173.93 475.522 173.93C477.384 173.93 478.84 175.316 478.91 177.374ZM475.522 174.868C474.402 174.868 473.24 175.61 473.03 176.968H477.832C477.636 175.61 476.67 174.868 475.522 174.868ZM487.072 177.374V177.766H481.15C481.248 179.32 482.424 180.244 483.614 180.244C484.594 180.244 485.476 179.866 485.966 178.76L486.918 178.984C486.372 180.426 485.168 181.182 483.614 181.182C481.78 181.182 480.114 179.768 480.114 177.57C480.114 175.358 481.78 173.93 483.684 173.93C485.546 173.93 487.002 175.316 487.072 177.374ZM483.684 174.868C482.564 174.868 481.402 175.61 481.192 176.968H485.994C485.798 175.61 484.832 174.868 483.684 174.868ZM492.574 173.93C494.24 173.93 495.346 175.12 495.346 176.87V181H494.282V177.066C494.282 175.778 493.512 174.91 492.364 174.91C490.922 174.91 489.97 175.89 489.97 177.682V181H488.906V174.098H489.97V175.246C490.53 174.406 491.412 173.93 492.574 173.93ZM497.838 179.628C498.258 179.628 498.566 179.964 498.566 180.342C498.566 180.734 498.258 181.042 497.838 181.042C497.418 181.042 497.11 180.734 497.11 180.342C497.11 179.964 497.418 179.628 497.838 179.628ZM500.696 179.628C501.116 179.628 501.424 179.964 501.424 180.342C501.424 180.734 501.116 181.042 500.696 181.042C500.276 181.042 499.968 180.734 499.968 180.342C499.968 179.964 500.276 179.628 500.696 179.628ZM503.553 179.628C503.973 179.628 504.281 179.964 504.281 180.342C504.281 180.734 503.973 181.042 503.553 181.042C503.133 181.042 502.825 180.734 502.825 180.342C502.825 179.964 503.133 179.628 503.553 179.628Z" fill="#726A60"/>
<path d="M208.77 202.5H351.27C355.412 202.5 358.77 205.858 358.77 210V242C358.77 246.142 355.412 249.5 351.27 249.5H208.77C204.627 249.5 201.27 246.142 201.27 242V210L201.279 209.614C201.48 205.651 204.757 202.5 208.77 202.5Z" fill="white"/>
<path d="M208.77 202.5H351.27C355.412 202.5 358.77 205.858 358.77 210V242C358.77 246.142 355.412 249.5 351.27 249.5H208.77C204.627 249.5 201.27 246.142 201.27 242V210L201.279 209.614C201.48 205.651 204.757 202.5 208.77 202.5Z" stroke="#726A60"/>
<path d="M221.41 220.072C224.082 220.072 225.634 222.024 225.634 225.352C225.634 227.32 225.25 228.936 224.178 230.04C223.474 230.76 222.498 231.208 221.346 231.208C219.682 231.208 218.37 230.36 217.954 228.84L219.17 228.616C219.458 229.624 220.29 230.088 221.394 230.088C222.226 230.088 222.898 229.736 223.362 229.24C224.274 228.232 224.482 226.792 224.434 225.496C223.874 226.536 222.642 227.208 221.314 227.208C219.058 227.208 217.65 225.704 217.65 223.672C217.65 221.608 219.154 220.072 221.41 220.072ZM221.442 226.152C222.978 226.152 224.018 225 224.018 223.656C224.018 222.216 222.85 221.208 221.442 221.208C219.954 221.208 218.914 222.296 218.914 223.688C218.914 225.096 219.97 226.152 221.442 226.152ZM228.152 223.608C228.632 223.608 228.984 223.992 228.984 224.424C228.984 224.872 228.632 225.224 228.152 225.224C227.672 225.224 227.32 224.872 227.32 224.424C227.32 223.992 227.672 223.608 228.152 223.608ZM228.152 229.432C228.632 229.432 228.984 229.816 228.984 230.248C228.984 230.696 228.632 231.048 228.152 231.048C227.672 231.048 227.32 230.696 227.32 230.248C227.32 229.816 227.672 229.432 228.152 229.432ZM239.365 228.424H237.701V231H236.469V228.424H230.501V227.208L236.101 220.28H237.701V227.384H239.365V228.424ZM236.469 227.384V221.608L231.877 227.384H236.469ZM243.839 220.28V231H242.607V221.8L239.743 223.4V222.232L243.055 220.28H243.839Z" fill="#1A1816"/>
<path d="M332.27 221C332.27 220.448 331.822 220 331.27 220C330.717 220 330.27 220.448 330.27 221V226C330.27 226.552 330.717 227 331.27 227H335.27C335.822 227 336.27 226.552 336.27 226C336.27 225.448 335.822 225 335.27 225H332.27V221Z" fill="#1A1816"/>
<path fill-rule="evenodd" clip-rule="evenodd" d="M331.27 216C325.747 216 321.27 220.477 321.27 226C321.27 231.523 325.747 236 331.27 236C336.792 236 341.27 231.523 341.27 226C341.27 220.477 336.792 216 331.27 216ZM323.27 226C323.27 221.582 326.851 218 331.27 218C335.688 218 339.27 221.582 339.27 226C339.27 230.418 335.688 234 331.27 234C326.851 234 323.27 230.418 323.27 226Z" fill="#1A1816"/>
<path d="M380.632 227.892H376.11V226.954H380.632V227.892Z" fill="#2B2B2B"/>
<path d="M408.27 202.5H550.77C554.912 202.5 558.27 205.858 558.27 210V242C558.27 246.142 554.912 249.5 550.77 249.5H408.27C404.127 249.5 400.77 246.142 400.77 242V210L400.779 209.614C400.98 205.651 404.257 202.5 408.27 202.5Z" fill="white"/>
<path d="M408.27 202.5H550.77C554.912 202.5 558.27 205.858 558.27 210V242C558.27 246.142 554.912 249.5 550.77 249.5H408.27C404.127 249.5 400.77 246.142 400.77 242V210L400.779 209.614C400.98 205.651 404.257 202.5 408.27 202.5Z" stroke="#726A60"/>
<path d="M422.51 225.512C424.126 225.928 424.83 227.064 424.83 228.168C424.83 229.976 423.262 231.208 420.91 231.208C418.542 231.208 416.958 229.976 416.958 228.168C416.958 227.032 417.694 225.928 419.278 225.512C417.886 225.08 417.262 224.056 417.262 222.904C417.262 221.208 418.702 220.072 420.91 220.072C423.102 220.072 424.542 221.208 424.542 222.904C424.542 224.04 423.918 225.08 422.51 225.512ZM418.494 223C418.494 224.136 419.454 224.888 420.894 224.888C422.35 224.888 423.31 224.104 423.31 222.984C423.31 221.832 422.27 221.112 420.894 221.112C419.518 221.112 418.494 221.832 418.494 223ZM420.894 230.12C422.35 230.12 423.454 229.352 423.454 228.104C423.454 226.92 422.446 226.088 420.894 226.088C419.374 226.088 418.35 226.904 418.35 228.12C418.35 229.368 419.406 230.12 420.894 230.12ZM427.152 223.608C427.632 223.608 427.984 223.992 427.984 224.424C427.984 224.872 427.632 225.224 427.152 225.224C426.672 225.224 426.32 224.872 426.32 224.424C426.32 223.992 426.672 223.608 427.152 223.608ZM427.152 229.432C427.632 229.432 427.984 229.816 427.984 230.248C427.984 230.696 427.632 231.048 427.152 231.048C426.672 231.048 426.32 230.696 426.32 230.248C426.32 229.816 426.672 229.432 427.152 229.432ZM433.957 220.072C436.613 220.072 438.389 222.328 438.389 225.64C438.389 228.968 436.613 231.208 433.957 231.208C431.301 231.208 429.509 228.968 429.509 225.64C429.509 222.328 431.301 220.072 433.957 220.072ZM433.957 230.024C435.861 230.024 437.109 228.248 437.109 225.64C437.109 223.016 435.861 221.24 433.957 221.24C432.037 221.24 430.789 223.016 430.789 225.64C430.789 228.248 432.037 230.024 433.957 230.024ZM444.598 220.072C447.254 220.072 449.03 222.328 449.03 225.64C449.03 228.968 447.254 231.208 444.598 231.208C441.942 231.208 440.15 228.968 440.15 225.64C440.15 222.328 441.942 220.072 444.598 220.072ZM444.598 230.024C446.502 230.024 447.75 228.248 447.75 225.64C447.75 223.016 446.502 221.24 444.598 221.24C442.678 221.24 441.43 223.016 441.43 225.64C441.43 228.248 442.678 230.024 444.598 230.024ZM454.342 222.92C456.31 222.92 457.606 223.976 457.606 225.88V231H456.422V229.8C455.814 230.616 454.822 231.208 453.462 231.208C451.734 231.208 450.598 230.216 450.598 228.792C450.598 227.352 451.702 226.328 453.766 226.328H456.422V225.96C456.422 224.728 455.622 223.992 454.406 223.992C453.206 223.992 452.374 224.584 452.198 225.576L451.03 225.32C451.286 223.896 452.614 222.92 454.342 222.92ZM453.638 230.2C455.174 230.2 456.422 229.128 456.422 227.704V227.288H453.75C452.454 227.288 451.766 227.912 451.766 228.776C451.766 229.608 452.502 230.2 453.638 230.2ZM469.605 222.92C471.269 222.92 472.549 224.104 472.549 225.896V231H471.333V226.104C471.333 224.856 470.485 224.04 469.301 224.04C467.845 224.04 466.885 225.112 466.885 226.968V231H465.669V226.104C465.669 224.856 464.821 224.04 463.653 224.04C462.197 224.04 461.253 225.112 461.253 226.968V231H460.037V223.112H461.253V224.312C461.813 223.448 462.709 222.92 463.941 222.92C465.157 222.92 466.165 223.512 466.629 224.52C467.237 223.544 468.261 222.92 469.605 222.92Z" fill="#1A1816"/>
<path d="M531.77 221C531.77 220.448 531.322 220 530.77 220C530.217 220 529.77 220.448 529.77 221V226C529.77 226.552 530.217 227 530.77 227H534.77C535.322 227 535.77 226.552 535.77 226C535.77 225.448 535.322 225 534.77 225H531.77V221Z" fill="#1A1816"/>
<path fill-rule="evenodd" clip-rule="evenodd" d="M530.77 216C525.247 216 520.77 220.477 520.77 226C520.77 231.523 525.247 236 530.77 236C536.292 236 540.77 231.523 540.77 226C540.77 220.477 536.292 216 530.77 216ZM522.77 226C522.77 221.582 526.351 218 530.77 218C535.188 218 538.77 221.582 538.77 226C538.77 230.418 535.188 234 530.77 234C526.351 234 522.77 230.418 522.77 226Z" fill="#1A1816"/>
<rect width="390" height="131" transform="translate(184.77 12)" fill="white" style="mix-blend-mode:hard-light"/>
<path fill-rule="evenodd" clip-rule="evenodd" d="M574.77 12H184.77V94.9985C184.77 91.2772 184.77 89.4162 185.259 87.9102C186.248 84.8658 188.635 82.4784 191.68 81.4893C193.186 81 195.047 81 198.768 81H198.77H200.77C200.77 75.4772 205.247 71 210.77 71H548.77C554.292 71 558.77 75.4772 558.77 81H560.77H560.771C564.492 81 566.353 81 567.859 81.4893C570.904 82.4784 573.291 84.8658 574.28 87.9102C574.77 89.4162 574.77 91.2773 574.77 94.9986V12Z" fill="black"/>
<path d="M200.77 81C200.77 75.4772 205.247 71 210.77 71H548.77C554.292 71 558.77 75.4772 558.77 81H200.77Z" fill="black" fill-opacity="0.12"/>
<rect x="360.77" y="85" width="36" height="5" rx="2.5" fill="#3C3C43" fill-opacity="0.3"/>
<path d="M240.874 35.063C241.516 35.063 242.125 35.182 242.7 35.4199C243.276 35.6523 243.785 36.0176 244.228 36.5156C244.676 37.0081 245.027 37.6418 245.282 38.4165C245.536 39.1857 245.664 40.1126 245.664 41.1973V41.2139C245.664 42.5586 245.47 43.7096 245.083 44.667C244.695 45.6243 244.139 46.3604 243.414 46.875C242.695 47.3841 241.834 47.6387 240.833 47.6387C240.097 47.6387 239.432 47.5059 238.84 47.2402C238.254 46.9691 237.767 46.5983 237.379 46.1279C236.998 45.652 236.74 45.1097 236.607 44.501L236.591 44.4097H238.691L238.724 44.4927C238.829 44.7694 238.979 45.0129 239.172 45.2231C239.372 45.4334 239.61 45.5967 239.886 45.7129C240.168 45.8236 240.484 45.8789 240.833 45.8789C241.463 45.8789 241.978 45.6935 242.376 45.3228C242.78 44.9465 243.082 44.4456 243.281 43.8203C243.486 43.1895 243.602 42.4922 243.63 41.7285C243.635 41.6455 243.638 41.5653 243.638 41.4878C243.638 41.4048 243.638 41.3245 243.638 41.2471L243.265 39.2466C243.265 38.7928 243.16 38.3805 242.949 38.0098C242.739 37.639 242.454 37.3457 242.094 37.1299C241.74 36.9141 241.339 36.8062 240.891 36.8062C240.459 36.8062 240.063 36.9113 239.704 37.1216C239.344 37.3319 239.056 37.6196 238.84 37.9849C238.625 38.3446 238.517 38.7485 238.517 39.1968V39.2134C238.517 39.6782 238.619 40.0905 238.824 40.4502C239.028 40.8044 239.308 41.0838 239.662 41.2886C240.016 41.4933 240.42 41.5957 240.874 41.5957C241.328 41.5957 241.735 41.4961 242.094 41.2969C242.454 41.0977 242.739 40.821 242.949 40.4668C243.16 40.1126 243.265 39.7114 243.265 39.2632V39.2466H243.763V41.4546H243.472C243.328 41.77 243.115 42.0633 242.833 42.3345C242.551 42.6056 242.202 42.8242 241.787 42.9902C241.378 43.1562 240.896 43.2393 240.343 43.2393C239.579 43.2393 238.904 43.0677 238.317 42.7246C237.731 42.3815 237.269 41.9111 236.931 41.3135C236.599 40.7158 236.433 40.0407 236.433 39.2881V39.2715C236.433 38.458 236.621 37.7358 236.998 37.105C237.379 36.4686 237.905 35.9705 238.575 35.6108C239.25 35.2456 240.016 35.063 240.874 35.063ZM249.432 45.7295C249.056 45.7295 248.74 45.605 248.486 45.356C248.237 45.1014 248.112 44.7915 248.112 44.4263C248.112 44.0555 248.237 43.7456 248.486 43.4966C248.74 43.242 249.056 43.1147 249.432 43.1147C249.814 43.1147 250.129 43.242 250.378 43.4966C250.627 43.7456 250.752 44.0555 250.752 44.4263C250.752 44.7915 250.627 45.1014 250.378 45.356C250.129 45.605 249.814 45.7295 249.432 45.7295ZM249.432 39.5703C249.056 39.5703 248.74 39.4458 248.486 39.1968C248.237 38.9422 248.112 38.6323 248.112 38.2671C248.112 37.8963 248.237 37.5864 248.486 37.3374C248.74 37.0828 249.056 36.9556 249.432 36.9556C249.814 36.9556 250.129 37.0828 250.378 37.3374C250.627 37.5864 250.752 37.8963 250.752 38.2671C250.752 38.6323 250.627 38.9422 250.378 39.1968C250.129 39.4458 249.814 39.5703 249.432 39.5703ZM259.011 47.3398V45.0405H253.151V43.2891C253.466 42.7523 253.782 42.2127 254.097 41.6704C254.418 41.1281 254.742 40.5885 255.068 40.0518C255.4 39.5094 255.73 38.9754 256.056 38.4497C256.388 37.9185 256.717 37.3955 257.044 36.8809C257.376 36.3607 257.708 35.8543 258.04 35.3618H261.053V43.2725H262.672V45.0405H261.053V47.3398H259.011ZM255.143 43.3223H259.044V37.0718H258.92C258.676 37.4481 258.425 37.8354 258.165 38.2339C257.91 38.6323 257.653 39.0391 257.393 39.4541C257.132 39.8691 256.875 40.2869 256.621 40.7075C256.366 41.1226 256.114 41.5404 255.865 41.9609C255.616 42.376 255.375 42.7882 255.143 43.1978V43.3223ZM267.627 47.3398V37.4702H267.478L264.498 39.5703V37.5615L267.627 35.3618H269.761V47.3398H267.627Z" fill="white"/>
<rect opacity="0.35" x="515.359" y="35.5" width="24" height="12" rx="3.8" stroke="white"/>
<path opacity="0.4" d="M540.859 39.7812V43.8567C541.664 43.5116 542.187 42.7086 542.187 41.819C542.187 40.9294 541.664 40.1264 540.859 39.7812Z" fill="white"/>
<rect x="516.859" y="37" width="21" height="9" rx="2.5" fill="white"/>
<path fill-rule="evenodd" clip-rule="evenodd" d="M499.13 38.104C501.617 38.1041 504.009 39.0262 505.812 40.6796C505.947 40.8073 506.164 40.8057 506.298 40.676L507.595 39.4126C507.663 39.3468 507.701 39.2577 507.7 39.165C507.7 39.0724 507.661 38.9837 507.592 38.9187C502.861 34.544 495.398 34.544 490.667 38.9187C490.598 38.9837 490.559 39.0723 490.559 39.165C490.558 39.2577 490.596 39.3468 490.663 39.4126L491.961 40.676C492.095 40.8059 492.312 40.8075 492.448 40.6796C494.25 39.0261 496.643 38.104 499.13 38.104ZM499.127 42.3243C500.484 42.3242 501.793 42.8359 502.799 43.76C502.935 43.8912 503.149 43.8883 503.282 43.7536L504.569 42.4343C504.637 42.3651 504.675 42.2712 504.674 42.1737C504.673 42.0761 504.633 41.9831 504.564 41.9153C501.5 39.0244 496.755 39.0244 493.692 41.9153C493.622 41.9831 493.583 42.0762 493.582 42.1738C493.581 42.2714 493.619 42.3652 493.687 42.4343L494.974 43.7536C495.106 43.8883 495.321 43.8912 495.457 43.76C496.462 42.8365 497.77 42.3248 499.127 42.3243ZM501.651 45.1178C501.653 45.2232 501.616 45.3247 501.549 45.3985L499.372 47.8533C499.308 47.9254 499.221 47.966 499.13 47.966C499.04 47.966 498.953 47.9254 498.889 47.8533L496.712 45.3985C496.644 45.3247 496.607 45.2231 496.609 45.1177C496.611 45.0124 496.652 44.9126 496.722 44.842C498.112 43.5281 500.148 43.5281 501.538 44.842C501.608 44.9127 501.649 45.0125 501.651 45.1178Z" fill="white"/>
<path fill-rule="evenodd" clip-rule="evenodd" d="M483.059 36.6824C483.059 36.0493 482.582 35.5361 481.993 35.5361H480.926C480.337 35.5361 479.859 36.0493 479.859 36.6824V46.6163C479.859 47.2494 480.337 47.7625 480.926 47.7625H481.993C482.582 47.7625 483.059 47.2494 483.059 46.6163V36.6824ZM475.625 37.9814H476.692C477.281 37.9814 477.759 38.5069 477.759 39.1552V46.5888C477.759 47.237 477.281 47.7625 476.692 47.7625H475.625C475.036 47.7625 474.559 47.237 474.559 46.5888V39.1552C474.559 38.5069 475.036 37.9814 475.625 37.9814ZM471.293 40.6305H470.227C469.638 40.6305 469.16 41.1627 469.16 41.8191V46.5739C469.16 47.2303 469.638 47.7625 470.227 47.7625H471.293C471.883 47.7625 472.36 47.2303 472.36 46.5739V41.8191C472.36 41.1627 471.883 40.6305 471.293 40.6305ZM465.993 43.0758H464.926C464.337 43.0758 463.859 43.6003 463.859 44.2475V46.5909C463.859 47.238 464.337 47.7625 464.926 47.7625H465.993C466.582 47.7625 467.059 47.238 467.059 46.5909V44.2475C467.059 43.6003 466.582 43.0758 465.993 43.0758Z" fill="white"/>
<g clip-path="url(#clip1_355_19957)">
<path fill-rule="evenodd" clip-rule="evenodd" d="M216.477 108.293C216.867 108.683 216.867 109.317 216.477 109.707L211.184 115L216.477 120.293C216.867 120.683 216.867 121.317 216.477 121.707C216.086 122.098 215.453 122.098 215.062 121.707L209.062 115.707C208.672 115.317 208.672 114.683 209.062 114.293L215.062 108.293C215.453 107.902 216.086 107.902 216.477 108.293Z" fill="#1A1816"/>
</g>
<path d="M306.67 108.6H311.61C316.03 108.6 318.97 111.3 318.97 115.3C318.97 119.3 316.03 122 311.61 122H306.67V108.6ZM309.39 119.54H311.61C314.39 119.54 316.23 117.9 316.23 115.3C316.23 112.7 314.39 111.06 311.61 111.06H309.39V119.54ZM325.562 111.78C328.482 111.78 330.942 113.88 330.942 117.02C330.942 120.16 328.482 122.26 325.562 122.26C322.582 122.26 320.122 120.16 320.122 117.02C320.122 113.88 322.582 111.78 325.562 111.78ZM325.562 120C326.942 120 328.382 118.88 328.382 117.02C328.382 115.16 326.942 114.04 325.562 114.04C324.122 114.04 322.682 115.16 322.682 117.02C322.682 118.88 324.122 120 325.562 120ZM343.097 111.72C345.497 111.72 347.097 113.44 347.097 115.92V122H344.457V116.48C344.457 115.08 343.657 114.14 342.437 114.14C340.937 114.14 339.957 115.14 339.957 117.58V122H337.317V112.02H339.957V112.92C340.737 112.14 341.777 111.72 343.097 111.72ZM354.041 111.78C356.961 111.78 359.421 113.88 359.421 117.02C359.421 120.16 356.961 122.26 354.041 122.26C351.061 122.26 348.601 120.16 348.601 117.02C348.601 113.88 351.061 111.78 354.041 111.78ZM354.041 120C355.421 120 356.861 118.88 356.861 117.02C356.861 115.16 355.421 114.04 354.041 114.04C352.601 114.04 351.161 115.16 351.161 117.02C351.161 118.88 352.601 120 354.041 120ZM367.673 119.36L368.433 121.56C367.393 122.12 366.673 122.3 365.833 122.3C363.473 122.3 361.913 121.06 361.913 118.32V114.18H359.773V112.02H361.913V108.6H364.553V112.02H367.813V114.18H364.553V118.12C364.553 119.32 365.133 119.84 366.013 119.84C366.473 119.84 367.153 119.64 367.673 119.36ZM384.268 106.6V122H381.628V121.14C380.828 121.88 379.728 122.3 378.328 122.3C375.788 122.3 373.428 120.16 373.428 117.02C373.428 113.88 375.788 111.72 378.328 111.72C379.728 111.72 380.828 112.14 381.628 112.88V106.6H384.268ZM378.788 120C380.208 120 381.628 118.86 381.628 117.02C381.628 115.18 380.208 114.02 378.788 114.02C377.188 114.02 375.988 115.18 375.988 117.02C375.988 118.86 377.188 120 378.788 120ZM388.28 107.46C389.2 107.46 389.88 108.2 389.88 109.04C389.88 109.92 389.2 110.58 388.28 110.58C387.34 110.58 386.68 109.92 386.68 109.04C386.68 108.2 387.34 107.46 388.28 107.46ZM389.6 122H386.96V112.02H389.6V122ZM391.462 119.36L394.122 118.82C394.262 119.84 395.142 120.18 396.182 120.18C397.162 120.18 397.742 119.74 397.742 119.18C397.742 118.82 397.502 118.46 396.642 118.28L394.602 117.86C392.802 117.48 391.782 116.46 391.782 115.02C391.782 113.1 393.342 111.72 395.862 111.72C398.222 111.72 399.862 112.94 400.202 114.68L397.682 115.18C397.582 114.38 396.882 113.8 395.782 113.8C394.722 113.8 394.422 114.32 394.422 114.78C394.422 115.1 394.542 115.44 395.322 115.62L397.702 116.14C399.462 116.52 400.322 117.62 400.322 118.96C400.322 121.16 398.542 122.3 395.942 122.3C393.742 122.3 391.722 121.44 391.462 119.36ZM408.621 119.36L409.381 121.56C408.341 122.12 407.621 122.3 406.781 122.3C404.421 122.3 402.861 121.06 402.861 118.32V114.18H400.721V112.02H402.861V108.6H405.501V112.02H408.761V114.18H405.501V118.12C405.501 119.32 406.081 119.84 406.961 119.84C407.421 119.84 408.101 119.64 408.621 119.36ZM419.878 112.02V122H417.238V121.1C416.458 121.88 415.418 122.3 414.098 122.3C411.698 122.3 410.098 120.58 410.098 118.1V112.02H412.738V117.54C412.738 118.94 413.538 119.88 414.758 119.88C416.258 119.88 417.238 118.88 417.238 116.44V112.02H419.878ZM428.662 111.88C428.922 111.88 429.122 111.88 429.362 111.96L429.222 114.5H428.642C426.202 114.5 425.082 116 425.082 118.78V122H422.442V112.02H425.082V113.84C425.882 112.68 427.042 111.88 428.662 111.88ZM436.716 111.72C439.256 111.72 441.616 113.88 441.616 117.02C441.616 120.16 439.256 122.3 436.716 122.3C435.316 122.3 434.216 121.88 433.416 121.14V122H430.776V106.6H433.416V112.88C434.216 112.14 435.316 111.72 436.716 111.72ZM436.256 120C437.856 120 439.056 118.86 439.056 117.02C439.056 115.18 437.856 114.02 436.256 114.02C434.836 114.02 433.416 115.18 433.416 117.02C433.416 118.86 434.836 120 436.256 120Z" fill="#1A1816"/>
<g clip-path="url(#clip2_355_19957)">
<path d="M523.876 110.62H527.152C530.344 110.62 532.332 112.58 532.332 115.31C532.332 118.04 530.344 120 527.152 120H523.876V110.62ZM525.374 118.642H527.152C529.434 118.642 530.82 117.256 530.82 115.31C530.82 113.364 529.434 111.978 527.152 111.978H525.374V118.642ZM537.238 112.902C539.282 112.902 540.948 114.372 540.948 116.528C540.948 118.684 539.282 120.168 537.238 120.168C535.18 120.168 533.5 118.684 533.5 116.528C533.5 114.372 535.18 112.902 537.238 112.902ZM537.238 118.908C538.428 118.908 539.534 117.97 539.534 116.528C539.534 115.086 538.428 114.148 537.238 114.148C536.02 114.148 534.928 115.086 534.928 116.528C534.928 117.97 536.02 118.908 537.238 118.908ZM546.443 112.86C548.109 112.86 549.229 114.064 549.229 115.8V120H547.759V116.094C547.759 114.96 547.101 114.204 546.107 114.204C544.861 114.204 544.035 115.044 544.035 116.794V120H542.579V113.056H544.035V113.91C544.595 113.238 545.407 112.86 546.443 112.86ZM557.728 116.374V116.878H552.1C552.24 118.166 553.178 118.936 554.2 118.936C554.97 118.936 555.754 118.712 556.244 117.732L557.546 118.012C556.972 119.468 555.74 120.196 554.2 120.196C552.31 120.196 550.658 118.74 550.658 116.542C550.658 114.33 552.296 112.86 554.256 112.86C556.118 112.86 557.658 114.288 557.728 116.374ZM554.256 114.148C553.346 114.148 552.366 114.722 552.142 115.842H556.23C556.006 114.708 555.208 114.148 554.256 114.148Z" fill="#1A1816"/>
<path d="M522.77 121.4H558.232V122.1H522.77V121.4Z" fill="#1A1816"/>
</g>
<line x1="184.77" y1="142.5" x2="574.77" y2="142.5" stroke="#D3CFCA"/>
<foreignObject x="130.77" y="574" width="498" height="368"><div xmlns="http://www.w3.org/1999/xhtml" style="backdrop-filter:blur(27px);clip-path:url(#bgblur_3_355_19957_clip_path);height:100%;width:100%"></div></foreignObject><g data-figma-bg-blur-radius="54">
<path d="M184.77 644C184.77 635.163 191.933 628 200.77 628H558.77C567.606 628 574.77 635.163 574.77 644V888H184.77V644Z" fill="#C5C9D0" fill-opacity="0.9"/>
<g filter="url(#filter2_d_355_19957)">
<rect x="196.77" y="648" width="118" height="47" rx="5" fill="white" shape-rendering="crispEdges"/>
<path d="M250.227 673H252.336V656.09H250.238L245.738 659.324V661.551L250.039 658.434H250.227V673Z" fill="black"/>
</g>
<g filter="url(#filter3_d_355_19957)">
<rect x="320.77" y="648" width="118" height="47" rx="5" fill="white" shape-rendering="crispEdges"/>
<path d="M368.414 673H379.359V671.102H371.344V670.914L375.188 666.941C378.246 663.789 379.078 662.383 379.078 660.449V660.426C379.078 657.695 376.816 655.691 373.863 655.691C370.629 655.691 368.309 657.848 368.297 660.848L368.32 660.859L370.336 660.871L370.348 660.848C370.348 658.855 371.695 657.531 373.723 657.531C375.715 657.531 376.922 658.867 376.922 660.648V660.672C376.922 662.148 376.289 663.027 374.133 665.359L368.414 671.547V673Z" fill="black"/>
<path d="M360.508 689H362.388L362.822 687.452H365.122L365.557 689H367.437L365.068 681.954H362.876L360.508 689ZM363.926 683.507H364.019L364.761 686.163H363.184L363.926 683.507ZM371.079 689H374.463C375.972 689 376.924 688.204 376.924 686.974V686.964C376.924 686.07 376.211 685.353 375.288 685.304V685.211C376.035 685.108 376.602 684.469 376.602 683.717V683.707C376.602 682.618 375.771 681.954 374.365 681.954H371.079V689ZM373.887 683.219C374.497 683.219 374.854 683.521 374.854 684.02V684.029C374.854 684.522 374.473 684.825 373.818 684.825H372.871V683.219H373.887ZM373.945 685.914C374.688 685.914 375.103 686.231 375.103 686.808V686.817C375.103 687.408 374.697 687.735 373.955 687.735H372.871V685.914H373.945ZM383.745 689.19C385.552 689.19 386.802 688.092 386.919 686.52V686.441H385.195L385.186 686.495C385.063 687.223 384.521 687.706 383.75 687.706C382.764 687.706 382.163 686.861 382.163 685.475V685.465C382.163 684.088 382.764 683.248 383.745 683.248C384.517 683.248 385.083 683.766 385.186 684.503L385.19 684.547H386.914V684.459C386.812 682.901 385.518 681.764 383.745 681.764C381.631 681.764 380.337 683.175 380.337 685.47V685.479C380.337 687.774 381.636 689.19 383.745 689.19Z" fill="black"/>
</g>
<g filter="url(#filter4_d_355_19957)">
<rect x="444.77" y="648" width="118" height="47" rx="5" fill="white" shape-rendering="crispEdges"/>
<path d="M497.887 673.281C501.273 673.281 503.758 671.195 503.758 668.371V668.348C503.758 665.945 502.082 664.41 499.621 664.199V664.152C501.73 663.707 503.207 662.277 503.207 660.191V660.168C503.207 657.602 501.086 655.809 497.863 655.809C494.699 655.809 492.52 657.648 492.25 660.402L492.238 660.52H494.266L494.277 660.402C494.453 658.691 495.871 657.637 497.863 657.637C499.926 657.637 501.086 658.656 501.086 660.426V660.449C501.086 662.137 499.68 663.379 497.664 663.379H495.637V665.16H497.758C500.125 665.16 501.613 666.32 501.613 668.395V668.418C501.613 670.211 500.102 671.453 497.887 671.453C495.637 671.453 494.102 670.305 493.938 668.641L493.926 668.523H491.898L491.91 668.664C492.133 671.336 494.395 673.281 497.887 673.281Z" fill="black"/>
<path d="M486.109 689H489.068C491.188 689 492.364 687.721 492.364 685.411V685.401C492.364 683.204 491.168 681.954 489.068 681.954H486.109V689ZM487.901 687.56V683.395H488.746C489.874 683.395 490.538 684.127 490.538 685.436V685.445C490.538 686.837 489.908 687.56 488.746 687.56H487.901ZM496.158 689H500.987V687.56H497.95V686.119H500.807V684.801H497.95V683.395H500.987V681.954H496.158V689ZM504.977 689H506.769V686.373H509.493V685.001H506.769V683.395H509.771V681.954H504.977V689Z" fill="black"/>
</g>
<g filter="url(#filter5_d_355_19957)">
<rect x="196.77" y="703" width="118" height="47" rx="5" fill="white" shape-rendering="crispEdges"/>
<path d="M251.656 728H253.719V724.496H256.121V722.609H253.719V711.09H250.66C248.293 714.617 245.703 718.742 243.418 722.574V724.496H251.656V728ZM245.574 722.621V722.48C247.414 719.375 249.629 715.883 251.527 713.047H251.668V722.621H245.574Z" fill="black"/>
<path d="M241.688 744.19C243.681 744.19 244.887 743.004 244.887 741.065V740.157H241.869V741.388H243.158L243.153 741.505C243.104 742.228 242.543 742.706 241.728 742.706C240.702 742.706 240.038 741.847 240.038 740.455V740.445C240.038 739.078 240.639 738.248 241.64 738.248C242.348 738.248 242.89 738.619 243.041 739.21L243.051 739.254H244.818L244.813 739.205C244.633 737.77 243.358 736.764 241.64 736.764C239.525 736.764 238.217 738.18 238.217 740.465V740.475C238.217 742.789 239.521 744.19 241.688 744.19ZM248.686 744H250.478V741.158H253.285V744H255.072V736.954H253.285V739.718H250.478V736.954H248.686V744ZM259.193 744H260.985V736.954H259.193V744Z" fill="black"/>
</g>
<g filter="url(#filter6_d_355_19957)">
<rect x="320.77" y="703" width="118" height="47" rx="5" fill="white" shape-rendering="crispEdges"/>
<path d="M373.793 728.398C377.227 728.398 379.676 726.02 379.676 722.609V722.586C379.676 719.316 377.391 716.938 374.215 716.938C372.68 716.938 371.355 717.559 370.605 718.695H370.418L370.992 712.977H378.738V711.09H369.328L368.438 720.805H370.266C370.477 720.406 370.746 720.078 371.039 719.797C371.766 719.105 372.727 718.766 373.852 718.766C376.043 718.766 377.613 720.371 377.613 722.621V722.645C377.613 724.93 376.066 726.535 373.816 726.535C371.836 726.535 370.371 725.246 370.172 723.629L370.16 723.535H368.133L368.145 723.664C368.391 726.371 370.641 728.398 373.793 728.398Z" fill="black"/>
<path d="M364.331 744.19C365.977 744.19 366.919 743.287 366.919 741.725V736.954H365.127V741.71C365.127 742.34 364.849 742.672 364.307 742.672C363.794 742.672 363.481 742.325 363.472 741.773V741.754H361.748V741.783C361.768 743.268 362.754 744.19 364.331 744.19ZM371.045 744H372.837V742.008L373.457 741.222L375.234 744H377.339L374.761 740.064L377.197 736.954H375.273L372.93 739.981H372.837V736.954H371.045V744ZM380.869 744H385.654V742.56H382.661V736.954H380.869V744Z" fill="black"/>
</g>
<g filter="url(#filter7_d_355_19957)">
<rect x="444.77" y="703" width="118" height="47" rx="5" fill="white" shape-rendering="crispEdges"/>
<path d="M497.992 728.398C501.402 728.398 503.91 725.949 503.91 722.574V722.551C503.91 719.305 501.543 716.891 498.367 716.891C496.082 716.891 494.488 718.121 493.867 719.504H493.645C493.645 719.375 493.645 719.234 493.656 719.105C493.785 715.578 495.039 712.578 498.109 712.578C499.82 712.578 501.004 713.457 501.52 714.875L501.566 715.004H503.688L503.652 714.852C503.078 712.355 500.969 710.691 498.133 710.691C494.031 710.691 491.629 714.066 491.629 719.832V719.855C491.629 726.219 494.898 728.398 497.992 728.398ZM494.148 722.551V722.539C494.148 720.336 495.812 718.73 498.004 718.73C500.195 718.73 501.789 720.348 501.789 722.598V722.621C501.789 724.812 500.09 726.535 497.969 726.535C495.824 726.535 494.148 724.777 494.148 722.551Z" fill="black"/>
<path d="M483.634 744H485.211V739.513H485.309L486.91 744H487.931L489.532 739.513H489.635V744H491.207V736.954H489.171L487.472 741.734H487.379L485.675 736.954H483.634V744ZM495.333 744H497.032V739.996H497.12L500.069 744H501.49V736.954H499.791V740.919H499.703L496.764 736.954H495.333V744ZM508.761 744.19C510.88 744.19 512.232 742.77 512.232 740.479V740.47C512.232 738.185 510.875 736.764 508.761 736.764C506.642 736.764 505.284 738.185 505.284 740.47V740.479C505.284 742.77 506.632 744.19 508.761 744.19ZM508.761 742.706C507.76 742.706 507.105 741.837 507.105 740.479V740.47C507.105 739.117 507.77 738.248 508.761 738.248C509.747 738.248 510.406 739.117 510.406 740.47V740.479C510.406 741.837 509.747 742.706 508.761 742.706Z" fill="black"/>
</g>
<g filter="url(#filter8_d_355_19957)">
<rect x="196.77" y="758" width="118" height="47" rx="5" fill="white" shape-rendering="crispEdges"/>
<path d="M245.527 783H247.742L255.266 768.047V766.09H244.074V767.977H253.121V768.141L245.527 783Z" fill="black"/>
<path d="M232.406 799H234.198V796.935H235.438C237.016 796.935 238.031 795.968 238.031 794.459V794.449C238.031 792.94 237.016 791.954 235.438 791.954H232.406V799ZM235.009 793.326C235.771 793.326 236.22 793.717 236.22 794.449V794.459C236.22 795.191 235.771 795.587 235.009 795.587H234.198V793.326H235.009ZM244.955 799.19C245.399 799.19 245.814 799.127 246.186 799.005L246.679 799.645H248.251L247.289 798.385C248.012 797.74 248.427 796.744 248.427 795.479V795.47C248.427 793.185 247.069 791.764 244.955 791.764C242.836 791.764 241.479 793.185 241.479 795.47V795.479C241.479 797.77 242.826 799.19 244.955 799.19ZM244.955 797.706C243.954 797.706 243.3 796.837 243.3 795.479V795.47C243.3 794.117 243.964 793.248 244.955 793.248C245.941 793.248 246.601 794.117 246.601 795.47V795.479C246.601 796.095 246.464 796.607 246.225 796.988L245.873 796.524H244.296L245.185 797.691C245.111 797.701 245.033 797.706 244.955 797.706ZM252.221 799H254.013V796.534H254.94L256.146 799H258.158L256.752 796.271C257.514 795.934 257.948 795.147 257.948 794.288V794.278C257.948 792.823 257.016 791.954 255.282 791.954H252.221V799ZM254.013 795.309V793.307H255.072C255.717 793.307 256.122 793.707 256.122 794.303V794.312C256.122 794.923 255.727 795.309 255.082 795.309H254.013ZM264.472 799.19C266.327 799.19 267.436 798.272 267.436 796.832V796.827C267.436 795.689 266.752 795.089 265.253 794.796L264.525 794.654C263.764 794.503 263.441 794.283 263.441 793.883V793.878C263.441 793.458 263.822 793.17 264.467 793.17C265.116 793.17 265.556 793.463 265.629 793.902L265.639 793.961H267.299L267.294 793.902C267.187 792.657 266.225 791.764 264.457 791.764C262.836 791.764 261.664 792.652 261.659 794.034V794.039C261.659 795.138 262.304 795.841 263.793 796.129L264.521 796.271C265.346 796.432 265.658 796.617 265.658 797.013V797.018C265.658 797.467 265.199 797.784 264.501 797.784C263.778 797.784 263.295 797.472 263.246 797.037L263.241 796.993H261.532L261.537 797.081C261.61 798.39 262.714 799.19 264.472 799.19Z" fill="black"/>
</g>
<g filter="url(#filter9_d_355_19957)">
<rect x="320.77" y="758" width="118" height="47" rx="5" fill="white" shape-rendering="crispEdges"/>
<path d="M373.77 783.281C377.355 783.281 379.91 781.266 379.91 778.43V778.406C379.91 776.32 378.445 774.586 376.277 774.082V774.035C378.129 773.461 379.301 772.055 379.301 770.273V770.25C379.301 767.695 376.969 765.809 373.77 765.809C370.57 765.809 368.238 767.695 368.238 770.25V770.273C368.238 772.055 369.41 773.461 371.262 774.035V774.082C369.094 774.586 367.629 776.32 367.629 778.406V778.43C367.629 781.266 370.184 783.281 373.77 783.281ZM373.77 773.25C371.73 773.25 370.336 772.09 370.336 770.449V770.426C370.336 768.785 371.73 767.625 373.77 767.625C375.809 767.625 377.203 768.785 377.203 770.426V770.449C377.203 772.09 375.809 773.25 373.77 773.25ZM373.77 781.441C371.438 781.441 369.773 780.129 369.773 778.301V778.277C369.773 776.426 371.426 775.102 373.77 775.102C376.113 775.102 377.766 776.426 377.766 778.277V778.301C377.766 780.129 376.102 781.441 373.77 781.441Z" fill="black"/>
<path d="M362.817 799H364.604V793.395H366.641V791.954H360.786V793.395H362.817V799ZM373.408 799.19C375.264 799.19 376.445 798.146 376.445 796.568V791.954H374.658V796.397C374.658 797.218 374.219 797.706 373.413 797.706C372.612 797.706 372.168 797.218 372.168 796.397V791.954H370.381V796.568C370.381 798.15 371.577 799.19 373.408 799.19ZM382.31 799H384.624L386.841 791.954H384.795L383.516 797.096H383.423L382.139 791.954H380.093L382.31 799Z" fill="black"/>
</g>
<g filter="url(#filter10_d_355_19957)">
<rect x="444.77" y="758" width="118" height="47" rx="5" fill="white" shape-rendering="crispEdges"/>
<path d="M497.547 765.691C494.137 765.691 491.629 768.141 491.629 771.516V771.539C491.629 774.785 493.996 777.199 497.172 777.199C499.457 777.199 501.051 775.969 501.672 774.586H501.895C501.895 774.715 501.895 774.855 501.883 774.984C501.754 778.512 500.5 781.512 497.43 781.512C495.719 781.512 494.535 780.633 494.02 779.215L493.973 779.086H491.852L491.887 779.238C492.461 781.734 494.57 783.398 497.406 783.398C501.508 783.398 503.91 780.023 503.91 774.258V774.234C503.91 767.871 500.641 765.691 497.547 765.691ZM497.535 775.359C495.344 775.359 493.75 773.742 493.75 771.492V771.469C493.75 769.277 495.449 767.555 497.57 767.555C499.715 767.555 501.391 769.312 501.391 771.539V771.551C501.391 773.754 499.727 775.359 497.535 775.359Z" fill="black"/>
<path d="M480.299 799H481.988L483.146 794.684H483.233L484.41 799H486.09L487.931 791.954H486.085L485.162 796.627H485.074L483.907 791.954H482.472L481.344 796.627H481.256L480.318 791.954H478.458L480.299 799ZM491.236 799H493.141L494.503 796.715H494.547L495.919 799H497.931L495.704 795.475V795.45L497.95 791.954H495.958L494.674 794.342H494.625L493.331 791.954H491.236L493.39 795.431V795.46L491.236 799ZM503.624 799H505.416V796.578L507.843 791.954H505.934L504.571 794.83H504.479L503.106 791.954H501.197L503.624 796.578V799ZM511.3 799H516.856V797.56H513.448V797.467L516.754 793.092V791.954H511.354V793.395H514.605V793.487L511.3 797.862V799Z" fill="black"/>
</g>
<g filter="url(#filter11_d_355_19957)">
<rect x="320.77" y="813" width="118" height="47" rx="5" fill="white" shape-rendering="crispEdges"/>
<path d="M373.758 844.398C377.496 844.398 379.746 840.988 379.746 835.551V835.527C379.746 830.09 377.496 826.691 373.758 826.691C370.02 826.691 367.793 830.09 367.793 835.527V835.551C367.793 840.988 370.02 844.398 373.758 844.398ZM373.758 842.559C371.332 842.559 369.914 839.863 369.914 835.551V835.527C369.914 831.215 371.332 828.543 373.758 828.543C376.184 828.543 377.625 831.215 377.625 835.527V835.551C377.625 839.863 376.184 842.559 373.758 842.559Z" fill="black"/>
</g>
<path d="M502.984 834.525C502.691 834.232 502.691 833.757 502.984 833.464C503.277 833.172 503.752 833.172 504.045 833.464L506.52 835.939L508.994 833.464C509.287 833.172 509.762 833.172 510.055 833.464C510.348 833.757 510.348 834.232 510.055 834.525L507.58 837L510.055 839.475C510.348 839.768 510.348 840.243 510.055 840.536C509.762 840.828 509.287 840.828 508.994 840.536L506.52 838.061L504.045 840.536C503.752 840.828 503.277 840.828 502.984 840.536C502.691 840.243 502.691 839.768 502.984 839.475L505.459 837L502.984 834.525Z" fill="black"/>
<path fill-rule="evenodd" clip-rule="evenodd" d="M499.891 829.379L492.27 837L499.891 844.621C500.453 845.184 501.217 845.5 502.012 845.5H512.27C513.926 845.5 515.27 844.157 515.27 842.5V831.5C515.27 829.843 513.926 828.5 512.27 828.5H502.012C501.217 828.5 500.453 828.816 499.891 829.379ZM512.27 844.2H502.012C501.561 844.2 501.129 844.021 500.81 843.702L494.108 837L500.81 830.298C501.129 829.979 501.561 829.8 502.012 829.8H512.27C513.208 829.8 513.969 830.561 513.969 831.5V842.5C513.969 843.439 513.208 844.2 512.27 844.2Z" fill="black"/>
</g>
<path d="M315.216 444H316.77V441H315.198L311.77 441.574V441.95L315.18 441.397H315.216V444Z" fill="#3C3C43" fill-opacity="0.6"/>
<path d="M369.159 442.967H370.693V442.558H372.491V442.343H370.693V441H368.348L362.77 442.336V442.558H369.159V442.967ZM364.338 442.343V442.337L369.106 441.21H369.159V442.343H364.338Z" fill="#3C3C43" fill-opacity="0.6"/>
<path d="M380.24 443C382.884 443 384.761 442.725 384.77 442.331V442.328C384.77 441.95 383.007 441.676 380.566 441.676C379.332 441.676 378.274 441.747 377.675 441.879H377.64L378.071 441.218H384.047V441H376.767L376.115 442.122H377.516C377.684 442.077 377.886 442.039 378.116 442.006C378.68 441.927 379.42 441.888 380.284 441.888C381.967 441.888 383.174 442.073 383.183 442.332V442.335C383.183 442.599 381.985 442.785 380.257 442.785C378.732 442.785 377.604 442.636 377.446 442.441L377.437 442.43H375.877L375.886 442.445C376.071 442.766 377.807 443 380.24 443Z" fill="#3C3C43" fill-opacity="0.6"/>
<path d="M300.564 436.201L302.24 436.158L302.06 429.293L300.365 429.338L296.701 430.747L296.724 431.608L300.37 430.247L300.408 430.246L300.564 436.201Z" fill="#3C3C43" fill-opacity="0.6"/>
<path d="M307.78 436.012L316.949 435.772L316.929 435.011L310.139 435.189L310.139 435.17L313.398 433.409C315.916 432.053 316.605 431.469 316.585 430.717L316.585 430.708C316.557 429.632 314.695 428.848 312.182 428.914C309.591 428.982 307.534 429.916 307.565 431.106L307.566 431.134L309.241 431.09L309.241 431.066C309.222 430.329 310.497 429.705 312.23 429.66C313.742 429.62 314.824 430.097 314.852 430.796L314.853 430.805C314.868 431.376 314.444 431.758 312.591 432.773L307.765 435.423L307.78 436.012Z" fill="#3C3C43" fill-opacity="0.6"/>
<path d="M369.024 436H370.525V434.545H372.285V433.778H370.525V429H368.23L362.77 433.754V434.545H369.024V436ZM364.305 433.778V433.759L368.972 429.747H369.024V433.778H364.305Z" fill="#3C3C43" fill-opacity="0.6"/>
<path d="M381.509 436H383.01V434.545H384.77V433.778H383.01V429H380.715L375.254 433.754V434.545H381.509V436ZM376.79 433.778V433.759L381.457 429.747H381.509V433.778H376.79Z" fill="#3C3C43" fill-opacity="0.6"/>
<path d="M301.803 419H303.621V405H301.782L297.77 407.678V409.434L301.761 406.853H301.803V419Z" fill="#3C3C43" fill-opacity="0.6"/>
<path d="M314.951 419H316.77V405H314.93L310.918 407.678V409.434L314.91 406.853H314.951V419Z" fill="#3C3C43" fill-opacity="0.6"/>
<path d="M369.805 418.823H371.493V416.61H373.473V415.444H371.493V408.177H368.912L362.77 415.407V416.61H369.805V418.823ZM364.497 415.444V415.414L369.747 409.313H369.805V415.444H364.497Z" fill="#3C3C43" fill-opacity="0.6"/>
<path d="M381.908 419C384.712 419 386.77 417.687 386.77 415.909V415.894C386.77 414.382 385.382 413.415 383.344 413.282V413.253C385.091 412.973 386.313 412.072 386.313 410.759V410.744C386.313 409.129 384.557 408 381.889 408C379.268 408 377.464 409.158 377.24 410.892L377.231 410.966H378.909L378.919 410.892C379.065 409.815 380.239 409.151 381.889 409.151C383.596 409.151 384.557 409.793 384.557 410.907V410.922C384.557 411.984 383.393 412.766 381.724 412.766H380.045V413.887H381.801C383.761 413.887 384.994 414.618 384.994 415.924V415.938C384.994 417.067 383.742 417.849 381.908 417.849C380.045 417.849 378.783 417.126 378.638 416.078L378.628 416.005H376.949L376.959 416.093C377.143 417.775 379.016 419 381.908 419Z" fill="#3C3C43" fill-opacity="0.6"/>
<path d="M298.684 393.759H300.449V379.241H298.664L294.77 382.018V383.839L298.644 381.163H298.684V393.759Z" fill="#3C3C43" fill-opacity="0.6"/>
<path d="M311.384 394C314.751 394 316.77 391.113 316.77 386.505V386.485C316.77 381.877 314.751 379 311.384 379C308.017 379 306.019 381.877 306.019 386.485V386.505C306.019 391.113 308.017 394 311.384 394ZM311.384 392.421C309.153 392.421 307.855 390.147 307.855 386.505V386.485C307.855 382.843 309.153 380.59 311.384 380.59C313.615 380.59 314.934 382.843 314.934 386.485V386.505C314.934 390.147 313.615 392.421 311.384 392.421Z" fill="#3C3C43" fill-opacity="0.6"/>
<path d="M369.608 393H371.25V390.137H373.174V388.629H371.25V379.229H368.741L362.77 388.581V390.137H369.608V393ZM364.449 388.629V388.591L369.552 380.699H369.608V388.629H364.449Z" fill="#3C3C43" fill-opacity="0.6"/>
<path d="M376.789 393H385.77V391.473H379.119V391.435L382.355 388.076C384.855 385.489 385.543 384.354 385.543 382.846V382.827C385.543 380.67 383.741 379 381.279 379C378.742 379 376.704 380.766 376.704 383.151V383.209H378.346V383.161C378.346 381.682 379.61 380.498 381.308 380.498C382.789 380.498 383.836 381.51 383.845 382.913V382.932C383.845 384.077 383.421 384.821 381.581 386.759L376.789 391.817V393Z" fill="#3C3C43" fill-opacity="0.6"/>
<path d="M421.77 393H423.749V388.003H427.422C430.402 388.003 432.513 386.15 432.513 383.492V383.473C432.513 380.814 430.402 379 427.422 379H421.77V393ZM426.916 380.552C429.181 380.552 430.49 381.649 430.49 383.492V383.511C430.49 385.355 429.181 386.451 426.916 386.451H423.749V380.552H426.916Z" fill="#3C3C43" fill-opacity="0.6"/>
<path d="M435.132 393H436.98V382.182H437.046L442.115 393H443.787L448.856 382.182H448.922V393H450.77V379H448.482L442.984 390.798H442.918L437.42 379H435.132V393Z" fill="#3C3C43" fill-opacity="0.6"/>
<g clip-path="url(#clip4_355_19957)">
<rect x="184.77" y="338" width="390" height="34" rx="8" fill="#747480" fill-opacity="0.08"/>
<path d="M310.593 346.525C307.28 346.525 304.854 348.838 304.854 352.028V352.05C304.854 355.127 307.146 357.407 310.234 357.407C312.435 357.407 314.097 356.239 314.749 354.802H314.793C314.793 354.925 314.793 355.038 314.782 355.15C314.692 358.553 313.502 361.484 310.481 361.484C308.819 361.484 307.662 360.653 307.179 359.316L307.134 359.193H305.079L305.113 359.339C305.652 361.697 307.707 363.27 310.458 363.27C314.423 363.27 316.748 360.08 316.748 354.622V354.6C316.748 348.591 313.581 346.525 310.593 346.525ZM310.582 355.633C308.448 355.633 306.91 354.117 306.91 352.005V351.983C306.91 349.939 308.549 348.322 310.616 348.322C312.693 348.322 314.311 349.973 314.311 352.05V352.062C314.311 354.128 312.705 355.633 310.582 355.633Z" fill="#3C3C43" fill-opacity="0.6"/>
<path d="M369.788 363H371.742V359.631H374.033V357.856H371.742V346.794H368.754L361.646 357.8V359.631H369.788V363ZM363.645 357.856V357.812L369.72 348.524H369.788V357.856H363.645ZM382.47 363H384.424V346.794H382.447L378.135 349.894V351.927L382.425 348.939H382.47V363Z" fill="#3C3C43" fill-opacity="0.6"/>
<path d="M420.05 363H422.173L423.812 358.362H430.337L431.977 363H434.1L428.08 346.794H426.081L420.05 363ZM427.058 349.22H427.103L429.731 356.644H424.43L427.058 349.22ZM436.314 363H438.201V350.478H438.268L443.445 363H445.152L450.329 350.478H450.397V363H452.284V346.794H449.948L444.332 360.451H444.265L438.65 346.794H436.314V363Z" fill="#3C3C43" fill-opacity="0.6"/>
</g>
<path d="M369.824 329.759H371.757V326.74H374.024V325.151H371.757V315.241H368.802L361.77 325.101V326.74H369.824V329.759ZM363.747 325.151V325.111L369.758 316.791H369.824V325.151H363.747Z" fill="#3C3C43" fill-opacity="0.6"/>
<path d="M383.87 330C387.559 330 389.77 327.113 389.77 322.505V322.485C389.77 317.877 387.559 315 383.87 315C380.182 315 377.993 317.877 377.993 322.485V322.505C377.993 327.113 380.182 330 383.87 330ZM383.87 328.421C381.426 328.421 380.004 326.147 380.004 322.505V322.485C380.004 318.843 381.426 316.59 383.87 316.59C386.314 316.59 387.759 318.843 387.759 322.485V322.505C387.759 326.147 386.314 328.421 383.87 328.421Z" fill="#3C3C43" fill-opacity="0.6"/>
<path d="M311.27 330C314.481 330 316.77 328.27 316.77 325.835V325.815C316.77 324.024 315.458 322.535 313.516 322.103V322.062C315.174 321.569 316.224 320.362 316.224 318.833V318.813C316.224 316.62 314.135 315 311.27 315C308.404 315 306.315 316.62 306.315 318.813V318.833C306.315 320.362 307.365 321.569 309.023 322.062V322.103C307.082 322.535 305.77 324.024 305.77 325.815V325.835C305.77 328.27 308.058 330 311.27 330ZM311.27 321.388C309.443 321.388 308.194 320.392 308.194 318.984V318.964C308.194 317.555 309.443 316.559 311.27 316.559C313.096 316.559 314.345 317.555 314.345 318.964V318.984C314.345 320.392 313.096 321.388 311.27 321.388ZM311.27 328.421C309.181 328.421 307.69 327.294 307.69 325.724V325.704C307.69 324.115 309.17 322.978 311.27 322.978C313.369 322.978 314.849 324.115 314.849 325.704V325.724C314.849 327.294 313.358 328.421 311.27 328.421Z" fill="#3C3C43" fill-opacity="0.6"/>
<path d="M308.068 303H310.047L316.77 293.273V292H306.77V293.22H314.906V293.25L308.068 303Z" fill="#3C3C43" fill-opacity="0.6"/>
<path d="M367.488 302C370.721 302 373.094 301.164 373.094 300.033V300.023C373.094 299.061 371.494 298.446 369.144 298.362V298.343C371.158 298.164 372.568 297.592 372.568 296.756V296.746C372.568 295.718 370.542 295 367.465 295C364.444 295 362.363 295.737 362.105 296.84L362.094 296.887H364.03L364.041 296.84C364.209 296.155 365.563 295.732 367.465 295.732C369.435 295.732 370.542 296.141 370.542 296.85V296.859C370.542 297.535 369.2 298.033 367.275 298.033H365.339V298.746H367.364C369.625 298.746 371.046 299.211 371.046 300.042V300.052C371.046 300.77 369.602 301.268 367.488 301.268C365.339 301.268 363.884 300.808 363.717 300.141L363.705 300.094H361.77L361.781 300.15C361.993 301.221 364.153 302 367.488 302Z" fill="#3C3C43" fill-opacity="0.6"/>
<path d="M383.637 295C380.336 295 377.919 295.967 377.919 297.3V297.31C377.919 298.596 380.202 299.549 383.279 299.549C385.473 299.549 387.129 299.061 387.778 298.46H387.822C387.822 298.512 387.822 298.559 387.811 298.606C387.722 300.028 386.536 301.254 383.526 301.254C381.869 301.254 380.717 300.906 380.236 300.347L380.191 300.296H378.143L378.177 300.357C378.714 301.343 380.762 302 383.503 302C387.453 302 389.77 300.667 389.77 298.385V298.376C389.77 295.864 386.614 295 383.637 295ZM383.626 298.808C381.5 298.808 379.967 298.174 379.967 297.291V297.282C379.967 296.427 381.601 295.751 383.66 295.751C385.73 295.751 387.341 296.441 387.341 297.31V297.315C387.341 298.178 385.741 298.808 383.626 298.808Z" fill="#3C3C43" fill-opacity="0.6"/>
<path d="M311.944 281C314.73 281 316.77 280.033 316.77 278.7V278.69C316.77 277.404 314.843 276.451 312.246 276.451C310.396 276.451 308.998 276.939 308.45 277.54H308.413C308.413 277.488 308.413 277.441 308.422 277.394C308.498 275.972 309.499 274.746 312.039 274.746C313.436 274.746 314.409 275.094 314.815 275.653L314.853 275.704H316.581L316.552 275.643C316.099 274.657 314.371 274 312.058 274C308.724 274 306.77 275.333 306.77 277.615V277.624C306.77 280.136 309.432 281 311.944 281ZM308.819 278.69V278.685C308.819 277.822 310.169 277.192 311.954 277.192C313.748 277.192 315.041 277.826 315.041 278.709V278.718C315.041 279.573 313.663 280.249 311.925 280.249C310.178 280.249 308.819 279.559 308.819 278.69Z" fill="#3C3C43" fill-opacity="0.6"/>
<path d="M367.569 285C370.848 285 373.254 284.403 373.254 283.595V283.588C373.254 282.901 371.632 282.461 369.248 282.401V282.388C371.291 282.26 372.721 281.851 372.721 281.254V281.247C372.721 280.513 370.667 280 367.546 280C364.482 280 362.371 280.526 362.11 281.315L362.099 281.348H364.062L364.073 281.315C364.244 280.825 365.617 280.523 367.546 280.523C369.543 280.523 370.667 280.815 370.667 281.321V281.328C370.667 281.811 369.305 282.166 367.353 282.166H365.39V282.676H367.444C369.736 282.676 371.178 283.008 371.178 283.602V283.608C371.178 284.121 369.714 284.477 367.569 284.477C365.39 284.477 363.914 284.148 363.744 283.672L363.733 283.638H361.77L361.781 283.679C361.997 284.443 364.187 285 367.569 285Z" fill="#3C3C43" fill-opacity="0.6"/>
<path d="M383.823 285C387.296 285 389.77 284.423 389.77 283.612V283.605C389.77 283.008 388.351 282.512 386.251 282.368V282.354C388.045 282.19 389.179 281.787 389.179 281.278V281.271C389.179 280.54 386.921 280 383.823 280C380.725 280 378.466 280.54 378.466 281.271V281.278C378.466 281.787 379.601 282.19 381.394 282.354V282.368C379.295 282.512 377.876 283.008 377.876 283.605V283.612C377.876 284.423 380.35 285 383.823 285ZM383.823 282.129C381.848 282.129 380.498 281.797 380.498 281.328V281.321C380.498 280.852 381.848 280.52 383.823 280.52C385.798 280.52 387.148 280.852 387.148 281.321V281.328C387.148 281.797 385.798 282.129 383.823 282.129ZM383.823 284.474C381.564 284.474 379.953 284.098 379.953 283.575V283.568C379.953 283.038 381.553 282.659 383.823 282.659C386.093 282.659 387.693 283.038 387.693 283.568V283.575C387.693 284.098 386.081 284.474 383.823 284.474Z" fill="#3C3C43" fill-opacity="0.6"/>
<path d="M311.675 269C314.649 269 316.76 268.587 316.77 267.996V267.992C316.77 267.425 314.787 267.014 312.042 267.014C310.655 267.014 309.465 267.121 308.791 267.319H308.752L309.237 266.327H315.957V266H307.771L307.037 267.683H308.613C308.801 267.616 309.029 267.558 309.287 267.509C309.921 267.391 310.754 267.331 311.725 267.331C313.618 267.331 314.976 267.609 314.986 267.998V268.002C314.986 268.399 313.638 268.677 311.695 268.677C309.981 268.677 308.712 268.454 308.534 268.162L308.524 268.145H306.77L306.779 268.168C306.988 268.648 308.94 269 311.675 269Z" fill="#3C3C43" fill-opacity="0.6"/>
<path d="M367.615 269C370.921 269 373.346 268.642 373.346 268.157V268.153C373.346 267.74 371.71 267.477 369.308 267.441V267.433C371.367 267.356 372.809 267.111 372.809 266.753V266.748C372.809 266.308 370.738 266 367.592 266C364.504 266 362.376 266.316 362.113 266.789L362.101 266.809H364.08L364.092 266.789C364.263 266.495 365.648 266.314 367.592 266.314C369.606 266.314 370.738 266.489 370.738 266.793V266.797C370.738 267.087 369.365 267.3 367.398 267.3H365.419V267.606H367.489C369.8 267.606 371.253 267.805 371.253 268.161V268.165C371.253 268.473 369.777 268.686 367.615 268.686C365.419 268.686 363.932 268.489 363.76 268.203L363.749 268.183H361.77L361.781 268.207C361.998 268.666 364.206 269 367.615 269Z" fill="#3C3C43" fill-opacity="0.6"/>
<path d="M379.263 268.952H381.425L388.77 266.384V266.048H377.845V266.37H386.733V266.378L379.263 268.952Z" fill="#3C3C43" fill-opacity="0.6"/>
</g>
<path d="M558.711 6L559.278 6.00684C571.166 6.30778 580.711 16.0394 580.711 28V872C580.711 884.15 570.861 894 558.711 894H200.711C188.561 894 178.711 884.15 178.711 872V28C178.711 15.8497 188.561 6 200.711 6H558.711Z" stroke="#3F3B36" stroke-width="12"/>
<path d="M110.066 227.178L108.706 227.178L108.706 224.456L110.066 224.456L110.066 225.817L110.066 227.178ZM199.325 225.817C199.325 229.826 196.075 233.076 192.066 233.076C188.058 233.076 184.808 229.826 184.808 225.817C184.808 221.809 188.058 218.559 192.066 218.559C196.075 218.559 199.325 221.809 199.325 225.817ZM189.504 227.178L188.143 227.178L188.143 224.456L189.504 224.456L189.504 225.817L189.504 227.178ZM184.379 224.456L185.74 224.456L185.74 227.178L184.379 227.178L184.379 225.817L184.379 224.456ZM179.254 227.178L177.893 227.178L177.893 224.456L179.254 224.456L179.254 225.817L179.254 227.178ZM174.129 224.456L175.49 224.456L175.49 227.178L174.129 227.178L174.129 225.817L174.129 224.456ZM169.004 227.178L167.643 227.178L167.643 224.456L169.004 224.456L169.004 225.817L169.004 227.178ZM163.879 224.456L165.24 224.456L165.24 227.178L163.879 227.178L163.879 225.817L163.879 224.456ZM158.754 227.178L157.393 227.178L157.393 224.456L158.754 224.456L158.754 225.817L158.754 227.178ZM153.629 224.456L154.99 224.456L154.99 227.178L153.629 227.178L153.629 225.817L153.629 224.456ZM148.504 227.178L147.143 227.178L147.143 224.456L148.504 224.456L148.504 225.817L148.504 227.178ZM143.379 224.456L144.74 224.456L144.74 227.178L143.379 227.178L143.379 225.817L143.379 224.456ZM138.254 227.178L136.893 227.178L136.893 224.456L138.254 224.456L138.254 225.817L138.254 227.178ZM133.129 224.456L134.49 224.456L134.49 227.178L133.129 227.178L133.129 225.817L133.129 224.456ZM128.004 227.178L126.643 227.178L126.643 224.456L128.004 224.456L128.004 225.817L128.004 227.178ZM122.879 224.456L124.24 224.456L124.24 227.178L122.879 227.178L122.879 225.817L122.879 224.456ZM117.754 227.178L116.393 227.178L116.393 224.456L117.754 224.456L117.754 225.817L117.754 227.178ZM112.629 224.456L113.99 224.456L113.99 227.178L112.629 227.178L112.629 225.817L112.629 224.456ZM192.066 225.817L192.066 227.178L189.504 227.178L189.504 225.817L189.504 224.456L192.066 224.456L192.066 225.817ZM184.379 225.817L184.379 227.178L179.254 227.178L179.254 225.817L179.254 224.456L184.379 224.456L184.379 225.817ZM174.129 225.817L174.129 227.178L169.004 227.178L169.004 225.817L169.004 224.456L174.129 224.456L174.129 225.817ZM163.879 225.817L163.879 227.178L158.754 227.178L158.754 225.817L158.754 224.456L163.879 224.456L163.879 225.817ZM153.629 225.817L153.629 227.178L148.504 227.178L148.504 225.817L148.504 224.456L153.629 224.456L153.629 225.817ZM143.379 225.817L143.379 227.178L138.254 227.178L138.254 225.817L138.254 224.456L143.379 224.456L143.379 225.817ZM133.129 225.817L133.129 227.178L128.004 227.178L128.004 225.817L128.004 224.456L133.129 224.456L133.129 225.817ZM122.879 225.817L122.879 227.178L117.754 227.178L117.754 225.817L117.754 224.456L122.879 224.456L122.879 225.817ZM112.629 225.817L112.629 227.178L110.066 227.178L110.066 225.817L110.066 224.456L112.629 224.456L112.629 225.817Z" fill="#11377C"/>
<path d="M0.679688 225.817C0.679688 213.667 10.5294 203.817 22.6797 203.817H87.3415C99.4917 203.817 109.341 213.667 109.341 225.817C109.341 237.968 99.4917 247.817 87.3414 247.817H22.6797C10.5294 247.817 0.679688 237.968 0.679688 225.817Z" fill="#E9EFFB"/>
<path d="M0.679688 225.817C0.679688 213.667 10.5294 203.817 22.6797 203.817H87.3415C99.4917 203.817 109.341 213.667 109.341 225.817C109.341 237.968 99.4917 247.817 87.3414 247.817H22.6797C10.5294 247.817 0.679688 237.968 0.679688 225.817Z" stroke="#11377C" stroke-width="1.36091"/>
<path d="M22.1233 219.535C24.3443 219.535 25.9447 220.743 26.3366 222.621L24.5892 222.981C24.3933 221.821 23.3971 221.054 22.0906 221.054C20.8005 221.054 19.9513 221.756 19.9513 222.719C19.9513 223.487 20.3922 223.895 21.3394 224.091L23.7074 224.597C25.3405 224.957 26.5163 225.871 26.5163 227.586C26.5163 229.644 24.8342 230.934 22.3193 230.934C20.0003 230.934 18.0732 229.807 17.7956 227.684L19.6573 227.292C19.9186 228.696 21.0128 229.382 22.4826 229.382C23.9523 229.382 24.7852 228.68 24.7852 227.684C24.7852 226.851 24.3443 226.459 23.2501 226.23L20.8658 225.74C19.5103 225.43 18.1059 224.712 18.1059 222.768C18.1059 220.841 19.69 219.535 22.1233 219.535ZM36.197 226.475V227.063H29.632C29.7953 228.566 30.8895 229.464 32.0817 229.464C32.9799 229.464 33.8944 229.203 34.466 228.059L35.9847 228.386C35.3152 230.085 33.8781 230.934 32.0817 230.934C29.877 230.934 27.95 229.235 27.95 226.671C27.95 224.091 29.8607 222.376 32.147 222.376C34.319 222.376 36.1154 224.042 36.197 226.475ZM32.147 223.879C31.0855 223.879 29.9423 224.548 29.681 225.855H34.4496C34.1884 224.532 33.2575 223.879 32.147 223.879ZM39.6126 218.13V228.386C39.6126 228.941 40.0372 229.333 40.6578 229.333C40.9354 229.333 41.311 229.235 41.6377 229.088L41.9643 230.509C41.5397 230.738 41.0987 230.934 40.3638 230.934C38.8941 230.934 37.9142 229.954 37.9142 228.484V218.13H39.6126ZM50.7417 226.475V227.063H44.1767C44.34 228.566 45.4342 229.464 46.6264 229.464C47.5245 229.464 48.4391 229.203 49.0107 228.059L50.5294 228.386C49.8599 230.085 48.4227 230.934 46.6264 230.934C44.4217 230.934 42.4946 229.235 42.4946 226.671C42.4946 224.091 44.4054 222.376 46.6917 222.376C48.8637 222.376 50.6601 224.042 50.7417 226.475ZM46.6917 223.879C45.6302 223.879 44.487 224.548 44.2257 225.855H48.9943C48.733 224.532 47.8022 223.879 46.6917 223.879ZM56.1987 229.366C57.2765 229.366 58.1747 228.811 58.583 227.668L60.1507 228.076C59.6935 229.807 58.0767 230.934 56.1987 230.934C53.8797 230.934 51.92 229.219 51.92 226.655C51.92 224.124 53.8797 222.376 56.1987 222.376C58.0277 222.376 59.6281 223.487 60.1507 225.218L58.5176 225.692C58.191 224.499 57.2765 223.944 56.1987 223.944C54.6962 223.944 53.5857 225.055 53.5857 226.655C53.5857 228.304 54.6962 229.366 56.1987 229.366ZM66.9141 228.892L67.4367 230.313C66.6692 230.77 66.1139 230.934 65.428 230.934C63.6806 230.934 62.5048 229.954 62.5048 227.945V224.009H60.7574V222.605H62.5048V219.763H64.2032V222.605H66.9795V224.009H64.2032V227.831C64.2032 228.843 64.7421 229.333 65.5423 229.333C65.9669 229.333 66.4895 229.17 66.9141 228.892ZM69.7894 219.11C70.41 219.11 70.8672 219.6 70.8672 220.172C70.8672 220.776 70.41 221.217 69.7894 221.217C69.1525 221.217 68.6952 220.776 68.6952 220.172C68.6952 219.6 69.1525 219.11 69.7894 219.11ZM70.6386 230.705H68.9402V222.605H70.6386V230.705ZM77.8461 222.376C79.7895 222.376 81.096 223.781 81.096 225.806V230.705H79.3812V226.149C79.3812 224.826 78.6137 223.944 77.4542 223.944C76.0007 223.944 75.0372 224.924 75.0372 226.965V230.705H73.3388V222.605H75.0372V223.601C75.6905 222.817 76.6376 222.376 77.8461 222.376ZM91.4353 222.605V230.966C91.419 233.367 89.5083 234.788 87.0097 234.788C85.0663 234.788 83.7272 234.053 83.0576 232.844L84.462 231.701C85.05 232.632 85.7359 233.122 87.0097 233.122C88.5121 233.122 89.7206 232.257 89.7206 230.721V229.709C89.0347 230.493 88.0385 230.934 86.781 230.934C84.6743 230.934 82.7636 229.219 82.7636 226.655C82.7636 224.107 84.6743 222.376 86.781 222.376C88.0385 222.376 89.0347 222.834 89.7206 223.601V222.605H91.4353ZM87.0587 229.431C88.4141 229.431 89.7206 228.37 89.7206 226.655C89.7206 224.957 88.4141 223.879 87.0587 223.879C85.5889 223.879 84.4294 224.957 84.4294 226.655C84.4294 228.37 85.5889 229.431 87.0587 229.431Z" fill="#0D2C62"/>
<path d="M109.343 356.972L107.982 356.972L107.982 354.25L109.343 354.25L109.343 355.611L109.343 356.972ZM277.536 355.61C277.536 359.619 274.286 362.869 270.277 362.869C266.269 362.869 263.019 359.619 263.019 355.61C263.019 351.602 266.269 348.352 270.277 348.352C274.286 348.352 277.536 351.602 277.536 355.61ZM267.595 356.971L266.234 356.971L266.234 354.249L267.595 354.249L267.595 355.61L267.595 356.971ZM262.231 354.249L263.592 354.249L263.592 356.971L262.231 356.971L262.231 355.61L262.231 354.249ZM256.866 356.971L255.505 356.971L255.505 354.249L256.866 354.249L256.866 355.61L256.866 356.971ZM251.502 354.249L252.863 354.249L252.863 356.971L251.502 356.971L251.502 355.61L251.502 354.249ZM246.137 356.971L244.776 356.971L244.776 354.249L246.137 354.249L246.137 355.61L246.137 356.971ZM240.773 354.249L242.134 354.249L242.134 356.971L240.773 356.971L240.773 355.61L240.773 354.249ZM235.408 356.971L234.047 356.971L234.047 354.25L235.408 354.25L235.408 355.61L235.408 356.971ZM230.044 354.25L231.405 354.25L231.405 356.971L230.044 356.971L230.044 355.61L230.044 354.25ZM224.679 356.971L223.318 356.971L223.318 354.25L224.679 354.25L224.679 355.61L224.679 356.971ZM219.315 354.25L220.676 354.25L220.676 356.971L219.315 356.971L219.315 355.61L219.315 354.25ZM213.95 356.971L212.589 356.971L212.589 354.25L213.95 354.25L213.95 355.61L213.95 356.971ZM208.586 354.25L209.947 354.25L209.947 356.971L208.586 356.971L208.586 355.61L208.586 354.25ZM203.221 356.971L201.86 356.971L201.86 354.25L203.221 354.25L203.221 355.61L203.221 356.971ZM197.857 354.25L199.218 354.25L199.218 356.971L197.857 356.971L197.857 355.61L197.857 354.25ZM192.492 356.971L191.131 356.971L191.131 354.25L192.492 354.25L192.492 355.61L192.492 356.971ZM187.128 354.25L188.489 354.25L188.489 356.971L187.128 356.971L187.128 355.61L187.128 354.25ZM181.763 356.971L180.402 356.971L180.402 354.25L181.763 354.25L181.763 355.61L181.763 356.971ZM176.399 354.25L177.76 354.25L177.76 356.971L176.399 356.971L176.399 355.61L176.399 354.25ZM171.034 356.971L169.673 356.971L169.673 354.25L171.034 354.25L171.034 355.611L171.034 356.971ZM165.67 354.25L167.031 354.25L167.031 356.971L165.67 356.971L165.67 355.611L165.67 354.25ZM160.305 356.971L158.944 356.971L158.944 354.25L160.305 354.25L160.305 355.611L160.305 356.971ZM154.941 354.25L156.302 354.25L156.302 356.971L154.941 356.971L154.941 355.611L154.941 354.25ZM149.576 356.971L148.215 356.971L148.215 354.25L149.576 354.25L149.576 355.611L149.576 356.971ZM144.212 354.25L145.573 354.25L145.573 356.971L144.212 356.971L144.212 355.611L144.212 354.25ZM138.847 356.971L137.487 356.971L137.487 354.25L138.847 354.25L138.847 355.611L138.847 356.971ZM133.483 354.25L134.844 354.25L134.844 356.971L133.483 356.971L133.483 355.611L133.483 354.25ZM128.118 356.971L126.758 356.971L126.758 354.25L128.118 354.25L128.118 355.611L128.118 356.971ZM122.754 354.25L124.115 354.25L124.115 356.971L122.754 356.971L122.754 355.611L122.754 354.25ZM117.389 356.971L116.029 356.972L116.029 354.25L117.389 354.25L117.389 355.611L117.389 356.971ZM112.025 354.25L113.386 354.25L113.386 356.972L112.025 356.972L112.025 355.611L112.025 354.25ZM270.277 355.61L270.277 356.971L267.595 356.971L267.595 355.61L267.595 354.249L270.277 354.249L270.277 355.61ZM262.231 355.61L262.231 356.971L256.866 356.971L256.866 355.61L256.866 354.249L262.231 354.249L262.231 355.61ZM251.502 355.61L251.502 356.971L246.137 356.971L246.137 355.61L246.137 354.249L251.502 354.249L251.502 355.61ZM240.773 355.61L240.773 356.971L235.408 356.971L235.408 355.61L235.408 354.25L240.773 354.249L240.773 355.61ZM230.044 355.61L230.044 356.971L224.679 356.971L224.679 355.61L224.679 354.25L230.044 354.25L230.044 355.61ZM219.315 355.61L219.315 356.971L213.95 356.971L213.95 355.61L213.95 354.25L219.315 354.25L219.315 355.61ZM208.586 355.61L208.586 356.971L203.221 356.971L203.221 355.61L203.221 354.25L208.586 354.25L208.586 355.61ZM197.857 355.61L197.857 356.971L192.492 356.971L192.492 355.61L192.492 354.25L197.857 354.25L197.857 355.61ZM187.128 355.61L187.128 356.971L181.763 356.971L181.763 355.61L181.763 354.25L187.128 354.25L187.128 355.61ZM176.399 355.61L176.399 356.971L171.034 356.971L171.034 355.611L171.034 354.25L176.399 354.25L176.399 355.61ZM165.67 355.611L165.67 356.971L160.305 356.971L160.305 355.611L160.305 354.25L165.67 354.25L165.67 355.611ZM154.941 355.611L154.941 356.971L149.576 356.971L149.576 355.611L149.576 354.25L154.941 354.25L154.941 355.611ZM144.212 355.611L144.212 356.971L138.847 356.971L138.847 355.611L138.847 354.25L144.212 354.25L144.212 355.611ZM133.483 355.611L133.483 356.971L128.118 356.971L128.118 355.611L128.118 354.25L133.483 354.25L133.483 355.611ZM122.754 355.611L122.754 356.971L117.389 356.971L117.389 355.611L117.389 354.25L122.754 354.25L122.754 355.611ZM112.025 355.611L112.025 356.972L109.343 356.972L109.343 355.611L109.343 354.25L112.025 354.25L112.025 355.611Z" fill="#11377C"/>
<path d="M83.8798 288.855C85.9538 288.855 87.3256 289.949 87.3256 291.909V297.184H85.7089V296.253C85.1046 296.922 84.2064 297.412 82.949 297.412C81.1362 297.412 79.9278 296.367 79.9278 294.848C79.9278 293.33 81.0872 292.284 83.1776 292.284H85.7089V292.039C85.7089 290.994 85.0067 290.341 83.9778 290.341C82.8836 290.341 82.1814 290.831 82.0018 291.745L80.385 291.402C80.6626 289.884 82.0671 288.855 83.8798 288.855ZM83.2103 296.04C84.5657 296.04 85.7089 295.093 85.7089 293.852V293.591H83.1449C82.1488 293.591 81.5608 294.097 81.5608 294.816C81.5608 295.551 82.2141 296.04 83.2103 296.04ZM94.0523 288.855C95.9957 288.855 97.3021 290.259 97.3021 292.284V297.184H95.5874V292.627C95.5874 291.304 94.8199 290.423 93.6604 290.423C92.2069 290.423 91.2434 291.402 91.2434 293.444V297.184H89.545V289.083H91.2434V290.08C91.8966 289.296 92.8438 288.855 94.0523 288.855ZM107.641 284.609V297.184H105.927V296.187C105.241 296.971 104.245 297.412 102.987 297.412C100.881 297.412 98.9698 295.697 98.9698 293.134C98.9698 290.586 100.881 288.855 102.987 288.855C104.245 288.855 105.241 289.312 105.927 290.08V284.609H107.641ZM103.265 295.91C104.62 295.91 105.927 294.848 105.927 293.134C105.927 291.435 104.62 290.357 103.265 290.357C101.795 290.357 100.636 291.435 100.636 293.134C100.636 294.848 101.795 295.91 103.265 295.91Z" fill="#0D2C62"/>
<path d="M2.67969 349.774C2.67969 337.749 12.4285 328 24.4542 328H87.5669C99.5926 328 109.341 337.749 109.341 349.774C109.341 361.8 99.5927 371.549 87.5669 371.549H24.4542C12.4285 371.549 2.67969 361.8 2.67969 349.774Z" fill="#E9EFFB"/>
<path d="M2.67969 349.774C2.67969 337.749 12.4285 328 24.4542 328H87.5669C99.5926 328 109.341 337.749 109.341 349.774C109.341 361.8 99.5927 371.549 87.5669 371.549H24.4542C12.4285 371.549 2.67969 361.8 2.67969 349.774Z" stroke="#11377C" stroke-width="1.36091"/>
<path d="M20.3019 343.946H24.1233C27.8467 343.946 30.1657 346.232 30.1657 349.417C30.1657 352.601 27.8467 354.888 24.1233 354.888H20.3019V343.946ZM22.0493 353.304H24.1233C26.7852 353.304 28.402 351.687 28.402 349.417C28.402 347.147 26.7852 345.53 24.1233 345.53H22.0493V353.304ZM37.016 346.69C37.212 346.69 37.3753 346.69 37.5876 346.755L37.4733 348.388C37.3426 348.372 37.1466 348.372 36.9997 348.372C34.942 348.372 33.9295 349.809 33.9295 352.03V354.888H32.231V346.788H33.9295V348.519C34.5827 347.441 35.6115 346.69 37.016 346.69ZM42.1153 346.559C44.1893 346.559 45.5611 347.653 45.5611 349.613V354.888H43.9444V353.957C43.3401 354.626 42.4419 355.116 41.1844 355.116C39.3717 355.116 38.1632 354.071 38.1632 352.552C38.1632 351.034 39.3227 349.988 41.4131 349.988H43.9444V349.743C43.9444 348.698 43.2421 348.045 42.2133 348.045C41.1191 348.045 40.4169 348.535 40.2373 349.45L38.6205 349.107C38.8981 347.588 40.3026 346.559 42.1153 346.559ZM41.4457 353.745C42.8012 353.745 43.9444 352.797 43.9444 351.556V351.295H41.3804C40.3842 351.295 39.7963 351.801 39.7963 352.52C39.7963 353.255 40.4496 353.745 41.4457 353.745ZM55.7499 346.788V355.149C55.7336 357.55 53.8229 358.97 51.3243 358.97C49.3809 358.97 48.0418 358.236 47.3722 357.027L48.7766 355.884C49.3646 356.815 50.0505 357.305 51.3243 357.305C52.8267 357.305 54.0352 356.439 54.0352 354.904V353.892C53.3493 354.675 52.3531 355.116 51.0956 355.116C48.9889 355.116 47.0782 353.402 47.0782 350.838C47.0782 348.29 48.9889 346.559 51.0956 346.559C52.3531 346.559 53.3493 347.016 54.0352 347.784V346.788H55.7499ZM51.3733 353.614C52.7287 353.614 54.0352 352.552 54.0352 350.838C54.0352 349.139 52.7287 348.061 51.3733 348.061C49.9035 348.061 48.744 349.139 48.744 350.838C48.744 352.552 49.9035 353.614 51.3733 353.614ZM66.2757 346.788V355.149C66.2594 357.55 64.3486 358.97 61.85 358.97C59.9066 358.97 58.5675 358.236 57.8979 357.027L59.3024 355.884C59.8903 356.815 60.5762 357.305 61.85 357.305C63.3525 357.305 64.5609 356.439 64.5609 354.904V353.892C63.875 354.675 62.8789 355.116 61.6214 355.116C59.5147 355.116 57.604 353.402 57.604 350.838C57.604 348.29 59.5147 346.559 61.6214 346.559C62.8789 346.559 63.875 347.016 64.5609 347.784V346.788H66.2757ZM61.899 353.614C63.2545 353.614 64.5609 352.552 64.5609 350.838C64.5609 349.139 63.2545 348.061 61.899 348.061C60.4292 348.061 59.2697 349.139 59.2697 350.838C59.2697 352.552 60.4292 353.614 61.899 353.614ZM69.8118 343.293C70.4324 343.293 70.8897 343.783 70.8897 344.354C70.8897 344.959 70.4324 345.399 69.8118 345.399C69.1749 345.399 68.7177 344.959 68.7177 344.354C68.7177 343.783 69.1749 343.293 69.8118 343.293ZM70.661 354.888H68.9626V346.788H70.661V354.888ZM77.8686 346.559C79.8119 346.559 81.1184 347.963 81.1184 349.988V354.888H79.4037V350.331C79.4037 349.009 78.6361 348.127 77.4766 348.127C76.0232 348.127 75.0597 349.107 75.0597 351.148V354.888H73.3612V346.788H75.0597V347.784C75.7129 347 76.6601 346.559 77.8686 346.559ZM91.4578 346.788V355.149C91.4414 357.55 89.5307 358.97 87.0321 358.97C85.0887 358.97 83.7496 358.236 83.08 357.027L84.4845 355.884C85.0724 356.815 85.7583 357.305 87.0321 357.305C88.5345 357.305 89.743 356.439 89.743 354.904V353.892C89.0571 354.675 88.0609 355.116 86.8035 355.116C84.6968 355.116 82.7861 353.402 82.7861 350.838C82.7861 348.29 84.6968 346.559 86.8035 346.559C88.0609 346.559 89.0571 347.016 89.743 347.784V346.788H91.4578ZM87.0811 353.614C88.4366 353.614 89.743 352.552 89.743 350.838C89.743 349.139 88.4366 348.061 87.0811 348.061C85.6113 348.061 84.4518 349.139 84.4518 350.838C84.4518 352.552 85.6113 353.614 87.0811 353.614Z" fill="#0D2C62"/>
<defs>
<clipPath id="bgblur_3_355_19957_clip_path" transform="translate(-130.77 -574)"><path d="M184.77 644C184.77 635.163 191.933 628 200.77 628H558.77C567.606 628 574.77 635.163 574.77 644V888H184.77V644Z"/>
</clipPath><filter id="filter2_d_355_19957" x="196.77" y="648" width="118" height="48" filterUnits="userSpaceOnUse" color-interpolation-filters="sRGB">
<feFlood flood-opacity="0" result="BackgroundImageFix"/>
<feColorMatrix in="SourceAlpha" type="matrix" values="0 0 0 0 0 0 0 0 0 0 0 0 0 0 0 0 0 0 127 0" result="hardAlpha"/>
<feOffset dy="1"/>
<feComposite in2="hardAlpha" operator="out"/>
<feColorMatrix type="matrix" values="0 0 0 0 0 0 0 0 0 0 0 0 0 0 0 0 0 0 0.3 0"/>
<feBlend mode="normal" in2="BackgroundImageFix" result="effect1_dropShadow_355_19957"/>
<feBlend mode="normal" in="SourceGraphic" in2="effect1_dropShadow_355_19957" result="shape"/>
</filter>
<filter id="filter3_d_355_19957" x="320.77" y="648" width="118" height="48" filterUnits="userSpaceOnUse" color-interpolation-filters="sRGB">
<feFlood flood-opacity="0" result="BackgroundImageFix"/>
<feColorMatrix in="SourceAlpha" type="matrix" values="0 0 0 0 0 0 0 0 0 0 0 0 0 0 0 0 0 0 127 0" result="hardAlpha"/>
<feOffset dy="1"/>
<feComposite in2="hardAlpha" operator="out"/>
<feColorMatrix type="matrix" values="0 0 0 0 0 0 0 0 0 0 0 0 0 0 0 0 0 0 0.3 0"/>
<feBlend mode="normal" in2="BackgroundImageFix" result="effect1_dropShadow_355_19957"/>
<feBlend mode="normal" in="SourceGraphic" in2="effect1_dropShadow_355_19957" result="shape"/>
</filter>
<filter id="filter4_d_355_19957" x="444.77" y="648" width="118" height="48" filterUnits="userSpaceOnUse" color-interpolation-filters="sRGB">
<feFlood flood-opacity="0" result="BackgroundImageFix"/>
<feColorMatrix in="SourceAlpha" type="matrix" values="0 0 0 0 0 0 0 0 0 0 0 0 0 0 0 0 0 0 127 0" result="hardAlpha"/>
<feOffset dy="1"/>
<feComposite in2="hardAlpha" operator="out"/>
<feColorMatrix type="matrix" values="0 0 0 0 0 0 0 0 0 0 0 0 0 0 0 0 0 0 0.3 0"/>
<feBlend mode="normal" in2="BackgroundImageFix" result="effect1_dropShadow_355_19957"/>
<feBlend mode="normal" in="SourceGraphic" in2="effect1_dropShadow_355_19957" result="shape"/>
</filter>
<filter id="filter5_d_355_19957" x="196.77" y="703" width="118" height="48" filterUnits="userSpaceOnUse" color-interpolation-filters="sRGB">
<feFlood flood-opacity="0" result="BackgroundImageFix"/>
<feColorMatrix in="SourceAlpha" type="matrix" values="0 0 0 0 0 0 0 0 0 0 0 0 0 0 0 0 0 0 127 0" result="hardAlpha"/>
<feOffset dy="1"/>
<feComposite in2="hardAlpha" operator="out"/>
<feColorMatrix type="matrix" values="0 0 0 0 0 0 0 0 0 0 0 0 0 0 0 0 0 0 0.3 0"/>
<feBlend mode="normal" in2="BackgroundImageFix" result="effect1_dropShadow_355_19957"/>
<feBlend mode="normal" in="SourceGraphic" in2="effect1_dropShadow_355_19957" result="shape"/>
</filter>
<filter id="filter6_d_355_19957" x="320.77" y="703" width="118" height="48" filterUnits="userSpaceOnUse" color-interpolation-filters="sRGB">
<feFlood flood-opacity="0" result="BackgroundImageFix"/>
<feColorMatrix in="SourceAlpha" type="matrix" values="0 0 0 0 0 0 0 0 0 0 0 0 0 0 0 0 0 0 127 0" result="hardAlpha"/>
<feOffset dy="1"/>
<feComposite in2="hardAlpha" operator="out"/>
<feColorMatrix type="matrix" values="0 0 0 0 0 0 0 0 0 0 0 0 0 0 0 0 0 0 0.3 0"/>
<feBlend mode="normal" in2="BackgroundImageFix" result="effect1_dropShadow_355_19957"/>
<feBlend mode="normal" in="SourceGraphic" in2="effect1_dropShadow_355_19957" result="shape"/>
</filter>
<filter id="filter7_d_355_19957" x="444.77" y="703" width="118" height="48" filterUnits="userSpaceOnUse" color-interpolation-filters="sRGB">
<feFlood flood-opacity="0" result="BackgroundImageFix"/>
<feColorMatrix in="SourceAlpha" type="matrix" values="0 0 0 0 0 0 0 0 0 0 0 0 0 0 0 0 0 0 127 0" result="hardAlpha"/>
<feOffset dy="1"/>
<feComposite in2="hardAlpha" operator="out"/>
<feColorMatrix type="matrix" values="0 0 0 0 0 0 0 0 0 0 0 0 0 0 0 0 0 0 0.3 0"/>
<feBlend mode="normal" in2="BackgroundImageFix" result="effect1_dropShadow_355_19957"/>
<feBlend mode="normal" in="SourceGraphic" in2="effect1_dropShadow_355_19957" result="shape"/>
</filter>
<filter id="filter8_d_355_19957" x="196.77" y="758" width="118" height="48" filterUnits="userSpaceOnUse" color-interpolation-filters="sRGB">
<feFlood flood-opacity="0" result="BackgroundImageFix"/>
<feColorMatrix in="SourceAlpha" type="matrix" values="0 0 0 0 0 0 0 0 0 0 0 0 0 0 0 0 0 0 127 0" result="hardAlpha"/>
<feOffset dy="1"/>
<feComposite in2="hardAlpha" operator="out"/>
<feColorMatrix type="matrix" values="0 0 0 0 0 0 0 0 0 0 0 0 0 0 0 0 0 0 0.3 0"/>
<feBlend mode="normal" in2="BackgroundImageFix" result="effect1_dropShadow_355_19957"/>
<feBlend mode="normal" in="SourceGraphic" in2="effect1_dropShadow_355_19957" result="shape"/>
</filter>
<filter id="filter9_d_355_19957" x="320.77" y="758" width="118" height="48" filterUnits="userSpaceOnUse" color-interpolation-filters="sRGB">
<feFlood flood-opacity="0" result="BackgroundImageFix"/>
<feColorMatrix in="SourceAlpha" type="matrix" values="0 0 0 0 0 0 0 0 0 0 0 0 0 0 0 0 0 0 127 0" result="hardAlpha"/>
<feOffset dy="1"/>
<feComposite in2="hardAlpha" operator="out"/>
<feColorMatrix type="matrix" values="0 0 0 0 0 0 0 0 0 0 0 0 0 0 0 0 0 0 0.3 0"/>
<feBlend mode="normal" in2="BackgroundImageFix" result="effect1_dropShadow_355_19957"/>
<feBlend mode="normal" in="SourceGraphic" in2="effect1_dropShadow_355_19957" result="shape"/>
</filter>
<filter id="filter10_d_355_19957" x="444.77" y="758" width="118" height="48" filterUnits="userSpaceOnUse" color-interpolation-filters="sRGB">
<feFlood flood-opacity="0" result="BackgroundImageFix"/>
<feColorMatrix in="SourceAlpha" type="matrix" values="0 0 0 0 0 0 0 0 0 0 0 0 0 0 0 0 0 0 127 0" result="hardAlpha"/>
<feOffset dy="1"/>
<feComposite in2="hardAlpha" operator="out"/>
<feColorMatrix type="matrix" values="0 0 0 0 0 0 0 0 0 0 0 0 0 0 0 0 0 0 0.3 0"/>
<feBlend mode="normal" in2="BackgroundImageFix" result="effect1_dropShadow_355_19957"/>
<feBlend mode="normal" in="SourceGraphic" in2="effect1_dropShadow_355_19957" result="shape"/>
</filter>
<filter id="filter11_d_355_19957" x="320.77" y="813" width="118" height="48" filterUnits="userSpaceOnUse" color-interpolation-filters="sRGB">
<feFlood flood-opacity="0" result="BackgroundImageFix"/>
<feColorMatrix in="SourceAlpha" type="matrix" values="0 0 0 0 0 0 0 0 0 0 0 0 0 0 0 0 0 0 127 0" result="hardAlpha"/>
<feOffset dy="1"/>
<feComposite in2="hardAlpha" operator="out"/>
<feColorMatrix type="matrix" values="0 0 0 0 0 0 0 0 0 0 0 0 0 0 0 0 0 0 0.3 0"/>
<feBlend mode="normal" in2="BackgroundImageFix" result="effect1_dropShadow_355_19957"/>
<feBlend mode="normal" in="SourceGraphic" in2="effect1_dropShadow_355_19957" result="shape"/>
</filter>
<clipPath id="clip0_355_19957">
<path d="M184.711 28C184.711 19.1634 191.874 12 200.711 12H558.711C567.547 12 574.711 19.1634 574.711 28V872C574.711 880.837 567.547 888 558.711 888H200.711C191.874 888 184.711 880.837 184.711 872V28Z" fill="white"/>
</clipPath>
<clipPath id="clip1_355_19957">
<rect width="24" height="24" fill="white" transform="translate(200.77 103)"/>
</clipPath>
<clipPath id="clip2_355_19957">
<rect width="36" height="24" fill="white" transform="translate(522.77 103)"/>
</clipPath>
<clipPath id="clip4_355_19957">
<rect x="184.77" y="338" width="390" height="34" rx="8" fill="white"/>
</clipPath>
</defs>
</svg>
