<svg width="326" height="219" viewBox="0 0 326 219" fill="none" xmlns="http://www.w3.org/2000/svg">
<path d="M187.534 117.833L183.56 82.6773L189.805 90.3617L195.86 69.0376L198.699 87.2879L224.625 51.7478L212.324 90.3617L257.174 59.4321L214.973 103.809L239.953 104.962L206.458 114.183L226.895 122.636L187.534 117.833Z" fill="white"/>
<path d="M229.44 67.2389L325.764 0.811194L235.789 95.4265L299.124 98.3495L235.155 115.959L293.755 140.195L179.136 126.21L170.768 52.1826L185.753 70.6222L198.516 25.683L204.422 63.6578L250.859 0L229.44 67.2389ZM198.699 87.2879L195.86 69.0376L189.805 90.3617L183.56 82.6773L187.534 117.833L226.895 122.636L206.458 114.183L239.953 104.962L214.973 103.809L257.174 59.4321L212.324 90.3617L224.625 51.7478L198.699 87.2879Z" fill="black"/>
<path d="M121.409 89.2182C121.452 90.0455 120.816 90.7508 119.988 90.7934C119.161 90.836 118.456 90.1998 118.413 89.3725L119.911 89.2953L121.409 89.2182ZM164.104 57.6414C164.585 58.3163 164.427 59.2529 163.752 59.7334L152.755 67.563C152.08 68.0435 151.143 67.8859 150.663 67.211C150.182 66.5362 150.34 65.5996 151.015 65.1191L160.79 58.1594L153.831 48.3838C153.35 47.7089 153.508 46.7724 154.183 46.2919C154.857 45.8114 155.794 45.969 156.275 46.6439L164.104 57.6414ZM119.911 89.2953L118.413 89.3725C118.07 82.7058 119.884 73.0572 126.564 65.8236C133.323 58.5056 144.79 53.9461 163.131 57.0322L162.882 58.5114L162.633 59.9906C145.018 57.0266 134.671 61.4679 128.768 67.859C122.788 74.3343 121.094 83.1027 121.409 89.2182L119.911 89.2953Z" fill="black"/>
<rect width="190" height="122" rx="20" transform="matrix(1 0 0 -1 0 218.017)" fill="#D92228"/>
<circle cx="95.0386" cy="156.086" r="30.0698" fill="#F8F7F7"/>
<path d="M103.635 153.132C105.197 154.129 105.197 156.41 103.635 157.408L90.5877 165.744C88.8988 166.823 86.6846 165.61 86.6846 163.606L86.6846 146.934C86.6846 144.93 88.8988 143.717 90.5877 144.796L103.635 153.132Z" fill="#1A1816"/>
</svg>
