<svg width="809" height="553" viewBox="0 0 809 553" fill="none" xmlns="http://www.w3.org/2000/svg">
<path d="M15.5 0.5H793.5C801.857 0.5 808.5 6.32004 808.5 13.3486V539.548C808.5 546.576 801.857 552.396 793.5 552.396H15.5C7.14347 552.396 0.500076 546.576 0.5 539.548V13.3486C0.500066 6.32004 7.14345 0.5 15.5 0.5Z" fill="white" stroke="#D3CFCA"/>
<path fill-rule="evenodd" clip-rule="evenodd" d="M59.5 55.5C59.5 59.9183 55.918 63.5 51.5 63.5C47.082 63.5 43.5 59.9183 43.5 55.5C43.5 51.0818 47.082 47.5 51.5 47.5C55.918 47.5 59.5 51.0818 59.5 55.5ZM61.5 55.5C61.5 61.0229 57.023 65.5 51.5 65.5C45.977 65.5 41.5 61.0229 41.5 55.5C41.5 49.9772 45.977 45.5 51.5 45.5C57.023 45.5 61.5 49.9772 61.5 55.5ZM50.03 59.5438C49.364 59.9601 48.5 59.4812 48.5 58.6958V52.3043C48.5 51.5189 49.364 51.04 50.03 51.4563L55.143 54.652C55.77 55.0437 55.77 55.9564 55.143 56.348L50.03 59.5438Z" fill="#1A1816"/>
<path d="M88.7582 47.4195L81.8222 63.4995H78.6782L71.7422 47.4195H75.3422L80.2382 59.1315L85.1582 47.4195H88.7582ZM92.1782 46.0515C93.2822 46.0515 94.0982 46.9395 94.0982 47.9475C94.0982 49.0035 93.2822 49.7955 92.1782 49.7955C91.0502 49.7955 90.2582 49.0035 90.2582 47.9475C90.2582 46.9395 91.0502 46.0515 92.1782 46.0515ZM93.7622 63.4995H90.5942V51.5235H93.7622V63.4995ZM109.102 45.0195V63.4995H105.934V62.4675C104.974 63.3555 103.654 63.8595 101.974 63.8595C98.9262 63.8595 96.0942 61.2915 96.0942 57.5235C96.0942 53.7555 98.9262 51.1635 101.974 51.1635C103.654 51.1635 104.974 51.6675 105.934 52.5555V45.0195H109.102ZM102.526 61.0995C104.23 61.0995 105.934 59.7315 105.934 57.5235C105.934 55.3155 104.23 53.9235 102.526 53.9235C100.606 53.9235 99.1662 55.3155 99.1662 57.5235C99.1662 59.7315 100.606 61.0995 102.526 61.0995ZM123.516 57.2835V58.3635H114.396C114.708 60.0915 115.932 61.1475 117.396 61.1475C118.332 61.1475 119.508 61.0275 120.372 59.5635L123.204 60.1635C122.148 62.6595 120.012 63.8595 117.396 63.8595C114.012 63.8595 111.252 61.2915 111.252 57.5235C111.252 53.7555 114.012 51.1635 117.444 51.1635C120.636 51.1635 123.396 53.6355 123.516 57.2835ZM117.444 53.9235C116.244 53.9235 114.876 54.6435 114.492 56.1315H120.276C119.868 54.5955 118.716 53.9235 117.444 53.9235ZM131.251 51.2355C134.755 51.2355 137.707 53.7555 137.707 57.5235C137.707 61.2915 134.755 63.8115 131.251 63.8115C127.675 63.8115 124.723 61.2915 124.723 57.5235C124.723 53.7555 127.675 51.2355 131.251 51.2355ZM131.251 61.0995C132.907 61.0995 134.635 59.7555 134.635 57.5235C134.635 55.2915 132.907 53.9475 131.251 53.9475C129.523 53.9475 127.795 55.2915 127.795 57.5235C127.795 59.7555 129.523 61.0995 131.251 61.0995Z" fill="#1A1816"/>
<mask id="path-4-inside-1_304_12042" fill="white">
<path d="M721.5 55.5C721.5 42.2452 732.245 31.5 745.5 31.5V31.5C758.755 31.5 769.5 42.2452 769.5 55.5V55.5C769.5 68.7548 758.755 79.5 745.5 79.5V79.5C732.245 79.5 721.5 68.7548 721.5 55.5V55.5Z"/>
</mask>
<path d="M721.5 55.5C721.5 42.2452 732.245 31.5 745.5 31.5V31.5C758.755 31.5 769.5 42.2452 769.5 55.5V55.5C769.5 68.7548 758.755 79.5 745.5 79.5V79.5C732.245 79.5 721.5 68.7548 721.5 55.5V55.5Z" fill="white"/>
<path d="M721.5 55.5M769.5 55.5M769.5 55.5M721.5 55.5M745.5 31.5M769.5 55.5M745.5 79.5M721.5 55.5M745.5 79.5V78.5C732.797 78.5 722.5 68.2025 722.5 55.5H721.5H720.5C720.5 69.3071 731.693 80.5 745.5 80.5V79.5ZM769.5 55.5H768.5C768.5 68.2025 758.203 78.5 745.5 78.5V79.5V80.5C759.307 80.5 770.5 69.3071 770.5 55.5H769.5ZM745.5 31.5V32.5C758.203 32.5 768.5 42.7975 768.5 55.5H769.5H770.5C770.5 41.6929 759.307 30.5 745.5 30.5V31.5ZM745.5 31.5V30.5C731.693 30.5 720.5 41.6929 720.5 55.5H721.5H722.5C722.5 42.7975 732.797 32.5 745.5 32.5V31.5Z" fill="#D3CFCA" mask="url(#path-4-inside-1_304_12042)"/>
<path d="M748.5 63.5C748.5 61.8431 747.157 60.5 745.5 60.5C743.843 60.5 742.5 61.8431 742.5 63.5C742.5 65.1569 743.843 66.5 745.5 66.5C747.157 66.5 748.5 65.1569 748.5 63.5Z" fill="#1A1816"/>
<path d="M745.5 52.5C747.157 52.5 748.5 53.8431 748.5 55.5C748.5 57.1569 747.157 58.5 745.5 58.5C743.843 58.5 742.5 57.1569 742.5 55.5C742.5 53.8431 743.843 52.5 745.5 52.5Z" fill="#1A1816"/>
<path d="M745.5 44.5C747.157 44.5 748.5 45.8431 748.5 47.5C748.5 49.1569 747.157 50.5 745.5 50.5C743.843 50.5 742.5 49.1569 742.5 47.5C742.5 45.8431 743.843 44.5 745.5 44.5Z" fill="#1A1816"/>
<path d="M769.418 103.611H39.418V514.611H769.418V103.611Z" fill="black"/>
<g clip-path="url(#clip0_304_12042)">
<g filter="url(#filter0_d_304_12042)">
<path d="M336.758 332.694L419.523 365.038L341.742 372.915L394.88 455.085L324.592 402.695L346.468 499.497L303.306 427.589L258.89 515.632L257.298 427.999L169.72 444.134L251.404 396.011L165.511 364.243L254.544 364.78L174.935 310.073L266.382 345.659L220.587 272.623L296.878 340.041L279.63 246.419L336.758 332.694Z" fill="#CBEE4C"/>
</g>
<path d="M605.068 239.921L534.906 305.858L563.4 226.08L458.285 239.838L542.25 195.439L437.368 171.795L527.802 163.024L462.343 78.5868L548.814 117.812L573.789 24.6036L582.85 126.932L653.903 57.6657L611.942 144.538L702.511 92.0973L625.137 165.022L717.901 154.199L616.441 197.478L716.057 224.17L605.068 239.921Z" fill="#FC0D55"/>
<path fill-rule="evenodd" clip-rule="evenodd" d="M278.43 165.264C269.426 174.228 257.017 177.683 245.388 175.639C247.38 187.277 243.871 199.671 234.868 208.635C225.864 217.6 213.455 221.055 201.825 219.01C203.819 230.648 200.31 243.043 191.306 252.007C182.303 260.971 169.893 264.426 158.263 262.382C160.257 274.021 156.747 286.414 147.743 295.378C138.74 304.344 126.331 307.798 114.701 305.753C116.695 317.392 113.185 329.787 104.182 338.751C89.4789 353.389 65.6939 353.336 51.0556 338.634C36.4171 323.932 36.4692 300.146 51.172 285.508C60.1756 276.544 72.5851 273.089 84.2147 275.133C82.2212 263.495 85.7304 251.101 94.734 242.136C103.738 233.172 116.147 229.717 127.777 231.762C125.784 220.123 129.293 207.729 138.296 198.765C147.3 189.801 159.709 186.346 171.339 188.39C169.345 176.751 172.855 164.357 181.858 155.393C190.861 146.429 203.272 142.974 214.901 145.018C212.907 133.38 216.417 120.986 225.421 112.021C240.123 97.383 263.908 97.4351 278.547 112.138C293.185 126.841 293.133 150.626 278.43 165.264Z" fill="url(#paint0_radial_304_12042)"/>
<path d="M652.571 272.493L664.378 352.57L699.273 279.53L686.943 359.528L741.825 300.014L706.455 372.826L776.446 332.127L721.179 391.282L800.061 373.013L729.806 413.256L810.57 419.041L731.57 436.795L807.041 466.121L726.316 459.811L789.786 510.07L714.509 480.254L760.339 546.982L697.198 496.309L721.316 573.578L675.922 506.552L676.186 587.493L652.571 510.07L628.956 587.493L629.22 506.552L583.825 573.578L607.944 496.309L544.802 546.982L590.633 480.254L515.355 510.07L578.825 459.811L498.1 466.121L573.57 436.795L494.57 419.041L575.335 413.256L505.08 373.013L583.963 391.282L528.695 332.127L598.686 372.826L563.316 300.014L618.198 359.528L605.869 279.53L640.764 352.57L652.571 272.493Z" fill="url(#paint1_radial_304_12042)"/>
</g>
<rect opacity="0.6" x="41.418" y="103.611" width="728.164" height="411" fill="black"/>
<path fill-rule="evenodd" clip-rule="evenodd" d="M400.796 333.467C415.523 333.467 427.462 321.528 427.462 306.801C427.462 292.073 415.523 280.134 400.796 280.134C386.068 280.134 374.129 292.073 374.129 306.801C374.129 321.528 386.068 333.467 400.796 333.467ZM396.876 317.584C395.099 318.694 392.796 317.417 392.796 315.323V298.279C392.796 296.184 395.099 294.907 396.876 296.017L410.511 304.539C412.182 305.584 412.182 308.018 410.511 309.062L396.876 317.584Z" fill="white"/>
<path d="M51.418 130.389C51.418 123.761 56.7906 118.389 63.418 118.389H222.418C229.045 118.389 234.418 123.761 234.418 130.389V130.389C234.418 137.016 229.045 142.389 222.418 142.389H63.418C56.7905 142.389 51.418 137.016 51.418 130.389V130.389Z" fill="#E9E7E4"/>
<path fill-rule="evenodd" clip-rule="evenodd" d="M67.4173 127.722C65.9445 127.722 64.7506 128.916 64.7506 130.388C64.7506 131.861 65.9445 133.055 67.4173 133.055C68.8901 133.055 70.084 131.861 70.084 130.388C70.084 128.916 68.8901 127.722 67.4173 127.722ZM66.084 130.388C66.084 129.652 66.6809 129.055 67.4173 129.055C68.1537 129.055 68.7506 129.652 68.7506 130.388C68.7506 131.125 68.1537 131.722 67.4173 131.722C66.6809 131.722 66.084 131.125 66.084 130.388Z" fill="#1A1816"/>
<path fill-rule="evenodd" clip-rule="evenodd" d="M67.4173 125.722C64.5611 125.722 62.0779 127.326 60.9958 129.662C60.7826 130.123 60.7826 130.654 60.9958 131.114C62.0779 133.451 64.5611 135.055 67.4173 135.055C70.2735 135.055 72.7567 133.451 73.8387 131.114C74.052 130.654 74.052 130.123 73.8387 129.662C72.7567 127.326 70.2735 125.722 67.4173 125.722ZM62.2058 130.223C63.0594 128.379 65.0561 127.055 67.4173 127.055C69.7785 127.055 71.7752 128.379 72.6288 130.223C72.6775 130.328 72.6775 130.449 72.6288 130.554C71.7752 132.398 69.7785 133.722 67.4173 133.722C65.0561 133.722 63.0594 132.398 62.2058 130.554C62.1571 130.449 62.1571 130.328 62.2058 130.223Z" fill="#1A1816"/>
<path d="M91.1971 126.349L88.7851 134.389H87.4171L85.6171 128.413L83.8051 134.389H82.4371L80.0371 126.349H81.3811L83.1451 132.409L84.9931 126.349H86.2291L88.0771 132.409L89.8411 126.349H91.1971ZM94.2442 128.269C95.7682 128.269 96.7762 129.073 96.7762 130.513V134.389H95.5882V133.705C95.1442 134.197 94.4842 134.557 93.5602 134.557C92.2282 134.557 91.3402 133.789 91.3402 132.673C91.3402 131.557 92.1922 130.789 93.7282 130.789H95.5882V130.609C95.5882 129.841 95.0722 129.361 94.3162 129.361C93.5122 129.361 92.9962 129.721 92.8642 130.393L91.6762 130.141C91.8802 129.025 92.9122 128.269 94.2442 128.269ZM93.7522 133.549C94.7482 133.549 95.5882 132.853 95.5882 131.941V131.749H93.7042C92.9722 131.749 92.5402 132.121 92.5402 132.649C92.5402 133.189 93.0202 133.549 93.7522 133.549ZM101.923 128.365C102.067 128.365 102.187 128.365 102.343 128.413L102.259 129.613C102.163 129.601 102.019 129.601 101.911 129.601C100.399 129.601 99.655 130.657 99.655 132.289V134.389H98.407V128.437H99.655V129.709C100.135 128.917 100.891 128.365 101.923 128.365ZM106.758 128.269C108.186 128.269 109.146 129.301 109.146 130.789V134.389H107.886V131.041C107.886 130.069 107.322 129.421 106.47 129.421C105.402 129.421 104.694 130.141 104.694 131.641V134.389H103.446V128.437H104.694V129.169C105.174 128.593 105.87 128.269 106.758 128.269ZM111.607 125.869C112.063 125.869 112.399 126.229 112.399 126.649C112.399 127.093 112.063 127.417 111.607 127.417C111.139 127.417 110.803 127.093 110.803 126.649C110.803 126.229 111.139 125.869 111.607 125.869ZM112.231 134.389H110.983V128.437H112.231V134.389ZM117.528 128.269C118.956 128.269 119.916 129.301 119.916 130.789V134.389H118.656V131.041C118.656 130.069 118.092 129.421 117.24 129.421C116.172 129.421 115.464 130.141 115.464 131.641V134.389H114.216V128.437H115.464V129.169C115.944 128.593 116.64 128.269 117.528 128.269ZM127.513 128.437V134.581C127.501 136.345 126.097 137.389 124.261 137.389C122.833 137.389 121.849 136.849 121.357 135.961L122.389 135.121C122.821 135.805 123.325 136.165 124.261 136.165C125.365 136.165 126.253 135.529 126.253 134.401V133.657C125.749 134.233 125.017 134.557 124.093 134.557C122.545 134.557 121.141 133.297 121.141 131.413C121.141 129.541 122.545 128.269 124.093 128.269C125.017 128.269 125.749 128.605 126.253 129.169V128.437H127.513ZM124.297 133.453C125.293 133.453 126.253 132.673 126.253 131.413C126.253 130.165 125.293 129.373 124.297 129.373C123.217 129.373 122.365 130.165 122.365 131.413C122.365 132.673 123.217 133.453 124.297 133.453ZM129.775 128.713C130.231 128.713 130.555 129.061 130.555 129.469C130.555 129.901 130.231 130.225 129.775 130.225C129.319 130.225 128.983 129.901 128.983 129.469C128.983 129.061 129.319 128.713 129.775 128.713ZM129.775 132.913C130.231 132.913 130.555 133.261 130.555 133.669C130.555 134.101 130.231 134.437 129.775 134.437C129.319 134.437 128.983 134.101 128.983 133.669C128.983 133.261 129.319 132.913 129.775 132.913ZM135.005 126.349H138.629C140.405 126.349 141.521 127.405 141.521 128.941C141.521 130.501 140.405 131.557 138.629 131.557H136.289V134.389H135.005V126.349ZM136.289 130.381H138.629C139.637 130.381 140.237 129.805 140.237 128.941C140.237 128.113 139.637 127.513 138.629 127.513H136.289V130.381ZM146.215 128.269C147.643 128.269 148.603 129.301 148.603 130.789V134.389H147.343V131.041C147.343 130.069 146.779 129.421 145.927 129.421C144.859 129.421 144.151 130.141 144.151 131.641V134.389H142.903V125.149H144.151V129.169C144.631 128.593 145.327 128.269 146.215 128.269ZM153.044 128.305C154.796 128.305 156.224 129.565 156.224 131.413C156.224 133.261 154.796 134.533 153.044 134.533C151.28 134.533 149.84 133.261 149.84 131.413C149.84 129.565 151.28 128.305 153.044 128.305ZM153.044 133.453C154.064 133.453 155.012 132.649 155.012 131.413C155.012 130.177 154.064 129.373 153.044 129.373C152 129.373 151.064 130.177 151.064 131.413C151.064 132.649 152 133.453 153.044 133.453ZM161.198 133.057L161.582 134.101C161.018 134.437 160.61 134.557 160.106 134.557C158.822 134.557 157.958 133.837 157.958 132.361V129.469H156.674V128.437H157.958V126.349H159.206V128.437H161.246V129.469H159.206V132.277C159.206 133.021 159.602 133.381 160.19 133.381C160.502 133.381 160.886 133.261 161.198 133.057ZM165.126 128.305C166.878 128.305 168.306 129.565 168.306 131.413C168.306 133.261 166.878 134.533 165.126 134.533C163.362 134.533 161.922 133.261 161.922 131.413C161.922 129.565 163.362 128.305 165.126 128.305ZM165.126 133.453C166.146 133.453 167.094 132.649 167.094 131.413C167.094 130.177 166.146 129.373 165.126 129.373C164.082 129.373 163.146 130.177 163.146 131.413C163.146 132.649 164.082 133.453 165.126 133.453ZM173.622 131.869H169.71V130.789H173.622V131.869ZM174.79 132.793L176.038 132.529C176.122 133.237 176.746 133.537 177.526 133.537C178.246 133.537 178.702 133.213 178.702 132.745C178.702 132.385 178.45 132.157 177.898 132.037L176.602 131.773C175.57 131.545 174.982 130.993 174.982 130.153C174.982 129.049 175.906 128.269 177.334 128.269C178.702 128.269 179.626 128.989 179.842 129.985L178.654 130.237C178.558 129.661 178.066 129.265 177.298 129.265C176.566 129.265 176.242 129.625 176.242 130.045C176.242 130.381 176.434 130.597 176.962 130.717L178.378 131.029C179.338 131.233 179.926 131.797 179.926 132.637C179.926 133.885 178.906 134.557 177.418 134.557C176.086 134.557 174.946 133.993 174.79 132.793ZM186.885 131.281V131.713H182.061C182.181 132.817 182.985 133.477 183.861 133.477C184.521 133.477 185.193 133.285 185.613 132.445L186.729 132.685C186.237 133.933 185.181 134.557 183.861 134.557C182.241 134.557 180.825 133.309 180.825 131.425C180.825 129.529 182.229 128.269 183.909 128.269C185.505 128.269 186.825 129.493 186.885 131.281ZM183.909 129.373C183.129 129.373 182.289 129.865 182.097 130.825H185.601C185.409 129.853 184.725 129.373 183.909 129.373ZM191.578 128.269C193.006 128.269 193.966 129.301 193.966 130.789V134.389H192.706V131.041C192.706 130.069 192.142 129.421 191.29 129.421C190.222 129.421 189.514 130.141 189.514 131.641V134.389H188.266V128.437H189.514V129.169C189.994 128.593 190.69 128.269 191.578 128.269ZM195.204 132.793L196.452 132.529C196.536 133.237 197.16 133.537 197.94 133.537C198.66 133.537 199.116 133.213 199.116 132.745C199.116 132.385 198.864 132.157 198.312 132.037L197.016 131.773C195.984 131.545 195.396 130.993 195.396 130.153C195.396 129.049 196.32 128.269 197.748 128.269C199.116 128.269 200.04 128.989 200.256 129.985L199.068 130.237C198.972 129.661 198.48 129.265 197.712 129.265C196.98 129.265 196.656 129.625 196.656 130.045C196.656 130.381 196.848 130.597 197.376 130.717L198.792 131.029C199.752 131.233 200.34 131.797 200.34 132.637C200.34 133.885 199.32 134.557 197.832 134.557C196.5 134.557 195.36 133.993 195.204 132.793ZM202.475 125.869C202.931 125.869 203.267 126.229 203.267 126.649C203.267 127.093 202.931 127.417 202.475 127.417C202.007 127.417 201.671 127.093 201.671 126.649C201.671 126.229 202.007 125.869 202.475 125.869ZM203.099 134.389H201.851V128.437H203.099V134.389ZM208.659 133.057L209.043 134.101C208.479 134.437 208.071 134.557 207.567 134.557C206.283 134.557 205.419 133.837 205.419 132.361V129.469H204.135V128.437H205.419V126.349H206.667V128.437H208.707V129.469H206.667V132.277C206.667 133.021 207.063 133.381 207.651 133.381C207.963 133.381 208.347 133.261 208.659 133.057ZM210.772 125.869C211.228 125.869 211.564 126.229 211.564 126.649C211.564 127.093 211.228 127.417 210.772 127.417C210.304 127.417 209.968 127.093 209.968 126.649C209.968 126.229 210.304 125.869 210.772 125.869ZM211.396 134.389H210.148V128.437H211.396V134.389ZM219.056 128.425L216.488 134.389H215.156L212.6 128.425H213.956L215.828 132.901L217.7 128.425H219.056ZM225.533 131.281V131.713H220.709C220.829 132.817 221.633 133.477 222.509 133.477C223.169 133.477 223.841 133.285 224.261 132.445L225.377 132.685C224.885 133.933 223.829 134.557 222.509 134.557C220.889 134.557 219.473 133.309 219.473 131.425C219.473 129.529 220.877 128.269 222.557 128.269C224.153 128.269 225.473 129.493 225.533 131.281ZM222.557 129.373C221.777 129.373 220.937 129.865 220.745 130.825H224.249C224.057 129.853 223.373 129.373 222.557 129.373Z" fill="#1A1816"/>
<defs>
<filter id="filter0_d_304_12042" x="159.512" y="246.419" width="274.012" height="289.213" filterUnits="userSpaceOnUse" color-interpolation-filters="sRGB">
<feFlood flood-opacity="0" result="BackgroundImageFix"/>
<feColorMatrix in="SourceAlpha" type="matrix" values="0 0 0 0 0 0 0 0 0 0 0 0 0 0 0 0 0 0 127 0" result="hardAlpha"/>
<feOffset dx="4" dy="10"/>
<feGaussianBlur stdDeviation="5"/>
<feComposite in2="hardAlpha" operator="out"/>
<feColorMatrix type="matrix" values="0 0 0 0 0.321569 0 0 0 0 0.72549 0 0 0 0 0.854902 0 0 0 1 0"/>
<feBlend mode="normal" in2="BackgroundImageFix" result="effect1_dropShadow_304_12042"/>
<feBlend mode="normal" in="SourceGraphic" in2="effect1_dropShadow_304_12042" result="shape"/>
</filter>
<radialGradient id="paint0_radial_304_12042" cx="0" cy="0" r="1" gradientUnits="userSpaceOnUse" gradientTransform="translate(164.801 225.386) rotate(90.1256) scale(124.5)">
<stop stop-color="#56CCF2"/>
<stop offset="1" stop-color="#004B4B"/>
</radialGradient>
<radialGradient id="paint1_radial_304_12042" cx="0" cy="0" r="1" gradientUnits="userSpaceOnUse" gradientTransform="translate(652.57 429.993) rotate(90) scale(157.5 158)">
<stop stop-color="#FF0055"/>
<stop offset="1" stop-color="#CBEE4C"/>
</radialGradient>
<clipPath id="clip0_304_12042">
<rect width="730" height="411" fill="white" transform="translate(39.582 103.389)"/>
</clipPath>
</defs>
</svg>
