<svg width="733" height="280" viewBox="0 0 733 280" fill="none" xmlns="http://www.w3.org/2000/svg">
<path d="M12 0.5H721C727.351 0.5 732.5 5.64873 732.5 12V268C732.5 274.351 727.351 279.5 721 279.5H12C5.64873 279.5 0.5 274.351 0.5 268V12L0.514648 11.4082C0.822654 5.33195 5.8472 0.5 12 0.5Z" fill="white"/>
<path d="M12 0.5H721C727.351 0.5 732.5 5.64873 732.5 12V268C732.5 274.351 727.351 279.5 721 279.5H12C5.64873 279.5 0.5 274.351 0.5 268V12L0.514648 11.4082C0.822654 5.33195 5.8472 0.5 12 0.5Z" stroke="#D3CFCA"/>
<path d="M47.584 45.56C50.848 45.56 53.32 47.336 53.944 50.192L50.68 50.864C50.44 49.352 49.12 48.368 47.512 48.368C45.88 48.368 44.896 49.28 44.896 50.36C44.896 51.176 45.256 51.752 46.504 51.992L49.96 52.688C52.576 53.24 54.184 54.8 54.184 57.296C54.184 60.416 51.616 62.36 47.8 62.36C44.44 62.36 41.488 60.8 41.08 57.584L44.512 56.888C44.944 58.712 46.288 59.504 48.112 59.504C49.984 59.504 50.968 58.616 50.968 57.464C50.968 56.552 50.536 56 49.096 55.712L45.688 55.064C43.768 54.656 41.464 53.6 41.464 50.456C41.464 47.576 43.816 45.56 47.584 45.56ZM68.119 55.784V56.864H58.999C59.311 58.592 60.535 59.648 61.999 59.648C62.935 59.648 64.111 59.528 64.975 58.064L67.807 58.664C66.751 61.16 64.615 62.36 61.999 62.36C58.615 62.36 55.855 59.792 55.855 56.024C55.855 52.256 58.615 49.664 62.047 49.664C65.239 49.664 67.999 52.136 68.119 55.784ZM62.047 52.424C60.847 52.424 59.479 53.144 59.095 54.632H64.879C64.471 53.096 63.319 52.424 62.047 52.424ZM75.7339 59.456C77.1259 59.456 78.2539 58.784 78.8059 57.128L81.7339 57.872C81.0619 60.608 78.5899 62.36 75.7339 62.36C72.2299 62.36 69.3259 59.792 69.3259 56.024C69.3259 52.256 72.2299 49.664 75.7339 49.664C78.5179 49.664 80.9419 51.392 81.7339 54.08L78.6859 54.944C78.2539 53.264 77.1259 52.568 75.7339 52.568C73.7419 52.568 72.3979 53.984 72.3979 56.024C72.3979 58.088 73.7419 59.456 75.7339 59.456ZM95.3215 50.024V62H92.1535V60.92C91.2175 61.856 89.9695 62.36 88.3855 62.36C85.5055 62.36 83.5855 60.296 83.5855 57.32V50.024H86.7535V56.648C86.7535 58.328 87.7135 59.456 89.1775 59.456C90.9775 59.456 92.1535 58.256 92.1535 55.328V50.024H95.3215ZM105.911 49.856C106.223 49.856 106.463 49.856 106.751 49.952L106.583 53H105.887C102.959 53 101.615 54.8 101.615 58.136V62H98.4466V50.024H101.615V52.208C102.575 50.816 103.967 49.856 105.911 49.856ZM110.248 44.552C111.352 44.552 112.168 45.44 112.168 46.448C112.168 47.504 111.352 48.296 110.248 48.296C109.12 48.296 108.328 47.504 108.328 46.448C108.328 45.44 109.12 44.552 110.248 44.552ZM111.832 62H108.664V50.024H111.832V62ZM122.923 58.832L123.835 61.472C122.587 62.144 121.723 62.36 120.715 62.36C117.883 62.36 116.011 60.872 116.011 57.584V52.616H113.443V50.024H116.011V45.92H119.179V50.024H123.091V52.616H119.179V57.344C119.179 58.784 119.875 59.408 120.931 59.408C121.483 59.408 122.299 59.168 122.923 58.832ZM137.385 50L129.705 67.76H126.177L128.817 61.64L123.849 50H127.377L130.545 57.68L133.857 50H137.385ZM152.461 58.832L153.373 61.472C152.125 62.144 151.261 62.36 150.253 62.36C147.421 62.36 145.549 60.872 145.549 57.584V52.616H142.981V50.024H145.549V45.92H148.717V50.024H152.629V52.616H148.717V57.344C148.717 58.784 149.413 59.408 150.469 59.408C151.021 59.408 151.837 59.168 152.461 58.832ZM160.16 49.736C163.664 49.736 166.616 52.256 166.616 56.024C166.616 59.792 163.664 62.312 160.16 62.312C156.584 62.312 153.632 59.792 153.632 56.024C153.632 52.256 156.584 49.736 160.16 49.736ZM160.16 59.6C161.816 59.6 163.544 58.256 163.544 56.024C163.544 53.792 161.816 52.448 160.16 52.448C158.432 52.448 156.704 53.792 156.704 56.024C156.704 58.256 158.432 59.6 160.16 59.6ZM181.895 62H177.911L173.927 57.464L171.935 59.672V62H168.767V43.52H171.935V55.448L176.975 50.024H180.671L176.015 55.184L181.895 62ZM193.916 55.784V56.864H184.796C185.108 58.592 186.332 59.648 187.796 59.648C188.732 59.648 189.908 59.528 190.772 58.064L193.604 58.664C192.548 61.16 190.412 62.36 187.796 62.36C184.412 62.36 181.652 59.792 181.652 56.024C181.652 52.256 184.412 49.664 187.844 49.664C191.036 49.664 193.796 52.136 193.916 55.784ZM187.844 52.424C186.644 52.424 185.276 53.144 184.892 54.632H190.676C190.268 53.096 189.116 52.424 187.844 52.424ZM203.019 49.664C205.899 49.664 207.819 51.728 207.819 54.704V62H204.651V55.376C204.651 53.696 203.691 52.568 202.227 52.568C200.427 52.568 199.251 53.768 199.251 56.696V62H196.083V50.024H199.251V51.104C200.187 50.168 201.435 49.664 203.019 49.664Z" fill="#1A1816"/>
<path d="M48.428 78.614H44.956V87H43.836V78.614H40.35V77.62H48.428V78.614ZM53.6773 79.93C55.3433 79.93 56.4493 81.12 56.4493 82.87V87H55.3853V83.066C55.3853 81.778 54.6153 80.91 53.4673 80.91C52.0253 80.91 51.0733 81.89 51.0733 83.682V87H50.0093V76.22H51.0733V81.246C51.6333 80.406 52.5153 79.93 53.6773 79.93ZM65.0873 83.374V83.766H59.1653C59.2633 85.32 60.4393 86.244 61.6293 86.244C62.6093 86.244 63.4913 85.866 63.9813 84.76L64.9333 84.984C64.3873 86.426 63.1833 87.182 61.6293 87.182C59.7953 87.182 58.1293 85.768 58.1293 83.57C58.1293 81.358 59.7953 79.93 61.6993 79.93C63.5613 79.93 65.0173 81.316 65.0873 83.374ZM61.6993 80.868C60.5793 80.868 59.4173 81.61 59.2073 82.968H64.0093C63.8133 81.61 62.8473 80.868 61.6993 80.868ZM74.2428 85.754L74.5928 86.636C74.0328 87.028 73.5568 87.182 72.9968 87.182C71.6248 87.182 70.7148 86.37 70.7148 84.844V80.994H69.2168V80.098H70.7148V77.62H71.7928V80.098H74.2568V80.994H71.7928V84.774C71.7928 85.67 72.2968 86.174 73.0668 86.174C73.4588 86.174 73.8928 86.006 74.2428 85.754ZM78.7915 79.944C80.8215 79.944 82.4455 81.428 82.4455 83.542C82.4455 85.656 80.8215 87.168 78.7915 87.168C76.7335 87.168 75.1235 85.656 75.1235 83.542C75.1235 81.428 76.7335 79.944 78.7915 79.944ZM78.7915 86.23C80.2055 86.23 81.3955 85.138 81.3955 83.542C81.3955 81.96 80.2055 80.882 78.7915 80.882C77.3635 80.882 76.1595 81.96 76.1595 83.542C76.1595 85.138 77.3635 86.23 78.7915 86.23ZM91.2851 87H89.9271L86.9871 83.752L85.3351 85.488V87H84.2711V76.22H85.3351V84.06L89.1851 80.098H90.4731L87.7151 82.996L91.2851 87ZM98.6245 83.374V83.766H92.7025C92.8005 85.32 93.9765 86.244 95.1665 86.244C96.1465 86.244 97.0285 85.866 97.5185 84.76L98.4705 84.984C97.9245 86.426 96.7205 87.182 95.1665 87.182C93.3325 87.182 91.6665 85.768 91.6665 83.57C91.6665 81.358 93.3325 79.93 95.2365 79.93C97.0985 79.93 98.5545 81.316 98.6245 83.374ZM95.2365 80.868C94.1165 80.868 92.9545 81.61 92.7445 82.968H97.5465C97.3505 81.61 96.3845 80.868 95.2365 80.868ZM104.127 79.93C105.793 79.93 106.899 81.12 106.899 82.87V87H105.835V83.066C105.835 81.778 105.065 80.91 103.917 80.91C102.475 80.91 101.523 81.89 101.523 83.682V87H100.459V80.098H101.523V81.246C102.083 80.406 102.965 79.93 104.127 79.93ZM113.366 77.298C113.786 77.298 114.108 77.634 114.108 78.012C114.108 78.418 113.786 78.726 113.366 78.726C112.946 78.726 112.638 78.418 112.638 78.012C112.638 77.634 112.946 77.298 113.366 77.298ZM113.912 87H112.834V80.098H113.912V87ZM115.894 85.138L116.958 84.9C117.056 85.81 117.896 86.3 118.988 86.3C119.982 86.3 120.64 85.838 120.64 85.124C120.64 84.55 120.206 84.284 119.506 84.13L117.924 83.78C116.776 83.542 116.132 82.968 116.132 82.016C116.132 80.77 117.168 79.93 118.75 79.93C120.304 79.93 121.312 80.728 121.564 81.848L120.542 82.072C120.402 81.316 119.744 80.798 118.722 80.798C117.742 80.798 117.196 81.274 117.196 81.932C117.196 82.478 117.574 82.73 118.246 82.884L119.912 83.248C120.92 83.472 121.69 84.004 121.69 85.054C121.69 86.412 120.556 87.182 118.904 87.182C117.322 87.182 116.062 86.482 115.894 85.138ZM133.377 80.098V86.986H132.299V85.866C131.739 86.692 130.843 87.168 129.695 87.168C128.029 87.168 126.923 85.978 126.923 84.228V80.098H128.001V84.032C128.001 85.32 128.757 86.174 129.905 86.174C131.347 86.174 132.299 85.208 132.299 83.416V80.098H133.377ZM135.13 85.138L136.194 84.9C136.292 85.81 137.132 86.3 138.224 86.3C139.218 86.3 139.876 85.838 139.876 85.124C139.876 84.55 139.442 84.284 138.742 84.13L137.16 83.78C136.012 83.542 135.368 82.968 135.368 82.016C135.368 80.77 136.404 79.93 137.986 79.93C139.54 79.93 140.548 80.728 140.8 81.848L139.778 82.072C139.638 81.316 138.98 80.798 137.958 80.798C136.978 80.798 136.432 81.274 136.432 81.932C136.432 82.478 136.81 82.73 137.482 82.884L139.148 83.248C140.156 83.472 140.926 84.004 140.926 85.054C140.926 86.412 139.792 87.182 138.14 87.182C136.558 87.182 135.298 86.482 135.13 85.138ZM149.128 83.374V83.766H143.206C143.304 85.32 144.48 86.244 145.67 86.244C146.65 86.244 147.532 85.866 148.022 84.76L148.974 84.984C148.428 86.426 147.224 87.182 145.67 87.182C143.836 87.182 142.17 85.768 142.17 83.57C142.17 81.358 143.836 79.93 145.74 79.93C147.602 79.93 149.058 81.316 149.128 83.374ZM145.74 80.868C144.62 80.868 143.458 81.61 143.248 82.968H148.05C147.854 81.61 146.888 80.868 145.74 80.868ZM157.584 76.22V87H156.52V85.852C155.918 86.692 154.952 87.182 153.776 87.182C151.942 87.182 150.332 85.74 150.332 83.556C150.332 81.372 151.942 79.93 153.776 79.93C154.952 79.93 155.918 80.42 156.52 81.26V76.22H157.584ZM153.944 86.23C155.246 86.23 156.52 85.194 156.52 83.556C156.52 81.904 155.246 80.868 153.944 80.868C152.516 80.868 151.368 81.904 151.368 83.556C151.368 85.194 152.516 86.23 153.944 86.23ZM167.404 80.994H164.898V87H163.834V80.994H162.63V80.098H163.834V78.474C163.834 77.004 164.758 76.08 166.2 76.08C166.606 76.08 166.984 76.164 167.32 76.318L167.054 77.2C166.802 77.088 166.522 77.032 166.27 77.032C165.43 77.032 164.898 77.592 164.898 78.474V80.098H167.404V80.994ZM171.541 79.944C173.571 79.944 175.195 81.428 175.195 83.542C175.195 85.656 173.571 87.168 171.541 87.168C169.483 87.168 167.873 85.656 167.873 83.542C167.873 81.428 169.483 79.944 171.541 79.944ZM171.541 86.23C172.955 86.23 174.145 85.138 174.145 83.542C174.145 81.96 172.955 80.882 171.541 80.882C170.113 80.882 168.909 81.96 168.909 83.542C168.909 85.138 170.113 86.23 171.541 86.23ZM180.871 80.028C181.039 80.028 181.165 80.028 181.361 80.084L181.277 81.106C181.151 81.092 180.997 81.092 180.871 81.092C179.037 81.092 178.099 82.478 178.099 84.34V87H177.021V80.098H178.099V81.792C178.659 80.77 179.597 80.028 180.871 80.028ZM188.964 79.93C190.686 79.93 191.82 80.854 191.82 82.52V87H190.784V85.95C190.252 86.664 189.384 87.182 188.194 87.182C186.682 87.182 185.688 86.314 185.688 85.068C185.688 83.808 186.654 82.912 188.46 82.912H190.784V82.59C190.784 81.512 190.084 80.868 189.02 80.868C187.97 80.868 187.242 81.386 187.088 82.254L186.066 82.03C186.29 80.784 187.452 79.93 188.964 79.93ZM188.348 86.3C189.692 86.3 190.784 85.362 190.784 84.116V83.752H188.446C187.312 83.752 186.71 84.298 186.71 85.054C186.71 85.782 187.354 86.3 188.348 86.3ZM196.886 85.138L197.95 84.9C198.048 85.81 198.888 86.3 199.98 86.3C200.974 86.3 201.632 85.838 201.632 85.124C201.632 84.55 201.198 84.284 200.498 84.13L198.916 83.78C197.768 83.542 197.124 82.968 197.124 82.016C197.124 80.77 198.16 79.93 199.742 79.93C201.296 79.93 202.304 80.728 202.556 81.848L201.534 82.072C201.394 81.316 200.736 80.798 199.714 80.798C198.734 80.798 198.188 81.274 198.188 81.932C198.188 82.478 198.566 82.73 199.238 82.884L200.904 83.248C201.912 83.472 202.682 84.004 202.682 85.054C202.682 86.412 201.548 87.182 199.896 87.182C198.314 87.182 197.054 86.482 196.886 85.138ZM207.202 79.93C208.924 79.93 210.058 80.854 210.058 82.52V87H209.022V85.95C208.49 86.664 207.622 87.182 206.432 87.182C204.92 87.182 203.926 86.314 203.926 85.068C203.926 83.808 204.892 82.912 206.698 82.912H209.022V82.59C209.022 81.512 208.322 80.868 207.258 80.868C206.208 80.868 205.48 81.386 205.326 82.254L204.304 82.03C204.528 80.784 205.69 79.93 207.202 79.93ZM206.586 86.3C207.93 86.3 209.022 85.362 209.022 84.116V83.752H206.684C205.55 83.752 204.948 84.298 204.948 85.054C204.948 85.782 205.592 86.3 206.586 86.3ZM216.007 80.994H213.501V87H212.437V80.994H211.233V80.098H212.437V78.474C212.437 77.004 213.361 76.08 214.803 76.08C215.209 76.08 215.587 76.164 215.923 76.318L215.657 77.2C215.405 77.088 215.125 77.032 214.873 77.032C214.033 77.032 213.501 77.592 213.501 78.474V80.098H216.007V80.994ZM223.435 83.374V83.766H217.513C217.611 85.32 218.787 86.244 219.977 86.244C220.957 86.244 221.839 85.866 222.329 84.76L223.281 84.984C222.735 86.426 221.531 87.182 219.977 87.182C218.143 87.182 216.477 85.768 216.477 83.57C216.477 81.358 218.143 79.93 220.047 79.93C221.909 79.93 223.365 81.316 223.435 83.374ZM220.047 80.868C218.927 80.868 217.765 81.61 217.555 82.968H222.357C222.161 81.61 221.195 80.868 220.047 80.868ZM229.119 80.028C229.287 80.028 229.413 80.028 229.609 80.084L229.525 81.106C229.399 81.092 229.245 81.092 229.119 81.092C227.285 81.092 226.347 82.478 226.347 84.34V87H225.269V80.098H226.347V81.792C226.907 80.77 227.845 80.028 229.119 80.028ZM237.212 79.93C238.934 79.93 240.068 80.854 240.068 82.52V87H239.032V85.95C238.5 86.664 237.632 87.182 236.442 87.182C234.93 87.182 233.936 86.314 233.936 85.068C233.936 83.808 234.902 82.912 236.708 82.912H239.032V82.59C239.032 81.512 238.332 80.868 237.268 80.868C236.218 80.868 235.49 81.386 235.336 82.254L234.314 82.03C234.538 80.784 235.7 79.93 237.212 79.93ZM236.596 86.3C237.94 86.3 239.032 85.362 239.032 84.116V83.752H236.694C235.56 83.752 234.958 84.298 234.958 85.054C234.958 85.782 235.602 86.3 236.596 86.3ZM245.863 79.93C247.529 79.93 248.635 81.12 248.635 82.87V87H247.571V83.066C247.571 81.778 246.801 80.91 245.653 80.91C244.211 80.91 243.259 81.89 243.259 83.682V87H242.195V80.098H243.259V81.246C243.819 80.406 244.701 79.93 245.863 79.93ZM257.553 76.22V87H256.489V85.852C255.887 86.692 254.921 87.182 253.745 87.182C251.911 87.182 250.301 85.74 250.301 83.556C250.301 81.372 251.911 79.93 253.745 79.93C254.921 79.93 255.887 80.42 256.489 81.26V76.22H257.553ZM253.913 86.23C255.215 86.23 256.489 85.194 256.489 83.556C256.489 81.904 255.215 80.868 253.913 80.868C252.485 80.868 251.337 81.904 251.337 83.556C251.337 85.194 252.485 86.23 253.913 86.23ZM271.922 79.93C273.378 79.93 274.498 80.966 274.498 82.534V87H273.434V82.716C273.434 81.624 272.692 80.91 271.656 80.91C270.382 80.91 269.542 81.848 269.542 83.472V87H268.478V82.716C268.478 81.624 267.736 80.91 266.714 80.91C265.44 80.91 264.614 81.848 264.614 83.472V87H263.55V80.098H264.614V81.148C265.104 80.392 265.888 79.93 266.966 79.93C268.03 79.93 268.912 80.448 269.318 81.33C269.85 80.476 270.746 79.93 271.922 79.93ZM279.836 79.944C281.866 79.944 283.49 81.428 283.49 83.542C283.49 85.656 281.866 87.168 279.836 87.168C277.778 87.168 276.168 85.656 276.168 83.542C276.168 81.428 277.778 79.944 279.836 79.944ZM279.836 86.23C281.25 86.23 282.44 85.138 282.44 83.542C282.44 81.96 281.25 80.882 279.836 80.882C278.408 80.882 277.204 81.96 277.204 83.542C277.204 85.138 278.408 86.23 279.836 86.23ZM289.166 80.028C289.334 80.028 289.46 80.028 289.656 80.084L289.572 81.106C289.446 81.092 289.292 81.092 289.166 81.092C287.332 81.092 286.394 82.478 286.394 84.34V87H285.316V80.098H286.394V81.792C286.954 80.77 287.892 80.028 289.166 80.028ZM297.236 83.374V83.766H291.314C291.412 85.32 292.588 86.244 293.778 86.244C294.758 86.244 295.64 85.866 296.13 84.76L297.082 84.984C296.536 86.426 295.332 87.182 293.778 87.182C291.944 87.182 290.278 85.768 290.278 83.57C290.278 81.358 291.944 79.93 293.848 79.93C295.71 79.93 297.166 81.316 297.236 83.374ZM293.848 80.868C292.728 80.868 291.566 81.61 291.356 82.968H296.158C295.962 81.61 294.996 80.868 293.848 80.868ZM302.009 85.138L303.073 84.9C303.171 85.81 304.011 86.3 305.103 86.3C306.097 86.3 306.755 85.838 306.755 85.124C306.755 84.55 306.321 84.284 305.621 84.13L304.039 83.78C302.891 83.542 302.247 82.968 302.247 82.016C302.247 80.77 303.283 79.93 304.865 79.93C306.419 79.93 307.427 80.728 307.679 81.848L306.657 82.072C306.517 81.316 305.859 80.798 304.837 80.798C303.857 80.798 303.311 81.274 303.311 81.932C303.311 82.478 303.689 82.73 304.361 82.884L306.027 83.248C307.035 83.472 307.805 84.004 307.805 85.054C307.805 86.412 306.671 87.182 305.019 87.182C303.437 87.182 302.177 86.482 302.009 85.138ZM316.007 83.374V83.766H310.085C310.183 85.32 311.359 86.244 312.549 86.244C313.529 86.244 314.411 85.866 314.901 84.76L315.853 84.984C315.307 86.426 314.103 87.182 312.549 87.182C310.715 87.182 309.049 85.768 309.049 83.57C309.049 81.358 310.715 79.93 312.619 79.93C314.481 79.93 315.937 81.316 316.007 83.374ZM312.619 80.868C311.499 80.868 310.337 81.61 310.127 82.968H314.929C314.733 81.61 313.767 80.868 312.619 80.868ZM320.809 86.188C321.831 86.188 322.727 85.642 323.091 84.634L324.071 84.9C323.665 86.272 322.335 87.182 320.809 87.182C318.863 87.182 317.211 85.754 317.211 83.556C317.211 81.386 318.863 79.93 320.809 79.93C322.321 79.93 323.637 80.812 324.085 82.226L323.063 82.534C322.727 81.47 321.831 80.91 320.809 80.91C319.395 80.91 318.247 81.974 318.247 83.556C318.247 85.166 319.395 86.188 320.809 86.188ZM332.194 80.098V86.986H331.116V85.866C330.556 86.692 329.66 87.168 328.512 87.168C326.846 87.168 325.74 85.978 325.74 84.228V80.098H326.818V84.032C326.818 85.32 327.574 86.174 328.722 86.174C330.164 86.174 331.116 85.208 331.116 83.416V80.098H332.194ZM338.494 80.028C338.662 80.028 338.788 80.028 338.984 80.084L338.9 81.106C338.774 81.092 338.62 81.092 338.494 81.092C336.66 81.092 335.722 82.478 335.722 84.34V87H334.644V80.098H335.722V81.792C336.282 80.77 337.22 80.028 338.494 80.028ZM346.564 83.374V83.766H340.642C340.74 85.32 341.916 86.244 343.106 86.244C344.086 86.244 344.968 85.866 345.458 84.76L346.41 84.984C345.864 86.426 344.66 87.182 343.106 87.182C341.272 87.182 339.606 85.768 339.606 83.57C339.606 81.358 341.272 79.93 343.176 79.93C345.038 79.93 346.494 81.316 346.564 83.374ZM343.176 80.868C342.056 80.868 340.894 81.61 340.684 82.968H345.486C345.29 81.61 344.324 80.868 343.176 80.868ZM361.207 80.098L358.883 87.028H357.889L356.083 81.792L354.263 87.028H353.269L350.945 80.098H352.023L353.801 85.446L355.649 80.098H356.503L358.351 85.446L360.129 80.098H361.207ZM365.085 79.93C366.807 79.93 367.941 80.854 367.941 82.52V87H366.905V85.95C366.373 86.664 365.505 87.182 364.315 87.182C362.803 87.182 361.809 86.314 361.809 85.068C361.809 83.808 362.775 82.912 364.581 82.912H366.905V82.59C366.905 81.512 366.205 80.868 365.141 80.868C364.091 80.868 363.363 81.386 363.209 82.254L362.187 82.03C362.411 80.784 363.573 79.93 365.085 79.93ZM364.469 86.3C365.813 86.3 366.905 85.362 366.905 84.116V83.752H364.567C363.433 83.752 362.831 84.298 362.831 85.054C362.831 85.782 363.475 86.3 364.469 86.3ZM376.261 80.098L371.585 90.36H370.395L371.977 86.902L368.883 80.098H370.087L372.551 85.614L375.071 80.098H376.261ZM385.073 85.754L385.423 86.636C384.863 87.028 384.387 87.182 383.827 87.182C382.455 87.182 381.545 86.37 381.545 84.844V80.994H380.047V80.098H381.545V77.62H382.623V80.098H385.087V80.994H382.623V84.774C382.623 85.67 383.127 86.174 383.897 86.174C384.289 86.174 384.723 86.006 385.073 85.754ZM389.622 79.944C391.652 79.944 393.276 81.428 393.276 83.542C393.276 85.656 391.652 87.168 389.622 87.168C387.564 87.168 385.954 85.656 385.954 83.542C385.954 81.428 387.564 79.944 389.622 79.944ZM389.622 86.23C391.036 86.23 392.226 85.138 392.226 83.542C392.226 81.96 391.036 80.882 389.622 80.882C388.194 80.882 386.99 81.96 386.99 83.542C386.99 85.138 388.194 86.23 389.622 86.23ZM399.692 87H398.628V76.22H399.692V87ZM405.194 79.944C407.224 79.944 408.848 81.428 408.848 83.542C408.848 85.656 407.224 87.168 405.194 87.168C403.136 87.168 401.526 85.656 401.526 83.542C401.526 81.428 403.136 79.944 405.194 79.944ZM405.194 86.23C406.608 86.23 407.798 85.138 407.798 83.542C407.798 81.96 406.608 80.882 405.194 80.882C403.766 80.882 402.562 81.96 402.562 83.542C402.562 85.138 403.766 86.23 405.194 86.23ZM417.295 80.098V87.294C417.295 89.24 415.685 90.5 413.669 90.5C411.947 90.5 410.813 89.828 410.281 88.708L411.191 88.022C411.667 88.946 412.367 89.464 413.669 89.464C415.069 89.464 416.217 88.568 416.231 87.154V85.852C415.629 86.692 414.663 87.182 413.487 87.182C411.653 87.182 410.043 85.74 410.043 83.556C410.043 81.372 411.653 79.93 413.487 79.93C414.663 79.93 415.629 80.42 416.231 81.26V80.098H417.295ZM413.655 86.23C414.957 86.23 416.231 85.194 416.231 83.556C416.231 81.904 414.957 80.868 413.655 80.868C412.227 80.868 411.079 81.904 411.079 83.556C411.079 85.194 412.227 86.23 413.655 86.23ZM423.937 77.298C424.357 77.298 424.679 77.634 424.679 78.012C424.679 78.418 424.357 78.726 423.937 78.726C423.517 78.726 423.209 78.418 423.209 78.012C423.209 77.634 423.517 77.298 423.937 77.298ZM424.483 87H423.405V80.098H424.483V87ZM430.72 79.93C432.386 79.93 433.492 81.12 433.492 82.87V87H432.428V83.066C432.428 81.778 431.658 80.91 430.51 80.91C429.068 80.91 428.116 81.89 428.116 83.682V87H427.052V80.098H428.116V81.246C428.676 80.406 429.558 79.93 430.72 79.93ZM435.985 85.628C436.405 85.628 436.713 85.964 436.713 86.342C436.713 86.734 436.405 87.042 435.985 87.042C435.565 87.042 435.257 86.734 435.257 86.342C435.257 85.964 435.565 85.628 435.985 85.628ZM446.569 77.438C449.285 77.438 451.413 79.594 451.413 82.31C451.413 85.04 449.285 87.182 446.569 87.182C443.839 87.182 441.711 85.04 441.711 82.31C441.711 79.594 443.839 77.438 446.569 77.438ZM446.569 86.132C448.655 86.132 450.293 84.48 450.293 82.31C450.293 80.154 448.655 78.474 446.569 78.474C444.469 78.474 442.831 80.154 442.831 82.31C442.831 84.48 444.469 86.132 446.569 86.132ZM459.698 80.098V86.986H458.62V85.866C458.06 86.692 457.164 87.168 456.016 87.168C454.35 87.168 453.244 85.978 453.244 84.228V80.098H454.322V84.032C454.322 85.32 455.078 86.174 456.226 86.174C457.668 86.174 458.62 85.208 458.62 83.416V80.098H459.698ZM465.942 85.754L466.292 86.636C465.732 87.028 465.256 87.182 464.696 87.182C463.324 87.182 462.414 86.37 462.414 84.844V80.994H460.916V80.098H462.414V77.62H463.492V80.098H465.956V80.994H463.492V84.774C463.492 85.67 463.996 86.174 464.766 86.174C465.158 86.174 465.592 86.006 465.942 85.754ZM474.223 79.944C476.253 79.944 477.877 81.428 477.877 83.542C477.877 85.656 476.253 87.168 474.223 87.168C472.165 87.168 470.555 85.656 470.555 83.542C470.555 81.428 472.165 79.944 474.223 79.944ZM474.223 86.23C475.637 86.23 476.827 85.138 476.827 83.542C476.827 81.96 475.637 80.882 474.223 80.882C472.795 80.882 471.591 81.96 471.591 83.542C471.591 85.138 472.795 86.23 474.223 86.23ZM483.456 80.994H480.95V87H479.886V80.994H478.682V80.098H479.886V78.474C479.886 77.004 480.81 76.08 482.252 76.08C482.658 76.08 483.036 76.164 483.372 76.318L483.106 77.2C482.854 77.088 482.574 77.032 482.322 77.032C481.482 77.032 480.95 77.592 480.95 78.474V80.098H483.456V80.994ZM487.564 85.138L488.628 84.9C488.726 85.81 489.566 86.3 490.658 86.3C491.652 86.3 492.31 85.838 492.31 85.124C492.31 84.55 491.876 84.284 491.176 84.13L489.594 83.78C488.446 83.542 487.802 82.968 487.802 82.016C487.802 80.77 488.838 79.93 490.42 79.93C491.974 79.93 492.982 80.728 493.234 81.848L492.212 82.072C492.072 81.316 491.414 80.798 490.392 80.798C489.412 80.798 488.866 81.274 488.866 81.932C488.866 82.478 489.244 82.73 489.916 82.884L491.582 83.248C492.59 83.472 493.36 84.004 493.36 85.054C493.36 86.412 492.226 87.182 490.574 87.182C488.992 87.182 487.732 86.482 487.564 85.138ZM501.562 83.374V83.766H495.64C495.738 85.32 496.914 86.244 498.104 86.244C499.084 86.244 499.966 85.866 500.456 84.76L501.408 84.984C500.862 86.426 499.658 87.182 498.104 87.182C496.27 87.182 494.604 85.768 494.604 83.57C494.604 81.358 496.27 79.93 498.174 79.93C500.036 79.93 501.492 81.316 501.562 83.374ZM498.174 80.868C497.054 80.868 495.892 81.61 495.682 82.968H500.484C500.288 81.61 499.322 80.868 498.174 80.868ZM506.364 86.188C507.386 86.188 508.282 85.642 508.646 84.634L509.626 84.9C509.22 86.272 507.89 87.182 506.364 87.182C504.418 87.182 502.766 85.754 502.766 83.556C502.766 81.386 504.418 79.93 506.364 79.93C507.876 79.93 509.192 80.812 509.64 82.226L508.618 82.534C508.282 81.47 507.386 80.91 506.364 80.91C504.95 80.91 503.802 81.974 503.802 83.556C503.802 85.166 504.95 86.188 506.364 86.188ZM517.748 80.098V86.986H516.67V85.866C516.11 86.692 515.214 87.168 514.066 87.168C512.4 87.168 511.294 85.978 511.294 84.228V80.098H512.372V84.032C512.372 85.32 513.128 86.174 514.276 86.174C515.718 86.174 516.67 85.208 516.67 83.416V80.098H517.748ZM524.049 80.028C524.217 80.028 524.343 80.028 524.539 80.084L524.455 81.106C524.329 81.092 524.175 81.092 524.049 81.092C522.215 81.092 521.277 82.478 521.277 84.34V87H520.199V80.098H521.277V81.792C521.837 80.77 522.775 80.028 524.049 80.028ZM526.612 77.298C527.032 77.298 527.354 77.634 527.354 78.012C527.354 78.418 527.032 78.726 526.612 78.726C526.192 78.726 525.884 78.418 525.884 78.012C525.884 77.634 526.192 77.298 526.612 77.298ZM527.158 87H526.08V80.098H527.158V87ZM533.522 85.754L533.872 86.636C533.312 87.028 532.836 87.182 532.276 87.182C530.904 87.182 529.994 86.37 529.994 84.844V80.994H528.496V80.098H529.994V77.62H531.072V80.098H533.536V80.994H531.072V84.774C531.072 85.67 531.576 86.174 532.346 86.174C532.738 86.174 533.172 86.006 533.522 85.754ZM541.636 80.098L536.96 90.36H535.77L537.352 86.902L534.258 80.098H535.462L537.926 85.614L540.446 80.098H541.636ZM550.504 80.028C550.672 80.028 550.798 80.028 550.994 80.084L550.91 81.106C550.784 81.092 550.63 81.092 550.504 81.092C548.67 81.092 547.732 82.478 547.732 84.34V87H546.654V80.098H547.732V81.792C548.292 80.77 549.23 80.028 550.504 80.028ZM558.574 83.374V83.766H552.652C552.75 85.32 553.926 86.244 555.116 86.244C556.096 86.244 556.978 85.866 557.468 84.76L558.42 84.984C557.874 86.426 556.67 87.182 555.116 87.182C553.282 87.182 551.616 85.768 551.616 83.57C551.616 81.358 553.282 79.93 555.186 79.93C557.048 79.93 558.504 81.316 558.574 83.374ZM555.186 80.868C554.066 80.868 552.904 81.61 552.694 82.968H557.496C557.3 81.61 556.334 80.868 555.186 80.868ZM563.054 79.93C564.776 79.93 565.91 80.854 565.91 82.52V87H564.874V85.95C564.342 86.664 563.474 87.182 562.284 87.182C560.772 87.182 559.778 86.314 559.778 85.068C559.778 83.808 560.744 82.912 562.55 82.912H564.874V82.59C564.874 81.512 564.174 80.868 563.11 80.868C562.06 80.868 561.332 81.386 561.178 82.254L560.156 82.03C560.38 80.784 561.542 79.93 563.054 79.93ZM562.438 86.3C563.782 86.3 564.874 85.362 564.874 84.116V83.752H562.536C561.402 83.752 560.8 84.298 560.8 85.054C560.8 85.782 561.444 86.3 562.438 86.3ZM567.449 85.138L568.513 84.9C568.611 85.81 569.451 86.3 570.543 86.3C571.537 86.3 572.195 85.838 572.195 85.124C572.195 84.55 571.761 84.284 571.061 84.13L569.479 83.78C568.331 83.542 567.687 82.968 567.687 82.016C567.687 80.77 568.723 79.93 570.305 79.93C571.859 79.93 572.867 80.728 573.119 81.848L572.097 82.072C571.957 81.316 571.299 80.798 570.277 80.798C569.297 80.798 568.751 81.274 568.751 81.932C568.751 82.478 569.129 82.73 569.801 82.884L571.467 83.248C572.475 83.472 573.245 84.004 573.245 85.054C573.245 86.412 572.111 87.182 570.459 87.182C568.877 87.182 567.617 86.482 567.449 85.138ZM578.157 79.944C580.187 79.944 581.811 81.428 581.811 83.542C581.811 85.656 580.187 87.168 578.157 87.168C576.099 87.168 574.489 85.656 574.489 83.542C574.489 81.428 576.099 79.944 578.157 79.944ZM578.157 86.23C579.571 86.23 580.761 85.138 580.761 83.542C580.761 81.96 579.571 80.882 578.157 80.882C576.729 80.882 575.525 81.96 575.525 83.542C575.525 85.138 576.729 86.23 578.157 86.23ZM587.304 79.93C588.97 79.93 590.076 81.12 590.076 82.87V87H589.012V83.066C589.012 81.778 588.242 80.91 587.094 80.91C585.652 80.91 584.7 81.89 584.7 83.682V87H583.636V80.098H584.7V81.246C585.26 80.406 586.142 79.93 587.304 79.93ZM591.785 85.138L592.849 84.9C592.947 85.81 593.787 86.3 594.879 86.3C595.873 86.3 596.531 85.838 596.531 85.124C596.531 84.55 596.097 84.284 595.397 84.13L593.815 83.78C592.667 83.542 592.023 82.968 592.023 82.016C592.023 80.77 593.059 79.93 594.641 79.93C596.195 79.93 597.203 80.728 597.455 81.848L596.433 82.072C596.293 81.316 595.635 80.798 594.613 80.798C593.633 80.798 593.087 81.274 593.087 81.932C593.087 82.478 593.465 82.73 594.137 82.884L595.803 83.248C596.811 83.472 597.581 84.004 597.581 85.054C597.581 86.412 596.447 87.182 594.795 87.182C593.213 87.182 591.953 86.482 591.785 85.138ZM606.776 85.754L607.126 86.636C606.566 87.028 606.09 87.182 605.53 87.182C604.158 87.182 603.248 86.37 603.248 84.844V80.994H601.75V80.098H603.248V77.62H604.326V80.098H606.79V80.994H604.326V84.774C604.326 85.67 604.83 86.174 605.6 86.174C605.992 86.174 606.426 86.006 606.776 85.754ZM611.325 79.944C613.355 79.944 614.979 81.428 614.979 83.542C614.979 85.656 613.355 87.168 611.325 87.168C609.267 87.168 607.657 85.656 607.657 83.542C607.657 81.428 609.267 79.944 611.325 79.944ZM611.325 86.23C612.739 86.23 613.929 85.138 613.929 83.542C613.929 81.96 612.739 80.882 611.325 80.882C609.897 80.882 608.693 81.96 608.693 83.542C608.693 85.138 609.897 86.23 611.325 86.23ZM623.818 87H622.46L619.52 83.752L617.868 85.488V87H616.804V76.22H617.868V84.06L621.718 80.098H623.006L620.248 82.996L623.818 87ZM631.158 83.374V83.766H625.236C625.334 85.32 626.51 86.244 627.7 86.244C628.68 86.244 629.562 85.866 630.052 84.76L631.004 84.984C630.458 86.426 629.254 87.182 627.7 87.182C625.866 87.182 624.2 85.768 624.2 83.57C624.2 81.358 625.866 79.93 627.77 79.93C629.632 79.93 631.088 81.316 631.158 83.374ZM627.77 80.868C626.65 80.868 625.488 81.61 625.278 82.968H630.08C629.884 81.61 628.918 80.868 627.77 80.868ZM636.66 79.93C638.326 79.93 639.432 81.12 639.432 82.87V87H638.368V83.066C638.368 81.778 637.598 80.91 636.45 80.91C635.008 80.91 634.056 81.89 634.056 83.682V87H632.992V80.098H634.056V81.246C634.616 80.406 635.498 79.93 636.66 79.93ZM645.899 77.298C646.319 77.298 646.641 77.634 646.641 78.012C646.641 78.418 646.319 78.726 645.899 78.726C645.479 78.726 645.171 78.418 645.171 78.012C645.171 77.634 645.479 77.298 645.899 77.298ZM646.445 87H645.367V80.098H646.445V87ZM648.427 85.138L649.491 84.9C649.589 85.81 650.429 86.3 651.521 86.3C652.515 86.3 653.173 85.838 653.173 85.124C653.173 84.55 652.739 84.284 652.039 84.13L650.457 83.78C649.309 83.542 648.665 82.968 648.665 82.016C648.665 80.77 649.701 79.93 651.283 79.93C652.837 79.93 653.845 80.728 654.097 81.848L653.075 82.072C652.935 81.316 652.277 80.798 651.255 80.798C650.275 80.798 649.729 81.274 649.729 81.932C649.729 82.478 650.107 82.73 650.779 82.884L652.445 83.248C653.453 83.472 654.223 84.004 654.223 85.054C654.223 86.412 653.089 87.182 651.437 87.182C649.855 87.182 648.595 86.482 648.427 85.138ZM43.878 99.93C45.6 99.93 46.734 100.854 46.734 102.52V107H45.698V105.95C45.166 106.664 44.298 107.182 43.108 107.182C41.596 107.182 40.602 106.314 40.602 105.068C40.602 103.808 41.568 102.912 43.374 102.912H45.698V102.59C45.698 101.512 44.998 100.868 43.934 100.868C42.884 100.868 42.156 101.386 42.002 102.254L40.98 102.03C41.204 100.784 42.366 99.93 43.878 99.93ZM43.262 106.3C44.606 106.3 45.698 105.362 45.698 104.116V103.752H43.36C42.226 103.752 41.624 104.298 41.624 105.054C41.624 105.782 42.268 106.3 43.262 106.3ZM51.8289 106.188C52.8509 106.188 53.7469 105.642 54.1109 104.634L55.0909 104.9C54.6849 106.272 53.3549 107.182 51.8289 107.182C49.8829 107.182 48.2309 105.754 48.2309 103.556C48.2309 101.386 49.8829 99.93 51.8289 99.93C53.3409 99.93 54.6569 100.812 55.1049 102.226L54.0829 102.534C53.7469 101.47 52.8509 100.91 51.8289 100.91C50.4149 100.91 49.2669 101.974 49.2669 103.556C49.2669 105.166 50.4149 106.188 51.8289 106.188ZM60.7213 105.754L61.0713 106.636C60.5113 107.028 60.0353 107.182 59.4753 107.182C58.1033 107.182 57.1933 106.37 57.1933 104.844V100.994H55.6953V100.098H57.1933V97.62H58.2713V100.098H60.7353V100.994H58.2713V104.774C58.2713 105.67 58.7753 106.174 59.5453 106.174C59.9373 106.174 60.3713 106.006 60.7213 105.754ZM63.0811 97.298C63.5011 97.298 63.8231 97.634 63.8231 98.012C63.8231 98.418 63.5011 98.726 63.0811 98.726C62.6611 98.726 62.3531 98.418 62.3531 98.012C62.3531 97.634 62.6611 97.298 63.0811 97.298ZM63.6271 107H62.5491V100.098H63.6271V107ZM72.4828 100.098L69.4308 107H68.2688L65.2168 100.098H66.3788L68.8568 105.74L71.3208 100.098H72.4828ZM80.0717 103.374V103.766H74.1497C74.2477 105.32 75.4237 106.244 76.6137 106.244C77.5937 106.244 78.4757 105.866 78.9657 104.76L79.9177 104.984C79.3717 106.426 78.1677 107.182 76.6137 107.182C74.7797 107.182 73.1137 105.768 73.1137 103.57C73.1137 101.358 74.7797 99.93 76.6837 99.93C78.5457 99.93 80.0017 101.316 80.0717 103.374ZM76.6837 100.868C75.5637 100.868 74.4017 101.61 74.1917 102.968H78.9937C78.7977 101.61 77.8317 100.868 76.6837 100.868ZM89.2552 100.994H86.7492V107H85.6852V100.994H84.4812V100.098H85.6852V98.474C85.6852 97.004 86.6092 96.08 88.0512 96.08C88.4572 96.08 88.8352 96.164 89.1712 96.318L88.9052 97.2C88.6532 97.088 88.3732 97.032 88.1212 97.032C87.2812 97.032 86.7492 97.592 86.7492 98.474V100.098H89.2552V100.994ZM93.393 99.944C95.423 99.944 97.047 101.428 97.047 103.542C97.047 105.656 95.423 107.168 93.393 107.168C91.335 107.168 89.725 105.656 89.725 103.542C89.725 101.428 91.335 99.944 93.393 99.944ZM93.393 106.23C94.807 106.23 95.997 105.138 95.997 103.542C95.997 101.96 94.807 100.882 93.393 100.882C91.965 100.882 90.761 101.96 90.761 103.542C90.761 105.138 91.965 106.23 93.393 106.23ZM102.723 100.028C102.891 100.028 103.017 100.028 103.213 100.084L103.129 101.106C103.003 101.092 102.849 101.092 102.723 101.092C100.889 101.092 99.9506 102.478 99.9506 104.34V107H98.8726V100.098H99.9506V101.792C100.511 100.77 101.449 100.028 102.723 100.028ZM110.69 97.62V107H109.612V98.95L107.106 100.35V99.328L110.004 97.62H110.69ZM125.045 99.93C126.501 99.93 127.621 100.966 127.621 102.534V107H126.557V102.716C126.557 101.624 125.815 100.91 124.779 100.91C123.505 100.91 122.665 101.848 122.665 103.472V107H121.601V102.716C121.601 101.624 120.859 100.91 119.837 100.91C118.563 100.91 117.737 101.848 117.737 103.472V107H116.673V100.098H117.737V101.148C118.227 100.392 119.011 99.93 120.089 99.93C121.153 99.93 122.035 100.448 122.441 101.33C122.973 100.476 123.869 99.93 125.045 99.93ZM130.565 97.298C130.985 97.298 131.307 97.634 131.307 98.012C131.307 98.418 130.985 98.726 130.565 98.726C130.145 98.726 129.837 98.418 129.837 98.012C129.837 97.634 130.145 97.298 130.565 97.298ZM131.111 107H130.033V100.098H131.111V107ZM137.349 99.93C139.015 99.93 140.121 101.12 140.121 102.87V107H139.057V103.066C139.057 101.778 138.287 100.91 137.139 100.91C135.697 100.91 134.745 101.89 134.745 103.682V107H133.681V100.098H134.745V101.246C135.305 100.406 136.187 99.93 137.349 99.93ZM148.676 100.098V106.986H147.598V105.866C147.038 106.692 146.142 107.168 144.994 107.168C143.328 107.168 142.222 105.978 142.222 104.228V100.098H143.3V104.032C143.3 105.32 144.056 106.174 145.204 106.174C146.646 106.174 147.598 105.208 147.598 103.416V100.098H148.676ZM154.921 105.754L155.271 106.636C154.711 107.028 154.235 107.182 153.675 107.182C152.303 107.182 151.393 106.37 151.393 104.844V100.994H149.895V100.098H151.393V97.62H152.471V100.098H154.935V100.994H152.471V104.774C152.471 105.67 152.975 106.174 153.745 106.174C154.137 106.174 154.571 106.006 154.921 105.754ZM162.759 103.374V103.766H156.837C156.935 105.32 158.111 106.244 159.301 106.244C160.281 106.244 161.163 105.866 161.653 104.76L162.605 104.984C162.059 106.426 160.855 107.182 159.301 107.182C157.467 107.182 155.801 105.768 155.801 103.57C155.801 101.358 157.467 99.93 159.371 99.93C161.233 99.93 162.689 101.316 162.759 103.374ZM159.371 100.868C158.251 100.868 157.089 101.61 156.879 102.968H161.681C161.485 101.61 160.519 100.868 159.371 100.868ZM164.584 105.628C165.004 105.628 165.312 105.964 165.312 106.342C165.312 106.734 165.004 107.042 164.584 107.042C164.164 107.042 163.856 106.734 163.856 106.342C163.856 105.964 164.164 105.628 164.584 105.628Z" fill="#726A60"/>
<path d="M44.382 141.424C46.286 141.424 47.658 142.46 47.994 144.07L46.496 144.378C46.328 143.384 45.474 142.726 44.354 142.726C43.248 142.726 42.52 143.328 42.52 144.154C42.52 144.812 42.898 145.162 43.71 145.33L45.74 145.764C47.14 146.072 48.148 146.856 48.148 148.326C48.148 150.09 46.706 151.196 44.55 151.196C42.562 151.196 40.91 150.23 40.672 148.41L42.268 148.074C42.492 149.278 43.43 149.866 44.69 149.866C45.95 149.866 46.664 149.264 46.664 148.41C46.664 147.696 46.286 147.36 45.348 147.164L43.304 146.744C42.142 146.478 40.938 145.862 40.938 144.196C40.938 142.544 42.296 141.424 44.382 141.424ZM56.447 147.374V147.878H50.819C50.959 149.166 51.897 149.936 52.919 149.936C53.689 149.936 54.473 149.712 54.963 148.732L56.265 149.012C55.691 150.468 54.459 151.196 52.919 151.196C51.029 151.196 49.377 149.74 49.377 147.542C49.377 145.33 51.015 143.86 52.975 143.86C54.837 143.86 56.377 145.288 56.447 147.374ZM52.975 145.148C52.065 145.148 51.085 145.722 50.861 146.842H54.949C54.725 145.708 53.927 145.148 52.975 145.148ZM61.1251 149.852C62.0491 149.852 62.8191 149.376 63.1691 148.396L64.5131 148.746C64.1211 150.23 62.7351 151.196 61.1251 151.196C59.1371 151.196 57.4571 149.726 57.4571 147.528C57.4571 145.358 59.1371 143.86 61.1251 143.86C62.6931 143.86 64.0651 144.812 64.5131 146.296L63.1131 146.702C62.8331 145.68 62.0491 145.204 61.1251 145.204C59.8371 145.204 58.8851 146.156 58.8851 147.528C58.8851 148.942 59.8371 149.852 61.1251 149.852ZM72.6072 144.056V151H71.1512V150.146C70.5912 150.818 69.7792 151.196 68.7572 151.196C67.0772 151.196 65.9712 149.992 65.9712 148.242V144.056H67.4272V147.948C67.4272 149.082 68.0852 149.852 69.0932 149.852C70.3392 149.852 71.1512 149.012 71.1512 147.262V144.056H72.6072ZM78.9228 143.972C79.0908 143.972 79.2308 143.972 79.4128 144.028L79.3148 145.428C79.2028 145.414 79.0348 145.414 78.9088 145.414C77.1448 145.414 76.2768 146.646 76.2768 148.55V151H74.8208V144.056H76.2768V145.54C76.8368 144.616 77.7188 143.972 78.9228 143.972ZM81.5398 141.06C82.0718 141.06 82.4638 141.48 82.4638 141.97C82.4638 142.488 82.0718 142.866 81.5398 142.866C80.9938 142.866 80.6018 142.488 80.6018 141.97C80.6018 141.48 80.9938 141.06 81.5398 141.06ZM82.2678 151H80.8118V144.056H82.2678V151ZM88.7546 149.446L89.2026 150.664C88.5446 151.056 88.0686 151.196 87.4806 151.196C85.9826 151.196 84.9746 150.356 84.9746 148.634V145.26H83.4766V144.056H84.9746V141.62H86.4306V144.056H88.8106V145.26H86.4306V148.536C86.4306 149.404 86.8926 149.824 87.5786 149.824C87.9426 149.824 88.3906 149.684 88.7546 149.446ZM97.1134 144.042L92.5214 154.36H90.8974L92.4654 150.832L89.4694 144.042H91.0934L93.2494 149.068L95.4894 144.042H97.1134ZM106.036 149.446L106.484 150.664C105.826 151.056 105.35 151.196 104.762 151.196C103.264 151.196 102.256 150.356 102.256 148.634V145.26H100.758V144.056H102.256V141.62H103.712V144.056H106.092V145.26H103.712V148.536C103.712 149.404 104.174 149.824 104.86 149.824C105.224 149.824 105.672 149.684 106.036 149.446ZM110.619 143.902C112.663 143.902 114.329 145.372 114.329 147.528C114.329 149.684 112.663 151.168 110.619 151.168C108.561 151.168 106.881 149.684 106.881 147.528C106.881 145.372 108.561 143.902 110.619 143.902ZM110.619 149.908C111.809 149.908 112.915 148.97 112.915 147.528C112.915 146.086 111.809 145.148 110.619 145.148C109.401 145.148 108.309 146.086 108.309 147.528C108.309 148.97 109.401 149.908 110.619 149.908ZM123.296 151H121.462L118.83 148.046L117.416 149.572V151H115.96V140.22H117.416V147.612L120.818 144.056H122.526L119.796 147.01L123.296 151ZM130.549 147.374V147.878H124.921C125.061 149.166 125.999 149.936 127.021 149.936C127.791 149.936 128.575 149.712 129.065 148.732L130.367 149.012C129.793 150.468 128.561 151.196 127.021 151.196C125.131 151.196 123.479 149.74 123.479 147.542C123.479 145.33 125.117 143.86 127.077 143.86C128.939 143.86 130.479 145.288 130.549 147.374ZM127.077 145.148C126.167 145.148 125.187 145.722 124.963 146.842H129.051C128.827 145.708 128.029 145.148 127.077 145.148ZM136.025 143.86C137.691 143.86 138.811 145.064 138.811 146.8V151H137.341V147.094C137.341 145.96 136.683 145.204 135.689 145.204C134.443 145.204 133.617 146.044 133.617 147.794V151H132.161V144.056H133.617V144.91C134.177 144.238 134.989 143.86 136.025 143.86Z" fill="#1A1816"/>
<path d="M640.004 144.028C640.172 144.028 640.298 144.028 640.494 144.084L640.41 145.106C640.284 145.092 640.13 145.092 640.004 145.092C638.17 145.092 637.232 146.478 637.232 148.34V151H636.154V144.098H637.232V145.792C637.792 144.77 638.73 144.028 640.004 144.028ZM648.074 147.374V147.766H642.152C642.25 149.32 643.426 150.244 644.616 150.244C645.596 150.244 646.478 149.866 646.968 148.76L647.92 148.984C647.374 150.426 646.17 151.182 644.616 151.182C642.782 151.182 641.116 149.768 641.116 147.57C641.116 145.358 642.782 143.93 644.686 143.93C646.548 143.93 648.004 145.316 648.074 147.374ZM644.686 144.868C643.566 144.868 642.404 145.61 642.194 146.968H646.996C646.8 145.61 645.834 144.868 644.686 144.868ZM656.53 144.098V154.36H655.466V149.852C654.864 150.692 653.898 151.182 652.722 151.182C650.888 151.182 649.278 149.74 649.278 147.556C649.278 145.372 650.888 143.93 652.722 143.93C653.898 143.93 654.864 144.42 655.466 145.26V144.098H656.53ZM652.89 150.23C654.192 150.23 655.466 149.194 655.466 147.556C655.466 145.904 654.192 144.868 652.89 144.868C651.462 144.868 650.314 145.904 650.314 147.556C650.314 149.194 651.462 150.23 652.89 150.23ZM665.176 144.098V150.986H664.098V149.866C663.538 150.692 662.642 151.168 661.494 151.168C659.828 151.168 658.722 149.978 658.722 148.228V144.098H659.8V148.032C659.8 149.32 660.556 150.174 661.704 150.174C663.146 150.174 664.098 149.208 664.098 147.416V144.098H665.176ZM668.271 141.298C668.691 141.298 669.013 141.634 669.013 142.012C669.013 142.418 668.691 142.726 668.271 142.726C667.851 142.726 667.543 142.418 667.543 142.012C667.543 141.634 667.851 141.298 668.271 141.298ZM668.817 151H667.739V144.098H668.817V151ZM675.236 144.028C675.404 144.028 675.53 144.028 675.726 144.084L675.642 145.106C675.516 145.092 675.362 145.092 675.236 145.092C673.402 145.092 672.464 146.478 672.464 148.34V151H671.386V144.098H672.464V145.792C673.024 144.77 673.962 144.028 675.236 144.028ZM683.306 147.374V147.766H677.384C677.482 149.32 678.658 150.244 679.848 150.244C680.828 150.244 681.71 149.866 682.2 148.76L683.152 148.984C682.606 150.426 681.402 151.182 679.848 151.182C678.014 151.182 676.348 149.768 676.348 147.57C676.348 145.358 678.014 143.93 679.918 143.93C681.78 143.93 683.236 145.316 683.306 147.374ZM679.918 144.868C678.798 144.868 677.636 145.61 677.426 146.968H682.228C682.032 145.61 681.066 144.868 679.918 144.868ZM691.762 140.22V151H690.698V149.852C690.096 150.692 689.13 151.182 687.954 151.182C686.12 151.182 684.51 149.74 684.51 147.556C684.51 145.372 686.12 143.93 687.954 143.93C689.13 143.93 690.096 144.42 690.698 145.26V140.22H691.762ZM688.122 150.23C689.424 150.23 690.698 149.194 690.698 147.556C690.698 145.904 689.424 144.868 688.122 144.868C686.694 144.868 685.546 145.904 685.546 147.556C685.546 149.194 686.694 150.23 688.122 150.23Z" fill="#726A60"/>
<mask id="path-6-inside-1_297_13561" fill="white">
<path d="M40 168C40 163.582 43.5817 160 48 160H685C689.418 160 693 163.582 693 168V200C693 204.418 689.418 208 685 208H48C43.5817 208 40 204.418 40 200V168Z"/>
</mask>
<path d="M40 168C40 163.582 43.5817 160 48 160H685C689.418 160 693 163.582 693 168V200C693 204.418 689.418 208 685 208H48C43.5817 208 40 204.418 40 200V168Z" fill="white"/>
<path d="M48 160V161H685V160V159H48V160ZM693 168H692V200H693H694V168H693ZM685 208V207H48V208V209H685V208ZM40 200H41V168H40H39V200H40ZM48 208V207C44.134 207 41 203.866 41 200H40H39C39 204.971 43.0294 209 48 209V208ZM693 200H692C692 203.866 688.866 207 685 207V208V209C689.971 209 694 204.971 694 200H693ZM685 160V161C688.866 161 692 164.134 692 168H693H694C694 163.029 689.971 159 685 159V160ZM48 160V159C43.0294 159 39 163.029 39 168H40H41C41 164.134 44.134 161 48 161V160Z" fill="#958A7F" mask="url(#path-6-inside-1_297_13561)"/>
<path d="M64.64 184.856V185.304H57.872C57.984 187.08 59.328 188.136 60.688 188.136C61.808 188.136 62.816 187.704 63.376 186.44L64.464 186.696C63.84 188.344 62.464 189.208 60.688 189.208C58.592 189.208 56.688 187.592 56.688 185.08C56.688 182.552 58.592 180.92 60.768 180.92C62.896 180.92 64.56 182.504 64.64 184.856ZM60.768 181.992C59.488 181.992 58.16 182.84 57.92 184.392H63.408C63.184 182.84 62.08 181.992 60.768 181.992ZM67.8721 182.52H70.0961C72.2241 182.52 73.6161 183.656 73.6161 185.736C73.6161 187.784 72.1281 189.208 69.8561 189.208C67.6641 189.208 66.0001 187.848 65.9841 185.528L67.2001 185.288C67.2001 187.064 68.3361 188.056 69.8721 188.056C71.3921 188.056 72.4161 187.144 72.4161 185.752C72.4161 184.36 71.4561 183.656 70.0001 183.656H66.6241L66.8641 178.28H73.2001V179.416H68.0321L67.8721 182.52ZM83.3198 181.112V189.336C83.3198 191.56 81.4798 193 79.1758 193C77.2078 193 75.9118 192.232 75.3038 190.952L76.3438 190.168C76.8878 191.224 77.6878 191.816 79.1758 191.816C80.7758 191.816 82.0878 190.792 82.1038 189.176V187.688C81.4158 188.648 80.3118 189.208 78.9678 189.208C76.8718 189.208 75.0318 187.56 75.0318 185.064C75.0318 182.568 76.8718 180.92 78.9678 180.92C80.3118 180.92 81.4158 181.48 82.1038 182.44V181.112H83.3198ZM79.1598 188.12C80.6478 188.12 82.1038 186.936 82.1038 185.064C82.1038 183.176 80.6478 181.992 79.1598 181.992C77.5278 181.992 76.2158 183.176 76.2158 185.064C76.2158 186.936 77.5278 188.12 79.1598 188.12ZM93.7104 176.68V189H92.4944V187.688C91.8064 188.648 90.7024 189.208 89.3584 189.208C87.2624 189.208 85.4224 187.56 85.4224 185.064C85.4224 182.568 87.2624 180.92 89.3584 180.92C90.7024 180.92 91.8064 181.48 92.4944 182.44V176.68H93.7104ZM89.5504 188.12C91.0384 188.12 92.4944 186.936 92.4944 185.064C92.4944 183.176 91.0384 181.992 89.5504 181.992C87.9184 181.992 86.6064 183.176 86.6064 185.064C86.6064 186.936 87.9184 188.12 89.5504 188.12ZM95.861 186.872L97.077 186.6C97.189 187.64 98.149 188.2 99.397 188.2C100.533 188.2 101.285 187.672 101.285 186.856C101.285 186.2 100.789 185.896 99.989 185.72L98.181 185.32C96.869 185.048 96.133 184.392 96.133 183.304C96.133 181.88 97.317 180.92 99.125 180.92C100.901 180.92 102.053 181.832 102.341 183.112L101.173 183.368C101.013 182.504 100.261 181.912 99.093 181.912C97.973 181.912 97.349 182.456 97.349 183.208C97.349 183.832 97.781 184.12 98.549 184.296L100.453 184.712C101.605 184.968 102.485 185.576 102.485 186.776C102.485 188.328 101.189 189.208 99.301 189.208C97.493 189.208 96.053 188.408 95.861 186.872ZM111.507 189L108.275 184.424L105.059 189H103.507L107.331 183.608L103.587 178.28H105.123L108.275 182.792L111.427 178.28H112.979L109.219 183.608L113.059 189H111.507ZM122.752 186.424H121.088V189H119.856V186.424H113.888V185.208L119.488 178.28H121.088V185.384H122.752V186.424ZM119.856 185.384V179.608L115.264 185.384H119.856ZM125.794 182.52H128.018C130.146 182.52 131.538 183.656 131.538 185.736C131.538 187.784 130.05 189.208 127.778 189.208C125.586 189.208 123.922 187.848 123.906 185.528L125.122 185.288C125.122 187.064 126.258 188.056 127.794 188.056C129.314 188.056 130.338 187.144 130.338 185.752C130.338 184.36 129.378 183.656 127.922 183.656H124.546L124.786 178.28H131.122V179.416H125.954L125.794 182.52ZM140.986 181.112L135.642 192.84H134.282L136.09 188.888L132.554 181.112H133.93L136.746 187.416L139.626 181.112H140.986ZM146.481 182.072C148.753 182.072 150.145 183.576 150.145 185.592C150.145 187.656 148.657 189.208 146.385 189.208C143.729 189.208 142.161 187.256 142.161 183.928C142.161 181.96 142.561 180.328 143.617 179.24C144.321 178.52 145.297 178.072 146.449 178.072C148.113 178.072 149.425 178.904 149.857 180.424L148.641 180.664C148.337 179.656 147.521 179.192 146.401 179.192C145.569 179.192 144.897 179.528 144.433 180.04C143.521 181.032 143.313 182.504 143.361 183.784C143.905 182.744 145.153 182.072 146.481 182.072ZM146.369 188.056C147.841 188.056 148.897 186.968 148.897 185.576C148.897 184.184 147.841 183.128 146.369 183.128C144.817 183.128 143.793 184.264 143.793 185.624C143.793 187.064 144.945 188.056 146.369 188.056Z" fill="#726A60"/>
<path d="M48.428 224.978H45.124V233H43.612V224.978H40.322V223.62H48.428V224.978ZM50.696 223.06C51.228 223.06 51.62 223.48 51.62 223.97C51.62 224.488 51.228 224.866 50.696 224.866C50.15 224.866 49.758 224.488 49.758 223.97C49.758 223.48 50.15 223.06 50.696 223.06ZM51.424 233H49.968V226.056H51.424V233ZM62.3208 225.86C63.7628 225.86 64.9528 226.938 64.9528 228.576V233H63.5108V228.87C63.5108 227.848 62.8388 227.204 61.9428 227.204C60.8088 227.204 60.0668 228.002 60.0668 229.556V233H58.6108V228.87C58.6108 227.848 57.9388 227.204 57.0428 227.204C55.9228 227.204 55.1948 228.002 55.1948 229.556V233H53.7388V226.056H55.1948V226.84C55.6988 226.224 56.4268 225.86 57.4208 225.86C58.4148 225.86 59.2828 226.322 59.7308 227.134C60.2908 226.35 61.1728 225.86 62.3208 225.86ZM73.4822 229.374V229.878H67.8542C67.9942 231.166 68.9322 231.936 69.9542 231.936C70.7242 231.936 71.5082 231.712 71.9982 230.732L73.3002 231.012C72.7262 232.468 71.4942 233.196 69.9542 233.196C68.0642 233.196 66.4122 231.74 66.4122 229.542C66.4122 227.33 68.0502 225.86 70.0102 225.86C71.8722 225.86 73.4122 227.288 73.4822 229.374ZM70.0102 227.148C69.1002 227.148 68.1202 227.722 67.8962 228.842H71.9842C71.7602 227.708 70.9622 227.148 70.0102 227.148ZM82.6553 225.972C82.8233 225.972 82.9633 225.972 83.1453 226.028L83.0473 227.428C82.9353 227.414 82.7673 227.414 82.6413 227.414C80.8773 227.414 80.0093 228.646 80.0093 230.55V233H78.5533V226.056H80.0093V227.54C80.5693 226.616 81.4513 225.972 82.6553 225.972ZM90.7771 229.374V229.878H85.1491C85.2891 231.166 86.2271 231.936 87.2491 231.936C88.0191 231.936 88.8031 231.712 89.2931 230.732L90.5951 231.012C90.0211 232.468 88.7891 233.196 87.2491 233.196C85.3591 233.196 83.7071 231.74 83.7071 229.542C83.7071 227.33 85.3451 225.86 87.3051 225.86C89.1671 225.86 90.7071 227.288 90.7771 229.374ZM87.3051 227.148C86.3951 227.148 85.4151 227.722 85.1911 228.842H89.2791C89.0551 227.708 88.2571 227.148 87.3051 227.148ZM100.971 225.86C102.413 225.86 103.603 226.938 103.603 228.576V233H102.161V228.87C102.161 227.848 101.489 227.204 100.593 227.204C99.4592 227.204 98.7172 228.002 98.7172 229.556V233H97.2612V228.87C97.2612 227.848 96.5892 227.204 95.6932 227.204C94.5732 227.204 93.8452 228.002 93.8452 229.556V233H92.3892V226.056H93.8452V226.84C94.3492 226.224 95.0772 225.86 96.0712 225.86C97.0652 225.86 97.9332 226.322 98.3812 227.134C98.9412 226.35 99.8232 225.86 100.971 225.86ZM108.451 225.86C110.229 225.86 111.405 226.798 111.405 228.478V233H110.019V232.202C109.501 232.776 108.731 233.196 107.653 233.196C106.099 233.196 105.063 232.3 105.063 230.998C105.063 229.696 106.057 228.8 107.849 228.8H110.019V228.59C110.019 227.694 109.417 227.134 108.535 227.134C107.597 227.134 106.995 227.554 106.841 228.338L105.455 228.044C105.693 226.742 106.897 225.86 108.451 225.86ZM107.877 232.02C109.039 232.02 110.019 231.208 110.019 230.144V229.92H107.821C106.967 229.92 106.463 230.354 106.463 230.97C106.463 231.6 107.023 232.02 107.877 232.02ZM114.147 223.06C114.679 223.06 115.071 223.48 115.071 223.97C115.071 224.488 114.679 224.866 114.147 224.866C113.601 224.866 113.209 224.488 113.209 223.97C113.209 223.48 113.601 223.06 114.147 223.06ZM114.875 233H113.419V226.056H114.875V233ZM121.054 225.86C122.72 225.86 123.84 227.064 123.84 228.8V233H122.37V229.094C122.37 227.96 121.712 227.204 120.718 227.204C119.472 227.204 118.646 228.044 118.646 229.794V233H117.19V226.056H118.646V226.91C119.206 226.238 120.018 225.86 121.054 225.86ZM126.712 223.06C127.244 223.06 127.636 223.48 127.636 223.97C127.636 224.488 127.244 224.866 126.712 224.866C126.166 224.866 125.774 224.488 125.774 223.97C125.774 223.48 126.166 223.06 126.712 223.06ZM127.44 233H125.984V226.056H127.44V233ZM133.618 225.86C135.284 225.86 136.404 227.064 136.404 228.8V233H134.934V229.094C134.934 227.96 134.276 227.204 133.282 227.204C132.036 227.204 131.21 228.044 131.21 229.794V233H129.754V226.056H131.21V226.91C131.77 226.238 132.582 225.86 133.618 225.86ZM145.268 226.056V233.224C145.254 235.282 143.616 236.5 141.474 236.5C139.808 236.5 138.66 235.87 138.086 234.834L139.29 233.854C139.794 234.652 140.382 235.072 141.474 235.072C142.762 235.072 143.798 234.33 143.798 233.014V232.146C143.21 232.818 142.356 233.196 141.278 233.196C139.472 233.196 137.834 231.726 137.834 229.528C137.834 227.344 139.472 225.86 141.278 225.86C142.356 225.86 143.21 226.252 143.798 226.91V226.056H145.268ZM141.516 231.908C142.678 231.908 143.798 230.998 143.798 229.528C143.798 228.072 142.678 227.148 141.516 227.148C140.256 227.148 139.262 228.072 139.262 229.528C139.262 230.998 140.256 231.908 141.516 231.908ZM151.367 226.378C151.899 226.378 152.277 226.784 152.277 227.26C152.277 227.764 151.899 228.142 151.367 228.142C150.835 228.142 150.443 227.764 150.443 227.26C150.443 226.784 150.835 226.378 151.367 226.378ZM151.367 231.278C151.899 231.278 152.277 231.684 152.277 232.16C152.277 232.664 151.899 233.056 151.367 233.056C150.835 233.056 150.443 232.664 150.443 232.16C150.443 231.684 150.835 231.278 151.367 231.278ZM162.521 228.198C163.515 228.478 164.117 229.234 164.117 230.312C164.117 232.034 162.829 233.182 160.925 233.182C158.937 233.182 157.621 231.95 157.509 230.13L158.545 229.92C158.643 231.306 159.511 232.202 160.925 232.202C162.213 232.202 163.109 231.46 163.109 230.326C163.109 229.29 162.325 228.688 161.023 228.688H159.721V227.722H160.953C162.157 227.722 162.913 227.134 162.913 226.168C162.913 225.118 162.101 224.418 160.869 224.418C159.595 224.418 158.741 225.202 158.657 226.588L157.635 226.392C157.761 224.642 158.993 223.438 160.883 223.438C162.717 223.438 163.935 224.544 163.935 226.168C163.935 227.176 163.389 227.904 162.521 228.198ZM169.176 223.438C171.444 223.438 172.956 225.412 172.956 228.31C172.956 231.222 171.444 233.182 169.176 233.182C166.922 233.182 165.396 231.222 165.396 228.31C165.396 225.412 166.922 223.438 169.176 223.438ZM169.176 232.146C170.786 232.146 171.836 230.592 171.836 228.31C171.836 226.014 170.786 224.46 169.176 224.46C167.566 224.46 166.516 226.014 166.516 228.31C166.516 230.592 167.566 232.146 169.176 232.146ZM177.623 231.138L178.687 230.9C178.785 231.81 179.625 232.3 180.717 232.3C181.711 232.3 182.369 231.838 182.369 231.124C182.369 230.55 181.935 230.284 181.235 230.13L179.653 229.78C178.505 229.542 177.861 228.968 177.861 228.016C177.861 226.77 178.897 225.93 180.479 225.93C182.033 225.93 183.041 226.728 183.293 227.848L182.271 228.072C182.131 227.316 181.473 226.798 180.451 226.798C179.471 226.798 178.925 227.274 178.925 227.932C178.925 228.478 179.303 228.73 179.975 228.884L181.641 229.248C182.649 229.472 183.419 230.004 183.419 231.054C183.419 232.412 182.285 233.182 180.633 233.182C179.051 233.182 177.791 232.482 177.623 231.138ZM191.621 229.374V229.766H185.699C185.797 231.32 186.973 232.244 188.163 232.244C189.143 232.244 190.025 231.866 190.515 230.76L191.467 230.984C190.921 232.426 189.717 233.182 188.163 233.182C186.329 233.182 184.663 231.768 184.663 229.57C184.663 227.358 186.329 225.93 188.233 225.93C190.095 225.93 191.551 227.316 191.621 229.374ZM188.233 226.868C187.113 226.868 185.951 227.61 185.741 228.968H190.543C190.347 227.61 189.381 226.868 188.233 226.868ZM196.423 232.188C197.445 232.188 198.341 231.642 198.705 230.634L199.685 230.9C199.279 232.272 197.949 233.182 196.423 233.182C194.477 233.182 192.825 231.754 192.825 229.556C192.825 227.386 194.477 225.93 196.423 225.93C197.935 225.93 199.251 226.812 199.699 228.226L198.677 228.534C198.341 227.47 197.445 226.91 196.423 226.91C195.009 226.91 193.861 227.974 193.861 229.556C193.861 231.166 195.009 232.188 196.423 232.188ZM204.559 225.944C206.589 225.944 208.213 227.428 208.213 229.542C208.213 231.656 206.589 233.168 204.559 233.168C202.501 233.168 200.891 231.656 200.891 229.542C200.891 227.428 202.501 225.944 204.559 225.944ZM204.559 232.23C205.973 232.23 207.163 231.138 207.163 229.542C207.163 227.96 205.973 226.882 204.559 226.882C203.131 226.882 201.927 227.96 201.927 229.542C201.927 231.138 203.131 232.23 204.559 232.23ZM213.707 225.93C215.373 225.93 216.479 227.12 216.479 228.87V233H215.415V229.066C215.415 227.778 214.645 226.91 213.497 226.91C212.055 226.91 211.103 227.89 211.103 229.682V233H210.039V226.098H211.103V227.246C211.663 226.406 212.545 225.93 213.707 225.93ZM225.397 222.22V233H224.333V231.852C223.731 232.692 222.765 233.182 221.589 233.182C219.755 233.182 218.145 231.74 218.145 229.556C218.145 227.372 219.755 225.93 221.589 225.93C222.765 225.93 223.731 226.42 224.333 227.26V222.22H225.397ZM221.757 232.23C223.059 232.23 224.333 231.194 224.333 229.556C224.333 227.904 223.059 226.868 221.757 226.868C220.329 226.868 219.181 227.904 219.181 229.556C219.181 231.194 220.329 232.23 221.757 232.23ZM227.279 231.138L228.343 230.9C228.441 231.81 229.281 232.3 230.373 232.3C231.367 232.3 232.025 231.838 232.025 231.124C232.025 230.55 231.591 230.284 230.891 230.13L229.309 229.78C228.161 229.542 227.517 228.968 227.517 228.016C227.517 226.77 228.553 225.93 230.135 225.93C231.689 225.93 232.697 226.728 232.949 227.848L231.927 228.072C231.787 227.316 231.129 226.798 230.107 226.798C229.127 226.798 228.581 227.274 228.581 227.932C228.581 228.478 228.959 228.73 229.631 228.884L231.297 229.248C232.305 229.472 233.075 230.004 233.075 231.054C233.075 232.412 231.941 233.182 230.289 233.182C228.707 233.182 227.447 232.482 227.279 231.138Z" fill="#1A1816"/>
<path d="M242 228C242 223.582 245.582 220 250 220H550C554.418 220 558 223.582 558 228V228C558 232.418 554.418 236 550 236H250C245.582 236 242 232.418 242 228V228Z" fill="#F2F0EF"/>
<path d="M242 228C242 223.582 245.582 220 250 220H392C396.418 220 400 223.582 400 228V228C400 232.418 396.418 236 392 236H250C245.582 236 242 232.418 242 228V228Z" fill="#12A5A0"/>
<g clip-path="url(#clip0_297_13561)">
<path d="M570.404 227.44H574.832C574.844 227.656 574.856 227.848 574.856 227.992C574.856 230.356 573.188 232.168 570.8 232.168C568.424 232.168 566.576 230.332 566.576 227.98C566.576 225.64 568.412 223.792 570.764 223.792C572.48 223.792 574.016 224.62 574.592 226.168L573.428 226.576C572.864 225.424 571.844 225.004 570.764 225.004C569.144 225.004 567.884 226.3 567.884 227.98C567.884 229.672 569.168 230.956 570.836 230.956C572.312 230.956 573.356 230.008 573.596 228.616H570.404V227.44ZM581.926 228.892V229.324H577.102C577.222 230.428 578.026 231.088 578.902 231.088C579.562 231.088 580.234 230.896 580.654 230.056L581.77 230.296C581.278 231.544 580.222 232.168 578.902 232.168C577.282 232.168 575.866 230.92 575.866 229.036C575.866 227.14 577.27 225.88 578.95 225.88C580.546 225.88 581.866 227.104 581.926 228.892ZM578.95 226.984C578.17 226.984 577.33 227.476 577.138 228.436H580.642C580.45 227.464 579.766 226.984 578.95 226.984ZM586.619 225.88C588.047 225.88 589.007 226.912 589.007 228.4V232H587.747V228.652C587.747 227.68 587.183 227.032 586.331 227.032C585.263 227.032 584.555 227.752 584.555 229.252V232H583.307V226.048H584.555V226.78C585.035 226.204 585.731 225.88 586.619 225.88ZM596.293 228.892V229.324H591.469C591.589 230.428 592.393 231.088 593.269 231.088C593.929 231.088 594.601 230.896 595.021 230.056L596.137 230.296C595.645 231.544 594.589 232.168 593.269 232.168C591.649 232.168 590.233 230.92 590.233 229.036C590.233 227.14 591.637 225.88 593.317 225.88C594.913 225.88 596.233 227.104 596.293 228.892ZM593.317 226.984C592.537 226.984 591.697 227.476 591.505 228.436H595.009C594.817 227.464 594.133 226.984 593.317 226.984ZM601.191 225.976C601.335 225.976 601.455 225.976 601.611 226.024L601.527 227.224C601.431 227.212 601.287 227.212 601.179 227.212C599.667 227.212 598.923 228.268 598.923 229.9V232H597.675V226.048H598.923V227.32C599.403 226.528 600.159 225.976 601.191 225.976ZM604.938 225.88C606.462 225.88 607.47 226.684 607.47 228.124V232H606.282V231.316C605.838 231.808 605.178 232.168 604.254 232.168C602.922 232.168 602.034 231.4 602.034 230.284C602.034 229.168 602.886 228.4 604.422 228.4H606.282V228.22C606.282 227.452 605.766 226.972 605.01 226.972C604.206 226.972 603.69 227.332 603.558 228.004L602.37 227.752C602.574 226.636 603.606 225.88 604.938 225.88ZM604.446 231.16C605.442 231.16 606.282 230.464 606.282 229.552V229.36H604.398C603.666 229.36 603.234 229.732 603.234 230.26C603.234 230.8 603.714 231.16 604.446 231.16ZM612.676 230.668L613.06 231.712C612.496 232.048 612.088 232.168 611.584 232.168C610.3 232.168 609.436 231.448 609.436 229.972V227.08H608.152V226.048H609.436V223.96H610.684V226.048H612.724V227.08H610.684V229.888C610.684 230.632 611.08 230.992 611.668 230.992C611.98 230.992 612.364 230.872 612.676 230.668ZM619.461 228.892V229.324H614.637C614.757 230.428 615.561 231.088 616.437 231.088C617.097 231.088 617.769 230.896 618.189 230.056L619.305 230.296C618.813 231.544 617.757 232.168 616.437 232.168C614.817 232.168 613.401 230.92 613.401 229.036C613.401 227.14 614.805 225.88 616.485 225.88C618.081 225.88 619.401 227.104 619.461 228.892ZM616.485 226.984C615.705 226.984 614.865 227.476 614.673 228.436H618.177C617.985 227.464 617.301 226.984 616.485 226.984ZM626.195 225.88C627.719 225.88 628.727 226.684 628.727 228.124V232H627.539V231.316C627.095 231.808 626.435 232.168 625.511 232.168C624.179 232.168 623.291 231.4 623.291 230.284C623.291 229.168 624.143 228.4 625.679 228.4H627.539V228.22C627.539 227.452 627.023 226.972 626.267 226.972C625.463 226.972 624.947 227.332 624.815 228.004L623.627 227.752C623.831 226.636 624.863 225.88 626.195 225.88ZM625.703 231.16C626.699 231.16 627.539 230.464 627.539 229.552V229.36H625.655C624.923 229.36 624.491 229.732 624.491 230.26C624.491 230.8 624.971 231.16 625.703 231.16ZM636.635 225.88C638.063 225.88 639.023 226.912 639.023 228.4V232H637.763V228.652C637.763 227.68 637.199 227.032 636.347 227.032C635.279 227.032 634.571 227.752 634.571 229.252V232H633.323V226.048H634.571V226.78C635.051 226.204 635.747 225.88 636.635 225.88ZM646.308 228.892V229.324H641.484C641.604 230.428 642.408 231.088 643.284 231.088C643.944 231.088 644.616 230.896 645.036 230.056L646.152 230.296C645.66 231.544 644.604 232.168 643.284 232.168C641.664 232.168 640.248 230.92 640.248 229.036C640.248 227.14 641.652 225.88 643.332 225.88C644.928 225.88 646.248 227.104 646.308 228.892ZM643.332 226.984C642.552 226.984 641.712 227.476 641.52 228.436H645.024C644.832 227.464 644.148 226.984 643.332 226.984ZM655.863 226.048L653.871 232.024H652.731L651.363 228.016L649.995 232.024H648.855L646.863 226.048H648.111L649.467 230.188L650.871 226.048H651.855L653.259 230.188L654.615 226.048H655.863ZM663.524 230.668L663.908 231.712C663.344 232.048 662.936 232.168 662.432 232.168C661.148 232.168 660.284 231.448 660.284 229.972V227.08H659V226.048H660.284V223.96H661.532V226.048H663.572V227.08H661.532V229.888C661.532 230.632 661.928 230.992 662.516 230.992C662.828 230.992 663.212 230.872 663.524 230.668ZM667.452 225.916C669.204 225.916 670.632 227.176 670.632 229.024C670.632 230.872 669.204 232.144 667.452 232.144C665.688 232.144 664.248 230.872 664.248 229.024C664.248 227.176 665.688 225.916 667.452 225.916ZM667.452 231.064C668.472 231.064 669.42 230.26 669.42 229.024C669.42 227.788 668.472 226.984 667.452 226.984C666.408 226.984 665.472 227.788 665.472 229.024C665.472 230.26 666.408 231.064 667.452 231.064ZM678.318 232H676.746L674.49 229.468L673.278 230.776V232H672.03V222.76H673.278V229.096L676.194 226.048H677.658L675.318 228.58L678.318 232ZM684.535 228.892V229.324H679.711C679.831 230.428 680.635 231.088 681.511 231.088C682.171 231.088 682.843 230.896 683.263 230.056L684.379 230.296C683.887 231.544 682.831 232.168 681.511 232.168C679.891 232.168 678.475 230.92 678.475 229.036C678.475 227.14 679.879 225.88 681.559 225.88C683.155 225.88 684.475 227.104 684.535 228.892ZM681.559 226.984C680.779 226.984 679.939 227.476 679.747 228.436H683.251C683.059 227.464 682.375 226.984 681.559 226.984ZM689.229 225.88C690.657 225.88 691.617 226.912 691.617 228.4V232H690.357V228.652C690.357 227.68 689.793 227.032 688.941 227.032C687.873 227.032 687.165 227.752 687.165 229.252V232H685.917V226.048H687.165V226.78C687.645 226.204 688.341 225.88 689.229 225.88Z" fill="#1A1816"/>
<path d="M566 233.2H692.409V233.8H566V233.2Z" fill="#1A1816"/>
</g>
<defs>
<clipPath id="clip0_297_13561">
<rect width="127" height="24" fill="white" transform="translate(566 216)"/>
</clipPath>
</defs>
</svg>
