<svg width="455" height="225" viewBox="0 0 455 225" fill="none" xmlns="http://www.w3.org/2000/svg">
<path d="M0 131.678C0 128.606 2.4907 126.115 5.56312 126.115H207.437C210.509 126.115 213 128.606 213 131.678V218.965C213 222.037 210.509 224.528 207.437 224.528H5.56313C2.4907 224.528 0 222.037 0 218.965V131.678Z" fill="#D9D9D9"/>
<rect x="9.73535" y="137.937" width="133" height="10" rx="5" fill="#1A1816"/>
<rect x="9.73535" y="154.195" width="193.529" height="9.73547" rx="4.86773" fill="#1A1816"/>
<rect x="9.73535" y="170.189" width="174.691" height="10" rx="5" fill="#1A1816"/>
<rect x="9.73535" y="186.448" width="174.691" height="10" rx="5" fill="#1A1816"/>
<rect x="9.73535" y="202.706" width="81.5762" height="10" rx="5" fill="#1A1816"/>
<path d="M273.694 124.091C274.293 123.519 275.243 123.541 275.815 124.141L285.134 133.908C285.706 134.508 285.683 135.457 285.084 136.029C284.485 136.601 283.535 136.579 282.963 135.979L274.68 127.297L265.997 135.581C265.398 136.152 264.449 136.13 263.877 135.531C263.305 134.931 263.327 133.982 263.927 133.41L273.694 124.091ZM229.215 154.113C228.411 153.915 227.92 153.102 228.118 152.298C228.316 151.494 229.129 151.002 229.933 151.2L229.574 152.657L229.215 154.113ZM274.729 125.176L276.229 125.211C276.072 131.885 273.541 141.371 266.338 148.084C259.051 154.875 247.274 158.564 229.215 154.113L229.574 152.657L229.933 151.2C247.278 155.475 257.928 151.821 264.293 145.889C270.741 139.88 273.086 131.263 273.23 125.141L274.729 125.176Z" fill="black"/>
<path d="M241.706 5.56312C241.706 2.49069 244.197 0 247.269 0H449.143C452.215 0 454.706 2.4907 454.706 5.56312V92.8497C454.706 95.9221 452.215 98.4128 449.143 98.4128H247.269C244.197 98.4128 241.706 95.9221 241.706 92.8497V5.56312Z" fill="#D9D9D9"/>
<rect x="251.441" y="11.8215" width="133" height="10" rx="5" fill="#D92228"/>
<rect x="251.441" y="28.0801" width="193.529" height="9.73547" rx="4.86773" fill="#D92228"/>
<rect x="251.441" y="44.0742" width="174.691" height="10" rx="5" fill="#D92228"/>
<rect x="251.441" y="60.3328" width="174.691" height="10" rx="5" fill="#D92228"/>
<rect x="251.441" y="76.5911" width="81.5762" height="10" rx="5" fill="#D92228"/>
</svg>
